<?xml version="1.0" encoding="UTF-8"?>
<svg id="Ebene_1" xmlns="http://www.w3.org/2000/svg" viewBox="0 0 748.11 753.53">
  <path d="M481.56,636.55c5.59-1.96,10.52-.1,15.9,3.19,0-3.28.15-6.09-.09-8.87-.07-.89-.99-2.07-1.82-2.46-4.98-2.33-10.01-4.58-15.12-6.6-1.15-.46-2.75-.16-4.04.19-6.7,1.79-15.13-.98-18.5-6.22,3.86-3.62,12.78-4.48,18.67-.36,5.66,3.95,12.18,4.99,18.19,7.62.92.4,1.95.54,3.26.89v-16.49c-2.48-.41-5.05-.68-7.55-1.3-1.76-.43-3.68-1-5.02-2.11-1.37-1.14-2.11-3.02-3.13-4.58,1.68-.8,3.41-2.35,5.03-2.25,3.68.22,7.32,1.24,11.16,1.97v-10.45c-2.72-.56-5.53-1.05-8.29-1.74-1.51-.38-3.28-.75-4.31-1.76-1.45-1.44-2.33-3.46-3.45-5.23,1.76-.87,3.59-2.6,5.26-2.45,4.01.36,7.94,1.61,11.11,2.32-.21-3.18-.83-7.38-.65-11.55.12-2.85,1.27-6.3,4.74-6.28,3.41.01,4.67,3.36,4.85,6.26.23,3.93-.27,7.89-.43,11.19,2.75-.35,6.42-1.32,10-1.06,2.06.15,3.97,2.33,5.95,3.59-1.54,1.59-2.8,3.88-4.68,4.63-3.23,1.29-6.83,1.63-10.85,2.49v14.59c2.05-.31,4.27-1.05,6.39-.84,1.44.14,3.31,1.32,3.92,2.56.39.79-.83,3.12-1.92,3.75-2.66,1.53-5.67,2.47-8.92,3.81v6.04c4.04,0,8.01.03,11.97-.03.65-.01,1.44-.32,1.92-.76,4.31-3.95,9.4-4.34,14.71-3.07,1.3.31,2.32,1.74,3.47,2.66-.91,1.02-1.64,2.35-2.77,3-4.75,2.76-9.83,2.18-15,.88-3.42,5.09-8.89,6.06-14.5,7.14v6.54h10.58l-.09-.12c1.86,3.83-.99,5.32-3.57,6.51-2.08.96-4.49,1.21-7.06,1.86.12,2.48.24,4.92.4,8.05,4.53-2.59,9.53-2.89,12.21-8.05,2.02-3.9,13.54-5.62,17.56-3.41,2.46,1.35,2.12,3.26.12,4.11-4.03,1.7-8.41,2.54-12.47,4.17-5.63,2.26-11.1,4.92-16.62,7.43-.2.09-.44.41-.43.62.15,7.44-7.5,7.34-10.41,11.89-.67-.73-.96-.9-.96-1.07.05-6.7-.13-6.3-6.17-9.21-4.71-2.27-8.92-2.7-14.06-1.52-6.14,1.41-12.1-.33-17.14-4.6,5.96-6.41,19.67-5.97,25.18.46.6.7,1.74,1.01,2.68,1.32,3.09,1.02,6.22,1.95,9.75,3.05.17-3.26.33-6.42.5-9.56-6.82-1.46-14.11-1.54-16.83-9.55.46-.4.91-.8,1.37-1.2v-.03Z" style="fill: #c49c48;"/>
  <path d="M266.98,637.98c-.32,3.51-2.78,5.34-5.65,6.44-3.27,1.25-6.73,2-10.67,3.13.12,2.72.27,5.93.44,9.92,4.96-2.54,10.02-2.68,14.09-6.67,4.61-4.53,18.41-5.06,23.9,1.31-5.36,4.62-11.79,6.49-18.18,4.38-7.37-2.43-12.45,2.51-18.58,3.92-.48.11-.87,1.45-.94,2.25-.14,1.66-.04,3.34-.43,5.26-3.59-4.01-10.16-4.96-11.01-11.64-.08-.62-1.3-1.18-2.08-1.62-3.42-1.94-6.82-3.93-10.33-5.68-1.07-.54-2.52-.26-3.74-.56-4.4-1.06-8.82-2.1-13.15-3.42-.87-.27-1.92-1.77-1.88-2.65.04-.79,1.36-1.81,2.33-2.2,6.17-2.5,13.93.63,18.36,5.69,2.37,2.7,6.7,3.68,10.5,5.62.2-1.2.26-1.82.41-2.41.99-3.97.03-6.2-4.61-6.66-2.91-.29-7-2.06-6.26-5.23.83-3.53,5.06-2.75,8.21-2.19,1.01.18,1.99.49,3.15.78v-6.9c-5.33-1.38-11.27-1.35-13.68-5.88-5.62-.61-10.47-.92-15.22-1.8-1.27-.24-2.2-2.25-3.29-3.45,1.28-.96,2.45-2.48,3.87-2.76,5.16-1.03,10.2-.81,14.26,3.32.46.47,1.24.9,1.86.88,3.97-.13,7.93-.39,12.03-.61v-5.72c-2.94-.87-5.82-1.2-8.06-2.57-1.6-.98-2.35-3.35-3.48-5.09,1.89-.83,3.72-2.16,5.68-2.36,1.81-.19,3.74.82,5.63,1.3v-14.79c-4.3-1.12-8.18-1.82-11.79-3.22-1.53-.59-2.5-2.65-3.72-4.04,1.44-1.18,2.71-3,4.35-3.42,4.14-1.07,8.35-.89,11.86,1.69-.33-3.69-.99-7.47-.91-11.23.07-3.18,1.02-6.98,4.9-6.97,3.8.01,4.94,3.91,5.1,6.96.2,3.91-.65,7.87-.97,11,3.09-.75,6.97-2.12,10.95-2.48,1.75-.16,3.68,1.73,5.53,2.68-1.19,1.72-2,4.26-3.63,4.99-3.88,1.73-8.15,2.6-12.54,3.89v9.89c3.84-.71,7.49-1.67,11.19-1.92,1.53-.1,3.17,1.33,4.76,2.06-.96,1.59-1.54,3.97-2.94,4.61-3.97,1.82-8.27,2.93-12.56,4.36v16.78c7.19-3.2,13.71-5.93,20.07-8.98,5.67-2.72,11.42-3.9,17.52-1.98,2.96.93,3.24,2.51.77,4.37-4.99,3.76-10.55,4.92-16.72,3.55-1.6-.35-3.56-.12-5.1.48-4.27,1.65-8.32,3.94-12.65,5.39-2.96.99-3.87,2.47-3.52,5.38.23,1.92.04,3.9.04,6.14,5.31-1.8,10.09-5.17,15.61-2.01.31.24.63.48.94.73l-.02-.04Z" style="fill: #c49c48;"/>
  <path d="M333.25,87.56c-2.71-4.77-5.13-9.05-8.07-14.24,3.38.37,5.63.61,8.14.89-.5-8.8,1.61-16.54,7.58-23.53,7.07,6.04,10.62,13.34,10.21,22.72,2.45-.71,4.61-1.35,7.86-2.3-2.21,5.47-4.04,9.99-6.03,14.91,4.14-.24,8-.47,12.39-.73.62,9.81-2.95,17.74-9.44,25.03,3.67.6,6.82,1.12,10.34,1.7-2.64,7.98-6.5,14.63-12.78,19.42-2.87,2.19-2.93,4.27-2.43,7.33,1.38,8.5,2.43,17.06,3.68,26.09h-9.36c-.28-4.46-.59-9.01-.84-13.56-.13-2.36-.32-4.73-.2-7.09.34-6.7-.75-11.98-7.66-15.83-4.7-2.62-7.84-8.06-12.26-12.89,4.01-1.35,6.69-2.26,10.13-3.42-6.89-6.09-11.7-13-12.25-22.52,3.69-.67,7.25-1.32,11-2v.02ZM349.15,113.63c-.69-9.57-1.36-18.91-2.03-28.3h-5.78c.79,9.66,1.56,19.02,2.36,28.69,1.84-.13,3.47-.25,5.46-.39h0Z" style="fill: #c49c48;"/>
  <path d="M466.47,125.4c3.51,1.63,6.31,2.93,9.57,4.44-4.95,7.02-10.89,11.75-18.29,14.54-2.52.95-3.63,2.14-3.98,4.93-.98,7.8-2.39,15.55-3.68,23.32-.21,1.26-.71,2.48-1.16,4.02-2.72-.52-5.23-1.01-8.35-1.61,1.96-8.2,3.85-16.17,5.76-24.13.27-1.15.49-2.33.93-3.41,1.21-2.97.62-5.29-1.5-7.82-4.98-5.94-7.95-12.83-8.43-21.15,3.11.24,5.91.45,9.21.7-4.08-8.19-6.7-16.15-4.32-25.3,3.73.71,7.13,1.36,10.78,2.05-.93-5.04-1.82-9.85-2.91-15.76,2.78,1.31,4.59,2.16,6.81,3.21,1.88-8.41,6.8-14.8,13.74-20.4,5.04,8.17,6.41,16.52,2.93,25.76,2.3.15,4.32.29,7.4.49-3.4,4.39-6.38,8.23-9.5,12.25,3.73,1.03,7.21,1.99,10.97,3.03-2.23,9.42-8.2,15.59-15.97,20.84h0ZM458.86,126.51c2.39-9.54,4.62-18.49,6.9-27.59-1.87-.51-3.59-.98-5.61-1.53-2.27,9.46-4.46,18.57-6.73,28.01,1.97.4,3.58.73,5.45,1.11h-.01Z" style="fill: #c49c48;"/>
  <path d="M386.54,83.68c3.75.27,7.11.52,10.7.78-1.5-5.02-2.91-9.72-4.54-15.19,2.68.71,4.48,1.19,6.48,1.72.93-8.74,4.72-15.81,11.25-21.98,6.09,7.61,7.82,15.81,5.68,25.17,2.49-.28,4.62-.52,7.77-.88-2.91,4.88-5.36,8.99-8.15,13.66,2.36.22,4.37.45,6.39.58,4.89.32,5.61.87,3.5,5.41-2.39,5.14-5.71,9.87-8.77,14.67-.67,1.05-1.99,1.69-3.52,2.93,3.93,1.17,7.06,2.09,10.67,3.16-3.91,7.99-9.15,13.84-16.61,17.41-2.51,1.2-3.42,2.62-3.52,5.31-.3,7.87-.7,15.75-1.39,23.6-.47,5.31-.73,5.3-6.03,4.83-1.01-.09-2.01-.33-3.49-.58,1.26-8.63,2.24-17.1,3.82-25.44.95-5.04.89-8.98-3.39-12.91-5.43-4.99-8.08-11.67-8.63-17.63h8.92c-5.11-7.72-8.44-15.26-7.12-24.64l-.02.02ZM406.47,113.8c1.19-9.94,2.32-19.44,3.47-29.13-2.19-.13-3.83-.22-5.55-.32-1.16,9.83-2.29,19.37-3.44,29.16,2.04.11,3.57.19,5.52.29Z" style="fill: #c49c48;"/>
  <path d="M169.47,323.84c-.49,3.65-.84,6.21-1.27,9.43-8.23-1.8-16.17-3.33-23.98-5.35-3.48-.9-5.79-.77-8.39,2.23-4.71,5.43-10.96,8.72-18.43,10.62-.2-3.47-.39-6.56-.6-10.23-7.1,4.6-14.46,7.55-23.55,5.83.5-3.92,1-7.72,1.53-11.84-4.76,1.5-9.42,2.97-15.04,4.74,1.17-3.08,2.05-5.41,3.1-8.18-8.46-1.17-15.72-4.76-21.6-11.69,7.53-5.36,15.61-6.55,24.36-5.61-.36-2.36-.68-4.47-1.19-7.8,5.13,3.49,9.37,6.36,13.96,9.48.73-3.82,1.41-7.44,2.16-11.4,9.33,1.24,15.32,6.81,20.7,13.83,1.45-2.87,2.76-5.46,4.16-8.23,6.74,4.77,11.35,10.69,13.8,18.12.82,2.49,2.08,3.1,4.46,3.31,8.45.76,16.88,1.78,25.81,2.76v-.02ZM93.39,317.21c9.36,1.34,18.37,2.63,27.57,3.95.36-1.97.65-3.57.98-5.44-9.56-1.36-18.78-2.68-28.22-4.03-.12,2-.21,3.54-.33,5.52Z" style="fill: #c49c48;"/>
  <path d="M173.2,207.24c1.68-2.51,3.19-4.77,5.1-7.64-9-.97-17.39-2.69-23.75-10.59,2.77-2.25,5.49-4.47,8.9-7.24-5.73-2.32-10.32-4.18-15.72-6.37,2.67-1.8,4.54-3.06,6.48-4.36-6.23-6.55-8.61-14.3-8.64-23.44,8.88,1.17,15.62,5.15,21.15,12.16,1.11-1.97,2.08-3.7,3.62-6.44,2.14,5.33,3.97,9.9,5.89,14.7,2.6-2.75,5.06-5.36,7.63-8.09,7.25,6.81,8.69,15.33,8.79,24.91,3.16-1.68,5.85-3.11,9.4-4.99.97,3.86,2.31,7.15,2.51,10.52.29,4.93-.38,9.91-.34,14.87,0,1.42.71,3.22,1.73,4.17,4.99,4.65,10.23,9.03,15.29,13.61,1.52,1.38,2.74,3.09,4.15,4.7-2.05,2.08-3.86,3.91-6.09,6.17-3.86-4.1-7.61-8.08-11.34-12.08-1.43-1.54-2.98-3.01-4.16-4.73-2.99-4.33-6.65-6.23-12.21-5.65-6.3.65-12.44-1.03-18.4-4.19h.01ZM165.94,174.82c6.71,7.19,13.27,14.24,19.83,21.26,1.61-1.39,2.87-2.48,4.18-3.62-6.67-7.36-13-14.34-19.42-21.43-1.56,1.29-3.04,2.51-4.58,3.79h0Z" style="fill: #c49c48;"/>
  <path d="M516.52,105.39c1.06,1.66,2.11,3.32,3.59,5.64,4.41-8.62,10.69-13.44,18.66-17.12,2.28,9.03,2.17,17.34-2.86,25.31,2.32.77,4.36,1.45,7.4,2.46-4.68,3.19-8.51,5.81-12.6,8.6,3.39,2.03,6.68,4.01,10.11,6.07-4.6,8.19-11.71,12.38-20.14,15.44,2.94,2.46,5.58,4.67,8.53,7.14-6.57,5.81-14.04,8.65-22.17,9.7-2.39.31-3.29,1.12-4.02,3.25-2.29,6.69-4.71,13.35-7.3,19.93-1.88,4.8-2.04,4.75-6.78,2.73-1.07-.45-2.09-1.02-3.55-1.74,3.99-8.16,7.79-16.21,11.87-24.12,1.37-2.66,1.65-4.77.23-7.62-3.31-6.64-4.92-13.74-3.8-21.67,3.06.82,5.89,1.57,9.21,2.45-2.69-8.65-3.68-16.82.91-25.27,3.18,1.53,6.29,3.02,9.65,4.64.5-5.18.98-10.16,1.47-15.14.53-.23,1.06-.45,1.59-.68h0ZM512.79,151.67c4.58-8.69,9.09-17.24,13.67-25.94-1.54-.91-3.2-1.89-5.13-3.03-4.62,9-9.14,17.79-13.74,26.74,1.86.8,3.4,1.45,5.2,2.23Z" style="fill: #c49c48;"/>
  <path d="M578.74,153.88c1.59,2.75,2.55,4.42,3.44,5.96,3.38-2.33,6.48-4.97,10.02-6.74,3.4-1.7,7.26-2.49,11.63-3.9-.3,9.6-2.55,17.23-9.21,23.5,2.09,1.17,4.15,2.33,7.11,4-5.28,2.16-9.71,3.96-14.67,5.99,2.91,2.64,5.64,5.12,8.51,7.71-6.9,7.06-15.29,8.64-24.42,9.08,2.01,3.07,3.7,5.64,5.62,8.57-7.85,3.34-15.47,4.79-23.43,3.54-2.56-.4-3.93.14-5.47,2.3-5.01,7.01-10.35,13.77-15.87,21.04-2.68-2.34-4.62-4.03-6.91-6.02,1.42-1.73,2.64-3.37,4.03-4.86,4.93-5.28,9.84-10.57,14.92-15.7,1.87-1.89,2.26-3.71,1.81-6.33-1.23-7.19-1.02-14.33,2.24-21.74,2.67,1.48,5.12,2.83,8.14,4.51.16-8.93,1.4-17.36,9.12-24.21,2.36,2.84,4.68,5.63,7.3,8.79,2.13-5.4,3.93-9.98,6.1-15.47v-.02ZM579.99,173.38c-7.34,6.71-14.37,13.12-21.43,19.56,1.56,1.72,2.67,2.94,3.93,4.33,6.95-7.21,13.63-14.14,20.4-21.16-.95-.89-2.26-2.12-2.91-2.73h0Z" style="fill: #c49c48;"/>
  <path d="M634.17,256.95c-8.33,5.14-16.82,5.02-25.78,3.3.89,3.34,1.65,6.21,2.52,9.47-7.78,1.06-14.92-.14-21.43-3.82-2.81-1.59-4.51-1.17-6.88.58-5.17,3.82-10.57,7.33-15.91,10.9-1.27.85-2.71,1.46-4.32,2.32-1.55-2.65-2.92-4.99-4.61-7.88,6.99-3.64,13.68-7.47,20.66-10.64,3.71-1.68,5.22-3.98,5.58-7.88.64-6.79,3.31-12.84,7.7-18.39,2.02,2.14,3.86,4.09,6.26,6.64,1.85-9.89,6.64-16.85,14.92-21.87,2.37,3.47,4.64,6.79,7.01,10.26,2.95-4.31,5.85-8.55,9.38-13.71.71,3.31,1.19,5.51,1.7,7.92,7.22-3.58,14.62-5.03,22.79-3.12-2.32,8.56-7.12,14.79-14.7,19.15,1.57,1.46,2.96,2.77,5.1,4.77-5.72,1.02-10.65,1.9-15.93,2.84,1.96,3.04,3.82,5.92,5.91,9.15h.03ZM601.73,254.71c8.41-4.66,16.71-9.26,25.15-13.94-.8-1.58-1.61-3.18-2.51-4.95-8.6,4.77-16.99,9.42-25.56,14.18,1.07,1.73,1.94,3.14,2.91,4.71h.01Z" style="fill: #c49c48;"/>
  <path d="M149.17,241.31c2.37-2.14,4.37-3.94,6.65-6,4.94,6.78,7.89,13.78,7.95,21.77.02,2.59.87,3.94,3.2,5.13,5.84,2.98,11.53,6.25,17.19,9.57,4.61,2.72,4.55,2.83,2.04,7.37-.56,1.01-1.14,2.01-2.02,3.56-5.61-4.02-11.22-7.65-16.36-11.85-4.35-3.56-8.03-4.86-13.83-2.33-5.16,2.26-11.41,2.02-18.16,3.03,1.16-4.28,1.95-7.21,2.89-10.67-9.01,1.56-17.33,1.24-24.79-4.75,2.04-3.15,4.01-6.19,6.18-9.55-5.16-1.04-9.93-2-14.7-2.96-.26-.38-.52-.75-.78-1.13,1.85-.97,3.69-1.94,6.2-3.25-9.28-4.67-14.72-10.58-17.83-19.14,8.42-2.52,15.92-.51,23.5,3.24.6-2.01,1.16-3.91,1.98-6.68,3.42,4.91,6.38,9.15,9.39,13.47,1.85-3.18,3.61-6.21,5.5-9.48,8.21,4.74,13.01,11.64,15.8,20.67v-.02ZM147.37,249.51c-8.22-4.91-16.23-9.69-24.37-14.55-1.11,1.9-2.08,3.56-2.93,5.01,8.19,4.72,16.21,9.35,24.43,14.08.94-1.48,1.82-2.87,2.87-4.54h0Z" style="fill: #c49c48;"/>
  <path d="M206.99,118.85c2.14-.41,4.28-.81,6.65-1.26-3.29-7.47-5.34-14.81-3.25-23.28,8.33,3.47,13.75,9.5,17.99,17.25,1.4-1.68,2.6-3.13,4.56-5.48.8,5.68,1.45,10.37,2.18,15.53,2.91-1.41,5.79-2.81,9.05-4.39,5.01,8.88,3.33,17.76.63,27.18,3.25-.9,6.14-1.69,9.39-2.58,1.35,8.77.23,16.68-3.62,24.1-1.18,2.27-1.1,3.74.28,5.95,4.4,6.99,8.31,14.29,12.61,21.34,2.07,3.4,1.43,5.5-2.19,6.93-1.08.43-2.06,1.08-3.6,1.9-4.08-9.01-8.28-17.73-11.98-26.66-1.56-3.76-3.63-5.73-7.69-6.64-7.28-1.62-13.58-5.35-19.24-10.96,2.67-2.13,5.16-4.11,7.99-6.36-8.22-3.5-15.19-7.88-18.77-16.63,3.36-1.9,6.63-3.75,10-5.65-3.92-3.09-7.77-6.12-11.61-9.15.21-.37.42-.74.63-1.12v-.02ZM223.88,123.42c4,9.53,7.88,18.78,11.91,28.37,1.7-.76,3.17-1.41,4.83-2.15-3.84-9.41-7.52-18.43-11.26-27.6-1.72.43-3.36.84-5.47,1.38h-.01Z" style="fill: #c49c48;"/>
  <path d="M630.11,330.61c-.24,3.77-.44,6.85-.67,10.44-7.86-1.98-14.11-5.66-18.73-11.51-2.22-2.81-3.98-2.74-6.88-1.64-6.71,2.55-13.55,4.75-20.82,7.25-.95-3.08-1.74-5.62-2.77-8.94,6.5-1.46,12.64-3.26,18.9-4.12,5.37-.73,8.92-2.45,10.94-8.01,2.17-6,6.83-10.41,12.79-14.02,1.14,2.94,2.15,5.55,3.4,8.79,5.07-7.64,11.56-12.54,21.09-13.76.75,3.9,1.51,7.8,2.32,11.98,4.51-2.99,8.83-5.85,14.02-9.29-.28,2.98-.46,4.95-.65,6.92,3.76.54,7.56.72,11.15,1.7,3.6.98,6.98,2.75,10.96,4.39-5.69,6.96-12.17,10.94-20.74,12.14,1.09,2.15,2.06,4.08,3.54,7-5.59-1.36-10.36-2.52-15.3-3.72.7,3.85,1.34,7.39,2.01,11.06-9.4,1.68-17.04-1.19-24.56-6.66h0ZM653.32,314.27c-9.59,1.09-18.82,2.13-28.37,3.21.25,1.94.46,3.66.7,5.56,9.67-1.17,18.85-2.29,28.08-3.41-.14-1.9-.26-3.44-.41-5.37h0Z" style="fill: #c49c48;"/>
  <path d="M138.46,429.91c-2.36,2.34-4.82,4.59-7.04,7.06-1.21,1.35-1.99,3.07-2.97,4.63.32.24.64.49.96.73,2.59-1.3,5.19-2.59,8.65-4.32-.58,6.61-5.02,9.42-9.8,13.13,4.05-1.13,6.91-1.93,10.15-2.83-.06,7.26-9.27,7.11-9.36,13.23,2.72-.48,5.08-.89,7.44-1.3.2,1.35.41,2.7.61,4.04l.06-.05c-1.2,1.2-2.2,2.77-3.64,3.53-3.19,1.69-3.52,4.2-2.73,7.44,2.02-1.17,4.06-2.35,6.31-3.66,1.66,4.84-1.07,7.32-3.87,9.41-2.19,1.63-3.25,3.27-2.32,6.2.98-.71,1.8-1.63,2.81-1.96,1.22-.4,2.6-.29,3.92-.41-.02,1.35.37,2.9-.16,4.01-.7,1.48-1.88,3-3.26,3.84-3.55,2.15-3.84,5.23-3.19,9.24,1.23-.9,2.13-1.86,3.24-2.29,1.08-.41,2.37-.27,3.57-.38.08,1.22.57,2.61.14,3.63-.63,1.52-1.81,2.85-2.92,4.12-.95,1.08-2.2,1.87-3.2,2.91-3.7,3.85-3.71,3.89-7.6-.16-1.81-1.89-3.73-3.73-5.18-5.88-.83-1.23-.81-3.02-1.18-4.56.34-.27.68-.55,1.02-.82,2.42,1.29,4.84,2.59,7.22,3.85.45-3.51.38-6.63-3.93-8.37-1.83-.74-3.22-3-4.37-4.84-.53-.85-.03-2.35,0-3.55,1.23.12,2.59-.04,3.65.45,1.22.56,2.18,1.71,3.5,2.81.59-3.29.17-5.45-2.71-7.24-2.94-1.83-5.83-4.22-4.99-9.65,2.71,1.37,5.07,2.56,7.46,3.76.88-3,.34-5.31-2.9-6.86-1.6-.76-3.12-2.12-4.1-3.59-.75-1.12-.61-2.84-.86-4.29,1.44-.22,2.92-.75,4.31-.58,1.21.15,2.32,1.09,3.98,1.93-.64-6.47-8.39-5.83-9.37-9.81-5.06-.38-9.58-.29-13.86-1.24-2.24-.5-4.07-2.84-6.37-4.57,5.72-3.11,13.24-1.41,18.99,3.68,1.88-1.49,5.38-1.34,10.5.47-1.44-1.33-2.88-2.66-4.32-3.98-.39-.35-.83-.65-1.2-1.02-2.07-2.02-4.26-4-3.32-7.37,2.31.7,4.63,1.4,6.94,2.1.24.07.48.16,1.63-.35-.87-1.17-1.52-2.64-2.65-3.45-3.36-2.39-6.52-4.75-5.89-10.42,3.07,1.58,5.65,2.91,8.23,4.23.26-.24.52-.48.78-.72-3.41-2.93-6.81-5.87-10.22-8.8.26-.52.52-1.05.78-1.57,2.69.39,5.37.79,8.96,1.32-.77-1.27-1.22-2.57-2.12-3.36-1.76-1.55-4.01-2.6-5.58-4.29-.97-1.04-1.06-2.9-1.54-4.4,1.69,0,3.45-.28,5.06.09,1.17.26,2.15,1.38,3.22,2.11.34-.27.67-.55,1.01-.82-1.08-1.37-1.98-2.94-3.28-4.06-2.86-2.48-5.92-4.74-8.9-7.08.33-.61.66-1.22,1-1.83,3.4,1.07,6.8,2.14,11.24,3.54-4.29-4.52-7.92-8.36-11.56-12.19.37-.54.75-1.08,1.12-1.62,3.23,1.3,6.46,2.59,10.48,4.21-.48-2.69-.71-5.22-1.4-7.61-1.5-5.28-1.05-10.04,2.98-14.58,8.5,6.85,2.3,14.84,2.12,22.35,4-1.54,7.89-3.02,11.77-4.51.23.37.45.74.68,1.11-1.86,5.42-7.37,7.47-11.31,11.26,3.2-.68,6.18-1.31,9.16-1.94.29.53.58,1.06.86,1.59-2.94,2.37-5.98,4.63-8.79,7.15-1.33,1.2-2.23,2.88-2.93,4.73,3.71-.27,6.53-3.89,10.47-1.33-.98,4.13-4.25,5.82-7.31,7.82-1.1.71-1.76,2.09-3.15,3.8,4.03-.66,6.79-1.12,9.9-1.63-.68,6.17-8.54,5.99-9.23,12.05,1.92-1.38,3.32-2.5,4.82-3.45,2.65-1.67,4.45-1.32,4.74,2.2l.14-.14v-.03Z" style="fill: #c49c48;"/>
  <path d="M620.15,431.28c1.04-3.48-1.9-4.26-3.62-5.82-1.69-1.53-3.38-3.07-5.06-4.61.18-.48.35-.96.53-1.44,2.65.34,5.3.67,8.24,1.05.86-1.87-.33-2.95-2.29-3.94-3.04-1.54-5.99-3.29-6.35-7.41,3.65-1.87,6.27.47,9.09,2.16.97-3.04.06-4.58-2.57-6.05-2.99-1.67-5.5-4.22-8.76-6.81,4.58-2.24,7.51.27,11.43,1.72-4.24-4.82-10.56-6.45-12.59-13.93,4.84,1.92,8.73,3.47,12.76,5.08.04-7.27-5.96-15.04,1.15-22.29,4,2.53,4.99,6.23,4.61,10.27-.36,3.83-1.31,7.61-2.08,11.88,4.09-1.63,7.5-2.99,10.9-4.35.37.52.74,1.04,1.11,1.57-3.66,3.67-7.33,7.34-11.71,11.73,4.24-1.24,7.46-2.19,11.28-3.3-1.04,7.16-10.48,6.66-10.57,14.08,2.03-1.06,3.6-2.19,5.35-2.67,1.04-.29,2.36.44,3.55.71-.27,1.06-.19,2.47-.86,3.12-1.96,1.89-4.27,3.41-6.33,5.2-.98.85-1.73,1.98-3.23,3.73,4.21-.66,7.06-1.1,9.92-1.55.27.48.55.96.82,1.44-1.8,1.63-3.67,3.19-5.39,4.91-1.55,1.55-4.99,1.69-4.25,4.82,2.72-1.27,5.4-2.51,8.33-3.87,1.96,8.23-7.51,8.3-8.64,14.65,2.27-1.12,3.79-2.09,5.45-2.59.99-.3,2.73-.28,3.16.31.51.7.41,2.52-.18,3.23-1.73,2.09-3.83,3.89-5.8,5.77-.85.81-1.77,1.56-2.95,2.6,4.53-.65,8.45-.92,12.21-1.84,3.51-.86,6.78-2.69,10.3-3.53,1.99-.48,4.24.17,6.63.32-3.38,6.64-11.33,8.9-18.23,5.67-1.85,1.62-3.67,3.3-5.58,4.87-1.72,1.41-3.53,2.71-5.3,4.06.27.42.54.83.81,1.25,1.29-.43,2.59-1.2,3.88-1.21,1.26,0,2.9.43,3.66,1.3.48.55-.02,2.51-.68,3.37-1.19,1.53-2.68,2.94-4.32,3.99-2.45,1.57-3.3,3.58-2.67,6.7,1.61-.88,3.09-1.82,4.69-2.48.71-.29,2.01-.31,2.4.12.46.51.62,1.95.22,2.46-1.75,2.25-3.84,4.24-5.62,6.47-1.26,1.57-2.22,3.39-3.31,5.09.31.24.61.47.92.71,1.42-.79,2.79-1.74,4.3-2.31.85-.32,2.37-.36,2.82.15.49.56.5,2.17.03,2.85-1.4,2.02-2.82,4.29-4.81,5.56-2.97,1.89-4.15,4.07-3.21,7.48,2.22-.96,4.55-1.97,6.88-2.97.35.31.71.61,1.06.92-.71,1.8-1.07,3.88-2.2,5.36-2.06,2.69-4.5,5.11-6.98,7.43-.57.53-2.38.63-2.88.16-2.37-2.23-4.54-4.7-6.68-7.17-.67-.77-1.29-1.78-1.43-2.75-.17-1.19.18-2.45.31-3.69,1.19.22,2.48.23,3.55.72,1.03.47,1.83,1.43,3.28,2.63.11-4.2,1.53-7.81-3.34-10.24-2.87-1.43-4.25-4.53-3.08-8.97,2.46,1.14,4.66,2.16,6.95,3.22,1.14-2.57-.5-4.03-2.44-5.57-2.81-2.25-5.07-4.85-3.35-9.57,2.26,1.58,4.11,2.88,6.16,4.31.64-3.24.74-5.75-2.64-7.43-1.63-.81-3.05-2.56-3.91-4.22-.52-1-.05-2.78.53-3.93.2-.39,2.17-.2,3.16.17,1.39.52,2.62,1.46,3.92,2.22.33-.29.65-.58.98-.87-1.21-1.53-2.31-3.18-3.67-4.57-1.64-1.68-3.59-3.04-5.21-4.74-.61-.64-.65-1.81-.95-2.74,1.08-.22,2.27-.83,3.21-.57,1.79.5,3.44,1.49,5.3,2.35-3.16-4.01-6.13-7.8-9.11-11.58.41-.49.82-.98,1.23-1.47,2.57,1.25,5.13,2.5,7.78,3.79.94-2.7-.26-4.29-2.68-5.77-1.95-1.2-3.7-2.96-5.04-4.83-.65-.9-.14-2.63-.16-3.99,1.2.14,2.58-.04,3.56.5,1.56.87,2.85,2.22,4.34,3.44l-.04-.03Z" style="fill: #c49c48;"/>
  <path d="M600.07,649.94c-5.65,2.16-11.29,4.32-16.89,6.46,7.48,5.53,14.91,11.03,22.35,16.53-.19.42-.37.83-.56,1.25-9.73.17-18.84-3.47-28.54-5.48,2.77,8.1,5.45,15.92,8.13,23.73-.39.35-.79.7-1.18,1.05-6.44-4.5-12.88-9-19.96-13.94v23.68c-.56.13-1.12.27-1.69.4-3.61-7.98-7.22-15.97-10.94-24.2-3.87,4.83-7.65,9.57-12.14,15.18-1.48-8.42-2.83-15.79-3.98-23.19-.11-.68.93-1.78,1.7-2.31,13.24-9.25,26.5-18.46,39.82-27.59.92-.63,2.52-1,3.51-.65,6.78,2.42,13.47,5.06,20.19,7.63.06.49.11.98.17,1.47v-.02Z" style="fill: #c49c48;"/>
  <path d="M241.53,732.53v-22.6c-8.3,4.68-15.77,8.88-23.23,13.08-.42-.42-.85-.83-1.27-1.25,5.82-7.98,11.64-15.96,17.99-24.67h-19.89c-.13-.39-.26-.77-.39-1.16,5.66-5.19,11.28-10.44,17.06-15.5.6-.53,2.22-.24,3.23.09,14.29,4.77,28.57,9.57,42.8,14.5,1.26.44,2.91,1.73,3.12,2.86,1.27,6.95,2.17,13.96,3.4,22.3-6.01-4.01-11.03-7.38-16.49-11.02-.53,9.32-1.05,18.43-1.56,27.55-.47.09-.94.19-1.41.28-2.78-6.93-5.56-13.87-8.44-21.04-4.49,5.77-8.93,11.47-13.36,17.18-.51-.2-1.03-.4-1.54-.6h-.02Z" style="fill: #c49c48;"/>
  <path d="M279.08,102.74c-2.99-3.82-5.84-7.46-9.15-11.68,2.78-.58,4.64-.97,6.65-1.39-1.94-7.68-2.62-15.26,1.07-23.07,6.96,4.47,10.37,11.04,12.82,18.65,1.46-1.21,2.72-2.25,4.92-4.07-.28,5.65-.51,10.34-.77,15.5,3.06-1.2,5.7-2.24,8.74-3.42,3.23,9.29,1.2,18.1-1.77,27.22,2.99-.62,5.6-1.16,8.69-1.79.38,8.32-1.39,15.79-5.64,22.36-2.42,3.74-2.49,6.69-.84,10.68,2.84,6.89,5.15,14.02,7.32,21.16,2.08,6.85,1.88,6.91-5.98,8.76-1.12-4.21-2.3-8.43-3.35-12.69-1.6-6.49-2.95-13.04-4.77-19.46-.49-1.72-2-3.6-3.57-4.47-5.67-3.16-10.99-6.63-15.15-12.52,2.38-1.92,4.65-3.76,6.1-4.93-4.11-5.2-8.46-10.04-12-15.41-2.81-4.26-2.33-4.7,2.09-7.08,1.47-.79,2.97-1.51,4.59-2.33v-.02ZM297.37,126.01c-2.65-9.81-5.21-19.32-7.79-28.87-1.85.43-3.45.8-5.15,1.2,2.75,9.92,5.43,19.59,8.15,29.36,1.53-.54,2.88-1.01,4.79-1.69Z" style="fill: #c49c48;"/>
  <path d="M385.76,752.9c2.21-10.42,4.42-20.83,6.76-31.9-6.53,3.23-12.54,6.2-18.55,9.17-.26-.2-.53-.4-.79-.6,2.67-6.19,5.23-12.42,8.12-18.51.44-.93,2.3-1.5,3.58-1.66,17.17-2.12,34.34-4.17,51.53-6.14,1.09-.13,2.82.16,3.33.89,3.9,5.7,7.57,11.55,11.32,17.36-.19.38-.38.75-.57,1.13-6.87-1.53-13.74-3.06-20.62-4.6,4.23,10.14,8.44,20.22,12.65,30.3-.5.37-1.01.74-1.51,1.11-6.42-6.53-12.84-13.07-19.45-19.8-1.95,7.29-3.88,14.53-5.82,21.77-.42.03-.84.06-1.27.09-3.21-7.81-6.43-15.62-9.77-23.74-5.79,8.66-11.52,17.21-17.24,25.76-.56-.22-1.12-.43-1.68-.65l-.02.02Z" style="fill: #c49c48;"/>
  <path d="M34.86,287.07c5.48,5.19,11.02,10.32,16.36,15.66.67.67.51,2.48.28,3.67-2.75,14.29-5.51,28.58-8.49,42.82-.29,1.41-1.76,3.13-3.1,3.67-5.81,2.36-11.78,4.34-19.02,6.93,2.25-6.1,4.15-11.24,5.97-16.17H.52c-.13-.28-.25-.56-.38-.85,7-3.3,14-6.6,21.24-10.01-6.54-4.29-12.99-8.52-19.45-12.75l.21-1.41c7.64-1.01,15.27-2.02,22.97-3.04-5.62-7.82-11.12-15.48-16.63-23.13.49-.53.98-1.06,1.46-1.59,8.29,5.24,16.59,10.47,24.85,15.69-.29-6.37-.57-12.73-.86-19.08l.93-.41Z" style="fill: #c49c48;"/>
  <path d="M546.88,67.32c3.87,5.2,7.02,9.44,10.29,13.83,3.31-8.51,6.52-16.74,9.72-24.98.44.07.87.14,1.31.21v23.65c6.54-4.4,12.52-8.44,18.51-12.47.4.26.81.52,1.21.78-2.13,7.36-4.27,14.73-6.48,22.37,8.9-1.96,17.98-3.97,27.05-5.97.22.47.43.93.65,1.4-6.81,6.98-15.45,11.55-24.17,17.06,6,2.62,11.63,5.08,18.1,7.9-1.85,1.17-2.94,2.02-4.15,2.59-4.27,2.01-8.68,3.75-12.85,5.95-2.84,1.5-4.86,1.17-7.39-.78-11.35-8.72-22.81-17.3-34.36-25.75-2.5-1.83-3.24-3.49-2.31-6.56,1.8-5.95,3.09-12.06,4.87-19.22h0Z" style="fill: #c49c48;"/>
  <path d="M330.38,751.45c-1.97-6.94-3.95-13.88-6.35-22.31-6.35,6.69-12.08,12.72-17.82,18.75-.43-.22-.86-.44-1.29-.66,3.7-8.9,7.39-17.81,11.22-27.02-6.11,1.23-11.98,2.4-18.39,3.69.38-1.29.47-2.16.87-2.84,3.3-5.67,6.57-11.37,10.06-16.92.57-.91,2.27-1.77,3.31-1.63,15.09,1.99,30.15,4.22,45.24,6.21,2.42.32,3.68,1.12,4.35,3.5,1.73,6.17,3.68,12.28,5.96,19.79-6.01-2.59-11.03-4.75-16.34-7.04,1.05,8.74,2.07,17.22,3.09,25.69l-1.27.43c-3.86-6.15-7.71-12.29-11.78-18.77-3.24,6.41-6.45,12.76-9.65,19.1-.4,0-.81.01-1.21.02h0Z" style="fill: #c49c48;"/>
  <path d="M731.49,497.69c-7.29.33-14.59.65-22.38,1,4.17,6.97,8.26,13.79,12.34,20.6-.31.3-.61.6-.92.9-8.4-3.86-14.95-10.5-22.76-16.18-.53,6.47-1.03,12.54-1.61,19.64-1.61-1.51-2.66-2.34-3.51-3.33-3.86-4.47-7.59-9.06-11.54-13.47-1.54-1.72-1.66-3.16-.83-5.28,4.97-12.7,9.84-25.44,14.6-38.21.89-2.38,2.01-3.46,4.69-3.71,6.37-.6,12.7-1.66,19.89-1.75-2.85,4.7-5.7,9.4-8.78,14.48h27.29c.14.48.27.95.41,1.43-7.01,2.86-14.03,5.73-21.33,8.71,4.93,4.58,9.93,9.22,14.93,13.87-.16.44-.33.87-.49,1.31h0Z" style="fill: #c49c48;"/>
  <path d="M619.97,125.94c2.23,5.12,4.46,10.24,6.78,15.56,5.25-7.31,10.65-14.82,16.05-22.34.4.19.8.39,1.19.58.07,10.04-3.47,19.52-5.34,29.54,7.57-3.67,14.8-7.17,22.04-10.68.43.37.85.74,1.28,1.11-3.41,6.96-6.83,13.91-10.41,21.22,7.58-1.07,15.17-2.14,22.75-3.21.21.48.42.95.63,1.43-7.2,4.57-14.4,9.15-21.84,13.87,4.46,2.91,8.97,5.85,14.56,9.49-7.75,1.91-14.27,3.6-20.85,5.04-.79.17-2.1-.81-2.79-1.59-11.09-12.47-22.13-24.97-33.11-37.54-.74-.85-1.57-2.51-1.23-3.29,2.83-6.45,5.93-12.78,8.95-19.15.45-.01.9-.02,1.35-.03h-.01Z" style="fill: #c49c48;"/>
  <path d="M652.78,597.48c-4.73,2.89-9.46,5.79-14.02,8.57,7.67,4.51,15.37,9.03,23.06,13.56-.19.53-.38,1.07-.58,1.6-7.15-1.02-14.29-2.04-21.69-3.09,2.47,6.8,4.93,13.56,7.38,20.31-.27.29-.54.58-.81.87-6.43-3.02-12.86-6.04-19.8-9.3.96,8.24,1.89,16.24,2.82,24.25-.35.11-.7.22-1.05.33-6.24-6.82-9.44-15.6-14.16-23.42-3.12,5.39-6.12,10.56-9.12,15.73-.35-.02-.71-.04-1.06-.06-1.2-3.9-1.98-7.99-3.68-11.65-3.7-7.95-2.07-13.65,4.69-19.55,8.17-7.12,15.18-15.6,22.51-23.66,1.9-2.09,3.48-2.37,6.09-1.49,6.31,2.13,12.75,3.85,19.14,5.74.09.42.19.84.28,1.25h0Z" style="fill: #c49c48;"/>
  <path d="M704.75,549.07c-7.41,1.27-14.82,2.53-22.68,3.87,4.28,5.55,8.51,11.03,12.74,16.51-.18.4-.36.79-.54,1.19-7.08-.65-14.15-1.3-21.55-1.98,3.14,7.56,6.24,15.01,9.33,22.46-.4.29-.79.57-1.19.86-7.52-4.89-12.86-12.2-19.36-18.88-1.72,6.39-3.33,12.37-4.93,18.36-.35.07-.7.13-1.05.2-2.35-4.16-4.27-8.64-7.15-12.4-4.8-6.28-3.78-11.41.43-17.75,6.66-10.03,12.23-20.79,18.11-31.33,1.42-2.54,2.82-3.81,6.04-3.43,5.97.7,12.02.79,18.83,1.99-3.97,4.13-7.95,8.27-12.14,12.63,8.37,2.02,16.77,4.04,25.17,6.07-.02.54-.04,1.08-.07,1.62h.01Z" style="fill: #c49c48;"/>
  <path d="M216.31,34.54c8.11,3.97,16.22,7.93,24.47,11.97v-22.8c.33-.18.66-.36.99-.55,4.64,5.39,9.28,10.78,14.16,16.44,2.13-7.19,4.21-14.23,6.29-21.27.48,0,.96.02,1.44.03,1.07,8.54,2.13,17.07,3.24,25.97,4.26-3.26,8.44-6.46,12.61-9.66.32.14.63.28.95.42-.86,5.58-2.04,11.14-2.5,16.75-.4,4.96-2.61,7.27-7.37,8.91-12.62,4.36-24.98,9.48-37.47,14.22-.95.36-2.53.61-3.15.1-5.42-4.5-10.68-9.18-15.99-13.81.08-.42.16-.84.23-1.26,5.87-.44,11.75-.87,17.97-1.34-5.81-7.63-11.49-15.09-17.18-22.55.43-.53.86-1.06,1.29-1.58h.02Z" style="fill: #c49c48;"/>
  <path d="M161.69,692.25c2.44-8.21,4.88-16.41,7.45-25.08-9.19,2.51-18.04,4.92-26.9,7.33-.16-.35-.33-.7-.49-1.04,6.57-7.54,15.29-12.48,23.61-18.75-5.81-1.97-11.28-3.82-16.76-5.68-.06-.42-.12-.84-.18-1.26,6.1-2.45,12.17-4.98,18.33-7.26.8-.29,2.2.59,3.13,1.21,12.79,8.5,25.53,17.09,38.34,25.57,2.08,1.38,3,2.88,2.73,5.49-.57,5.46-.79,10.95-2.14,17.16-3.93-3.8-7.87-7.61-11.91-11.52-2.89,8.84-5.81,17.78-8.73,26.72-.69-.06-1.38-.13-2.07-.19-.83-10.15-1.65-20.29-2.52-30.98-6.97,6.56-13.73,12.91-20.49,19.27l-1.39-1.02v.03Z" style="fill: #c49c48;"/>
  <path d="M75.17,569.22c-7.49,1.72-14.6,3.36-21.71,4.99-.3-.31-.61-.62-.91-.93,4.76-6.24,9.52-12.47,14.45-18.94-9.11-1.56-18.12-3.11-27.14-4.65v-1.57c8.57-3.74,17.91-4.69,27.77-6.75-5.01-4.47-9.63-8.58-14.25-12.7.33-.55.67-1.09,1-1.64,7.52-.25,15.04-.58,22.57-.66.79,0,1.82,1.34,2.37,2.27,7.3,12.46,14.61,24.92,21.68,37.5.76,1.36.69,3.79,0,5.25-2.58,5.53-5.58,10.87-8.91,17.21-2.41-5.78-4.46-10.67-6.57-15.74-6.06,6.62-12.02,13.14-17.99,19.66-.35-.21-.7-.42-1.05-.63,2.84-7.4,5.67-14.8,8.69-22.67h0Z" style="fill: #c49c48;"/>
  <path d="M737.62,292.79c-3.11,8.97-9.24,16.33-14.35,24.6,8.01.66,15.76,1.3,24.66,2.04-6.02,6.94-13.38,9.69-20.32,13.41,6.1,4.6,11.97,9.02,17.84,13.45-.2.55-.4,1.1-.61,1.64-8.02-1.56-16.04-3.12-24.2-4.7,1.68,5.25,3.29,10.28,5.31,16.55-7.51-3.09-13.87-5.64-20.14-8.39-.64-.28-.9-1.76-1.07-2.73-2.33-13.69-4.57-27.4-6.97-41.08-.46-2.59-.03-4.32,2.1-6.12,4.49-3.79,8.66-7.95,14.01-12.93.37,6.53.69,12,1.02,17.83,7.23-4.81,14.45-9.61,21.67-14.42l1.04.84h.01Z" style="fill: #c49c48;"/>
  <path d="M108.91,613.63c-7.82,1.83-15.5,3.62-23.18,5.41-.25-.48-.49-.95-.74-1.43,7.37-5.22,14.74-10.44,22.32-15.81-5.34-2.42-10.65-4.82-15.95-7.22-.02-.36-.04-.72-.06-1.08,4.11-1.47,8.42-2.54,12.28-4.5,8.13-4.13,13.89-2.89,19.69,4.8,6.6,8.76,14.8,16.33,22.47,24.25,2.44,2.52,3.47,4.68,1.99,8.25-2.2,5.29-3.71,10.86-5.96,17.65-3.46-5.8-6.34-10.65-9.17-15.39-4.41,7.83-8.89,15.78-13.36,23.72-.57-.15-1.15-.3-1.72-.45.95-8.7,1.9-17.4,2.89-26.43-6.77,3.45-13.39,6.81-20.01,10.18-.38-.24-.75-.49-1.13-.73,3.18-6.98,6.36-13.96,9.66-21.22h-.02Z" style="fill: #c49c48;"/>
  <path d="M527.66,698.27c-5.46.27-10.92.54-16.78.84,5.05,7.6,10,15.05,14.95,22.5-.3.37-.6.73-.9,1.1-6.21-3.86-12.42-7.71-19.26-11.96v20.6l-1.58.73c-4.62-5.47-9.24-10.94-14.13-16.73-2.83,7.65-5.6,15.11-8.37,22.58-.53-.06-1.06-.12-1.59-.17-.63-8.68-1.25-17.35-1.91-26.5-4.74,3.09-9.43,6.16-14.11,9.22-.33-.21-.66-.42-.99-.63,1.1-7.34,2.14-14.69,3.4-22,.14-.82,1.48-1.73,2.44-2.07,13.73-4.82,27.48-9.57,41.26-14.25.81-.28,2.18-.21,2.75.29,5.36,4.8,10.6,9.73,15.88,14.62-.35.61-.7,1.22-1.05,1.83h-.01Z" style="fill: #c49c48;"/>
  <path d="M703.41,201.74c-2.93,6.5-5.87,13-8.96,19.87,6.64-.7,13.13-1.38,19.61-2.06l.78,1.11c-4.56,5.62-9.12,11.25-13.9,17.13,7.16,1.39,14.36,2.78,21.56,4.17-7.2,5.43-15.8,5.53-24.31,7.67,4.23,4.52,8.2,8.76,12.17,13-.11.4-.22.8-.34,1.2-7.5.16-14.99.4-22.49.38-.75,0-1.73-1.39-2.22-2.33-6.69-12.9-13.33-25.83-19.94-38.78-.44-.87-1.03-2.26-.66-2.86,4.12-6.62,8.41-13.13,12.66-19.67.46.07.93.13,1.39.2,1.53,5.83,3.06,11.65,4.67,17.77,6.24-5.84,12.49-11.69,18.73-17.54.4.24.81.48,1.21.73h.04Z" style="fill: #c49c48;"/>
  <path d="M144.65,108.88c6.29-2.26,12.58-4.52,19.51-7.01-9-6.44-17.77-12.73-26.54-19.01.15-.51.31-1.01.46-1.52,4.56.64,9.15,1.08,13.66,1.98,4.61.91,9.13,2.27,14.12,3.54-2.63-7.37-5.16-14.48-7.7-21.6.38-.34.76-.67,1.14-1.01,7.64,5.49,15.28,10.97,23.04,16.55.49-9.55.97-18.91,1.45-28.28.54-.1,1.09-.21,1.63-.31,2.99,9.37,5.98,18.73,9.09,28.46,3.46-4.82,6.71-9.35,9.96-13.87.48.07.96.13,1.44.2,0,2.47-.28,4.97.05,7.4,1.35,9.88-1.53,16.66-11.1,21.73-9.77,5.18-18.39,12.6-27.26,19.36-2.96,2.26-5.32,3.04-8.74,1.19-3.44-1.86-7.22-3.1-10.83-4.66-1.12-.49-2.17-1.16-3.25-1.75-.04-.46-.08-.93-.12-1.39h0Z" style="fill: #c49c48;"/>
  <path d="M380.76,21.97c5.83,2.07,10.47,3.71,15.47,5.48-1.18-8.44-2.35-16.73-3.51-25.01.45-.18.9-.36,1.35-.53,3.78,6,7.56,11.99,11.47,18.2,3.01-6.03,5.95-11.94,8.89-17.84.44,0,.88,0,1.31,0,2.01,6.54,4.01,13.09,5.99,19.54,6.04-5.67,12.15-11.4,19.06-17.88-1.89,10.57-6.79,19.08-10.52,28.44,6.1-1.19,11.92-2.32,18.7-3.64-.93,2.21-1.37,3.63-2.08,4.89-2.66,4.68-5.48,9.26-8.08,13.97-1.05,1.91-2.26,2.44-4.42,2.15-14.31-1.88-28.63-3.69-42.97-5.35-2.14-.25-3.27-.9-3.95-2.97-2.02-6.17-4.21-12.27-6.7-19.45h-.01Z" style="fill: #c49c48;"/>
  <path d="M747.83,413.23c-6.73,2.26-13.45,4.52-19.49,6.55,5.09,5.66,10.46,11.64,16.35,18.18-9.45-.99-17.13-5.75-25.7-9.08,1.09,6.17,2.13,12.03,3.4,19.21-3.77-2.47-6.57-4.24-9.29-6.12-3.67-2.53-8.79-4.41-10.48-7.92-1.67-3.47.14-8.62.46-13.04.74-10.21,1.56-20.41,2.19-30.62.14-2.24.85-3.54,2.94-4.49,5.82-2.62,11.56-5.46,18.61-8.82-1.72,6.44-3.14,11.74-4.64,17.35,8.51-1.95,16.86-3.86,25.22-5.77.24.42.48.83.71,1.25-5.95,4.53-11.9,9.06-17.92,13.64,5.85,2.77,11.69,5.53,17.53,8.3.04.47.07.93.11,1.4v-.02Z" style="fill: #c49c48;"/>
  <path d="M350.77,27.82c5.54-2.3,10.7-4.44,16.49-6.84-.31,1.68-.38,2.68-.68,3.62-.95,3-1.94,5.99-3.01,8.95-3.92,10.83-3.96,10.6-15.26,11.51-10.99.88-21.95,2.16-32.88,3.55-2.38.3-3.62-.23-4.77-2.16-3.32-5.58-6.76-11.1-10.8-17.69,6.34.77,11.35,1.37,16.47,1.99-3.03-8.16-6-16.17-8.97-24.19.42-.27.85-.55,1.27-.82,5.03,5.32,10.06,10.63,15.4,16.28,1.59-6.6,3.1-12.84,4.61-19.07.42-.13.84-.26,1.27-.39,3.55,5.98,7.09,11.97,10.76,18.16,4.18-6.96,8.31-13.84,12.44-20.72.38.14.75.27,1.13.41.82,9.13-2.05,17.88-3.47,27.4h0Z" style="fill: #c49c48;"/>
  <path d="M122.86,138.41c2.45-5.11,4.68-9.77,7.41-15.45,3.36,7.66,6.29,14.21,9.05,20.83.28.67-.2,1.97-.75,2.64-8.85,10.73-17.79,21.38-26.64,32.1-1.39,1.69-2.65,2.35-5.01,1.74-6.18-1.59-12.48-2.77-19.04-5.12,4.29-3.1,8.58-6.2,13.13-9.49-7.79-4.56-15.5-9.07-23.2-13.58.15-.52.3-1.04.44-1.56,6.84.83,13.67,1.67,20.87,2.54-2.8-6.52-5.5-12.79-8.2-19.06l.69-.93c6.61,2.09,13.23,4.17,20.09,6.33-1.66-7.62-3.3-15.11-4.93-22.6.36-.18.71-.36,1.07-.54,6.03,6.48,10.08,14.41,15.03,22.14h-.01Z" style="fill: #c49c48;"/>
  <path d="M.9,389.19c8.65,2.07,17.31,4.13,26.17,6.25-1.83-5.65-3.68-11.36-5.9-18.2,7.52,3.67,13.9,6.68,20.16,9.93.89.46,1.63,1.99,1.74,3.1,1.4,13.85,2.6,27.71,4.02,41.55.26,2.54-.29,4.12-2.51,5.52-4.85,3.07-9.53,6.42-14.65,9.9v-15.65c-7.86,2.86-15.84,5.77-23.83,8.68l-.74-1.17c5.59-5.26,11.17-10.53,17.09-16.1-7.18-1.78-14.06-3.48-20.94-5.19-.12-.42-.23-.84-.35-1.26,6.24-3.35,12.48-6.69,19.02-10.2-6.71-5.07-13.45-10.16-20.18-15.26.3-.63.59-1.27.89-1.9h0Z" style="fill: #c49c48;"/>
  <path d="M492.29,39.26c4.38-5.08,8.47-9.82,12.55-14.56.38.1.75.19,1.13.29v22c7.92-4.6,14.97-8.68,22.02-12.77.27.29.54.57.81.86-3.88,8.76-10.34,15.88-16.75,24.22h18.24c.14.33.28.67.42,1-1.28,1.36-2.52,2.76-3.86,4.07-3.67,3.57-7.29,7.21-11.14,10.58-.91.8-2.89,1.28-3.96.85-12.88-5.18-25.7-10.54-38.49-15.94-1.06-.45-2.53-1.51-2.62-2.42-.75-6.88-1.2-13.8-1.85-22.07,4.97,3.41,8.96,6.15,13.08,8.98,1.01-8.77,1.99-17.24,2.97-25.7.47-.03.95-.06,1.42-.1,1.98,6.8,3.97,13.6,6.04,20.72h0Z" style="fill: #c49c48;"/>
  <path d="M576.32,589.81c-2.02.23-3.89.17-5.57.7-3.75,1.18-11.43-1.28-13.5-4.56-1.64-2.59.09-6.1,3.64-5.98,3.2.11,6.46,1.56,9.48,2.9,2.07.91,3.78,2.64,6.49,4.6,0-3.72.2-6.55-.12-9.33-.1-.84-1.5-1.74-2.5-2.22-3.14-1.52-6.63-2.48-9.45-4.43-1.3-.9-1.36-3.61-1.99-5.49,1.56-.4,3.22-1.36,4.66-1.09,3.13.59,6.14,1.8,9.29,2.78v-6.01c-2.29-.77-4.92-1.12-6.89-2.45-2.71-1.83-5.1-4.25-7.24-6.75-.67-.78-.6-3.08.08-3.86.73-.84,2.79-1.31,3.89-.91,3.47,1.29,6.77,3.06,10.32,4.74.12-3.53,1.15-7.22-4.09-9.12-2.34-.84-4.21-3.45-5.81-5.62-.73-.99-.9-3.38-.22-4.17.77-.9,3.06-1.35,4.22-.87,2.58,1.07,4.87,2.84,8.03,4.79-1.06-1.9-1.81-3.18-2.5-4.49-1.92-3.62-2.02-7.41-.12-10.94.74-1.38,2.68-2.88,4.1-2.91,1.45-.03,3.82,1.41,4.22,2.69.9,2.86,1.1,6.03,1.05,9.07-.03,1.84-1.07,3.66-1.69,5.59,2.5-1.15,4.69-2.51,7.07-3.1,1.24-.3,3.25.38,4.08,1.34.58.66.23,3.06-.55,3.81-3.11,3.01-6.55,5.69-10.45,8.97v4.42c3.1-1.67,5.95-3.56,9.07-4.71,1.43-.53,3.78-.1,4.98.83.65.51.18,3.18-.47,4.53-2.66,5.51-8,7.15-13.51,8.62v6.63c3.15-1.07,6.26-2.45,9.5-3.07,1.44-.28,4.15.6,4.54,1.63.49,1.29-.28,3.94-1.42,4.79-2.55,1.92-5.54,3.89-8.58,4.38-3.67.59-4.19,2.2-3.86,5.23.2,1.77.04,3.57.04,6.45,3.79-2.31,6.64-4.06,9.51-5.79,2.84-1.71,5.8-2.46,8.97-.92,3.82,1.85,4.26,5.48.59,7.51-2.19,1.21-4.93,1.61-7.48,1.91-3.12.37-6.29.24-9.44.38-.5.02-.99.3-1.74.54,0,2.6-.1,5.21.02,7.81.16,3.35-2.23,3.45-4.47,3.56-2.32.12-4.19-.58-4.17-3.45.02-2.74,0-5.47,0-8.96h-.01Z" style="fill: #c49c48;"/>
  <path d="M159.68,587.46v-10.84c-3.3-1.12-6.43-1.96-9.37-3.26-1.47-.65-2.88-1.92-3.79-3.27-2.13-3.15-.84-5.66,2.85-5.2,3.64.45,7.17,1.81,10.7,2.76,0-.85-.09-2.28.02-3.7.17-2.12-.75-2.83-2.83-3.31-4.25-.99-8.42-2.6-10.72-6.64-.86-1.51-.7-3.6-1-5.42,1.84-.21,3.91-1.05,5.48-.49,3.12,1.11,5.97,2.99,8.93,4.54,0-1.4.28-3.1-.09-4.65-.3-1.28-1.16-2.6-2.14-3.51-2.37-2.2-5.19-3.97-7.35-6.34-.89-.98-1.26-3.96-.63-4.47,1.18-.94,3.51-1.38,4.94-.86,2.33.84,4.31,2.62,7.27,4.54-1.16-2.09-2.37-3.36-2.53-4.74-.39-3.39-.73-6.89-.21-10.22.21-1.36,2.64-3.23,4.13-3.29,1.51-.06,4.16,1.6,4.45,2.92.74,3.43.59,7.08.53,10.64-.02,1.2-.81,2.38-1.31,3.75,2.58-1.14,4.8-2.48,7.2-3.04,1.24-.29,3.27.41,4.07,1.38.58.7.2,3.09-.6,3.85-3.13,3-6.59,5.65-10.57,7.73v5.79c2.85-1.66,5.38-3.62,8.24-4.6,1.8-.62,4.1.25,6.18.44-.43,1.94-.24,4.48-1.42,5.69-2.38,2.47-5.26,4.78-8.38,6.14-5.09,2.22-5.35,2.1-4.1,8.01,2.85-1.05,5.65-2.52,8.62-3.01,1.68-.28,3.63,1.03,5.46,1.63-.86,1.91-1.22,4.51-2.69,5.58-2.46,1.79-5.61,2.65-8.5,3.82-.82.33-1.74.43-2.7.65v10.33c2.5-1.46,4.39-2.77,6.45-3.71,2.8-1.29,5.65-2.77,8.62-3.28,2.71-.47,5.79,1.07,5.73,4-.04,1.8-2.35,4.38-4.23,5.13-2.68,1.06-5.89.78-8.88,1.04-2.45.21-4.9.37-7.36.55,0,2.78-.11,5.13.03,7.47.21,3.51-2.03,4.19-4.75,4.29-2.79.1-4.03-1.29-3.87-4.12.14-2.47.03-4.95.03-8.33-2.23.3-4.29.39-6.25.88-3.5.88-10.76-1.48-12.93-4.41-1.93-2.61-.28-6.31,3.42-6.34,2.94-.02,6.04,1.21,8.8,2.47,2.3,1.05,4.23,2.95,7.05,5v.03Z" style="fill: #c49c48;"/>
  <path d="M52.77,516.21c-.73-5.2-1.41-10.06-2.14-15.28-6.84,4.34-13.61,8.64-20.39,12.93-.36-.32-.71-.63-1.07-.95,3.94-5.69,7.87-11.37,12.08-17.45-6.84-.3-13.55-.6-20.26-.9-.26-.35-.52-.7-.78-1.05,5.07-4.48,10.14-8.95,15.39-13.58-7.34-3.21-14.66-6.41-21.97-9.6.09-.48.19-.97.28-1.45,8.2-1.82,16.59-.43,25.33-.36-3.23-5.24-6.21-10.06-9.18-14.89.19-.31.38-.62.58-.93,5.58.9,11.14,2.03,16.75,2.63,3.78.4,5.46,2.17,6.74,5.69,4.4,12.05,9.1,24,13.97,35.87,1.11,2.7.7,4.21-1.32,6.04-4.61,4.18-9.04,8.57-14,13.31v-.03Z" style="fill: #c49c48;"/>
  <path d="M41.35,258.81c3.96-4.4,7.23-8.04,10.84-12.05-4.17-1.07-8.05-1.99-11.89-3.07-3.87-1.09-7.69-2.33-11.53-3.51l-.02-1.29c6.43-.95,12.86-1.91,19.57-2.9-4.11-5.4-8.05-10.6-12.47-16.41h20.66c-2.51-6.42-5.11-13.1-7.72-19.77.42-.25.85-.5,1.27-.74,5.86,5.72,11.72,11.44,17.54,17.12,1.2-4.72,2.49-9.81,3.78-14.9.36-.06.73-.12,1.09-.19,3.74,5.79,7.55,11.55,11.15,17.42.45.74.13,2.28-.33,3.21-6.05,12.21-12.22,24.36-18.28,36.56-.95,1.9-2.01,2.61-4.27,2.33-6.07-.76-12.19-1.16-19.38-1.81h0Z" style="fill: #c49c48;"/>
  <path d="M375.8,636.99c.3,3.1.65,6.74,1.04,10.72,1.93-.58,3.63-1.16,5.36-1.58,2.65-.64,5.03.3,5.77,2.77.36,1.19-.88,3.38-2.03,4.42-8.24,7.39-21.45,6.15-26.97-2.55-.79-1.24-.95-4.44-.53-4.61,1.84-.75,4.09-1.21,6.01-.84,1.62.32,2.99,1.93,4.69,3.12,1.09-4.28,2.09-8.26,2.94-11.61-4.31-2.98-8.36-5.4-11.92-8.4-2.09-1.76-4.85-4.67-2.67-7.36,2.2-2.7,5.64-.9,8.27.63,1.55.9,2.81,2.29,5.11,4.23-2.88-6.54-2.47-12.2-.22-17.67.63-1.54,2.21-2.68,3.35-4.01,1.22,1.28,2.81,2.38,3.59,3.89,2.95,5.69,2.43,11.58-.11,17.79,2.29-1.62,3.97-3.14,5.92-4.12,2.68-1.35,5.9-2.08,7.86.81,2.02,2.99.04,5.78-2.46,7.37-3.92,2.51-8.2,4.45-13.02,7h.02Z" style="fill: #c49c48;"/>
  <path d="M422.01,691.67c1.17-5.26,2.24-10.07,3.24-14.57-4.02-2.5-8.04-4.68-11.66-7.38-2.1-1.57-4.83-4.04-2.56-6.89,2.18-2.74,5.31-1.26,7.83.31,1.63,1.02,3.09,2.33,4.33,3.28-.28-3.84-.66-7.82-.81-11.8-.05-1.26.25-2.71.89-3.77.75-1.24,2.14-3.04,3.11-2.96,1.36.11,3.46,1.55,3.73,2.76.86,3.89,1.09,7.92,1.41,11.91.09,1.1-.37,2.25-.57,3.38,2.55-1.2,4.79-2.77,7.24-3.23,1.56-.29,4.25.63,4.92,1.84.68,1.23.13,4.28-.97,5.15-2.92,2.3-6.32,4.1-9.75,5.61-2,.88-2.91,1.74-2.65,3.96.3,2.6.13,5.27.49,7.86.47,3.41-.68,4.96-4.22,4.56-1.14-.13-2.3-.02-4-.02h0Z" style="fill: #c49c48;"/>
  <path d="M317.49,691.31c0-4.45.18-8.38-.11-12.28-.09-1.18-1.23-2.65-2.3-3.32-2.64-1.65-5.67-2.7-8.27-4.4-2.44-1.6-4.16-4.09-2.27-7.02,1.79-2.79,4.63-1.97,7.09-.87,1.63.73,3.06,1.91,4.29,2.71,0-3.83-.26-7.8.09-11.72.25-2.82.95-6.43,4.44-6.54,3.88-.12,4.58,3.73,4.72,6.61.19,3.98-.5,8-.81,11.82,1.58-1.07,3.38-2.93,5.55-3.57,1.94-.57,4.95-.6,6.3.54,2.32,1.95.04,4.31-1.55,5.55-3.76,2.94-7.87,5.43-12.62,8.62.87,3.81,1.99,8.69,3.17,13.87h-7.73,0Z" style="fill: #c49c48;"/>
  <path d="M374.15,672.97c-6.69,0-10.95-1.7-13.9-5.83-.79-1.1-1.54-3.4-1-4.03,1.14-1.34,3.14-1.96,4.81-2.84.19-.1.57-.06.76.06,5.99,3.77,12.05,2.88,18.26.54,1.06-.4,3.24.09,3.76.9.56.88.19,2.85-.46,3.94-3.11,5.19-8.04,7.17-12.22,7.27h-.01Z" style="fill: #c49c48;"/>
  <path d="M371.34,690.15c-3.42-.09-7.58-1.49-10.58-5.18-.94-1.16-1.99-3.79-1.52-4.25,1.45-1.42,4.27-3.44,5.38-2.88,6.32,3.16,12.25,2.37,18.4-.17.94-.39,3.07.13,3.46.86.54,1.02.32,2.79-.19,3.97-1.92,4.42-7.85,7.61-14.95,7.65Z" style="fill: #c49c48;"/>
  <path d="M159.56,483.28c-3.37,6.89-9.52,9.91-15.24,7.41-1.77-.77-3.96-2.88-4.05-4.48-.07-1.38,2.32-3.64,4.06-4.23,5.04-1.72,10.16-1.62,15.23,1.3h0Z" style="fill: #c49c48;"/>
  <path d="M266.98,637.98c-.31-.24-.63-.48-.94-.73.29-1.4.11-3.26.96-4.11,4.52-4.57,15.92-4.24,20.5.37-2.71,4.55-10.1,6.82-17.09,5.24-1.14-.26-2.28-.51-3.42-.77h0Z" style="fill: #c49c48;"/>
  <path d="M591.11,483.02c5.15-2.61,10.5-2.99,15.93-1.13,4.05,1.39,4.44,4.64,1.11,7.39-5.46,4.51-15.03,1.11-17.04-6.26Z" style="fill: #c49c48;"/>
  <path d="M481.56,636.55c-.46.4-.91.8-1.37,1.2-8.75,2.6-15.14,1.33-19.87-3.93,3.48-4.66,13.56-5.75,19.3-1.75,1.14.79,1.32,2.95,1.94,4.49h0Z" style="fill: #c49c48;"/>
  <path d="M95,484.34c5.9-2.89,11.58-3.01,17.18-.26,1.37.67,2.23,2.37,3.32,3.6-1.14.97-2.14,2.26-3.45,2.84-6.91,3.1-14,.62-17.06-6.19h0Z" style="fill: #c49c48;"/>
  <path d="M654.09,484.71c-2.7,6.52-13.01,9.54-18.56,5.35-2.67-2.01-.85-3.71.78-5.03,4.07-3.3,13.15-3.38,17.78-.32h0Z" style="fill: #c49c48;"/>
  <path d="M210.31,631.29c4.19-4.12,15.45-3.53,18.77.78,1.61,2.1.43,3.47-1.36,4.38-4.56,2.3-14.19-.53-17.41-5.16h0Z" style="fill: #c49c48;"/>
  <path d="M517.61,635.37c.78-1.5,1.18-3.58,2.42-4.4,4.25-2.83,9.13-2.99,13.98-1.95,1.05.23,2.33,1.37,2.64,2.36.2.65-.97,2.03-1.83,2.67-4.79,3.6-13.04,4.11-17.29,1.21,0-.01.08.11.08.11h0Z" style="fill: #c49c48;"/>
  <path d="M96.41,428.07c6.85-3.75,15.85-2.02,18.28,3.35-7.46,4.16-15.42,2.81-18.28-3.35Z" style="fill: #c49c48;"/>
  <path d="M138.32,430.05c5.48-4.91,11.7-5.42,18.56-3.53-2.06,5.19-8.35,7.45-15.62,6.04-1.58-.3-3.24-.32-2.8-2.66l-.14.14h0Z" style="fill: #c49c48;"/>
  <path d="M635.13,431.72c2.77-5.48,11.72-7.17,18.12-3.68-2.17,5.73-10.45,7.48-18.12,3.68Z" style="fill: #c49c48;"/>
  <path d="M610.88,431.76c-7.01,3.32-14.75,1.47-17.76-4.25,6.66-3.61,16.94-1.15,17.76,4.25Z" style="fill: #c49c48;"/>
  <path d="M592.08,445.38c6.68-1.56,12.38-.59,17.57,3.15,1.69,1.22,1.95,2.56-.35,3.37-6.12,2.15-13.49-.5-17.22-6.52h0Z" style="fill: #c49c48;"/>
  <path d="M593.03,460.97c6.08-3.65,14.88-1.91,18.64,3.68-4.93,3.61-14.54,1.71-18.64-3.68Z" style="fill: #c49c48;"/>
  <path d="M157.64,445.11c-3.29,5.67-11.75,9.03-16.97,6.71-2.91-1.29-.76-3.13.55-4.03,4.89-3.36,10.34-3.87,16.42-2.68Z" style="fill: #c49c48;"/>
  <path d="M137.11,464.28c5.71-5.12,12.13-6.71,19.49-4.04-2.13,5.7-13.56,7.94-19.41,3.97-.02.02-.08.06-.08.06h0Z" style="fill: #c49c48;"/>
  <path d="M115.52,464.97c-5.9,3.48-15.09,1.69-18.63-3.46,5.29-3.63,13.89-2.13,18.63,3.46Z" style="fill: #c49c48;"/>
  <path d="M652.98,461.52c-3.25,4.91-11.71,6.74-18.17,3.93,2.4-5.56,12.16-7.67,18.17-3.93Z" style="fill: #c49c48;"/>
</svg>