<?xml version="1.0" encoding="UTF-8"?>
<svg id="Ebene_1" xmlns="http://www.w3.org/2000/svg" viewBox="0 0 971.06 978.09">
  <path d="M486.55,768.98c-144.08.15-259.35-114.97-259.58-259.23-.23-145.28,114.99-260.67,260.33-260.71,143.2-.04,259.51,116.34,259.22,260.03-.29,141.99-114.19,259.97-259.97,259.91ZM486.58,272.29c-130.54-.29-235.99,104.61-236.38,235.14-.39,132.97,103.39,237.32,235.65,238.2,132.46.88,237.19-108.32,237.37-235.6.18-131.88-104.76-237.45-236.64-237.74h0Z" style="fill: #c49c48;"/>
  <path d="M468.89,591.34c7.83-.39,14.91-.75,22.55-1.13,1.1-14.06,2.18-27.74,3.25-41.42.31-.02.62-.05.93-.07,1.2,13.74,2.4,27.48,3.63,41.48,7.75.4,14.8.77,22.54,1.17-7.28-35.35-12.14-70.13-14.1-105.31,1.05.71,1.47,1.52,1.69,2.39,2.06,8.22,4.27,16.4,6.04,24.68,1.02,4.77,3.25,7.08,8.26,6.2,1.3-.23,2.66-.24,3.99-.22,4.27.08,6.67-1.71,7.64-6.12,1.67-7.63,3.82-15.15,5.82-22.7.24-.9.81-1.71,1.22-2.57-1.19,34.9-6.23,69.09-13.41,103.67,7.08-.37,13.2-.83,19.34-.96,3.11-.06,3.9-1.48,4.01-4.3.22-5.49.71-10.97,1.15-16.45.59-7.26,1.25-14.52,1.88-21.78,1.79,12.66,2.8,25.28,4.07,37.86.16,1.56,1.56,4.15,2.61,4.28,6.56.77,13.19.97,20.48,1.4-7.25-34.6-11.74-68.78-13.74-103.3,2.99,8.12,5.42,16.33,7.47,24.63.99,4.01,2.46,7.03,7.18,6.5,9.59-1.07,10.25.34,11.96-6.48,2.03-8.05,3.88-16.15,5.9-24.21.25-1,1.05-1.86,1.6-2.78l1.23.51c-2.5,35.11-7.39,69.9-14.96,105.01,6.25-.31,11.88-.9,17.49-.77,4.47.1,5.47-1.77,5.73-5.87.77-12.3,2.02-24.57,3.08-36.85.78.82.94,1.63,1.01,2.44,1,11.61,1.89,23.24,3.08,34.83.18,1.76,1.53,4.7,2.64,4.85,6.36.84,12.81,1,19.97,1.43-7.11-35.25-11.85-69.95-13.65-105.09,1.1.96,1.59,2.06,1.87,3.21,2.16,8.7,4.27,17.42,6.43,26.13.78,3.17,2.23,5.76,6.11,5.02,4.33-.82,3.76-4.17,3.04-7.09-2.88-11.62-5.77-23.23-9.08-34.73-.54-1.89-2.95-4.16-4.86-4.57-8.62-1.87-9.59-3.57-5.24-11.14,4.4-7.66,1.68-16.25-6.04-19.02-5.43-1.95-11.72-.39-15.03,3.72-3.39,4.21-3.43,10.23-.1,15.91,3.36,5.73,1.97,9.41-4.46,9.98-4.64.41-6.16,2.64-7.11,6.67-2.22,9.42-4.79,18.76-7.22,28.13-3.67-9.12-6.58-18.22-9.25-27.4-1.11-3.82-2.79-6.25-7.12-7.19-6.2-1.35-7.34-4.83-4.17-10.16,4.66-7.84,2.01-16.64-5.85-19.48-5.65-2.04-12.5-.24-15.86,4.17-3.31,4.35-3.46,10.93.55,15.78,3.31,3.99,1.44,6.27-1.59,8.56-1.16.87-2.86,1.04-4,1.93-1.93,1.52-4.51,3.04-5.24,5.11-2.7,7.67-4.75,15.56-7.06,23.37-.57,1.94-1.2,3.86-2.15,6.93-3.15-11.28-5.99-21.18-8.65-31.12-.93-3.47-2.65-5.33-6.45-5.72-7.8-.79-8.71-2.93-4.73-9.83,4.44-7.71,1.93-16.05-5.78-19.16-5.45-2.2-11.87-.73-15.52,3.56-3.74,4.39-3.62,10.72.3,16.67,2.99,4.53,1.95,8.33-3.05,8.57-6.52.31-8.62,3.66-9.08,9.36-.16,1.96-.92,3.88-1.39,5.81-2.12,8.72-4.3,17.43-6.3,26.17-.61,2.68-.68,5.53,2.93,6.35,3.35.76,5.43-.82,6.45-3.96.3-.95.51-1.93.71-2.9,1.64-7.64,3.25-15.28,4.93-22.91.42-1.9,1.05-3.74,1.59-5.61.52.13,1.04.27,1.57.4-2.01,35.25-6.98,70.15-13.67,105.55v-.02ZM401.12,509.56c-3.12-10.42-5.85-19.49-8.53-28.57-.91-3.07-2.46-5.04-5.85-6.02-6.88-1.99-7.83-4.85-4.3-10.85,3.37-5.73,2.56-12.59-1.94-16.42-4.99-4.26-13.05-4.35-17.98-.2-4.71,3.96-5.49,11-1.85,16.81,3.21,5.12,2.62,8.6-3.02,10.01-6.01,1.5-7.73,5.4-9,10.43-.89,3.54-2.1,7-3.12,10.51-1.71,5.91-3.49,11.8-5.03,17.75-.64,2.46-.85,5.75,2.5,5.89,2.33.1,4.81-1.79,7.1-3.02.53-.28.6-1.5.81-2.3,1.81-6.91,3.58-13.83,5.42-20.74.43-1.6,1.03-3.15,1.56-4.73.48.13.96.27,1.44.4-2.63,34.3-6.92,68.4-14.12,102.87,7.28-.41,13.74-.6,20.15-1.29,1.05-.11,2.51-2.34,2.67-3.71.68-5.95.9-11.95,1.39-17.92.57-6.89,1.26-13.77,1.9-20.65,1.77,12.67,2.78,25.28,4.03,37.87.16,1.59,1.45,4.27,2.45,4.39,6.57.76,13.2.95,20.06,1.34-3.18-17.67-6.66-34.61-9.18-51.69-2.51-17.04-4.05-34.22-6.02-51.34.52-.08,1.04-.16,1.56-.24.35.86.81,1.69,1.05,2.58,2.03,7.7,4.15,15.38,5.96,23.13.9,3.87,2.83,5.84,6.89,5.51,1.66-.13,3.35-.32,4.99-.14,4.11.45,6.14-1.59,7.12-5.32,1.94-7.39,3.96-14.76,5.99-22.12.4-1.47.98-2.89,1.48-4.33.46.11.92.22,1.38.33-2.91,34.59-7.67,68.93-14.94,103.59,7.85-.41,14.94-.79,22.38-1.18,1.18-14.01,2.32-27.58,3.47-41.14.28.03.56.06.84.1,1.09,13.56,2.17,27.12,3.29,41.07,7.6.41,14.65.8,22.24,1.21-7.04-34.83-11.9-69.1-13.4-103.8,1.16,1.27,1.75,2.63,2.07,4.05,1.79,7.94,3.5,15.9,5.29,23.84.82,3.63,2.08,6.98,6.86,5.91,4.84-1.07,3.31-4.84,2.64-7.67-2.66-11.33-5.69-22.56-8.38-33.88-.69-2.91-2.22-4.12-5.03-4.59-8.31-1.37-9.22-3.43-4.93-10.65,4.27-7.2,1.85-15.35-5.45-18.36-5.27-2.18-11.58-.81-15.11,3.28-3.62,4.2-3.78,10.36-.4,15.78,3.18,5.09,1.88,9.19-3.69,9.66-5.04.43-6.68,3.06-7.81,7.35-2.31,8.77-5.03,17.43-7.9,27.22h0ZM462.98,361.31c-.35-.19-.7-.39-1.06-.58-21.43,23.91-42.86,47.83-65.09,72.64h164.11c.13-.33.26-.67.39-1l-73.74-58.97c-.34.27-.68.54-1.02.81,2.93,10.71,5.87,21.41,9.04,33-6.82-4.88-12.73-9.12-18.86-13.51-6.77,6.45-13.28,12.66-20.66,19.68,2.41-18.26,4.64-35.17,6.88-52.07h0ZM542.96,716.71c-1.15-2.07-1.95-3.67-2.89-5.18-13.75-22.23-27.51-44.46-41.3-66.67-1.58-2.55-3.19-5.09-4.99-7.47-.56-.74-1.81-.94-2.75-1.39-.25,1.02-.79,2.06-.69,3.04.14,1.29.75,2.54,1.2,3.79,6.95,19.06,13.88,38.12,20.86,57.17,2.96,8.08,6.04,16.13,9.27,24.74,7.22-2.72,13.99-5.27,21.28-8.02h.01ZM467.17,638.69c-2.11-3.92-3.89-1.98-5.9.21-18.39,19.96-36.83,39.89-55.26,59.81-3.25,3.51-6.57,6.94-10.3,10.89,6.6,3.7,12.6,7.07,18.98,10.65,17.73-27.55,35.09-54.52,52.49-81.56h-.01ZM491.26,727.48c-3.21-21.61-6.24-42.15-9.32-62.68-.99-6.57-2.02-13.14-3.22-19.67-.19-1.05-1.38-1.91-2.11-2.86-.67.97-1.56,1.87-1.96,2.95-.39,1.06-.26,2.3-.38,3.46-1.9,18.35-3.8,36.71-5.69,55.06-.82,8-1.63,16.01-2.41,23.75h25.09ZM500.8,627.26c-.4,4.17,63.34,75.55,71.26,80.51,3.73-4.13,7.49-8.3,11.25-12.47-27.55-22.72-54.78-45.18-82.51-68.04ZM373.86,702.1c2.13-1.67,3.87-2.9,5.46-4.3,23.3-20.62,46.57-41.26,69.85-61.9,1.99-1.77,4.03-3.49,5.91-5.37.57-.56.69-1.57,1.01-2.38-.99,0-2.02-.18-2.94.07-.75.2-1.36.92-2.05,1.38-27.62,18.8-55.25,37.6-82.87,56.42-1.18.8-2.26,1.74-3.75,2.89,3.19,4.49,6.13,8.63,9.37,13.19h0ZM674.6,405.2c.27-.63.53-1.27.8-1.9-5.07-7.96-10.14-15.92-15.83-24.83-3.9,7.75-7.34,14.16-10.37,20.75-1.52,3.31.4,5.91,4.04,5.96,7.12.09,14.24.03,21.36.03h0ZM628.09,671.2c6.92-7.39,12.94-13.81,19.45-20.76-6.91-2.2-13.61-4.4-20.35-6.44-4.24-1.28-6.08.29-5.07,4.54,1.67,7.05,3.68,14.03,5.98,22.66h-.01ZM310.11,633.65c6.34,7.78,12.06,14.8,18.38,22.55,2.74-8.53,5.08-15.58,7.26-22.69,1.34-4.37-.17-6.28-4.45-5.32-6.71,1.51-13.34,3.41-21.19,5.46h0ZM683.38,420.23c-5.61,5.21-10.67,9.76-15.55,14.48-2.62,2.54-2.34,5.93.97,6.77,7.41,1.87,15.08,2.71,23.79,4.15-3.42-9.42-6.35-17.49-9.22-25.41h0ZM539.16,300.06c1.95,8.28,3.49,15.24,5.24,22.14.9,3.53,4.06,4.95,6.2,2.65,5.12-5.52,9.87-11.38,15.5-17.95-9.44-2.4-17.71-4.5-26.94-6.84ZM586.95,316.19c.47,8.98.74,16.58,1.33,24.16.28,3.6,3.01,4.59,5.64,2.8,5.94-4.07,11.52-8.66,17.99-13.6-8.5-4.55-16.06-8.59-24.95-13.35h0ZM673.46,616.57c-10.24-.96-18.94-1.78-27.64-2.6-.29.59-.57,1.18-.86,1.77,3.94,7.87,7.88,15.73,12.3,24.55,5.58-8.16,10.42-15.25,16.2-23.72h0ZM678.92,607.02c3.61-9.09,6.75-17.03,10.29-25.95-8.68,1.13-16.23,1.93-23.71,3.18-3.39.56-3.78,3.26-1.81,5.61,4.67,5.57,9.63,10.89,15.23,17.16h0ZM286.48,585.66c5.88-5.56,11.43-10.54,16.64-15.85,2.11-2.16,2.41-5.47-1.29-6.1-7.25-1.24-14.64-1.65-22.79-2.49,2.66,8.75,5.06,16.62,7.44,24.45h0ZM647.14,362.11c-7.22-6.5-13.65-12.3-21.04-18.96-1.5,8.86-2.94,16.32-3.96,23.84-.48,3.52,1.56,5,4.95,3.62,6.27-2.56,12.48-5.28,20.04-8.5h0ZM696.35,462.15c-6.77,4.94-12.7,9.12-18.47,13.52-2.78,2.12-1.8,5.14.57,6.08,6.84,2.72,13.98,4.69,22.05,7.3-1.45-9.41-2.73-17.65-4.15-26.89h0ZM451.13,295.5c5.07,7.3,9.53,13.92,14.34,20.28.38.5,4.17-.33,4.58-1.29,2.85-6.77,5.23-13.73,8.1-21.57-9.34.89-17.4,1.67-27.02,2.59h0ZM291.56,598.84c4.07,8.11,7.83,15.61,12.14,24.19,5.48-8.44,10.21-15.71,15.72-24.19h-27.86ZM401.99,310.52c6.46,5.47,11.98,10.43,17.83,14.94,2.37,1.83,5.15.87,5.46-2.32.71-7.21.91-14.47,1.37-22.81-8.52,3.52-16.07,6.64-24.66,10.19ZM308.3,385.06c8.41,1.37,15.56,2.61,22.75,3.66,2.97.43,5.3-2.32,3.95-4.99-3.26-6.44-7-12.64-11.02-19.79-5.41,7.28-10.19,13.72-15.68,21.12ZM698.74,545.26c-8,1.71-14.91,3.21-21.82,4.66-3.39.72-4.4,3.27-2.3,5.36,5.42,5.4,11.42,10.22,17.84,15.84,2.2-9.06,4.09-16.88,6.28-25.87h0ZM520.63,295.57c-9.82-.73-17.86-1.33-26.94-2,2.9,7.6,5.31,14.28,8.01,20.83,1.18,2.85,3.41,3.99,5.59.9,4.28-6.06,8.34-12.29,13.34-19.72h0ZM388.02,315.3c-7.89,4.61-14.89,8.69-22.91,13.37,7.36,4.4,13.52,8.27,19.86,11.81,3.34,1.87,5.3.42,5.02-3.64-.47-6.77-1.22-13.53-1.97-21.54ZM700.03,530.27v-26.17c-6.92,3.29-13.38,6.18-19.65,9.43-3.17,1.64-3.2,4.78-.07,6.52,6.18,3.44,12.55,6.53,19.72,10.22ZM300.36,398.13c-4.1,8.75-7.77,16.59-12.11,25.85,9.96-1.63,18.49-3.03,28.5-4.67-5.84-7.55-10.76-13.9-16.39-21.18ZM275.8,543.77c7.01-5.19,13.24-9.52,19.13-14.28,2.61-2.11,1.77-4.62-1.38-5.59-6.59-2.04-13.26-3.8-20.78-5.92,1.03,8.77,1.97,16.75,3.03,25.79ZM335.14,352.89c7.79,3.33,14.55,6.4,21.46,9.08,2.83,1.1,4.19-.8,3.61-3.48-1.56-7.19-3.36-14.32-5.35-22.64-6.89,5.95-12.75,11.01-19.73,17.04h0ZM274.92,475.29c-.75,8.97-1.42,16.97-2.2,26.25,8.77-4.2,16.46-7.89,24.16-11.57-.04-.66-.08-1.31-.12-1.97-6.94-4.04-13.88-8.08-21.83-12.71h0ZM302.41,454.12c.13-.69.27-1.37.4-2.06-6.06-5.17-12.12-10.35-19.15-16.34-2.22,9.22-4.09,17.01-6.18,25.71,9.16-2.69,17.04-5,24.93-7.31h0Z" style="fill: #c49c48;"/>
  <path d="M468.89,591.34c6.69-35.39,11.66-70.3,13.67-105.55-.52-.13-1.04-.27-1.57-.4-.53,1.87-1.17,3.72-1.59,5.61-1.68,7.63-3.29,15.28-4.93,22.91-.21.97-.41,1.95-.71,2.9-1.01,3.14-3.09,4.73-6.45,3.96-3.61-.82-3.54-3.67-2.93-6.35,2-8.75,4.19-17.45,6.3-26.17.47-1.94,1.23-3.85,1.39-5.81.46-5.7,2.56-9.05,9.08-9.36,5-.24,6.04-4.04,3.05-8.57-3.92-5.95-4.04-12.28-.3-16.67,3.65-4.29,10.07-5.76,15.52-3.56,7.71,3.11,10.22,11.45,5.78,19.16-3.98,6.9-3.06,9.04,4.73,9.83,3.8.39,5.52,2.25,6.45,5.72,2.66,9.95,5.5,19.85,8.65,31.12.95-3.06,1.57-4.99,2.15-6.93,2.31-7.81,4.36-15.7,7.06-23.37.73-2.07,3.31-3.6,5.24-5.11,1.14-.89,2.84-1.05,4-1.93,3.04-2.29,4.9-4.56,1.59-8.56-4.02-4.85-3.87-11.42-.55-15.78,3.35-4.41,10.2-6.21,15.86-4.17,7.86,2.84,10.51,11.64,5.85,19.48-3.17,5.34-2.03,8.81,4.17,10.16,4.34.94,6.01,3.37,7.12,7.19,2.67,9.17,5.58,18.28,9.25,27.4,2.43-9.37,5.01-18.71,7.22-28.13.95-4.04,2.47-6.26,7.11-6.67,6.44-.57,7.82-4.25,4.46-9.98-3.33-5.68-3.29-11.7.1-15.91,3.31-4.11,9.6-5.67,15.03-3.72,7.71,2.77,10.44,11.36,6.04,19.02-4.35,7.57-3.38,9.28,5.24,11.14,1.91.41,4.32,2.69,4.86,4.57,3.3,11.5,6.2,23.11,9.08,34.73.72,2.92,1.29,6.27-3.04,7.09-3.88.73-5.33-1.85-6.11-5.02-2.15-8.71-4.26-17.42-6.43-26.13-.29-1.15-.78-2.24-1.87-3.21,1.8,35.14,6.54,69.84,13.65,105.09-7.16-.43-13.61-.59-19.97-1.43-1.11-.15-2.46-3.09-2.64-4.85-1.19-11.59-2.08-23.22-3.08-34.83-.07-.81-.23-1.62-1.01-2.44-1.06,12.28-2.31,24.55-3.08,36.85-.26,4.1-1.26,5.98-5.73,5.87-5.61-.13-11.25.46-17.49.77,7.58-35.11,12.47-69.9,14.96-105.01l-1.23-.51c-.55.92-1.35,1.78-1.6,2.78-2.02,8.06-3.87,16.16-5.9,24.21-1.72,6.82-2.38,5.4-11.96,6.48-4.73.53-6.19-2.49-7.18-6.5-2.05-8.3-4.48-16.51-7.47-24.63,2,34.52,6.49,68.7,13.74,103.3-7.29-.43-13.92-.63-20.48-1.4-1.06-.12-2.45-2.72-2.61-4.28-1.27-12.59-2.28-25.2-4.07-37.86-.63,7.26-1.29,14.51-1.88,21.78-.45,5.48-.93,10.96-1.15,16.45-.11,2.81-.9,4.23-4.01,4.3-6.13.13-12.26.59-19.34.96,7.18-34.58,12.22-68.77,13.41-103.67-.42.85-.98,1.67-1.22,2.57-2,7.55-4.15,15.07-5.82,22.7-.96,4.41-3.37,6.19-7.64,6.12-1.33-.02-2.69-.01-3.99.22-5.01.88-7.24-1.44-8.26-6.2-1.77-8.28-3.98-16.47-6.04-24.68-.22-.87-.64-1.69-1.69-2.39,1.95,35.19,6.82,69.97,14.1,105.31-7.73-.4-14.78-.77-22.54-1.17-1.22-13.99-2.43-27.74-3.63-41.48-.31.02-.62.05-.93.07-1.07,13.68-2.15,27.36-3.25,41.42-7.64.38-14.72.74-22.55,1.13v.02Z" style="fill: #c49c48;"/>
  <path d="M401.12,509.56c2.87-9.79,5.59-18.45,7.9-27.22,1.13-4.3,2.77-6.93,7.81-7.35,5.58-.47,6.88-4.57,3.69-9.66-3.38-5.41-3.23-11.57.4-15.78,3.53-4.09,9.84-5.46,15.11-3.28,7.3,3.02,9.72,11.17,5.45,18.36-4.29,7.23-3.38,9.28,4.93,10.65,2.81.46,4.34,1.68,5.03,4.59,2.69,11.32,5.73,22.56,8.38,33.88.66,2.83,2.19,6.59-2.64,7.67-4.78,1.06-6.05-2.29-6.86-5.91-1.79-7.94-3.49-15.9-5.29-23.84-.32-1.42-.92-2.78-2.07-4.05,1.51,34.7,6.36,68.97,13.4,103.8-7.6-.41-14.65-.8-22.24-1.21-1.12-13.95-2.21-27.51-3.29-41.07-.28-.03-.56-.06-.84-.1-1.14,13.57-2.29,27.13-3.47,41.14-7.44.39-14.53.76-22.38,1.18,7.27-34.66,12.03-69,14.94-103.59-.46-.11-.92-.22-1.38-.33-.5,1.44-1.07,2.86-1.48,4.33-2.03,7.37-4.05,14.74-5.99,22.12-.98,3.73-3.01,5.77-7.12,5.32-1.64-.18-3.33,0-4.99.14-4.06.33-5.99-1.63-6.89-5.51-1.81-7.75-3.93-15.43-5.96-23.13-.23-.89-.69-1.72-1.05-2.58-.52.08-1.04.16-1.56.24,1.97,17.12,3.51,34.3,6.02,51.34,2.52,17.08,6,34.02,9.18,51.69-6.86-.39-13.49-.58-20.06-1.34-1-.12-2.29-2.8-2.45-4.39-1.25-12.59-2.25-25.2-4.03-37.87-.64,6.88-1.32,13.76-1.9,20.65-.49,5.97-.71,11.97-1.39,17.92-.16,1.38-1.62,3.6-2.67,3.71-6.41.69-12.87.89-20.15,1.29,7.19-34.47,11.49-68.57,14.12-102.87-.48-.13-.96-.27-1.44-.4-.52,1.58-1.13,3.13-1.56,4.73-1.83,6.91-3.61,13.83-5.42,20.74-.21.8-.28,2.01-.81,2.3-2.29,1.23-4.77,3.12-7.1,3.02-3.35-.15-3.14-3.43-2.5-5.89,1.54-5.95,3.31-11.84,5.03-17.75,1.02-3.51,2.23-6.97,3.12-10.51,1.26-5.02,2.99-8.93,9-10.43,5.64-1.41,6.23-4.88,3.02-10.01-3.64-5.81-2.87-12.85,1.85-16.81,4.94-4.14,12.99-4.05,17.98.2,4.5,3.84,5.31,10.7,1.94,16.42-3.53,6-2.58,8.87,4.3,10.85,3.39.98,4.95,2.95,5.85,6.02,2.67,9.08,5.41,18.15,8.53,28.57h0Z" style="fill: #c49c48;"/>
  <path d="M462.98,361.31c-2.23,16.9-4.47,33.8-6.88,52.07,7.37-7.03,13.89-13.24,20.66-19.68,6.13,4.39,12.04,8.63,18.86,13.51-3.17-11.59-6.11-22.3-9.04-33,.34-.27.68-.54,1.02-.81l73.74,58.97c-.13.33-.26.67-.39,1h-164.11c22.23-24.81,43.66-48.72,65.09-72.64.35.19.7.39,1.06.58h0Z" style="fill: #c49c48;"/>
  <path d="M542.96,716.71c-7.29,2.75-14.06,5.3-21.28,8.02-3.23-8.61-6.3-16.66-9.27-24.74-6.98-19.04-13.91-38.11-20.86-57.17-.46-1.25-1.07-2.5-1.2-3.79-.1-.98.44-2.02.69-3.04.94.45,2.19.66,2.75,1.39,1.8,2.38,3.41,4.92,4.99,7.47,13.78,22.21,27.54,44.44,41.3,66.67.94,1.51,1.74,3.11,2.89,5.18h-.01Z" style="fill: #c49c48;"/>
  <path d="M467.17,638.69c-17.4,27.04-34.76,54.01-52.49,81.56-6.38-3.58-12.38-6.95-18.98-10.65,3.73-3.94,7.05-7.38,10.3-10.89,18.44-19.92,36.87-39.85,55.26-59.81,2.02-2.19,3.79-4.13,5.9-.21h.01Z" style="fill: #c49c48;"/>
  <path d="M491.26,727.48h-25.09c.78-7.74,1.58-15.75,2.41-23.75,1.89-18.35,3.8-36.71,5.69-55.06.12-1.16,0-2.4.38-3.46.39-1.08,1.28-1.97,1.96-2.95.73.95,1.92,1.81,2.11,2.86,1.2,6.53,2.24,13.1,3.22,19.67,3.08,20.53,6.11,41.08,9.32,62.68h0Z" style="fill: #c49c48;"/>
  <path d="M500.8,627.26c27.73,22.86,54.96,45.32,82.51,68.04-3.76,4.17-7.52,8.33-11.25,12.47-7.91-4.96-71.66-76.34-71.26-80.51Z" style="fill: #c49c48;"/>
  <path d="M373.86,702.1c-3.24-4.56-6.19-8.7-9.37-13.19,1.48-1.15,2.57-2.09,3.75-2.89,27.62-18.81,55.25-37.61,82.87-56.42.69-.47,1.3-1.18,2.05-1.38.92-.24,1.96-.06,2.94-.07-.33.81-.45,1.82-1.01,2.38-1.88,1.88-3.92,3.6-5.91,5.37-23.28,20.64-46.55,41.28-69.85,61.9-1.58,1.4-3.32,2.63-5.46,4.3h-.01Z" style="fill: #c49c48;"/>
  <path d="M674.6,405.2c-7.12,0-14.24.07-21.36-.03-3.64-.05-5.56-2.65-4.04-5.96,3.03-6.59,6.46-13,10.37-20.75,5.68,8.92,10.76,16.88,15.83,24.83-.27.63-.53,1.27-.8,1.9h0Z" style="fill: #c49c48;"/>
  <path d="M628.09,671.2c-2.3-8.64-4.31-15.61-5.98-22.66-1.01-4.25.83-5.83,5.07-4.54,6.75,2.04,13.44,4.25,20.35,6.44-6.51,6.95-12.53,13.38-19.45,20.76h.01Z" style="fill: #c49c48;"/>
  <path d="M310.11,633.65c7.85-2.05,14.48-3.95,21.19-5.46,4.28-.96,5.79.95,4.45,5.32-2.19,7.1-4.52,14.16-7.26,22.69-6.32-7.75-12.04-14.77-18.38-22.55h0Z" style="fill: #c49c48;"/>
  <path d="M683.38,420.23c2.87,7.91,5.8,15.99,9.22,25.41-8.71-1.45-16.38-2.29-23.79-4.15-3.32-.83-3.59-4.23-.97-6.77,4.88-4.73,9.93-9.27,15.55-14.48h0Z" style="fill: #c49c48;"/>
  <path d="M539.16,300.06c9.24,2.34,17.5,4.44,26.94,6.84-5.63,6.57-10.38,12.43-15.5,17.95-2.14,2.3-5.3.89-6.2-2.65-1.76-6.9-3.3-13.86-5.24-22.14Z" style="fill: #c49c48;"/>
  <path d="M586.95,316.19c8.89,4.76,16.45,8.8,24.95,13.35-6.46,4.94-12.05,9.53-17.99,13.6-2.62,1.8-5.36.8-5.64-2.8-.59-7.58-.86-15.18-1.33-24.16h0Z" style="fill: #c49c48;"/>
  <path d="M673.46,616.57c-5.78,8.46-10.63,15.55-16.2,23.72-4.42-8.82-8.36-16.68-12.3-24.55.29-.59.57-1.18.86-1.77,8.7.82,17.4,1.64,27.64,2.6h0Z" style="fill: #c49c48;"/>
  <path d="M678.92,607.02c-5.6-6.27-10.56-11.59-15.23-17.16-1.97-2.35-1.58-5.05,1.81-5.61,7.48-1.24,15.03-2.04,23.71-3.18-3.54,8.92-6.68,16.85-10.29,25.95h0Z" style="fill: #c49c48;"/>
  <path d="M286.48,585.66c-2.38-7.82-4.77-15.69-7.44-24.45,8.15.84,15.54,1.25,22.79,2.49,3.7.63,3.4,3.94,1.29,6.1-5.21,5.32-10.76,10.29-16.64,15.85h0Z" style="fill: #c49c48;"/>
  <path d="M647.14,362.11c-7.56,3.22-13.77,5.94-20.04,8.5-3.39,1.38-5.43-.1-4.95-3.62,1.02-7.52,2.46-14.99,3.96-23.84,7.39,6.66,13.82,12.45,21.04,18.96h0Z" style="fill: #c49c48;"/>
  <path d="M696.35,462.15c1.43,9.24,2.7,17.48,4.15,26.89-8.07-2.61-15.21-4.58-22.05-7.3-2.37-.94-3.35-3.96-.57-6.08,5.77-4.39,11.7-8.58,18.47-13.52h0Z" style="fill: #c49c48;"/>
  <path d="M451.13,295.5c9.62-.92,17.68-1.69,27.02-2.59-2.87,7.84-5.25,14.81-8.1,21.57-.41.97-4.2,1.8-4.58,1.29-4.8-6.36-9.27-12.99-14.34-20.28h0Z" style="fill: #c49c48;"/>
  <path d="M291.56,598.84h27.85c-5.51,8.48-10.23,15.75-15.72,24.19-4.3-8.58-8.07-16.08-12.14-24.19h.01Z" style="fill: #c49c48;"/>
  <path d="M401.99,310.52c8.59-3.55,16.14-6.67,24.66-10.19-.47,8.34-.67,15.6-1.37,22.81-.31,3.2-3.09,4.16-5.46,2.32-5.85-4.52-11.36-9.47-17.83-14.94Z" style="fill: #c49c48;"/>
  <path d="M308.3,385.06c5.49-7.4,10.28-13.84,15.68-21.12,4.02,7.15,7.75,13.35,11.02,19.79,1.35,2.67-.98,5.42-3.95,4.99-7.19-1.05-14.34-2.29-22.75-3.66Z" style="fill: #c49c48;"/>
  <path d="M698.74,545.26c-2.18,8.99-4.08,16.81-6.28,25.87-6.42-5.62-12.41-10.45-17.84-15.84-2.1-2.09-1.09-4.65,2.3-5.36,6.91-1.46,13.82-2.95,21.82-4.66h0Z" style="fill: #c49c48;"/>
  <path d="M520.63,295.57c-5,7.43-9.06,13.66-13.34,19.72-2.18,3.09-4.41,1.95-5.59-.9-2.71-6.55-5.11-13.23-8.01-20.83,9.08.67,17.12,1.27,26.94,2h0Z" style="fill: #c49c48;"/>
  <path d="M388.02,315.3c.75,8.01,1.5,14.77,1.97,21.54.28,4.06-1.67,5.5-5.02,3.64-6.34-3.54-12.5-7.4-19.86-11.81,8.01-4.68,15.02-8.77,22.91-13.37Z" style="fill: #c49c48;"/>
  <path d="M700.03,530.27c-7.17-3.69-13.54-6.78-19.72-10.22-3.13-1.74-3.1-4.87.07-6.52,6.27-3.25,12.73-6.14,19.65-9.43v26.17h0Z" style="fill: #c49c48;"/>
  <path d="M300.36,398.13c5.63,7.28,10.55,13.63,16.39,21.18-10.01,1.64-18.54,3.04-28.5,4.67,4.34-9.26,8.01-17.1,12.11-25.85h0Z" style="fill: #c49c48;"/>
  <path d="M275.8,543.77c-1.06-9.04-2-17.02-3.03-25.79,7.52,2.12,14.19,3.88,20.78,5.92,3.15.97,3.99,3.48,1.38,5.59-5.88,4.76-12.11,9.09-19.13,14.28Z" style="fill: #c49c48;"/>
  <path d="M335.14,352.89c6.98-6.02,12.84-11.09,19.73-17.04,1.98,8.32,3.79,15.45,5.35,22.64.58,2.68-.79,4.58-3.61,3.48-6.91-2.69-13.68-5.76-21.46-9.08h-.01Z" style="fill: #c49c48;"/>
  <path d="M274.92,475.29c7.95,4.63,14.89,8.67,21.83,12.71.04.66.08,1.31.12,1.97-7.7,3.69-15.39,7.37-24.16,11.57.78-9.28,1.45-17.27,2.2-26.25h0Z" style="fill: #c49c48;"/>
  <path d="M302.41,454.12c-7.88,2.31-15.77,4.63-24.93,7.31,2.09-8.7,3.96-16.49,6.18-25.71,7.02,5.99,13.08,11.16,19.15,16.34-.13.69-.27,1.37-.4,2.06h0Z" style="fill: #c49c48;"/>
  <path d="M625.07,826.25c7.26-2.54,13.66-.13,20.64,4.14,0-4.26.19-7.9-.12-11.51-.09-1.16-1.29-2.69-2.36-3.19-6.46-3.02-12.99-5.94-19.63-8.57-1.49-.6-3.57-.21-5.24.25-8.7,2.32-19.64-1.27-24.01-8.07,5.01-4.7,16.59-5.82,24.23-.47,7.35,5.13,15.81,6.48,23.61,9.89,1.19.52,2.53.7,4.23,1.16v-21.4c-3.22-.53-6.55-.88-9.8-1.69-2.28-.56-4.78-1.3-6.52-2.74-1.78-1.48-2.74-3.92-4.06-5.94,2.18-1.04,4.43-3.05,6.53-2.92,4.78.29,9.5,1.61,14.49,2.56v-13.56c-3.53-.73-7.18-1.36-10.76-2.26-1.96-.49-4.26-.97-5.59-2.28-1.88-1.87-3.02-4.49-4.48-6.79,2.28-1.13,4.66-3.37,6.83-3.18,5.21.47,10.31,2.09,14.42,3.01-.27-4.13-1.08-9.58-.84-14.99.16-3.7,1.65-8.18,6.15-8.15,4.43.01,6.06,4.36,6.3,8.13.3,5.1-.35,10.24-.56,14.52,3.57-.45,8.33-1.71,12.98-1.38,2.67.19,5.15,3.02,7.72,4.66-2,2.06-3.63,5.04-6.07,6.01-4.19,1.67-8.87,2.12-14.08,3.23v18.94c2.66-.4,5.54-1.36,8.29-1.09,1.87.18,4.3,1.71,5.09,3.32.51,1.03-1.08,4.05-2.49,4.87-3.45,1.99-7.36,3.21-11.58,4.95v7.84c5.24,0,10.4.04,15.54-.04.84-.01,1.87-.42,2.49-.99,5.59-5.13,12.2-5.63,19.09-3.98,1.69.4,3.01,2.26,4.5,3.45-1.18,1.32-2.13,3.05-3.6,3.89-6.17,3.58-12.76,2.83-19.47,1.14-4.44,6.61-11.54,7.87-18.82,9.27v8.49h13.73l-.12-.16c2.41,4.97-1.29,6.91-4.63,8.45-2.7,1.25-5.83,1.57-9.16,2.41.16,3.22.31,6.39.52,10.45,5.88-3.36,12.37-3.75,15.85-10.45,2.62-5.06,17.58-7.29,22.79-4.43,3.19,1.75,2.75,4.23.16,5.33-5.23,2.21-10.92,3.3-16.19,5.41-7.31,2.93-14.41,6.39-21.57,9.64-.26.12-.57.53-.56.8.19,9.66-9.74,9.53-13.51,15.43-.87-.95-1.25-1.17-1.25-1.39.06-8.7-.17-8.18-8.01-11.95-6.11-2.95-11.58-3.5-18.25-1.97-7.97,1.83-15.71-.43-22.25-5.97,7.74-8.32,25.53-7.75,32.68.6.78.91,2.26,1.31,3.48,1.71,4.01,1.32,8.07,2.53,12.66,3.96.22-4.23.43-8.33.65-12.41-8.85-1.9-18.31-2-21.85-12.4.6-.52,1.18-1.04,1.78-1.56v-.04h0Z" style="fill: #c49c48;"/>
  <path d="M346.54,828.1c-.42,4.56-3.61,6.93-7.33,8.36-4.24,1.62-8.74,2.6-13.85,4.06.16,3.53.35,7.7.57,12.88,6.44-3.3,13.01-3.48,18.29-8.66,5.98-5.88,23.9-6.57,31.02,1.7-6.96,6-15.3,8.42-23.6,5.69-9.57-3.15-16.16,3.26-24.12,5.09-.62.14-1.13,1.88-1.22,2.92-.18,2.15-.05,4.34-.56,6.83-4.66-5.21-13.19-6.44-14.29-15.11-.1-.8-1.69-1.53-2.7-2.1-4.44-2.52-8.85-5.1-13.41-7.37-1.39-.7-3.27-.34-4.85-.73-5.71-1.38-11.45-2.73-17.07-4.44-1.13-.35-2.49-2.3-2.44-3.44.05-1.03,1.77-2.35,3.02-2.86,8.01-3.25,18.08.82,23.83,7.39,3.08,3.5,8.7,4.78,13.63,7.29.26-1.56.34-2.36.53-3.13,1.29-5.15.04-8.05-5.98-8.64-3.78-.38-9.09-2.67-8.13-6.79,1.08-4.58,6.57-3.57,10.66-2.84,1.31.23,2.58.64,4.09,1.01v-8.96c-6.92-1.79-14.63-1.75-17.76-7.63-7.29-.79-13.59-1.19-19.76-2.34-1.65-.31-2.86-2.92-4.27-4.48,1.66-1.25,3.18-3.22,5.02-3.58,6.7-1.34,13.24-1.05,18.51,4.31.6.61,1.61,1.17,2.41,1.14,5.15-.17,10.29-.51,15.62-.79v-7.42c-3.82-1.13-7.55-1.56-10.46-3.34-2.08-1.27-3.05-4.35-4.52-6.61,2.45-1.08,4.83-2.8,7.37-3.06,2.35-.25,4.85,1.06,7.31,1.69v-19.2c-5.58-1.45-10.62-2.36-15.3-4.18-1.99-.77-3.25-3.44-4.83-5.24,1.87-1.53,3.52-3.89,5.65-4.44,5.37-1.39,10.84-1.16,15.39,2.19-.43-4.79-1.29-9.7-1.18-14.58.09-4.13,1.32-9.06,6.36-9.05,4.93.01,6.41,5.08,6.62,9.03.26,5.08-.84,10.22-1.26,14.28,4.01-.97,9.05-2.75,14.21-3.22,2.27-.21,4.78,2.25,7.18,3.48-1.54,2.23-2.6,5.53-4.71,6.48-5.04,2.25-10.58,3.37-16.28,5.05v12.84c4.98-.92,9.72-2.17,14.52-2.49,1.99-.13,4.11,1.73,6.18,2.67-1.25,2.06-2,5.15-3.82,5.98-5.15,2.36-10.73,3.8-16.3,5.66v21.78c9.33-4.15,17.8-7.7,26.05-11.66,7.36-3.53,14.82-5.06,22.74-2.57,3.84,1.21,4.21,3.26,1,5.67-6.48,4.88-13.69,6.39-21.7,4.61-2.08-.45-4.62-.16-6.62.62-5.54,2.14-10.8,5.11-16.42,7-3.84,1.29-5.02,3.21-4.57,6.98.3,2.49.05,5.06.05,7.97,6.89-2.34,13.1-6.71,20.26-2.61.4.31.82.62,1.22.95l-.03-.05h0Z" style="fill: #c49c48;"/>
  <path d="M432.56,113.65c-3.52-6.19-6.66-11.75-10.47-18.48,4.39.48,7.31.79,10.57,1.16-.65-11.42,2.09-21.47,9.84-30.54,9.18,7.84,13.78,17.32,13.25,29.49,3.18-.92,5.98-1.75,10.2-2.99-2.87,7.1-5.24,12.97-7.83,19.35,5.37-.31,10.38-.61,16.08-.95.8,12.73-3.83,23.03-12.25,32.49,4.76.78,8.85,1.45,13.42,2.21-3.43,10.36-8.44,18.99-16.59,25.21-3.73,2.84-3.8,5.54-3.15,9.51,1.79,11.03,3.15,22.14,4.78,33.87h-12.15c-.36-5.79-.77-11.7-1.09-17.6-.17-3.06-.42-6.14-.26-9.2.44-8.7-.97-15.55-9.94-20.55-6.1-3.4-10.18-10.46-15.91-16.73,5.21-1.75,8.68-2.93,13.15-4.44-8.94-7.9-15.19-16.87-15.9-29.23,4.79-.87,9.41-1.71,14.28-2.6v.03h-.01ZM453.2,147.49c-.9-12.42-1.77-24.55-2.63-36.73h-7.5c1.03,12.54,2.02,24.69,3.06,37.24,2.39-.17,4.5-.32,7.09-.51h-.01Z" style="fill: #c49c48;"/>
  <path d="M605.48,162.77c4.56,2.12,8.19,3.8,12.42,5.76-6.43,9.11-14.14,15.25-23.74,18.87-3.27,1.23-4.71,2.78-5.17,6.4-1.27,10.12-3.1,20.18-4.78,30.27-.27,1.64-.92,3.22-1.51,5.22-3.53-.67-6.79-1.31-10.84-2.09,2.54-10.64,5-20.99,7.48-31.32.35-1.49.64-3.02,1.21-4.43,1.57-3.86.8-6.87-1.95-10.15-6.46-7.71-10.32-16.65-10.94-27.45,4.04.31,7.67.58,11.95.91-5.3-10.63-8.7-20.96-5.61-32.84,4.84.92,9.25,1.77,13.99,2.66-1.21-6.54-2.36-12.79-3.78-20.46,3.61,1.7,5.96,2.8,8.84,4.17,2.44-10.92,8.83-19.21,17.83-26.48,6.54,10.6,8.32,21.44,3.8,33.44,2.99.19,5.61.38,9.61.64-4.41,5.7-8.28,10.68-12.33,15.9,4.84,1.34,9.36,2.58,14.24,3.93-2.89,12.23-10.64,20.24-20.73,27.05h-.01ZM595.61,164.21c3.1-12.38,6-24,8.96-35.81-2.43-.66-4.66-1.27-7.28-1.99-2.95,12.28-5.79,24.1-8.74,36.36,2.56.52,4.65.95,7.07,1.44h-.01Z" style="fill: #c49c48;"/>
  <path d="M501.73,108.62c4.87.35,9.23.67,13.89,1.01-1.95-6.52-3.78-12.62-5.89-19.72,3.48.92,5.82,1.54,8.41,2.23,1.21-11.34,6.13-20.52,14.6-28.53,7.9,9.88,10.15,20.52,7.37,32.67,3.23-.36,6-.67,10.09-1.14-3.78,6.33-6.96,11.67-10.58,17.73,3.06.29,5.67.58,8.29.75,6.35.42,7.28,1.13,4.54,7.02-3.1,6.67-7.41,12.81-11.38,19.04-.87,1.36-2.58,2.19-4.57,3.8,5.1,1.52,9.16,2.71,13.85,4.1-5.08,10.37-11.88,17.96-21.56,22.6-3.26,1.56-4.44,3.4-4.57,6.89-.39,10.22-.91,20.44-1.8,30.63-.61,6.89-.95,6.88-7.83,6.27-1.31-.12-2.61-.43-4.53-.75,1.64-11.2,2.91-22.2,4.96-33.02,1.23-6.54,1.16-11.66-4.4-16.76-7.05-6.48-10.49-15.15-11.2-22.88h11.58c-6.63-10.02-10.96-19.81-9.24-31.98l-.03.03h0ZM527.6,147.71c1.54-12.9,3.01-25.23,4.5-37.81-2.84-.17-4.97-.29-7.2-.42-1.51,12.76-2.97,25.14-4.47,37.85,2.65.14,4.63.25,7.17.38Z" style="fill: #c49c48;"/>
  <path d="M219.97,420.35c-.64,4.74-1.09,8.06-1.65,12.24-10.68-2.34-20.99-4.32-31.13-6.94-4.52-1.17-7.52-1-10.89,2.89-6.11,7.05-14.23,11.32-23.92,13.78-.26-4.5-.51-8.51-.78-13.28-9.22,5.97-18.77,9.8-30.57,7.57.65-5.09,1.3-10.02,1.99-15.37-6.18,1.95-12.23,3.86-19.52,6.15,1.52-4,2.66-7.02,4.02-10.62-10.98-1.52-20.4-6.18-28.04-15.17,9.77-6.96,20.26-8.5,31.62-7.28-.47-3.06-.88-5.8-1.54-10.12,6.66,4.53,12.16,8.26,18.12,12.31.95-4.96,1.83-9.66,2.8-14.8,12.11,1.61,19.89,8.84,26.87,17.95,1.88-3.73,3.58-7.09,5.4-10.68,8.75,6.19,14.73,13.88,17.91,23.52,1.06,3.23,2.7,4.02,5.79,4.3,10.97.99,21.91,2.31,33.5,3.58v-.03h.01ZM121.22,411.74c12.15,1.74,23.84,3.41,35.79,5.13.47-2.56.84-4.63,1.27-7.06-12.41-1.77-24.38-3.48-36.63-5.23-.16,2.6-.27,4.59-.43,7.17Z" style="fill: #c49c48;"/>
  <path d="M224.82,269c2.18-3.26,4.14-6.19,6.62-9.92-11.68-1.26-22.57-3.49-30.83-13.75,3.6-2.92,7.13-5.8,11.55-9.4-7.44-3.01-13.4-5.43-20.4-8.27,3.47-2.34,5.89-3.97,8.41-5.66-8.09-8.5-11.18-18.56-11.21-30.43,11.53,1.52,20.27,6.68,27.45,15.78,1.44-2.56,2.7-4.8,4.7-8.36,2.78,6.92,5.15,12.85,7.65,19.08,3.37-3.57,6.57-6.96,9.9-10.5,9.41,8.84,11.28,19.9,11.41,32.33,4.1-2.18,7.59-4.04,12.2-6.48,1.26,5.01,3,9.28,3.26,13.66.38,6.4-.49,12.86-.44,19.3,0,1.84.92,4.18,2.25,5.41,6.48,6.04,13.28,11.72,19.85,17.67,1.97,1.79,3.56,4.01,5.39,6.1-2.66,2.7-5.01,5.08-7.9,8.01-5.01-5.32-9.88-10.49-14.72-15.68-1.86-2-3.87-3.91-5.4-6.14-3.88-5.62-8.63-8.09-15.85-7.33-8.18.84-16.15-1.34-23.88-5.44h.01ZM215.39,226.92c8.71,9.33,17.22,18.48,25.74,27.6,2.09-1.8,3.73-3.22,5.43-4.7-8.66-9.55-16.87-18.61-25.21-27.82-2.02,1.67-3.95,3.26-5.94,4.92h-.01Z" style="fill: #c49c48;"/>
  <path d="M670.45,136.8c1.38,2.15,2.74,4.31,4.66,7.32,5.72-11.19,13.88-17.45,24.22-22.22,2.96,11.72,2.82,22.51-3.71,32.85,3.01,1,5.66,1.88,9.61,3.19-6.07,4.14-11.05,7.54-16.35,11.16,4.4,2.63,8.67,5.21,13.12,7.88-5.97,10.63-15.2,16.07-26.14,20.04,3.82,3.19,7.24,6.06,11.07,9.27-8.53,7.54-18.22,11.23-28.78,12.59-3.1.4-4.27,1.45-5.22,4.22-2.97,8.68-6.11,17.33-9.48,25.87-2.44,6.23-2.65,6.17-8.8,3.54-1.39-.58-2.71-1.32-4.61-2.26,5.18-10.59,10.11-21.04,15.41-31.31,1.78-3.45,2.14-6.19.3-9.89-4.3-8.62-6.39-17.83-4.93-28.13,3.97,1.06,7.65,2.04,11.95,3.18-3.49-11.23-4.78-21.83,1.18-32.8,4.13,1.99,8.16,3.92,12.53,6.02.65-6.72,1.27-13.19,1.91-19.65.69-.3,1.38-.58,2.06-.88h0ZM665.61,196.87c5.94-11.28,11.8-22.38,17.74-33.67-2-1.18-4.15-2.45-6.66-3.93-6,11.68-11.86,23.09-17.83,34.71,2.41,1.04,4.41,1.88,6.75,2.89Z" style="fill: #c49c48;"/>
  <path d="M751.21,199.74c2.06,3.57,3.31,5.74,4.47,7.74,4.39-3.02,8.41-6.45,13.01-8.75,4.41-2.21,9.42-3.23,15.1-5.06-.39,12.46-3.31,22.36-11.95,30.5,2.71,1.52,5.39,3.02,9.23,5.19-6.85,2.8-12.6,5.14-19.04,7.78,3.78,3.43,7.32,6.65,11.05,10.01-8.96,9.16-19.85,11.21-31.7,11.79,2.61,3.98,4.8,7.32,7.29,11.12-10.19,4.34-20.08,6.22-30.41,4.59-3.32-.52-5.1.18-7.1,2.99-6.5,9.1-13.43,17.87-20.6,27.31-3.48-3.04-6-5.23-8.97-7.81,1.84-2.25,3.43-4.37,5.23-6.31,6.4-6.85,12.77-13.72,19.37-20.38,2.43-2.45,2.93-4.82,2.35-8.22-1.6-9.33-1.32-18.6,2.91-28.22,3.47,1.92,6.65,3.67,10.57,5.85.21-11.59,1.82-22.53,11.84-31.42,3.06,3.69,6.07,7.31,9.48,11.41,2.76-7.01,5.1-12.95,7.92-20.08v-.03h-.01ZM752.83,225.05c-9.53,8.71-18.65,17.03-27.82,25.39,2.02,2.23,3.47,3.82,5.1,5.62,9.02-9.36,17.69-18.35,26.48-27.47-1.23-1.16-2.93-2.75-3.78-3.54h.01Z" style="fill: #c49c48;"/>
  <path d="M823.16,333.52c-10.81,6.67-21.83,6.52-33.46,4.28,1.16,4.34,2.14,8.06,3.27,12.29-10.1,1.38-19.37-.18-27.82-4.96-3.65-2.06-5.85-1.52-8.93.75-6.71,4.96-13.72,9.51-20.65,14.15-1.65,1.1-3.52,1.9-5.61,3.01-2.01-3.44-3.79-6.48-5.98-10.23,9.07-4.72,17.76-9.7,26.82-13.81,4.82-2.18,6.78-5.17,7.24-10.23.83-8.81,4.3-16.67,9.99-23.87,2.62,2.78,5.01,5.31,8.13,8.62,2.4-12.84,8.62-21.87,19.37-28.39,3.08,4.5,6.02,8.81,9.1,13.32,3.83-5.59,7.59-11.1,12.18-17.8.92,4.3,1.54,7.15,2.21,10.28,9.37-4.65,18.98-6.53,29.58-4.05-3.01,11.11-9.24,19.2-19.08,24.86,2.04,1.9,3.84,3.6,6.62,6.19-7.42,1.32-13.82,2.47-20.68,3.69,2.54,3.95,4.96,7.68,7.67,11.88h.04ZM781.05,330.62c10.92-6.05,21.69-12.02,32.65-18.09-1.04-2.05-2.09-4.13-3.26-6.43-11.16,6.19-22.05,12.23-33.18,18.41,1.39,2.25,2.52,4.08,3.78,6.11h.01Z" style="fill: #c49c48;"/>
  <path d="M193.62,313.22c3.08-2.78,5.67-5.11,8.63-7.79,6.41,8.8,10.24,17.89,10.32,28.26.03,3.36,1.13,5.11,4.15,6.66,7.58,3.87,14.97,8.11,22.31,12.42,5.98,3.53,5.91,3.67,2.65,9.57-.73,1.31-1.48,2.61-2.62,4.62-7.28-5.22-14.56-9.93-21.24-15.38-5.65-4.62-10.42-6.31-17.95-3.02-6.7,2.93-14.81,2.62-23.57,3.93,1.51-5.56,2.53-9.36,3.75-13.85-11.7,2.02-22.49,1.61-32.18-6.17,2.65-4.09,5.21-8.03,8.02-12.4-6.7-1.35-12.89-2.6-19.08-3.84-.34-.49-.67-.97-1.01-1.47,2.4-1.26,4.79-2.52,8.05-4.22-12.05-6.06-19.11-13.73-23.14-24.84,10.93-3.27,20.66-.66,30.5,4.21.78-2.61,1.51-5.08,2.57-8.67,4.44,6.37,8.28,11.88,12.19,17.48,2.4-4.13,4.69-8.06,7.14-12.31,10.66,6.15,16.89,15.11,20.51,26.83v-.03h0ZM191.29,323.87c-10.67-6.37-21.07-12.58-31.63-18.89-1.44,2.47-2.7,4.62-3.8,6.5,10.63,6.13,21.04,12.14,31.71,18.28,1.22-1.92,2.36-3.73,3.73-5.89h0Z" style="fill: #c49c48;"/>
  <path d="M268.68,154.27c2.78-.53,5.56-1.05,8.63-1.64-4.27-9.7-6.93-19.22-4.22-30.22,10.81,4.5,17.85,12.33,23.35,22.39,1.82-2.18,3.37-4.06,5.92-7.11,1.04,7.37,1.88,13.46,2.83,20.16,3.78-1.83,7.52-3.65,11.75-5.7,6.5,11.53,4.32,23.05.82,35.28,4.22-1.17,7.97-2.19,12.19-3.35,1.75,11.38.3,21.65-4.7,31.28-1.53,2.95-1.43,4.85.36,7.72,5.71,9.07,10.79,18.55,16.37,27.7,2.69,4.41,1.86,7.14-2.84,9-1.4.56-2.67,1.4-4.67,2.47-5.3-11.7-10.75-23.01-15.55-34.6-2.02-4.88-4.71-7.44-9.98-8.62-9.45-2.1-17.63-6.94-24.97-14.23,3.47-2.76,6.7-5.33,10.37-8.26-10.67-4.54-19.72-10.23-24.36-21.59,4.36-2.47,8.61-4.87,12.98-7.33-5.09-4.01-10.09-7.94-15.07-11.88.27-.48.55-.96.82-1.45v-.03h-.01ZM290.6,160.2c5.19,12.37,10.23,24.38,15.46,36.82,2.21-.99,4.11-1.83,6.27-2.79-4.98-12.21-9.76-23.92-14.62-35.83-2.23.56-4.36,1.09-7.1,1.79h-.01Z" style="fill: #c49c48;"/>
  <path d="M817.89,429.14c-.31,4.89-.57,8.89-.87,13.55-10.2-2.57-18.31-7.35-24.31-14.94-2.88-3.65-5.17-3.56-8.93-2.13-8.71,3.31-17.59,6.17-27.02,9.41-1.23-4-2.26-7.29-3.6-11.6,8.44-1.9,16.41-4.23,24.53-5.35,6.97-.95,11.58-3.18,14.2-10.4,2.82-7.79,8.87-13.51,16.6-18.2,1.48,3.82,2.79,7.2,4.41,11.41,6.58-9.92,15.01-16.28,27.38-17.86.97,5.06,1.96,10.12,3.01,15.55,5.85-3.88,11.46-7.59,18.2-12.06-.36,3.87-.6,6.43-.84,8.98,4.88.7,9.81.93,14.47,2.21,4.67,1.27,9.06,3.57,14.23,5.7-7.39,9.03-15.8,14.2-26.92,15.76,1.41,2.79,2.67,5.3,4.59,9.09-7.26-1.77-13.45-3.27-19.86-4.83.91,5,1.74,9.59,2.61,14.36-12.2,2.18-22.12-1.54-31.88-8.64h0ZM848.02,407.93c-12.45,1.41-24.43,2.76-36.82,4.17.32,2.52.6,4.75.91,7.22,12.55-1.52,24.47-2.97,36.45-4.43-.18-2.47-.34-4.47-.53-6.97h0Z" style="fill: #c49c48;"/>
  <path d="M179.72,558.03c-3.06,3.04-6.26,5.96-9.14,9.16-1.57,1.75-2.58,3.98-3.86,6.01.42.31.83.64,1.25.95,3.36-1.69,6.74-3.36,11.23-5.61-.75,8.58-6.52,12.23-12.72,17.04,5.26-1.47,8.97-2.51,13.17-3.67-.08,9.42-12.03,9.23-12.15,17.17,3.53-.62,6.59-1.16,9.66-1.69.26,1.75.53,3.5.79,5.24l.08-.06c-1.56,1.56-2.86,3.6-4.72,4.58-4.14,2.19-4.57,5.45-3.54,9.66,2.62-1.52,5.27-3.05,8.19-4.75,2.15,6.28-1.39,9.5-5.02,12.21-2.84,2.12-4.22,4.24-3.01,8.05,1.27-.92,2.34-2.12,3.65-2.54,1.58-.52,3.37-.38,5.09-.53-.03,1.75.48,3.76-.21,5.21-.91,1.92-2.44,3.89-4.23,4.98-4.61,2.79-4.98,6.79-4.14,11.99,1.6-1.17,2.76-2.41,4.21-2.97,1.4-.53,3.08-.35,4.63-.49.1,1.58.74,3.39.18,4.71-.82,1.97-2.35,3.7-3.79,5.35-1.23,1.4-2.86,2.43-4.15,3.78-4.8,5-4.82,5.05-9.86-.21-2.35-2.45-4.84-4.84-6.72-7.63-1.08-1.6-1.05-3.92-1.53-5.92.44-.35.88-.71,1.32-1.06,3.14,1.67,6.28,3.36,9.37,5,.58-4.56.49-8.61-5.1-10.86-2.38-.96-4.18-3.89-5.67-6.28-.69-1.1-.04-3.05,0-4.61,1.6.16,3.36-.05,4.74.58,1.58.73,2.83,2.22,4.54,3.65.77-4.27.22-7.07-3.52-9.4-3.82-2.38-7.57-5.48-6.48-12.53,3.52,1.78,6.58,3.32,9.68,4.88,1.14-3.89.44-6.89-3.76-8.9-2.08-.99-4.05-2.75-5.32-4.66-.97-1.45-.79-3.69-1.12-5.57,1.87-.29,3.79-.97,5.59-.75,1.57.19,3.01,1.41,5.17,2.51-.83-8.4-10.89-7.57-12.16-12.73-6.57-.49-12.43-.38-17.99-1.61-2.91-.65-5.28-3.69-8.27-5.93,7.42-4.04,17.19-1.83,24.65,4.78,2.44-1.93,6.98-1.74,13.63.61-1.87-1.73-3.74-3.45-5.61-5.17-.51-.45-1.08-.84-1.56-1.32-2.69-2.62-5.53-5.19-4.31-9.57,3,.91,6.01,1.82,9.01,2.73.31.09.62.21,2.12-.45-1.13-1.52-1.97-3.43-3.44-4.48-4.36-3.1-8.46-6.17-7.65-13.53,3.98,2.05,7.33,3.78,10.68,5.49.34-.31.67-.62,1.01-.93-4.43-3.8-8.84-7.62-13.27-11.42.34-.67.67-1.36,1.01-2.04,3.49.51,6.97,1.03,11.63,1.71-1-1.65-1.58-3.34-2.75-4.36-2.28-2.01-5.21-3.37-7.24-5.57-1.26-1.35-1.38-3.76-2-5.71,2.19,0,4.48-.36,6.57.12,1.52.34,2.79,1.79,4.18,2.74.44-.35.87-.71,1.31-1.06-1.4-1.78-2.57-3.82-4.26-5.27-3.71-3.22-7.68-6.15-11.55-9.19.43-.79.86-1.58,1.3-2.38,4.41,1.39,8.83,2.78,14.59,4.59-5.57-5.87-10.28-10.85-15.01-15.82.48-.7.97-1.4,1.45-2.1,4.19,1.69,8.39,3.36,13.6,5.46-.62-3.49-.92-6.78-1.82-9.88-1.95-6.85-1.36-13.03,3.87-18.92,11.03,8.89,2.99,19.26,2.75,29.01,5.19-2,10.24-3.92,15.28-5.85.3.48.58.96.88,1.44-2.41,7.04-9.57,9.7-14.68,14.62,4.15-.88,8.02-1.7,11.89-2.52.38.69.75,1.38,1.12,2.06-3.82,3.08-7.76,6.01-11.41,9.28-1.73,1.56-2.89,3.74-3.8,6.14,4.82-.35,8.48-5.05,13.59-1.73-1.27,5.36-5.52,7.55-9.49,10.15-1.43.92-2.28,2.71-4.09,4.93,5.23-.86,8.81-1.45,12.85-2.12-.88,8.01-11.09,7.78-11.98,15.64,2.49-1.79,4.31-3.25,6.26-4.48,3.44-2.17,5.78-1.71,6.15,2.86l.18-.18v-.04h0Z" style="fill: #c49c48;"/>
  <path d="M804.96,559.81c1.35-4.52-2.47-5.53-4.7-7.55-2.19-1.99-4.39-3.98-6.57-5.98.23-.62.45-1.25.69-1.87,3.44.44,6.88.87,10.7,1.36,1.12-2.43-.43-3.83-2.97-5.11-3.95-2-7.78-4.27-8.24-9.62,4.74-2.43,8.14.61,11.8,2.8,1.26-3.95.08-5.94-3.34-7.85-3.88-2.17-7.14-5.48-11.37-8.84,5.94-2.91,9.75.35,14.84,2.23-5.5-6.26-13.71-8.37-16.34-18.08,6.28,2.49,11.33,4.5,16.56,6.59.05-9.44-7.74-19.52,1.49-28.93,5.19,3.28,6.48,8.09,5.98,13.33-.47,4.97-1.7,9.88-2.7,15.42,5.31-2.12,9.74-3.88,14.15-5.65.48.67.96,1.35,1.44,2.04-4.75,4.76-9.51,9.53-15.2,15.23,5.5-1.61,9.68-2.84,14.64-4.28-1.35,9.29-13.6,8.64-13.72,18.28,2.64-1.38,4.67-2.84,6.94-3.47,1.35-.38,3.06.57,4.61.92-.35,1.38-.25,3.21-1.12,4.05-2.54,2.45-5.54,4.43-8.22,6.75-1.27,1.1-2.25,2.57-4.19,4.84,5.46-.86,9.16-1.43,12.88-2.01.35.62.71,1.25,1.06,1.87-2.34,2.12-4.76,4.14-7,6.37-2.01,2.01-6.48,2.19-5.52,6.26,3.53-1.65,7.01-3.26,10.81-5.02,2.54,10.68-9.75,10.77-11.21,19.02,2.95-1.45,4.92-2.71,7.07-3.36,1.29-.39,3.54-.36,4.1.4.66.91.53,3.27-.23,4.19-2.25,2.71-4.97,5.05-7.53,7.49-1.1,1.05-2.3,2.02-3.83,3.37,5.88-.84,10.97-1.19,15.85-2.39,4.56-1.12,8.8-3.49,13.37-4.58,2.58-.62,5.5.22,8.61.42-4.39,8.62-14.71,11.55-23.66,7.36-2.4,2.1-4.76,4.28-7.24,6.32-2.23,1.83-4.58,3.52-6.88,5.27.35.55.7,1.08,1.05,1.62,1.67-.56,3.36-1.56,5.04-1.57,1.64,0,3.76.56,4.75,1.69.62.71-.03,3.26-.88,4.37-1.54,1.99-3.48,3.82-5.61,5.18-3.18,2.04-4.28,4.65-3.47,8.7,2.09-1.14,4.01-2.36,6.09-3.22.92-.38,2.61-.4,3.12.16.6.66.8,2.53.29,3.19-2.27,2.92-4.98,5.5-7.29,8.4-1.64,2.04-2.88,4.4-4.3,6.61.4.31.79.61,1.19.92,1.84-1.03,3.62-2.26,5.58-3,1.1-.42,3.08-.47,3.66.19.64.73.65,2.82.04,3.7-1.82,2.62-3.66,5.57-6.24,7.22-3.86,2.45-5.39,5.28-4.17,9.71,2.88-1.25,5.91-2.56,8.93-3.86.45.4.92.79,1.38,1.19-.92,2.34-1.39,5.04-2.86,6.96-2.67,3.49-5.84,6.63-9.06,9.64-.74.69-3.09.82-3.74.21-3.08-2.89-5.89-6.1-8.67-9.31-.87-1-1.67-2.31-1.86-3.57-.22-1.54.23-3.18.4-4.79,1.54.29,3.22.3,4.61.93,1.34.61,2.38,1.86,4.26,3.41.14-5.45,1.99-10.14-4.34-13.29-3.73-1.86-5.52-5.88-4-11.64,3.19,1.48,6.05,2.8,9.02,4.18,1.48-3.34-.65-5.23-3.17-7.23-3.65-2.92-6.58-6.3-4.35-12.42,2.93,2.05,5.33,3.74,8,5.59.83-4.21.96-7.46-3.43-9.64-2.12-1.05-3.96-3.32-5.08-5.48-.67-1.3-.06-3.61.69-5.1.26-.51,2.82-.26,4.1.22,1.8.67,3.4,1.9,5.09,2.88.43-.38.84-.75,1.27-1.13-1.57-1.99-3-4.13-4.76-5.93-2.13-2.18-4.66-3.95-6.76-6.15-.79-.83-.84-2.35-1.23-3.56,1.4-.29,2.95-1.08,4.17-.74,2.32.65,4.47,1.93,6.88,3.05-4.1-5.21-7.96-10.12-11.82-15.03.53-.64,1.06-1.27,1.6-1.91,3.34,1.62,6.66,3.25,10.1,4.92,1.22-3.5-.34-5.57-3.48-7.49-2.53-1.56-4.8-3.84-6.54-6.27-.84-1.17-.18-3.41-.21-5.18,1.56.18,3.35-.05,4.62.65,2.02,1.13,3.7,2.88,5.63,4.47l-.05-.04h0Z" style="fill: #c49c48;"/>
  <path d="M778.9,843.63c-7.33,2.8-14.65,5.61-21.92,8.39,9.71,7.18,19.35,14.32,29.01,21.46-.25.55-.48,1.08-.73,1.62-12.63.22-24.45-4.5-37.05-7.11,3.6,10.51,7.07,20.66,10.55,30.8-.51.45-1.03.91-1.53,1.36-8.36-5.84-16.72-11.68-25.91-18.09v30.74c-.73.17-1.45.35-2.19.52-4.69-10.36-9.37-20.73-14.2-31.41-5.02,6.27-9.93,12.42-15.76,19.7-1.92-10.93-3.67-20.5-5.17-30.1-.14-.88,1.21-2.31,2.21-3,17.19-12.01,34.4-23.96,51.69-35.81,1.19-.82,3.27-1.3,4.56-.84,8.8,3.14,17.48,6.57,26.21,9.9.08.64.14,1.27.22,1.91v-.03h.01Z" style="fill: #c49c48;"/>
  <path d="M313.51,950.83v-29.34c-10.77,6.07-20.47,11.53-30.15,16.98-.55-.55-1.1-1.08-1.65-1.62,7.55-10.36,15.11-20.72,23.35-32.02h-25.82c-.17-.51-.34-1-.51-1.51,7.35-6.74,14.64-13.55,22.14-20.12.78-.69,2.88-.31,4.19.12,18.55,6.19,37.08,12.42,55.55,18.82,1.64.57,3.78,2.25,4.05,3.71,1.65,9.02,2.82,18.12,4.41,28.95-7.8-5.21-14.32-9.58-21.4-14.3-.69,12.1-1.36,23.92-2.02,35.76-.61.12-1.22.25-1.83.36-3.61-9-7.22-18-10.96-27.31-5.83,7.49-11.59,14.89-17.34,22.3-.66-.26-1.34-.52-2-.78h-.03,0Z" style="fill: #c49c48;"/>
  <path d="M362.25,133.36c-3.88-4.96-7.58-9.68-11.88-15.16,3.61-.75,6.02-1.26,8.63-1.8-2.52-9.97-3.4-19.81,1.39-29.95,9.03,5.8,13.46,14.33,16.64,24.21,1.9-1.57,3.53-2.92,6.39-5.28-.36,7.33-.66,13.42-1,20.12,3.97-1.56,7.4-2.91,11.34-4.44,4.19,12.06,1.56,23.49-2.3,35.33,3.88-.8,7.27-1.51,11.28-2.32.49,10.8-1.8,20.5-7.32,29.02-3.14,4.85-3.23,8.68-1.09,13.86,3.69,8.94,6.68,18.2,9.5,27.47,2.7,8.89,2.44,8.97-7.76,11.37-1.45-5.46-2.99-10.94-4.35-16.47-2.08-8.42-3.83-16.93-6.19-25.26-.64-2.23-2.6-4.67-4.63-5.8-7.36-4.1-14.27-8.61-19.66-16.25,3.09-2.49,6.04-4.88,7.92-6.4-5.33-6.75-10.98-13.03-15.58-20-3.65-5.53-3.02-6.1,2.71-9.19,1.91-1.03,3.86-1.96,5.96-3.02v-.03h0ZM385.99,163.56c-3.44-12.73-6.76-25.08-10.11-37.47-2.4.56-4.48,1.04-6.68,1.56,3.57,12.88,7.05,25.43,10.58,38.11,1.99-.7,3.74-1.31,6.22-2.19Z" style="fill: #c49c48;"/>
  <path d="M500.72,977.27c2.87-13.53,5.74-27.04,8.77-41.41-8.48,4.19-16.28,8.05-24.08,11.9-.34-.26-.69-.52-1.03-.78,3.47-8.03,6.79-16.12,10.54-24.03.57-1.21,2.99-1.95,4.65-2.15,22.29-2.75,44.57-5.41,66.89-7.97,1.41-.17,3.66.21,4.32,1.16,5.06,7.4,9.83,14.99,14.69,22.53-.25.49-.49.97-.74,1.47-8.92-1.99-17.83-3.97-26.76-5.97,5.49,13.16,10.96,26.25,16.42,39.33-.65.48-1.31.96-1.96,1.44-8.33-8.48-16.67-16.97-25.25-25.7-2.53,9.46-5.04,18.86-7.55,28.26-.55.04-1.09.08-1.65.12-4.17-10.14-8.35-20.27-12.68-30.81-7.52,11.24-14.95,22.34-22.38,33.44-.73-.29-1.45-.56-2.18-.84l-.03.03h0Z" style="fill: #c49c48;"/>
  <path d="M45.25,372.62c7.11,6.74,14.3,13.4,21.24,20.33.87.87.66,3.22.36,4.76-3.57,18.55-7.15,37.1-11.02,55.58-.38,1.83-2.28,4.06-4.02,4.76-7.54,3.06-15.29,5.63-24.69,9,2.92-7.92,5.39-14.59,7.75-20.99H.67c-.17-.36-.32-.73-.49-1.1,9.09-4.28,18.17-8.57,27.57-12.99-8.49-5.57-16.86-11.06-25.25-16.55l.27-1.83c9.92-1.31,19.82-2.62,29.82-3.95-7.29-10.15-14.43-20.09-21.59-30.02.64-.69,1.27-1.38,1.9-2.06,10.76,6.8,21.53,13.59,32.26,20.37-.38-8.27-.74-16.52-1.12-24.77,0,0,1.21-.53,1.21-.53Z" style="fill: #c49c48;"/>
  <path d="M709.86,87.38c5.02,6.75,9.11,12.25,13.36,17.95,4.3-11.05,8.46-21.73,12.62-32.42.57.09,1.13.18,1.7.27v30.7c8.49-5.71,16.25-10.96,24.03-16.19.52.34,1.05.67,1.57,1.01-2.76,9.55-5.54,19.12-8.41,29.04,11.55-2.54,23.34-5.15,35.11-7.75.29.61.56,1.21.84,1.82-8.84,9.06-20.05,14.99-31.37,22.14,7.79,3.4,15.1,6.59,23.49,10.25-2.4,1.52-3.82,2.62-5.39,3.36-5.54,2.61-11.27,4.87-16.68,7.72-3.69,1.95-6.31,1.52-9.59-1.01-14.73-11.32-29.61-22.46-44.6-33.42-3.25-2.38-4.21-4.53-3-8.51,2.34-7.72,4.01-15.65,6.32-24.95h0Z" style="fill: #c49c48;"/>
  <path d="M428.84,975.39c-2.56-9.01-5.13-18.02-8.24-28.96-8.24,8.68-15.68,16.51-23.13,24.34-.56-.29-1.12-.57-1.67-.86,4.8-11.55,9.59-23.12,14.56-35.07-7.93,1.6-15.55,3.12-23.87,4.79.49-1.67.61-2.8,1.13-3.69,4.28-7.36,8.53-14.76,13.06-21.96.74-1.18,2.95-2.3,4.3-2.12,19.59,2.58,39.14,5.48,58.72,8.06,3.14.42,4.78,1.45,5.65,4.54,2.25,8.01,4.78,15.94,7.74,25.69-7.8-3.36-14.32-6.17-21.21-9.14,1.36,11.34,2.69,22.35,4.01,33.35l-1.65.56c-5.01-7.98-10.01-15.95-15.29-24.36-4.21,8.32-8.37,16.56-12.53,24.79-.52,0-1.05.01-1.57.03h0Z" style="fill: #c49c48;"/>
  <path d="M949.48,646.01c-9.46.43-18.94.84-29.05,1.3,5.41,9.05,10.72,17.9,16.02,26.74-.4.39-.79.78-1.19,1.17-10.9-5.01-19.41-13.63-29.54-21-.69,8.4-1.34,16.28-2.09,25.49-2.09-1.96-3.45-3.04-4.56-4.32-5.01-5.8-9.85-11.76-14.98-17.48-2-2.23-2.15-4.1-1.08-6.85,6.45-16.48,12.77-33.02,18.95-49.6,1.16-3.09,2.61-4.49,6.09-4.82,8.27-.78,16.48-2.15,25.82-2.27-3.7,6.1-7.4,12.2-11.4,18.8h35.42c.18.62.35,1.23.53,1.86-9.1,3.71-18.21,7.44-27.69,11.31,6.4,5.94,12.89,11.97,19.38,18-.21.57-.43,1.13-.64,1.7h0Z" style="fill: #c49c48;"/>
  <path d="M804.73,163.47c2.89,6.65,5.79,13.29,8.8,20.2,6.81-9.49,13.82-19.24,20.83-29,.52.25,1.04.51,1.54.75.09,13.03-4.5,25.34-6.93,38.34,9.83-4.76,19.21-9.31,28.61-13.86.56.48,1.1.96,1.66,1.44-4.43,9.03-8.87,18.06-13.51,27.54,9.84-1.39,19.69-2.78,29.53-4.17.27.62.55,1.23.82,1.86-9.35,5.93-18.69,11.88-28.35,18,5.79,3.78,11.64,7.59,18.9,12.32-10.06,2.48-18.52,4.67-27.06,6.54-1.03.22-2.73-1.05-3.62-2.06-14.39-16.19-28.72-32.41-42.98-48.73-.96-1.1-2.04-3.26-1.6-4.27,3.67-8.37,7.7-16.59,11.62-24.86.58-.01,1.17-.03,1.75-.04h-.01Z" style="fill: #c49c48;"/>
  <path d="M847.32,775.54c-6.14,3.75-12.28,7.52-18.2,11.12,9.96,5.85,19.95,11.72,29.93,17.6-.25.69-.49,1.39-.75,2.08-9.28-1.32-18.55-2.65-28.15-4.01,3.21,8.83,6.4,17.6,9.58,26.36-.35.38-.7.75-1.05,1.13-8.35-3.92-16.69-7.84-25.7-12.07,1.25,10.7,2.45,21.08,3.66,31.48-.45.14-.91.29-1.36.43-8.1-8.85-12.25-20.25-18.38-30.4-4.05,7-7.94,13.71-11.84,20.42-.45-.03-.92-.05-1.38-.08-1.56-5.06-2.57-10.37-4.78-15.12-4.8-10.32-2.69-17.72,6.09-25.38,10.6-9.24,19.7-20.25,29.22-30.71,2.47-2.71,4.52-3.08,7.9-1.93,8.19,2.76,16.55,5,24.84,7.45.12.55.25,1.09.36,1.62h0Z" style="fill: #c49c48;"/>
  <path d="M914.77,712.7c-9.62,1.65-19.24,3.28-29.44,5.02,5.56,7.2,11.05,14.32,16.54,21.43-.23.52-.47,1.03-.7,1.54-9.19-.84-18.37-1.69-27.97-2.57,4.08,9.81,8.1,19.48,12.11,29.15-.52.38-1.03.74-1.54,1.12-9.76-6.35-16.69-15.84-25.13-24.51-2.23,8.29-4.32,16.06-6.4,23.83-.45.09-.91.17-1.36.26-3.05-5.4-5.54-11.21-9.28-16.1-6.23-8.15-4.91-14.81.56-23.04,8.64-13.02,15.87-26.99,23.51-40.67,1.84-3.3,3.66-4.95,7.84-4.45,7.75.91,15.6,1.03,24.44,2.58-5.15,5.36-10.32,10.73-15.76,16.39,10.86,2.62,21.77,5.24,32.67,7.88-.03.7-.05,1.4-.09,2.1h.01Z" style="fill: #c49c48;"/>
  <path d="M280.77,44.83c10.53,5.15,21.05,10.29,31.76,15.54v-29.59c.43-.23.86-.47,1.29-.71,6.02,7,12.05,13.99,18.38,21.34,2.76-9.33,5.46-18.47,8.16-27.61.62,0,1.25.03,1.87.04,1.39,11.09,2.76,22.16,4.21,33.71,5.53-4.23,10.96-8.39,16.37-12.54.42.18.82.36,1.23.55-1.12,7.24-2.65,14.46-3.25,21.74-.52,6.44-3.39,9.44-9.57,11.57-16.38,5.66-32.42,12.31-48.64,18.46-1.23.47-3.28.79-4.09.13-7.04-5.84-13.86-11.92-20.76-17.93.1-.55.21-1.09.3-1.64,7.62-.57,15.25-1.13,23.33-1.74-7.54-9.9-14.91-19.59-22.3-29.27.56-.69,1.12-1.38,1.67-2.05h.03Z" style="fill: #c49c48;"/>
  <path d="M209.88,898.55c3.17-10.66,6.33-21.3,9.67-32.55-11.93,3.26-23.42,6.39-34.92,9.51-.21-.45-.43-.91-.64-1.35,8.53-9.79,19.85-16.2,30.65-24.34-7.54-2.56-14.64-4.96-21.75-7.37-.08-.55-.16-1.09-.23-1.64,7.92-3.18,15.8-6.46,23.79-9.42,1.04-.38,2.86.77,4.06,1.57,16.6,11.03,33.14,22.18,49.77,33.19,2.7,1.79,3.89,3.74,3.54,7.13-.74,7.09-1.03,14.21-2.78,22.27-5.1-4.93-10.22-9.88-15.46-14.95-3.75,11.47-7.54,23.08-11.33,34.68-.9-.08-1.79-.17-2.69-.25-1.08-13.17-2.14-26.34-3.27-40.21-9.05,8.51-17.82,16.76-26.6,25.01l-1.8-1.32v.04h-.01Z" style="fill: #c49c48;"/>
  <path d="M97.57,738.85c-9.72,2.23-18.95,4.36-28.18,6.48-.39-.4-.79-.8-1.18-1.21,6.18-8.1,12.36-16.19,18.76-24.58-11.82-2.02-23.52-4.04-35.23-6.04v-2.04c11.12-4.85,23.25-6.09,36.05-8.76-6.5-5.8-12.5-11.14-18.5-16.48.43-.71.87-1.41,1.3-2.13,9.76-.32,19.52-.75,29.3-.86,1.03,0,2.36,1.74,3.08,2.95,9.48,16.17,18.96,32.35,28.14,48.68.99,1.77.9,4.92,0,6.81-3.35,7.18-7.24,14.11-11.57,22.34-3.13-7.5-5.79-13.85-8.53-20.43-7.87,8.59-15.6,17.06-23.35,25.52-.45-.27-.91-.55-1.36-.82,3.69-9.61,7.36-19.21,11.28-29.43h0Z" style="fill: #c49c48;"/>
  <path d="M957.44,380.04c-4.04,11.64-11.99,21.2-18.63,31.93,10.4.86,20.46,1.69,32.01,2.65-7.81,9.01-17.37,12.58-26.38,17.41,7.92,5.97,15.54,11.71,23.16,17.46-.26.71-.52,1.43-.79,2.13-10.41-2.02-20.82-4.05-31.41-6.1,2.18,6.81,4.27,13.34,6.89,21.48-9.75-4.01-18-7.32-26.14-10.89-.83-.36-1.17-2.28-1.39-3.54-3.02-17.77-5.93-35.57-9.05-53.32-.6-3.36-.04-5.61,2.73-7.94,5.83-4.92,11.24-10.32,18.19-16.78.48,8.48.9,15.58,1.32,23.14,9.38-6.24,18.76-12.47,28.13-18.72l1.35,1.09h.01Z" style="fill: #c49c48;"/>
  <path d="M141.37,796.5c-10.15,2.38-20.12,4.7-30.09,7.02-.32-.62-.64-1.23-.96-1.86,9.57-6.78,19.13-13.55,28.97-20.52-6.93-3.14-13.82-6.26-20.7-9.37-.03-.47-.05-.93-.08-1.4,5.33-1.91,10.93-3.3,15.94-5.84,10.55-5.36,18.03-3.75,25.56,6.23,8.57,11.37,19.21,21.2,29.17,31.48,3.17,3.27,4.5,6.07,2.58,10.71-2.86,6.87-4.82,14.1-7.74,22.91-4.49-7.53-8.23-13.82-11.9-19.98-5.72,10.16-11.54,20.48-17.34,30.79-.74-.19-1.49-.39-2.23-.58,1.23-11.29,2.47-22.59,3.75-34.31-8.79,4.48-17.38,8.84-25.97,13.21-.49-.31-.97-.64-1.47-.95,4.13-9.06,8.26-18.12,12.54-27.54h-.03Z" style="fill: #c49c48;"/>
  <path d="M684.91,906.36c-7.09.35-14.17.7-21.78,1.09,6.55,9.86,12.98,19.54,19.41,29.21-.39.48-.78.95-1.17,1.43-8.06-5.01-16.12-10.01-25-15.52v26.74l-2.05.95c-6-7.1-11.99-14.2-18.34-21.72-3.67,9.93-7.27,19.61-10.86,29.31-.69-.08-1.38-.16-2.06-.22-.82-11.27-1.62-22.52-2.48-34.4-6.15,4.01-12.24,8-18.31,11.97-.43-.27-.86-.55-1.29-.82,1.43-9.53,2.78-19.07,4.41-28.56.18-1.06,1.92-2.25,3.17-2.69,17.82-6.26,35.67-12.42,53.56-18.5,1.05-.36,2.83-.27,3.57.38,6.96,6.23,13.76,12.63,20.61,18.98-.45.79-.91,1.58-1.36,2.38h-.01Z" style="fill: #c49c48;"/>
  <path d="M913.03,261.86c-3.8,8.44-7.62,16.87-11.63,25.79,8.62-.91,17.04-1.79,25.45-2.67l1.01,1.44c-5.92,7.29-11.84,14.6-18.04,22.23,9.29,1.8,18.64,3.61,27.99,5.41-9.35,7.05-20.51,7.18-31.55,9.96,5.49,5.87,10.64,11.37,15.8,16.87-.14.52-.29,1.04-.44,1.56-9.74.21-19.46.52-29.19.49-.97,0-2.25-1.8-2.88-3.02-8.68-16.74-17.3-33.53-25.88-50.34-.57-1.13-1.34-2.93-.86-3.71,5.35-8.59,10.92-17.04,16.43-25.53.6.09,1.21.17,1.8.26,1.99,7.57,3.97,15.12,6.06,23.07,8.1-7.58,16.21-15.17,24.31-22.77.52.31,1.05.62,1.57.95h.05Z" style="fill: #c49c48;"/>
  <path d="M187.76,141.33c8.16-2.93,16.33-5.87,25.32-9.1-11.68-8.36-23.07-16.52-34.45-24.68.19-.66.4-1.31.6-1.97,5.92.83,11.88,1.4,17.73,2.57,5.98,1.18,11.85,2.95,18.33,4.59-3.41-9.57-6.7-18.8-9.99-28.04.49-.44.99-.87,1.48-1.31,9.92,7.13,19.83,14.24,29.91,21.48.64-12.4,1.26-24.55,1.88-36.71.7-.13,1.41-.27,2.12-.4,3.88,12.16,7.76,24.31,11.8,36.94,4.49-6.26,8.71-12.14,12.93-18,.62.09,1.25.17,1.87.26,0,3.21-.36,6.45.06,9.61,1.75,12.82-1.99,21.62-14.41,28.21-12.68,6.72-23.87,16.35-35.38,25.13-3.84,2.93-6.91,3.95-11.34,1.54-4.47-2.41-9.37-4.02-14.06-6.05-1.45-.64-2.82-1.51-4.22-2.27-.05-.6-.1-1.21-.16-1.8h-.01Z" style="fill: #c49c48;"/>
  <path d="M494.23,28.52c7.57,2.69,13.59,4.82,20.08,7.11-1.53-10.96-3.05-21.72-4.56-32.46.58-.23,1.17-.47,1.75-.69,4.91,7.79,9.81,15.56,14.89,23.62,3.91-7.83,7.72-15.5,11.54-23.16h1.7c2.61,8.49,5.21,16.99,7.78,25.36,7.84-7.36,15.77-14.8,24.74-23.21-2.45,13.72-8.81,24.77-13.66,36.92,7.92-1.54,15.47-3.01,24.27-4.72-1.21,2.87-1.78,4.71-2.7,6.35-3.45,6.07-7.11,12.02-10.49,18.13-1.36,2.48-2.93,3.17-5.74,2.79-18.57-2.44-37.16-4.79-55.78-6.94-2.78-.32-4.24-1.17-5.13-3.86-2.62-8.01-5.46-15.93-8.7-25.25,0,0-.01,0-.01,0Z" style="fill: #c49c48;"/>
  <path d="M970.69,536.38c-8.74,2.93-17.46,5.87-25.3,8.5,6.61,7.35,13.58,15.11,21.22,23.6-12.27-1.29-22.23-7.46-33.36-11.79,1.41,8.01,2.76,15.62,4.41,24.93-4.89-3.21-8.53-5.5-12.06-7.94-4.76-3.28-11.41-5.72-13.6-10.28-2.17-4.5.18-11.19.6-16.93.96-13.25,2.02-26.49,2.84-39.75.18-2.91,1.1-4.59,3.82-5.83,7.55-3.4,15.01-7.09,24.16-11.45-2.23,8.36-4.08,15.24-6.02,22.52,11.05-2.53,21.88-5.01,32.74-7.49.31.55.62,1.08.92,1.62-7.72,5.88-15.45,11.76-23.26,17.7,7.59,3.6,15.17,7.18,22.75,10.77.05.61.09,1.21.14,1.82v-.03h0Z" style="fill: #c49c48;"/>
  <path d="M455.3,36.11c7.19-2.99,13.89-5.76,21.4-8.88-.4,2.18-.49,3.48-.88,4.7-1.23,3.89-2.52,7.78-3.91,11.62-5.09,14.06-5.14,13.76-19.81,14.94-14.27,1.14-28.49,2.8-42.68,4.61-3.09.39-4.7-.3-6.19-2.8-4.31-7.24-8.77-14.41-14.02-22.96,8.23,1,14.73,1.78,21.38,2.58-3.93-10.59-7.79-20.99-11.64-31.4.55-.35,1.1-.71,1.65-1.06,6.53,6.91,13.06,13.8,19.99,21.13,2.06-8.57,4.02-16.67,5.98-24.75.55-.17,1.09-.34,1.65-.51,4.61,7.76,9.2,15.54,13.97,23.57,5.43-9.03,10.79-17.96,16.15-26.89.49.18.97.35,1.47.53,1.06,11.85-2.66,23.21-4.5,35.57h0Z" style="fill: #c49c48;"/>
  <path d="M159.47,179.66c3.18-6.63,6.07-12.68,9.62-20.05,4.36,9.94,8.16,18.44,11.75,27.04.36.87-.26,2.56-.97,3.43-11.49,13.93-23.09,27.75-34.58,41.67-1.8,2.19-3.44,3.05-6.5,2.26-8.02-2.06-16.2-3.6-24.71-6.65,5.57-4.02,11.14-8.05,17.04-12.32-10.11-5.92-20.12-11.77-30.11-17.63.19-.67.39-1.35.57-2.02,8.88,1.08,17.74,2.17,27.09,3.3-3.63-8.46-7.14-16.6-10.64-24.74l.9-1.21c8.58,2.71,17.17,5.41,26.08,8.22-2.15-9.89-4.28-19.61-6.4-29.34.47-.23.92-.47,1.39-.7,7.83,8.41,13.08,18.7,19.51,28.74h-.01Z" style="fill: #c49c48;"/>
  <path d="M1.17,505.17c11.23,2.69,22.47,5.36,33.97,8.11-2.38-7.33-4.78-14.75-7.66-23.62,9.76,4.76,18.04,8.67,26.17,12.89,1.16.6,2.12,2.58,2.26,4.02,1.82,17.98,3.37,35.97,5.22,53.93.34,3.3-.38,5.35-3.26,7.17-6.3,3.98-12.37,8.33-19.02,12.85v-20.31c-10.2,3.71-20.56,7.49-30.93,11.27l-.96-1.52c7.26-6.83,14.5-13.67,22.18-20.9-9.32-2.31-18.25-4.52-27.18-6.74-.16-.55-.3-1.09-.45-1.64,8.1-4.35,16.2-8.68,24.69-13.24-8.71-6.58-17.46-13.19-26.19-19.81.39-.82.77-1.65,1.16-2.47h.01Z" style="fill: #c49c48;"/>
  <path d="M639,50.96c5.69-6.59,10.99-12.75,16.29-18.9.49.13.97.25,1.47.38v28.56c10.28-5.97,19.43-11.27,28.58-16.58.35.38.7.74,1.05,1.12-5.04,11.37-13.42,20.61-21.74,31.44h23.68c.18.43.36.87.55,1.3-1.66,1.77-3.27,3.58-5.01,5.28-4.76,4.63-9.46,9.36-14.46,13.73-1.18,1.04-3.75,1.66-5.14,1.1-16.72-6.72-33.36-13.68-49.96-20.69-1.38-.58-3.28-1.96-3.4-3.14-.97-8.93-1.56-17.91-2.4-28.65,6.45,4.43,11.63,7.98,16.98,11.66,1.31-11.38,2.58-22.38,3.86-33.36.61-.04,1.23-.08,1.84-.13,2.57,8.83,5.15,17.65,7.84,26.89h-.01Z" style="fill: #c49c48;"/>
  <path d="M748.07,765.58c-2.62.3-5.05.22-7.23.91-4.87,1.53-14.84-1.66-17.52-5.92-2.13-3.36.12-7.92,4.72-7.76,4.15.14,8.39,2.02,12.31,3.76,2.69,1.18,4.91,3.43,8.42,5.97,0-4.83.26-8.5-.16-12.11-.13-1.09-1.95-2.26-3.25-2.88-4.08-1.97-8.61-3.22-12.27-5.75-1.69-1.17-1.77-4.69-2.58-7.13,2.02-.52,4.18-1.77,6.05-1.41,4.06.77,7.97,2.34,12.06,3.61v-7.8c-2.97-1-6.39-1.45-8.94-3.18-3.52-2.38-6.62-5.52-9.4-8.76-.87-1.01-.78-4,.1-5.01.95-1.09,3.62-1.7,5.05-1.18,4.5,1.67,8.79,3.97,13.4,6.15.16-4.58,1.49-9.37-5.31-11.84-3.04-1.09-5.46-4.48-7.54-7.29-.95-1.29-1.17-4.39-.29-5.41,1-1.17,3.97-1.75,5.48-1.13,3.35,1.39,6.32,3.69,10.42,6.22-1.38-2.47-2.35-4.13-3.25-5.83-2.49-4.7-2.62-9.62-.16-14.2.96-1.79,3.48-3.74,5.32-3.78,1.88-.04,4.96,1.83,5.48,3.49,1.17,3.71,1.43,7.83,1.36,11.77-.04,2.39-1.39,4.75-2.19,7.26,3.25-1.49,6.09-3.26,9.18-4.02,1.61-.39,4.22.49,5.3,1.74.75.86.3,3.97-.71,4.95-4.04,3.91-8.5,7.39-13.56,11.64v5.74c4.02-2.17,7.72-4.62,11.77-6.11,1.86-.69,4.91-.13,6.46,1.08.84.66.23,4.13-.61,5.88-3.45,7.15-10.38,9.28-17.54,11.19v8.61c4.09-1.39,8.13-3.18,12.33-3.98,1.87-.36,5.39.78,5.89,2.12.64,1.67-.36,5.11-1.84,6.22-3.31,2.49-7.19,5.05-11.14,5.69-4.76.77-5.44,2.86-5.01,6.79.26,2.3.05,4.63.05,8.37,4.92-3,8.62-5.27,12.34-7.52,3.69-2.22,7.53-3.19,11.64-1.19,4.96,2.4,5.53,7.11.77,9.75-2.84,1.57-6.4,2.09-9.71,2.48-4.05.48-8.16.31-12.25.49-.65.03-1.29.39-2.26.7,0,3.37-.13,6.76.03,10.14.21,4.35-2.89,4.48-5.8,4.62-3.01.16-5.44-.75-5.41-4.48.03-3.56,0-7.1,0-11.63h-.01Z" style="fill: #c49c48;"/>
  <path d="M207.27,762.53v-14.07c-4.28-1.45-8.35-2.54-12.16-4.23-1.91-.84-3.74-2.49-4.92-4.24-2.76-4.09-1.09-7.35,3.7-6.75,4.72.58,9.31,2.35,13.89,3.58,0-1.1-.12-2.96.03-4.8.22-2.75-.97-3.67-3.67-4.3-5.52-1.29-10.93-3.37-13.91-8.62-1.12-1.96-.91-4.67-1.3-7.04,2.39-.27,5.08-1.36,7.11-.64,4.05,1.44,7.75,3.88,11.59,5.89,0-1.82.36-4.02-.12-6.04-.39-1.66-1.51-3.37-2.78-4.56-3.08-2.86-6.74-5.15-9.54-8.23-1.16-1.27-1.64-5.14-.82-5.8,1.53-1.22,4.56-1.79,6.41-1.12,3.02,1.09,5.59,3.4,9.44,5.89-1.51-2.71-3.08-4.36-3.28-6.15-.51-4.4-.95-8.94-.27-13.27.27-1.77,3.43-4.19,5.36-4.27,1.96-.08,5.4,2.08,5.78,3.79.96,4.45.77,9.19.69,13.81-.03,1.56-1.05,3.09-1.7,4.87,3.35-1.48,6.23-3.22,9.35-3.95,1.61-.38,4.24.53,5.28,1.79.75.91.26,4.01-.78,5-4.06,3.89-8.55,7.33-13.72,10.03v7.52c3.7-2.15,6.98-4.7,10.7-5.97,2.34-.8,5.32.32,8.02.57-.56,2.52-.31,5.82-1.84,7.39-3.09,3.21-6.83,6.2-10.88,7.97-6.61,2.88-6.94,2.73-5.32,10.4,3.7-1.36,7.33-3.27,11.19-3.91,2.18-.36,4.71,1.34,7.09,2.12-1.12,2.48-1.58,5.85-3.49,7.24-3.19,2.32-7.28,3.44-11.03,4.96-1.06.43-2.26.56-3.5.84v13.41c3.25-1.9,5.7-3.6,8.37-4.82,3.63-1.67,7.33-3.6,11.19-4.26,3.52-.61,7.52,1.39,7.44,5.19-.05,2.34-3.05,5.69-5.49,6.66-3.48,1.38-7.65,1.01-11.53,1.35-3.18.27-6.36.48-9.55.71,0,3.61-.14,6.66.04,9.7.27,4.56-2.63,5.44-6.17,5.57-3.62.13-5.23-1.67-5.02-5.35.18-3.21.04-6.43.04-10.81-2.89.39-5.57.51-8.11,1.14-4.54,1.14-13.97-1.92-16.78-5.72-2.51-3.39-.36-8.19,4.44-8.23,3.82-.03,7.84,1.57,11.42,3.21,2.99,1.36,5.49,3.83,9.15,6.49v.04h0Z" style="fill: #c49c48;"/>
  <path d="M68.5,670.05c-.95-6.75-1.83-13.06-2.78-19.83-8.88,5.63-17.67,11.21-26.47,16.78-.47-.42-.92-.82-1.39-1.23,5.11-7.39,10.22-14.76,15.68-22.65-8.88-.39-17.59-.78-26.3-1.17-.34-.45-.67-.91-1.01-1.36,6.58-5.82,13.16-11.62,19.98-17.63-9.53-4.17-19.03-8.32-28.52-12.46.12-.62.25-1.26.36-1.88,10.64-2.36,21.53-.56,32.88-.47-4.19-6.8-8.06-13.06-11.92-19.33.25-.4.49-.8.75-1.21,7.24,1.17,14.46,2.63,21.74,3.41,4.91.52,7.09,2.82,8.75,7.39,5.71,15.64,11.81,31.15,18.13,46.56,1.44,3.5.91,5.46-1.71,7.84-5.98,5.43-11.73,11.12-18.17,17.28v-.04h-.01Z" style="fill: #c49c48;"/>
  <path d="M53.67,335.94c5.14-5.71,9.38-10.44,14.07-15.64-5.41-1.39-10.45-2.58-15.43-3.98-5.02-1.41-9.98-3.02-14.97-4.56l-.03-1.67c8.35-1.23,16.69-2.48,25.4-3.76-5.33-7.01-10.45-13.76-16.19-21.3h26.82c-3.26-8.33-6.63-17-10.02-25.66.55-.32,1.1-.65,1.65-.96,7.61,7.42,15.21,14.85,22.77,22.22,1.56-6.13,3.23-12.73,4.91-19.34.47-.08.95-.16,1.41-.25,4.85,7.52,9.8,14.99,14.47,22.61.58.96.17,2.96-.43,4.17-7.85,15.85-15.86,31.62-23.73,47.46-1.23,2.47-2.61,3.39-5.54,3.02-7.88-.99-15.82-1.51-25.16-2.35h-.01Z" style="fill: #c49c48;"/>
  <path d="M487.79,826.82c.39,4.02.84,8.75,1.35,13.91,2.51-.75,4.71-1.51,6.96-2.05,3.44-.83,6.53.39,7.49,3.6.47,1.54-1.14,4.39-2.63,5.74-10.7,9.59-27.84,7.98-35.01-3.31-1.03-1.61-1.23-5.76-.69-5.98,2.39-.97,5.31-1.57,7.8-1.09,2.1.42,3.88,2.51,6.09,4.05,1.41-5.56,2.71-10.72,3.82-15.07-5.59-3.87-10.85-7.01-15.47-10.9-2.71-2.28-6.3-6.06-3.47-9.55,2.86-3.5,7.32-1.17,10.73.82,2.01,1.17,3.65,2.97,6.63,5.49-3.74-8.49-3.21-15.84-.29-22.94.82-2,2.87-3.48,4.35-5.21,1.58,1.66,3.65,3.09,4.66,5.05,3.83,7.39,3.15,15.03-.14,23.09,2.97-2.1,5.15-4.08,7.68-5.35,3.48-1.75,7.66-2.7,10.2,1.05,2.62,3.88.05,7.5-3.19,9.57-5.09,3.26-10.64,5.78-16.9,9.09h.03Z" style="fill: #c49c48;"/>
  <path d="M547.77,897.8c1.52-6.83,2.91-13.07,4.21-18.91-5.22-3.25-10.44-6.07-15.13-9.58-2.73-2.04-6.27-5.24-3.32-8.94,2.83-3.56,6.89-1.64,10.16.4,2.12,1.32,4.01,3.02,5.62,4.26-.36-4.98-.86-10.15-1.05-15.32-.06-1.64.32-3.52,1.16-4.89.97-1.61,2.78-3.95,4.04-3.84,1.77.14,4.49,2.01,4.84,3.58,1.12,5.05,1.41,10.28,1.83,15.46.12,1.43-.48,2.92-.74,4.39,3.31-1.56,6.22-3.6,9.4-4.19,2.02-.38,5.52.82,6.39,2.39.88,1.6.17,5.56-1.26,6.68-3.79,2.99-8.2,5.32-12.66,7.28-2.6,1.14-3.78,2.26-3.44,5.14.39,3.37.17,6.84.64,10.2.61,4.43-.88,6.44-5.48,5.92-1.48-.17-2.99-.03-5.19-.03h0Z" style="fill: #c49c48;"/>
  <path d="M412.11,897.33c0-5.78.23-10.88-.14-15.94-.12-1.53-1.6-3.44-2.99-4.31-3.43-2.14-7.36-3.5-10.73-5.71-3.17-2.08-5.4-5.31-2.95-9.11,2.32-3.62,6.01-2.56,9.2-1.13,2.12.95,3.97,2.48,5.57,3.52,0-4.97-.34-10.12.12-15.21.32-3.66,1.23-8.35,5.76-8.49,5.04-.16,5.94,4.84,6.13,8.58.25,5.17-.65,10.38-1.05,15.34,2.05-1.39,4.39-3.8,7.2-4.63,2.52-.74,6.43-.78,8.18.7,3.01,2.53.05,5.59-2.01,7.2-4.88,3.82-10.22,7.05-16.38,11.19,1.13,4.95,2.58,11.28,4.11,18h-10.03.01Z" style="fill: #c49c48;"/>
  <path d="M485.65,873.52c-8.68,0-14.21-2.21-18.04-7.57-1.03-1.43-2-4.41-1.3-5.23,1.48-1.74,4.08-2.54,6.24-3.69.25-.13.74-.08.99.08,7.78,4.89,15.64,3.74,23.7.7,1.38-.52,4.21.12,4.88,1.17.73,1.14.25,3.7-.6,5.11-4.04,6.74-10.44,9.31-15.86,9.44h-.01Z" style="fill: #c49c48;"/>
  <path d="M482,895.82c-4.44-.12-9.84-1.93-13.73-6.72-1.22-1.51-2.58-4.92-1.97-5.52,1.88-1.84,5.54-4.47,6.98-3.74,8.2,4.1,15.9,3.08,23.88-.22,1.22-.51,3.98.17,4.49,1.12.7,1.32.42,3.62-.25,5.15-2.49,5.74-10.19,9.88-19.41,9.93Z" style="fill: #c49c48;"/>
  <path d="M207.11,627.3c-4.37,8.94-12.36,12.86-19.78,9.62-2.3-1-5.14-3.74-5.26-5.82-.09-1.79,3.01-4.72,5.27-5.49,6.54-2.23,13.19-2.1,19.77,1.69h0Z" style="fill: #c49c48;"/>
  <path d="M346.54,828.1c-.4-.31-.82-.62-1.22-.95.38-1.82.14-4.23,1.25-5.33,5.87-5.93,20.66-5.5,26.61.48-3.52,5.91-13.11,8.85-22.18,6.8-1.48-.34-2.96-.66-4.44-1h-.01Z" style="fill: #c49c48;"/>
  <path d="M767.27,626.97c6.68-3.39,13.63-3.88,20.68-1.47,5.26,1.8,5.76,6.02,1.44,9.59-7.09,5.85-19.51,1.44-22.12-8.13Z" style="fill: #c49c48;"/>
  <path d="M625.07,826.25c-.6.52-1.18,1.04-1.78,1.56-11.36,3.37-19.65,1.73-25.79-5.1,4.52-6.05,17.6-7.46,25.05-2.27,1.48,1.03,1.71,3.83,2.52,5.83h0Z" style="fill: #c49c48;"/>
  <path d="M123.31,628.68c7.66-3.75,15.03-3.91,22.3-.34,1.78.87,2.89,3.08,4.31,4.67-1.48,1.26-2.78,2.93-4.48,3.69-8.97,4.02-18.17.8-22.14-8.03h.01Z" style="fill: #c49c48;"/>
  <path d="M849.02,629.16c-3.5,8.46-16.89,12.38-24.09,6.94-3.47-2.61-1.1-4.82,1.01-6.53,5.28-4.28,17.07-4.39,23.08-.42h0Z" style="fill: #c49c48;"/>
  <path d="M272.98,819.42c5.44-5.35,20.05-4.58,24.36,1.01,2.09,2.73.56,4.5-1.77,5.69-5.92,2.99-18.42-.69-22.6-6.7h0Z" style="fill: #c49c48;"/>
  <path d="M671.86,824.72c1.01-1.95,1.53-4.65,3.14-5.71,5.52-3.67,11.85-3.88,18.15-2.53,1.36.3,3.02,1.78,3.43,3.06.26.84-1.26,2.64-2.38,3.47-6.22,4.67-16.93,5.33-22.44,1.57,0-.01.1.14.1.14h0Z" style="fill: #c49c48;"/>
  <path d="M125.14,555.64c8.89-4.87,20.57-2.62,23.73,4.35-9.68,5.4-20.02,3.65-23.73-4.35Z" style="fill: #c49c48;"/>
  <path d="M179.54,558.21c7.11-6.37,15.19-7.04,24.09-4.58-2.67,6.74-10.84,9.67-20.27,7.84-2.05-.39-4.21-.42-3.63-3.45l-.18.18h0Z" style="fill: #c49c48;"/>
  <path d="M824.41,560.38c3.6-7.11,15.21-9.31,23.52-4.78-2.82,7.44-13.56,9.71-23.52,4.78Z" style="fill: #c49c48;"/>
  <path d="M792.93,560.43c-9.1,4.31-19.15,1.91-23.05-5.52,8.64-4.69,21.99-1.49,23.05,5.52Z" style="fill: #c49c48;"/>
  <path d="M768.53,578.11c8.67-2.02,16.07-.77,22.81,4.09,2.19,1.58,2.53,3.32-.45,4.37-7.94,2.79-17.51-.65-22.35-8.46h0Z" style="fill: #c49c48;"/>
  <path d="M769.76,598.34c7.89-4.74,19.31-2.48,24.19,4.78-6.4,4.69-18.87,2.22-24.19-4.78Z" style="fill: #c49c48;"/>
  <path d="M204.62,577.76c-4.27,7.36-15.25,11.72-22.03,8.71-3.78-1.67-.99-4.06.71-5.23,6.35-4.36,13.42-5.02,21.31-3.48Z" style="fill: #c49c48;"/>
  <path d="M177.97,602.64c7.41-6.65,15.74-8.71,25.3-5.24-2.76,7.4-17.6,10.31-25.19,5.15-.03.03-.1.08-.1.08h0Z" style="fill: #c49c48;"/>
  <path d="M149.95,603.54c-7.66,4.52-19.59,2.19-24.18-4.49,6.87-4.71,18.03-2.76,24.18,4.49Z" style="fill: #c49c48;"/>
  <path d="M847.58,599.06c-4.22,6.37-15.2,8.75-23.58,5.1,3.12-7.22,15.78-9.96,23.58-5.1Z" style="fill: #c49c48;"/>
</svg>