<?xml version="1.0" encoding="UTF-8"?>
<svg id="Ebene_1" xmlns="http://www.w3.org/2000/svg" viewBox="0 0 118.85 318.14">
  <g>
    <path d="M98.99,149.28c-.26.09-.64.33-.77.23-1.47-1.06-2.89-2.18-4.73-3.58-1.27,1.75-2.56,3.49-3.78,5.26-.18.26-.22.86-.04,1.06.99,1.15,2.07,2.22,3.19,3.39,1.09-1.27,1.95-2.28,2.7-3.15.86.8,1.58,1.46,2.3,2.12.26-.85.51-1.7.81-2.67.7.43,1.55.95,2.66,1.64-1.58,1.58-.96,4.63-3.73,5.16.18.6.4,1.32.49,1.59-1.61.31-2.82.55-4.03.78l.04.55c1.05.1,2.1.19,3.14.29-.02,2.66-.37,3.01-2.78,3.03-7.75.06-15.49.15-23.24.22-.64,0-1.29,0-2.41,0v-45.29c.14-.03.74-.17,1.46-.34-.15-2.09-.3-4.21-.45-6.46-2.3-.28-1.55-1.92-1.46-3.47h2.99v9.56c.46.2.64.36.8.34,1.29-.16,2.88.03,3.76-.66.9-.7-.59-5.91-1.84-6.93-.09,1.37-.09,2.58-.29,3.75-.08.45-.61.81-.94,1.22-.3-.41-.84-.8-.86-1.22-.09-2-.04-4-.04-6.14h8v9.93h4.57v-9.95h5.27c0,2.43,0,4.87,0,7.31,0,.52-.07,1.06.06,1.55.11.41.45.76.69,1.14.28-.4.79-.79.8-1.19.07-2.91.04-5.82.04-8.91,2.92,0,5.64-.08,8.34.07.53.03,1.01.98,1.35,1.34.03-.15.13-.73.25-1.37h6.27c-3.44,2.75-2.65,6.38-2.91,9.92h2.33c.28-2.02.56-3.99.84-5.96.14,0,.28,0,.43,0v9.33c-.65.06-1.4.13-2.29.21.01,6.77.68,13.51-.79,20.35-1.03-.74-1.9-1.37-3.12-2.25,1.28-.6,2.32-1.08,3.36-1.56-.05-.21-.11-.41-.16-.62-1.26.32-2.51.64-3.93,1-1.35-2.01-3.78-1.73-6.06-1.54-.62.05-1.17,1.03-1.99,1.81-.68-.58-1.61-1.37-2.54-2.17-.04.05-.09.1-.13.14,1.25,1.18,2.49,2.36,3.84,3.64.23-.21.65-.71,1.17-1.06.8-.53,1.42-2.5,2.72-.29.27.46,1.85.17,2.82.22.02.17.04.33.06.5-.59.16-1.18.32-1.98.53,1.35,1.5,2.63,2.92,3.92,4.34l.35-.19c-.5-1.11-1-2.22-1.5-3.33,1.55.7,2.77,1.65,2.27,3.44-.49,1.74-1.17,3.43-1.88,5.1-.22.53-.96,1.34-1.2,1.26-.67-.23-1.32-.77-1.76-1.36-.32-.42-.28-1.11-.4-1.67,1.77,1.51,2.7,1.08,4.02-1.91-.95-.61-1.76-.98-2.51.36-.35.61-1,1.05-1.52,1.57ZM100.03,132.15c-.97-.1-1.27.31-.69,1.1.55.75,1.23,1.41,1.86,2.11,1.31-1.7,2.45-3.16,3.59-4.63-.13-.11-.26-.21-.39-.32-1.26,1.06-2.51,2.12-4.03,3.41-.17-.78-.27-1.25-.38-1.72,1.65-.44,2.6-1.6,3.47-3.09-1.64-.1-2.98,1.23-3.42,3.14ZM82.2,161.57c1.99-.02,3.98-.05,6.46-.08-2.02-2.85-3.48-5.23-5.92-6.46-2.28,3.6,1.67,4.04,3.13,6.12-1.49.18-2.61.32-3.72.46-.43-.53-1.21-1.05-1.23-1.6-.11-3.57-.06-7.14-.06-10.73,2.04,2.36,3.98,4.62,6.07,7.04,2.19-4.6-2.44-5.26-3.85-8.09.94-.14,1.72-.48,2.3-.27.68.25,1.18.99,1.96,1.71v-6.59c-2.06,1.63-4.04,3.19-6.02,4.76-.17-.14-.34-.29-.52-.43v-17.7c-1.84,1.14-3.04,3.19-5.35,2.29v-3.01c1.47-.08,2.84-.06,4.17-.28.44-.07,1.08-.75,1.11-1.19.13-1.6.05-3.22.05-5.27-2.87,1.05-1,3.36-1.87,4.69-1.05.22-2.18.46-3.6.76,0-1.51.06-2.92-.04-4.32-.02-.36-.52-.69-.79-1.03-.21.33-.61.66-.61.99-.02,6.43-.22,12.81-1.02,19.23-.68,5.51-.08,11.17-.17,16.77-.03,1.9.7,2.26,2.31,1.76v-28c4.64,1.04,4.77,1.21,3.93,4.23-.99.27-1.94.53-2.89.79.04.25.07.5.11.76,1.11.11,2.21.21,3.34.32v2.86q-3.31.57-3.21,2.15c.99.15,1.98.31,3.07.48-.22,1.87,1.05,4.21-2.14,4.56-.26.03-.56.63-.63,1.01-.03.16.49.48.8.61.35.14.87.02,1.12.24.49.43,1.11.99,1.18,1.56.05.37-.71,1-1.23,1.24-.7.32-1.51.38-2.73.66,1.54,1.62,4.84,1.38,3.57,4.53-.55.12-1.17.26-1.85.42v1.82c1.64.09,3.19.18,4.75.25ZM82.48,144.3c.17.12.34.24.5.36,1.61-1.81,3.3-3.57,4.78-5.48.41-.53.57-1.77.23-2.29-1.12-1.76-2.51-3.36-3.73-4.92-.66,1.65-1.2,2.99-1.53,3.81,1.02.79,1.86,1.45,2.71,2.11-.86.66-1.73,1.32-2.97,2.26v4.16ZM82.64,126.25c.82,3.08,3.31,4.42,5.18,6.88v-10.79c-1.76.12-3.34.22-4.92.33,1.24.85,3.45.08,3.03,2.56-.28,1.65-1.56,1.64-3.29,1.02ZM92.64,119.46h4.73c-.35-3.23-.68-6.31-1.01-9.38-.25.01-.5.03-.76.04v7.71c-.24.05-.49.1-.73.15-2.62-1.49-.56-4.81-2.23-7.05v8.53ZM94.91,125.55c-.69-.64-1.23-1.52-1.93-1.67-.76-.16-1.78.17-2.49.61-.86.53-.78,1.31-.04,2.11.95,1.04,1.77,2.2,2.77,3.47,1.84-2.01,3.17-3.46,4.68-5.12-.91-.67-1.68-1.23-2.45-1.79-.1.13-.19.27-.29.4,1.24,1.7,1.16,2.48-.62,4.07-.27.24-.88.08-1.34.11l-.07-.52c.55-.51,1.09-1.03,1.78-1.67ZM88.34,111.99c-1.01.82-2.02,1.24-2.11,1.8-.29,1.87-.25,3.8-.33,5.69h2.44v-7.49ZM79.28,119.44c-.2-3.14-.39-6.02-.58-8.89-.25,0-.5,0-.75,0-.4,2.93-.81,5.86-1.22,8.9h2.56ZM89.78,134.8c.56.5,1.57,1.94,2.13,1.78,1.02-.28,1.88-1.44,2.55-2.41.19-.27-.53-1.17-.75-1.63-1.46.84-2.58,1.48-3.93,2.26ZM103.16,119.91c0-2.19.11-3.81-.03-5.42-.13-1.41.63-3.06-.92-4.21-.3,2.86-.33,5.68-.25,8.5.01.34.68.65,1.2,1.12ZM101.15,119.51c-.11-2.33-.21-4.45-.32-6.93-1.3,1.35-2.1,6.1-1.39,6.93h1.72ZM98.53,130.77c.99-1.09,1.69-1.87,2.39-2.64-.85-.8-1.54-1.44-2.3-2.15-1.09,1.27-2.18,2.47-3.17,3.74-.29.37-.31.96-.45,1.44.49-.25,1.14-.38,1.45-.77.78-.96,1.4-2.04,2.09-3.07.27.11.53.21.8.32-.22.86-.45,1.72-.82,3.14ZM93.7,159.64c-1.07-1.3-1.8-2.36-2.73-3.21-.33-.3-1.14-.07-1.73-.08.12.47.09,1.09.38,1.39.62.64,1.35,1.23,2.15,1.62.56.28,1.29.2,1.93.28ZM99.68,123.13c-.17.15-.35.29-.52.44.82,1.14,1.65,2.29,2.49,3.45,2.21-1.99,2.51-2.53,2.12-3.65-.58.74-1.16,1.49-1.8,2.32-.9-1-1.59-1.78-2.28-2.55ZM92.22,143.89c-.77-.73-1.56-1.48-2.34-2.22-.13.09-.25.17-.38.26.13,1.4.27,2.81.4,4.18.76-.73,1.48-1.42,2.32-2.22ZM95.35,158.12c1.68-1.23.89-2.36.15-3.53-.61.48-1.17.93-1.82,1.45.54.68,1.08,1.35,1.67,2.09ZM95.2,144c.03.22.07.43.1.65.64,0,1.57.26,1.86-.06.51-.57.63-1.48.91-2.25l-.63-.31c-.75.66-1.49,1.31-2.24,1.97ZM90.37,128.95c-.3.12-.6.23-.9.35.36.86.71,1.73,1.14,2.56.03.06.73-.24,1.11-.37l-1.35-2.54Z"/>
    <path d="M36.46,101.6c5.01,0,9.82,0,14.64,0,16.92,0,33.84.02,50.77.01,4.27,0,4.27-.02,4.97,4.59H41.14v43.34c.57.07,1.18.14,1.93.22v5.95c1.13-.1,2.2-.19,3.47-.3-.71-1.93-1.37-3.73-2.08-5.66h5.05v5.66h3.99c-.86-1.89-1.68-3.7-2.57-5.66h4.59v5.71h3.5c-.88-1.93-1.7-3.73-2.6-5.7h4.03v5.6h3.56c-.84-1.9-1.62-3.68-2.46-5.59h4.44v13.74h-4.39c.73-1.62,1.42-3.14,2.19-4.83h-3.22v4.85h-3.83c.73-1.59,1.43-3.12,2.21-4.84h-3.32v4.85h-4.87c.68-1.6,1.33-3.12,2.05-4.82h-3.06v4.84h-5.25c.7-1.63,1.35-3.14,2.07-4.84h-3.37v4.86h-6.74v-62Z"/>
    <path d="M41.56,287.93c0,2.65.09,5.06-.05,7.45-.05.85-.63,1.68-.96,2.51-.25.11-.5.23-.75.34.99.42,1.98.84,3.27,1.4v-7.31h12.42v2.62h-8.72c2.24-1.19,5.13-.14,7.69-2.34-3.3,0-6.05-.04-8.8.05-.38.01-1.03.67-1.05,1.05-.1,2.24-.05,4.49-.05,6.93h-8.45v-16.36h8.36v-11.34h3.11c0,2.86,0,5.63,0,8.39,0,.65-.04,1.31.03,1.95.03.25.34.46.52.68.25-.23.71-.46.72-.69.04-5.25.03-10.49.03-15.87h-11.7c-.04.62-.08,1.23-.16,2.29h10.52c0,.3.01.59.02.89h-10.12c0,2.89-.04,5.35.04,7.81.01.39.57.77.87,1.15.32-.38.9-.74.92-1.14.1-1.8.04-3.62.04-5.56h3.1c0,2.49.03,5.06-.04,7.63,0,.26-.58.72-.91.74-1.8.07-3.61.03-5.52.03v-31.32h14.93v35.46h-13.55v14.07c1.89.61,1.69-.61,1.65-1.41-.16-3.64-.39-7.28-.62-11.37h16.26c.08-.3.16-.6.25-.9-.62-.32-1.24-.65-2.15-1.12-.08-.68-.3-1.7-.3-2.71-.04-10.28-.05-20.57,0-30.85,0-.46.69-.93,1.06-1.39.32.45.9.88.92,1.34.11,3.71.11,7.42.15,11.13,0,.7,0,1.41,0,2.5h9.16c0,4.01-.04,7.64.02,11.27.03,1.92-1.08,4.46,2.69,4.68-.13.18-.27.37-.4.55h-10.74c.18,2.51.33,4.67.48,6.76h-14.18ZM57.01,272.09c.09.22.19.43.28.65-.48.21-.97.4-1.45.62-.35.16-.68.36-1.02.54.28.36.51.96.86,1.03,1,.2,2.04.2,3.53.3-1.04,2.2-3.17.64-4.25,1.59.11,1.76,1.11,2.22,3.87,2.07,1.65-.08,1.78-.83,1.42-2.16-.14-.53.07-1.16.08-1.74.01-2.83,0-5.67,0-8.5h-5.07c-.63,4.53-.44,5.1,1.74,5.58ZM37.17,265.78h11.97v-11.28c-.4,0-.86-.01-.86,0-.2,3.07-.37,6.13-.54,9.16h-10.67c.03.66.07,1.28.11,2.12ZM44.41,256.42c-5.3-.69-5.66-.43-5.42,3.8,0,.06-.03.15,0,.19.37.41.71,1.11,1.13,1.15,1.38.15,2.79.06,4.28.06v-5.19ZM62.11,276.35c-.35.14-.7.27-1.06.41.24.73.49,1.45.73,2.18.34-.2.99-.44.96-.58-.12-.69-.41-1.34-.64-2.01Z"/>
    <path d="M3.39,293.37c1.63,1.43,3.26,2.86,4.91,4.31,2.39-2.11,4.84-4.04,6.97-6.28.75-.79.73-2.33,1.06-3.52-.19-.08-.38-.16-.56-.25-2.24,2.6-4.49,5.21-6.87,7.97-3.57-2.97-8.04-4.98-7.68-10.9,2.22,1.82,4.43,3.64,6.83,5.61,1.25-1.16,2.46-2.42,3.81-3.51.93-.74,2.04-1.26,3.09-1.83.58-.31,1.21-.51,1.82-.76-.14-.27-.33-.79-.41-.78-.58.11-1.14.34-1.69.29-.71,0-1.41.02-2.12,0-.32-.01-.64-.12-.97-.15-.53-.04-1.06-.05-1.59-.07-.42-.02-.85-.07-1.27-.03-1.36.13-2.83.02-4.04.52-1.54.63-3.77-.11-4.18-1.97.5-.07.98-.18,1.46-.18,9.63-.04,19.26-.07,28.89-.1.39,0,.82-.08,1.16.06.34.14.58.52.87.79-.28.27-.55.76-.84.77-1.79.06-3.65-.31-5.35.07-2.23.5-4.56-1.05-6.7.48-.16.12-.7-.37-1.1-.47-.33-.08-.7.01-1.06.03.02.35-.1.88.09,1.04,3.73,3.21,7.5,6.38,11.27,9.54.18.15.46.17.9.32v-9.94h2.77c.05,1.14.15,2.22.15,3.3,0,7.74-.01,15.48-.06,23.22-.01,1.48-.22,2.95-.36,4.43-.26,2.7-1.75,3.47-4.4,2.14.75-1.62,1.5-3.24,2.37-5.12-.95-.04-1.73-.08-2.45-.12-.32,1.5-.6,2.81-.88,4.11-.24-.03-.48-.06-.71-.09,0-.8-.05-1.61.01-2.41.13-1.68-.62-1.91-2.09-1.24.48,1.32.95,2.61,1.51,4.17-2.13-.42-3.1-1.53-3.76-3.11-.22-.51-.88-.84-1.33-1.25l-.54.53c.37.56.73,1.13,1.1,1.69-9-4.51-14.16-12.32-18.38-20.93.12-.12.25-.24.37-.37ZM27.47,306.77c-1.14-1.06-1.89-1.9-2.79-2.55-1.84-1.33-3.74-2.58-5.63-3.82-1.28-.84-1.31-1.79-.36-2.89,1.21-1.41,2.4-2.83,3.72-4.39-2.69-.29-3.74,1.55-4.69,3.14-1.04,1.74-.87,3.66.61,5.22,1.34,1.41,2.82,2.69,4.11,4.15,1.23,1.38,2.63,1.77,5.03,1.15ZM19.34,307.05c-3.01-4.17-6.68-8.42-8.65-6.05,1.41,1.53,2.98,2.94,4.19,4.61,1.22,1.68,2.69,1.69,4.46,1.43ZM11.2,299.64c3.13-1.48,5.02-4.32,4.25-6.56-2.2,1.72-3.69,3.7-4.25,6.56ZM30.04,306.81v-6.22c-1.29.92-2.2,1.57-3.29,2.35-.06-.02-.43-.17-.8-.31l-.21.32c1.3,1.17,2.6,2.34,4.3,3.87ZM25.87,294.87c-2.49.04-2.48,1.99-2.97,3.21-.82,2.05,1.07,2.78,2.23,3.81q-2.19-3.62.74-7.02Z"/>
    <path d="M53.16,112.7h-4.34c-.03.73-.1,1.48-.09,2.22.02,8.27.08,16.53.03,24.8,0,1.57.38,2.25,2.03,2.19,1.34-.05,2.67.01,3.41,1.62.21.46,1.42.46,2.31.71v-4.15h-5.86v-2.41c3.21,0,6.38,0,9.55,0,1.37,0,2.74.05,4.1-.04,1.56-.1,2.21.44,1.63,2.3-1.4,0-2.88-.02-4.36,0-2.6.04-2.6.05-2.54,2.59,0,.32.04.64.08,1.29h7.07c-.06.95-.09,1.56-.14,2.28h-20.23v-36.32h19.72v2.99h-7.65v19.45h8.12v2.88h-12.83v-22.41Z"/>
    <path d="M94.92,93.22v-9.06c1.83,1.23,3.31,2.26,3.13,4.5-.06.71-.08,1.44.02,2.14.09.63.38,1.22.59,1.83.24-.64.54-1.27.71-1.94.1-.39.02-.83.44-1.37,1.48,2.83,2.95,5.66,4.65,8.91H36.06v-5.02h58.86Z"/>
    <path d="M66.47,227.12c0,3.18-.03,6.16,0,9.14.04,3.05.18,6.1.21,9.16,0,.56-.34,1.12-.52,1.68-.27-.07-.54-.13-.82-.2v-8.15c-.15,0-.29,0-.44,0v8.18c-.65.08-1.18.14-1.94.24v-15.09c-1.13-.12-2.08-.21-3.03-.31-.06-.11-.15-.22-.16-.34q-.23-2.83-3.08-2.83c-4.59,0-9.17,0-14.28,0,.72.79,1.03,1.27,1.46,1.59,1.66,1.21,2.53,2.65,2.01,4.83-.36,1.49,1.1,1.55,1.92,1.56,1.92.03,2.19,1.05,2.11,2.63-.09,1.89-.02,3.79-.02,5.69.29,0,.59.01.88.02v-9.27c1.74,1.21,2.81,1.89,2.35,3.94-.43,1.92-.01,4.01-.14,6.02-.04.57-.6,1.43-1.07,1.55-.56.14-1.29-.37-2.04-.64-.07.06-.52.72-.98.73-4.14.08-8.28.05-12.52.05v-20.18h30.07ZM43.42,238.54c1.35,1.41,2.49,2.75,3.8,3.9.4.35,1.26.18,1.91.25-.12-.59-.05-1.37-.4-1.73-1.31-1.35-2.72-2.59-4.18-3.79-.26-.22-1.06-.19-1.31.04-.93.89-1.73,1.92-2.58,2.9.07.07.14.13.2.2.83-.58,1.67-1.15,2.55-1.76ZM38.43,238.63c1.24-2.21,4.69-3.08,4.01-6.39-2.05,1.71-4.16,3.38-4.01,6.39Z"/>
    <path d="M21.38,147.92c-1.8-1.03-2.28-2.14-2.3-3.74-.18-19.85-.44-39.69-.68-59.53,0-.38-.06-.76-.11-1.25h-7.54c-.26,16.73-.52,33.29-.78,49.86-.17.06-.33.12-.5.18-.43-1.25-1.24-2.49-1.24-3.74-.03-7.68.14-15.35.21-23.03.07-7.48.11-14.96.15-22.45,0-.24-.09-.49-.17-.9H3.79c-.04-2.73,0-2.8,2.44-2.8,8.65-.01,17.3,0,26.19,0,.04.85.08,1.64.13,2.69h-11.98c.27,21.61.54,42.98.81,64.71Z"/>
    <path d="M35.63,188v-3.16h27.01c-.41-6.07-.83-12.1-1.25-18.27h3.76c.43.89.8,1.59,1.1,2.32.14.34.21.74.21,1.12-.01,14.12-.03,28.25-.06,42.37,0,.12-.07.24-.15.48h-3.5v-24.86h-27.12Z"/>
    <path d="M52.34,175.22c-.23-2.86-.46-5.68-.71-8.64h7.92c.44,5.15.88,10.3,1.33,15.64h-21.57c-.18-3.17-.43-6.32-.5-9.49-.04-1.74-.63-2.82-2.51-2.94v-3h13.29c0,2.01.1,4.2-.03,6.37-.11,1.85.58,2.53,2.78,2.06ZM43.35,178.93c4.44,0,8.65.04,12.85-.06.4,0,1.1-.83,1.13-1.29.11-2.27.02-4.54.05-6.81.02-1.56-.7-1.7-2.05-1.15v6.99h-10.01v-7.91c-.84.11-1.45.19-1.97.25v9.98Z"/>
    <path d="M55.89,195.15v18.46h-19.33v-18.46h19.33ZM51.95,200.32c-2.18-.35-4.2-.72-6.24-.99-1.15-.15-2.34-.25-3.49-.16-.45.04-1.21.66-1.22,1.03-.09,3.54-.06,7.08-.06,10.63h11v-10.52Z"/>
    <path d="M12.43,84.8h4.8v59.32c-2.06-2.64-4.99-4.73-5.05-8.46-.13-7.47-.04-14.94-.04-22.45,1.46-.24,2.39-.4,3.28-.54.36-1.52-.1-2.17-1.62-2.19-.45,0-1.27-.71-1.28-1.12-.11-2.91-.06-5.83-.06-8.82.95-.15,1.7-.28,2.43-.39q.45-2.21-2.33-2.58v-4.71c.72-1.17,3.05.56,2.89-1.58-.04-.52-1.76-.92-3.02-1.52v-4.96ZM15.12,124.12v-3.32c-.79.04-1.42.08-2.11.12v3.2h2.11ZM15.2,135.6c.68-3.1.36-3.5-2.25-2.93-.31,2.89-.27,2.93,2.25,2.93Z"/>
    <path d="M75.1,88.92v-8.78c.75,0,1.43,0,2.11,0,3.9-.05,7.81-.07,11.71-.16,3.23-.08,3.23-.11,4.99,1.97v9.15h-57.81v-2.19h39ZM89.18,88.96c0-1.92.05-3.41-.04-4.88-.02-.38-.5-1.03-.79-1.04-2.63-.08-5.27-.05-8.15-.05,0,1.8-.07,3.36.05,4.9.03.38.65,1.01,1.02,1.03,2.58.09,5.16.05,7.91.05Z"/>
    <path d="M39.5,58.71h4.33c0-.17,0-.34.01-.52-1.68-.12-3.36-.24-5.19-.37,0,5.12-.02,10.24.06,15.35,0,.32.88.94,1.26.88,1.04-.17,2.56.1,2.55-1.68,0-2.67-.06-5.34-.07-8-.01-2.77,1.05-3.42,3.72-2.31,1.15.48,1.76-.06,1.9-1.18.2-1.6.33-3.21.49-4.84,1.52-.27,2.3.07,2.22,1.75-.1,2-.02,4.01-.02,6.07h-6.12v6.34c1.87-.14,3.72-.28,5.99-.44,0,2.26.04,4.3-.05,6.34-.01.28-.66.65-1.06.75-.16.04-.66-.55-.68-.88-.09-1.15-.03-2.31-.03-3.72-1.39.09-2.56.17-3.74.25,2.04.93,2.36,2.44,2.05,4.39h-11.24v-22.88c1.15.36,2.19.83,3.27.99,1.25.18,2.55.03,3.82.14,2.39.22,3.63,2.06,2.86,4.35-.16.46-.92.88-1.47,1.01-.72.17-1.52.04-2.48.04v12.01h-2.36v-13.85Z"/>
    <path d="M17.18,70.29c-1.14-1.39-2.28-2.78-3.64-4.44,2.33-2.52,4.76-5.15,7.26-7.86,2.7,2.95,5.09,5.57,7.73,8.45-.91-3.98-3.03-6.67-6.32-8.57.05-.23.1-.46.15-.69,3.36-.91,6.72-1.82,10.33-2.8v18.07h-9.51c1.21-1.31,2.33-2.5,3.44-3.7-.06-.06-.13-.13-.19-.19-.89.83-1.96,1.55-2.64,2.53-1.31,1.88-2.87,1.95-4.73,1.1-.62-.63-1.25-1.26-1.87-1.89ZM16.31,67.17c1.35,1.43,2.4,2.57,3.48,3.69.72.74,1.44,1.07,2.29.09,1.08-1.25,2.23-2.43,3.46-3.76-.9-.1-1.93-1.75-2.26.52-.03.23-.77.56-1.15.52-1.51-.17-3-.47-4.5-.72-.05-.16-.11-.33-.16-.49.42-.19.84-.37,1.26-.56-.15-.18-.3-.35-.44-.53-.65.4-1.29.81-1.98,1.24ZM18.23,65.71h5.61q-3-3.15-5.61,0ZM27.34,67.43c.34-.94-3.77-5.13-6.72-6.2,2.27,2.09,4.53,4.18,6.72,6.2Z"/>
    <path d="M26.23,122.89h1.88c.36-2.33.48-2.38,4.67-1.98v7.79h-10.11v-27.11h9.85v4.07h-6.29v17.23Z"/>
    <path d="M88.01,174.81c-.35,1.03-.71,2.06-1.12,3.27,1.49.2,2.76.36,4.35.57-.76,1.9-1.43,3.69-2.22,5.42-.16.34-.81.65-1.24.65-6.37.04-12.73.03-19.27.03v-6.14h4.85v3.87c1.27.06,2.39.11,3.51.16.02.2.03.39.05.59-1.05.19-2.11.39-3.16.58l-.03.33c1.34.1,2.68.2,4.36.32v-5.5c.28-.03.56-.06.84-.09.15,1.01.29,2.01.46,3.14h1.73c0-.76-.08-1.47.03-2.15.06-.35.46-.64.7-.96.22.32.57.63.61.97.08.63-.03,1.29-.07,2.13.63.04,1.24.08,2.15.13-.6-1.51,1.3-3.24-1.01-4.24-.09-.04-.06-.36-.08-.55-.21-2.07-.42-4.15-.64-6.29-.88-.09-1.66-.18-2.44-.26,0-.21,0-.43,0-.64,1.51-.07,3.02-.14,4.93-.22v14.13c.17,0,.35,0,.52,0v-15.1h-6.6v2.84c.96.55,2.94-.36,2.23,1.95-.75.16-1.56.32-2.36.49,0,.23-.01.45-.02.68,1.14.23,2.27.47,3.73.77-.14.74-.19,2.12-.46,2.16-1.31.22-2.7.2-4.02-.01-.29-.05-.56-1.18-.58-1.82-.07-2.51-.03-5.03-.03-7.81h17.15c.09.09.18.19.27.28-.65.42-1.25,1.04-1.95,1.21-.99.23-2.08.03-3.1.18-.89.13-2.46.43-2.49.75-.1,1.39.25,2.82.44,4.23l-.04-.04Z"/>
    <path d="M61.32,213.32h-3.15v-19.96h-23.31c.05-1.16.09-2.03.13-3.03,5.96,0,11.74,0,17.52,0,2.47,0,4.95-.04,7.42.08.48.02,1.32.71,1.33,1.1.08,7.21.06,14.42.06,21.82Z"/>
    <path d="M52.57,303.77c1.61,1.09,2.02,2.87,1.22,5.31-.2.6-.44,1.19-.73,1.95-.73.07-1.55.14-2.49.23-.17-.74-.31-1.39-.49-2.19-1.04.63-.5,3.07-2.58,2.09v-12.39c-.36-.2-.93-.51-1.5-.82.06-.17.11-.34.17-.51h11.07v-12.88h2.87v13.94c-.63.16-1.3.33-1.95.5,2.09.77.74,2.33.9,3.31h-3.58c.11-.34.26-.85.43-1.42-1.82-.42-2.96-.02-2.93,2.09,0,.28-.25.56-.37.85-1.08,1.9-.98,4.25.33,5.7-.13-1.99-.25-3.88-.37-5.76Z"/>
    <path d="M64.3,222.51c-2.86-.57-5.84.15-8.84-.32-.04-.69-.08-1.38-.13-2.25h10.96c.11,1.82.21,3.53.31,5.36h-30.16v-1.82h6.61c.02-.23.05-.46.07-.69-2.01-1.2-4.47.09-6.65-.74v-2.16h7.86c.18,1.23.34,2.37.5,3.46,2.68.56,6.08.33,7.7-.82h-6.37c-.08-1.04-.13-1.73-.2-2.62h7.44c.05.11.17.28.2.46.55,3.26.54,3.28,4.01,3.23,2.22-.03,4.44-.13,6.67-.21,0-.29.01-.58.02-.87Z"/>
    <path d="M72,205.07v-2.99c.96-.07,1.91.03,2.72-.26.73-.27,1.3-.97,1.94-1.48-.05-.18-.09-.35-.14-.53-.57,0-1.15-.05-1.72.01-.88.1-1.75.27-2.63.41-.15-.98-.3-1.96-.44-2.92,3.67-.7,4.85-.47,6.31,1.43.2-1.1.34-1.89.51-2.87h-7.56v13.02c.2.01.41.03.61.04.14-.84.29-1.68.47-2.75.44-.02.97-.05,1.72-.09-.15,1.2-.28,2.19-.41,3.24h-4.65c0-1.62,0-3.14,0-4.67,0-2.73-.07-5.47.05-8.19.02-.53.74-1.45,1.17-1.47,3.17-.13,6.34-.07,9.71-.07v5.32c1.52-.6,1.93-1.51,1.86-2.83-.1-1.93,1.14-2.63,3.08-2.63-.55.63-1.1,1.25-1.64,1.88.03.06.06.13.1.19.48-.28.96-.55,1.44-.83.16.09.32.18.48.27-2.73,1.58-2.14,4.4-2.97,6.69-.2.55-.36,1.17-.73,1.57-.26.28-.86.23-1.69.42.1.43.3,1.34.51,2.24.33,2.15-1.37,2.01-3.1,2.2v-6.37l-.54-.11c-.16.57-.43,1.14-.46,1.72-.07,1.3.04,2.6-.05,3.9-.03.35-.53.66-.82.99-.2-.34-.54-.66-.57-1.01-.08-1.02-.03-2.06-.03-3.22-.81-.07-1.56-.14-2.53-.23ZM78.76,208.46c.27-2.23.5-4.08.71-5.82-2.17,1.02-1.27,3.21-1.44,5.02-.02.26.5.57.73.81Z"/>
    <path d="M26.59,134.14v15.14h6.4v1.9c-2.4.11-4.7.21-7.84.34-1.66-.86-2.81-2.71-2.63-5.77.29-5.1.08-10.23.08-15.51h10.01v3.89h-6.01Z"/>
    <path d="M24.35,229.42c3.52-3.87,3.58-3.9,8.11-3.45v13.62h-6.21c.17-1.41.32-2.65.49-4.02h-9.43l-.39-.52c1.61-1.56,3.22-3.11,4.96-4.8-.52-.18-1-.34-1.48-.5.02-.2.03-.41.05-.61.76.04,1.52.08,2.43.12-.24-.53-.45-1-.89-1.98,1.04.95,1.67,1.52,2.35,2.15ZM28.17,231.66c-1.31-.34-2.32-.6-3.33-.86l-.33.81c1.17.67,2.28,1.67,3.52,1.88.62.1,1.48-1.25,2.24-1.94-.16-.23-.33-.47-.49-.7-.65.33-1.3.66-1.61.82ZM22.79,230.89c-1.1,1.04-1.92,1.83-2.75,2.62.07.08.14.16.21.23.7-.4,1.41-.8,2.21-1.26.34,2.39,1.86,1.31,3.54,1.35-1.26-1.16-2.18-2-3.2-2.94Z"/>
    <path d="M35.98,87.08v-2.37h25.99c.1-1.67.18-2.99.27-4.43h10.64v2.69c-1.76.09-3.5.3-5.23.23-1.83-.07-2.61.66-2.52,2.45.02.44-.11.88-.18,1.42h-28.98Z"/>
    <path d="M32.43,84.95v4.04h-5.25v7.88h5.34c.04.78.08,1.46.12,2.27h-10.11v-14.19h9.9Z"/>
    <path d="M75.11,224.03c-1.59,3.45-1.5,7.48-4.11,10.76.95,3.15-1.84,5.85-2.14,9.06v-27.53h8.64c-.59,1.8-1.12,3.42-1.51,4.6-1.85-.22-3.45-.4-5-.59v5.99c.2,0,.41,0,.61.01.11-1.32.22-2.65.36-4.29,1.06.67,1.92,1.21,3.15,1.98ZM70.55,217.66c.4,2.99,2.65,1.18,3.89,1.68.26.1.9-.76,1.36-1.18-.13-.16-.25-.33-.38-.49h-4.87Z"/>
    <path d="M32.98,74.39c.08,1.02.14,1.85.23,2.98H8.15c-.08-.59-.19-1.36-.29-2.13l-.76.12c.04.65.09,1.31.14,2.06h-1.67c.27-2.9.55-3.16,3.22-3.16,7.54,0,15.08,0,22.63.02.45,0,.89.06,1.57.11Z"/>
    <path d="M58.64,230.61c.11.71.24,1.6.38,2.54,1.03-.08,1.96-.15,3.04-.23v14.09c-.18.05-.37.1-.55.15-.2-.54-.55-1.07-.56-1.62-.09-2.92-.18-5.85-.09-8.77.05-1.67-.4-2.62-2.67-2.6.41.94.83,1.71,1.09,2.53.21.66.29,1.38.3,2.08.03,2.64.01,5.29.01,8.18-.67.04-1.65.09-2.7.15v-10.73c-.87-1.18-1.39-2.37-2.3-2.98-.87-.58-2.15-.7-3.25-.74-1.7-.07-3.4.06-4.59-2.04h11.9Z"/>
    <path d="M1.8,101.55h5.13v25.54c-1.14-1.28-2.77-5.82-3.01-9.06-.25-3.43-.24-6.89-.47-10.32-.04-.67-.77-1.26-.94-1.95-.32-1.32-.47-2.68-.72-4.2Z"/>
    <path d="M33.12,265.87c-1.75.1-3.5.21-5.24.31-.18.95-.36,1.9-.55,2.85-.18-.02-.35-.03-.53-.05v-3.27c-.64.58-1.09.88-1.39,1.29-.17.23-.02.7-.18.93-.26.35-.67.59-1.02.88-.14-.38-.39-.75-.4-1.13,0-.48.19-.97.3-1.47-2.52-.93-.64,3.22-3.14,2.47.06-.78.13-1.62.21-2.53-2.28-.66-.55,2.55-2.37,2.57v-2.57h-3.54c-.66.97-1.23,1.8-1.8,2.62-.2-.85-.4-1.69-.62-2.61h-2.96c-.57,1.01-1.04,1.83-1.5,2.65-.26-.83-.51-1.67-.83-2.68-1.87-.42.09,3.74-2.56,2.54-.11-1-.22-1.99-.33-2.99-.37.04-.73.07-1.1.11.12,1.69.23,3.37.37,5.32-.92.07-2.09.16-3.25.25-.11-.22-.22-.43-.34-.65.66-.51,1.32-1.01,1.97-1.52-1.58-1.11-1.44-3.07.08-5.25,1.3.35,2.38.89,3.46.9,8.5.05,16.99-.01,25.49-.02.56,0,1.12.11,1.69.16.03.3.06.59.08.89Z"/>
    <path d="M55.43,59.61c1.43-.21,3.04-.44,4.68-.68v17.61h-4.82v-8.51c.77,0,1.42.08,2.04-.03.41-.08.77-.44,1.15-.67-.36-.25-.69-.64-1.08-.71-.56-.09-1.15.06-1.97.12v-7.12ZM56.36,73.85c-.18.23-.37.45-.55.68.52.56,1.03,1.12,1.55,1.69.45-.71.89-1.41,1.61-2.56-1.38.1-2,.15-2.61.2Z"/>
    <path d="M.42,280.07v-2.15h32.3v2.15H.42Z"/>
    <path d="M16.12,273.89c-.1.96-.17,1.66-.25,2.43H0c.06-1.22.1-2.17.13-2.77h14.09c.24-1.06,1.32-1.23,2.75-1.2,4.75.1,9.5.02,14.25.09.55,0,1.09.52,1.63.79-.58.22-1.16.62-1.74.63-4.93.05-9.87.03-14.99.03Z"/>
    <path d="M22.11,245.88h-5.87c-.26-.98-.43-1.62-.65-2.45h17.02v4.52H9.95c.38-.74.68-1.35.78-1.54h11.3c.03-.18.06-.35.08-.53ZM22.75,243.44c-.27,2.18.42,3.11,1.96,3.16,1.49.05,2.97.03,4.46.04.96,0,1.92,0,2.89,0,0-.22.02-.43.03-.65-3.06-.97-6.86,1.09-9.34-2.56Z"/>
    <path d="M36.4,218.75v-2.12h30.04c.05.73.09,1.36.13,2.12h-30.17Z"/>
    <path d="M6.99,84.85v14.22H2.03c.23-4.31.42-8.66.74-13,.03-.43.81-1.04,1.33-1.16.85-.19,1.78-.05,2.9-.05Z"/>
    <path d="M6.71,254.12c.95-3.62,1.09-3.74,4.49-3.75,1.42,0,2.84,0,4.45,0,0,.58-.01,1,0,1.42.06,2.07.47,2.34,2.59,2.3,4.41-.09,8.82-.09,13.24-.06.42,0,.84.52,1.26.79-.45.33-.89.95-1.34.95-4.86-.03-9.93.65-14.52-.51-3.44-.87-6.83-.38-10.16-1.13Z"/>
    <path d="M61.71,59.96c2.06.27,2.91,1.35,2.75,3.51-.18,2.45-.04,4.92-.04,7.54.74-.05,1.26-.08,1.93-.12v5.55h-4.64v-16.49Z"/>
    <path d="M68.5,189.45v-2.68h19.41c-.23,1.68-.69,2.77-2.8,2.72-5.49-.13-10.99-.04-16.61-.04Z"/>
    <path d="M57.19,249.66v7.54c.23,0,.46-.01.69-.02v-7.37h3.5v9.92h-4.95v-9.95c.25-.04.51-.07.76-.11Z"/>
    <path d="M68.48,193v-2.47h17.89c-.11,1.77-.82,2.55-2.79,2.48-4.29-.15-8.59-.03-12.89-.01-.7,0-1.4,0-2.21,0Z"/>
    <path d="M64.33,257.77c3.62.05,1.98,2.63,2.55,4.1-1.67.19-3.22.46-4.78.53-1.69.08-3.39.08-5.07-.09-.42-.04-.75-.88-1.39-1.7,3.23.26,5.73.46,8.97.72-.6-.97-.91-1.48-1.23-1.98-.4-.64-1.1-1.25-1.16-1.91-.16-1.94.02-3.91-.09-5.85-.09-1.5.34-2.22,1.94-2.01.73.09,1.48.02,2.38.26-2.33-.21-2.23,1.16-2.15,2.66.09,1.68.02,3.36.02,5.28Z"/>
    <path d="M17.18,70.29c.62.63,1.25,1.26,1.87,1.89-.45-.08-1.04,0-1.33-.27-1.69-1.48-3.32-3.05-5.25-4.38,1.35,1.63,2.7,3.25,4.25,5.12H7.44c.67-2.92,4.96-8.49,8.91-11.32-.85,1.1-1.72,2.19-2.55,3.3-.69.92-.93,1.79.14,2.68,1.13.94,2.17,1.99,3.25,3Z"/>
    <path d="M59.53,121.4h6.36v2.85c-.36.04-.78.13-1.21.14-2.58.04-2.48.04-2.59,2.56-.07,1.59.52,2.14,2.02,1.93.32-.04.69-.1.96.02.41.18.76.5,1.13.77-.36.27-.7.75-1.07.77-1.81.08-3.62.04-5.6.04v-9.07Z"/>
    <path d="M17.4,250.51h15.09c.5,2.44.43,2.53-1.9,2.53-4.09,0-8.18,0-12.31,0-.29-.84-.59-1.69-.89-2.53Z"/>
    <path d="M51.54,56.64c1.46-.14,2.11.18,2.09,1.55-.1,5.65-.08,11.3-.19,16.95-.01.59-.57,1.17-.88,1.76-.34-.56-.97-1.11-.97-1.68-.07-6.16-.04-12.32-.04-18.59Z"/>
    <path d="M32.85,258.63h-16.79q-.79,3.39-1.87,3.38-.46-5.14,4.51-5.11c4.47.02,8.94,0,13.75,0,.05.23.18.8.39,1.72Z"/>
    <path d="M32.71,269.62c.4,1.19.22,1.84-1.13,1.84-5.52-.02-11.04,0-16.64,0-.15-.64-.27-1.18-.42-1.83h18.18Z"/>
    <path d="M12.66,256.97v5.13h-2.99c.04-.88.08-1.73.13-2.77h-4.61c-.49,1.12.78,3.36-1.86,2.95.24-.69.61-1.28.63-1.88.09-2.65,1.27-3.84,3.84-3.74,1.49.06,2.98.1,4.46.16.06,0,.12.04.4.16Z"/>
    <path d="M74.36,168.84v4.32c.69.1,1.44.21,2.34.35v3.73h-3.66v-8.24h-4.4l-.04-.6c2.64-.92,5.46.35,8.28-.53,0,1.42.07,2.52-.04,3.6-.04.37-.52.7-.8,1.04-.29-.35-.77-.67-.82-1.05-.12-.88-.04-1.79-.04-2.69-.27.02-.55.04-.82.07Z"/>
    <path d="M47.9,80.22c-.05.97-.09,1.73-.13,2.61h-11.77v-2.61h11.9Z"/>
    <path d="M32.2,259.76c.62,1.68.05,2.1-1.34,2.09-4.52-.05-9.04-.02-13.75-.02-.37-1.13-.31-2.07,1.45-2.07,4.52,0,9.05,0,13.64,0Z"/>
    <path d="M13.13,241.67c.67-.35,1.34-1.01,2.02-1.01,5.33-.06,10.67-.02,16,.06.54,0,1.08.49,1.61.75-.53.29-1.07.83-1.6.84-5.91.06-11.81.04-17.72.04-.1-.22-.21-.45-.31-.67Z"/>
    <path d="M36.05,304.83v-2.73h8.96c.04.81.08,1.66.13,2.73h-9.1Z"/>
    <path d="M61.42,298.28v-13.64h3.55c.74,2.34-.79,2.72-3.18,2.74,1.25.72,1.95,1.13,2.94,1.7-1.06.23-1.67.37-2.28.5,0,.19,0,.38,0,.56.48.13.96.26,2,.54-.96.71-1.66,1.24-2.52,1.88.44.39.84.74,1.28,1.13-.47,1.54-.94,3.1-1.41,4.67-.12-.03-.24-.05-.37-.08Z"/>
    <path d="M50,82.57c.04-.78.07-1.46.1-2.27h9.9v2.27h-10.01Z"/>
    <path d="M59.58,118.76v-3.67h6.06c.03.06.18.22.2.39q.36,3.27-2.97,3.29c-1.03,0-2.05,0-3.29,0Z"/>
    <path d="M78.45,213.12h-8.13c-.01.31-.02.62-.03.92h7.66c-.01.23-.02.46-.03.69h-9.05v-3.9h9.96c0,.17.01.34.02.51h-8.44c0,.25-.01.51-.02.76h8.07c0,.34,0,.68,0,1.02Z"/>
    <path d="M17.59,275.99c.55-.33,1.1-.92,1.66-.94,4.16-.09,8.33-.09,12.49-.06.37,0,.74.46,1.11.7-.37.32-.74.92-1.11.93-4.61.06-9.22.04-13.83.04-.11-.23-.21-.45-.32-.68Z"/>
    <path d="M77.71,68.34c1.15.79,2.15,1.48,3.38,2.32-1.89,1.06-3.47,1.34-5.29.48-.54-.25-1.38.24-2.09.26-1.19.03-2.39-.06-3.58-.09l.06-.48c-.35.25-.69.5-1.04.75-.23-.44-.46-.88-.89-1.68h8.75c.25-.57.46-1.04.69-1.56Z"/>
    <path d="M79.73,72.53c-.05.62-.1,1.17-.15,1.8h-5.45c-.02.18-.04.36-.06.55.84.07,1.68.18,2.52.18.96,0,1.91-.09,2.9.24-2.06.27-4.13.53-6.3.81-.06-.69-.13-1.41-.21-2.29h5.75c0-.17,0-.33.01-.5-1.67,0-3.35-.16-4.99.05-1.53.19-3.02.77-4.77,1.25v-2.08h10.74Z"/>
    <path d="M55.49,238.51c.16,2.79.33,5.58.5,8.51h-2.57c.54-2.91-.87-6.01,1.11-8.58.32.02.64.05.96.07Z"/>
    <path d="M32.72,159.68c-.71-3-3.76-3.99-5.36-6.39h5.36v6.39Z"/>
    <path d="M73.04,87.21c-1.6,0-3.15.15-4.67-.04-1.91-.24-.74-1.58-.83-2.64h5.5v2.68Z"/>
    <path d="M92.91,148.17c1.11,1.07,2.05,1.97,2.99,2.87l-.44.5c-.92-.48-1.84-.96-2.76-1.44-.1.12-.19.24-.29.36.7.66,1.4,1.32,2.44,2.3-.61.45-1.2.89-1.95,1.45-.89-.92-2.61-1.96-2.51-2.76.16-1.18,1.61-2.19,2.51-3.27Z"/>
    <path d="M42.46,289.5c.49-.1.99-.29,1.48-.3,3.56-.04,7.12-.06,10.68-.04.35,0,.69.3,1.04.47-.28.25-.55.73-.83.73-3.95.04-7.9.02-11.84-.01-.15,0-.3-.19-.44-.29-.03-.19-.06-.37-.09-.56Z"/>
    <path d="M82.67,118.63c-1.5-.82-1.85-3.76-1.28-9.07.5-.03,1.03-.07,1.74-.12-.16,3.14-.31,6.1-.46,9.19Z"/>
    <path d="M32.81,219.42c-.04.61-.08,1.24-.12,1.9h-7.16c.54-2.35,3.34-3.06,7.28-1.9Z"/>
    <path d="M36.19,307.79c2.71,0,5.42-.02,8.13.03.31,0,.6.45.9.69-.27.29-.54.81-.82.82-2.52.09-5.05.13-7.57.06-.37-.01-.72-.68-1.08-1.05.14-.18.29-.37.43-.55Z"/>
    <path d="M40.53,311.33c-1.23,0-2.47.05-3.7-.04-.3-.02-.57-.49-.86-.75.28-.26.56-.75.85-.76,2.4-.06,4.8-.06,7.2.02.33.01.64.55.96.85-.32.23-.62.63-.96.65-1.16.08-2.33.03-3.5.03v-.02Z"/>
    <path d="M40.51,305.54c1.23,0,2.46-.04,3.69.03.29.01.56.36.84.56-.25.24-.5.67-.76.68-2.52.07-5.05.1-7.58.07-.24,0-.47-.46-.71-.71.27-.2.54-.56.82-.58,1.23-.06,2.46-.03,3.69-.03h0Z"/>
    <path d="M49.03,67.82c-1.18.2-2.35.41-3.14.54-.23-.62-.51-1.01-.48-1.38.06-.8.03-1.79.49-2.32.39-.45,1.47-.62,2.11-.44.38.11.52,1.14.7,1.77.15.53.2,1.09.32,1.83Z"/>
    <path d="M81.14,76.18c0-1.07-.11-2.04.04-2.97.09-.58.58-1.1.89-1.64.66.42,1.64.7,1.91,1.3,1.06,2.4.15,3.52-2.84,3.31Z"/>
    <path d="M66.51,69.6c-1.8-2.34-.44-5.18-1.07-7.7l.62-.32c.39.45,1.09.88,1.11,1.35.12,2.17.05,4.35.05,6.52-.24.05-.48.1-.71.15Z"/>
    <path d="M91.23,170.7h2.77c-.39,1.18-.72,2.26-1.11,3.32-.37,1-.81,1.98-1.66,2.93v-6.24Z"/>
    <path d="M5.92,270.64c.4-.37.78-1.03,1.21-1.06,1.85-.12,3.7-.05,5.72-.05.09,1.07.17,1.87-1.24,1.84-1.74-.04-3.48,0-5.22,0l-.47-.72Z"/>
    <path d="M74.39,181.79c-.51-3.27-.35-3.42,3.11-3.01v2.88c-.66.06-1.15.11-1.65.13-.45.02-.9,0-1.46,0Z"/>
    <path d="M23.82,223.26c.55-.23,1.09-.64,1.64-.64,2.13-.03,4.27.04,6.41.13.3.01.58.35.88.54-.24.24-.47.68-.72.68-2.68.05-5.36.03-8.04.03-.05-.25-.11-.5-.16-.75Z"/>
    <path d="M22.26,236.69c1.04-.12,1.98-.24,2.93-.35.23,3.32-.24,3.81-2.93,3.13v-2.78Z"/>
    <path d="M28.78,215.1c.59-2,1.52-3.24,3.88-2.45v2.45h-3.88Z"/>
    <path d="M32.75,114.61v1.84c-1.31,0-2.6.06-3.87-.04-.35-.03-.66-.55-.98-.84.31-.32.59-.89.92-.92,1.22-.11,2.45-.04,3.93-.04Z"/>
    <path d="M32.72,91.58c-.05.87-.08,1.43-.12,2.1h-3.91c-.03-.51-.07-1.05-.13-1.87,1.42-.08,2.72-.15,4.16-.23Z"/>
    <path d="M32.63,147.96c-.98,0-2.01.12-2.99-.05-.42-.07-.74-.75-1.1-1.15.36-.33.69-.89,1.09-.94,2.47-.32,3.34.28,3,2.14Z"/>
    <path d="M18.51,239.61c-.25-3.17.09-3.51,2.7-2.75-.07,2.65-.43,3.05-2.7,2.75Z"/>
    <path d="M27.1,218.1c.65-2.17,2.12-1.45,3.19-1.46.82,0,1.65.44,2.48.69-.8.26-1.59.64-2.41.74-1,.13-2.03.03-3.25.03Z"/>
    <path d="M54.71,309.6c.39-1.4.6-2.89,1.25-4.15.32-.61,1.47-.79,2.24-1.17.13.18.27.36.4.54-1.23,1.64-2.46,3.28-3.69,4.92-.07-.05-.14-.09-.21-.14Z"/>
    <path d="M68.75,178.31c-.12-.35-.33-.69-.34-1.04-.04-1.74-.05-3.48,0-5.22,0-.28.38-.54.59-.81.21.27.59.54.6.81.05,1.92.03,3.84.03,5.75-.29.17-.59.34-.88.5Z"/>
    <path d="M28.43,109.94c.21-.7.22-1.76.67-2.01.62-.34,1.6-.15,2.37.03.19.04.39,1.27.26,1.34-.89.47-1.86.77-2.8,1.12l-.51-.48Z"/>
    <path d="M37.58,179.51h-1.63v-4.29c.61.08,1.14.16,1.63.22v4.07Z"/>
    <path d="M28.24,142.86c.35-1.2,3.68-2.07,4.39-1.18.12.15-.34,1.1-.59,1.13-1.25.12-2.52.06-3.8.06Z"/>
    <path d="M71.52,171.31v5.9c-.18.02-.37.03-.55.05-.09-1.96-.18-3.91-.27-5.87.28-.02.55-.05.83-.07Z"/>
    <path d="M88.05,174.85c.15-1.06.24-2.13.48-3.17.07-.32.58-.8.84-.77.34.04.81.47.9.81.24.96.31,1.96.03,3.16-.3-.55-.59-1.1-1.06-1.96-.64.97-.94,1.42-1.23,1.88,0,0,.05.05.05.05Z"/>
    <path d="M31.97,135.99c.44,2.38.12,2.65-2.55,2.22-.46-2.36-.17-2.62,2.55-2.22Z"/>
    <path d="M84.92,76.29v-3.04c1.13.95,2.03,1.71,3.34,2.81-1.4.1-2.25.16-3.34.24Z"/>
    <path d="M65,265.96c.59.04,1.18.08,1.77.12v8.62c-1.04-2.85.92-6.06-1.77-8.74Z"/>
    <path d="M17.31,239.7c-.83-.1-1.44-.17-2.07-.24.25-.6.42-1.13.69-1.59.27-.46.64-.85.97-1.27.21.45.54.89.61,1.36.08.48-.1.99-.19,1.74Z"/>
    <path d="M12.53,243.61c1.66-.38,2.05.39,1.73,1.85-2.09.22-2.15.16-1.73-1.85Z"/>
    <path d="M26.23,225.98c-.84.81-1.41,1.35-2.12,2.04-.62-.65-1.15-1.22-1.93-2.04h4.04Z"/>
    <path d="M49.38,235.08c-1.92.09-3.09-.22-2.14-2.69.77.96,1.39,1.75,2.14,2.69Z"/>
    <path d="M17.72,266.56c-.38.85-.73,1.63-1.09,2.41-.27-.34-.73-.64-.78-1.01-.15-1.02.06-1.86,1.87-1.4Z"/>
    <path d="M82.18,161.58c-1.54-.09-3.09-.17-4.73-.27v-1.82c.69-.15,1.3-.29,1.85-.42,1.27-3.15-2.02-2.91-3.57-4.53,1.21-.27,2.03-.34,2.73-.66.52-.24,1.27-.87,1.23-1.24-.07-.57-.68-1.12-1.18-1.56-.25-.22-.77-.1-1.12-.24-.32-.13-.83-.45-.8-.61.07-.38.37-.98.63-1.01,3.2-.35,1.93-2.69,2.14-4.56-1.09-.17-2.09-.32-3.07-.48q-.1-1.58,3.21-2.15v-2.86c-1.13-.11-2.23-.21-3.34-.32-.04-.25-.07-.5-.11-.76.95-.26,1.89-.52,2.89-.79.85-3.02.71-3.18-3.93-4.23v28c-1.61.5-2.34.14-2.31-1.76.09-5.59-.51-11.26.17-16.77.79-6.42.99-12.8,1.02-19.23,0-.33.4-.66.61-.99.28.34.77.67.79,1.03.09,1.4.04,2.81.04,4.32,1.43-.3,2.55-.54,3.6-.76.87-1.33-1-3.64,1.87-4.69,0,2.05.08,3.67-.05,5.27-.04.44-.67,1.12-1.11,1.19-1.33.22-2.7.2-4.17.28v3.01c2.3.91,3.51-1.14,5.35-2.29v17.7c.17.14.34.29.52.43,1.98-1.57,3.96-3.13,6.02-4.76v6.59c-.79-.72-1.29-1.46-1.96-1.71-.58-.21-1.36.13-2.3.27,1.4,2.83,6.04,3.49,3.85,8.09-2.09-2.42-4.03-4.67-6.07-7.04,0,3.59-.05,7.16.06,10.73.02.54.8,1.06,1.23,1.6l.03-.02Z" style="fill: #fff;"/>
    <path d="M82.48,144.3v-4.16c1.24-.94,2.1-1.6,2.97-2.26-.84-.66-1.69-1.31-2.71-2.11.33-.82.87-2.16,1.53-3.81,1.22,1.57,2.61,3.16,3.73,4.92.33.53.18,1.76-.23,2.29-1.48,1.91-3.17,3.67-4.78,5.48-.17-.12-.34-.24-.5-.36Z" style="fill: #fff;"/>
    <path d="M82.64,126.25c1.73.62,3.01.63,3.29-1.02.42-2.49-1.79-1.72-3.03-2.56,1.58-.1,3.17-.21,4.92-.33v10.79c-1.87-2.46-4.36-3.8-5.18-6.88Z" style="fill: #fff;"/>
    <path d="M92.64,119.46v-8.53c1.67,2.23-.39,5.56,2.23,7.05.24-.05.49-.1.73-.15v-7.71c.25-.01.5-.03.76-.04.33,3.07.66,6.15,1.01,9.38h-4.73Z" style="fill: #fff;"/>
    <path d="M94.91,125.55c-.69.65-1.24,1.16-1.78,1.67l.07.52c.46-.03,1.07.13,1.34-.11,1.78-1.59,1.86-2.36.62-4.07.1-.13.19-.27.29-.4.77.56,1.53,1.12,2.45,1.79-1.51,1.65-2.84,3.1-4.68,5.12-1-1.27-1.81-2.44-2.77-3.47-.74-.8-.82-1.58.04-2.11.71-.43,1.73-.77,2.49-.61.69.15,1.23,1.03,1.93,1.67Z" style="fill: #fff;"/>
    <path d="M82.15,161.6c1.11-.14,2.22-.27,3.72-.46-1.46-2.08-5.41-2.52-3.13-6.12,2.44,1.23,3.9,3.61,5.92,6.46-2.47.03-4.47.06-6.46.09,0,0-.04.03-.04.03Z" style="fill: #fff;"/>
    <path d="M88.34,111.99v7.49h-2.44c.08-1.89.04-3.82.33-5.69.09-.56,1.1-.98,2.11-1.8Z" style="fill: #fff;"/>
    <path d="M79.28,119.44h-2.56c.42-3.04.82-5.97,1.22-8.9.25,0,.5,0,.75,0,.19,2.88.38,5.75.58,8.89Z" style="fill: #fff;"/>
    <path d="M89.78,134.8c1.36-.78,2.48-1.42,3.93-2.26.23.47.94,1.36.75,1.63-.67.97-1.54,2.13-2.55,2.41-.56.16-1.57-1.28-2.13-1.78Z" style="fill: #fff;"/>
    <path d="M103.16,119.91c-.52-.47-1.19-.78-1.2-1.12-.08-2.82-.05-5.65.25-8.5,1.55,1.15.79,2.8.92,4.21.14,1.6.03,3.23.03,5.42Z" style="fill: #fff;"/>
    <path d="M101.15,119.51h-1.72c-.71-.82.1-5.57,1.39-6.93.12,2.47.22,4.6.32,6.93Z" style="fill: #fff;"/>
    <path d="M98.53,130.77c.37-1.42.59-2.28.82-3.14-.27-.11-.53-.21-.8-.32-.69,1.03-1.31,2.11-2.09,3.07-.32.39-.96.52-1.45.77.14-.49.16-1.07.45-1.44.99-1.27,2.08-2.47,3.17-3.74.75.71,1.44,1.35,2.3,2.15-.7.77-1.41,1.55-2.39,2.64Z" style="fill: #fff;"/>
    <path d="M93.7,159.64c-.64-.08-1.37,0-1.93-.28-.79-.39-1.53-.98-2.15-1.62-.29-.3-.27-.92-.38-1.39.59.01,1.4-.22,1.73.08.93.85,1.66,1.91,2.73,3.21Z" style="fill: #fff;"/>
    <path d="M99.98,132.1c.1.47.2.93.37,1.72,1.52-1.28,2.78-2.35,4.03-3.41.13.11.26.21.39.32-1.14,1.47-2.28,2.94-3.59,4.63-.63-.7-1.31-1.36-1.86-2.11-.58-.8-.28-1.2.69-1.1l-.05-.05Z" style="fill: #fff;"/>
    <path d="M98.99,149.28c.52-.52,1.17-.96,1.52-1.57.75-1.33,1.57-.97,2.51-.36-1.32,2.99-2.25,3.42-4.02,1.91,0,0,0,.02,0,.02Z" style="fill: #fff;"/>
    <path d="M99.68,123.13c.69.78,1.39,1.55,2.28,2.55.64-.83,1.22-1.58,1.8-2.32.39,1.13.1,1.66-2.12,3.65-.84-1.16-1.66-2.31-2.49-3.45.17-.15.35-.29.52-.44Z" style="fill: #fff;"/>
    <path d="M92.22,143.89c-.84.8-1.55,1.49-2.32,2.22-.13-1.38-.27-2.78-.4-4.18.13-.09.25-.17.38-.26.78.74,1.57,1.49,2.34,2.22Z" style="fill: #fff;"/>
    <path d="M95.35,158.12c-.59-.73-1.13-1.41-1.67-2.09.65-.51,1.21-.96,1.82-1.45.74,1.17,1.53,2.3-.15,3.53Z" style="fill: #fff;"/>
    <path d="M100.03,132.15c.44-1.91,1.78-3.24,3.42-3.14-.87,1.49-1.82,2.65-3.47,3.09,0,0,.05.05.05.05Z" style="fill: #fff;"/>
    <path d="M95.2,144c.75-.66,1.49-1.31,2.24-1.97l.63.31c-.28.77-.4,1.69-.91,2.25-.29.32-1.22.06-1.86.06-.03-.22-.07-.43-.1-.65Z" style="fill: #fff;"/>
    <path d="M90.37,128.95l1.35,2.54c-.39.13-1.08.42-1.11.37-.43-.83-.77-1.7-1.14-2.56.3-.12.6-.23.9-.35Z" style="fill: #fff;"/>
    <path d="M57.01,272.09c-2.18-.48-2.37-1.06-1.74-5.58h5.07c0,2.84,0,5.67,0,8.5,0,.58-.22,1.21-.08,1.74.36,1.33.22,2.08-1.42,2.16-2.76.14-3.76-.31-3.87-2.07,1.08-.95,3.21.61,4.25-1.59-1.49-.11-2.53-.1-3.53-.3-.34-.07-.57-.67-.86-1.03.34-.18.67-.38,1.02-.54.48-.22.96-.42,1.45-.62-.09-.22-.19-.43-.28-.65Z" style="fill: #fff;"/>
    <path d="M37.17,265.78c-.04-.84-.08-1.47-.11-2.12h10.67c.17-3.02.34-6.09.54-9.16,0-.02.47,0,.86,0v11.28h-11.97Z" style="fill: #fff;"/>
    <path d="M44.41,256.42v5.19c-1.5,0-2.9.09-4.28-.06-.41-.04-.76-.74-1.13-1.15-.03-.04,0-.13,0-.19-.24-4.23.12-4.49,5.42-3.8ZM43.69,258.98c-.98-.67-1.42-1.2-1.85-1.2-.45,0-.9.52-1.35.82.39.43.72,1.06,1.2,1.23.36.12.92-.36,2-.85Z" style="fill: #fff;"/>
    <path d="M62.11,276.35c.23.67.52,1.33.64,2.01.02.13-.62.38-.96.58l-.73-2.18c.35-.14.7-.27,1.06-.41Z" style="fill: #fff;"/>
    <path d="M27.47,306.77c-2.4.62-3.8.23-5.03-1.15-1.29-1.45-2.78-2.73-4.11-4.15-1.48-1.56-1.65-3.48-.61-5.22.96-1.59,2-3.43,4.69-3.14-1.32,1.56-2.51,2.98-3.72,4.39-.95,1.11-.92,2.05.36,2.89,1.9,1.25,3.8,2.49,5.63,3.82.89.65,1.64,1.49,2.79,2.55Z" style="fill: #fff;"/>
    <path d="M19.34,307.05c-1.77.26-3.24.25-4.46-1.43-1.21-1.67-2.78-3.09-4.19-4.61,1.98-2.37,5.65,1.88,8.65,6.05Z" style="fill: #fff;"/>
    <path d="M11.2,299.64c.56-2.86,2.05-4.84,4.25-6.56.77,2.24-1.12,5.08-4.25,6.56Z" style="fill: #fff;"/>
    <path d="M30.04,306.81c-1.7-1.53-3-2.7-4.3-3.87l.21-.32c.37.14.74.29.8.31,1.09-.78,2-1.43,3.29-2.35v6.22Z" style="fill: #fff;"/>
    <path d="M25.87,294.87q-2.94,3.4-.74,7.02c-1.16-1.03-3.05-1.76-2.23-3.81.49-1.22.48-3.17,2.97-3.21Z" style="fill: #fff;"/>
    <path d="M43.42,238.54c-.89.61-1.72,1.19-2.55,1.76-.07-.07-.14-.13-.2-.2.85-.98,1.65-2,2.58-2.9.24-.23,1.04-.26,1.31-.04,1.45,1.19,2.87,2.44,4.18,3.79.35.36.28,1.14.4,1.73-.65-.07-1.51.1-1.91-.25-1.31-1.15-2.45-2.48-3.8-3.9Z" style="fill: #fff;"/>
    <path d="M38.43,238.63c-.15-3.01,1.96-4.68,4.01-6.39.68,3.31-2.77,4.18-4.01,6.39Z" style="fill: #fff;"/>
    <path d="M43.35,178.93v-9.98c.52-.07,1.13-.15,1.97-.25v7.91h10.01v-6.99c1.35-.55,2.07-.41,2.05,1.15-.03,2.27.06,4.55-.05,6.81-.02.47-.72,1.28-1.13,1.29-4.2.1-8.41.06-12.85.06Z" style="fill: #fff;"/>
    <path d="M51.95,200.32v10.52h-11c0-3.55-.04-7.09.06-10.63,0-.37.77-.99,1.22-1.03,1.15-.09,2.34,0,3.49.16,2.04.27,4.06.64,6.24.99ZM44.92,206.55h3.74v-2.88h-3.74v2.88Z" style="fill: #fff;"/>
    <path d="M15.12,124.12h-2.11v-3.2c.7-.04,1.32-.07,2.11-.12v3.32Z" style="fill: #fff;"/>
    <path d="M15.2,135.6c-2.53,0-2.56-.04-2.25-2.93,2.61-.57,2.93-.17,2.25,2.93Z" style="fill: #fff;"/>
    <path d="M89.18,88.96c-2.75,0-5.33.04-7.91-.05-.37-.01-.99-.64-1.02-1.03-.12-1.54-.05-3.1-.05-4.9,2.88,0,5.52-.03,8.15.05.29,0,.77.66.79,1.04.09,1.47.04,2.96.04,4.88ZM81.54,87.07h5.85v-2.25h-5.74c-.04.76-.07,1.4-.11,2.25Z" style="fill: #fff;"/>
    <path d="M16.31,67.17c.69-.43,1.34-.84,1.98-1.24.15.18.3.35.44.53-.42.19-.84.37-1.26.56.05.16.11.33.16.49,1.5.25,3,.55,4.5.72.37.04,1.11-.28,1.15-.52.33-2.27,1.36-.62,2.26-.52-1.23,1.33-2.38,2.52-3.46,3.76-.85.98-1.57.65-2.29-.09-1.08-1.11-2.13-2.25-3.48-3.69Z" style="fill: #fff;"/>
    <path d="M18.23,65.71q2.6-3.15,5.61,0h-5.61Z" style="fill: #fff;"/>
    <path d="M27.34,67.43c-2.19-2.02-4.46-4.11-6.72-6.2,2.95,1.08,7.06,5.26,6.72,6.2Z" style="fill: #fff;"/>
    <path d="M52.57,303.77c.12,1.88.24,3.77.37,5.76-1.31-1.46-1.41-3.8-.33-5.7,0,0-.04-.06-.04-.06Z" style="fill: #fff;"/>
    <path d="M78.76,208.46c-.23-.24-.75-.55-.73-.81.17-1.81-.73-3.99,1.44-5.02-.21,1.74-.44,3.6-.71,5.82Z" style="fill: #fff;"/>
    <path d="M28.17,231.66c.3-.15.96-.49,1.61-.82.16.23.33.47.49.7-.75.69-1.61,2.04-2.24,1.94-1.24-.2-2.35-1.2-3.52-1.88l.33-.81c1.01.26,2.02.52,3.33.86Z" style="fill: #fff;"/>
    <path d="M22.79,230.89c1.02.94,1.94,1.78,3.2,2.94-1.68-.04-3.19,1.04-3.54-1.35-.8.46-1.5.86-2.21,1.26-.07-.08-.14-.16-.21-.23.83-.79,1.65-1.57,2.75-2.62Z" style="fill: #fff;"/>
    <path d="M70.55,217.66h4.87c.13.16.25.33.38.49-.46.42-1.11,1.28-1.36,1.18-1.24-.5-3.49,1.31-3.89-1.68Z" style="fill: #fff;"/>
    <path d="M56.36,73.85c.62-.05,1.24-.09,2.61-.2-.72,1.15-1.17,1.85-1.61,2.56-.52-.56-1.03-1.12-1.55-1.69.18-.23.37-.45.55-.68Z" style="fill: #fff;"/>
    <path d="M22.75,243.44c2.48,3.65,6.28,1.59,9.34,2.56,0,.22-.02.43-.03.65-.96,0-1.92,0-2.89,0-1.49,0-2.98,0-4.46-.04-1.54-.05-2.23-.99-1.96-3.16Z" style="fill: #fff;"/>
    <path d="M43.69,258.98c-1.07.49-1.64.97-2,.85-.48-.17-.81-.8-1.2-1.23.45-.29.9-.81,1.35-.82.43,0,.87.53,1.85,1.2Z"/>
    <path d="M44.92,206.55v-2.88h3.74v2.88h-3.74Z"/>
    <path d="M81.54,87.07c.04-.85.07-1.48.11-2.25h5.74v2.25h-5.85Z"/>
  </g>
  <ellipse cx="18.23" cy="24.4" rx="17.1" ry="24.4"/>
  <ellipse cx="51.52" cy="26.55" rx="10.92" ry="15.15"/>
  <ellipse cx="74.49" cy="37.52" rx="9.48" ry="12.74"/>
  <ellipse cx="93.79" cy="55.42" rx="8" ry="11.47"/>
  <ellipse cx="110.32" cy="78.46" rx="8.53" ry="11.47"/>
</svg>