<?xml version="1.0" encoding="UTF-8"?>
<svg id="Ebene_1" xmlns="http://www.w3.org/2000/svg" viewBox="0 0 119.16 316.75">
  <g>
    <path d="M33.61,87h21.5v5.9h-18.48v44.37h4.52v-39.49h42.4v4.86h-33.27v15.1h11.89v21.78h-5.62v-15.11h-6.31v15.32h-16.62v-52.72Z"/>
    <path d="M20.96,157.63c2.83,2.5,5.51,4.87,7.8,6.9,3.58-3.08,7.07-6.08,10.62-9.14,3.06,2.89,6.5,6.14,9.75,9.2,2.51-2.33,4.87-4.44,7.13-6.66,3.23-3.19,3.2-3.23,6.5-.24,1.62,1.48,3.21,3,4.89,4.56,3.03-3.23,5.98-6.38,8.94-9.53.19.06.37.12.56.18.22,1.7.45,3.4.67,5.1.16-.01.33-.03.49-.04v-10.03c-.64-.05-1.32-.14-2-.14-18.81,0-37.63-.01-56.44.1-2.15.01-3.46-.35-3.77-2.65-.11-.81-.49-1.57-.79-2.5h68.19v28.82c-1.83,0-3.76,0-5.69,0-15.1-.03-30.19-.05-45.29-.08-1.11,0-2.21-.02-3.32.02q-3.67.15-4.7-3.79h54.38c.41-3.74-.8-6.35-4.31-7.9-.75,1.28-1.52,2.59-2.54,4.32h5.46c.35,1.65-.44,1.79-1.49,1.78-13.34-.05-26.69-.08-40.03-.1-3.71,0-7.42-.03-11.13.03-1.27.02-1.82-.47-2.09-1.71-.46-2.08-1.11-4.11-1.78-6.51ZM56.26,163.9c2.35.11,4.16.2,6.48.31-1.12-2.09-2-3.75-3.09-5.78-1.18,1.9-2.16,3.49-3.39,5.48ZM42.49,163.97c-1.13-2.07-2.03-3.74-3.18-5.86-.93,2.24-1.66,3.98-2.44,5.86h5.62Z"/>
    <path d="M89.16,246.14v9.69c1.11-1.1,2.24-2.08,3.2-3.2,1.8-2.1,4.18-1.54,6.16-.95,1.43.43,2.27,2.17,2.03,4-.14,1.05-.28,2.13-.18,3.17.1.96.3,2.05.84,2.8,1.65,2.25,3.74,3.6,6.79,3.11,1.82-.29,3.72-.05,5.89-.05-.73-1.86-1.37-2.35-2.96-1.92-1.53.42-3.23.27-4.84.21-.35-.01-.67-.7-1.01-1.08.35-.28.68-.77,1.06-.81,1.4-.16,2.83-.18,4.37-.25-.27-1.54-.88-2.14-2.27-1.5-1.23.57-2.47,1.14-3.69,1.72-1.13.53-2.91-.68-3.02-2.34-.16-2.37-.04-4.77-.04-7.38,1.23,0,2.13,0,3.03,0,4.22-.01,4.2-.01,4.62,4.2.06.58.38,1.14,1.05,1.64v-7.38c2.12,2.33,4.07,7.25,3.48,8.53.5.38,1,.76,1.58,1.2-.64.42-1.18.78-1.99,1.32,1.17.98,2.32,1.67,3.08,2.66.7.92.98,2.15,1.52,3.44h-31.2v-41.24c2.2,0,4.4-.07,6.59.06.42.03,1.11.84,1.12,1.3.09,3.96.05,7.92.05,11.88l-.72-.25c-.87.6-1.73,1.2-2.9,2.01v-13.48c-.2-.1-.4-.19-.6-.29-.3.44-.85.87-.86,1.31-.14,4.16-.21,8.33-.2,12.49,0,.43.65,1.17,1.06,1.22,1.39.15,2.82.06,4.44.06v-16.45c.91.12,1.57.21,1.86.25,0,3.14,0,6.02,0,8.89.01,2.73.06,5.47.06,8.2,0,2.64,0,2.63-2.75,2.6-1.03,0-2.4-.45-2.15,1.81,2.25-.27,4.48-.54,7.07-.85,0-.71.04-1.52,0-2.32-.22-3.61-.5-7.23-.64-10.84-.02-.63.53-1.28.9-2.11-.21-.46-.53-1.17-.85-1.87.14-.08.28-.16.42-.24.96,1.59,1.93,3.19,2.89,4.78-.25-.02-.5-.03-.74-.05-.32.81-.86,1.61-.91,2.44-.18,2.98-.24,5.98-.24,8.97,0,.45.54.9.84,1.36.33-.45.93-.89.94-1.35.09-2.97.04-5.95.35-9.04,2.63,1.45,3.08,4.42,4.8,6.43,2.2,2.59-.54,5.22.38,7.81h-17.16v-4.32c-.18,0-.35,0-.53,0ZM88.9,261.04c2.44,0,4.65.06,6.84-.04.52-.02,1.36-.5,1.47-.92.29-1.11.53-2.35.3-3.44-.23-1.12-1.04-2.12-1.59-3.17-.84.65-1.68,1.29-2.5,1.95-.05.04.02.22.06.52,1.82-.1,3.44.2,2.61,2.97-2.24-.16-4.55-.33-6.97-.5-.08.88-.14,1.65-.23,2.63ZM100.42,264.86c.11-.15.21-.3.32-.45-.67-.49-1.32-1.37-2-1.39-2.78-.08-5.57.12-8.36.17-1.24.02-1.82.44-1.45,1.67h11.49ZM107.69,256.67c-1.08-.9-1.97-1.65-2.87-2.39-.31.96-.64,1.92-.92,2.89-.11.39-.13.81-.24,1.57,1.42-.73,2.53-1.3,4.03-2.06Z"/>
    <path d="M78.91,286.99v-11.28h-15.43v11.46c-2.94-.43-5.62-.83-8.5-1.25v-40.05h28.77v4.79h-24v17.48h23.87v2.31h-24.04v13.2c.21.04.42.07.63.11.3-1.69.65-3.38.9-5.08.27-1.79.46-3.6.7-5.54h21.77v13.86h-4.66Z"/>
    <path d="M85.47,122.52h11.17c-1.92-2.2-3.54-4.06-5.31-6.08-1.74,1.1-3.57,2.26-5.44,3.44-1.14-3.26-.7-4.34,2.04-5.86,2.95-1.64,5.9-3.29,8.74-5.12.71-.46,1.36-1.58,1.4-2.42.15-3.63.06-7.27.06-11.02h15.39c-1.23,1.44-2.21,2.6-3.23,3.79,1.98,2.11,3.88,4.06,5.66,6.1.49.56.98,1.51.85,2.16-1.19,6.05-2.49,12.07-3.86,18.08-.11.49-.93,1.16-1.42,1.16-8.64.07-17.28.05-26.06.05v-4.28ZM107.79,122.37v-9.6c-3.32.84-4.96-1.88-7.18-3.46-2.39,1.81-4.74,3.58-7.11,5.38q4,4.2,7.99,1.82c.42,2.01.81,3.92,1.21,5.86h5.09ZM102.23,108.09c2.89.36,5.63.69,8.49,1.05v13.22h2.08c0-5.35.03-10.53-.04-15.72,0-.58-.61-1.64-.97-1.66-3.08-.13-6.16-.08-9.25-.08-.11,1.12-.18,1.95-.3,3.19ZM102.09,101.76h6.45v-3.04c-2.16.13-4.28.26-6.45.4v2.64Z"/>
    <path d="M83.61,80.82v5.58h-18.14c-.15-.8-.29-1.54-.44-2.36h-3.75v6.75h22.29v4.21c-.49.06-.99.17-1.48.17-7.22-.02-14.45-.08-21.67-.05-1.34,0-1.66-.52-1.63-1.73.06-2.98.02-5.97.02-9.33h-29.71v10.54h-7.05c0-1.58.44-3.39-.09-4.86-1.34-3.72,1.01-5.81,3.06-8.07.48-.53,1.39-.97,2.11-.97,17.37,0,34.75.07,52.12.12,1.41,0,2.83,0,4.36,0ZM26.58,91.21c.45-4.41.36-4.59-2.1-4.17v4.17h2.1Z"/>
    <path d="M25.68,121.35c.44-1.54-.07-1.97-1.38-1.96-4.61.05-9.22.02-13.97.02v-3.27h14.8c.76-2,.14-2.46-1.44-2.41-3.77.11-7.55.12-11.32.16-.63,0-1.27,0-1.9,0q.12-3.46,3.22-3.47c3.89,0,7.77,0,11.75,0v-2.4h-13.84q.32-3.5,3.37-3.49c3.78,0,7.55-.02,11.33,0,1.19,0,1.96-.23,1.45-1.87h-14.9c.75-1.92,1.34-3.54,2.03-5.1.14-.32.67-.65,1.03-.65,4.28-.04,8.57-.03,13.03-.03.05.71.13,1.34.13,1.96.02,8.46.03,16.92.02,25.39,0,.77.34,1.86-1.03,1.87-5.72.02-11.43,0-17.42,0-.14-1.45-.28-3.02-.44-4.76h15.49Z"/>
    <path d="M59.47,62.77c1.59,0,2.88,0,4.17,0,13.21-.07,26.42-.19,39.63-.15,1.13,0,2.25,1.12,3.38,1.72-.07.2-.15.41-.22.61h-6.61c0,2.51-.05,4.83.05,7.14.02.36.71.95,1.13.98,2.07.14,4.16.21,6.23.11.4-.02,1.03-.91,1.07-1.44.14-1.58.05-3.19.05-4.79.23-.09.46-.18.69-.27,1.7,3.13,3.4,6.26,5.3,9.76h-37.23v-10.13h-17.47c-.06-1.22-.11-2.22-.17-3.56ZM97.73,75.28c0-3.05.05-6.02-.07-8.98-.01-.35-.94-.66-1.82-1.23,0,2.24-.12,3.8.03,5.33.18,1.88-.49,2.52-2.38,2.44-3.03-.13-6.06-.04-9.1-.04-.16.2-.31.4-.47.6.46.63.9,1.78,1.38,1.8,4.01.15,8.03.08,12.42.08ZM85.24,64.97v5.68h7.47v-5.68h-7.47Z"/>
    <path d="M103.26,272.41c0,1.23-.05,2.13.01,3.03.1,1.56-.49,2.26-2.13,2.09-1.05-.11-2.04.08-1.5,1.63,1.06.09,2.07.18,3.04.26v8.01c-4.02,0-7.84,0-11.67,0-1.24,0-2.48.08-3.71.01-.4-.02-.79-.4-1.18-.61.4-.21.8-.6,1.2-.61,3.71-.07,7.42-.08,11.13-.11.45,0,.89,0,1.47,0-.11-1.84-.21-3.56-.31-5.27-.04,0-.09,0-.13,0v3.49h-13.23v-14.58h25.58v6.65c1.59.09,3.05.21,4.51.24.3,0,.88-.34.88-.53.07-1.99.04-3.99.04-5.98-.28,0-.56,0-.84.01v5.38h-3.16v-6.18c1.23,0,2.56-.07,3.89.04.37.03.94.55,1,.91.4,2.6.68,5.22,1.03,8.01h-10.27v-7.96c-.29,0-.58-.02-.86-.03-.24,3.48-.49,6.97-.75,10.69h10.6c.28,2,.27,2.04-1.31,2.07-1.37.03-2.75.09-4.1-.07-2.7-.31-4.35,1.49-6.33,2.63.04.17.07.34.11.51h11.56c-.65.7-.91,1.22-1.17,1.23-4.14.05-8.29.04-12.4.04.33-5.42.65-10.66.99-16.34-2.05,0-3.91-.03-5.76.03-.25,0-.48.45-.72.69.27.21.53.6.81.61,1.16.07,2.32.03,3.68.03ZM88.88,272.54v9.74c2.14,0,4.15.05,6.15-.04.39-.02,1.07-.61,1.08-.95.09-2.91.05-5.82.05-8.75h-7.28Z"/>
    <path d="M83.36,173.84v3.58h-4.57v21.38h-3.68v-8.86h-12.44v6.09c1.39.12,2.73.23,4.24.36.08.84.16,1.65.26,2.72h-7.06v-11.79c4.57,0,8.85.04,13.13-.03.85-.01,1.7-.45,2.55-.69-.88-.26-1.75-.72-2.63-.74-3.97-.08-7.95.12-11.91-.08-2.18-.11-2.83.65-2.79,2.69.05,2.86-.1,5.72-.17,8.59-.02.63-.07,1.27-.11,2h-3.68v-25.27h3.63v9.56h17.85v-9.5h7.35Z"/>
    <path d="M78.36,111.97h-25.27v-4.97h30.49v32.3h-5.22v-27.33Z"/>
    <path d="M67.49,157.76c-2.65-2.04-5.06-3.89-7.69-5.92-1.95,1.52-4.03,2.96-5.87,4.64-1.13,1.03-1.82.9-2.73-.31,1.49-1.16,2.96-2.31,4.8-3.75-2.4-.34-4.26-.86-5.9.93-1.4,1.53-2.95,2.93-4.6,4.55-2.12-1.93-4.26-3.88-7.08-6.45-1.21,1.53-2.27,3.02-3.48,4.38-1.45,1.62-1.51,1.57-3.7.36,1.42-1.23,2.78-2.41,4.26-3.7-3.49-1.01-4.66-.35-9.87,5.33-5.63-3.04-6.83-4.25-7.45-7.65,4.7,0,9.36,0,14.02,0,14.38.01,28.75.02,43.13.06.79,0,2.02-.5,1.97,1.07-.04,1.28-.99,1.43-1.95,1.27-1.71-.29-2.93.28-4.06,1.62-1.11,1.32-2.52,2.4-3.79,3.57ZM28.21,152.73h-5.83c-.12.2-.25.41-.37.61,1.09.84,2.18,1.69,3.42,2.64.8-.93,1.65-1.92,2.79-3.25ZM43.63,152.09c-.13.25-.25.5-.38.75.75,1.08,1.49,2.16,2.62,3.8.63-1.56,1.05-2.61,1.47-3.66-1.24-.3-2.48-.6-3.71-.9ZM67.34,156.62c.86-1.45,1.52-2.55,2.39-4.01h-4.81c.83,1.38,1.51,2.5,2.42,4.01Z"/>
    <path d="M83.64,265.99h-21.58c-.29-4.47-.58-8.88-.88-13.51.72-.04,1.73-.1,2.96-.17v12.19c1.61-.8,2.97-1.37,4.19-2.16.38-.25.51-1.12.5-1.7-.07-2.71-.22-5.42-.35-8.18h15.17v13.53ZM73.11,261.18h6.44v-6.03c-2.29.18-4.39.34-6.69.52.09,1.88.17,3.66.25,5.51Z"/>
    <path d="M67.77,223.53v-15.5c-1.7,0-3.3,0-4.89,0-2.15,0-4.3.05-6.44-.09-.58-.04-1.13-.65-1.69-.99.56-.25,1.13-.71,1.69-.71,3.06.02,6.11.16,9.17.23.73.02,1.46-.11,2.19-.17,0-.28.01-.56.02-.84-4.29-.23-8.57-.46-13.03-.7v-3.44h28.73v4.82h-13.86c0,2.01,0,3.8,0,5.6-.02,3.51-.06,7.02-.06,10.54,0,1.14-.31,1.8-1.83,1.26Z"/>
    <path d="M100.59,141.44v-12.77h10.89c.02.21.04.42.06.64-2.87.8-6.29-.4-8.98,1.07.09.37.18.73.27,1.1h7.23c-.23,1.57-.95,2.27-2.51,1.96-.57-.11-1.18-.13-1.75-.03-.36.06-.66.43-.99.66.33.3.61.76.99.86.72.19,1.5.17,2.54.26-.93,1.65-.88,3.56-3.22,3.77-.56.05-1.02,1.08-1.79,1.97-.15-2.76-.28-5.21-.41-7.67-.09,0-.17,0-.26,0v9.42h-4.1v-12.57h-10.84c-.07.22-.14.44-.21.66.57.22,1.13.63,1.7.64,2.65.07,5.31.03,8.16.03v12.74c1.78.1,3.38.18,5.46.3-1.64,2.44-4.24,3.06-5.92,4.62-.64-.5-1.1-.86-1.55-1.21-.26.44-.51.89-.79,1.31-.24.37-.52.72-.89,1.23-1.22-3.33-.71-8.8.79-9.16.2,1.6.4,3.19.65,4.77,0,.05.59,0,.96,0v-12.66c-1.14,0-2.23.14-3.27-.03-2.22-.37-4.49-.69-6.56-1.5-.65-.26-.73-1.99-1.19-3.42,4.94,0,9.28-.04,13.62.07.38.01,1.02,1.05,1.04,1.63.12,3.18.08,6.37.12,9.56,0,.59.1,1.18.15,1.78.2,0,.4-.01.61-.02Z"/>
    <path d="M10.84,127.79h18.11v12.16h-6.41v-6.63c1.74-.11,3.5-.23,5.26-.34v-.5h-6.84v7.25h-5.44v-6.24c1.14-.14,2.16-.26,3.17-.38l-.03-.62h-4.28v5.88c-.19.02-.38.04-.58.06-.96-3.45-1.93-6.9-2.97-10.64Z"/>
    <path d="M62.68,290.94h14.78v13.47c-2.48,0-4.94.06-7.39-.06-.39-.02-1.04-.86-1.06-1.35-.1-2.65-.05-5.31-.05-8.2h6.32c.06-.17.13-.34.19-.51-.33-.23-.66-.64-1-.65-1.82-.08-3.64-.04-5.46-.07-1.45-.02-1.24,1.08-1.26,1.93-.14,5.14-.24,10.27-.35,15.41-.01.63,0,1.26,0,1.9-.2.05-.4.1-.59.15-.25-.76-.7-1.52-.7-2.28-.03-5.07.05-10.14.06-15.22,0-.71-.18-1.41-.28-2.12-.2,0-.4,0-.6,0-.07.52-.19,1.03-.2,1.55-.05,2.08.03,4.17-.14,6.24-.06.76-.67,1.48-1.03,2.22l-.56-.23c.54,2.18,1.08,4.36,1.63,6.53-.29.11-.59.21-.88.32-.48-1.04-1.34-2.07-1.36-3.12-.14-5.25-.06-10.51-.06-15.91ZM70.55,296.36v6.54c1.07-.16,2.02-.31,2.45-.37-.51-1.58-.95-2.97-1.4-4.36,2.17-.68,2.92-.13,2.77,1.68-.07.91.07,1.84.12,2.76.2-.01.39-.03.59-.04v-6.21h-4.53Z"/>
    <path d="M90.62,301.97h19.71c-.94,2.19-1.98,3.51-4.62,3.32-4-.28-8.03-.07-12.19-.07v7.61h6.23c-2.4,2.21-4.02,4.3-7.19,3.86-2.04-.28-4.14-.05-6.37-.05v-14.72h2.75c0,1.32-.01,2.66,0,3.99.04,2.86.05,5.73.17,8.58.02.5.51.97.79,1.45.24-.53.67-1.05.68-1.58.06-4.09.03-8.18.03-12.41Z"/>
    <path d="M54.87,243.53v-4.9h28.86v4.9h-28.86Z"/>
    <path d="M64.72,214.73v8.06c.18,0,.36-.02.55-.02v-10.32c-3.18-.16-6.5-.32-9.81-.48l-.06.52c.83.08,1.68.07,2.49.27.44.11.8.58,1.19.88-.39.39-.73,1.03-1.18,1.11-.93.17-1.91.05-2.99.05v-6.15c3.75.33,7.47.63,11.18,1.06.36.04.9.9.89,1.36-.15,4.13-.41,8.27-.64,12.57h-11.33v-8.35c3.09-.17,6.17-.35,9.73-.55ZM63.35,216.58h-5.19v3.25h5.03c.06-1.2.1-2.22.15-3.25Z"/>
    <path d="M73.11,117.95v21.47h-5.25v-21.47h5.25Z"/>
    <path d="M48.56,196.6v-13.75h2.99v14.28c-5.33-.5-10.67.32-16.16-.35.25-.54.3-.74.35-.74,3.02-.08,5.78-1.85,8.92-1.39.42.06,1.36-.73,1.38-1.15.12-2.91.06-5.82.06-9-4.69,0-9.09,0-13.49,0-1.16,0-2.27,0-2.3-1.87,2.72,0,5.42,0,8.11,0,1.56,0,3.12,0,4.68.01q4.3.01,4.28,4.41c0,2.6.02,5.2.07,7.81.01.6.15,1.19.24,1.78.28-.02.57-.04.85-.06Z"/>
    <path d="M106.74,298.67c.07-3.21-1.69-4.75-4.06-3.64,1.02.97,2.02,1.92,3.02,2.87-.08.25-.16.51-.25.76-1.52,0-3.04,0-4.56,0-2.6-.02-5.2-.14-7.8-.05-1.66.06-2.73-.33-2.89-2.18-.05-.54-.35-1.06-.99-1.57,0,1.03-.08,2.07.02,3.1.21,2.38.24,2.37-2.08,2.31-.26,0-.52-.04-.93-.07v-6.19h25.34c.52.98.85,1.54,1.12,2.12.22.47.63,1.11.48,1.44-.22.47-.87,1-1.38,1.04-1.67.13-3.36.05-5.05.05ZM100.15,297.6c-.56-1.69-.67-3.32-2.76-2.95-.3.05-.49.75-.72,1.14,1.06.55,2.11,1.1,3.49,1.81Z"/>
    <path d="M91.73,105.57v-25.15h4.15c0,.67,0,1.36,0,2.04-.02,6.83-.03,13.66-.05,20.49q0,2.84-2.89,2.73c-.37-.01-.75-.07-1.21-.11Z"/>
    <path d="M58.16,61.36v14.89h-1.76v-16.9c2.79,0,5.38,0,7.97,0,11.06.05,22.12.05,33.18.2,1.57.02,3.12.74,4.69,1.13-.05.23-.09.45-.14.68h-43.94Z"/>
    <path d="M77.09,233.95v-7.42h-7.18c0-.23.02-.45.03-.68h13.45q.07.6-4.74,1.68c-.15,3.06-.31,6.15-.47,9.34h-23.21v-2.92h22.12Z"/>
    <path d="M45.17,222.76c.22.8.2,1.95.72,2.33.69.5,1.82.39,2.81.54.49-1.37.05-3.43,2.61-2.66.31,18.5.62,37.06.93,55.62-.23.02-.45.05-.68.07-.21-1.48-.58-2.96-.59-4.44-.05-9.03-.03-18.06-.01-27.1,0-1.67-.03-3.2-.83-4.86-1.18-2.43-1.89-5.13-2.42-7.79-.19-.94.69-2.11,1.11-3.16.26-.66.73-1.26.86-1.94.41-2.05,0-2.53-2.09-2.65-2.28-.14-2.54-.48-2.92-3.75.17-.07.34-.14.5-.21Z"/>
    <path d="M68.92,311.85c1.19.27,2.23.66,3.27.7,2.79.09,5.59-.02,8.38.05,1.45.04,1.9-.51,1.88-1.94-.06-6.5-.03-12.99-.03-20.09.66.5,1.55.86,1.55,1.23.08,8.18.06,16.36.06,24.73-3.93,0-7.48.13-11.02-.05-1.87-.1-4.39-3.34-4.11-4.63Z"/>
    <path d="M41.7,207.35c-.38,1-.7,1.87-1.21,3.21,2.51.14,4.9.27,7.44.41-.15.31-.23.69-.34.7-2.13.1-4.27.19-6.4.18-.28,0-.69-.55-.83-.92-.96-2.68-1.87-5.38-2.97-8.6,4.83.24,9.36.47,13.89.69,0,.17.01.35.02.52h-11.36c0,.22,0,.43-.01.65h11.14c0,.2,0,.4,0,.6h-11.33c.08.99.13,1.63.15,1.96,1.15-.28,2.1-.68,3.05-.71,2.84-.09,5.68-.03,8.61-.03v9.48h-8.9c-.08-.93-.17-1.86-.27-2.95h5.3c.13.72.28,1.5.42,2.27.13,0,.26-.02.39-.03v-5.67c-.65-.11-1.4-.23-2.15-.36,0-.18.02-.37.03-.55,1.02-.07,2.04-.14,3.38-.23v6.8c.19,0,.39,0,.58,0v-7.4h-8.65Z"/>
    <path d="M117.49,92.62h-7.88c-.28-4.09-.56-8.08-.85-12.31,1.97,0,3.77-.07,5.57.03,1.07.05,2.09,3.1,1.19,3.85-1.48,1.22-.43,2.11.02,3.2.68,1.62,1.23,3.29,1.95,5.24Z"/>
    <path d="M62.56,76.35h-2.52v-8.43h15.35v8.4h-2.69v-4.83h-10.15v4.86Z"/>
    <path d="M83.71,212c0,3.66.04,7.09-.05,10.51,0,.38-.74,1.04-1.16,1.05-2.33.08-4.67.01-7,0-1.08,0-1.65-.35-1.56-1.62.21-2.84.22-5.7.47-8.54.04-.5.82-1.31,1.3-1.34,2.58-.13,5.17-.06,8.01-.06ZM76.67,214.4v5.56h5.9v-4.75c-1.9-.26-3.82-.53-5.9-.81Z"/>
    <path d="M41.04,76.37h-10.1c0-.09,0-.19,0-.28h7.21c0-1.55-.02-2.9,0-4.24.03-1.77,1.96-4.2,3.74-4.26,3.95-.14,7.9-.04,11.98-.04v3.38h-12.82v5.45Z"/>
    <path d="M51.58,178.41v3.03c-3.42,0-6.71,0-10,0-3.18,0-6.36,0-9.54,0-2.86.01-2.86.02-3.32-3.04h22.85Z"/>
    <path d="M76.9,287.01h-2.89c0-1.92-.04-3.85.01-5.77.03-1.21-.33-1.8-1.66-1.71-1.47.1-2.96.02-4.69.02v7.38c-.94.04-1.64.08-2.52.12v-9.57h11.75v9.53Z"/>
    <path d="M63.69,57.09c10.82-2.83,21.64-3.32,32.45,0,0,.17,0,.34,0,.51h-32.4c-.02-.17-.04-.35-.05-.52Z"/>
    <path d="M62.22,173.78c.1,1.44.2,2.72.29,4.07h9.81c.1-1.49.19-2.75.29-4.09h1.97v6.99c-1.23,0-2.5,0-3.76,0-3.05,0-6.11-.11-9.15.04-1.64.08-2.05-.76-2.11-2.03-.07-1.61-.02-3.23-.02-4.96h2.67Z"/>
    <path d="M53.84,71.77v4.61h-11.83v-4.61h11.83Z"/>
    <path d="M102.37,92.65h-3.97v-12.24h3.97v12.24Z"/>
    <path d="M79.48,309.65v-18.59c1.28-.42,1.83-.17,1.83,1.15,0,5.79.05,11.57.11,17.36,0,1.07-.51,1.54-1.54,1.54-2.14,0-4.29.05-6.43,0-.33,0-.65-.41-.98-.63.35-.27.68-.76,1.04-.78,1.93-.08,3.87-.04,5.98-.04Z"/>
    <path d="M71.04,223.79v-15.83c4.03,0,7.9-.03,11.77.05.29,0,.82.81.77,1.17-.06.37-.69.89-1.09.91-2.6.16-5.2.26-7.8.26-1.67,0-2.32.67-2.25,2.36.12,3.05.1,6.11.12,9.17,0,.98.05,2.03-1.52,1.91Z"/>
    <path d="M89.6,92.56h-3.82v-12.17h3.82v12.17Z"/>
    <path d="M116.1,290.86c.02,1.1-.4,1.59-1.61,1.59-8.98-.03-17.96.01-26.94-.03-.55,0-1.09-.52-1.64-.79.09-.25.17-.51.26-.76h29.93Z"/>
    <path d="M83.44,185.15v13.43h-2.72v-19.7c.47.46.98.73,1.02,1.05.11.96.07,1.94.02,2.91-.06,1.25,0,2.36,1.68,2.3Z"/>
    <path d="M54.91,229.6h13.06v3.09h-13.06v-3.09Z"/>
    <path d="M35.4,176.53c.07-.98.14-1.86.21-2.83,1.35.18,2.92-.83,3.3.74.57-.29,1.23-.62,2.08-1.05.18,1.18.29,1.91.4,2.64.13.01.26.03.38.04.12-.76.25-1.51.4-2.46,1.5,0,3.02-.19,4.44.09.6.12,1.02,1.2,1.53,1.84-.11.18-.22.36-.34.54h3.69c0,.15-.01.31-.02.46h-16.09Z"/>
    <path d="M89.63,111.43h-3.9v-8.95h3.9v8.95Z"/>
    <path d="M107.97,80.38v8.1c-1.19.13-2.38.25-3.79.4-.17-2.91-.32-5.64-.49-8.5h4.28Z"/>
    <path d="M95.87,223.95c-3.16,0-5.87.03-8.57-.03-.31,0-.6-.49-.91-.75.31-.22.62-.63.95-.64,1.67-.07,3.35-.03,5.03-.03.05-.18.1-.35.15-.53-.56-.24-1.1-.62-1.68-.69-1.16-.13-2.35.03-3.49-.16-.43-.07-.92-.76-1.04-1.25-.06-.24.64-.95,1.01-.97,1.62-.08,3.25-.06,4.87.09.45.04.98.53,1.27.95.76,1.12,1.41,2.32,2.42,4.01Z"/>
    <path d="M73.73,191.65c0,2.31.06,4.38-.06,6.43-.02.34-.84.89-1.3.9-1,0-2.49.64-2.76-.96-.3-1.78-.28-3.62-.28-5.43,0-.31.6-.84.97-.89,1.01-.12,2.04-.04,3.42-.04Z"/>
    <path d="M54.96,225.74h12.92v2.19h-12.92v-2.19Z"/>
    <path d="M45.3,221.37c.06-1.02.13-2.04.19-3.06-.12-.02-.23-.04-.35-.06-.18,1.04-.35,2.07-.53,3.11l-.5.15c-.66-1.42-1.33-2.84-2.26-4.83,3.09,0,5.71-.07,8.32.06.48.02,1.22.79,1.33,1.32.21,1.05.06,2.17.06,3.26q-1.68.01-1.69-3.46c-.26,1.22-.51,2.44-.77,3.67-.2,0-.4-.02-.6-.03-.08-.76-.12-1.53-.24-2.29-.07-.46-.24-.9-.36-1.35-.38.35-.91.62-1.11,1.05-.36.77-.52,1.64-.77,2.46-.24,0-.48,0-.72,0Z"/>
    <path d="M101.04,311.41h-6.07c.2-1.7-.16-3.96.73-4.69.9-.74,3.4-.47,4.53.31.82.57.55,2.7.81,4.38Z"/>
    <path d="M91.17,141.36v8.73c-1.34.49-2.15.09-2.23-1.24-.1-1.56,0-3.12-.03-4.69,0-.38-.12-.96-.38-1.1-.32-.17-.93-.11-1.23.1-.31.21-.39.74-.57,1.13-.21.03-.42.06-.62.08-.22-.95-.44-1.89-.71-3.03h5.77Z"/>
    <path d="M88.24,135.53h7.29c-.18,1.28,0,3.02-.57,3.33-1.3.69-2.97.81-4.5.85-.4,0-.88-1.11-1.22-1.76-.38-.73-.63-1.52-1-2.42Z"/>
    <path d="M90.42,299.72h21.17c-.86.97-18.83,1.21-21.17,0Z"/>
    <path d="M44.64,65.01c1.77-.2,3.53-.4,5.42-.62-.05-2.53,2.04-2.55,3.88-3.27v4.6h-9.23l-.07-.71Z"/>
    <path d="M85.81,161v-8.34c1.4.15,2.67.29,4.54.49-.46,1.12-.72,2.07-1.22,2.88-1.01,1.64-2.14,3.21-3.33,4.97Z"/>
    <path d="M45.48,186.2c0,2.27.06,4.47-.05,6.65-.02.41-.68,1.07-1.12,1.13-1.14.16-2.33.11-3.49.03-.32-.02-.61-.46-.91-.71.25-.24.55-.71.75-.67,2.79.52,2.63-1.44,2.74-3.18.04-.58.13-1.17.06-1.75-.17-1.42.38-1.94,2.03-1.51Z"/>
    <path d="M75.81,228.18v4.42c-1.79,0-3.52.04-5.24-.04-.26-.01-.51-.55-.76-.85.31-.24.6-.66.93-.7.97-.1,1.95.03,2.92-.09.28-.03.51-.57.76-.87-.29-.19-.57-.51-.88-.53-1.02-.07-2.05-.03-3.1-.03.23-1.7.96-1.87,5.36-1.32Z"/>
    <path d="M60.72,305.74c-.12-1.43-.32-2.85-.34-4.28-.05-3.48-.02-6.97-.02-10.45.22-.08.43-.16.65-.24.23.5.66,1,.67,1.5.05,4.46.03,8.93.03,13.39-.33.03-.66.05-.99.08Z"/>
    <path d="M36.62,198.44h15.52c-2.37,1.39-14.58,1.17-15.52,0Z"/>
    <path d="M20.33,88.5v6.13h-4.32c1.35-2.22,2.6-4.28,3.86-6.34.15.07.31.14.46.2Z"/>
    <path d="M85.72,100.29v-3.86h3.76c.79,4.2.47,4.53-3.76,3.86Z"/>
    <path d="M29.15,176.58c-.47-2.93-.21-3.21,2.55-2.67.08.5.16,1.04.24,1.58.09.01.18.03.27.04.16-.56.32-1.11.51-1.78h2c.06.91.11,1.79.17,2.83h-5.74Z"/>
    <path d="M69.62,281.22c1,.05,1.81.09,2.7.13v5.65h-2.7v-5.78Z"/>
    <path d="M77.43,307.68h-8.25c-.53-1.17-.26-1.73,1.05-1.72,2.01,0,4.03.02,6.03-.09,1.37-.08,1.57.52,1.17,1.81Z"/>
    <path d="M55.62,290.9h3.1v3.98c-2.43.25-2.78-.2-3.1-3.98Z"/>
    <path d="M83.59,232.66h-3.33v-3.02h3.33v3.02Z"/>
    <path d="M80.32,234.11h3.29v2.68h-3.29v-2.68Z"/>
    <path d="M105.02,70.1h-3.21v-2.41c3.19-.74,3.43-.57,3.21,2.41Z"/>
    <path d="M86.49,212.43q2.94-.22,3.92,2.65h-3.92v-2.65Z"/>
    <path d="M92.02,217.9c-1.61,0-3.22.05-4.83-.04-.35-.02-.66-.57-.99-.88.33-.23.64-.63.98-.65,1.16-.09,2.35-.17,3.49-.01.57.08,1.07.69,1.6,1.06l-.25.52Z"/>
    <path d="M63.69,191.06h2.98c-.26,1.22-.45,2.3-.75,3.35-.04.14-.96.22-.99.13-.44-1.06-.78-2.15-1.24-3.48Z"/>
    <path d="M66.92,73.08v3.19h-2.18v-3.19h2.18Z"/>
    <path d="M49.28,157.87c.82.86,1.43,1.51,2.11,2.21-.9,1-1.54,2.22-2.99.79-1.49-1.47.18-1.92.88-3Z"/>
    <path d="M26.62,160.1c.95-.78,1.77-1.46,2.66-2.19.54.61.96,1.08,1.36,1.52-1.33,2.42-1.78,2.52-4.01.67Z"/>
    <path d="M117.07,96.75v4.2c-.76-.44-1.73-.66-1.97-1.2-.67-1.54.7-2.07,1.97-2.99Z"/>
    <path d="M63.51,173.72h2.09v2.97h-2.09v-2.97Z"/>
    <path d="M70.75,76.27h-1.81v-3.26c.57-.03,1.11-.06,1.81-.11v3.37Z"/>
    <path d="M36.72,73.94h-3.66c1.39-1.1,2.38-1.88,3.66-2.89v2.89Z"/>
    <path d="M71.21,176.21c-2.43.56-2.18-.91-2.21-2.42.73-.05,1.4-.1,2.21-.16v2.59Z"/>
    <path d="M46.98,232.09c-.27-.95-.55-1.89-.88-3.04.94-.05,1.67-.09,2.76-.15-.54,1.27-.96,2.26-1.38,3.26-.17-.02-.33-.05-.5-.07Z"/>
    <path d="M52.18,173.72c-.72,1.25-3.03,1.76-3.54,1.08-.12-.16.22-1.01.42-1.03.92-.11,1.87-.05,3.13-.05Z"/>
    <path d="M34.31,192.76c1.49.12,3.05-.63,4.47.29-.02.25-.04.5-.06.75-1.49-.08-2.98-.15-4.47-.23.02-.27.04-.54.06-.81Z"/>
    <path d="M39.88,185.88c.92.32,1.78.61,2.63.91-.4.29-.77.77-1.19.82-.85.09-1.94.18-1.43-1.73Z"/>
    <path d="M102.44,310.3c.04-.68.09-1.36.14-2.22.8.11,1.46.19,2.55.34-.97.9-1.63,1.51-2.29,2.12-.13-.08-.27-.16-.4-.24Z"/>
    <path d="M56.26,163.9c1.23-1.99,2.21-3.57,3.39-5.48,1.09,2.03,1.97,3.69,3.09,5.78-2.32-.11-4.12-.2-6.48-.31Z" style="fill: #fff;"/>
    <path d="M42.49,163.97h-5.62c.79-1.89,1.51-3.62,2.44-5.86,1.15,2.13,2.06,3.79,3.18,5.86Z" style="fill: #fff;"/>
    <path d="M88.9,261.04c.08-.98.15-1.74.23-2.63,2.42.17,4.72.34,6.97.5.83-2.77-.79-3.07-2.61-2.97-.04-.3-.11-.48-.06-.52.83-.66,1.67-1.3,2.5-1.95.55,1.05,1.36,2.05,1.59,3.17.23,1.09,0,2.33-.3,3.44-.11.42-.95.89-1.47.92-2.2.1-4.4.04-6.84.04Z" style="fill: #fff;"/>
    <path d="M100.42,264.86h-11.49c-.37-1.23.21-1.65,1.45-1.67,2.79-.05,5.58-.25,8.36-.17.68.02,1.33.91,2,1.39-.1.15-.21.3-.32.45Z" style="fill: #fff;"/>
    <path d="M107.69,256.67c-1.5.77-2.62,1.34-4.03,2.06.11-.76.13-1.18.24-1.57.28-.97.61-1.93.92-2.89.89.75,1.79,1.49,2.87,2.39Z" style="fill: #fff;"/>
    <path d="M107.79,122.37h-5.09c-.4-1.93-.8-3.85-1.21-5.86q-3.99,2.39-7.99-1.82c2.37-1.79,4.72-3.57,7.11-5.38,2.23,1.58,3.86,4.29,7.18,3.46v9.6ZM106.75,117.72c.21-1.4-.37-2.46-1.86-2.56-1.22-.08-2.51.46-2.3,1.96.18,1.29-.31,3.2,1.85,3.47,1.81.22,2.16-.27,2.31-2.87ZM102.77,113.72c-1.72-1.8-3.48-1.95-4.69-.2-.25.36.17,1.53.62,1.95,1.22,1.11,2.62.46,4.07-1.75Z" style="fill: #fff;"/>
    <path d="M102.23,108.09c.12-1.23.2-2.06.3-3.19,3.09,0,6.18-.06,9.25.08.36.02.96,1.08.97,1.66.08,5.18.04,10.37.04,15.72h-2.08v-13.22c-2.86-.35-5.59-.69-8.49-1.05Z" style="fill: #fff;"/>
    <path d="M102.09,101.76v-2.64c2.18-.13,4.29-.26,6.45-.4v3.04h-6.45Z" style="fill: #fff;"/>
    <path d="M26.58,91.21h-2.1v-4.17c2.46-.42,2.55-.24,2.1,4.17Z" style="fill: #fff;"/>
    <path d="M97.73,75.28c-4.39,0-8.41.06-12.42-.08-.48-.02-.92-1.17-1.38-1.8.16-.2.31-.4.47-.6,3.03,0,6.07-.1,9.1.04,1.89.08,2.56-.55,2.38-2.44-.15-1.54-.03-3.1-.03-5.33.89.58,1.81.89,1.82,1.23.12,2.96.07,5.93.07,8.98Z" style="fill: #fff;"/>
    <path d="M85.24,64.97h7.47v5.68h-7.47v-5.68ZM91.49,66.37h-5.31v2.53h5.31v-2.53Z" style="fill: #fff;"/>
    <path d="M88.88,272.54h7.28c0,2.93.04,5.84-.05,8.75-.01.34-.69.93-1.08.95-2,.1-4.01.04-6.15.04v-9.74ZM90.8,279.74c3.42.54,3.44.53,3.44-2.58,0-.26-.03-.52,0-.78.17-1.27-.03-2.07-1.65-2.1-1.63-.03-1.81.84-1.8,2.07.01,1.1,0,2.19,0,3.39Z" style="fill: #fff;"/>
    <path d="M48.89,45.46h-4.18c.93-.92,1.62-2.03,2.09-1.95.86.16,1.58,1.02,2.36,1.6-.09.12-.18.23-.27.35Z" style="fill: #fff;"/>
    <path d="M28.21,152.73c-1.14,1.33-1.99,2.32-2.79,3.25-1.24-.96-2.33-1.8-3.42-2.64.12-.2.25-.41.37-.61h5.83Z" style="fill: #fff;"/>
    <path d="M43.63,152.09c1.24.3,2.48.6,3.71.9-.42,1.05-.84,2.1-1.47,3.66-1.13-1.63-1.87-2.72-2.62-3.8.13-.25.25-.5.38-.75Z" style="fill: #fff;"/>
    <path d="M67.34,156.62c-.91-1.51-1.58-2.63-2.42-4.01h4.81c-.87,1.47-1.53,2.57-2.39,4.01Z" style="fill: #fff;"/>
    <path d="M73.11,261.18c-.08-1.84-.17-3.63-.25-5.51,2.3-.18,4.4-.35,6.69-.52v6.03h-6.44Z" style="fill: #fff;"/>
    <path d="M70.55,296.36h4.53v6.21c-.2.01-.39.03-.59.04-.05-.92-.19-1.85-.12-2.76.15-1.81-.6-2.36-2.77-1.68.45,1.39.89,2.78,1.4,4.36-.43.07-1.37.21-2.45.37v-6.54Z" style="fill: #fff;"/>
    <path d="M63.35,216.58c-.05,1.03-.1,2.05-.15,3.25h-5.03v-3.25h5.19Z" style="fill: #fff;"/>
    <path d="M100.15,297.6c-1.37-.71-2.43-1.26-3.49-1.81.24-.4.43-1.09.72-1.14,2.09-.37,2.2,1.26,2.76,2.95Z" style="fill: #fff;"/>
    <path d="M76.67,214.4c2.08.29,4,.55,5.9.81v4.75h-5.9v-5.56Z" style="fill: #fff;"/>
    <path d="M106.75,117.72c-.15,2.6-.5,3.09-2.31,2.87-2.16-.26-1.67-2.18-1.85-3.47-.21-1.5,1.08-2.04,2.3-1.96,1.49.09,2.07,1.15,1.86,2.56Z"/>
    <path d="M102.77,113.72c-1.44,2.2-2.84,2.86-4.07,1.75-.46-.42-.87-1.59-.62-1.95,1.21-1.75,2.97-1.61,4.69.2Z"/>
    <path d="M91.49,66.37v2.53h-5.31v-2.53h5.31Z"/>
    <path d="M90.8,279.74c0-1.2,0-2.3,0-3.39-.01-1.23.16-2.1,1.8-2.07,1.63.03,1.82.83,1.65,2.1-.03.26,0,.52,0,.78,0,3.12-.02,3.13-3.44,2.58Z"/>
  </g>
  <ellipse cx="100.4" cy="24.4" rx="17.1" ry="24.4"/>
  <ellipse cx="67.33" cy="26.28" rx="10.92" ry="15.15"/>
  <ellipse cx="44.36" cy="37.25" rx="9.48" ry="12.74"/>
  <ellipse cx="25.06" cy="55.15" rx="8" ry="11.47"/>
  <ellipse cx="8.53" cy="78.19" rx="8.53" ry="11.47"/>
</svg>