<?xml version="1.0" encoding="UTF-8"?>
<svg id="Ebene_1" xmlns="http://www.w3.org/2000/svg" viewBox="0 0 189.6 223.28">
  <g id="Ebene_1-2" data-name="Ebene_1">
    <g>
      <path d="M175.7,104.8c-.21,0-.42.21-.56.14-1.05-.77-2.04-1.54-3.3-2.53-.91,1.26-1.83,2.46-2.67,3.72-.14.21-.14.63,0,.77.7.77,1.47,1.54,2.25,2.39.77-.91,1.33-1.61,1.9-2.18.63.56,1.12,1.05,1.61,1.47.21-.63.35-1.19.56-1.9.49.28,1.12.63,1.9,1.12-1.12,1.12-.7,3.23-2.6,3.65.14.42.28.91.35,1.12-1.12.21-1.97.42-2.81.56v.42c.77.07,1.47.14,2.25.21,0,1.9-.28,2.11-1.97,2.11-5.48,0-10.88.07-16.29.14h-1.68v-31.8c.07,0,.49-.14,1.05-.21-.07-1.47-.21-2.95-.28-4.56-1.61-.21-1.12-1.33-1.05-2.46h2.11v6.74c.35.14.42.28.56.21.91-.14,2.04,0,2.67-.49.63-.49-.42-4.14-1.26-4.84,0,.98,0,1.83-.21,2.67,0,.28-.42.56-.63.84-.21-.28-.56-.56-.63-.84v-4.28h5.62v6.95h3.23v-6.95h3.72v6.25c.07.28.28.56.49.77.21-.28.56-.56.56-.84v-6.25h5.83c.35,0,.7.7.98.91,0-.14.07-.49.14-.98h4.42c-2.39,1.97-1.83,4.49-2.04,6.95h1.61c.21-1.4.42-2.81.56-4.21h.28v6.53c-.42,0-.98.07-1.61.14,0,4.77.49,9.48-.56,14.32-.7-.49-1.33-.98-2.18-1.54.91-.42,1.61-.77,2.39-1.12,0-.14-.07-.28-.14-.42-.91.21-1.75.42-2.74.7-.98-1.4-2.67-1.19-4.28-1.05-.42,0-.84.7-1.4,1.26-.49-.42-1.12-.98-1.75-1.54,0,0,0,.07-.07.07.84.84,1.75,1.68,2.67,2.53.14-.14.42-.49.84-.77.56-.35.98-1.75,1.9-.21.21.35,1.33.14,1.97.14v.35c-.42.14-.84.21-1.4.35.98,1.05,1.83,2.04,2.74,3.02l.28-.14-1.05-2.32c1.12.49,1.97,1.12,1.61,2.39-.35,1.19-.84,2.39-1.33,3.58-.14.35-.7.91-.84.91-.49-.14-.91-.56-1.26-.98-.21-.28-.21-.77-.28-1.19,1.26,1.05,1.9.77,2.81-1.33-.63-.42-1.26-.7-1.75.28-.28.42-.7.77-1.05,1.12h0l-.14.14ZM176.4,92.8c-.7-.07-.91.21-.49.77.42.56.84.98,1.33,1.47.91-1.19,1.68-2.25,2.53-3.23-.07-.07-.21-.14-.28-.21-.91.77-1.75,1.47-2.81,2.39-.14-.56-.21-.84-.28-1.19,1.12-.28,1.83-1.12,2.46-2.18-1.12-.07-2.11.84-2.39,2.18h-.07ZM163.91,113.44h4.56c-1.4-2.04-2.46-3.65-4.14-4.56-1.61,2.53,1.19,2.81,2.18,4.28-1.05.14-1.83.21-2.6.35-.28-.35-.84-.77-.84-1.12-.07-2.53,0-4.98,0-7.51,1.4,1.68,2.81,3.23,4.28,4.91,1.54-3.23-1.68-3.72-2.74-5.69.63-.07,1.19-.35,1.61-.21.49.14.84.7,1.4,1.19v-4.63c-1.47,1.12-2.81,2.25-4.21,3.37-.14-.07-.21-.21-.35-.28v-12.42c-1.26.77-2.11,2.25-3.79,1.61v-2.11c1.05,0,1.97,0,2.95-.21.28,0,.77-.56.77-.84.07-1.12,0-2.25,0-3.72-2.04.77-.7,2.39-1.33,3.3-.77.14-1.54.35-2.53.56v-3.02c0-.28-.35-.49-.56-.7-.14.21-.42.49-.42.7,0,4.49-.14,8.99-.7,13.48-.49,3.86,0,7.86-.14,11.79,0,1.33.49,1.61,1.61,1.26v-19.65c3.23.7,3.37.84,2.74,2.95-.7.21-1.33.35-2.04.56,0,.14,0,.35.07.56.77.07,1.54.14,2.32.21v2.04c-1.54.28-2.32.77-2.25,1.47.7.07,1.4.21,2.18.35-.14,1.33.77,2.95-1.47,3.23-.21,0-.42.42-.42.7,0,.14.35.35.56.42.28.07.63,0,.77.14.35.28.77.7.84,1.12,0,.28-.49.7-.84.84-.49.21-1.05.28-1.9.49,1.05,1.12,3.37.98,2.53,3.16-.42.07-.84.21-1.33.28v1.26c1.12,0,2.25.14,3.37.14h0l-.14-.07ZM164.12,101.29c.14.07.21.14.35.28,1.12-1.26,2.32-2.53,3.37-3.86.28-.35.42-1.26.14-1.61-.77-1.26-1.75-2.39-2.6-3.44-.49,1.12-.84,2.11-1.05,2.67.7.56,1.33.98,1.9,1.47-.63.49-1.19.91-2.11,1.61v2.95h0v-.07ZM164.26,88.66c.56,2.18,2.32,3.09,3.65,4.84v-7.58c-1.26.07-2.32.14-3.44.21.84.56,2.39,0,2.11,1.83-.21,1.19-1.12,1.12-2.32.7ZM171.28,83.88h3.3c-.28-2.25-.49-4.42-.7-6.6h-.56v5.41c-.14,0-.35,0-.49.14-1.83-1.05-.42-3.37-1.54-4.98v5.97h0v.07ZM172.82,88.17c-.49-.42-.84-1.05-1.33-1.19-.56-.14-1.26.14-1.75.42-.63.35-.56.91,0,1.47.63.7,1.26,1.54,1.97,2.46,1.26-1.4,2.25-2.46,3.3-3.58-.63-.49-1.19-.84-1.68-1.26-.07.07-.14.21-.21.28.84,1.19.84,1.75-.42,2.88-.21.14-.63,0-.91.07v-.35l1.19-1.19h-.14ZM168.26,78.62c-.7.56-1.4.84-1.47,1.26-.21,1.33-.14,2.67-.21,4h1.68v-5.26ZM161.87,83.88c-.14-2.18-.28-4.21-.42-6.25h-.56c-.28,2.04-.56,4.14-.84,6.25h1.83ZM169.24,94.62c.42.35,1.12,1.33,1.47,1.26.7-.21,1.33-.98,1.83-1.68.14-.21-.35-.84-.56-1.12-1.05.56-1.83,1.05-2.74,1.61h0v-.07ZM178.65,84.17c0-1.54.07-2.67,0-3.79-.07-.98.42-2.18-.63-2.95-.21,2.04-.21,4-.14,5.97,0,.21.49.49.84.77h-.07ZM177.24,83.88c-.07-1.61-.14-3.09-.21-4.84-.91.91-1.47,4.28-.98,4.84h1.19ZM175.35,91.82c.7-.77,1.19-1.33,1.68-1.83-.63-.56-1.05-.98-1.61-1.54-.77.91-1.54,1.75-2.25,2.6-.21.28-.21.7-.28.98.35-.14.77-.28.98-.56.56-.7.98-1.4,1.47-2.18.21.07.35.14.56.21-.14.63-.28,1.19-.56,2.18h0v.14ZM171.98,112.1c-.77-.91-1.26-1.68-1.9-2.25-.21-.21-.77,0-1.19,0,.07.35,0,.77.28.98.42.42.98.84,1.47,1.12.42.21.91.14,1.33.21h0v-.07ZM176.19,86.48c-.14.14-.28.21-.35.28.56.77,1.12,1.61,1.75,2.39,1.54-1.4,1.75-1.75,1.47-2.6-.42.49-.84,1.05-1.26,1.61-.63-.7-1.12-1.26-1.61-1.83h0v.14ZM170.93,101.01c-.56-.49-1.12-1.05-1.61-1.54-.07,0-.14.14-.28.21.07.98.21,1.97.28,2.95.56-.49,1.05-.98,1.61-1.54h0v-.07ZM173.17,110.98c1.19-.84.63-1.68.07-2.46-.42.35-.84.63-1.26.98.35.49.77.98,1.19,1.47h0ZM173.03,101.08c0,.14,0,.28.07.42.42,0,1.12.21,1.33,0,.35-.42.42-1.05.63-1.54l-.42-.21c-.56.49-1.05.91-1.54,1.4l-.07-.07ZM169.66,90.55c-.21.07-.42.14-.63.28.28.63.49,1.19.77,1.83,0,0,.49-.14.77-.28l-.98-1.75h0l.07-.07Z"/>
      <path d="M23.59,61.21h15.09v4.14h-12.99v31.17h3.16v-27.73h29.76v3.44h-23.38v10.6h8.35v15.3h-3.93v-10.6h-4.42v10.74h-11.65v-36.99h0v-.07Z"/>
      <path d="M14.67,110.84c1.97,1.75,3.86,3.44,5.48,4.84,2.53-2.18,4.98-4.28,7.44-6.39,2.18,2.04,4.56,4.28,6.88,6.46,1.75-1.61,3.44-3.09,4.98-4.7q2.25-2.25,4.56-.14c1.12,1.05,2.25,2.11,3.44,3.23,2.11-2.25,4.21-4.49,6.25-6.67.14,0,.28.07.42.14.14,1.19.28,2.39.49,3.58h.35v-7.02c-.42,0-.91-.07-1.4-.07-13.2,0-26.39,0-39.59.07-1.47,0-2.46-.28-2.67-1.83-.07-.56-.35-1.12-.56-1.75h47.87v20.22H20.5c-1.68,0-2.81-.84-3.3-2.67h38.19c.28-2.6-.56-4.49-3.02-5.55-.56.91-1.05,1.83-1.75,3.02h3.86c.21,1.12-.28,1.26-1.05,1.26-9.34,0-18.74,0-28.08-.07h-7.79c-.91,0-1.26-.35-1.47-1.19-.35-1.47-.77-2.88-1.26-4.56h0l-.14-.21ZM39.45,115.19c1.61.07,2.95.14,4.56.21-.77-1.47-1.4-2.67-2.18-4.07-.84,1.33-1.54,2.46-2.39,3.86h0ZM29.83,115.26c-.77-1.47-1.4-2.6-2.25-4.14-.63,1.54-1.19,2.81-1.68,4.14h3.93Z"/>
      <path d="M131.83,71.32h45.91q3.02,0,3.51,3.23h-46.12v30.39c.42,0,.84.07,1.33.14v4.14c.77-.07,1.54-.14,2.46-.21-.49-1.33-.98-2.6-1.47-4h3.58v4h2.81c-.63-1.33-1.19-2.6-1.83-4h3.23v4h2.46c-.63-1.33-1.19-2.6-1.83-4h2.81v3.93h2.53c-.56-1.33-1.12-2.6-1.75-3.93h3.09v9.62h-3.09c.49-1.12.98-2.18,1.54-3.37h-2.25v3.44h-2.67c.49-1.12.98-2.18,1.54-3.37h-2.32v3.44h-3.44c.49-1.12.91-2.18,1.47-3.37h-2.18v3.37h-3.65c.49-1.12.98-2.18,1.47-3.37h-2.39v3.44h-4.7v-43.52h-.07Z"/>
      <path d="M62.54,172.96v6.81c.77-.77,1.54-1.47,2.25-2.25,1.26-1.47,2.95-1.05,4.35-.63.98.28,1.61,1.54,1.4,2.81-.07.7-.21,1.47-.14,2.25,0,.7.21,1.4.56,1.97,1.19,1.54,2.6,2.53,4.77,2.18,1.26-.21,2.6,0,4.14,0-.49-1.33-.98-1.68-2.11-1.33-1.05.28-2.25.21-3.37.14-.21,0-.49-.49-.7-.77.21-.21.49-.56.77-.56.98-.14,1.97-.14,3.09-.14-.21-1.05-.63-1.47-1.61-1.05-.84.42-1.75.77-2.6,1.19-.77.35-2.04-.49-2.11-1.61-.14-1.68,0-3.37,0-5.19h2.11q2.95,0,3.23,2.95c0,.42.28.77.77,1.12v-5.19c1.47,1.61,2.88,5.05,2.46,5.97.35.28.7.56,1.12.84-.42.28-.84.56-1.4.91.84.7,1.61,1.19,2.18,1.9.49.63.7,1.47,1.05,2.39h-21.9v-28.92h4.63c.28,0,.77.56.77.91v8.35l-.49-.14c-.63.42-1.19.84-2.04,1.4v-9.48l-.42-.21c-.21.28-.56.63-.63.91-.07,2.95-.14,5.83-.14,8.77,0,.28.49.84.77.84.98.07,1.97,0,3.09,0v-11.51c.63.07,1.12.14,1.33.14v12c0,1.9,0,1.83-1.97,1.83-.7,0-1.68-.28-1.54,1.26,1.54-.21,3.16-.35,4.98-.63v-1.61c-.14-2.53-.35-5.05-.42-7.58,0-.42.35-.91.63-1.47-.14-.35-.35-.84-.56-1.33l.28-.14c.7,1.12,1.33,2.25,2.04,3.37h-.49c-.21.56-.63,1.12-.63,1.68-.14,2.11-.14,4.21-.14,6.32s.35.63.56.98c.21-.28.63-.63.63-.98,0-2.11,0-4.14.21-6.32,1.83.98,2.18,3.09,3.37,4.49,1.54,1.83-.35,3.65.28,5.48h-12.07v-3.02h-.42l.07-.07ZM62.4,183.42h4.77c.35,0,.98-.35,1.05-.63.21-.77.35-1.68.21-2.39-.14-.77-.7-1.47-1.12-2.25-.56.42-1.19.91-1.75,1.33v.35c1.26-.07,2.39.14,1.83,2.11-1.54-.14-3.23-.21-4.91-.35,0,.63-.07,1.12-.14,1.83h.07ZM70.48,186.09c.07-.07.14-.21.21-.35-.49-.35-.91-.98-1.4-.98-1.97,0-3.93.07-5.9.14-.84,0-1.26.28-.98,1.19h8.07ZM75.6,180.33c-.77-.63-1.4-1.12-2.04-1.68-.21.7-.42,1.33-.63,2.04-.07.28-.07.56-.14,1.12.98-.49,1.75-.91,2.81-1.47h0Z"/>
      <path d="M135.41,202.16v5.26c0,.63-.42,1.19-.7,1.75-.14.07-.35.14-.56.21.7.28,1.4.56,2.32.98v-5.12h8.7v1.83h-6.11c1.54-.84,3.58-.07,5.41-1.61h-6.18c-.28,0-.7.49-.77.7-.07,1.54,0,3.16,0,4.84h-5.9v-11.51h5.9v-7.93h2.18v7.3c0,.14.21.35.35.49.14-.14.49-.35.49-.49v-11.16h-8.21c0,.42,0,.84-.14,1.61h7.37v.63h-7.09v5.48c0,.28.42.56.63.77.21-.28.63-.49.63-.77.07-1.26,0-2.53,0-3.93h2.18v5.33c0,.21-.42.49-.63.49h-3.86v-21.97h10.46v24.92h-9.55v9.9c1.33.42,1.19-.42,1.12-.98-.14-2.53-.28-5.12-.42-8h11.44c0-.21.14-.42.14-.63-.42-.21-.84-.42-1.47-.77,0-.49-.21-1.19-.21-1.9v-21.69c0-.35.49-.63.77-.98.21.28.63.63.63.91.07,2.6.07,5.19.07,7.79v1.75h6.46v7.93c0,1.33-.77,3.16,1.9,3.3-.07.14-.21.28-.28.35h-7.51c.14,1.75.21,3.3.35,4.77h-9.97l.07.14ZM146.22,191c0,.14.14.28.21.42-.35.14-.7.28-.98.42s-.49.28-.7.35c.21.28.35.7.63.7.7.14,1.4.14,2.46.21-.7,1.54-2.25.42-2.95,1.12.07,1.26.77,1.54,2.74,1.47,1.12,0,1.26-.56.98-1.54-.07-.35,0-.84,0-1.19v-5.97h-3.58c-.42,3.16-.28,3.58,1.19,3.93h0v.07ZM132.32,186.58h8.42v-7.93h-.63c-.14,2.18-.28,4.28-.35,6.46h-7.51c0,.49,0,.91.07,1.47h0ZM137.37,179.98c-3.72-.49-4-.28-3.79,2.67v.14c.28.28.49.77.77.77.98.07,1.97,0,3.02,0v-3.65h0v.07ZM149.8,194.02c-.28.07-.49.21-.77.28.14.49.35,1.05.49,1.54.21-.14.7-.28.7-.42-.07-.49-.28-.91-.42-1.4h0Z"/>
      <path d="M108.59,205.96c1.12.98,2.32,2.04,3.44,3.02,1.68-1.47,3.37-2.81,4.91-4.42.56-.56.49-1.61.77-2.46-.14,0-.28-.14-.42-.14-1.54,1.83-3.16,3.65-4.84,5.62-2.53-2.11-5.62-3.51-5.41-7.65,1.54,1.26,3.09,2.53,4.77,3.93.84-.84,1.75-1.68,2.67-2.46.63-.49,1.4-.91,2.18-1.26.42-.21.84-.35,1.26-.56-.07-.21-.21-.56-.28-.56-.42.07-.77.21-1.19.21h-1.47c-.21,0-.42-.07-.7-.07h-2.04c-.98.07-1.97,0-2.81.35-1.05.42-2.67-.07-2.95-1.4.35,0,.7-.14,1.05-.14,6.74,0,13.55,0,20.29-.07h.84c.21.07.42.35.63.56-.21.21-.42.56-.56.56-1.26,0-2.53-.21-3.79,0-1.54.35-3.23-.7-4.7.35-.14.07-.49-.28-.77-.35h-.77c0,.28-.07.63,0,.7,2.6,2.25,5.26,4.49,7.93,6.67.14.07.35.14.63.21v-6.95h1.97c0,.77.07,1.54.07,2.32v16.29c0,1.05-.14,2.11-.28,3.09-.21,1.9-1.26,2.46-3.09,1.47.56-1.12,1.05-2.25,1.68-3.58-.63,0-1.19,0-1.68-.07-.21,1.05-.42,1.97-.63,2.88h-.49v-1.68c.07-1.19-.42-1.33-1.47-.84.35.91.63,1.83,1.05,2.95-1.47-.28-2.18-1.05-2.67-2.18-.14-.35-.63-.56-.91-.84l-.35.35c.28.42.49.77.77,1.19-6.32-3.16-9.97-8.63-12.92-14.67.07-.07.14-.14.28-.28h0v-.07ZM125.51,215.36c-.77-.77-1.33-1.33-1.97-1.75-1.26-.91-2.6-1.83-3.93-2.67-.91-.56-.91-1.26-.28-2.04.84-.98,1.68-1.97,2.6-3.09-1.9-.21-2.6,1.05-3.3,2.18-.7,1.19-.63,2.6.42,3.65.91.98,1.97,1.9,2.88,2.88.84.98,1.83,1.26,3.51.77h0l.07.07ZM119.82,215.57c-2.11-2.95-4.7-5.9-6.04-4.21.98,1.05,2.11,2.04,2.95,3.23s1.9,1.19,3.16.98h-.07ZM114.07,210.38c2.18-1.05,3.51-3.02,2.95-4.63-1.54,1.19-2.6,2.6-2.95,4.63ZM127.34,215.36v-4.35c-.91.63-1.54,1.12-2.32,1.68,0,0-.28-.14-.56-.21l-.14.21c.91.84,1.83,1.61,3.02,2.74h0v-.07ZM124.39,207.01c-1.75,0-1.75,1.4-2.11,2.25-.56,1.4.77,1.97,1.54,2.67-1.05-1.68-.84-3.37.49-4.91h.07Z"/>
      <path d="M55.38,201.6v-7.93h-10.81v8.07c-2.04-.28-3.93-.56-5.97-.84v-28.15h20.22v3.37h-16.85v12.28h16.78v1.61h-16.85v9.27c.14,0,.28,0,.42.07.21-1.19.49-2.39.63-3.58.21-1.26.35-2.53.49-3.86h15.3v9.76h-3.3l-.07-.07Z"/>
      <path d="M59.95,86.2h7.86c-1.33-1.54-2.46-2.88-3.72-4.28-1.19.77-2.53,1.61-3.79,2.39-.77-2.32-.49-3.02,1.4-4.14,2.04-1.12,4.14-2.32,6.11-3.58.49-.35.98-1.12.98-1.68.14-2.53,0-5.12,0-7.72h10.81c-.84.98-1.54,1.83-2.25,2.67,1.4,1.47,2.74,2.88,4,4.28.35.42.7,1.05.56,1.54-.84,4.28-1.75,8.49-2.74,12.71-.07.35-.63.84-.98.84h-18.32v-3.02h.07ZM75.67,86.06v-6.74c-2.32.56-3.51-1.33-5.05-2.46-1.68,1.26-3.3,2.53-4.98,3.79,1.9,1.97,3.72,2.39,5.62,1.26.28,1.4.56,2.74.84,4.14h3.58ZM71.74,76.02c2.04.28,3.93.49,5.97.77v9.27h1.47v-11.02c0-.42-.42-1.12-.7-1.19-2.18-.07-4.35,0-6.46,0-.07.77-.14,1.33-.21,2.25h0l-.07-.07ZM71.67,71.6h4.49v-2.11c-1.54.07-3.02.21-4.49.28v1.83Z"/>
      <path d="M58.68,56.93v3.93h-12.71c-.14-.56-.21-1.05-.28-1.68h-2.67v4.77h15.65v2.95c-.35,0-.7.14-1.05.14h-15.23c-.91,0-1.19-.35-1.12-1.19v-6.53h-20.85v7.37h-4.91c0-1.12.28-2.39,0-3.44-.91-2.6.7-4.07,2.18-5.69.35-.35.98-.7,1.47-.7,12.21,0,24.36,0,36.57.07h3.09-.14ZM18.6,64.23c.35-3.09.28-3.23-1.47-2.95v2.95h1.47Z"/>
      <path d="M17.97,85.36c.28-1.05,0-1.4-.98-1.4H7.16v-2.32h10.39c.56-1.4.07-1.75-.98-1.68-2.67.07-5.33.07-7.93.14h-1.33c0-1.61.84-2.46,2.25-2.46h8.28v-1.68h-9.69c.14-1.61.91-2.46,2.39-2.46h7.93c.84,0,1.4-.14,1.05-1.33h-10.46c.56-1.33.91-2.46,1.4-3.58.07-.21.49-.49.7-.49h9.13c0,.49.07.91.07,1.4v17.83c0,.56.21,1.33-.7,1.33H7.44c-.07-.98-.21-2.11-.28-3.37h10.88l-.07.07Z"/>
      <path d="M143.55,79.11h-3.02c0,.49-.07,1.05,0,1.54v17.41c0,1.12.28,1.54,1.4,1.54.91,0,1.9,0,2.39,1.12.14.35.98.35,1.61.49v-2.88h-4.14v-1.68h9.62c1.12-.07,1.54.28,1.12,1.61h-3.09q-1.83,0-1.75,1.83v.91h4.98c0,.63,0,1.12-.07,1.61h-14.18v-25.48h13.83v2.11h-5.33v13.62h5.69v2.04h-8.99v-15.72h0l-.07-.07Z"/>
      <path d="M172.82,65.42v-6.39c1.26.84,2.32,1.61,2.18,3.16v1.47c0,.42.28.84.42,1.26.14-.42.35-.91.49-1.33.07-.28,0-.56.28-.98,1.05,1.97,2.04,4,3.23,6.25h-48.01v-3.51h41.35l.07.07Z"/>
      <path d="M41.7,44.22h2.95c9.27,0,18.53-.14,27.8-.14.77,0,1.54.77,2.39,1.19,0,.14-.14.28-.14.42h-4.63v4.98c0,.28.49.63.77.7,1.47.07,2.95.14,4.35.07.28,0,.7-.63.77-.98.07-1.12,0-2.25,0-3.37.14,0,.35-.14.49-.21,1.19,2.18,2.39,4.42,3.72,6.88h-26.11v-7.09h-12.28c0-.84-.07-1.54-.14-2.53h0l.07.07ZM68.58,53v-6.32c0-.21-.63-.49-1.26-.84,0,1.54-.07,2.67,0,3.72.14,1.33-.35,1.75-1.68,1.68-2.11-.07-4.28,0-6.39,0-.14.14-.21.28-.35.42.35.42.63,1.26.98,1.26,2.81.14,5.62,0,8.7,0h0v.07ZM59.81,45.77v4h5.26v-4h-5.26Z"/>
      <path d="M72.44,191.35v2.11c0,1.12-.35,1.61-1.47,1.47-.77-.07-1.4,0-1.05,1.12.77,0,1.47.14,2.11.21v5.62h-10.81c-.28,0-.56-.28-.84-.42.28-.14.56-.42.84-.42,2.6,0,5.19,0,7.79-.07h1.05c-.07-1.26-.14-2.53-.21-3.72h-.07v2.46h-9.27v-10.25h17.97v4.63c1.12,0,2.18.14,3.16.14.21,0,.63-.21.63-.35v-4.21h-.56v3.79h-2.25v-4.35h2.74c.28,0,.63.35.7.63.28,1.83.49,3.65.7,5.62h-7.23v-5.62h-.63c-.14,2.46-.35,4.91-.56,7.51h7.44q.21,1.4-.91,1.47h-2.88c-1.9-.21-3.02,1.05-4.42,1.83,0,.14,0,.21.07.35h8.14c-.49.49-.63.84-.84.84h-8.7c.21-3.79.49-7.51.7-11.44h-4.07c-.14,0-.35.35-.49.49.21.14.35.42.56.42h2.6l.07.14ZM62.33,191.49v6.81h4.35c.28,0,.77-.42.77-.7v-6.18h-5.12v.07Z"/>
      <path d="M152.89,159.42v6.39c0,2.18.14,4.28.14,6.46,0,.42-.21.77-.35,1.19-.21,0-.35-.07-.56-.14v-5.69h-.28v5.76c-.42,0-.84.07-1.33.14v-10.6c-.77-.07-1.47-.14-2.11-.21,0-.07-.07-.14-.14-.21-.14-1.33-.84-1.97-2.18-1.97h-10.04c.49.56.7.91,1.05,1.12,1.19.84,1.75,1.83,1.4,3.37-.28,1.05.77,1.12,1.33,1.12,1.33,0,1.54.77,1.47,1.83v4h.63v-6.53c1.19.84,1.97,1.33,1.68,2.74-.28,1.33,0,2.81-.07,4.21,0,.42-.42.98-.77,1.12-.42.07-.91-.28-1.4-.42,0,0-.35.49-.7.49h-8.77v-14.18h21.13-.14ZM136.67,167.49c.98.98,1.75,1.97,2.67,2.74.28.28.91.14,1.33.14-.07-.42,0-.98-.28-1.19-.91-.98-1.9-1.83-2.95-2.67-.21-.14-.77-.14-.91,0-.63.63-1.19,1.33-1.83,2.04l.14.14c.56-.42,1.19-.77,1.83-1.26h0v.07ZM133.16,167.56c.84-1.54,3.3-2.18,2.81-4.49-1.47,1.19-2.95,2.39-2.81,4.49Z"/>
      <path d="M58.47,122.21v2.53h-3.23v15.02h-2.6v-6.25h-8.7v4.28c.98.07,1.9.14,2.95.28,0,.56.14,1.12.21,1.9h-4.98v-8.28h9.2c.56,0,1.19-.28,1.83-.49-.63-.21-1.26-.49-1.83-.49-2.81,0-5.55.07-8.35,0-1.54-.07-1.97.42-1.97,1.9,0,2.04,0,4-.14,6.04,0,.42,0,.91-.07,1.4h-2.6v-17.76h2.53v6.74h12.49v-6.67h5.19l.07-.14Z"/>
      <path d="M121.23,103.82c-1.26-.7-1.61-1.47-1.61-2.6-.14-13.9-.28-27.87-.49-41.77,0-.28,0-.56-.07-.84h-5.26c-.21,11.72-.35,23.38-.56,35.03-.14,0-.21.07-.35.14-.28-.84-.84-1.75-.84-2.6,0-5.41.07-10.74.14-16.15,0-5.26.07-10.53.07-15.72,0-.14,0-.35-.14-.63h-3.23c0-1.9,0-1.97,1.68-1.97h18.39c0,.56,0,1.12.07,1.9h-8.42c.21,15.16.35,30.18.56,45.42h0l.07-.21Z"/>
      <path d="M54.96,78.76h-17.76v-3.51h21.41v22.67h-3.65v-19.16Z"/>
      <path d="M131.2,131.97v-2.25h18.95c-.28-4.28-.56-8.49-.84-12.85h2.67c.28.63.56,1.12.77,1.61.07.21.14.49.14.77v29.76c0,.07,0,.14-.07.35h-2.46v-17.48h-19.02l-.14.07Z"/>
      <path d="M142.99,122.98c-.14-2.04-.35-4-.49-6.04h5.55c.28,3.58.63,7.23.91,10.95h-15.16c-.14-2.25-.28-4.42-.35-6.67,0-1.19-.42-1.97-1.75-2.04v-2.11h9.34c0,1.4.07,2.95,0,4.49-.07,1.33.42,1.75,1.97,1.47h0v-.07ZM136.67,125.65h9.06c.28,0,.77-.56.77-.91.07-1.61,0-3.16,0-4.77,0-1.12-.49-1.19-1.47-.77v4.91h-7.02v-5.55c-.56.07-.98.14-1.4.14v7.02h0l.07-.07Z"/>
      <path d="M145.45,137.02v12.99h-13.55v-12.99h13.55ZM142.71,140.6c-1.54-.28-2.95-.49-4.35-.7-.77-.07-1.61-.14-2.46-.14-.28,0-.84.49-.84.7v7.44h7.72v-7.37h0l-.07.07Z"/>
      <path d="M114.98,59.53h3.37v41.63c-1.47-1.83-3.51-3.3-3.58-5.97-.07-5.26,0-10.46,0-15.72,1.05-.14,1.68-.28,2.32-.35.28-1.05-.07-1.54-1.12-1.54-.28,0-.91-.49-.91-.77-.07-2.04,0-4.07,0-6.18.63-.14,1.19-.21,1.68-.28.21-1.05-.35-1.61-1.61-1.83v-3.3c.49-.84,2.18.42,2.04-1.12,0-.35-1.26-.63-2.11-1.05v-3.51h-.07ZM116.81,87.11v-2.32c-.56,0-.98,0-1.47.07v2.25h1.47ZM116.88,95.19c.49-2.18.28-2.46-1.54-2.04q-.21,2.04,1.54,2.04Z"/>
      <path d="M158.92,62.4v-6.18h1.47c2.74,0,5.48,0,8.21-.14,2.25,0,2.25-.07,3.51,1.4v6.46h-40.57v-1.54h27.38ZM168.82,62.47v-3.44c0-.28-.35-.7-.56-.7h-5.69v3.44c0,.28.42.7.7.7h5.55Z"/>
      <path d="M133.93,41.21h3.02v-.35c-1.19-.07-2.39-.14-3.65-.28v10.74c0,.21.63.63.91.63.7-.14,1.83,0,1.83-1.19v-5.62c0-1.97.77-2.39,2.6-1.61.77.35,1.26,0,1.33-.84.14-1.12.21-2.25.35-3.37,1.05-.21,1.61,0,1.54,1.26-.07,1.4,0,2.81,0,4.28h-4.28v4.42c1.33-.07,2.6-.21,4.21-.28v4.42c0,.21-.49.49-.77.56s-.49-.42-.49-.63v-2.6c-.98,0-1.83.14-2.6.14,1.4.63,1.68,1.68,1.47,3.09h-7.86v-16.07c.77.28,1.54.56,2.32.7.84.14,1.83,0,2.67.07,1.68.14,2.53,1.47,2.04,3.02-.14.35-.63.63-1.05.7-.49.14-1.05,0-1.75,0v8.42h-1.68v-9.69h0l-.14.07Z"/>
      <path d="M47.38,110.91c-1.9-1.4-3.58-2.74-5.41-4.14-1.4,1.05-2.81,2.11-4.14,3.23-.77.7-1.26.63-1.9-.21,1.05-.84,2.11-1.61,3.37-2.67-1.68-.21-3.02-.63-4.14.63-.98,1.05-2.11,2.04-3.23,3.23-1.47-1.33-3.02-2.74-4.98-4.49-.84,1.05-1.61,2.11-2.46,3.09q-1.05,1.12-2.6.28c.98-.84,1.97-1.68,3.02-2.6-2.46-.7-3.3-.28-6.95,3.72-3.93-2.11-4.77-2.95-5.26-5.33h40.08c.56,0,1.4-.35,1.4.77,0,.91-.7.98-1.33.91-1.19-.21-2.04.21-2.88,1.12-.77.91-1.75,1.68-2.67,2.53h0l.07-.07ZM19.8,107.4h-4.07c-.07.14-.14.28-.28.42.77.56,1.54,1.19,2.39,1.83.56-.63,1.12-1.33,1.97-2.25h0ZM30.61,106.91c-.07.14-.14.35-.28.56.56.77,1.05,1.54,1.83,2.67.42-1.12.7-1.83,1.05-2.6-.84-.21-1.75-.42-2.6-.63h0ZM47.24,110.14c.63-.98,1.05-1.83,1.68-2.81h-3.37c.56.98,1.05,1.75,1.68,2.81Z"/>
      <path d="M58.68,186.86h-15.16c-.21-3.16-.42-6.25-.63-9.48.49,0,1.19-.07,2.11-.14v8.56c1.12-.56,2.11-.98,2.95-1.54.28-.14.35-.77.35-1.19,0-1.9-.14-3.79-.21-5.76h10.67v9.48h0l-.07.07ZM51.31,183.49h4.49v-4.21c-1.61.14-3.09.21-4.7.35,0,1.33.14,2.6.14,3.86h.07Z"/>
      <path d="M118.28,49.35c-.77-.98-1.61-1.97-2.53-3.09,1.61-1.75,3.37-3.65,5.12-5.55,1.9,2.11,3.58,3.93,5.41,5.9-.63-2.81-2.11-4.7-4.42-6.04,0-.14.07-.35.07-.49,2.39-.63,4.7-1.26,7.23-1.97v12.71h-6.67c.84-.91,1.61-1.75,2.39-2.6,0,0-.07-.07-.14-.14-.63.56-1.4,1.12-1.83,1.75-.91,1.33-2.04,1.33-3.3.77-.42-.42-.84-.91-1.33-1.33h0v.07ZM117.65,47.17c.98.98,1.68,1.83,2.46,2.6.49.49.98.77,1.61,0,.77-.84,1.54-1.68,2.46-2.67-.63,0-1.33-1.26-1.61.35,0,.14-.56.42-.77.35-1.05-.14-2.11-.35-3.16-.49,0-.14-.07-.21-.14-.35.28-.14.56-.28.91-.42-.07-.14-.21-.21-.28-.35-.42.28-.91.56-1.4.84l-.07.14ZM118.98,46.12h3.93c-1.4-1.47-2.74-1.47-3.93,0ZM125.44,47.38c.21-.63-2.67-3.58-4.7-4.35,1.61,1.47,3.16,2.95,4.7,4.35Z"/>
      <path d="M47.52,157.1v-10.88h-7.93c-.42,0-.77-.42-1.19-.7.42-.14.77-.49,1.19-.49,2.18,0,4.28.14,6.46.14.49,0,1.05-.07,1.54-.14v-.56c-3.02-.14-6.04-.35-9.13-.49v-2.39h20.15v3.37h-9.76v11.3c0,2.46-.21,1.26-1.26.91h0l-.07-.07Z"/>
      <path d="M70.62,99.47v-8.99h7.65v.42c-2.04.56-4.42-.28-6.32.77,0,.28.14.49.21.77h5.05c-.14,1.12-.63,1.61-1.75,1.4-.42-.07-.84-.07-1.26,0-.28,0-.49.28-.7.49.21.21.42.56.7.63.49.14,1.05.14,1.75.21-.63,1.12-.63,2.53-2.25,2.67-.42,0-.7.77-1.26,1.4-.14-1.97-.21-3.65-.28-5.41h-.21v6.6h-2.88v-8.84h-7.58l-.14.49c.42.14.77.42,1.19.42h5.76v8.91c1.26.07,2.39.14,3.86.21-1.12,1.68-2.95,2.18-4.14,3.23-.42-.35-.77-.63-1.12-.84-.21.28-.35.63-.56.91-.14.28-.35.49-.63.84-.84-2.32-.49-6.18.56-6.46.14,1.12.28,2.25.49,3.37h.7v-8.91c-.77,0-1.54.07-2.32,0-1.54-.28-3.16-.49-4.63-1.05-.49-.21-.49-1.4-.84-2.39h9.55c.28,0,.7.77.7,1.12.07,2.25,0,4.49.07,6.74,0,.42,0,.84.14,1.26h.49Z"/>
      <path d="M124.67,86.27h1.33c.28-1.61.35-1.68,3.3-1.4v5.48h-7.09v-19.02h6.95v2.88h-4.42v12.07h-.07Z"/>
      <path d="M7.58,89.85h12.71v8.56h-4.49v-4.63c1.19-.07,2.46-.14,3.72-.21v-.35h-4.77v5.05h-3.79v-4.35c.77-.07,1.54-.21,2.25-.28v-.42h-3.02v4.14h-.42c-.7-2.39-1.33-4.84-2.11-7.44h0l-.07-.07Z"/>
      <path d="M167.98,122.7c-.28.7-.49,1.47-.77,2.32,1.05.14,1.97.28,3.09.42-.56,1.33-.98,2.6-1.54,3.79-.14.21-.56.42-.84.42h-13.55v-4.28h3.44v2.74c.91,0,1.68.07,2.46.14v.42c-.77.14-1.47.28-2.25.42v.21c.91.07,1.83.14,3.02.21v-3.86h.56c.07.63.21,1.33.35,2.18h1.19v-1.47c0-.28.35-.42.49-.7.14.21.42.42.42.7v1.47c.42,0,.84,0,1.47.07-.42-1.05.91-2.25-.7-2.95v-.42c-.14-1.47-.28-2.88-.42-4.42-.63,0-1.19-.14-1.68-.21v-.42c1.05,0,2.11-.07,3.44-.14v9.9h.35v-10.6h-4.63v1.97c.7.42,2.04-.28,1.54,1.33-.56.14-1.12.21-1.68.35v.49c.77.14,1.61.35,2.6.56-.07.49-.14,1.47-.35,1.54-.91.14-1.9.14-2.81,0-.21,0-.42-.84-.42-1.26v-5.48h12l.21.21c-.42.28-.84.7-1.33.84-.7.14-1.47,0-2.18.14-.63.07-1.75.28-1.75.56-.07.98.14,1.97.28,2.95h0v-.14Z"/>
      <path d="M43.94,204.41h10.39v9.48h-5.19c-.28,0-.7-.63-.77-.98v-5.76h4.42c0-.14.07-.21.14-.35-.21-.14-.49-.42-.7-.42h-3.86c-.98,0-.84.77-.91,1.33-.07,3.58-.14,7.23-.21,10.81v1.33c-.14,0-.28.07-.42.07-.14-.56-.49-1.05-.49-1.61v-10.67c0-.49-.14-.98-.21-1.47h-.42c0,.35-.14.7-.14,1.05,0,1.47,0,2.95-.07,4.35,0,.56-.49,1.05-.7,1.54l-.42-.14c.35,1.54.77,3.09,1.12,4.56-.21.07-.42.14-.63.21-.35-.7-.91-1.47-.98-2.18-.07-3.65,0-7.37,0-11.16h.07ZM49.49,208.2v4.56c.77-.14,1.4-.21,1.68-.28-.35-1.12-.63-2.11-.98-3.09,1.54-.49,2.04-.07,1.97,1.19,0,.63,0,1.26.07,1.97h.42v-4.35h-3.16Z"/>
      <path d="M63.6,212.13h13.83c-.63,1.54-1.4,2.46-3.23,2.32-2.81-.21-5.62,0-8.56,0v5.33h4.35c-1.68,1.54-2.81,3.02-5.05,2.74-1.4-.21-2.88,0-4.49,0v-10.32h1.97v2.81c0,2.04,0,4,.14,6.04,0,.35.35.7.56,1.05.14-.35.49-.7.49-1.12v-8.7h0v-.14Z"/>
      <path d="M38.47,171.14v-3.44h20.29v3.44h-20.29Z"/>
      <path d="M149.24,149.73h-2.18v-14.04h-16.36c0-.84,0-1.4.07-2.11h17.48c.35,0,.91.49.91.77v15.3h0l.07.07Z"/>
      <path d="M143.13,213.26c1.12.77,1.4,2.04.84,3.72-.14.42-.28.84-.49,1.4-.49,0-1.12.07-1.75.14-.14-.49-.21-.98-.35-1.54-.7.42-.35,2.18-1.83,1.47v-8.7c-.28-.14-.63-.35-1.05-.56,0-.14.07-.21.14-.35h7.79v-9.06h2.04v9.76c-.42.14-.91.21-1.33.35,1.47.56.49,1.61.63,2.32h-2.53c.07-.21.21-.63.28-.98-1.26-.28-2.11,0-2.04,1.47,0,.21-.14.42-.28.63-.77,1.33-.7,2.95.21,4-.07-1.4-.14-2.74-.28-4.07h0Z"/>
      <path d="M151.34,156.19c-2.04-.42-4.07.07-6.18-.21,0-.49,0-.98-.07-1.54h7.72c.07,1.26.14,2.46.21,3.79h-21.2v-1.26h4.63v-.49c-1.4-.84-3.16,0-4.63-.49v-1.54h5.55c.14.84.21,1.68.35,2.46,1.9.42,4.28.21,5.41-.56h-4.49c0-.7-.07-1.19-.14-1.83h5.19c0,.07.14.21.14.35.42,2.32.35,2.32,2.81,2.25,1.54,0,3.09-.07,4.7-.14v-.63h0v-.14Z"/>
      <path d="M156.75,143.97v-2.11c.7,0,1.33,0,1.9-.21.49-.21.91-.7,1.33-1.05,0-.14,0-.28-.07-.35h-1.19c-.63.07-1.26.21-1.83.28-.07-.7-.21-1.4-.28-2.04,2.6-.49,3.44-.35,4.42.98.14-.77.21-1.33.35-2.04h-5.33v9.13h.42c.07-.56.21-1.19.35-1.97h1.19c-.07.84-.21,1.54-.28,2.25h-3.23v-9.06c0-.35.49-.98.84-1.05,2.25-.07,4.42,0,6.81,0v3.72c1.05-.42,1.33-1.05,1.33-1.97-.07-1.33.77-1.83,2.18-1.83-.42.42-.77.84-1.12,1.33,0,0,0,.07.07.14.35-.21.7-.42.98-.56.14,0,.21.14.35.21-1.9,1.12-1.47,3.09-2.11,4.7-.14.42-.28.84-.49,1.12-.21.21-.63.14-1.19.28.07.28.21.91.35,1.54.21,1.47-.98,1.4-2.18,1.54v-4.49h-.35c-.14.35-.28.7-.35,1.12v2.74c0,.28-.35.49-.56.7-.14-.21-.35-.49-.42-.7v-2.25c-.56,0-1.12-.07-1.75-.14h-.14ZM161.52,146.36c.21-1.54.35-2.88.49-4.07-1.54.7-.91,2.25-.98,3.51,0,.21.35.42.49.56h0Z"/>
      <path d="M45.42,150.92v5.69h.42v-7.23c-2.25-.14-4.56-.21-6.88-.35v.35c.56,0,1.12,0,1.68.21.28.07.56.42.84.63-.28.28-.49.7-.84.77-.63.14-1.33,0-2.11,0v-4.28c2.67.21,5.26.42,7.86.77.28,0,.63.63.63.98-.14,2.88-.28,5.83-.42,8.84h-7.93v-5.9c2.18-.14,4.35-.28,6.81-.42h0l-.07-.07ZM44.43,152.18h-3.65v2.25h3.51c0-.84,0-1.54.14-2.25h0Z"/>
      <path d="M51.31,82.97v15.09h-3.65v-15.09h3.65Z"/>
      <path d="M124.88,94.2v10.6h4.49v1.33c-1.68.07-3.3.14-5.48.21-1.19-.63-1.97-1.9-1.83-4.07.21-3.58,0-7.16,0-10.88h7.02v2.74h-4.21v.07Z"/>
      <path d="M34.05,138.15v-9.69h2.11v10.04c-3.72-.35-7.51.21-11.37-.28.14-.35.21-.49.21-.49,2.11,0,4.07-1.33,6.25-.98.28,0,.98-.49.98-.77.07-2.04,0-4.07,0-6.32h-9.48c-.84,0-1.61,0-1.61-1.33h8.99c2.04,0,3.02,1.05,3.02,3.09v5.48c0,.42.14.84.14,1.26h.77Z"/>
      <path d="M123.33,161.03c2.46-2.74,2.53-2.74,5.69-2.39v9.55h-4.35c.14-.98.21-1.83.35-2.81h-6.6l-.28-.35c1.12-1.12,2.25-2.18,3.51-3.37-.35-.14-.7-.21-1.05-.35v-.42c.56,0,1.05,0,1.68.07-.14-.35-.28-.7-.63-1.4.7.63,1.19,1.05,1.68,1.47h0ZM126,162.64c-.91-.21-1.61-.42-2.32-.63l-.21.56c.84.49,1.61,1.19,2.46,1.33.42.07,1.05-.84,1.54-1.33-.14-.14-.21-.35-.35-.49-.42.21-.91.49-1.12.56h0ZM122.21,162.08c-.77.7-1.33,1.26-1.97,1.83,0,0,.07.14.14.14.49-.28.98-.56,1.54-.91.21,1.68,1.33.91,2.46.98-.91-.84-1.54-1.4-2.25-2.04h.07Z"/>
      <path d="M74.9,209.82c0-2.25-1.19-3.37-2.88-2.53.7.7,1.4,1.33,2.11,2.04,0,.14-.14.35-.14.56h-3.23c-1.83,0-3.65-.07-5.48,0-1.19,0-1.9-.21-2.04-1.54,0-.35-.21-.77-.7-1.12v2.18q.14,1.68-1.47,1.61h-.63v-4.35h17.76c.35.7.56,1.05.77,1.47.14.35.42.77.35.98-.14.35-.63.7-.98.7-1.19.07-2.39,0-3.58,0h.14ZM70.27,209.04c-.42-1.19-.49-2.32-1.97-2.11-.21,0-.35.56-.49.77.77.35,1.47.77,2.46,1.26h0v.07Z"/>
      <path d="M131.48,61.14v-1.68h18.25c.07-1.19.14-2.11.21-3.09h7.44v1.9c-1.26,0-2.46.21-3.65.14-1.26,0-1.83.49-1.75,1.68,0,.28-.07.63-.14.98h-20.36v.07Z"/>
      <path d="M64.37,74.27v-17.69h2.95v15.79c0,1.33-.7,1.97-2.04,1.9-.28,0-.56,0-.84-.07l-.07.07Z"/>
      <path d="M129.02,59.67v2.81h-3.65v5.55h3.72c0,.56,0,1.05.07,1.61h-7.09v-9.97s6.95,0,6.95,0Z"/>
      <path d="M40.78,43.24v10.46h-1.26v-11.86h5.62c7.79,0,15.51,0,23.31.14,1.12,0,2.18.49,3.3.77,0,.14,0,.35-.07.49h-30.89Z"/>
      <path d="M54.12,164.4v-5.19h-5.05v-.49h9.41c0,.28-1.05.7-3.3,1.19-.14,2.18-.21,4.28-.35,6.53h-16.29v-2.04h15.58Z"/>
      <path d="M31.66,156.54c.14.56.14,1.33.49,1.61.49.35,1.26.28,1.97.35.35-.98,0-2.39,1.83-1.9.21,12.99.42,26.04.63,39.03h-.49c-.14-1.05-.42-2.11-.42-3.09v-19.02c0-1.19,0-2.25-.56-3.44-.84-1.68-1.33-3.58-1.68-5.48-.14-.63.49-1.47.77-2.25.21-.49.49-.91.63-1.33.28-1.47,0-1.75-1.47-1.83-1.61-.07-1.75-.35-2.04-2.67.14,0,.21-.07.35-.14h0v.14Z"/>
      <path d="M48.37,219.08c.84.21,1.54.49,2.32.49h5.9c.98,0,1.33-.35,1.33-1.33v-14.11c.49.35,1.12.63,1.12.84v17.34c-2.74,0-5.26.07-7.72,0-1.33-.07-3.09-2.32-2.88-3.23h-.07Z"/>
      <path d="M29.27,145.73c-.28.7-.49,1.33-.84,2.25,1.75.07,3.44.21,5.19.28-.14.21-.14.49-.21.49-1.47.07-3.02.14-4.49.14-.21,0-.49-.42-.56-.63-.7-1.9-1.33-3.79-2.11-6.04,3.37.14,6.6.35,9.76.49v.35h-8v.42h7.79v.42h-7.93c0,.7.07,1.12.14,1.4.84-.21,1.47-.49,2.11-.49h6.04v6.67h-6.25c0-.63-.14-1.33-.21-2.04h3.72c.07.49.21,1.05.28,1.61h.28v-4c-.49-.07-.98-.14-1.54-.28v-.42c.7,0,1.4-.07,2.39-.14v4.77h.42v-5.19h-6.04l.07-.07Z"/>
      <path d="M158.92,157.31c-1.12,2.39-1.05,5.26-2.88,7.58.63,2.18-1.26,4.14-1.47,6.39v-19.3h6.04c-.42,1.26-.77,2.39-1.05,3.23-1.33-.14-2.39-.28-3.51-.42v4.21h.42c.07-.91.14-1.83.28-3.02.77.49,1.33.84,2.18,1.4h0v-.07ZM155.76,152.82c.28,2.11,1.83.84,2.74,1.19.21.07.63-.56.98-.84-.07-.14-.14-.21-.28-.35h-3.44Z"/>
      <path d="M129.37,52.23c0,.7.07,1.26.14,2.11h-17.62c0-.42-.14-.98-.21-1.47h-.56c0,.56,0,.98.07,1.54h-1.19c.21-2.04.42-2.25,2.25-2.25h15.86c.28,0,.63,0,1.12.07h.14Z"/>
      <path d="M147.41,161.87c.07.49.14,1.12.28,1.75.7,0,1.4-.07,2.11-.14v9.9c-.14,0-.28.07-.42.07-.14-.35-.42-.77-.42-1.12,0-2.04-.14-4.14,0-6.18,0-1.19-.28-1.83-1.9-1.83.28.63.56,1.19.77,1.75.14.49.21.98.21,1.47v5.76c-.49,0-1.12,0-1.9.07v-7.51c-.63-.84-.98-1.68-1.61-2.11-.63-.42-1.47-.49-2.25-.49-1.19,0-2.39,0-3.23-1.4h8.35Z"/>
      <path d="M82.48,65.21h-5.55c-.21-2.88-.42-5.69-.56-8.63h3.93c.77,0,1.47,2.18.84,2.67-1.05.84-.28,1.47,0,2.25.49,1.12.84,2.32,1.33,3.65h0v.07Z"/>
      <path d="M43.87,53.77h-1.75v-5.9h10.74v5.9h-1.9v-3.37h-7.16v3.44h0l.07-.07Z"/>
      <path d="M107.47,71.32h3.58v17.9c-.77-.91-1.97-4.07-2.11-6.39-.14-2.39-.14-4.84-.35-7.23,0-.49-.56-.91-.63-1.33-.21-.91-.35-1.9-.49-2.95h0Z"/>
      <path d="M58.75,148.96v7.37c0,.28-.49.7-.84.77h-4.91c-.77,0-1.19-.28-1.12-1.12.14-1.97.14-4,.35-5.97,0-.35.56-.91.91-.91,1.83-.07,3.65,0,5.62,0h0v-.14ZM53.77,150.64v3.93h4.14v-3.37c-1.33-.21-2.67-.35-4.14-.56Z"/>
      <path d="M129.44,186.65c-1.26.07-2.46.14-3.65.21-.14.7-.28,1.33-.42,2.04h-.35v-2.32c-.42.42-.77.63-.98.91-.14.14,0,.49-.14.63-.21.28-.49.42-.7.63-.07-.28-.28-.56-.28-.77,0-.35.14-.7.21-1.05-1.75-.63-.42,2.25-2.18,1.75,0-.56.07-1.12.14-1.75-1.61-.49-.42,1.75-1.68,1.83v-1.83h-2.46c-.49.7-.84,1.26-1.26,1.83-.14-.63-.28-1.19-.42-1.83h-2.11c-.42.7-.7,1.26-1.05,1.83-.21-.56-.35-1.19-.56-1.9-1.33-.28,0,2.6-1.83,1.75-.07-.7-.14-1.4-.21-2.11-.28,0-.49,0-.77.07.07,1.19.14,2.39.28,3.72-.63,0-1.47.14-2.25.14l-.21-.42c.49-.35.91-.7,1.4-1.05-1.12-.77-.98-2.18,0-3.65.91.28,1.68.63,2.46.63h17.9c.42,0,.77.07,1.19.14v.63h0l-.07-.07Z"/>
      <path d="M145.1,41.84c.98-.14,2.11-.28,3.3-.49v12.35h-3.37v-5.97h1.4c.28,0,.56-.28.77-.49-.28-.14-.49-.42-.77-.49-.42,0-.77,0-1.4.07v-4.98h.07ZM145.8,51.87c-.14.14-.28.28-.42.49.35.42.7.77,1.12,1.19.28-.49.63-.98,1.12-1.83-.98,0-1.4.14-1.83.14h0Z"/>
      <path d="M106.49,196.62v-1.47h22.67v1.47h-22.67Z"/>
      <path d="M117.51,192.27c-.07.7-.14,1.19-.14,1.68h-11.16c0-.84.07-1.54.07-1.97h9.9c.14-.77.91-.84,1.97-.84,3.37.07,6.67,0,9.97,0,.42,0,.77.35,1.12.56-.42.14-.84.42-1.19.42h-10.53v.14Z"/>
      <path d="M28.78,53.77h-7.09v-.21h5.05v-2.95c0-1.26,1.4-2.95,2.6-3.02,2.81-.07,5.55,0,8.42,0v2.39h-8.99v3.79h0Z"/>
      <path d="M121.72,172.61h-4.14c-.21-.7-.28-1.12-.42-1.68h11.93v3.16h-15.93c.28-.49.49-.98.56-1.05h7.93v-.35h0l.07-.07ZM122.21,170.93c-.21,1.54.28,2.18,1.4,2.25h5.19v-.42c-2.18-.7-4.84.77-6.53-1.83h-.07Z"/>
      <path d="M36.15,125.44v2.11h-13.69q-2.04,0-2.32-2.11h16.07-.07Z"/>
      <path d="M131.76,153.59v-1.47h21.06c0,.49,0,.98.07,1.47h-21.2.07Z"/>
      <path d="M53.98,201.6h-2.04v-4.07c0-.84-.21-1.26-1.19-1.19-1.05.07-2.11,0-3.3,0v5.19c-.63,0-1.12,0-1.75.07v-6.74h8.28v6.74Z"/>
      <path d="M44.71,40.22c7.58-1.97,15.16-2.32,22.81,0v.35h-22.74v-.35h-.07Z"/>
      <path d="M111.12,59.6v9.97h-3.51c.14-3.02.28-6.11.49-9.13,0-.28.56-.7.91-.84.63-.14,1.26,0,2.04,0h.07Z"/>
      <path d="M43.66,122.14c0,.98.14,1.9.21,2.88h6.88c0-1.05.14-1.97.21-2.88h1.4v4.91h-2.67c-2.18,0-4.28-.07-6.46,0-1.12,0-1.4-.56-1.47-1.4v-3.51h1.9Z"/>
      <path d="M110.91,178.37c.63-2.53.77-2.6,3.16-2.67h3.09v.98c0,1.47.35,1.61,1.83,1.61h9.27c.28,0,.56.35.91.56-.28.21-.63.63-.91.63-3.44,0-6.95.42-10.18-.35-2.39-.63-4.77-.28-7.16-.77h0Z"/>
      <path d="M149.52,42.12c1.47.21,2.04.91,1.97,2.46-.14,1.75,0,3.44,0,5.26.49,0,.91,0,1.33-.07v3.93h-3.23v-11.58h-.07Z"/>
      <path d="M37.77,50.54v3.23h-8.28v-3.23h8.28Z"/>
      <path d="M71.81,65.21h-2.81v-8.56h2.81v8.56Z"/>
      <path d="M154.29,133.02v-1.9h13.62c-.14,1.19-.49,1.97-1.97,1.9-3.86-.07-7.72,0-11.65,0h0Z"/>
      <path d="M55.74,217.54v-13.06c.91-.28,1.26-.14,1.26.77,0,4.07,0,8.14.07,12.21,0,.77-.35,1.05-1.05,1.05h-4.49c-.21,0-.49-.28-.7-.42.21-.21.49-.56.7-.56h4.21Z"/>
      <path d="M49.84,157.24v-11.09h8.28c.21,0,.56.56.56.84s-.49.63-.77.63c-1.83.14-3.65.21-5.48.21s-1.61.49-1.54,1.68c.07,2.18,0,4.28.07,6.46,0,.7,0,1.4-1.05,1.33l-.07-.07Z"/>
      <path d="M146.36,175.28v5.26h.49v-5.19h2.46v6.95h-3.44v-6.95c.14,0,.35,0,.56-.07h-.07Z"/>
      <path d="M62.9,65.14h-2.67v-8.56h2.67v8.56Z"/>
      <path d="M81.5,204.34c0,.77-.28,1.12-1.12,1.12h-18.88c-.42,0-.77-.35-1.12-.56,0-.14.14-.35.21-.56h20.99-.07Z"/>
      <path d="M154.29,135.48v-1.75h12.57c-.07,1.26-.56,1.83-1.97,1.75-3.02-.07-6.04,0-9.06,0h-1.54Z"/>
      <path d="M151.34,180.97c2.53,0,1.4,1.83,1.83,2.88-1.19.14-2.25.35-3.37.35h-3.58c-.28,0-.56-.63-.98-1.19,2.25.21,4,.35,6.32.49-.42-.7-.63-1.05-.84-1.4-.28-.42-.77-.84-.84-1.33-.14-1.33,0-2.74,0-4.14,0-1.05.21-1.54,1.33-1.4.49,0,1.05,0,1.68.21-1.61-.14-1.54.84-1.47,1.9v3.72h0l-.07-.07Z"/>
      <path d="M118.28,49.35c.42.42.84.91,1.33,1.33-.28,0-.7,0-.91-.21-1.19-1.05-2.32-2.18-3.65-3.09.98,1.12,1.9,2.25,2.95,3.58h-6.53c.49-2.04,3.51-5.97,6.25-7.93-.63.77-1.19,1.54-1.83,2.32-.49.63-.63,1.26.07,1.9.77.63,1.54,1.4,2.25,2.11h.07Z"/>
      <path d="M58.54,130.14v9.41h-1.9v-13.83c.35.35.7.49.7.77.07.7,0,1.33,0,2.04,0,.84,0,1.68,1.19,1.61h0Z"/>
      <path d="M147.97,85.22h4.49v1.97c-.28,0-.56.07-.84.07-1.83,0-1.75,0-1.83,1.83,0,1.12.35,1.47,1.4,1.33.21,0,.49-.07.7,0,.28.14.56.35.77.56-.28.21-.49.56-.77.56h-3.93v-6.39h0v.07Z"/>
      <path d="M38.54,161.31h9.2v2.18h-9.2v-2.18Z"/>
      <path d="M118.42,175.84h10.6c.35,1.68.28,1.75-1.33,1.75h-8.63c-.21-.56-.42-1.19-.63-1.75h0Z"/>
      <path d="M142.43,39.8c1.05-.07,1.47.14,1.47,1.05-.07,4,0,7.93-.14,11.93,0,.42-.42.84-.63,1.26-.21-.42-.7-.77-.7-1.19v-13.06h0Z"/>
      <path d="M129.3,181.6h-11.79c-.35,1.61-.77,2.39-1.33,2.39-.21-2.39.84-3.58,3.16-3.58h9.69c0,.14.14.56.28,1.19h0Z"/>
      <path d="M24.85,124.11c0-.7.07-1.33.14-1.97.91.14,2.04-.56,2.32.49.42-.21.84-.42,1.47-.77.14.84.21,1.33.28,1.83h.28c.07-.56.14-1.05.28-1.75,1.05,0,2.11-.14,3.09,0,.42.07.7.84,1.05,1.26-.07.14-.14.28-.21.35h2.6v.35h-11.3v.21Z"/>
      <path d="M62.9,78.41h-2.74v-6.25h2.74v6.25Z"/>
      <path d="M129.16,189.25c.28.84.14,1.26-.77,1.26h-11.65c-.07-.42-.21-.84-.28-1.26h12.78-.07Z"/>
      <path d="M115.12,180.4v3.58h-2.11c0-.63,0-1.19.07-1.97h-3.23c-.35.77.56,2.39-1.33,2.11.14-.49.42-.91.42-1.33,0-1.83.91-2.67,2.67-2.6,1.05,0,2.11.07,3.16.14,0,0,.07,0,.28.14h0l.07-.07Z"/>
      <path d="M75.74,56.58v5.69c-.84.07-1.68.14-2.67.28-.14-2.04-.21-3.93-.35-5.97h3.02Z"/>
      <path d="M158.43,118.56v3.02c.49.07.98.14,1.61.28v2.6h-2.6v-5.76h-3.09v-.42c1.83-.63,3.79.28,5.76-.35v2.53c0,.28-.35.49-.56.7-.21-.28-.56-.49-.56-.77-.07-.63,0-1.26,0-1.9h-.56v.07Z"/>
      <path d="M67.25,157.38h-6.04c-.21,0-.42-.35-.63-.56.21-.14.42-.42.63-.42h3.51c0-.14,0-.28.14-.35-.42-.14-.77-.42-1.19-.49-.84-.07-1.61,0-2.46-.14-.28,0-.63-.56-.7-.84,0-.14.42-.63.7-.7h3.44c.28,0,.7.35.91.63.56.77.98,1.61,1.68,2.81h0v.07Z"/>
      <path d="M139.83,56.3c0,.7,0,1.19-.07,1.83h-8.28v-1.83h8.35Z"/>
      <path d="M128.81,182.37c.42,1.19,0,1.47-.91,1.47h-9.69c-.28-.77-.21-1.47.98-1.47h9.62Z"/>
      <path d="M115.4,169.66c.49-.28.91-.7,1.4-.7h11.23c.35,0,.77.35,1.12.56-.35.21-.77.56-1.12.56h-12.42c-.07-.14-.14-.28-.21-.49h0v.07Z"/>
      <path d="M51.73,134.71v4.49c0,.21-.56.63-.91.63-.7,0-1.75.42-1.97-.7-.21-1.26-.21-2.53-.21-3.79s.42-.56.7-.63c.7-.07,1.4,0,2.39,0h0Z"/>
      <path d="M38.54,158.64h9.06v1.54h-9.06v-1.54Z"/>
      <path d="M31.8,155.55c0-.7.07-1.4.14-2.18h-.21c-.14.7-.21,1.47-.35,2.18h-.35c-.49-.91-.91-1.9-1.61-3.3h5.83c.35,0,.84.56.91.91.14.77,0,1.54,0,2.32-.77,0-1.19-.77-1.19-2.46-.21.84-.35,1.68-.56,2.6h-.42c0-.56-.07-1.05-.14-1.61,0-.35-.14-.63-.28-.98-.28.28-.63.42-.77.77-.28.56-.35,1.12-.56,1.75h-.49.07Z"/>
      <path d="M70.9,218.73h-4.28c.14-1.19-.14-2.81.49-3.3.63-.49,2.39-.35,3.16.21.56.42.42,1.9.56,3.09h.07Z"/>
      <path d="M131.55,214.03v-1.9h6.32c0,.56,0,1.19.07,1.9h-6.39Z"/>
      <path d="M63.95,99.4v6.11c-.91.35-1.54,0-1.54-.84v-3.3c0-.28-.07-.7-.28-.77-.21-.14-.63-.07-.84.07-.21.14-.28.49-.42.77h-.42c-.14-.63-.28-1.33-.49-2.11h4.07l-.07.07Z"/>
      <path d="M149.31,209.39v-9.55h2.53c.49,1.61-.56,1.9-2.25,1.9.84.49,1.33.77,2.04,1.19-.77.14-1.19.28-1.61.35v.42c.35.07.7.21,1.4.35-.7.49-1.19.84-1.75,1.33.28.28.56.49.91.77-.35,1.05-.63,2.18-.98,3.3h-.28v-.07Z"/>
      <path d="M141.3,57.98c0-.56,0-1.05.07-1.61h6.95v1.61h-7.02Z"/>
      <path d="M61.91,95.33h5.12c-.14.91,0,2.11-.42,2.32-.91.49-2.11.56-3.16.63-.28,0-.63-.77-.84-1.26-.28-.49-.42-1.05-.7-1.68h0Z"/>
      <path d="M148.04,83.39v-2.6h4.28s.14.14.14.28c.14,1.54-.56,2.32-2.11,2.32h-2.32Z"/>
      <path d="M161.31,149.59h-5.69v.63h5.41v.49h-6.39v-2.74h7.02v.35h-5.9v.56h5.69v.7h-.14Z"/>
      <path d="M118.56,193.74c.42-.21.77-.63,1.19-.63h8.77c.28,0,.49.35.77.49-.28.21-.49.63-.77.63h-9.69c-.07-.14-.14-.35-.21-.49h-.07Z"/>
      <path d="M63.46,210.59h14.88c-.63.7-13.2.84-14.88,0Z"/>
      <path d="M31.31,45.77c1.26-.14,2.46-.28,3.79-.42,0-1.75,1.4-1.75,2.74-2.32v3.23h-6.46v-.49h-.07Z"/>
      <path d="M60.23,113.16v-5.83c.98.07,1.9.21,3.16.35-.35.77-.49,1.47-.84,2.04-.7,1.12-1.47,2.25-2.32,3.51h0v-.07Z"/>
      <path d="M31.87,130.85v4.63c0,.28-.49.77-.77.77-.77.14-1.61.07-2.46,0-.21,0-.42-.35-.63-.49.14-.14.35-.49.56-.49,1.97.35,1.83-.98,1.9-2.25,0-.42.07-.84,0-1.26-.14-.98.28-1.33,1.4-1.05h0v.14Z"/>
      <path d="M160.75,48.01c.77.56,1.47,1.05,2.39,1.61-1.33.77-2.46.91-3.72.35-.35-.14-.98.14-1.47.21h-2.53v-.35c-.21.14-.42.35-.7.56-.14-.28-.35-.63-.63-1.19h6.18c.14-.42.35-.7.49-1.12h0v-.07Z"/>
      <path d="M53.21,160.33v3.09h-3.65c-.21,0-.35-.42-.56-.63.21-.14.42-.49.63-.49.7-.07,1.33,0,2.04,0,.21,0,.35-.42.56-.63-.21-.14-.42-.35-.63-.35h-2.18c.14-1.19.7-1.33,3.79-.91h0v-.07Z"/>
      <path d="M162.15,50.96c0,.42-.07.84-.07,1.26h-3.79v.42c.56,0,1.19.14,1.75.14s1.33,0,2.04.14c-1.47.21-2.88.35-4.42.56,0-.49-.07-.98-.14-1.61h4.07v-.35c-1.19,0-2.39-.14-3.51,0-1.05.14-2.11.56-3.37.84v-1.47h7.58l-.14.07Z"/>
      <path d="M145.17,167.42c.14,1.97.21,3.93.35,5.97h-1.83c.35-2.04-.63-4.21.77-6.04h.7v.07Z"/>
      <path d="M42.61,214.8c-.07-.98-.21-2.04-.21-3.02v-7.37c.14,0,.28-.14.49-.14.14.35.49.7.49,1.05v9.41h-.7l-.07.07Z"/>
      <path d="M25.69,139.48h10.88c-1.68.98-10.25.84-10.88,0Z"/>
      <path d="M129.16,112.1c-.49-2.11-2.67-2.81-3.79-4.49h3.79v4.49Z"/>
      <path d="M14.25,62.26v4.28h-3.02c.98-1.54,1.83-3.02,2.74-4.42.07,0,.21.07.35.14h-.07Z"/>
      <path d="M60.16,70.55v-2.74h2.67c.56,2.95.35,3.16-2.67,2.74Z"/>
      <path d="M20.43,124.11c-.35-2.04-.14-2.25,1.75-1.9,0,.35.14.7.14,1.12h.21c.14-.42.21-.77.35-1.26h1.4c0,.63.07,1.26.14,1.97h-4v.07Z"/>
      <path d="M48.86,197.6c.7,0,1.26,0,1.9.07v3.93h-1.9v-4.07.07Z"/>
      <path d="M157.52,61.21c-1.12,0-2.18.14-3.3,0-1.33-.14-.49-1.12-.56-1.83h3.86v1.9-.07Z"/>
      <path d="M171.42,104.03c.77.77,1.47,1.4,2.11,2.04l-.28.35c-.63-.35-1.26-.7-1.97-.98-.07.07-.14.14-.21.28.49.49.98.91,1.68,1.61-.42.28-.84.63-1.33.98-.63-.63-1.83-1.4-1.75-1.97.14-.84,1.12-1.54,1.75-2.32h0Z"/>
      <path d="M136.04,203.22c.35-.07.7-.21,1.05-.21h7.51c.28,0,.49.21.7.35-.21.14-.42.49-.56.49h-8.28c-.07,0-.21-.14-.28-.21v-.42h-.14Z"/>
      <path d="M164.26,83.32c-1.05-.56-1.33-2.67-.91-6.39.35,0,.7,0,1.19-.07-.14,2.18-.21,4.28-.35,6.46h.07Z"/>
      <path d="M129.23,154.01c0,.42,0,.84-.07,1.33h-5.05c.35-1.68,2.32-2.18,5.12-1.33Z"/>
      <path d="M131.62,216.06h5.69c.21,0,.42.35.63.49-.21.21-.35.56-.56.56-1.75,0-3.58.07-5.33,0-.28,0-.49-.49-.77-.7.07-.14.21-.28.28-.35h.07Z"/>
      <path d="M134.64,218.59h-2.6c-.21,0-.42-.35-.63-.56.21-.21.42-.56.63-.56h5.05c.21,0,.42.35.7.63-.21.14-.42.42-.7.42h-2.46v.07Z"/>
      <path d="M54.33,216.13h-5.76c-.35-.84-.21-1.19.77-1.19h4.21c.98,0,1.12.35.84,1.26l-.07-.07Z"/>
      <path d="M134.64,214.52h2.6c.21,0,.42.28.56.42-.14.14-.35.49-.56.49-1.75,0-3.58.07-5.33,0-.14,0-.35-.35-.49-.49.21-.14.35-.42.56-.42h2.67Z"/>
      <path d="M140.6,47.59c-.84.14-1.68.28-2.18.35-.14-.42-.35-.7-.35-.98,0-.56,0-1.26.35-1.61.28-.28,1.05-.42,1.47-.28.28.07.35.77.49,1.26.07.35.14.77.21,1.26h0Z"/>
      <path d="M163.21,53.49c0-.77-.07-1.4,0-2.11,0-.42.42-.77.63-1.12.49.28,1.12.49,1.33.91.77,1.68.07,2.46-1.97,2.32Z"/>
      <path d="M152.89,48.86c-1.26-1.61-.28-3.65-.77-5.41l.42-.21c.28.35.77.63.77.91.07,1.54,0,3.09,0,4.56-.14,0-.35,0-.49.14h.07Z"/>
      <path d="M170.23,119.82h1.97c-.28.84-.49,1.61-.77,2.32s-.56,1.4-1.19,2.04v-4.35h0Z"/>
      <path d="M39.03,204.34h2.18v2.81c-1.68.14-1.97-.14-2.18-2.81Z"/>
      <path d="M110.35,190.02c.28-.28.56-.7.84-.77,1.33-.07,2.6,0,4,0,0,.77.14,1.33-.84,1.26h-3.65l-.35-.49h0Z"/>
      <path d="M58.68,163.49h-2.32v-2.11h2.32v2.11Z"/>
      <path d="M56.37,164.47h2.32v1.9h-2.32v-1.9Z"/>
      <path d="M158.43,127.62c-.35-2.32-.28-2.39,2.18-2.11v2.04c-.49,0-.77.07-1.12.07h-1.05Z"/>
      <path d="M122.91,156.75c.42-.14.77-.42,1.12-.42,1.47,0,3.02,0,4.49.07.21,0,.42.28.63.35-.14.14-.35.49-.49.49h-5.62c0-.14-.07-.35-.14-.56h0v.07Z"/>
      <path d="M121.86,166.15c.7-.07,1.4-.14,2.04-.28.14,2.32-.14,2.67-2.04,2.18v-1.97.07Z"/>
      <path d="M126.42,150.99c.42-1.4,1.05-2.25,2.74-1.68v1.68h-2.74Z"/>
      <path d="M129.23,80.44v1.26h-2.74c-.28,0-.49-.42-.7-.56.21-.21.42-.63.63-.63.84-.07,1.68,0,2.74,0l.07-.07Z"/>
      <path d="M73.71,49.35h-2.25v-1.68c2.25-.49,2.39-.42,2.25,1.68Z"/>
      <path d="M60.72,149.31c1.4-.07,2.32.49,2.74,1.83h-2.74v-1.83Z"/>
      <path d="M129.16,64.3c0,.63,0,.98-.07,1.47h-2.74c0-.35,0-.77-.07-1.33.98,0,1.9-.14,2.95-.14h-.07Z"/>
      <path d="M129.09,103.89c-.7,0-1.4.07-2.11,0-.28,0-.49-.56-.77-.77.28-.21.49-.63.77-.63,1.75-.21,2.32.21,2.11,1.47h0v-.07Z"/>
      <path d="M64.58,153.1h-3.37c-.21,0-.49-.42-.7-.63.21-.14.42-.42.7-.42.84,0,1.61-.14,2.46,0s.77.49,1.12.77l-.14.35h0l-.07-.07Z"/>
      <path d="M119.19,168.19c-.14-2.25,0-2.46,1.9-1.97,0,1.83-.28,2.18-1.9,1.97Z"/>
      <path d="M44.71,134.28h2.11c-.21.84-.28,1.61-.56,2.39,0,.07-.7.14-.7.07-.28-.77-.56-1.47-.84-2.46h0Z"/>
      <path d="M125.23,153.1c.42-1.54,1.47-.98,2.25-1.05.56,0,1.12.28,1.75.49-.56.21-1.12.42-1.68.49-.7.07-1.4,0-2.25,0h0l-.07.07Z"/>
      <path d="M46.96,51.45v2.25h-1.54v-2.25h1.54Z"/>
      <path d="M34.54,110.98c.56.63.98,1.05,1.47,1.54-.63.7-1.05,1.54-2.11.56-1.05-1.05.14-1.33.63-2.11Z"/>
      <path d="M144.6,217.33c.28-.98.42-2.04.84-2.88.21-.42,1.05-.56,1.54-.84.07.14.21.28.28.35-.84,1.12-1.75,2.32-2.6,3.44,0,0-.07,0-.14-.07h.07Z"/>
      <path d="M154.5,125.16c-.07-.28-.21-.49-.21-.7v-3.65c0-.21.28-.35.42-.56.14.21.42.35.42.56v4.07c-.21.14-.42.21-.63.35h0v-.07Z"/>
      <path d="M126.21,77.22c.14-.49.14-1.26.49-1.4.42-.21,1.12-.14,1.68,0,.14,0,.28.91.21.91-.63.35-1.33.56-1.97.77l-.35-.35h0l-.07.07Z"/>
      <path d="M18.67,112.52c.7-.56,1.26-1.05,1.9-1.54.35.42.7.77.98,1.05-.91,1.68-1.26,1.75-2.81.49h-.07Z"/>
      <path d="M132.6,126h-1.12v-3.02c.42,0,.77.14,1.12.14v2.88h0Z"/>
      <path d="M82.13,68.09v2.95c-.56-.28-1.19-.49-1.4-.84-.49-1.05.49-1.47,1.4-2.11h0Z"/>
      <path d="M44.57,122.14h1.47v2.11h-1.47v-2.11Z"/>
      <path d="M126.07,100.31c.28-.84,2.6-1.47,3.09-.84.07.07-.21.77-.42.77-.84.07-1.75,0-2.67,0h0v.07Z"/>
      <path d="M156.4,120.25v4.14h-.42c0-1.4-.14-2.74-.21-4.14h.63Z"/>
      <path d="M168.05,122.77c.07-.77.14-1.47.35-2.25,0-.21.42-.56.56-.56.21,0,.56.35.63.56.14.7.21,1.4,0,2.25-.21-.42-.42-.77-.77-1.4-.42.7-.63.98-.84,1.33h0l.07.07Z"/>
      <path d="M49.63,53.7h-1.26v-2.32c.42,0,.77,0,1.26-.07v2.39Z"/>
      <path d="M128.67,95.47c.28,1.68.07,1.83-1.83,1.54-.35-1.68-.14-1.83,1.83-1.54Z"/>
      <path d="M25.76,52.09h-2.6c.98-.77,1.68-1.33,2.6-2.04v2.04Z"/>
      <path d="M49.98,123.83c-1.68.42-1.54-.63-1.54-1.68.49,0,.98-.07,1.54-.14v1.83h0Z"/>
      <path d="M165.8,53.56v-2.11c.77.63,1.4,1.19,2.32,1.97-.98,0-1.54.14-2.32.14h0Z"/>
      <path d="M151.83,186.72c.42,0,.84,0,1.26.07v6.04c-.7-2.04.63-4.28-1.26-6.11Z"/>
      <path d="M32.92,163.07c-.21-.63-.35-1.33-.63-2.11.63,0,1.19,0,1.97-.07-.35.91-.7,1.61-.98,2.32h-.35v-.14Z"/>
      <path d="M118.35,168.26c-.56-.07-.98-.14-1.47-.14.14-.42.28-.77.49-1.12s.42-.63.7-.91c.14.28.35.63.42.98,0,.35-.07.7-.14,1.19h0Z"/>
      <path d="M114.98,171c1.19-.28,1.47.28,1.19,1.33q-1.47.14-1.19-1.33h0Z"/>
      <path d="M36.57,122.14c-.49.84-2.11,1.26-2.46.77-.07-.14.14-.7.28-.7.63-.07,1.33,0,2.18,0h0v-.07Z"/>
      <path d="M24.08,135.48c1.05.07,2.11-.42,3.16.21v.56c-1.12,0-2.11-.07-3.16-.14v-.63Z"/>
      <path d="M124.6,158.64c-.56.56-.98.98-1.47,1.4-.42-.42-.77-.84-1.33-1.4h2.81Z"/>
      <path d="M140.88,165.03c-1.33,0-2.18-.14-1.47-1.9.56.7.98,1.26,1.47,1.9Z"/>
      <path d="M27.94,130.63c.63.21,1.26.42,1.83.63-.28.21-.56.56-.84.56-.56,0-1.33.14-.98-1.19h0Z"/>
      <path d="M118.63,187.14c-.28.63-.49,1.12-.77,1.68-.21-.21-.49-.42-.56-.7-.07-.7,0-1.33,1.33-.98h0Z"/>
      <path d="M71.88,217.96c0-.49,0-.98.07-1.54.56.07,1.05.14,1.83.21-.7.63-1.12,1.05-1.61,1.47-.07,0-.21-.14-.28-.14h0Z"/>
      <path d="M136.88,181.81c-.77.35-1.12.7-1.4.63-.35-.14-.56-.56-.84-.84.28-.21.63-.56.98-.56.28,0,.63.35,1.33.84h0l-.07-.07Z"/>
      <path d="M74.9,82.83c-.14,1.83-.35,2.18-1.61,2.04-1.54-.21-1.19-1.54-1.26-2.46-.14-1.05.77-1.4,1.61-1.4,1.05,0,1.47.84,1.33,1.83h-.07Z"/>
      <path d="M72.09,80.02c-.98,1.54-1.97,2.04-2.88,1.26-.35-.28-.63-1.12-.42-1.33.84-1.26,2.11-1.12,3.3.14v-.07Z"/>
      <path d="M64.23,46.75v1.75h-3.72v-1.75h3.72Z"/>
      <path d="M63.74,196.55v-2.39c0-.84.14-1.47,1.26-1.47s1.26.56,1.19,1.47v.56q0,2.18-2.39,1.83h-.07Z"/>
      <path d="M137.72,145.02v-2.04h2.6v2.04h-2.6Z"/>
      <path d="M163.49,61.14c0-.56,0-1.05.07-1.54h4v1.54h-4.14.07Z"/>
    </g>
    <ellipse cx="70.48" cy="17.27" rx="12" ry="17.13"/>
    <ellipse cx="118.98" cy="17.13" rx="12" ry="17.13"/>
    <ellipse cx="47.24" cy="18.6" rx="7.65" ry="10.6"/>
    <ellipse cx="31.1" cy="26.32" rx="6.67" ry="8.91"/>
    <ellipse cx="17.55" cy="38.89" rx="5.62" ry="8.07"/>
    <ellipse cx="5.97" cy="55.03" rx="5.97" ry="8.07"/>
    <ellipse cx="142.36" cy="18.67" rx="7.65" ry="10.6"/>
    <ellipse cx="158.5" cy="26.32" rx="6.67" ry="8.91"/>
    <ellipse cx="172.05" cy="38.89" rx="5.62" ry="8.07"/>
    <ellipse cx="183.63" cy="55.1" rx="5.97" ry="8.07"/>
  </g>
</svg>