<?xml version="1.0" encoding="UTF-8"?>
<svg id="Ebene_1" xmlns="http://www.w3.org/2000/svg" viewBox="0 0 838.28 1200.66">
  <g>
    <path d="M752.91,1064.53c-13.26-.36-25.82-1.51-37.67-6.64-20.46-8.86-29.8-26.86-23.84-48.33,2.64-9.51,7-18.65,11.5-27.5,3.69-7.26,4.9-13.49,1.26-21.49-6.2-13.65-10.42-28.18-10.99-43.31-.27-7.07.1-14.45,1.86-21.26,4.91-19.04,18.66-28.37,37.36-31.2,17.12-2.59,33.95-.41,50.36,4.51,16.93,5.08,25.01,17.73,27.7,34.5,1.67,10.41.45,20.64-2.31,30.66-2.91,10.58-6.54,20.97-9.3,31.59-.84,3.24-.65,7.26.51,10.39,2.01,5.42,5.19,10.4,7.81,15.61,4.44,8.84,7.91,17.99,8.35,28.01.66,15.26-5.84,26.72-18.81,34.49-13.65,8.18-28.93,9.39-43.78,9.97ZM718.55,931.82c1.22-.32,2.17-.77,3.11-.78,19.82-.12,39.63-.15,59.45-.31,3.29-.03,3.91,1.83,3.92,4.43.02,5.66-.21,11.33.17,16.96.11,1.59,1.94,3.06,2.98,4.59,1.56-1.19,3.93-2.08,4.53-3.64,2.12-5.58,3.95-11.32,5.29-17.14,1.75-7.58,3.98-15.27,4.13-22.95.36-18.35-8.6-31.07-23.71-35.09-13.27-3.53-26.79-5.14-40.55-4.12-22.42,1.66-34.27,13.38-35.79,35.76-1.03,15.14,3.76,29.24,8.67,43.23.62,1.77,2.94,4.06,4.56,4.13,3.36.14,3.24-3.01,3.24-5.56-.01-6.47,0-12.95,0-19.51Z" style="fill: #7bb8aa;"/>
    <path d="M778.67,504.39c2.05,2.71,4.68,6.52,7.66,10.03,2.03,2.39,2.47,4.14.17,6.75-2.95,3.35-5.36,7.18-8.36,11.29,3.28,3.76,6.89,7.44,9.89,11.56,1.22,1.68,1.99,4.54,1.48,6.48-3.42,12.93-3.55,12.9-16.64,12.91-.5,0-1,0-1.5,0-12.36,0-12.24-.04-16.35-11.62-1.19-3.36-1.14-5.8,1.5-8.47,3.36-3.4,6.28-7.25,9.41-10.94-3.76-4.92-7.29-9.53-11.06-14.46,3.6-4.88,7.12-9.67,10.09-13.7-2.8-4.94-5.29-9.45-7.95-13.85-.42-.69-1.59-1.17-2.48-1.29-11.09-1.56-18.1-8.56-23.54-17.59-5.54-9.2-8.33-19.38-8.47-29.97-.38-30.16-.35-60.32-.31-90.48,0-7.41,2.24-10.35,6.71-10.25,4.33.1,6.54,3.41,6.57,10.54.1,24.83.03,49.66.17,74.49.05,7.99.21,16.01.97,23.96.38,4.02,2.23,7.9,3.41,11.85.83,0,1.65,0,2.48,0,1.03-2.8,2.69-5.54,2.97-8.41.57-5.78.59-11.64.51-17.47-.36-26.99-.85-53.99-1.21-80.98-.04-2.98-.25-6.24.85-8.86.85-2.03,3.59-4.42,5.57-4.49,1.99-.07,4.95,2.11,5.9,4.07,1.23,2.53,1.14,5.83,1.19,8.8.48,30.49.75,60.99,1.42,91.48.1,4.49,1.77,8.99,3.11,13.36.31,1.02,2.67,2.43,3.33,2.11,1.2-.59,2.21-2.23,2.61-3.63.45-1.54.15-3.3.15-4.97-.02-32-.06-63.99-.04-95.99,0-3.33.21-6.67.57-9.97.38-3.45,2.72-5.93,5.94-5.43,2.26.35,4.98,2.52,6.05,4.62,1.19,2.33.94,5.5.95,8.31.11,32.16.08,64.33.29,96.49.02,3.77,1.26,7.54,1.94,11.31.8.03,1.6.06,2.4.1.81-3.18,2.15-6.33,2.33-9.55.74-12.8,1.39-25.62,1.57-38.43.29-21.33.17-42.66.27-63.99,0-1.82-.2-4.06.74-5.34,1.32-1.79,3.58-3.87,5.5-3.93,1.9-.06,4.42,1.85,5.65,3.61,1.11,1.59,1.14,4.15,1.12,6.28-.19,31.32-.37,62.64-.8,93.96-.08,6.12-1.2,12.23-1.95,19.37,4.76-3.33,7.07-7.28,7.86-11.85,1.33-7.7,2.87-15.47,3.02-23.24.48-23.99.33-47.99.49-71.98.02-3.49.22-7,.54-10.47.33-3.52,2.71-5.93,5.94-5.32,2.26.42,4.47,2.82,5.99,4.87.94,1.27.75,3.54.74,5.36-.15,26.99,0,53.99-.71,80.96-.37,13.86-3.16,27.48-10.05,39.85-5.59,10.03-13.52,16.77-25.53,17.67-1.09.08-2.5.85-3.1,1.74-2.61,3.89-4.99,7.94-7.96,12.77Z" style="fill: #7bb8aa;"/>
    <path d="M136.81,1066.29c1.84,2.68,3.47,5.05,5.25,7.63,4.87,1.49,10.31,2.9,15.56,4.82,4.88,1.78,6.69,5.48,5.54,10.26-1.12,4.65-4.23,6.3-8.9,6.13-8.93-.34-10.74,1.6-10.88,10.64-.2,12.81-.22,25.64-.9,38.43-.18,3.41-2.56,6.68-3.8,10.07-.6,1.64-1.24,3.39-1.25,5.09-.09,10.66.13,21.33-.13,31.98-.04,1.78-1.7,4.81-2.99,5.03-3.48.6-3.66-2.56-3.67-5.09-.06-10.64-.02-21.29-.02-32.28h-9.3c0,2.85,0,5.77,0,8.68.02,7.5.1,14.99.02,22.49-.03,2.67.79,6.43-3.51,6.34-3.84-.08-3.23-3.57-3.25-6.14-.08-8.5-.06-16.99-.07-25.49,0-1.81,0-3.62,0-5.81H40.51c0,3.94,0,8.02,0,12.1,0,6.83,0,13.66,0,20.49,0,2.37.09,5.39-3.21,4.83-1.45-.25-3.45-3.03-3.5-4.71-.35-9.98-.19-19.98-.23-29.98,0-.81-.14-1.62-.25-2.74h-6.8c0,8.83,0,17.44,0,26.06,0,2.67.31,5.4-.2,7.97-.27,1.36-2,2.44-3.07,3.64-1.04-1.07-2.39-1.98-3.02-3.25-.55-1.1-.34-2.61-.36-3.94-.04-3.66-.39-7.37.04-10.99,1.33-11.42-2.1-22.01-4.76-32.85-1.49-6.05-1.51-12.57-1.47-18.87.07-10.21,4.95-16.74,14.84-19.31,6.22-1.62,12.77-2.64,19.19-2.76,20.32-.39,40.64-.21,60.97-.27,7.98-.02,10.34-2.41,10.99-10.24.28-3.29-.81-5.41-3.6-6.95-2.16-1.19-4.22-2.55-7.5-4.56,8.86-3.38,16.68-6.37,25.14-9.6-2.55-1.23-5.22-2.54-7.91-3.8-7.06-3.31-14.55-5.91-21.09-10.04-11.62-7.34-15.63-18.34-12.12-31.58,2.99-11.28,8.75-20.86,19.22-26.9,1.71-.99,3.61-2.19,5.47-2.28,2.58-.13,6.81-.07,7.45,1.28.99,2.09.54,6.44-1.05,7.87-4.74,4.24-9.94,8.47-15.71,10.92-6.85,2.9-9.85,7.54-10.51,14.3-.76,7.77,1.39,14.59,7.73,19.51,3.29,2.56,10.34,1.51,13.38-1.83,3.22-3.52,2.38-7.33.21-11.04-.42-.72-1.22-1.31-1.37-2.06-.25-1.25-.12-2.57-.15-3.86,1.32.22,2.99-.01,3.89.72,7.62,6.23,6.82,17.54-1.47,22.89-.94.61-1.86,1.24-2.83,1.89,6.48,4.92,13.09,3.42,19.55.93,4.65-1.79,6.29-5.43,5.44-10.49-.29-1.73.81-3.71,1.28-5.57,1.41,1.61,3.63,3.01,4.1,4.86,1.94,7.66-1.73,13.44-10.41,17.41Z" style="fill: #7bb8aa;"/>
    <path d="M793.67,676.26c5.84,7.31,11.82,15.64,3.62,23.5-9.04,8.66-17.32.9-24.89-4.78-.66,4.7-.84,9.19-1.98,13.41-1.62,5.99-6.13,9.24-11.56,9.27-5.12.02-9.61-3.08-11.25-8.97-1.45-5.2-1.88-10.69-2.8-16.28-1.83,2.33-3.6,4.83-5.62,7.12-3.79,4.3-8.5,6.95-14.34,7.13-7.7.24-12.62-5.06-11.71-12.69.87-7.32,5.05-12.89,9.96-18.02,1.02-1.06,2.16-2,3.75-3.45-2.82-.67-5.37-.78-7.39-1.86-3.59-1.91-7.57-3.81-10.11-6.8-3.89-4.59-4.51-10.47-1.55-15.94,3.31-6.12,9.25-8.21,15.71-7.56,4.85.49,9.55,2.4,14.42,3.7-.84-3-2.29-6.48-2.7-10.08-.47-4.22-.92-8.79.19-12.76,2.82-10.11,14.35-12.77,21.1-4.76,3.76,4.45,6.04,10.14,8.84,15.03,9.36-10.98,17.79-13.87,25.47-8.26,6.08,4.45,6.12,11.73-.2,22.48,3.13,0,6-.14,8.85.02,11.6.67,18.61,10.39,14.93,20.72-2.22,6.22-6.93,9.1-13.35,9.46-2.3.13-4.61.23-7.39.36ZM759.04,677.65c6.77-.07,11.84-5.3,11.83-12.18-.02-6.96-5.51-12.69-12.12-12.63-6.56.06-11.77,5.5-11.82,12.34-.06,7.08,5.25,12.54,12.11,12.47Z" style="fill: #7bb8aa;"/>
    <path d="M702.15,78.52c-1.13-5.04-2.27-10.08-3.42-15.2-3.07,1.46-3.81,3.79-2.67,7.45,2.15,6.96,4.7,13.97,2.32,21.45-.33,1.03-.81,2.01-2.44,3.12-.43-1.34-1.37-2.74-1.2-4,1.12-8.27-2.97-15.22-5.64-22.48-.4-1.07-2.47-1.53-4.77-2.85,1.13,10.74,3.57,20.07-1.51,28.64-.55,0-1.1,0-1.64,0-.09-1.77-.59-3.65-.19-5.29,1.79-7.22-.25-13.85-2.71-20.44-1.16-3.1-8.8-7.63-12.03-7.13-12.65,1.93-25.3,3.93-39.21,6.1,0,5.11.03,10.87-.02,16.63-.02,1.66-.07,3.38-.5,4.96-.51,1.86-1.47,3.59-2.23,5.38-.73-1.93-1.98-3.82-2.08-5.78-.27-5.32-.05-10.66-.03-15.99,0-1.63,0-3.26,0-5.09h-5.69c0,7.54.12,14.85-.1,22.14-.05,1.62-1.3,3.21-2,4.81-.91-1.59-2.39-3.1-2.63-4.79-.88-6.26-1.14-12.61-2.1-18.86-.37-2.39-1.85-4.65-3.05-6.85-2.87-5.25-5.86-10.43-8.83-15.62-1.24-2.16-2.29-4.51-3.92-6.34-.82-.92-2.76-1.26-4.15-1.18-7.26.43-14.49,1.21-21.75,1.59-3.61.19-4.42-2.71-3.2-5.12,1.68-3.33,3.9-6.67,6.69-9.1,10.11-8.8,22.22-10.49,34.76-7.48,16.04,3.86,32.1,5.09,48.54,4,7.9-.52,15.96.33,23.87,1.21,6.8.75,11.81,4.99,16,10.23,9.86,12.32,11.09,26.54,9.46,41.39-.64.17-1.28.34-1.91.51Z" style="fill: #7bb8aa;"/>
    <path d="M755.02,1165.04c-.61,4.49-1.1,8.49-1.84,12.45-.05.25-2.05.13-3.7.21v-12.15c-5.04-.93-9.61-1.54-14.06-2.63-11.7-2.87-19.21-10.38-22.39-21.86-1.81-6.54-3.16-13.28-3.98-20.02-.9-7.36-4.9-11.31-11.72-13.06-2.15-.55-4.28-1.22-6.42-1.84.05-.45.09-.89.14-1.34,6.83-.6,13.65-1.62,20.48-1.72,21.95-.31,43.9-.3,65.85-.32,2.14,0,4.3.5,6.41.92,7.83,1.58,10.55,4.87,9.99,12.8-.46,6.46-.91,12.98-2.18,19.31-3.66,18.28-12.82,26.43-31.48,28.73-1.64.2-3.29.34-5.09.52Z" style="fill: #7bb8aa;"/>
    <path d="M9.73,39.69c24.24-4.48,46.77-8.65,69.75-12.9,0-2.65,0-4.96,0-7.27,0-4.55,2.33-6.7,6.85-6.62,2.33.04,4.72.28,6.99-.11,9.7-1.67,15.23,4.45,21.72,11.33-3.42-.2-5.89-.72-8.2-.33-1.33.23-2.39,1.95-3.58,3,1.09.98,2.03,2.48,3.3,2.83,2.15.6,4.5.49,6.78.68-.07.81.02,1.3-.14,1.4-11.12,6.98-16.34,18.48-22.71,29.19-4.55,7.64-9.83,14.85-15.46,23.26,1.79,5.07,4.17,11.79,6.54,18.51.77,2.18,1.33,4.28-1.79,5.13-2.6.71-4.93,1.01-6.09-2.26-2.22-6.25-4.54-12.47-6.87-18.84-5.58.56-11.13,1.12-17.31,1.74-.63,5.09-1.43,10.46-1.91,15.86-.32,3.53-2.29,4.6-5.38,4.27-3.27-.35-3.24-2.8-2.99-5.24.48-4.64,1.21-9.26,1.36-13.91.05-1.54-.94-3.95-2.16-4.57-6.81-3.47-12.04-8.63-15.35-15.26-4.72-9.45-8.65-19.3-13.32-29.88Z" style="fill: #7bb8aa;"/>
    <path d="M488.26,1147.15c0-6.65-.18-13.31.06-19.96.21-5.84,2.66-10.65,8.06-13.44,3.06-1.58,4.27-3.84,3.96-7.26-.24-2.64-.1-5.33.03-7.98.38-7.66,5.51-12.61,13.16-12.78,7.6-.17,13.45,5.06,14.03,12.58.1,1.33.23,2.68.1,3.99-.53,5.26.73,8.59,6.41,11.05,8.44,3.65,11.59,12.08,11.95,20.57.53,12.24.5,24.63-.78,36.79-1.29,12.31-8.18,18.88-20.39,20.42-6.64.84-13.71.51-20.28-.81-9.16-1.84-14.01-8.67-15.03-17.76-.95-8.42-1.26-16.91-1.86-25.37.19,0,.38-.02.57-.02ZM521.61,1103.39s.04,0,.07,0c0-1.16.06-2.32-.01-3.48-.32-5.38-2.76-8.09-7.31-8.21-4.82-.13-7.78,2.68-8.09,8-.18,3.13-.11,6.3.06,9.43.25,4.6,3.48,6.31,7.42,6.37,3.98.06,7.08-1.89,7.8-6.16.33-1.93.06-3.96.06-5.95Z" style="fill: #7bb8aa;"/>
    <path d="M423.77,1145.2c0-14.15-.07-28.3.05-42.45.03-3.44-.85-5.19-4.54-6.28-10.4-3.08-16.99-10.35-17.74-21.15-.74-10.73-.9-21.69.44-32.33,1.99-15.79,15.25-23.63,30.8-19.56,13.05,3.42,21.59,12.94,22.91,26.39.68,6.93.75,13.97.48,20.94-.49,12.65-6.63,21.58-19,25.14-5.69,1.64-7.13,4.49-7.12,10.2.08,27.3-.36,54.61-.62,81.92,0,.5.17,1.09-.04,1.48-.79,1.47-1.7,2.87-2.57,4.29-.76-1.38-2.16-2.74-2.19-4.13-.21-9.32-.13-18.65-.14-27.97,0-5.49,0-10.99,0-16.48-.24,0-.49,0-.73,0Z" style="fill: #7bb8aa;"/>
    <path d="M110.16,250.05c-1.29,15.19-2.15,30.18-7.77,44.34-6.73,16.94-17.48,29.64-36.94,31.6-14.92,1.5-27.59-3.2-36.86-15.48-8.49-11.25-12.15-24.38-13.8-38.05-3.04-25.17-.71-49.88,7.86-73.82,3.56-9.94,8.48-19.18,16-26.8,12.7-12.87,29.67-13.81,43.54-2.13,12.41,10.45,18.75,24.64,22.03,39.96,2.84,13.28,4.02,26.92,5.94,40.4ZM24.5,252.81c0,5.49-.37,11.01.08,16.46.97,11.71,3.64,23.01,10.06,33.08,11.1,17.43,34.43,20.17,48.32,4.91,5.06-5.57,9.25-12.94,11.15-20.19,7.83-29.84,6.82-59.72-3.91-88.76-2.68-7.26-7.36-14.3-12.69-19.96-10.08-10.71-24.14-9.64-33.4,1.8-3.42,4.22-6.26,9.04-8.61,13.94-8.9,18.54-11.54,38.39-10.99,58.72Z" style="fill: #7bb8aa;"/>
    <path d="M685.26,823.61c-4.72,11.13-9.43,22.26-14.15,33.39-.86-.13-1.71-.26-2.57-.38-1.27-13.73-2.53-27.45-3.89-42.15-5.89,2.9-11.52,5.67-18.51,9.12,4.4-12.26,6.96-23.65,14.93-32.59,14.79-16.57,41.16-15.09,53.35,3.8,5.46,8.46,8.4,18.55,12.49,27.9-.53.48-1.06.96-1.6,1.43-5.84-3.1-11.69-6.19-18.13-9.6-1.39,14.47-2.71,28.3-4.04,42.12l-2.36.32c-4.64-11.15-9.28-22.29-13.92-33.44-.54.03-1.08.05-1.62.08Z" style="fill: #7bb8aa;"/>
    <path d="M28.49,1000.19c11.34,2.96,17.43,10.18,17.83,21.48.29,8.3.06,16.63.06,25.31H4.11c.76-11.25-1.53-22.53,1.84-33.54,1.92-6.27,6.46-10.57,12.82-12.25,3.05-.81,3.87-2.06,3.87-5.07-.09-47.83-.09-95.67,0-143.5,0-2.63-.97-3.69-3.18-4.76-6.1-2.96-9.14-9.57-7.64-15.79,1.52-6.31,6.92-10.79,13.24-11,5.84-.19,11.78,4.32,13.35,10.14,1.84,6.8-.75,13.27-7.03,16.47-2.4,1.22-3.35,2.47-3.34,5.24.14,48,.16,96,.22,144,0,.98.14,1.97.24,3.27ZM25.47,826.84c-4.44-.07-8.36,3.68-8.51,8.12-.15,4.7,3.77,8.81,8.36,8.75,4.35-.05,8.15-3.97,8.18-8.44.03-4.71-3.44-8.36-8.03-8.43Z" style="fill: #7bb8aa;"/>
    <path d="M104.64,874.41c15.55-4.24,25.68,2.92,26.96,18.25.94,11.16.34,11.82-10.77,12.11-12.96.33-21.14-7.71-21.29-21.58-.22-20.31.05-40.62-.21-60.93-.05-3.63-1.09-7.49-2.59-10.83-7.3-16.18-13.67-32.66-13.14-50.72.16-5.59,2.08-11.45,4.49-16.57,2.63-5.58,8.01-8.57,14.38-8.1,6.46.48,10.57,4.59,12.82,10.42,4.19,10.87,3.15,22.11.65,32.98-2.66,11.61-6.77,22.89-10.23,34.32-.38,1.26-1.02,2.54-1.03,3.81-.07,18.8-.05,37.59-.05,56.84ZM99.07,752.95c.34,1.44.41,4.32,1.71,6.45,1.12,1.84,3.62,3.84,5.55,3.87,1.58.03,4.35-2.57,4.59-4.28.52-3.78.47-7.97-.73-11.53-.68-2.02-4.3-4.52-6.2-4.23-1.82.28-3.2,3.84-4.61,6.07-.39.62-.17,1.62-.31,3.65Z" style="fill: #7bb8aa;"/>
    <path d="M557.25,1071.38c7.79,6.97,13.95,13.89,13.43,24.55-.12,2.49,0,5,.16,7.49.39,5.81,2.05,7.26,7.81,7.08,5.49-.17,6.69-1.45,6.77-7.46.11-8.46-.81-17.11,5.54-24.17,2.3-2.55,4.38-5.3,6.55-7.96l1.97,1.18c0,3.89,0,7.79,0,11.68.01,9.49.06,18.99.04,28.48-.02,8.98-3.31,16.24-11.4,20.76-3.05,1.7-4.06,4.14-3.72,7.45,1.21,11.92,2.68,23.83,3.42,35.78.29,4.8-.01,10.18-1.92,14.46-3.21,7.21-11.39,7.11-15.2.12-1.51-2.77-2.36-6.35-2.19-9.49.7-12.79,1.77-25.57,3.01-38.33.49-4.99-.71-8.47-5.18-11.27-6.35-3.98-9.55-10.3-9.72-17.67-.3-13.48-.11-26.98-.1-40.47,0-.44.27-.88.72-2.21Z" style="fill: #7bb8aa;"/>
    <path d="M143.64,22.64c26.44,6.56,52.52,13.03,78.59,19.5-4.17,17.79-24.39,33.04-49.04,27.89-21.12-4.41-34.31-25.43-29.56-47.39Z" style="fill: #7bb8aa;"/>
    <path d="M721,201.91c2.1-4.33,4.19-8.65,6.25-12.9-3.83-4.21-7.13-9.02-11.59-12.23-2.22-1.6-6.56-.28-10.22-.28,1.39,4.29,2.55,7.88,3.71,11.47-.65.31-1.31.63-1.96.94-1.65-2.63-3.65-5.12-4.87-7.94-1.72-3.96-5-3.73-7.93-3.02-1.48.36-2.6,2.72-3.63,4.33-4.21,6.58-3.06,12.69,1.58,18.62,1.04,1.33,1.3,3.28,1.93,4.95-.4.23-.79.46-1.19.69-.76-.67-1.72-1.21-2.23-2.03-1.3-2.13-2.28-4.45-3.6-6.56-2.5-4-4.24-7.56-2.37-12.88,1.33-3.8-.34-8.66-.67-13.04-.71-.18-1.41-.37-2.12-.55-2.55,4.66-5.26,9.25-7.62,14.01-1.84,3.71-2.95,7.81-4.97,11.4-.9,1.6-3.25,2.38-4.93,3.53-.73-1.84-1.72-3.63-2.09-5.53-.27-1.39.11-3,.51-4.42,1.69-6.05,3.15-12.01-2.01-17.27-.37-.38-.26-1.23-.48-2.47,1.56.2,3,0,3.97.59,2.97,1.78,4.84.58,5.96-2.06,8.69-20.39,29.29-22.29,47.86-19.19,15.87,2.65,21.58,9.41,24.65,26.57.46,2.57-.65,5.42-1.03,8.13-.65.04-1.3.09-1.95.13-1.15-2.1-2.3-4.21-3.45-6.31-.46.22-.92.43-1.38.65,1.23,2.66,1.96,5.76,3.81,7.86,2.56,2.89,2.04,5.08.18,7.82-1.71,2.52-3.12,5.25-4.67,7.89-.59-.23-1.19-.45-1.78-.68.53-1.53.84-3.17,1.61-4.57,3.92-7.08,3.96-7.05-1.59-11.57-2.98,5.58-6.08,11.38-9.18,17.18-.84-.42-1.67-.84-2.51-1.26Z" style="fill: #7bb8aa;"/>
    <path d="M62.67,541.76h-6.22v12.14c-7.98,1.9-8.56,1.92-11.32-5-3.06-7.68-5.56-15.59-7.94-23.51-.63-2.1-.25-4.66.21-6.9,1.55-7.52,7.52-10.02,13.77-5.67,2.42,1.68,4.52,3.92,6.41,6.21,1.76,2.13,3.05,4.64,4.49,6.9,2.99-3.82,5.47-8.08,9-11.13,2.5-2.15,6.65-4.05,9.65-3.55,4.36.72,6.73,5.26,6.53,9.57-.26,5.9-1.37,11.82-2.73,17.59-.9,3.84-3.09,7.36-4.3,11.15-1.48,4.65-4.19,6.48-9.34,4.62v-12.21c-1.79-.13-3.21-.24-5.07-.38-.13,1.74-.33,3.18-.33,4.62-.09,41.14-.22,82.29-.21,123.43,0,31.15.22,62.3.27,93.45,0,2.03-.53,4.06-.81,6.09-.64.04-1.27.08-1.91.13-.45-3.06-1.3-6.11-1.3-9.17,0-20.32.13-40.65.28-60.97.39-51.81.82-103.61,1.23-155.42,0-.47-.17-.95-.37-1.97Z" style="fill: #7bb8aa;"/>
    <path d="M186.52,1160.67c0,10.05.15,19.87-.12,29.67-.06,2.07-1.68,5.86-2.47,5.83-3.96-.14-2.85-3.67-2.87-6.11-.09-8.66-.07-17.31.03-25.97.03-2.47-.52-3.79-3.29-4.54-5.43-1.48-8.29-5.69-8.37-11.13-.24-15.48-.25-30.96-.08-46.44.06-5.81,3.84-9.6,9.62-10.22,2.96-.32,5.99-.28,8.97-.09,6.43.42,10.93,4.26,11.02,10.66.22,15.47.07,30.95-.43,46.42-.21,6.58-3.49,9.31-12.01,11.92Z" style="fill: #7bb8aa;"/>
    <path d="M136.27,723.26c1.29-.38,2.5-.73,3.88-1.13.11-.65.31-1.28.31-1.92,0-13.66-.12-27.32.09-40.98.03-1.83,1.54-5.07,2.66-5.2,3.66-.45,3.28,2.77,3.28,5.25.02,13.83.03,27.65.05,41.48,0,.31.19.62.4,1.25h5.8c0-1.81,0-3.57,0-5.34.02-12.33-.03-24.66.11-36.98.03-2.36-1.21-6.13,3.09-5.97,4.05.15,2.99,3.81,3,6.22.07,12.16-.05,24.32-.1,36.48,0,1.79,0,3.59,0,5.68h6.55c0-4.09,0-8.02,0-11.95,0-10.5-.14-20.99.09-31.48.04-1.69,1.46-4.6,2.58-4.78,3.49-.55,3.13,2.58,3.14,4.83.05,12.83-.03,25.66.1,38.48.02,2.11-1.52,5.26,2.61,5.83.35.05.64,2.08.61,3.17-.36,10.31-4.24,18.62-13.27,24.31-1.53.97-2.85,3.52-2.9,5.38-.26,10.49.04,20.99-.22,31.48-.04,1.78-1.73,4.91-2.9,5.03-3.56.36-2.76-2.91-2.77-5.07-.05-10.5.1-20.99-.07-31.48-.03-1.7-.8-4.2-2.05-4.94-10.49-6.25-14.18-15.78-14.08-27.63Z" style="fill: #7bb8aa;"/>
    <path d="M92.58,397.48c-.14,14.31-11.06,25.2-24.98,24.93-13.36-.27-23.71-11.59-23.68-25.9.03-13.48,10.92-24,24.79-23.92,13.39.07,24.01,11.14,23.88,24.89Z" style="fill: #7bb8aa;"/>
    <path d="M157.61,828.24v167.05c14.31,3.95,20.92,11.88,19.4,23.05-1.44,10.55-10.16,18.17-21.01,18.38-11.47.22-20.48-7.16-22.19-18.17-1.65-10.63,4.74-18.8,18.34-23.12.07-1.49.23-3.1.23-4.72.03-52.97.01-105.94.12-158.91,0-3.06-.74-4.59-3.73-5.91-6.32-2.81-8.43-10.98-4.94-17.11,3.25-5.72,13.4-8.75,18.38-5.25,1.09.77,1.38,2.66,2.04,4.04-1.45.29-2.9.78-4.36.84-2.27.09-4.66-.58-6.8-.07-3.64.87-5.67,3.66-5.32,7.42.35,3.76,2.76,6.19,6.62,6.18,2.75,0,5.49-.96,8.25-1.27,1.28-.14,2.62.27,3.93.43-.48,1.43-.53,3.52-1.52,4.14-2.17,1.38-4.82,2.02-7.44,3.03ZM155.24,1000.76c-9.72.05-16.24,6.21-16.1,15.22.14,8.77,7.26,15.62,16.19,15.56,9.47-.06,16.32-6.75,16.27-15.88-.05-9.13-6.43-14.95-16.35-14.9Z" style="fill: #7bb8aa;"/>
    <path d="M814.69,99.86c-3.64-2.66-6.82-4.97-10.27-7.49-3.97,3.76-7.77,7.37-11.58,10.97-.38-.41-.79-.66-.77-.85.98-8.23-1.58-15.41-5.03-22.89-2.5-5.42-3.43-12.34-2.73-18.31,1.42-12.23,11.68-19.5,22.46-17.39,11.24,2.2,18.23,13.79,15.47,25.7-.07.32-.17.65-.3.95-2.12,4.69-4.94,9.19-6.19,14.1-1.19,4.7-.75,9.81-1.06,15.22Z" style="fill: #7bb8aa;"/>
    <path d="M418.5,10.08c1.7-.58,3.05-1.04,5.02-1.7,2.58,7.28,5.04,14.26,7.54,21.24,1.12,3.13,2.11,6.33,3.5,9.34,2.18,4.73,4.98,5.16,8.11.88,3.83-5.22,7.11-10.85,10.65-16.3,2.34-3.59,4.7-7.17,7.31-11.13,1.67,1.32,2.89,2.29,4.28,3.38-6.48,9.93-12.63,19.6-19.03,29.1-4.06,6.01-5.93,12.42-5.91,19.71.08,36.99-.05,73.97-.1,110.96,0,.83.05,1.67-.01,2.5-.19,2.28.16,4.94-3.45,4.82-3.69-.12-3.06-2.87-3.06-5.08.03-36.82-.03-73.64.23-110.46.07-9.83-1.51-19.14-4.99-28.3-3.58-9.45-6.67-19.09-10.08-28.96Z" style="fill: #7bb8aa;"/>
    <path d="M464.16,187.62v23.13c-19.91-.68-39.49-1.36-59.5-2.05v-21.09h59.5Z" style="fill: #7bb8aa;"/>
    <path d="M335.83,91.56c0-5.77.07-11.54-.02-17.3-.07-4.11.77-7.46,5.75-7.51,5.31-.05,5.46,3.84,5.49,7.66.04,4.91,0,9.82,0,14.74.42.11.83.22,1.25.33,2.64-4.27,5.24-8.56,7.94-12.8,1.16-1.82,2.18-4.05,3.87-5.1,1.68-1.04,4.59-1.71,6.12-.91,1.52.79,3.29,4.22,2.71,5.43-4.77,9.99-8.88,20.67-18.14,27.56-7.36,5.48-17.28,4.29-24.12-2.65-4.06-4.11-7.35-9-10.81-13.67-2.02-2.73-2.15-5.69.84-7.92,2.91-2.18,5.65-1.42,7.93,1.19,3.35,3.84,6.65,7.73,9.97,11.6.4-.21.81-.43,1.21-.64Z" style="fill: #7bb8aa;"/>
    <path d="M617.64,1103.39c2.86,4.62,5.75,8.34,7.62,12.53,3.67,8.2,3.01,16.83,1.74,25.52-.79,5.42-.77,10.96-1.11,16.44l2.42.75c1.84-2.91,4.3-5.61,5.4-8.79,2.01-5.78,3.09-11.88,4.78-17.78,1.74-6.08,4.61-11.57,10.7-14.3,2.47-1.1,5.42-1.13,7.82-1.59-3.38,8.11-6.52,15.35-9.42,22.68-4.03,10.21-8.75,19.79-19.09,25.3-1.25.67-2.02,2.91-2.34,4.55-1.37,7.01-2.28,14.12-3.84,21.09-.35,1.57-2.58,2.72-3.95,4.06-.94-1.64-2.88-3.43-2.66-4.89,1.38-9,3.28-17.92,4.93-26.88.25-1.37.59-3,.1-4.17-4.08-9.69-3.88-19.74-3.21-29.96.5-7.66.1-15.38.1-24.55Z" style="fill: #7bb8aa;"/>
    <path d="M588.57,136.89c17.65,0,35.29,0,52.94.01,1.82,0,3.93-.34,5.39.44,1.49.79,3.24,2.79,3.22,4.23-.03,1.36-2.03,2.98-3.52,3.91-.98.62-2.59.28-3.92.28-36.29.02-72.58.02-108.87.02-1.16,0-2.67.33-3.41-.25-1.53-1.2-3.71-2.96-3.65-4.41.06-1.47,2.29-3.63,3.94-4.07,2.65-.7,5.61-.24,8.44-.24,16.48,0,32.96,0,49.44,0v.08Z" style="fill: #7bb8aa;"/>
    <path d="M795.93,290.72v23.56h-42.54v-23.56h42.54Z" style="fill: #7bb8aa;"/>
    <path d="M72.19,588.99c9.43-12.74,20.36-21.97,35.73-24.54,3.19-.53,6.65-.36,9.84.23,7.78,1.43,9.81,5.87,6.33,13.09-2.93,6.08-8.09,9.59-14.16,11.86-12.37,4.65-24.7,3.69-37.75-.65Z" style="fill: #7bb8aa;"/>
    <path d="M69.51,677.89c13.4-4.81,26.14-6.43,38.97-.92,6.15,2.64,10.96,6.79,13.01,13.56,1.36,4.5.05,7.97-4.51,8.79-5.3.95-10.98,1.9-16.16.97-13.44-2.41-23.33-10.49-31.3-22.4Z" style="fill: #7bb8aa;"/>
    <path d="M52.51,588.65c-14.84,4.52-29.34,5.34-42.52-3.9-3.93-2.75-6.63-7.67-9-12.08-1.95-3.63-.29-7.37,4.01-7.83,5.83-.63,12.01-1.24,17.62.01,12.34,2.76,24.24,12.79,29.9,23.8Z" style="fill: #7bb8aa;"/>
    <path d="M22.41,761.07c0-9.36,0-18.48,0-27.61,0-1.33-.27-2.75.1-3.98.41-1.35,1.43-2.51,2.18-3.76,1,1.22,2.81,2.42,2.85,3.68.26,8.32.15,16.66.15,24.99,0,2.14,0,4.28,0,6.82,4.32-.45,5.78-2.74,5.8-6.3.04-8-.12-16.01.22-23.99.08-1.82,1.82-3.56,2.8-5.34.95,1.8,2.65,3.57,2.73,5.41.31,7.49.1,14.99.11,22.49.01,6.41-2.24,11.23-8.6,13.83-1.23.5-2.35,2.93-2.37,4.49-.17,10.83-.03,21.66,0,32.5,0,1.17.34,2.46-.06,3.47-.57,1.49-1.66,2.79-2.53,4.17-1.08-1.36-3.03-2.69-3.09-4.1-.31-6.99-.12-13.99-.1-20.99,0-4-.15-8.01.05-12,.2-4.17.13-7.42-5.12-9-4.24-1.28-5.97-5.69-6.08-10.11-.2-8.66-.27-17.33-.07-25.99.03-1.35,1.72-2.67,2.64-4,.93,1.34,2.62,2.65,2.68,4.03.35,8.32.26,16.65.46,24.98.07,3.14.97,5.91,5.24,6.33Z" style="fill: #7bb8aa;"/>
    <path d="M51.71,643.3c-13.09,4.32-25.57,4.78-37.94-.5-5.88-2.51-10.46-6.48-12.82-12.54-2.16-5.54-.7-8.44,4.96-10.19,6.79-2.1,13.46-1.3,19.99,1.19,10.98,4.18,18.98,11.86,25.81,22.04Z" style="fill: #7bb8aa;"/>
    <path d="M52.75,677.39c-7.37,11.93-16.63,20.15-29.87,22.68-4.29.82-9.01.85-13.29.02-8.5-1.66-10.52-6.54-5.33-13.61,2.82-3.84,6.94-7.34,11.24-9.37,12.08-5.68,24.44-4.29,37.25.27Z" style="fill: #7bb8aa;"/>
    <path d="M343.47,1079.48v19.34c9.15-5.22,18.13-10.35,27.1-15.48.27.43.53.85.8,1.28-7.01,8.82-14.26,17.3-26.12,20.07-1.37.32-3.34,1.52-3.6,2.64-2.2,9.59-4.07,19.25-6.03,28.89.56.23,1.11.46,1.67.68,7.24-4.77,14.49-9.54,21.73-14.31-3.88,10.69-9.31,19.46-22.14,19.35,0,10.1-.18,19.88.06,29.65.16,6.31,1.04,12.6,1.34,18.91.06,1.3-1.05,2.65-1.62,3.98-1.06-1.08-2.24-2.08-3.12-3.29-.43-.6-.38-1.6-.41-2.43-1.24-27.7-4.89-55.49,3.57-82.79.4-1.3.08-2.9-.17-4.32-1.48-8.42,2.02-15.39,5.62-22.35.44.06.88.12,1.31.18Z" style="fill: #7bb8aa;"/>
    <path d="M813,605.77c-9.56.05-17.5-7.88-17.48-17.45.03-9.34,7.85-17.01,17.32-16.98,9.5.03,17.36,7.66,17.43,16.94.08,9.92-7.35,17.44-17.27,17.5Z" style="fill: #7bb8aa;"/>
    <path d="M84.54,961.66c-5.82,0-11.65.1-17.47-.03-4.83-.11-8.7-2-10.73-6.72-2.67-6.24.35-11.12,7.08-11.17,13.14-.09,26.28-.12,39.42-.06,5.76.02,7.84,2.21,7.93,7.84.1,6.33-2.47,9.89-7.78,10.09-6.15.23-12.31.05-18.46.06Z" style="fill: #7bb8aa;"/>
    <path d="M71.49,642.96c9.79-12.43,20.74-21.22,36.12-22.39,3.97-.3,8.21.91,12.09,2.15,4.28,1.37,5.78,5.29,3.41,8.8-2.78,4.12-6.27,8.5-10.51,10.75-13.01,6.91-26.61,5.27-41.1.69Z" style="fill: #7bb8aa;"/>
    <path d="M356.4,112.24v27.15h-30.56v-27.15h30.56Z" style="fill: #7bb8aa;"/>
    <path d="M207.68,143.05c-19.27-2.85-37.49-5.55-55.71-8.24-.12-.65-.25-1.3-.37-1.94,3.19-1.38,6.32-2.9,9.57-4.09,4.76-1.75,11.6-1.93,13.85-5.27,2.06-3.05-.82-9.42-1.5-14.32-.46-3.33-.85-6.67-1.28-10.01.66-.28,1.32-.56,1.98-.84,10.91,14.58,21.83,29.16,33.46,44.71Z" style="fill: #7bb8aa;"/>
    <path d="M283.87,129.73c-19.09-2.83-36.88-5.47-54.67-8.11-.1-.65-.2-1.3-.3-1.95,3.24-1.28,6.44-2.68,9.74-3.8,4.52-1.54,10.88-1.58,13.13-4.68,1.91-2.62-.94-8.67-1.61-13.21-.54-3.64-.96-7.3-1.43-10.96.73-.33,1.46-.65,2.19-.98,10.68,14.16,21.36,28.31,32.95,43.68Z" style="fill: #7bb8aa;"/>
    <path d="M808.75,1090.35c6.82,7.82,1.38,16.29,1.39,24.99,7.2.81,13.75-1.23,20.18-3.92,1.37-.58,2.6-1.61,4.01-1.98,1.23-.32,2.63,0,3.95.04-.47,1.26-.56,3.01-1.46,3.71-6.38,5.01-13.93,6.84-21.84,7.46-1.65.13-3.32.02-5.63.02-.29,1.3-.76,2.62-.86,3.97-1.01,12.77-1.9,25.55-3.02,38.3-.12,1.41-1.46,2.72-2.24,4.08-.85-1.49-2.54-3.06-2.42-4.47,1.56-18.22,3.37-36.41,5.13-54.61.13-1.32.42-2.63.57-3.95,1.04-9.13.89-8.79-7.76-12.4-3.99-1.67-7.47-4.78-10.82-7.66-.95-.82-.63-3.12-.9-4.74,1.51.46,3.12.73,4.51,1.43.99.5,1.65,1.62,2.5,2.41,5.78,5.31,12.47,4.47,16.36-2.52,1.9-3.42,2.63-7.48,4.2-11.11.73-1.69,2.22-3.06,3.36-4.58.47,1.9,1.59,3.9,1.3,5.68-1.25,7.69-4.27,14.61-10.5,19.86Z" style="fill: #7bb8aa;"/>
    <path d="M766.16,257.37h18.78c-3.76,10.52,4.39,14.23,10.31,19.26,1.97,1.68,3.92,3.38,6.67,5.75h-54c4.73-3.84,8.4-7.34,12.56-10.07,4.04-2.65,6.11-5.76,5.37-10.64-.19-1.25.16-2.59.3-4.3Z" style="fill: #7bb8aa;"/>
    <path d="M733.27,255.58v16.72h-42.39v-16.72h42.39Z" style="fill: #7bb8aa;"/>
    <path d="M733.36,246.5h-43.66c3.21-3.68,5.44-7.01,8.4-9.46,4.45-3.68,6.99-7.74,6.01-13.7-.72-4.4,1.19-6.11,5.82-5.92,11.48.47,10.38-1.69,10.85,10.24.09,2.35,1.48,4.9,2.94,6.87,2.56,3.47,5.65,6.55,8.48,9.82.4.46.6,1.09,1.16,2.14Z" style="fill: #7bb8aa;"/>
    <path d="M79.02,925.63c1.77-2.1,3.07-3.64,4.37-5.18,1.22,1.49,2.44,2.98,3.66,4.47-.18.41-.37.83-.55,1.24,4.28,0,8.59-.33,12.82.08,4.99.48,7.65,4.03,6.96,8.5-.51,3.31-2.16,5.63-5.82,5.66-11.48.09-22.95.19-34.43.11-3.83-.03-5.57-2.54-5.8-6.18-.26-4.02,1.37-7.07,5.45-7.69,4.72-.72,9.55-.75,13.34-1.01Z" style="fill: #7bb8aa;"/>
    <path d="M816.7,1186.13c.08,8.3-5.77,14.48-13.75,14.53-7.78.04-14.12-6.42-14.11-14.37.02-7.67,6.16-13.84,13.91-13.97,7.72-.13,13.88,5.97,13.95,13.81Z" style="fill: #7bb8aa;"/>
    <path d="M687.46,721.81c0,14.66,0,29.32,0,43.98,0,1.33.31,2.79-.13,3.96-.44,1.17-1.66,2.05-2.53,3.05-1.05-1.02-2.44-1.87-3.04-3.11-.53-1.09-.19-2.61-.19-3.95,0-29.82,0-59.65,0-89.47,0-.67-.25-1.48.05-1.97.96-1.6,2.12-3.08,3.2-4.61.87,1.54,2.47,3.07,2.49,4.62.19,15.83.11,31.65.11,47.48h.05Z" style="fill: #7bb8aa;"/>
    <path d="M85.65,1023.68c0,17.33,0,34.66,0,51.98,0,1.33.22,2.76-.2,3.96-.3.88-1.58,2.12-2.24,2.02-1.01-.16-2.21-1.16-2.7-2.13-.48-.94-.21-2.28-.21-3.45.09-34.82.19-69.64.3-104.47,0-1.16-.25-2.49.21-3.45.48-.99,1.7-2.25,2.58-2.24.86,0,2.17,1.34,2.46,2.33.45,1.55.26,3.3.26,4.96.01,16.83,0,33.65,0,50.48-.15,0-.31,0-.46,0Z" style="fill: #7bb8aa;"/>
    <path d="M630.47,1049.65c-9.48,0-18.96,0-28.44,0-.99,0-2.16.18-2.95-.27-1.31-.74-2.37-1.92-3.53-2.91,1.2-.89,2.3-2.32,3.62-2.55,3.09-.55,6.28-.59,9.44-.74,17.11-.81,34.22-1.64,51.33-2.33,2.45-.1,5.07.15,7.34.98,1.35.5,2.99,2.44,2.99,3.74,0,1.07-2.15,2.97-3.46,3.08-12.09.96-24.21,1.61-36.31,2.36-.01-.45-.02-.89-.03-1.34Z" style="fill: #7bb8aa;"/>
    <path d="M481.12,1106.18c-6.44,20.82-24.44,30.47-45.07,24.57.83-1.46,1.31-3.06,2.36-4.05,11.84-11.24,26.53-16.45,42.71-20.52Z" style="fill: #7bb8aa;"/>
    <path d="M690.73,293.04v-11.72h42.59v11.72h-42.59Z" style="fill: #7bb8aa;"/>
    <path d="M537.33,64.76c-.3-.85-.74-1.67-.89-2.54-1.57-9.13-2.98-18.29-4.65-27.4-2.14-11.72.33-26.01,7.1-34.82,2.06,7.22,4.89,13.37,5.33,19.69.52,7.31-.87,14.8-1.77,22.17-.76,6.22-2,12.39-3.06,18.57-.25,1.48-.64,2.94-.97,4.41-.37-.02-.73-.05-1.1-.07Z" style="fill: #7bb8aa;"/>
    <path d="M415.1,1129.32c-24.52,2.93-39.68-3.66-46.21-19.88,15.74-1.43,42.18,10.26,46.21,19.88Z" style="fill: #7bb8aa;"/>
    <path d="M508.93,1049.77c-9.82,0-19.64.02-29.46-.02-1.65,0-3.52.1-4.89-.62-1.54-.81-2.62-2.5-3.9-3.8,1.45-1.09,2.87-3.09,4.35-3.13,9.31-.29,18.64-.33,27.95-.08,11.98.31,23.95.97,35.92,1.49,1.16.05,2.48-.18,3.45.29,1.15.56,1.99,1.75,2.96,2.66-.98.69-1.92,1.88-2.96,1.98-3.47.34-6.98.35-10.47.37-7.65.04-15.3.01-22.95.01,0,.28,0,.57,0,.85Z" style="fill: #7bb8aa;"/>
    <path d="M283.33,1144.2c0-15.47.02-30.94-.02-46.41,0-2.81.25-5.42,3.95-3.97.85.33,1.22,2.8,1.23,4.29.1,26.11.11,52.23.14,78.34,0,3.83.3,7.69-.12,11.47-.3,2.75,2.16,7.77-2.41,7.76-4.85-.01-2.67-5.2-2.72-8.06-.22-12.14-.04-24.28-.01-36.43,0-2.33,0-4.66,0-6.99h-.03Z" style="fill: #7bb8aa;"/>
    <path d="M60.46,123.55c-14.32,0-28.65,0-42.97,0-1.5,0-3.1.21-4.45-.27-1.01-.36-1.69-1.67-2.51-2.56.89-.76,1.66-1.85,2.69-2.19,1.21-.4,2.63-.2,3.97-.2,28.98,0,57.96.02,86.95.03.33,0,.72-.11.99.02,1.71.83,3.39,1.7,5.08,2.56-1.75.85-3.5,2.43-5.26,2.45-14.82.2-29.65.11-44.47.11v.04Z" style="fill: #7bb8aa;"/>
    <path d="M789.44,747.72c-4.75,5.38-9.6,4.88-14.17,1.15-3.23,1.84-6.06,3.46-9.2,5.25,2.49,2.2,4.89,4.32,7.11,6.28-.14.77-.1,1.14-.26,1.34-4.96,6.2-5.05,6.32-11.61,1.73-2.97-2.07-5.51-4.75-7.86-6.82-4.5,0-8.78.09-13.06-.08-.87-.03-1.71-1.04-2.57-1.59.81-.6,1.54-1.43,2.45-1.73.9-.3,1.97-.12,2.97-.08,5.25.24,9.55-.43,13.42-5.25,3.01-3.75,8.43-5.56,13.25-8.52,1.6,3.11,2.85,5.55,4.27,8.33,2.7-1.97,5.2-3.79,8.04-5.86,2.42,1.96,4.82,3.9,7.22,5.84Z" style="fill: #7bb8aa;"/>
    <path d="M433.9,1171.63c16.77,1.52,31.15,7.36,42.59,20.09-16.36,5.54-40.52-5.65-42.59-20.09Z" style="fill: #7bb8aa;"/>
    <path d="M757.65,62.34c0,6.32-.02,12.64,0,18.96.02,4.21-.6,8.26,3.05,11.95,2.42,2.44,1.86,6.42-1.28,8.83-3.13,2.42-6.59,2.43-9.51-.4-2.93-2.84-2.83-5.93-.56-9.42,1.42-2.17,2.66-4.93,2.7-7.44.25-15.8.11-31.6.21-47.41.01-1.9-.89-5.08,2.62-4.5,1.17.19,2.67,2.89,2.72,4.48.27,8.31.13,16.63.13,24.95-.03,0-.06,0-.09,0Z" style="fill: #7bb8aa;"/>
    <path d="M793.88,201.66c6.47,0,12.95.04,19.42-.02,3.29-.03,5.74,1.16,5.66,4.71-.07,3.38-2.69,4.25-5.62,4.25-13.28.02-26.56.17-39.84-.16-1.75-.04-4.5-2.34-4.93-4.06-.79-3.21,1.81-4.66,4.88-4.68,6.81-.05,13.61-.02,20.42-.02v-.04Z" style="fill: #7bb8aa;"/>
    <path d="M691.62,302.01h40.58c-2.3,8.62-8.67,12.93-19.37,13.35-11.08.43-18.05-3.82-21.21-13.35Z" style="fill: #7bb8aa;"/>
    <path d="M646.8,116.79c-3.48,0-7.1,0-10.72,0-15.15,0-30.29.06-45.44-.09-1.7-.02-4.5-.94-4.87-2.07-1.36-4.19,1.83-4.56,4.88-4.56,12.48,0,24.96.02,37.45.02,4.83,0,9.66.06,14.48-.08,4.66-.13,5.92,1.95,4.21,6.77Z" style="fill: #7bb8aa;"/>
    <path d="M463.14,222.53c-12.79,0-25.22.06-37.66-.03-5.65-.04-11.29-.44-16.93-.56-2.29-.05-3.94-.48-3.83-3.25.11-2.55,1.1-3.99,3.94-3.91,8.3.24,16.61.35,24.91.53,8.14.17,16.27.37,24.41.52,6.14.11,6.2.16,5.16,6.7Z" style="fill: #7bb8aa;"/>
    <path d="M764.19,801.75c3.09-2.29,5.72-4.23,8.33-6.16-2.91-2.26-5.45-4.25-8.5-6.62,2.74-2.53,4.88-4.5,7.89-7.28,4.71,4.11,9.21,8.13,13.83,12,.83.7,2.13,1.12,3.24,1.16,3.49.13,6.99-.12,10.47.07,1.03.06,2.01,1.08,3.02,1.65-.9.68-1.9,2.04-2.69,1.93-8.44-1.15-15.09,1.33-21.51,7.29-5.84,5.41-6.56,4.63-11.83-1.55-.63-.74-1.3-1.45-2.23-2.49Z" style="fill: #7bb8aa;"/>
    <path d="M52.59,882.23c-.97-1.27-2.64-2.47-2.79-3.83-.4-3.62-.21-7.31-.15-10.97.11-7.48,2.25-9.71,9.77-10.31.82-.07,1.64-.13,3.07-.25,0-2.19-.32-4.35.08-6.37.54-2.71-2.27-7.64,2.56-7.62,4.28.02,1.79,4.74,2.24,7.35.36,2.06.07,4.24.07,6.97,3.54,0,6.66-.08,9.77.02,6.16.2,8.5,2.42,8.71,8.46.14,4.15.13,8.33-.16,12.47-.09,1.27-1.35,2.46-2.08,3.69-.81-1.31-2.2-2.56-2.33-3.94-.36-3.63-.29-7.32-.17-10.97.1-3.36-1.41-4.97-4.69-4.98-5.82-.01-11.65,0-17.47.03-3.31.01-4.74,1.64-4.63,5.01.15,4.78.04,9.57.04,14.36-.61.29-1.22.59-1.82.88Z" style="fill: #7bb8aa;"/>
    <path d="M262.04,47.09c4.79,4.83,9.31,9.4,13.77,13.9-4.1,4.3-8.45,8.85-12.85,13.46-4.6-5.05-8.93-9.79-12.97-14.23,3.41-3.72,7.83-8.54,12.05-13.14Z" style="fill: #7bb8aa;"/>
    <path d="M184.85,1043.38c30.34,2.36,59.95.4,89.82-3.46-12.49,10.78-78.06,13.37-89.82,3.46Z" style="fill: #7bb8aa;"/>
    <path d="M383.45,1195.25c4.15-11.91,22.04-24.43,34.09-24.18.24,13.59-15.4,22.37-34.09,24.18Z" style="fill: #7bb8aa;"/>
    <path d="M50.59,885.31c11.18,0,22.09-.09,32.99.16.88.02,2.53,2.46,2.41,3.63-.46,4.29-3.36,6.25-7.59,6.27-6.65.03-13.3.12-19.95.03-6.6-.09-8.22-2.02-7.86-10.09Z" style="fill: #7bb8aa;"/>
    <path d="M381.73,1045.01c-28.37,8.72-56.22,4.1-83.95-3.41,27.98,1.14,55.96,2.28,83.95,3.41Z" style="fill: #7bb8aa;"/>
    <path d="M228.45,1081.36c-1.5-.25-2.83-.12-3.7-.69-1.21-.79-2.07-2.11-3.08-3.2,1.09-.95,2.1-2.59,3.28-2.73,3.61-.43,7.31-.57,10.93-.25,1.6.14,3.09,1.65,4.62,2.54-1.18,1.37-2.24,2.88-3.59,4.05-.66.57-1.86.52-3.29.87,0,1.92,0,3.87,0,5.83,0,1.8,0,3.6,0,6.28,4.44,0,8.52-.21,12.56.11,1.45.11,2.81,1.49,4.21,2.29-1.32.84-2.63,2.38-3.98,2.41-9.96.22-19.93.24-29.89.03-1.36-.03-2.68-1.66-4.02-2.56,1.43-.77,2.81-2.09,4.29-2.22,3.76-.32,7.56-.11,11.66-.11v-12.66Z" style="fill: #7bb8aa;"/>
    <path d="M229.07,1117.19c-4.77,0-8.74.19-12.68-.11-1.34-.1-2.59-1.44-3.89-2.21,1.3-.96,2.59-2.71,3.91-2.74,9.96-.21,19.94-.21,29.9.07,1.56.04,3.07,1.84,4.6,2.82l-.8,1.76h-16.13c0,3.74,0,6.97,0,10.2-.01,6.48.15,12.97-.16,19.44-.1,2.08-1.43,5.83-2.27,5.85-4.09.1-2.41-3.56-2.46-5.6-.22-7.8-.04-15.62-.01-23.43,0-1.8,0-3.59,0-6.05Z" style="fill: #7bb8aa;"/>
    <path d="M794.44,235.62c-5.67,0-11.33,0-17,0-2.86,0-5.77-.47-5.83-3.93-.07-3.62,3-3.9,5.77-3.91,11.16-.03,22.33-.01,33.49,0,2.82,0,5.76.38,5.81,3.94.05,3.65-2.95,3.9-5.75,3.91-5.5.02-11,0-16.5,0v-.02Z" style="fill: #7bb8aa;"/>
    <path d="M681.8,1150.78c-5.99.06-10.25-3.93-10.39-9.72-.15-6.02,4.16-10.43,10.2-10.44,5.92,0,10.39,4.13,10.5,9.72.11,5.94-4.27,10.38-10.31,10.43Z" style="fill: #7bb8aa;"/>
    <path d="M791.15,820.84c-11.99,0-23.98.07-35.97-.09-1.52-.02-3.02-1.21-4.53-1.85,1.45-.7,2.89-2.01,4.34-2.02,23.98-.13,47.97-.13,71.95.01,1.57,0,3.13,1.42,4.7,2.18-1.67.6-3.33,1.71-5,1.73-11.82.15-23.65.08-35.47.08v-.05Z" style="fill: #7bb8aa;"/>
    <path d="M83.41,143.98c-11.31,0-22.63.1-33.94-.11-1.71-.03-3.39-1.5-5.08-2.3,1.61-.69,3.22-1.98,4.83-1.99,23.13-.17,46.26-.21,69.38-.1,1.62,0,3.23,1.4,4.84,2.14-1.53.76-3.05,2.15-4.6,2.17-11.81.18-23.63.1-35.44.1,0,.03,0,.06,0,.08Z" style="fill: #7bb8aa;"/>
    <path d="M804.36,184.96c-5.14,0-10.28,0-15.41,0-2.88,0-4.87-1.03-4.84-4.28.04-3.26,2.13-4.2,4.96-4.2,10.11,0,20.23-.21,30.33.18,1.71.07,4.38,2.5,4.73,4.22.61,2.99-1.99,4.12-4.84,4.11-4.97-.01-9.95,0-14.92,0,0,0,0-.01,0-.02Z" style="fill: #7bb8aa;"/>
    <path d="M781.45,833.57c11.16,0,22.32-.06,33.47.08,1.35.02,2.69,1.18,4.04,1.81-1.37.76-2.73,2.17-4.1,2.17-22.32.13-44.63.12-66.95-.02-1.43,0-2.84-1.37-4.27-2.11,1.44-.66,2.88-1.87,4.33-1.9,11.16-.16,22.32-.09,33.47-.09v.04Z" style="fill: #7bb8aa;"/>
    <path d="M807.28,22.71c.98-2.49,1.83-5.05,3-7.44.53-1.08,1.69-1.86,2.57-2.77.57,1.03,1.83,2.29,1.58,3.05-1.22,3.67-1.9,8.41-4.56,10.48-3.48,2.7-4.36,5.34-4.18,9.13.05.97-.18,1.96-.3,3.12-2.87,1-4.67.54-4.43-2.84.28-4.11-1.22-6.65-4.64-9.4-2.68-2.15-3.44-6.81-4.72-10.46-.23-.67,1.15-1.9,1.79-2.87.94.74,2.29,1.3,2.75,2.27,1.21,2.52,2.04,5.22,3.03,7.85.56-.11,1.12-.22,1.68-.33,0-3.38-.24-6.79.13-10.14.13-1.2,1.7-2.24,2.61-3.36.67,1.11,1.82,2.19,1.92,3.35.26,3.26.09,6.56.09,9.84.56.18,1.12.36,1.68.54Z" style="fill: #7bb8aa;"/>
    <path d="M796.3,159.69c-4.16,0-8.39.44-12.44-.2-1.88-.3-3.43-2.7-5.13-4.15,1.61-1.54,3.16-4.31,4.86-4.4,8.46-.46,16.96-.43,25.43-.02,1.59.08,3.97,2.47,4.37,4.17.72,3.05-1.84,4.38-4.61,4.47-4.15.14-8.31.04-12.47.04v.08Z" style="fill: #7bb8aa;"/>
    <path d="M384.32,57.72c-13.76.42-26.45-9.22-26.92-17.81,13.34-2.43,24.99,5.16,26.92,17.81Z" style="fill: #7bb8aa;"/>
    <path d="M358.04,34.6c3.54-10.85,14.61-18.38,26.97-18.62.02,11.49-11.1,19.28-26.97,18.62Z" style="fill: #7bb8aa;"/>
    <path d="M328.4,40.03c-2.28,10.04-15.08,18.35-26.54,17.22,1.46-12.15,12.92-19.59,26.54-17.22Z" style="fill: #7bb8aa;"/>
    <path d="M301.62,15.92c12.56,1.71,22.39,6.3,27.1,18.58-13.38,2.38-24.78-5.29-27.1-18.58Z" style="fill: #7bb8aa;"/>
    <path d="M213.92,1157.73h33.2c.13,5.29-2.51,8.52-7.78,8.81-5.63.31-11.29.3-16.92.03-5.04-.24-7.75-3.25-8.49-8.84Z" style="fill: #7bb8aa;"/>
    <path d="M135,289.95c-1.22-2.62-3.25-5.18-3.48-7.89-.45-5.25-.04-10.6.3-15.89.48-7.36,1.22-14.71,1.95-23.31,6.29,15.92,4.27,31.14,3.84,46.25-.87.28-1.74.55-2.61.83Z" style="fill: #7bb8aa;"/>
    <path d="M162.76,249.52c-5.39,12.52-10.73,25.06-16.25,37.53-.65,1.46-2.3,2.47-3.48,3.69-.52-1.74-1.65-3.56-1.43-5.2.47-3.59.87-7.54,2.66-10.54,5.39-9.07,11.42-17.76,17.2-26.6l1.31,1.11Z" style="fill: #7bb8aa;"/>
    <path d="M349.26,29.05h-16.05c2.39-8.68,4.53-16.46,6.67-24.24.62.03,1.24.07,1.86.1,4.44,7.09,6.42,15,7.52,24.14Z" style="fill: #7bb8aa;"/>
    <path d="M53.44,969.1c12.91,2.28,20.66,9.21,23.21,20.47-10.9.47-22.04-9.17-23.21-20.47Z" style="fill: #7bb8aa;"/>
    <path d="M55.67,996.72c12.24,1.75,21.11,11.97,20.21,22.87-9.93-1.5-18.35-10.88-20.21-22.87Z" style="fill: #7bb8aa;"/>
    <path d="M38.34,397.67c.85,3.8,1.63,6.33,1.88,8.91.1,1-.76,2.76-1.6,3.07-4.16,1.56-8.39,3.31-12.73,3.83-1.89.23-5.08-1.9-5.89-3.75-.64-1.47.86-5.27,2.41-6.05,4.9-2.45,10.26-3.97,15.92-6.02Z" style="fill: #7bb8aa;"/>
    <path d="M151.55,159.73c.61,1.83,1.71,3.65,1.74,5.49.21,12.49.2,24.98.24,37.48,0,1,.16,2.11-.23,2.96-.42.93-1.38,1.63-2.1,2.43-.71-.77-1.54-1.46-2.09-2.33-.32-.5-.23-1.29-.23-1.95-.03-12.99-.08-25.99-.05-38.98,0-1.59.46-3.18.7-4.77.67-.11,1.34-.22,2.01-.33Z" style="fill: #7bb8aa;"/>
    <path d="M760.28,1189.65c.15,4.76-3.52,8.74-8.2,8.9-4.54.15-8.55-3.75-8.65-8.44-.1-4.61,3.28-8.26,7.89-8.51,4.71-.25,8.82,3.44,8.96,8.04Z" style="fill: #7bb8aa;"/>
    <path d="M256.39,1125.85c10.73,1.4,21.84,10.74,21.98,21.2-11.27-1.49-20.71-10.45-21.98-21.2Z" style="fill: #7bb8aa;"/>
    <path d="M292.87,1178.24c2.48-10.53,10.05-16.63,22.12-17.83.32,10.01-11.16,19.26-22.12,17.83Z" style="fill: #7bb8aa;"/>
    <path d="M75.22,367.5c-12.28.49-15.81-2.82-15.25-13.84.09-1.71,2.17-4.05,3.89-4.78,2.82-1.21,5.84-.2,6.92,3.01,1.67,4.98,2.91,10.12,4.44,15.61Z" style="fill: #7bb8aa;"/>
    <path d="M98.8,399.26c4.9.51,9.34.79,13.71,1.49,3.59.57,5.54,3.01,5.21,6.68-.34,3.88-3.22,4.69-6.48,4.43-4.86-.39-9.7-.95-14.93-1.48.89-3.98,1.6-7.15,2.49-11.12Z" style="fill: #7bb8aa;"/>
    <path d="M91.15,989.79c1.17-9.42,10.69-17.56,21.96-18.76-.27,10.17-10.7,19.08-21.96,18.76Z" style="fill: #7bb8aa;"/>
    <path d="M290.74,1101.36c.63-9.32,11.37-17.43,22.11-16.7-1.07,10.72-13.51,18.49-22.11,16.7Z" style="fill: #7bb8aa;"/>
    <path d="M287.23,1060.55c4.95,7.13,5.5,19.6,1.2,26.4-1.59,2.51-3.17,2.86-4.75.07-3.91-6.92-4.16-19.81,3.55-26.47Z" style="fill: #7bb8aa;"/>
    <path d="M256.84,1075.92c12.22,1.72,21.84,10.53,22.36,20.1-10.22-.47-19.75-8.91-22.36-20.1Z" style="fill: #7bb8aa;"/>
    <path d="M74.67,439.87c.32,4.46-.46,7.18-4.25,7.81-3.69.62-6.16-.82-6.96-4.62-.48-2.27-.92-4.55-1.31-6.84-1.14-6.74-.61-7.18,6.32-7.96,3.03-.34,4.29.64,4.74,3.42.5,3.11,1.1,6.21,1.45,8.19Z" style="fill: #7bb8aa;"/>
    <path d="M141.1,209.03c-10.17-10.47-11.96-22.37-7.68-35.59.54-1.67.03-3.66.32-5.44.12-.74.97-1.55,1.7-1.91.29-.14,1.49.74,1.69,1.35,4.36,13.19,6.87,26.59,4.48,40.53-.05.31-.28.6-.51,1.08ZM140.32,200.66c-.29-8.28,1.23-15.82-3.58-22.95-5,7.44-3.53,17.66,3.58,22.95Z" style="fill: #7bb8aa;"/>
    <path d="M41.92,380.75c-1.53,3.93-2.78,7.12-4.4,11.27-4.47-2.99-9-5.45-12.71-8.82-1.36-1.23-1.8-5.33-.77-6.8,1.05-1.5,4.77-2.39,6.7-1.74,3.82,1.29,7.23,3.84,11.18,6.08Z" style="fill: #7bb8aa;"/>
    <path d="M89.56,376.19c-3.72-2.72-6.75-4.94-10.62-7.77,2.93-3.54,5.36-7.35,8.67-10.09,1.49-1.23,5.28-1.19,7.02-.11,1.42.89,2.4,4.6,1.71,6.32-1.62,4.04-4.35,7.64-6.78,11.65Z" style="fill: #7bb8aa;"/>
    <path d="M256.54,1101.6c10.91.98,19.67,8.29,22.29,18.61-9.8,1.16-21.38-8.52-22.29-18.61Z" style="fill: #7bb8aa;"/>
    <path d="M740.46,783.67c0,7.22.07,14.44-.13,21.66-.02.59-1.92,1.15-2.99,1.64-.14.06-.49-.54-.77-.55q-5.42-.32-5.39-6.36c.02-4.15.02-8.31.16-12.46.05-1.46.51-2.9.78-4.34.53-.04,1.07-.07,1.6-.11.72,2.35,1.44,4.7,2.11,6.89.61-2.16,1.29-4.56,1.97-6.96.89.2,1.77.39,2.66.59Z" style="fill: #7bb8aa;"/>
    <path d="M311.4,1133.13c-1.96,11.01-8.24,16.84-19.48,18.41-1.9-8.55,7.69-17.78,19.48-18.41Z" style="fill: #7bb8aa;"/>
    <path d="M55.29,425.18c-3.59,3.61-6.49,7.29-10.17,9.88-1.54,1.08-5.5.71-6.9-.59-1.31-1.21-1.66-5.07-.69-6.78,2.05-3.62,5.24-6.6,8.13-10.03,3.31,2.58,6,4.68,9.63,7.51Z" style="fill: #7bb8aa;"/>
    <path d="M800.36,742.73c.13,2.44.26,4.88.42,7.87.86-3.02,1.59-5.57,2.66-9.35,1.16,2,1.93,2.72,1.96,3.47.19,5.8.38,11.61.23,17.41-.03,1.22-1.44,2.41-2.22,3.61-1.98-1.69-6.68,2.36-6.79-3.04-.12-5.8.03-11.61.31-17.4.05-1.08,1.24-2.11,1.9-3.16.51.2,1.02.4,1.54.6Z" style="fill: #7bb8aa;"/>
    <path d="M469.62,68.91c.8.86,1.79,1.93,3.74,4.04-8.27,7.91-16.22,15.59-24.32,23.11-.81.75-2.54.5-3.85.72.02-1.45-.58-3.52.15-4.26,7.81-7.84,15.84-15.47,24.28-23.61Z" style="fill: #7bb8aa;"/>
    <path d="M98.5,391.9c-1.44-4.17-2.41-6.98-3.65-10.56,3.41-1.79,6.71-4.17,10.39-5.17,1.98-.54,6.01.69,6.59,2.14.79,1.95-.03,5.89-1.62,7.19-3.31,2.71-7.58,4.25-11.71,6.4Z" style="fill: #7bb8aa;"/>
    <path d="M336.43,61.33c0-4.19-.62-8.28.24-12.04.49-2.15,3.16-4.98,5.23-5.35,3.44-.62,5.1,2.36,5.3,5.76.06,1,.05,2,.06,2.99q.07,9.68-10.83,8.63Z" style="fill: #7bb8aa;"/>
    <path d="M257.54,1147.28c8.06,7.4,15.35,14.09,23.39,21.47-12.77,2.3-23.39-7.68-23.39-21.47Z" style="fill: #7bb8aa;"/>
    <path d="M80.53,426.68c2.07-1.55,3.2-2.5,4.44-3.3,1.99-1.29,5.36-3.92,5.87-3.46,3.13,2.81,5.86,6.18,8.14,9.73.55.85-.67,3.82-1.86,4.56-1.57.98-4.45,1.63-5.81.82-3.73-2.23-6.96-5.3-10.79-8.35Z" style="fill: #7bb8aa;"/>
    <path d="M57.64,366.19c-4.64,3.03-7.95,5.2-11.96,7.83-2.01-2.88-4.65-5.58-5.86-8.82-.71-1.91.13-5.63,1.63-6.78,1.51-1.16,5.16-.99,7.03.08,3.24,1.84,5.84,4.82,9.16,7.7Z" style="fill: #7bb8aa;"/>
    <path d="M164.79,166.04c3.88,9.35,7.35,18.71,1.64,28.42-2.47,4.2-4.65,8.58-6.91,12.78,0-6.62-.69-13.76.19-20.7.88-6.94,3.32-13.68,5.08-20.5ZM161.41,194.49c6.24-4.34,7.97-13.57,3.39-18.38-3.6,5.75-3.43,11.86-3.39,18.38Z" style="fill: #7bb8aa;"/>
    <path d="M330.28,1147.44c-9.55-.21-15.72-9.66-17.69-24.09,8.52,6.43,15.4,13.31,17.69,24.09Z" style="fill: #7bb8aa;"/>
    <path d="M112.3,173.69c0,3.41.13,6.56-.09,9.69-.06.81-1.23,1.54-1.88,2.3-.59-.81-1.64-1.6-1.69-2.45-.2-3.13-.08-6.27-.08-9.8-2.2-.15-4.03-.1-5.76-.48-.88-.2-1.59-1.18-2.38-1.81.83-.6,1.59-1.51,2.51-1.74,1.57-.38,3.25-.34,5.52-.53,0-2.11-.23-4.08.07-5.96.28-1.72,1.13-3.35,1.73-5.02.67,1.58,1.61,3.12,1.93,4.77.34,1.74.08,3.6.08,5.35,3.36.86,6.34,1.62,9.32,2.38l-.23,2c-2.79.4-5.58.79-9.05,1.29Z" style="fill: #7bb8aa;"/>
    <path d="M540.26,88.47c0,4.47.14,8.95-.1,13.41-.06,1.07-1.38,2.08-2.12,3.11-.77-1.02-2.2-2.03-2.22-3.07-.18-9.11-.17-18.22,0-27.32.02-.94,1.57-1.85,2.41-2.77.69.91,1.93,1.79,1.98,2.73.21,4.63.09,9.27.09,13.91-.02,0-.03,0-.05,0Z" style="fill: #7bb8aa;"/>
    <path d="M16.21,171.15c-2.69-.14-4.55,0-6.27-.41-.98-.23-1.75-1.37-2.61-2.1.83-.61,1.6-1.61,2.5-1.75,1.77-.28,3.61-.08,6.26-.08,0-3.31-.16-6.25.09-9.15.09-1,1.18-1.92,1.82-2.88.59,1.01,1.58,1.98,1.67,3.04.24,2.78.08,5.59.08,8.95,2.47,0,4.31-.27,6.01.1.97.21,1.71,1.46,2.55,2.24-.86.58-1.66,1.48-2.61,1.66-1.75.34-3.57.25-5.95.37,0,3.54.11,6.82-.07,10.09-.05.93-.97,1.81-1.49,2.71-.66-.92-1.82-1.81-1.89-2.78-.24-3.25-.09-6.53-.09-9.99Z" style="fill: #7bb8aa;"/>
    <path d="M231.52,97.09c11.93-1.76,13.38-.64,13.3,10.64-3.58.43-7.29.87-11.77,1.41-.52-4.1-1.02-8.08-1.53-12.05Z" style="fill: #7bb8aa;"/>
    <path d="M663,1091.78c7.91-1.52,15.45-2.97,23.9-4.6-4.29,6.01-7.96,11.55-15.41,11.46-3.98-.05-6.98-2.45-8.49-6.87Z" style="fill: #7bb8aa;"/>
    <path d="M654.41,1172.89c7.84-7.04,16.19-10.25,26.07-10.98-2.9,7.95-15.05,13.15-26.07,10.98Z" style="fill: #7bb8aa;"/>
    <path d="M505.2,57.32c11.13,1.16,21.94,3.34,30.06,12.07-12.04,1.14-20.56-6.59-30.06-12.07Z" style="fill: #7bb8aa;"/>
    <path d="M153.82,121.61c-3.91.36-7.5.69-11.49,1.06-.56-4.11-1.06-7.81-1.56-11.51,12.77-1.41,13.13-1.79,13.05,10.45Z" style="fill: #7bb8aa;"/>
    <path d="M674.72,1073.37c-3.81,4.42-7.45,9.01-11.51,13.2-2.19,2.26-5.01,2.03-6.65-.94-1.43-2.6-1.21-5.24,1.86-6.71,4.92-2.36,9.9-4.58,14.86-6.87.48.44.96.88,1.43,1.31Z" style="fill: #7bb8aa;"/>
    <path d="M539.87,69.01c7.34-7.93,17.27-9.65,27.34-11.04-8.16,5.96-16.15,12.35-27.34,11.04Z" style="fill: #7bb8aa;"/>
    <path d="M123.4,290.84c-3.23-10.77-6.45-21.55-9.68-32.32,7.44,6.01,14.07,26.28,11.41,31.96-.58.12-1.15.24-1.73.36Z" style="fill: #7bb8aa;"/>
    <path d="M724.01,494.67c3.75.42,6.19,2.46,6.22,6.3.03,3.89-2.4,6.13-6.27,6.11-3.83-.02-6.32-2.13-6.29-6.09.03-3.9,2.51-5.85,6.34-6.32Z" style="fill: #7bb8aa;"/>
    <path d="M678.64,1179.76c-.6-8.84,3.93-16.81,10.76-18.93,2.21,7.29-2.96,16.39-10.76,18.93Z" style="fill: #7bb8aa;"/>
    <path d="M722.36,572.84c3.58-.04,6.34,2.7,6.25,6.29-.09,3.79-2.22,5.82-5.85,6.15-3.6.33-6.4-2.38-6.5-5.99-.09-3.61,2.55-6.4,6.09-6.44Z" style="fill: #7bb8aa;"/>
    <path d="M122.98,513.11c2.71,2.86,5.08,5.36,7.68,8.1-2.53,2.73-4.94,5.33-7.73,8.35-2.49-2.82-4.75-5.38-7.44-8.42,2.24-2.39,4.74-5.07,7.49-8.02Z" style="fill: #7bb8aa;"/>
    <path d="M716.1,546.36c.31-3.49,3.45-6.09,6.97-5.51,3.59.59,5.64,2.69,5.41,6.54-.22,3.61-3.16,6.16-6.71,5.85-3.61-.32-6-3.22-5.67-6.87Z" style="fill: #7bb8aa;"/>
    <path d="M714.4,563.24c.07-3.5,3-6.24,6.56-5.95,3.67.31,5.88,2.28,5.79,6.1-.09,3.78-2.48,5.74-6,6.08-3.37.32-6.41-2.86-6.35-6.24Z" style="fill: #7bb8aa;"/>
    <path d="M140.04,95.09c-2.1-1.55-4.2-3.11-6.3-4.66-.4-.39-.8-.77-1.19-1.16-.85,1.42-1.52,3.01-2.63,4.18-.49.52-1.86.2-2.83.26.11-.87-.09-1.99.38-2.56,1.03-1.25,2.4-2.21,3.81-3.45-1.89-2.55-3.63-4.91-5.38-7.26.46-.48.91-.96,1.37-1.44,2.11,1.6,4.23,3.21,6.34,4.81.52.45,1.03.89,1.55,1.34.9-1.61,1.62-3.38,2.79-4.76.44-.51,1.95-.11,2.97-.13-.18.87-.08,1.97-.58,2.58-1.14,1.38-2.57,2.52-4.23,4.1,1.75,2.23,3.42,4.34,5.08,6.45-.38.56-.77,1.12-1.15,1.68Z" style="fill: #7bb8aa;"/>
    <path d="M537.43,121.13c-3.39-.32-5.88-2.09-5.83-5.88.05-3.99,2.82-5.89,6.47-6.22,3.33-.3,6.18,3.01,5.99,6.53-.18,3.31-2.87,5.65-6.64,5.56Z" style="fill: #7bb8aa;"/>
    <path d="M806.26,110.47c0,3.14.21,6.3-.12,9.41-.11.99-1.63,1.84-2.5,2.75-.7-.91-1.99-1.81-2.02-2.74-.16-6.28-.17-12.57.08-18.84.05-1.14,1.52-2.22,2.34-3.33.71,1.11,1.93,2.17,2.04,3.34.29,3.11.1,6.27.1,9.41.03,0,.05,0,.08,0Z" style="fill: #7bb8aa;"/>
    <path d="M723.87,523.65c-3.07-.3-5.46-1.92-5.71-5.76-.23-3.52,2.53-6.64,5.98-6.56,3.65.09,5.89,2.08,6.24,5.79.34,3.55-2.37,6.39-6.51,6.53Z" style="fill: #7bb8aa;"/>
    <path d="M119.89,501.58c-2.81-2.92-5.09-5.29-7.45-7.75,2.31-2.24,4.75-4.61,7.52-7.29,2.32,2.58,4.6,5.11,6.6,7.32-2.36,2.73-4.39,5.08-6.66,7.71Z" style="fill: #7bb8aa;"/>
    <path d="M106.72,467.45c2.58,2.84,4.7,5.17,7.03,7.73-2.36,2.57-4.63,5.05-7.16,7.81-2.45-2.56-4.7-4.91-7.25-7.57,2.42-2.61,4.74-5.12,7.38-7.97Z" style="fill: #7bb8aa;"/>
    <path d="M37.16,469.53c-2.56,2.44-4.91,4.68-7.19,6.85-2.16-2.43-4.22-4.76-6.63-7.48,1.86-2,4.17-4.49,6.66-7.17,2.44,2.67,4.75,5.19,7.16,7.81Z" style="fill: #7bb8aa;"/>
    <path d="M666.38,1106.91c.59-3.25,2.36-5.45,6-5.16,3.75.29,5.82,2.74,5.64,6.33-.17,3.37-2.38,5.71-5.92,5.41-3.61-.3-5.48-2.79-5.72-6.58Z" style="fill: #7bb8aa;"/>
    <path d="M57.32,461.59c2.51,2.72,4.73,5.13,6.96,7.54-2.26,2.31-4.43,4.52-7.02,7.17-2.24-2.08-4.49-4.17-7.3-6.78,2.41-2.6,4.77-5.14,7.36-7.93Z" style="fill: #7bb8aa;"/>
    <path d="M184.18,1078.77c-2.65,0-5.33.24-7.93-.12-1.03-.14-1.88-1.61-2.81-2.47.84-.79,1.65-2.22,2.53-2.26,5.29-.23,10.6-.32,15.88-.03,1.1.06,2.11,1.85,3.17,2.85-1.13.7-2.19,1.85-3.39,2-2.44.32-4.96.09-7.44.09,0-.02,0-.04,0-.06Z" style="fill: #7bb8aa;"/>
    <path d="M49.76,487.31c-2.01,1.93-4.26,4.07-6.62,6.33-2.09-2.48-4.07-4.84-6.51-7.73,1.97-1.23,4.76-2.96,7.55-4.7l-1.13-1.74c2.17,2.53,4.35,5.07,6.71,7.83Z" style="fill: #7bb8aa;"/>
    <path d="M184.42,1065.49c2.66,0,5.34-.21,7.96.11,1,.12,1.86,1.44,2.78,2.22-.85.84-1.69,2.37-2.57,2.4-5.63.14-11.27.03-16.89-.24-.72-.03-1.98-1.5-1.91-2.19.07-.76,1.35-1.93,2.18-2.01,2.8-.25,5.63-.1,8.45-.1,0-.06,0-.12,0-.19Z" style="fill: #7bb8aa;"/>
    <path d="M647.59,1072.37c1.61,2.16,3.93,4.11,4.64,6.53.88,2.98-2.66,6.45-5.65,6.1-3.95-.46-5.34-3.6-4.94-6.81.25-2.05,2.44-3.86,3.76-5.78.73-.01,1.46-.03,2.19-.04Z" style="fill: #7bb8aa;"/>
    <path d="M748,787.13c2.98-1.94,5.59-3.64,8.56-5.58,2.42,2.09,4.75,4.09,7.09,6.11-5.03,5.59-7.91,5.54-15.64-.52Z" style="fill: #7bb8aa;"/>
    <path d="M748.17,801.58q8.3-5.77,15.03.51c-6.85,6.28-7.99,6.26-15.03-.51Z" style="fill: #7bb8aa;"/>
    <path d="M774.42,761.57c8.15-5.11,8.18-5.11,14.67.64-7.51,5.6-7.79,5.59-14.67-.64Z" style="fill: #7bb8aa;"/>
    <path d="M754.93,109.22c2.19,3.12,4.55,5.06,4.27,6.46-.37,1.81-2.85,3.2-4.43,4.76-1.46-1.5-4.04-2.97-4.08-4.5-.05-1.77,2.14-3.61,4.24-6.72Z" style="fill: #7bb8aa;"/>
    <path d="M236.89,1066.05c-2.78,1.94-4.64,4.23-6.18,4.04-1.53-.2-2.73-2.9-4.07-4.5,1.61-1.3,3.12-3.42,4.86-3.63,1.32-.16,2.93,2.12,5.39,4.1Z" style="fill: #7bb8aa;"/>
    <path d="M694.64,111.47c-2.69,1.99-4.32,4.13-5.72,3.99-1.57-.16-2.94-2.38-4.4-3.7,1.39-1.41,2.62-3.7,4.2-3.97,1.37-.23,3.13,1.83,5.92,3.68Z" style="fill: #7bb8aa;"/>
    <path d="M721.69,111.54c-2.88,1.99-4.46,3.93-6.01,3.91-1.41-.02-2.8-2.15-4.2-3.35,1.3-1.46,2.43-3.84,3.94-4.11,1.41-.26,3.23,1.72,6.27,3.56Z" style="fill: #7bb8aa;"/>
    <path d="M701.85,105.75c1.77,2.9,3.69,4.64,3.49,6.09-.2,1.45-2.67,3.74-3.87,3.59-1.49-.2-3.64-2.46-3.76-3.97-.11-1.41,2.06-3,4.15-5.71Z" style="fill: #7bb8aa;"/>
    <path d="M674.49,105.99c1.89,2.58,3.97,4.24,3.72,5.39-.34,1.58-2.29,3.54-3.86,3.87-1.02.22-3.64-2.18-3.64-3.42,0-1.57,1.91-3.14,3.78-5.85Z" style="fill: #7bb8aa;"/>
    <path d="M142.76,356.55c-5.69-8.89-11.64-7.54-17.91-1.04,1.45-5.04,4.79-7.1,9.48-6.96,4.68.14,7.22,2.99,8.43,8Z" style="fill: #7bb8aa;"/>
    <path d="M140.6,343.73c-4.46-3.65-8.97-4.39-13.6.11-.22-.62-.45-1.25-.67-1.87,2.2-1.32,4.46-3.78,6.58-3.67,2.96.16,5.81,2.24,8.71,3.5-.34.64-.68,1.29-1.02,1.93Z" style="fill: #7bb8aa;"/>
    <path d="M759.04,677.65c-6.87.07-12.17-5.39-12.11-12.47.05-6.84,5.26-12.27,11.82-12.34,6.6-.06,12.1,5.67,12.12,12.63.02,6.89-5.06,12.12-11.83,12.18Z" style="fill: #7bb8aa;"/>
    <path d="M521.61,1103.39c0,1.99.27,4.02-.06,5.95-.72,4.27-3.82,6.22-7.8,6.16-3.94-.06-7.17-1.77-7.42-6.37-.17-3.14-.24-6.3-.06-9.43.31-5.31,3.27-8.13,8.09-8,4.55.12,6.98,2.84,7.31,8.21.07,1.16.01,2.32.01,3.48-.02,0-.04,0-.07,0Z" style="fill: #7bb8aa;"/>
    <path d="M25.47,826.84c4.59.07,8.07,3.72,8.03,8.43-.03,4.47-3.83,8.39-8.18,8.44-4.59.06-8.51-4.04-8.36-8.75.14-4.45,4.06-8.19,8.51-8.12Z" style="fill: #7bb8aa;"/>
    <path d="M99.07,752.95c.14-2.03-.08-3.04.31-3.65,1.4-2.23,2.79-5.8,4.61-6.07,1.9-.29,5.52,2.21,6.2,4.23,1.2,3.56,1.25,7.75.73,11.53-.24,1.71-3.01,4.31-4.59,4.28-1.92-.03-4.42-2.04-5.55-3.87-1.3-2.13-1.37-5.01-1.71-6.45Z" style="fill: #7bb8aa;"/>
    <path d="M140.32,200.66c-7.11-5.29-8.59-15.51-3.58-22.95,4.81,7.13,3.3,14.67,3.58,22.95Z" style="fill: #7bb8aa;"/>
    <path d="M161.41,194.49c-.04-6.53-.21-12.64,3.39-18.38,4.58,4.81,2.85,14.04-3.39,18.38Z" style="fill: #7bb8aa;"/>
    <path d="M784.32,926.44h-64.72c-.98-3.6,1.08-5.56,4.06-6.62,1.83-.65,3.92-.79,5.9-.8,14.95-.06,29.91-.1,44.86,0,4.46.03,8.72.81,9.9,7.41Z" style="fill: #7bb8aa;"/>
    <path d="M761.49,900.37c-.01,5.92-3.84,9.86-9.53,9.79-5.47-.06-9.42-4.32-9.39-10.1.03-5.47,3.95-9.43,9.38-9.46,5.71-.04,9.55,3.9,9.54,9.77Z" style="fill: #7bb8aa;"/>
    <path d="M64.48,303.87c.04,3.96-2.77,6.77-6.86,6.86-4.21.09-7.29-2.89-7.19-7.05.1-4.2,2.6-6.33,6.5-6.71,3.88-.38,7.51,3.1,7.55,6.9Z" style="fill: #7bb8aa;"/>
    <path d="M47.64,247.24c-.12,3.78-3.38,6.72-7.26,6.52-3.89-.2-6.93-3.4-6.77-7.12.16-3.75,3.5-6.78,7.3-6.63,3.69.15,6.84,3.53,6.73,7.23Z" style="fill: #7bb8aa;"/>
    <path d="M57.15,185.19c3.52.36,6.16,2.13,6.27,6.15.1,3.88-1.95,6.26-5.99,6.48-3.87.21-6.84-2.55-6.89-6.27-.04-3.42,2.84-6.3,6.6-6.36Z" style="fill: #7bb8aa;"/>
    <path d="M89.99,267.04c-5.3-.66-7.41-2.86-7.35-6.44.06-3.54,2.64-5.45,5.96-5.35,3.6.11,6.3,2.51,5.63,6.07-.44,2.32-3.07,4.23-4.24,5.71Z" style="fill: #7bb8aa;"/>
    <path d="M62.17,211.97c-2.15,1.59-4.16,4.17-6.5,4.53-3.57.54-5.85-2.35-5.88-5.85-.03-3.48,2.64-5.82,5.82-5.29,2.36.39,4.38,2.85,6.55,4.39v2.24Z" style="fill: #7bb8aa;"/>
    <path d="M40.93,260.86c1.62,2.15,4.28,4.15,4.62,6.48.48,3.35-1.98,6.14-5.67,6.09-3.6-.04-6.2-2.51-5.51-6.12.44-2.35,2.81-4.34,4.31-6.49.75.01,1.5.02,2.25.04Z" style="fill: #7bb8aa;"/>
    <path d="M72.15,219.21c5.21.6,7.67,2.43,7.48,6.16-.18,3.46-2.92,5.81-5.99,4.99-2.26-.6-5.16-3.43-5.41-5.55-.22-1.88,2.81-4.15,3.92-5.6Z" style="fill: #7bb8aa;"/>
    <path d="M81.85,276.66c-1.49,1.02-3.52,3.4-5.85,3.75-3.37.51-6-2.26-5.31-5.49.44-2.07,3.17-4.63,5.31-5.16,3.37-.83,5.39,1.68,5.85,6.9Z" style="fill: #7bb8aa;"/>
    <path d="M67.31,284.92c-1.98,1.54-3.79,4.01-5.97,4.41-3.2.58-6.26-1.68-5.63-5.11.38-2.08,3.15-4.85,5.19-5.16,1.87-.29,4.19,2.28,6.31,3.6.04.76.07,1.51.11,2.27Z" style="fill: #7bb8aa;"/>
    <path d="M63.17,227.04c-2.08,1.51-4.23,4.28-6.21,4.16-2.01-.12-3.85-3.1-5.77-4.82,1.8-1.86,3.44-4.98,5.44-5.24,1.97-.25,4.31,2.41,6.48,3.79.02.7.04,1.41.06,2.11Z" style="fill: #7bb8aa;"/>
    <path d="M72.56,249.98c-2.74-3.37-5.71-5.45-5.58-7.31.14-2.03,2.91-5.07,4.98-5.49,3.21-.65,5.86,2.05,5.39,5.47-.28,2.09-2.47,3.92-4.79,7.33Z" style="fill: #7bb8aa;"/>
    <path d="M39.74,292.52c-1.43-2.04-3.98-4.09-3.95-6.1.03-1.81,2.62-4.63,4.56-5.12,3.07-.78,5.79,1.69,5.53,4.81-.18,2.2-2.46,4.23-3.8,6.33-.78.03-1.56.06-2.34.08Z" style="fill: #7bb8aa;"/>
    <path d="M81.32,204.51c-2.03,1.39-3.91,3.59-6.11,3.97-3.24.56-5.68-2.11-5.01-5.09.48-2.12,3.15-4.88,5.16-5.18,1.75-.26,3.95,2.53,5.96,3.97,0,.77,0,1.55,0,2.32Z" style="fill: #7bb8aa;"/>
    <path d="M55.59,273.63c-1.39-2.05-3.66-3.99-3.95-6.18-.43-3.2,2.3-5.63,5.31-4.84,2.12.55,4.83,3.23,5.09,5.24.23,1.74-2.63,3.88-4.12,5.85-.78-.02-1.55-.04-2.33-.06Z" style="fill: #7bb8aa;"/>
    <path d="M38.94,230.63c-1.35-2.04-3.84-4.16-3.7-6.1.13-1.79,3.3-4.93,4.71-4.71,2.07.32,4.91,2.89,5.25,4.88.3,1.71-2.44,3.95-3.83,5.95-.81,0-1.62-.02-2.43-.03Z" style="fill: #7bb8aa;"/>
    <path d="M80.82,298.39c-1.9,1.43-3.64,3.66-5.75,4.09-3.11.63-5.84-1.67-5.33-4.77.31-1.89,3.05-4.44,4.97-4.7,1.83-.25,4.01,2.1,6.03,3.3.02.69.05,1.39.07,2.08Z" style="fill: #7bb8aa;"/>
    <path d="M77.26,260.7c-1.93,1.36-3.97,3.93-5.75,3.76-1.9-.18-3.55-2.96-5.3-4.6,1.65-1.73,3.15-4.64,4.98-4.86,1.84-.22,4.01,2.23,6.03,3.5.01.73.03,1.46.04,2.19Z" style="fill: #7bb8aa;"/>
    <path d="M93.64,229.18c-2.04,1.17-4.32,3.55-6.05,3.2-1.92-.39-3.33-3.27-4.97-5.06,1.94-1.48,3.79-3.94,5.84-4.12,1.61-.15,3.48,2.52,5.23,3.93-.02.69-.03,1.37-.05,2.06Z" style="fill: #7bb8aa;"/>
    <path d="M93.36,285.89c-1.74,1.3-3.34,3.39-5.26,3.73-3.21.57-5.8-1.64-5.35-4.85.25-1.78,2.88-4.41,4.53-4.49,1.94-.09,4,2.18,6.01,3.42.02.73.05,1.46.07,2.19Z" style="fill: #7bb8aa;"/>
    <path d="M57.45,239.5c1.42,1.87,3.92,3.73,3.94,5.61.01,1.59-2.6,4.12-4.48,4.62-3.01.8-5.38-1.51-5.08-4.53.19-1.95,2.26-3.71,3.48-5.56l2.14-.15Z" style="fill: #7bb8aa;"/>
  </g>
  <g>
    <path d="M327.87,652.01c7.84,0,15.18.1,22.51-.04,4.23-.08,8.49-.28,12.65-.95,6.73-1.1,12.23-4.63,17.03-10.38.15,1.59.31,2.51.31,3.43,0,77.68.05,155.35-.03,233.04-.02,20.27-15.17,33.41-35.35,30.98-5.08-.61-9.59-2.59-13.22-6.32-3.07-3.16-3.95-6.99-3.94-11.3.07-28.18.04-56.36.04-84.53v-153.92h0Z" style="fill: #7bb8aa;"/>
    <path d="M309.11,652.42v6.61c.02,76.04.02,152.09.07,228.13,0,13.98-5.72,20.28-19.64,21.32-14.32,1.06-28.2-8.56-31.38-21.91-.57-2.39-.67-4.94-.67-7.41-.06-78.17-.09-156.33-.1-234.49,0-1.07.13-2.14.25-3.85,8.74,9.82,19.75,11.74,31.52,11.61,6.46-.07,12.91-.01,19.96-.01h0Z" style="fill: #7bb8aa;"/>
    <path d="M296.53,402.19c1.05-7.44-.4-13.24-8.28-17.58-7.32-4.03-11.59-11.78-15.67-19.16-1-1.81-2.68-3.49-4.44-4.6-5.54-3.47-8.42-10.52-5.93-16.54.88-2.13,2.76-4.15,4.69-5.48,2.19-1.51,4.16-.63,4.29,2.36.13,2.86.07,5.73.04,8.6-.04,2.89,1.31,4.59,4.22,4.49,2.87-.1,3.52-2.08,3.59-4.65.19-6.58-.17-13.29,1.05-19.69,2.22-11.68,9.38-16.27,20.69-13,13.27,3.85,26.21,1.16,39.27-.28,10.7-1.19,13.34.12,15.15,10.7,1.25,7.3,1.13,14.85,1.54,22.29.22,4,2.99,6.02,6.04,4.01,1.03-.68,1.85-2.33,1.98-3.61.28-2.84.03-5.72.07-8.58.04-3,2.1-4.06,4.18-2.6,2.18,1.52,4.34,3.88,5.21,6.33,2.06,5.8-.97,12.31-6.26,15.84-1.54,1.03-3,2.59-3.79,4.24-4.86,10.15-11.57,18.53-21.61,24.04-.97.53-1.77,2.26-1.8,3.46-.19,6.35.07,12.71-.17,19.06-.4,10.11-6.09,17.79-14.96,20.71-8.77,2.89-18.01.21-23.91-6.97-3.28-3.99-4.93-8.63-5.15-13.74-.13-3.11-.02-6.23-.02-9.61h-.01ZM320.28,349.53h-.04c0-4.6.07-9.2-.03-13.8-.05-2.42-1.32-4.12-3.88-4.11-2.57.01-3.67,1.76-3.86,4.16-.04.49,0,1,0,1.49.04,7.33.24,14.67.04,22.01-.06,2.32-.86,4.78-1.9,6.88-1.57,3.18-.54,5.9,2.96,6.18,2.6.21,5.23.26,7.82.02,1.02-.1,2.56-1.01,2.77-1.83.28-1.1-.14-3.22-.9-3.59-3.4-1.63-2.94-4.55-2.98-7.35-.04-3.36,0-6.71,0-10.07h0ZM290.51,340.36c0,4.44-.06,8.43.02,12.41.06,2.73,2.21,3.91,4.29,3.59,1.72-.26,4.41-1.83,4.59-3.11.58-4.22.22-8.57.22-12.89,0,0-9.13,0-9.13,0ZM333.75,340.4c0,4.37-.04,8.33.01,12.29.04,2.73,2.18,3.92,4.24,3.64,1.73-.23,4.47-1.8,4.64-3.08.59-4.2.22-8.53.22-12.85,0,0-9.12,0-9.12,0ZM308.49,384.74h17.73v-5.96h-17.73v5.96Z" style="fill: #7bb8aa;"/>
    <path d="M534.11,301.71c4.97,11.01,11,20.52,19.66,28.17,6.15,5.43,13,9.62,20.93,11.88,2.2.63,3.11,1.66,3.35,4.08,1.76,17.69-7.62,34.5-23.54,42.15-.97.46-1.83,2.18-1.86,3.35-.22,6.34.16,12.73-.3,19.05-.63,8.46-4.56,15.12-12.96,17.93-8.31,2.78-16.05,1.39-22.33-5.13-4.33-4.49-5.43-10.27-5.63-16.21-.18-5.48.06-10.97-.15-16.45-.04-1.17-.97-2.82-1.97-3.36-15.8-8.48-24.84-26.06-22.34-43.76.09-.61.3-1.24.25-1.85-.22-3.17,1.31-4.36,4.36-5.13,14-3.51,24.57-12.24,33.63-23.03,3.02-3.61,5.72-7.48,8.91-11.69h-.01ZM526.25,329.04c0,9.78.07,19.21-.04,28.63-.03,2.31-.4,4.68-1.04,6.91-.87,3.06.31,5.1,3.02,5.76,2.47.6,5.17.44,7.74.25.82-.06,2.07-1.26,2.17-2.07.13-1.03-.43-2.42-1.16-3.24-.67-.76-1.96-.97-3.32-1.57v-34.69h-7.37ZM504.69,339.51c0,4.09-.37,7.86.2,11.48.2,1.28,2.69,3.04,4.15,3.05,1.44.01,3.97-1.74,4.16-3,.56-3.73.2-7.6.2-11.53h-8.71,0ZM546.89,339.6c0,4.01-.11,7.85.04,11.67.1,2.6,2.15,3.11,4.28,3.1,2.16,0,4.1-.65,4.18-3.22.13-3.81.03-7.62.03-11.55h-8.54,0ZM521.24,383.21h18.23v-6.03h-18.23v6.03Z" style="fill: #7bb8aa;"/>
    <path d="M583.16,414.42c14.55,1.2,26.06,6.67,33.46,19.23,6.3,10.71,8.77,22.51,8.88,34.74.45,47.87.79,95.74.93,143.62.02,8.71-2.6,16.98-7.56,24.29-3.28,4.85-7.84,7.57-13.81,7.6-6.53.04-11.82-4.15-13.15-10.54-.16-.76.19-2.06.75-2.45,8.67-5.96,10.22-14.8,10.15-24.39-.33-40.52-.55-81.04-1-121.56-.1-8.83-.66-17.68-1.59-26.46-.41-3.87-1.65-7.95-3.64-11.27-2.03-3.38-4.92-7.19-8.34-8.57-4.82-1.95-5.37-4.71-5.14-8.99.28-4.94.07-9.91.07-15.28h0Z" style="fill: #7bb8aa;"/>
    <path d="M484.09,414.55c0,6.94.06,13.53-.08,20.12-.01.79-.99,2.03-1.77,2.27-7.67,2.42-11.92,8.18-14.09,15.33-1.68,5.54-3.07,11.42-3.13,17.16-.43,44.12-.58,88.24-.61,132.36,0,5.42.92,10.91,2.01,16.24.99,4.84,3.57,9.06,7.71,12,1.77,1.26,1.95,2.48,1.23,4.4-3.52,9.4-15.38,12.32-23.18,5.51-6.45-5.63-9.02-13.33-10.42-21.41-.76-4.39-1.06-8.92-1.06-13.39.01-44.87.07-89.73.26-134.61.05-11.81,2-23.32,7.37-34.01,6.96-13.83,18.7-20.48,33.68-22.16.47-.05.97.07,2.08.16h.01Z" style="fill: #7bb8aa;"/>
    <path d="M385.49,417.47c11.92-.74,25.46,7.74,30.71,19.9,2.46,5.7,4.25,12.16,4.42,18.32,1.08,38.99,1.71,78,2.33,117,.25,15.44.47,30.92-.1,46.35-.18,4.83-2.36,9.92-4.77,14.27-2.93,5.28-8.21,7.62-14.34,6.67-6.43-.99-9.7-5.63-11.76-11.29-.26-.71-.01-2.13.51-2.53,6.16-4.54,7.17-11.1,7.09-18-.21-20.44-.38-40.88-.79-61.32-.55-27.04-1.23-54.07-2.09-81.11-.17-5.3-1.15-10.65-2.3-15.85-1.08-4.92-3.47-9.31-7.52-12.62-.67-.55-1.32-1.59-1.34-2.42-.11-5.71-.06-11.43-.06-17.37h.01Z" style="fill: #7bb8aa;"/>
    <path d="M250.59,416.91c0,6.5.03,12.57-.04,18.63,0,.61-.49,1.44-1.01,1.81-8.52,6.16-10.96,15.2-11.32,24.92-.64,17.55-.98,35.13-1.23,52.7-.44,30.53-.73,61.06-1.08,91.59-.09,7.48.04,14.84,7.15,19.76.44.31.55,1.62.32,2.3-1.84,5.46-4.92,9.83-10.98,11.13-5.85,1.25-10.62-.88-14.21-5.38-5.19-6.5-6.09-14.33-6.01-22.27.34-31.28.74-62.55,1.16-93.83.25-19.31.48-38.63.92-57.94.2-8.64,1.59-17.12,6.03-24.78,5.47-9.44,13.46-15.53,24.15-17.94,1.77-.4,3.63-.41,6.16-.68h0Z" style="fill: #7bb8aa;"/>
    <path d="M509.54,919.17h-24.68v-180.78h24.68v180.78Z" style="fill: #7bb8aa;"/>
    <path d="M576.66,919.24h-24.5v-180.88h24.5v180.88Z" style="fill: #7bb8aa;"/>
    <path d="M362.43,527.08c-1.23-.22-2.52-.78-3.67-.58-2.04.35-3.01-.4-4.21-1.98-1.78-2.36-4.28-4.19-6.09-6.54-.78-1.01-.61-2.75-.86-4.17,1.55.06,3.49-.44,4.57.31,2.53,1.74,4.65,4.07,7.37,6.55,1.62-1.58,3.58-3.55,5.6-5.45.9-.85,1.82-1.92,2.92-2.24.94-.28,2.55.04,3.11.72.55.67.6,2.48.07,3.17-1.68,2.14-3.92,3.85-5.59,5.99-1.16,1.49-1.74,3.42-2.96,5.96,3.83,0,6.48-.31,9,.11,1.52.25,2.85,1.64,4.26,2.52-1.41.74-2.78,1.93-4.26,2.12-2.63.35-5.35.1-8.04.1-.18.37-.35.74-.53,1.11.84,1.25,1.56,2.6,2.54,3.72,1.88,2.15,4.12,4.03,5.75,6.34.58.81.18,2.79-.47,3.78-.31.48-2.66.37-3.36-.27-2.75-2.49-5.21-5.3-8.58-8.84-2.19,2.54-4.28,5.13-6.56,7.53-1.36,1.43-3.03,3.04-5.01.79-1.86-2.12.13-3.38,1.3-4.7,2.49-2.79,5.08-5.5,8.31-8.97-4.68-.28-8.01-.31-11.29-.78-1.03-.14-1.89-1.45-2.83-2.22.97-.73,1.92-2.07,2.93-2.11,5.43-.21,10.88-.1,16.32-.1.1-.62.19-1.25.29-1.87h-.01Z" style="fill: #7bb8aa;"/>
    <path d="M319.09,526.78c4.03-3.85,8-7.62,11.93-11.42,1.33-1.29,2.49-2.49,4.31-.55,1.8,1.93.51,3.03-.81,4.29-3.93,3.79-7.82,7.61-12.58,12.25,4.43,4.08,8.55,7.81,12.6,11.63,1.32,1.25,3.08,2.59.96,4.61-2.08,1.98-3.23.14-4.61-1.1-4.06-3.67-8.16-7.3-12.2-10.9-3.35,3.21-7.47,7.12-11.58,11.07-3.2,3.09-3.44,3.07-5.75-.68,4.69-4.83,9.35-9.63,14.41-14.84-4.12-4.18-8.17-8.16-12.02-12.3-.82-.88-1.61-2.75-1.21-3.58.93-1.95,2.54-2.4,4.4-.48,3.98,4.11,8.12,8.06,12.13,12.01h0Z" style="fill: #7bb8aa;"/>
    <path d="M256.52,555.86c41.5-1.08,83-1.16,124.5-.04v1.43h-124.43c-.02-.46-.05-.94-.07-1.4h0Z" style="fill: #7bb8aa;"/>
    <path d="M255.97,505.01c41.56-1.36,83.13-1.32,124.7-.06-41.56,1.8-83.13,1.55-124.7.06Z" style="fill: #7bb8aa;"/>
    <path d="M513.05,463.98c-4.23.46-8.46.92-13.32,1.45,2.75,4.12,5.32,7.96,8.31,12.44h-16.79c2.18-3.97,4.35-7.92,6.84-12.44h-12.03c-.08-1.49-.14-2.54-.25-4.53,9.28.56,18.24,1.11,27.2,1.65.01.47.03.94.04,1.42h0Z" style="fill: #7bb8aa;"/>
    <path d="M569.01,465.19h-11.86c-.13-1.31-.24-2.36-.43-4.31,9.31.52,18.24,1.03,27.18,1.53,0,.43,0,.85,0,1.27-4.04.39-8.08.78-12.92,1.24,2.78,4.15,5.27,7.86,8.16,12.15h-16.69c2.1-3.79,4.21-7.6,6.57-11.88h0Z" style="fill: #7bb8aa;"/>
    <path d="M521.89,463.01c9.18-.4,18.36-.79,27.56-1.18,1.03,2.32.75,3.55-1.86,3.52-3.97-.04-7.93,0-12.82,0,3.04,4.6,5.66,8.56,8.54,12.94h-16.56c2.27-4.18,4.47-8.22,6.85-12.63-4.33-.59-8.04-1.1-11.76-1.61.01-.34.04-.7.05-1.04h0Z" style="fill: #7bb8aa;"/>
    <path d="M538.54,567.49h-7.64c0-6.45-.13-12.74.06-19.02.08-2.88,2.66-1.94,4.34-2.07,1.69-.13,3.27.11,3.25,2.45-.03,6.06,0,12.13,0,18.64h0Z" style="fill: #7bb8aa;"/>
    <path d="M275.58,536.79c1.24,1.16,3.28.65,4.28-.7,3.13,2.61,6.29,5.19,9.39,7.86,1.56,1.34,2.44,2.78.47,4.65-1.82,1.73-3.03.84-4.34-.59-2.43-2.64-4.91-5.25-6.69-7.13-2.7,2.23-5.57,4.55-8.37,6.94-1.52,1.29-2.93,2.39-4.77.48-1.83-1.92-.37-3.28.9-4.35,2.95-2.5,6.08-4.78,9.14-7.15Z" style="fill: #7bb8aa;"/>
    <path d="M280.64,526.89c-.6-.91-1.27-1.94-2.04-3.09-1.64,1.49-2.8,2.54-3.78,3.43-2.87-3.15-5.6-6.15-8.34-9.15-1.25-1.38-2.26-2.75-.47-4.47,1.77-1.7,3.07-.64,4.44.62,2.48,2.26,5.01,4.45,7.36,6.52,2.16-1.96,4.88-4.41,7.59-6.88,1.26-1.14,2.44-2.18,4.11-.52,1.7,1.69,1,3.08-.33,4.48-2.72,2.87-5.44,5.76-8.54,9.05h0Z" style="fill: #7bb8aa;"/>
    <path d="M502.08,567.63h-7.62c0-6.37-.13-12.65.06-18.93.09-2.91,2.72-1.81,4.37-2.03,1.86-.24,3.19.38,3.19,2.57v18.39Z" style="fill: #7bb8aa;"/>
    <path d="M274.46,598.63c3.4,2.88,6.58,5.58,10.12,8.57-3.18,2.32-5.99,4.5-8.96,6.45-.6.39-1.96.2-2.66-.23-2.93-1.83-5.73-3.85-8.95-6.05,3.63-3.04,7-5.86,10.45-8.75h0Z" style="fill: #7bb8aa;"/>
    <path d="M318.77,598.43c3.49,2.96,6.59,5.58,10,8.46-3.25,2.42-6.14,4.68-9.18,6.73-.58.39-1.93.2-2.59-.23-2.66-1.77-5.2-3.75-8.37-6.08,3.44-3.02,6.71-5.88,10.14-8.88h0Z" style="fill: #7bb8aa;"/>
    <path d="M340.16,631.44c-3.34-2.93-6.3-5.52-9.57-8.38,3.34-2.91,6.39-5.56,9.61-8.37,3.2,2.74,6.25,5.34,9.67,8.26-3.38,2.96-6.43,5.61-9.71,8.48h0Z" style="fill: #7bb8aa;"/>
    <path d="M287.74,623.22c3.3-2.96,6.32-5.68,9.55-8.59,3.23,2.75,6.31,5.37,9.71,8.26-3.27,2.9-6.32,5.59-9.67,8.56-3.1-2.66-6.15-5.28-9.58-8.23Z" style="fill: #7bb8aa;"/>
    <path d="M372.19,607.08c-3.18,2.36-5.9,4.49-8.75,6.42-.64.43-1.98.57-2.57.19-2.88-1.88-5.61-3.98-8.78-6.28,3.42-3.06,6.61-5.91,9.9-8.84,3.32,2.77,6.54,5.46,10.21,8.52h0Z" style="fill: #7bb8aa;"/>
    <path d="M277.72,533.46c-4.48,0-8.97.15-13.44-.1-1.14-.07-2.2-1.42-3.3-2.18,1.14-.73,2.27-2.07,3.44-2.1,8.84-.2,17.7-.22,26.53-.06,1.16.02,2.29,1.4,3.43,2.15-1.08.75-2.12,2.04-3.26,2.15-4.44.44-8.93.51-13.4.71,0-.19,0-.37,0-.56h0Z" style="fill: #7bb8aa;"/>
    <path d="M566.67,567.47c0-6.4.07-12.37-.04-18.32-.04-2.63,1.57-2.79,3.4-2.65,1.65.13,4.09-.89,4.11,2.23.03,6.18,0,12.37,0,18.74h-7.49,0Z" style="fill: #7bb8aa;"/>
    <path d="M524.63,567.58h-7.51c0-6.44-.06-12.73.02-19,.04-2.77,2.37-1.96,3.91-2.12,1.85-.19,3.57.09,3.57,2.59v18.53h0Z" style="fill: #7bb8aa;"/>
    <path d="M560.45,567.54h-7.44c0-6.54-.13-12.93.18-19.3.03-.67,2.53-1.5,3.98-1.78,2.04-.4,3.29.57,3.28,2.85-.02,5.93,0,11.86,0,18.23h0Z" style="fill: #7bb8aa;"/>
    <path d="M284.34,623.27c-3.6,2.99-6.63,5.5-9.8,8.13-3.33-2.63-6.5-5.15-10.27-8.12,3.37-2.36,6.42-4.54,9.54-6.61.35-.23,1.23-.02,1.65.27,2.84,1.95,5.61,3.99,8.87,6.33h0Z" style="fill: #7bb8aa;"/>
    <path d="M362.3,631.5c-3.27-2.74-6.37-5.33-9.84-8.25,3.4-2.54,6.46-4.81,9.59-7.15,3.38,2.39,6.61,4.67,10.15,7.17-3.45,2.86-6.57,5.45-9.9,8.22Z" style="fill: #7bb8aa;"/>
    <path d="M318.95,631.42c-3.42-2.78-6.49-5.28-10-8.14,3.29-2.48,6.39-4.81,9.49-7.15,3.4,2.36,6.52,4.53,10.07,7-3.34,2.89-6.37,5.52-9.55,8.28h0Z" style="fill: #7bb8aa;"/>
    <path d="M324.17,580.12c4.73-.8,7.6.82,8.62,4.88.69,2.75,1.32,5.52,2.04,8.55h-9.49c-.39-4.41-.77-8.82-1.18-13.43h0Z" style="fill: #7bb8aa;"/>
    <path d="M478.68,691.26c.91-.79,1.34-1.22,1.82-1.59,7.92-6.08,8.23-6.05,15.39,2.1-2.68,1.81-5.26,3.69-7.99,5.3-.6.36-1.95.08-2.6-.39-2.18-1.59-4.21-3.41-6.62-5.42h0Z" style="fill: #7bb8aa;"/>
    <path d="M378.05,593.64h-9.32c-.34-4.52-.68-9.01-1.02-13.45,6.85-1.34,6.93-1.31,8.42,4.93.66,2.76,1.24,5.54,1.92,8.51Z" style="fill: #7bb8aa;"/>
    <path d="M347.92,593.52c1.02-4.13,1.89-8.11,3.01-12.02,1-3.48,3.94-1.48,6.01-1.66.36-.03,1.33,2.04,1.29,3.1-.16,3.46-.66,6.89-1.06,10.59h-9.25Z" style="fill: #7bb8aa;"/>
    <path d="M269.88,593.65h-9.61c1.22-4.45,1.97-8.87,3.8-12.79.55-1.19,4.09-.98,6.94-1.55-.41,5.21-.75,9.57-1.12,14.34h0Z" style="fill: #7bb8aa;"/>
    <path d="M314.81,579.26c-.37,5.27-.67,9.66-1,14.26h-9.64c1.25-4.41,2.16-8.92,3.96-13.05.43-1,3.77-.75,6.68-1.21h0Z" style="fill: #7bb8aa;"/>
    <path d="M290.54,593.67h-9.18c-.41-4.48-.82-8.88-1.21-13.24,5.94-1.9,7-1.34,8.36,4.33.69,2.88,1.32,5.78,2.04,8.9Z" style="fill: #7bb8aa;"/>
    <path d="M337.12,495.86h-12.7c1.01-2.91,1.94-5.66,2.93-8.4.97-2.67,1.99-5.31,3.4-9.07,2.33,6.36,4.29,11.73,6.37,17.46h0Z" style="fill: #7bb8aa;"/>
    <path d="M279,433.55c2.11-5.5,4.08-10.64,6.05-15.78h.87c1.97,5.12,3.94,10.24,6.06,15.79h-12.97Z" style="fill: #7bb8aa;"/>
    <path d="M303.5,495.62c2.05-5.52,3.99-10.72,5.93-15.93.28-.06.56-.12.84-.18,1.94,5.21,3.88,10.41,6,16.11h-12.76Z" style="fill: #7bb8aa;"/>
    <path d="M266.19,418.02c1.92,5.04,3.85,10.08,5.94,15.57h-13.02c2.08-5.34,4.09-10.51,6.1-15.66l.97.09h0Z" style="fill: #7bb8aa;"/>
    <path d="M365.3,433.62c2.16-5.51,4.17-10.6,6.17-15.7.29,0,.58-.01.88-.03,1.97,5.1,3.94,10.21,6.06,15.73h-13.12Z" style="fill: #7bb8aa;"/>
    <path d="M352.78,416.61c2.44,6.32,4.46,11.55,6.59,17.07h-13c2.1-5.58,4.06-10.8,6.41-17.07h0Z" style="fill: #7bb8aa;"/>
    <path d="M504.62,687.79c4.99-2.55,8.77-1.51,11.35,3.11.52.94,1,1.91,1.41,2.72-.19.35-.22.5-.31.56-4.35,2.66-7.78,1.78-10.27-2.64-.67-1.18-1.36-2.34-2.18-3.76h0Z" style="fill: #7bb8aa;"/>
    <path d="M584.88,455.92h-13.55c2.3-4.27,4.49-8.34,6.92-12.84,2.24,4.35,4.27,8.28,6.63,12.84Z" style="fill: #7bb8aa;"/>
    <path d="M514.83,455.93h-13.67c2.27-4.21,4.4-8.15,6.81-12.62,2.38,4.38,4.51,8.3,6.86,12.62h0Z" style="fill: #7bb8aa;"/>
    <path d="M547.13,687.9c.07-.1.12-.24.21-.28,8.37-3.49,6.29-5.37,11.29,6.76-7.7,4.03-6.57,4.93-11.5-6.49Z" style="fill: #7bb8aa;"/>
    <path d="M504.69,670.64c2.11-.64,4.19-1.45,6.34-1.83.76-.13,2.1.58,2.51,1.28,1.41,2.47,2.51,5.1,3.74,7.66-7.09,3.48-9.54,2.09-12.59-7.12h0Z" style="fill: #7bb8aa;"/>
    <path d="M535.77,456.66c2.38-4.26,4.57-8.19,7.09-12.7,2.29,4.5,4.26,8.39,6.46,12.7h-13.55Z" style="fill: #7bb8aa;"/>
    <path d="M533.22,456.37h-13.12c2.21-4.32,4.16-8.16,6.52-12.78,2.35,4.54,4.39,8.49,6.61,12.78h0Z" style="fill: #7bb8aa;"/>
    <path d="M552.59,667.15c2.41,2.17,4.51,4.07,7,6.31-2.21,2.43-4.34,4.76-6.63,7.27-2.29-2.16-4.26-4.02-6.42-6.05,1.95-2.42,3.86-4.8,6.05-7.53h0Z" style="fill: #7bb8aa;"/>
    <path d="M272.79,443.89c-2.1,4.24-4.05,8.17-5.99,12.1h-1.2c-1.68-3.88-3.37-7.75-5.26-12.1h12.45Z" style="fill: #7bb8aa;"/>
    <path d="M292,443.76c-2.25,4.38-4.25,8.28-6.26,12.19l-1.17-.06c-1.68-3.88-3.36-7.77-5.25-12.12h12.67Z" style="fill: #7bb8aa;"/>
    <path d="M499.86,640.53c2.97,3.98,5.32,7.12,7.89,10.56-4.99,4.25-5.46-1.82-8.04-3.11-1.92,1.84-2.56,6.97-7.56,3.11,2.45-3.35,4.8-6.57,7.71-10.56h0Z" style="fill: #7bb8aa;"/>
    <path d="M370.89,455.49c-1.61-3.79-3.22-7.56-4.99-11.75h12.59c-2.15,4.19-4.14,8.04-6.11,11.88-.49-.04-.99-.09-1.47-.13h0Z" style="fill: #7bb8aa;"/>
    <path d="M561.55,651.14c-4.76,4.61-5.21-1.85-7.91-2.85-.84,1.22-1.53,2.74-2.68,3.69-.72.59-2.14.33-3.25.44-.05-1.06-.53-2.37-.07-3.14,1.38-2.33,2.99-4.56,4.81-6.56.46-.51,2.59-.42,3.06.14,2.13,2.54,3.95,5.33,6.05,8.27h0Z" style="fill: #7bb8aa;"/>
    <path d="M524.08,584.48c2.29-3.96,4.38-7.57,6.79-11.75,2.4,4.1,4.53,7.73,6.89,11.75h-13.69,0Z" style="fill: #7bb8aa;"/>
    <path d="M558.38,584.57h-13.51c2.29-4.05,4.38-7.76,6.78-11.99,2.31,4.12,4.37,7.79,6.73,11.99h0Z" style="fill: #7bb8aa;"/>
    <path d="M572.44,572.48c2.39,4.36,4.44,8.09,6.65,12.13h-13.46c2.26-4.02,4.35-7.74,6.81-12.13h0Z" style="fill: #7bb8aa;"/>
    <path d="M485.39,667.58c3.24,1.03,6.13,1.96,9.59,3.07-1.49,2.54-2.57,5.4-4.56,7.33-1.05,1.02-3.73.59-5.6.32-.43-.06-.91-2.16-.79-3.27.24-2.41.85-4.79,1.35-7.45Z" style="fill: #7bb8aa;"/>
    <path d="M517.15,584.57h-13.7c2.29-4.05,4.39-7.75,6.77-11.94,2.34,4.04,4.47,7.71,6.94,11.94h0Z" style="fill: #7bb8aa;"/>
    <path d="M489.71,572.59c2.38,4.18,4.48,7.88,6.77,11.93h-13.54c2.26-4,4.39-7.74,6.76-11.93h0Z" style="fill: #7bb8aa;"/>
    <path d="M500.08,640.19c-3.24,0-6.49.1-9.72-.07-.91-.04-1.77-.9-2.65-1.38.78-.58,1.54-1.65,2.34-1.68,6.35-.18,12.7-.23,19.06-.11.94.01,1.86,1.12,2.78,1.72-.94.52-1.86,1.41-2.84,1.48-2.98.19-5.98.07-8.97.07v-.04h0Z" style="fill: #7bb8aa;"/>
    <path d="M347.04,443.75h12.21c-2.13,4.23-4.07,8.08-6.02,11.93-.45,0-.91,0-1.35,0-1.53-3.76-3.05-7.53-4.84-11.95h0Z" style="fill: #7bb8aa;"/>
    <path d="M500.11,629.98c1.06-1.56,1.67-3.06,2.78-3.91.88-.67,2.37-.51,3.59-.71-.07,1.07.19,2.33-.28,3.17-1.03,1.83-2.45,3.45-3.67,5.18-1.85,2.6-3.58,2.21-5.29-.13-1.32-1.81-2.78-3.53-3.9-5.45-.41-.72-.37-2.38.12-2.75.61-.47,2.24-.45,2.83.06,1.38,1.19,2.39,2.79,3.82,4.56h0Z" style="fill: #7bb8aa;"/>
    <path d="M553.97,630.1c1.23-1.73,1.95-3.28,3.15-4.26.72-.59,2.16-.29,3.28-.4,0,.97.37,2.14-.05,2.85-1.26,2.12-2.75,4.13-4.3,6.06-1.38,1.71-3,1.68-4.35-.07-1.59-2.05-3.15-4.15-4.49-6.35-.36-.59-.15-2.2.29-2.45.76-.42,2.3-.56,2.84-.07,1.32,1.22,2.26,2.86,3.63,4.7h0Z" style="fill: #7bb8aa;"/>
    <path d="M579.45,600.46h-13.48c2.27-4.02,4.34-7.7,6.67-11.84,2.37,4.13,4.43,7.71,6.8,11.84Z" style="fill: #7bb8aa;"/>
    <path d="M561.92,443.33c2.45,4.66,4.51,8.56,6.79,12.9h-12.83c1.96-4.18,3.82-8.16,6.04-12.9Z" style="fill: #7bb8aa;"/>
    <path d="M558.48,600.41h-13.45c2.23-3.94,4.26-7.53,6.65-11.75,2.42,4.18,4.51,7.8,6.8,11.75h0Z" style="fill: #7bb8aa;"/>
    <path d="M530.85,588.59c2.38,4.19,4.45,7.83,6.7,11.79h-13.34c2.24-3.99,4.29-7.62,6.64-11.79Z" style="fill: #7bb8aa;"/>
    <path d="M489.75,588.73c2.5,4.32,4.52,7.82,6.73,11.64h-13.48c2.3-3.96,4.41-7.62,6.75-11.64h0Z" style="fill: #7bb8aa;"/>
    <path d="M503.7,600.38c2.21-3.89,4.21-7.41,6.57-11.56,2.33,3.99,4.44,7.59,6.76,11.56h-13.33Z" style="fill: #7bb8aa;"/>
    <path d="M489.68,443.72c2.55,4.45,4.68,8.17,7.06,12.33h-12.73c1.88-4.09,3.63-7.9,5.66-12.33Z" style="fill: #7bb8aa;"/>
    <path d="M537.59,616.33h-13.51c2.37-3.97,4.49-7.5,6.9-11.54,2.31,4.03,4.35,7.59,6.61,11.54Z" style="fill: #7bb8aa;"/>
    <path d="M579.6,616.34h-13.55c2.29-3.95,4.36-7.5,6.67-11.48,2.37,3.96,4.44,7.41,6.88,11.48h0Z" style="fill: #7bb8aa;"/>
    <path d="M503.58,616.14c2.31-3.91,4.38-7.38,6.69-11.3,2.22,3.88,4.23,7.36,6.48,11.3h-13.17Z" style="fill: #7bb8aa;"/>
    <path d="M551.82,604.86c2.4,4.13,4.43,7.61,6.65,11.43h-13.4c2.29-3.88,4.38-7.42,6.75-11.43Z" style="fill: #7bb8aa;"/>
    <path d="M496.47,616.34h-13.39c2.2-3.8,4.2-7.25,6.63-11.45,2.35,3.98,4.37,7.4,6.76,11.45Z" style="fill: #7bb8aa;"/>
    <path d="M352.11,494.97c-1.41-3.61-2.83-7.21-4.42-11.27h10.8c-1.77,3.93-3.43,7.63-5.1,11.34-.43-.02-.85-.04-1.29-.07h0Z" style="fill: #7bb8aa;"/>
    <path d="M284.8,495.39c-1.48-3.59-2.96-7.18-4.62-11.22h11.23c-1.8,3.85-3.52,7.56-5.26,11.28l-1.35-.06Z" style="fill: #7bb8aa;"/>
    <path d="M366.81,483.52h11.19c-1.84,4.03-3.56,7.79-5.28,11.55-.4-.03-.8-.07-1.2-.1-1.48-3.6-2.96-7.21-4.71-11.45h0Z" style="fill: #7bb8aa;"/>
    <path d="M507.44,496.52c-2.33-3.89-4.21-7.02-6.35-10.59h12.85c-2.2,3.58-4.1,6.68-6.5,10.59Z" style="fill: #7bb8aa;"/>
    <path d="M554.26,640.22c-3.34,0-6.69.08-10.03-.07-.76-.04-1.47-.88-2.21-1.35.76-.58,1.5-1.65,2.26-1.66,6.43-.14,12.88-.15,19.31-.02.79.01,1.56,1.05,2.33,1.61-.79.51-1.56,1.42-2.37,1.47-3.09.17-6.19.07-9.29.07v-.05h0Z" style="fill: #7bb8aa;"/>
    <path d="M497.05,485.86c-1.81,3.58-3.46,6.81-5.45,10.74-2.47-3.86-4.5-7.04-6.86-10.74h12.32Z" style="fill: #7bb8aa;"/>
    <path d="M570.37,485.85h12.39c-2.23,3.65-4.16,6.82-6.53,10.71-2.11-3.86-3.85-7.04-5.86-10.71Z" style="fill: #7bb8aa;"/>
    <path d="M272.08,484.12c-1.87,3.9-3.63,7.56-5.39,11.22-.4-.03-.82-.06-1.22-.09-1.44-3.57-2.88-7.14-4.49-11.13h11.1,0Z" style="fill: #7bb8aa;"/>
    <path d="M543.86,497.02c-2.39-3.94-4.35-7.19-6.6-10.91h12.5c-1.92,3.55-3.71,6.86-5.9,10.91h0Z" style="fill: #7bb8aa;"/>
    <path d="M521.77,513.34c-.19,2.35-1.82,3.78-4.57,3.73-2.94-.06-4.56-1.65-4.5-4.7.05-2.96,1.91-4.18,4.54-4.3,2.64-.13,4.63,2.09,4.53,5.27h0Z" style="fill: #7bb8aa;"/>
    <path d="M496.16,512.14c.09-2.4,1.72-3.76,4.44-3.89,2.81-.13,4.81,1.81,4.7,4.5-.12,2.83-1.8,4.23-4.47,4.44-2.71.2-4.67-1.8-4.66-5.04h0Z" style="fill: #7bb8aa;"/>
    <path d="M552.43,507.83c2.73.43,4.32,1.93,4.4,4.7.07,2.75-1.99,4.54-4.84,4.36-2.93-.19-4.14-1.92-4.09-4.69.04-2.98,1.98-4.01,4.53-4.37Z" style="fill: #7bb8aa;"/>
    <path d="M535.18,516.91c-2.9-.1-4.3-1.8-4.34-4.5-.04-2.87,1.82-4.24,4.5-4.4,2.66-.16,4.68,2.07,4.54,4.74-.14,2.63-1.95,4.22-4.7,4.16h0Z" style="fill: #7bb8aa;"/>
    <path d="M553.59,486.03h12.55c-2.21,3.57-4.18,6.76-6.55,10.59-2.18-3.85-3.97-7-6-10.59h0Z" style="fill: #7bb8aa;"/>
    <path d="M526.05,496.33c-1.84-2.92-3.31-5.21-4.74-7.52-.44-.71-.79-1.48-1.44-2.73h12c-1.91,3.36-3.73,6.55-5.82,10.25h0Z" style="fill: #7bb8aa;"/>
    <path d="M569.44,516.9c-2.72-.07-4.33-1.41-4.41-4.3-.08-2.91,1.56-4.5,4.26-4.57,2.72-.07,4.55,1.59,4.58,4.35.04,2.67-1.4,4.44-4.43,4.53h0Z" style="fill: #7bb8aa;"/>
    <path d="M579.32,691.47c-5.82,4.18-6.96,4.23-13.97.48,4.74-4.83,7.44-4.92,13.97-.48Z" style="fill: #7bb8aa;"/>
    <path d="M525.37,690.87c6.32-4.09,8.04-4.02,13.91.52-6.43,3.94-8.87,3.85-13.91-.52Z" style="fill: #7bb8aa;"/>
    <path d="M565.07,675.78c8.6-4.73,5.98-4.99,14.15.1-4.74,3.89-9.46,3.09-14.15-.1Z" style="fill: #7bb8aa;"/>
    <path d="M503.55,707.31c1.86,2.39,3.53,4.53,5.32,6.83-1.22,1.63-2.45,3.28-3.69,4.92-6.04-4.34-6.17-5.25-1.63-11.75Z" style="fill: #7bb8aa;"/>
    <path d="M565.19,660.62c4.82-3.67,9.45-4.26,14.12-.22-4.5,4.46-9.16,3.63-14.12.22Z" style="fill: #7bb8aa;"/>
    <path d="M579.37,714.15c-1.31,1.82-2.38,3.31-3.44,4.78-6.17-3.91-6.37-5.25-1.57-11.44,1.66,2.21,3.27,4.35,5.01,6.66h0Z" style="fill: #7bb8aa;"/>
    <path d="M489.89,707.61c1.81,2.33,3.39,4.37,5.07,6.54-1.31,1.66-2.59,3.27-3.87,4.89-6.08-4.93-6.23-6.6-1.21-11.43h0Z" style="fill: #7bb8aa;"/>
    <path d="M538.99,675.75c-4.63,3.73-9.15,3.14-13.62-.34,7.87-4.85,6.83-4.55,13.62.34Z" style="fill: #7bb8aa;"/>
    <path d="M561.72,719.26c-3.81-3.91-4.26-7.85-1.36-11.83,1.74,2.1,3.43,4.15,5.33,6.46-1.24,1.68-2.51,3.4-3.97,5.36Z" style="fill: #7bb8aa;"/>
    <path d="M310.03,455.84c-2.1-3.58-3.64-6.18-5.41-9.2h11.39c-2.01,3.09-3.7,5.69-5.99,9.2h0Z" style="fill: #7bb8aa;"/>
    <path d="M330.47,455.45c-1.07-.97-1.54-1.23-1.77-1.62-1.27-2.23-2.49-4.5-3.96-7.18h10.68c-1.67,2.97-3.18,5.65-4.95,8.8h0Z" style="fill: #7bb8aa;"/>
    <path d="M537.27,662.18c-4.57,2.5-8.24,1.06-11.84-1.88,5.56-2.54,9.51-1.92,11.84,1.88Z" style="fill: #7bb8aa;"/>
    <path d="M331.72,469.84c.88,1.5,2.57,3.1,2.39,4.46-.17,1.32-2.5,3.49-3.48,3.29-1.47-.3-3.46-2.24-3.62-3.65-.14-1.26,1.91-2.78,2.99-4.18.57.02,1.14.05,1.71.07h0Z" style="fill: #7bb8aa;"/>
    <path d="M357.04,463.98c-1.45,1.01-2.97,2.9-4.32,2.79-1.38-.12-2.6-2.2-3.89-3.43,1.26-1.23,2.39-3.25,3.81-3.47,1.31-.2,2.92,1.51,4.4,2.38,0,.58,0,1.15,0,1.72h0Z" style="fill: #7bb8aa;"/>
    <path d="M351.49,478.45c-.87-1.38-2.7-3.08-2.37-4.08.48-1.46,2.41-3.14,3.9-3.31.98-.12,3.19,2.24,3.16,3.44-.04,1.39-1.93,2.73-3.02,4.1-.55-.05-1.11-.1-1.67-.15h0Z" style="fill: #7bb8aa;"/>
    <path d="M310.84,479.3c-1.86-2.41-3.89-3.89-3.78-5.19.11-1.34,2.18-3.25,3.63-3.49,1.06-.17,3.48,1.95,3.52,3.09.04,1.47-1.7,3-3.37,5.59h0Z" style="fill: #7bb8aa;"/>
    <path d="M315.05,463.28c-1.47.98-2.93,2.71-4.41,2.72-1.28,0-3.38-1.76-3.67-3.06-.55-2.47,1.44-4.03,3.81-3.73,1.49.19,2.82,1.62,4.22,2.48.01.53.04,1.06.05,1.59h0Z" style="fill: #7bb8aa;"/>
    <path d="M289.73,464.91c-1.43,1-2.97,2.92-4.26,2.77-1.42-.16-2.62-2.24-3.91-3.49,1.2-1.19,2.32-3.19,3.64-3.34,1.39-.16,2.99,1.45,4.5,2.29.01.59.03,1.17.04,1.77h0Z" style="fill: #7bb8aa;"/>
    <path d="M578.73,642.93c-1.89-2.54-3.91-4.09-3.73-5.34.18-1.33,2.36-3.14,3.82-3.3,1.1-.12,3.41,2.01,3.45,3.18.04,1.41-1.76,2.89-3.54,5.46h0Z" style="fill: #7bb8aa;"/>
    <path d="M371.56,467.39c-1.07-1.36-3.11-2.85-2.95-4.05.18-1.35,2.21-3.16,3.67-3.4,1.03-.17,3.34,1.85,3.45,3.05.12,1.36-1.56,2.89-2.46,4.34-.57.02-1.14.04-1.71.07h0Z" style="fill: #7bb8aa;"/>
    <path d="M267.42,460c.99,1.32,2.97,2.89,2.72,3.91-.36,1.45-2.24,3.29-3.67,3.48-1.06.14-3.34-2.01-3.43-3.25-.1-1.33,1.75-2.8,2.75-4.21.55.02,1.09.04,1.64.07h0Z" style="fill: #7bb8aa;"/>
    <path d="M285.38,480.2c-1.79-2.47-3.73-4.06-3.48-5.07.37-1.44,2.24-3.15,3.71-3.43.93-.18,3.25,2.04,3.25,3.19,0,1.41-1.75,2.84-3.49,5.31h0Z" style="fill: #7bb8aa;"/>
    <path d="M517.65,659.19c.1,1.37.19,2.54.31,4h-10.09c-.37-3.72,1.06-4.32,9.79-4Z" style="fill: #7bb8aa;"/>
    <path d="M330.73,457.5c1.62,2.33,3.5,3.89,3.25,4.97-.34,1.46-2.3,3.54-3.55,3.52-1.31-.01-3.54-2.14-3.61-3.44-.08-1.3,2.01-2.74,3.91-5.05Z" style="fill: #7bb8aa;"/>
    <path d="M525.82,642.46c-1.73-2.27-3.82-3.97-3.53-4.89.46-1.45,2.47-3.17,3.96-3.3,1.13-.1,3.51,2.17,3.43,3.26-.1,1.44-2.04,2.76-3.86,4.94h0Z" style="fill: #7bb8aa;"/>
    <path d="M372.26,479.53c-1.84-2.39-3.85-3.97-3.6-4.91.4-1.45,2.24-3.16,3.7-3.42.99-.17,3.31,1.95,3.35,3.1.04,1.36-1.73,2.78-3.46,5.23Z" style="fill: #7bb8aa;"/>
    <path d="M266.53,480.02c-1.74-2.32-3.71-3.84-3.49-4.9.31-1.44,2.16-3.3,3.58-3.52,1.06-.16,3.48,1.98,3.48,3.11,0,1.44-1.82,2.87-3.58,5.32h0Z" style="fill: #7bb8aa;"/>
    <path d="M309.97,641.67c-1.74-2.11-3.68-3.51-3.49-4.44.29-1.38,1.98-3.13,3.34-3.39.95-.19,3.22,1.79,3.28,2.89.07,1.29-1.6,2.69-3.14,4.94h0Z" style="fill: #7bb8aa;"/>
    <path d="M559.09,663.77c-3.52-.91-5.92-1.38-8.22-2.18-2.09-.72-2.01-2.66-.35-3.17,1.96-.61,4.47-.46,6.4.27.99.37,1.23,2.72,2.17,5.08Z" style="fill: #7bb8aa;"/>
    <path d="M324.07,641.69c-1.5-2.12-3.19-3.49-3.02-4.56.19-1.24,2.22-3.24,3.12-3.08,1.35.25,3.05,1.94,3.36,3.3.21.91-1.75,2.3-3.46,4.33h0Z" style="fill: #7bb8aa;"/>
    <path d="M583.47,647.17c-2.15,1.5-3.48,3.15-4.7,3.08-1.26-.07-2.43-1.83-3.64-2.84,1.14-1.11,2.2-2.97,3.46-3.12,1.2-.15,2.63,1.47,4.87,2.89h0Z" style="fill: #7bb8aa;"/>
    <path d="M492.15,658.53c-2.54,1.72-5.07,3.45-8.53,5.79-.14-2.95-.22-4.58-.32-6.61h8.43c.14.28.28.55.42.82Z" style="fill: #7bb8aa;"/>
    <path d="M525.74,623.81c1.62,2.15,3.23,3.37,3.22,4.57,0,.99-1.92,2.7-3.05,2.74-1.09.04-3.11-1.59-3.16-2.57-.06-1.22,1.47-2.51,2.97-4.74h0Z" style="fill: #7bb8aa;"/>
    <path d="M583.41,628.32c-2.37,1.57-3.77,3.23-4.9,3.06-1.27-.19-2.3-2.03-3.43-3.14,1.1-1,2.17-2.73,3.31-2.79,1.26-.07,2.62,1.41,5.02,2.88h0Z" style="fill: #7bb8aa;"/>
    <path d="M526.09,642.64c1.44,2.12,2.92,3.37,2.93,4.65.01.91-2.04,2.69-2.99,2.57-1.27-.16-3.23-1.72-3.29-2.77-.07-1.14,1.7-2.4,3.34-4.46h0Z" style="fill: #7bb8aa;"/>
    <path d="M328.01,577.31c-1.38-1.92-3.08-3.37-2.81-4.12.44-1.26,2.07-2.72,3.34-2.87.83-.1,2.61,1.9,2.69,3.05.07,1-1.65,2.12-3.22,3.94h0Z" style="fill: #7bb8aa;"/>
    <path d="M362.88,634.3c1.4,1.99,3.04,3.34,2.84,4.29-.25,1.14-2.07,2.69-3.2,2.69-1.03,0-2.81-1.8-2.88-2.89-.06-1.05,1.65-2.2,3.25-4.09h0Z" style="fill: #7bb8aa;"/>
    <path d="M301.77,607.07c-2.18,1.53-3.41,3.06-4.53,2.99-1.18-.08-2.25-1.71-3.37-2.67,1.05-1.03,1.99-2.71,3.17-2.89,1.11-.16,2.46,1.25,4.73,2.57h0Z" style="fill: #7bb8aa;"/>
    <path d="M278.34,638.56c-2.12,1.43-3.36,2.92-4.47,2.84-1.16-.09-2.21-1.7-3.31-2.64,1.04-1.02,1.99-2.71,3.14-2.87,1.1-.15,2.42,1.31,4.64,2.67h0Z" style="fill: #7bb8aa;"/>
    <path d="M297.06,634.47c1.48,1.89,3.15,3.1,3.02,4.09-.14,1.12-1.85,2.78-2.94,2.83-1.03.05-2.87-1.61-2.99-2.67-.12-1.05,1.48-2.28,2.91-4.24h0Z" style="fill: #7bb8aa;"/>
    <path d="M288.72,573.47c-2.3,1.27-3.65,2.61-4.82,2.48-1.11-.13-2.03-1.83-3.02-2.83,1.11-.96,2.18-2.6,3.35-2.66,1.12-.07,2.34,1.49,4.49,3.02h0Z" style="fill: #7bb8aa;"/>
    <path d="M340.02,603.08c1.47,1.95,2.99,3.1,3,4.26,0,.97-1.83,2.81-2.69,2.72-1.21-.12-3-1.53-3.2-2.64-.18-.99,1.46-2.3,2.9-4.33h0Z" style="fill: #7bb8aa;"/>
    <path d="M371.91,577.48c-1.44-2.04-3.02-3.31-2.87-4.29.19-1.18,1.85-2.91,2.91-2.94,1.02-.03,2.79,1.73,2.93,2.87.13,1.04-1.47,2.3-2.98,4.37h0Z" style="fill: #7bb8aa;"/>
    <path d="M358.85,573.53c-2.23,1.17-3.61,2.51-4.71,2.31-1.13-.21-1.98-1.92-2.95-2.98,1.13-.94,2.25-2.59,3.4-2.62,1.11-.02,2.24,1.64,4.26,3.28h0Z" style="fill: #7bb8aa;"/>
    <path d="M266.77,568.83c1.36,2.02,2.87,3.28,2.75,4.35-.12,1.05-1.93,2.66-2.96,2.63-1.03-.03-2.75-1.75-2.81-2.8-.06-1.08,1.53-2.25,3.02-4.19h0Z" style="fill: #7bb8aa;"/>
    <path d="M315.23,573.55c-2.23,1.21-3.55,2.54-4.62,2.36-1.14-.19-2.04-1.81-3.04-2.81,1.14-1.01,2.2-2.64,3.46-2.83.94-.13,2.16,1.6,4.19,3.28h0Z" style="fill: #7bb8aa;"/>
    <path d="M339.78,642.81c-1.33-2.03-2.86-3.34-2.67-4.34.2-1.09,2.02-2.64,3.08-2.6,1.01.04,2.66,1.84,2.71,2.93.05,1.03-1.59,2.16-3.11,4.01h0Z" style="fill: #7bb8aa;"/>
    <path d="M308.49,384.74v-5.96h17.73v5.96h-17.73Z" style="fill: #7bb8aa;"/>
  </g>
</svg>