<?xml version="1.0" encoding="UTF-8"?>
<svg id="Ebene_1" xmlns="http://www.w3.org/2000/svg" viewBox="0 0 1456.19 442.9">
  <rect x=".24" y="209.88" width="1455.31" height="233.01" style="fill: #fef5e7;"/>
  <rect x="1445.34" y="9.19" width="10.2" height="227.91" style="fill: #fef5e7;"/>
  <path d="M.53,56.81c4.7-8.42,40.06,1.63,62.93,11.06,37.26,15.36,62.76,37.89,77.39,51.02,22.52,20.22,21.03,24.16,45.07,44.22,18.83,15.71,32.15,26.64,52.72,34.87,27.61,11.03,51.69,10.56,63.78,10.2,40.36-1.2,70.59-16.08,84.19-22.96,29.14-14.73,33.73-25.23,68.88-39.97,7.79-3.26,20.55-8.55,38.27-12.76,33.96-8.06,61.62-6.34,73.98-5.1,12.8,1.29,28.53,2.87,47.62,10.2,30.64,11.78,33.77,24.47,68.88,38.27,10.19,4.01,22.34,8.67,39.12,10.2,17.39,1.59,31.56-.95,48.47-5.1,33.81-8.31,51.13-16.35,73.13-23.81,24.4-8.27,55.9-18.94,94.39-19.56,35.8-.57,64,7.77,95.24,17.01,42.06,12.44,35.29,16.7,64.63,22.96,60.03,12.81,104.57-1.57,114.8-5.1,6.26-2.16,10.99-4.21,17.01-6.8,29.35-12.63,51.13-26.67,68.88-39.12,31.83-22.33,62.09-43.56,90.14-72.28,6.44-6.6,22.32-23.37,48.47-35.72,4.37-2.06,8.34-3.68,11.66-4.92,1.26-.47,2.42-.88,3.47-1.25,1.47-.51,1.68-.64,1.83-.64.03,0,.04,0,.05,0,.44.13-3.17,13.18-4.25,17.86-2.56,11.11-1.1,19.71,0,28.91.75,6.27,1.34,21.19,2.55,51.02,1.06,26.23-.84,28.03-.85,67.18-.02,43.73,2.35,41.64.85,47.62-2.84,11.35-20.25,59.85-288.28,70.58-191.04,7.65-307.56,5.77-363.12,6.8-86.43,1.6-602.34,15.42-727.94-16.16-16.35-4.11-64.2-16.14-71.43-45.92-1.39-5.73-.56-9.16.85-21.26,3.32-28.44,3.35-49.23,3.4-79.94.07-42.34.1-63.51-5.1-73.13-1-1.84-3.24-5.74-1.7-8.5Z" style="fill: #fef5e7;"/>
  <rect x=".53" y="56.81" width="26.36" height="248.31" style="fill: #fef5e7;"/>
  <path d="M1456.19,284v142c-16.74-11.07-34.83-16.55-54.97-12.9-8.51,1.54-17.1,3.03-25.35,5.55-28.2,8.63-55.54,6.43-82.44-5.13-12.08-5.19-24.31-10.02-36.52-14.9-16.17-6.46-32.66-7.51-49.43-2.58-9.42,2.77-18.92,5.33-28.2,8.5-26.97,9.22-53.55,8.97-79.99-2.12-10.28-4.31-20.82-8-31.29-11.83-23.38-8.56-47.25-12.66-72.07-7.54-19.1,3.93-36.69,11.8-54.03,20.42-14.9,7.41-29.74,14.98-44.9,21.83-17.84,8.07-36.35,8.98-55.09,3.02-12.37-3.93-24.8-7.67-37.09-11.84-24.54-8.33-48.94-8.57-73.48.04-14.91,5.23-29.96,10.1-45,14.95-15.94,5.13-31.96,5.13-47.45-1.36-13.63-5.71-27.1-11.92-40.25-18.67-34.47-17.69-70-21.48-106.88-9.02-17.18,5.8-34.26,11.93-51.28,18.18-34.78,12.78-70.47,21.37-107.62,22.24-39.93.93-78.56-6.73-115.96-20.35-27.2-9.91-53.81-21.48-81.19-30.82-45.78-15.62-91.26-15.24-135.51,6.35,0-9,0-18,0-27,2.79-2.39,7.33-4.33,8.09-7.25,4.9-18.68,14.27-34.44,29.12-46.67,13.98-11.51,21.9-24.77,19.96-44.04-2.06-20.53,9.65-37.59,18.14-55.21.53-1.09,2.94-1.28,4.47-1.89.58,1.53,1.82,3.15,1.62,4.56-.45,3.09-1.23,6.28-2.59,9.08-6.62,13.63-6.06,27.86-3.32,42.08,2.14,11.14,1.14,21.46-4.46,31.37-2.37,4.2-4.67,8.47-6.61,12.89-3.81,8.67-7.68,17.34-10.89,26.23-2.42,6.69-2.62,13.67.29,20.51,4.05,9.49,9.97,10.78,16.98,3.13,8.76-9.57,14.39-20.68,15.42-33.9.51-6.46,1.67-12.86,2.28-19.31.5-5.37,1.84-11.04.71-16.1-4.29-19.19-7.14-38.39-4.31-58.14-.19.6-.06,1.17.04,1.76,3.77,21.11,7.21,42.28,11.42,63.3,2.21,11.07,5.95,21.82,8.65,32.81,3.53,14.35,6.66,28.79,10.1,43.16.33,1.38,1.64,2.53,2.49,3.79.41-.19.81-.39,1.22-.58,0-.94.18-1.93-.03-2.82-3.61-15.86-7.15-31.73-10.93-47.55-4.87-20.38-10.38-40.62-14.76-61.1-3.23-15.11-5-30.52-7.68-45.75-.55-3.14-.48-5.23,2.97-6.07,3.65-.89,3.99,1.73,4.73,4.21,3.84,12.92,7.6,25.86,11.73,38.69,4.18,12.98,8.6,25.9,13.23,38.73,4.58,12.68,8.36,25.86,14.69,37.63,6.46,12,3.13,27.02,13.02,37.55.28.3.06,1,.23,1.46,1.55,4.03,3.02,8.09,4.78,12.02.56,1.26,1.9,2.17,2.88,3.25.45-.25.9-.51,1.35-.76-.48-1.6-.86-3.24-1.46-4.79-1.15-2.94-2.38-5.85-3.66-8.73-3.27-7.38-8.47-14.16-7.08-22.97-16.77-42.77-32.49-85.9-45.82-129.88-.9-2.96-.52-4.63,2.2-6.05,2.75-1.43,5.06-1.57,6.89,1.3.72,1.12,1.43,2.25,2.1,3.4,14.39,24.73,27.24,50.18,38.23,76.65,9.19,22.12,19.64,43.73,29.66,65.5,2.5,5.44,5.41,10.7,8.33,15.93.66,1.18,2.12,1.9,3.22,2.84.44-.39.88-.78,1.31-1.17-.72-1.59-1.41-3.19-2.17-4.76-4.28-8.83-8.87-17.53-12.82-26.51-9.5-21.6-18.41-43.46-28.15-64.95-5.48-12.1-12.1-23.69-18.28-35.47-2.27-4.32-1.78-5.62,2.65-7.48,3.75-1.58,5.13,1.07,6.74,3.37,8.59,12.28,18,24.09,25.52,37,12.12,20.83,23.36,42.21,34.24,63.72,5.99,11.86,10.46,24.48,15.69,36.73.69,1.63,1.86,3.05,2.8,4.57l1.77-.77c-.57-1.98-.99-4.03-1.74-5.94-13.55-34.24-28.43-67.85-48.48-98.9-1.58-2.45-.82-3.91,1.36-5.33,3.19-2.08,4.86.15,6.68,2.14,15.01,16.43,28.53,34.2,46.33,48.09,11.53,8.99,21.71,19.7,32.61,29.5,7.35,6.61,7.45,6.52,15.85,1.81,6.25-3.5,12.48-7.03,18.69-10.59,1.06-.61,2.01-1.41,3.4-2.41-2.17-1.65-3.84-2.99-5.58-4.23-34.36-24.52-66.57-51.67-98.22-79.55-33.42-29.44-61.47-63.77-89.95-97.73-5.77-6.88-7.12-6.96-12.92-.04-26.42,31.55-52.81,63.13-79.25,94.67-1.78,2.12-3.81,4.02-5.73,6.02,0-3.67,0-7.33,0-11,13.41-5.89,21.15-17.79,30.15-28.87-5.27.59-10.77,1.09-14.93,3.71-5.61,3.53-10.19,8.7-15.22,13.16,0-4.33,0-8.67,0-13,2.72-1.52,5.74-2.67,8.11-4.62,9.19-7.54,18.69-14.5,30.21-18.13.63-.2,1.16-.7,2.9-1.79-4.06-.67-6.77-1.34-9.52-1.52-13-.86-23.05,5.05-31.7,14.07v-24c4.31-2.83,8.77-5.45,12.89-8.52,8.55-6.37,17.77-11.17,28.36-12.91,5.47-.9,10.99-1.47,17.38-2.3-11.23-6.01-22.12-7.75-33.81-4.84-10.32,2.57-17.88,9.07-24.82,16.58,0-4.33,0-8.67,0-13,8.43-4.87,16.87-9.74,25.22-14.56-8.29-4.1-16.76-2.07-25.22.56,0-7.67,0-15.33,0-23,19.35,1.55,38.69,3.09,58.03,4.69,1.64.14,3.28.54,4.88,1,29.4,8.42,55.77,22.33,78.49,42.99,6.73,6.12,13.84,11.8,21.02,17.89,2.24-2.64,4.12-4.86,5.87-6.93-.41-.75-.5-1.12-.74-1.32-26.79-23.12-55.44-43.56-86.59-60.44-14.84-8.04-30.62-9.99-46.95-7.25-11.43,1.91-22.68,4.88-34.01,7.38,0-4.33,0-8.67,0-13,21.87-7.16,44.04-8.32,66.47-3.06,24,5.63,43.77,18.82,62.2,34.58,14.76,12.62,29.94,24.75,45.13,37.27,2.53-2.82,4.38-4.9,6.53-7.29-12.37-12.79-24.24-25.6-36.69-37.83-24.96-24.51-52.86-44.7-86.25-56.36-18.8-6.57-37.89-8.68-57.39-3.33v-12c11.22-1.59,22.4-2.55,33.73-.48,20.93,3.83,39.97,12.35,58.22,22.88,24.74,14.26,45.67,33.27,65.91,53.16,7.52,7.38,15.38,14.41,23.09,21.6-.17-1.83-.91-3.08-1.8-4.21-32.21-41.04-70.88-73.92-119.65-93.76C40.64,61.43,20.94,57.03.19,61v-9c10.1.16,20.41-.95,30.25.73,24.81,4.23,47.02,15.37,68.17,28.65,23.44,14.71,43.5,33.49,63.18,52.75,14.11,13.81,27.92,27.99,42.87,40.83,14.52,12.46,31.76,20.63,50.15,26.16,20.19,6.07,40.77,5.57,61.45,3.92,29.51-2.34,56.46-11.59,81.2-28.06,15.07-10.03,30.73-19.28,46.63-27.96,17.97-9.82,36.38-18.89,57.12-21.62,8.75-1.15,17.43-2.79,26.18-3.87,27.28-3.35,54.18-2.02,80.42,6.97,23.23,7.97,44.16,20.3,64.07,34.32,20.82,14.66,44.15,19.2,68.46,15.37,21.11-3.33,41.9-9.17,62.52-15.02,41.33-11.71,82.46-23.88,125.56-27.84,33.12-3.04,65.47-1.1,97.13,9.67,20.31,6.91,40.84,13.17,61.13,20.13,38.38,13.17,77.32,13.12,116.26,4.11,35.46-8.2,66.28-26.55,95.34-47.83,28.32-20.73,52.91-45.75,78.49-69.61,23.68-22.08,50.27-39.83,79.42-53.82v17c-4.47,1.73-9.15,3.07-13.38,5.26-17.57,9.11-32.91,21.41-47.86,34.21-20.88,17.87-41.22,36.44-62.81,53.4-19.48,15.31-39.49,30.3-60.78,42.86-34.58,20.41-72.53,31.77-112.83,33.81-26.46,1.34-52.45-1.14-77.65-10.52-22.6-8.41-45.51-16.03-68.46-23.44-24.41-7.89-49.4-12.21-75.25-10.38-27.85,1.97-55.35,6.19-81.94,14.63-31.4,9.96-62.38,21.25-93.64,31.65-11.03,3.67-22.18,7.77-33.59,9.3-22.02,2.96-41.5-4.79-59.43-17.35-39.19-27.46-81.68-43.98-130.65-38.41-18.87,2.15-37.98,3.68-55.78,10.57-24.57,9.51-48.01,21.53-69.88,36.33-14.24,9.64-28.58,18.96-44.75,25.13-26.42,10.09-53.93,13.11-81.95,12.31-8.6-.25-17.17-1.47-26.52-2.31,6.02,8.04,11.69,15.78,17.61,23.33.84,1.07,2.88,1.6,4.4,1.66,49.32,1.93,94.62-8.98,135.98-37.62,33.07-22.9,68.71-41.35,109.93-46.03,25.73-2.92,51.13-3.61,76.26,3.82,23.58,6.98,44.57,19.1,65.16,32.16,19.23,12.19,40.34,18.23,62.91,13.62,20.32-4.15,40.39-9.78,60.25-15.82,38.52-11.72,76.5-25.51,116.91-29.61,20.56-2.09,41.2-3.56,61.78.02,34.92,6.08,68.37,17.21,101.34,29.85,20.26,7.76,41.13,12.17,62.81,12.65,28.63.63,56.39-4.59,83.36-13.68,60.7-20.47,115.72-51.5,166.3-90.66,13.95-10.8,28.15-21.31,42.72-31.24,8.78-5.98,18.59-10.34,29.45-11.49v18c-.78.2-1.63.26-2.32.62-5.78,3.06-11.58,6.07-17.26,9.3-4.77,2.71-9.55,5.44-14.04,8.58-8.73,6.1-17.25,12.49-25.88,18.74-5.92,4.28-11.85,8.56-17.82,12.77-4.61,3.25-9.18,6.58-13.98,9.52-5.3,3.25-10.84,6.14-16.3,9.12-6.34,3.46-12.62,7.07-19.12,10.22-6.78,3.3-13.81,6.1-20.7,9.18-6.86,3.07-13.6,6.44-20.56,9.28-6.71,2.74-13.64,4.97-20.46,7.46-3.07,1.12-6.09,2.39-9.18,3.47-10.24,3.57-20.52,7.06-30.76,10.64-7.26,2.54-14.33,5.81-21.77,7.66-16.26,4.03-32.64,7.57-49.06,10.91-18.71,3.8-37.64,3.44-55.99-1.26-16.05-4.11-31.64-10.09-47.28-15.67-38.76-13.84-77.8-16.9-117.58-4.47-17.62,5.51-35.39,10.56-53.21,15.37-8.22,2.21-16.73,3.33-25.1,4.95.85.94,1.58,1.01,2.31.93,24.79-2.64,48.67-9.24,72.33-16.73,25.25-7.99,50.86-11.24,77.34-7.95,22.41,2.78,43.32,10.08,64.02,18.56,23.12,9.48,47.18,13.74,72.23,12.08,25.96-1.72,50.73-8.82,75.33-16.57,12.08-3.8,23.99-8.17,35.87-12.56,11.68-4.31,23.26-8.88,34.83-13.48,9.72-3.87,19.47-7.71,29-12.02,7.28-3.3,14.22-7.33,21.32-11.01,8.18-4.24,16.65-8,24.49-12.78,9.91-6.03,19.4-12.76,28.91-19.42,6.79-4.76,13.26-9.96,19.96-14.86,6.34-4.63,12.7-9.25,19.24-13.6,2.27-1.51,5.2-1.99,7.64-3.28,4.58-2.43,9.02-5.12,13.53-7.7v14c-9.24,5.19-19.26,9.37-27.57,15.77-18.46,14.21-35.95,29.67-54.05,44.35-9.42,7.64-18.88,14.7-30.97,18.83-43.12,14.75-85.7,31.04-128.66,46.25-23.1,8.18-46.82,14.2-71.45,15.76-27.46,1.74-53.45-4.77-79.28-13.22-14.65-4.79-29.67-10.13-44.84-11.36-33.16-2.68-64.26,6.98-93.39,22.25-12.33,6.46-23.48,15.15-35.18,22.8-14.79,9.67-30.63,14.71-48.33,10.06-8.67-2.28-17.49-4.45-25.72-7.92-28.43-12-54.27-7.4-78.47,10.74-4.52,3.38-9.26,6.54-14.2,9.27-7.86,4.34-16.26,5.24-24.49,1.23-21.98-10.73-40.3-25.77-53.57-46.58-.63-.98-1.76-2.25-2.72-2.31-9.16-.64-18.35-1.05-25.59-1.43,3.1,7.3,6.88,16.19,10.91,25.69,17.04,4.16,27.99,9.15,43.99,20.23,6.84,4.74,13.52,9.76,20.61,14.11,16.59,10.19,32.64,8.74,47.48-3.87,2.92-2.48,5.68-5.16,8.71-7.49,7.84-6.02,16.11-11.21,25.97-13.38,14.39-3.17,27.66.73,40.81,5.99,17.09,6.84,34.62,11.05,53.13,7.17,15.53-3.26,28.62-11.68,41.11-20.88,18.96-13.96,39.09-24.88,62.23-30.64,21.81-5.43,43.22-7.4,65.01-.89,12.43,3.71,25.02,6.95,37.36,10.94,28.7,9.29,57.95,12.78,87.71,7.48,25.2-4.49,50.32-9.7,75.2-15.7,21.48-5.18,42.45-12.45,63.89-17.85,23.16-5.84,44.23-15.81,63.03-30.23,19.39-14.87,37.93-30.86,57.21-45.89,11-8.58,22.72-16.22,34.12-24.29v53c-4.44,3.17-8.87,6.34-13.23,9.46,3.04,3.14,5.51,5.69,8.13,8.4,1.7-1.29,3.4-2.57,5.1-3.86v19c-2-3.61-3.49-7.65-6.12-10.73-4.25-4.98-8.61-10.36-14.08-13.68-8.62-5.24-17.94-1.93-22.99,6.92-1.63,2.86-2.94,6.01-3.77,9.18-2.2,8.37-3.62,16.95-6.14,25.22-4.24,13.97-8.59,27.95-13.87,41.55-2.98,7.66-7.69,7.63-12.24.73-3.01-4.57-5.33-9.6-8.09-14.35-5.76-9.93-12.13-10.6-18.57-1.13-5.22,7.67-9.21,16.17-13.74,24.32-4.93,8.87-9.35,18.07-14.87,26.56-8.71,13.39-14.09,13.68-26.46,3.77-6.05-4.85-12.87-8.75-19.43-12.94-3.57-2.28-6.72-1.16-10.07,1.18-10.02,6.99-16.03,17.22-22.73,26.95-2.54,3.69-5.07,7.49-8.18,10.67-3.77,3.87-7.99,3.39-10.96-1.09-2-3.01-3.37-6.47-4.8-9.83-3.38-7.96-6.23-16.17-10.04-23.92-5.49-11.18-12.69-21.13-23.54-27.91-14.33-8.96-28.52-8.06-40.63,3.63-5.57,5.38-10.07,11.92-14.68,18.21-5.02,6.84-9.23,14.3-14.46,20.96-7.1,9.04-17.14,9.43-24.89.89-4.09-4.5-7.06-10.03-10.47-15.14-6.36-9.53-11.79-19.86-19.2-28.49-14.31-16.64-32.31-15.97-45.74,1.3-5.88,7.56-10.29,16.27-15.3,24.5-5.62,9.22-10.66,18.85-16.91,27.62-5.17,7.26-10.2,7.18-16.75,1.09-3.16-2.94-5.99-6.25-8.8-9.53-3.79-4.43-7.18-9.22-11.17-13.45-11.85-12.58-23.97-13.04-35.67-.34-6.36,6.9-11.37,15.15-16.37,23.17-5.63,9.03-10.34,18.64-15.96,27.67-1.78,2.86-5.19,4.7-7.86,7.01-2.15-3.17-4.9-6.1-6.32-9.57-2.25-5.51-3.2-11.57-5.48-17.06-2.52-6.08-7.94-6.68-12.14-1.59-2.2,2.67-3.87,5.8-5.58,8.84-2.28,4.07-4.16,8.36-6.56,12.35-4.53,7.57-8.59,7.5-12.9-.31-2.16-3.91-3.88-8.11-5.39-12.33-2.86-7.99-5.15-16.19-8.19-24.1-2.14-5.56-4.68-11.07-7.87-16.08-3.6-5.64-8.76-6.4-14.2-2.46-3.33,2.42-6.31,5.44-9.03,8.56-8.44,9.68-13.59,21.25-18.5,32.95-1.48,3.51-3.07,7.06-5.17,10.21-3.04,4.55-6.93,5.28-11.72,2.79-1.47-.77-2.84-1.75-4.28-2.57-5.67-3.21-9.85-2.2-12.79,3.63-1.93,3.84-3.13,8.05-4.69,12.08-1.6,4.14-3.46,8.31-8.53,8.8-4.99.49-7.86-3.05-10.3-6.75-2.47-3.75-4.74-7.63-7.04-11.49-4.25-7.13-10.56-10.41-18.75-11.65-4.7-.71-9.92-2.68-13.4-5.77-6.41-5.71-12.49-12.13-17.36-19.18-23.95-34.68-47.45-69.67-71.13-104.53-5.62-8.27-13.72-8.08-19.17.16-25.89,39.17-51.86,78.3-77.78,117.45-.43.64-.7,1.39-1.01,1.99,8.9,8.27,10.43,10.24,19.45-1.78,2.66-3.55,4.53-7.76,6.38-11.84,2.2-4.84,4.31-9.77,5.89-14.84,2.12-6.81,6.16-10.78,13.45-11.26,6.16-.41,10.75-3.73,13.7-8.88,3.55-6.19,6.78-12.59,9.7-19.11,2.24-4.99,3.57-10.39,5.77-15.41.58-1.32,2.91-1.87,4.43-2.78.69,1.3,2.13,2.71,1.95,3.87-2.97,19.16-6.78,38.04-18.6,54.21-5.47,7.49-6.5,15.45-3.53,24.55,4.34,13.25,1.3,18.01-12.27,21.83-2.24.63-4.55.97-6.8,1.58-.84.22-1.58.81-2.36,1.23,1.26,1.13,2.47,1.46,3.53,1.21,4.04-.95,8.11-1.87,12.04-3.19,7.7-2.59,11.23-7.96,10.34-16.06-.44-3.94-2.25-7.75-2.46-11.67-.23-4.16.15-8.53,1.28-12.52.93-3.26,3.27-6.14,5.13-9.09,7.54-12.01,12.92-24.77,13.89-39.12.06-.95.61-1.86.93-2.79,1.26,3.26,1.67,6.37,1.96,9.5,1.03,11.4-2.33,22.12-5.48,32.8-3.45,11.67-2.85,22.63,4.05,32.99,3.24,4.87,4.64,10.33,3.78,16.19-1.08,7.32,1.31,13.64,4.69,20,5.29,9.96,10,20.23,15.01,30.35.73,1.47,1.77,2.78,2.91,4.54.56-1.09.87-1.4.83-1.66-.14-.98-.22-2.02-.63-2.89-4.9-10.34-9.51-20.84-14.92-30.91-3.5-6.51-5.53-12.85-5.21-20.39.21-4.92-.57-10.74-3.11-14.76-7.55-11.95-7.7-23.92-3.41-36.81,3.98-11.95,6.08-24.23,3.68-36.88-.49-2.59-.71-5.6,2.74-5.63,1.44-.01,3.83,2.45,4.2,4.13,1.64,7.63,2.72,15.38,3.97,23.09,1.87,11.46,2.31,23.39,5.86,34.31,8.22,25.23,15.34,50.6,19.15,76.9.46,3.17,2.6,6.46,4.81,8.94,4.42,4.94,9.2,9.61,14.26,13.88,4.53,3.82,9.59,7.05,14.55,10.33,1.11.73,2.79.6,4.2.87-.54-1.79-1.42-2.42-2.26-3.09-5.9-4.78-11.87-9.47-17.67-14.38-3.03-2.57-5.48-5.89-8.67-8.19-3.99-2.88-5.47-6.55-6.52-11.2-4.97-21.87-10.29-43.66-15.64-65.43-2.34-9.51-5.57-18.82-7.47-28.4-1.97-9.92-2.88-20.05-4.11-30.1-.11-.91.53-2.26,1.26-2.88,2.96-2.51,5.23-1.59,7.29,3.13,10.31,23.65,20.76,47.24,30.76,71.02,7.16,17.02,13.69,34.31,20.57,51.45.6,1.5,1.43,3.15,2.64,4.13,8.99,7.29,18.56,13.04,30.94,11.15,7.15-1.09,13.68.7,20.21,3.92,6.83,3.36,14.21,5.61,21.38,8.25,1.18.43,2.56.35,3.84.51.12-.46.24-.93.36-1.39-1.24-.57-2.46-1.19-3.72-1.7-6.79-2.72-13.84-4.92-20.33-8.23-7.27-3.71-14.6-5.04-22.65-4.36-15.3,1.28-27.33-6.46-33.14-20.79-9.76-24.05-19.47-48.12-29.46-72.08-1.37-3.3-1.08-5.16,1.78-7.05,3.11-2.06,4.8-.19,6.7,1.91,15.99,17.64,31.68,35.57,48.14,52.75,16.85,17.58,35.02,33.77,55.32,47.4,6.55,4.4,9.32,3.55,12.56-3.73,1.56-3.49,2.86-7.13,4.7-10.47,3.59-6.55,7.93-8.06,14.95-5.62,7.16,2.48,10.87,1.67,14.94-4.73,3.55-5.59,6.1-11.8,9.26-17.65,2.99-5.55,5.63-11.41,9.43-16.37,4.99-6.51,12.47-6.79,18.24-.92,3.44,3.51,6.26,7.78,8.68,12.1,3.9,6.97,7.15,14.3,10.85,21.38,1.92,3.68,4,7.32,6.37,10.73,5.59,8.04,10.27,7.93,15.64-.1,1.39-2.07,2.74-4.2,4.35-6.09,4.98-5.82,9.99-5.99,15.2-.32,2.46,2.68,4.48,5.79,6.52,8.82,8.65,12.88,14.18,12.99,22.59-.19,6.63-10.38,12.4-21.31,19.06-31.66,3.3-5.12,7.25-10.05,11.78-14.09,7.17-6.39,16.17-6.6,23.88-.85,4.35,3.25,8.02,7.46,11.78,11.44,4.34,4.59,8.08,9.81,12.76,14.01,7.87,7.07,16.33,6.55,23.19-1.57,4.25-5.04,7.78-10.81,10.95-16.62,5.82-10.66,10.78-21.8,16.79-32.34,3.08-5.4,7.15-10.51,11.72-14.73,6.66-6.14,14.98-6.74,22.61-1.78,4.95,3.22,9.58,7.3,13.39,11.81,5.68,6.72,10.53,14.15,15.72,21.29,5.77,7.95,11.07,16.29,17.39,23.78,9.51,11.29,17.42,10.95,26.5-.58,4.22-5.36,7.77-11.23,11.88-16.68,4.81-6.37,9.35-13.08,14.99-18.64,10.46-10.31,23.03-10.19,33.93-.42,2.96,2.66,5.76,5.58,8.19,8.73,5.7,7.38,10.97,15.1,16.71,22.44,3.99,5.1,8.13,10.19,12.84,14.6,8.47,7.93,15.24,7.19,22.3-1.9,2.86-3.68,5.23-7.73,8.08-11.42,3.85-5,7.52-10.25,12.03-14.6,6.24-6.02,13.15-6.05,19.75-.41,3.89,3.32,7.02,7.54,10.59,11.25,3.11,3.23,6.08,6.69,9.62,9.37,5.13,3.87,10.27,3.5,14.95-.94,2.99-2.84,5.59-6.19,7.92-9.61,4.12-6.05,7.68-12.5,11.9-18.48,3.24-4.6,6.67-9.25,10.82-12.98,7.8-7,17.22-5.8,23.4,2.64,2.64,3.6,4.55,7.73,6.76,11.64,2.61,4.63,4.75,9.6,7.88,13.85,4.53,6.16,9.69,5.71,13.08-1.17,3.08-6.24,5.07-13.02,7.94-19.37,5.89-13.01,11.26-26.36,18.36-38.7,6.22-10.8,14.39-11.18,24.07-3.23.47.38,1.14.51,1.72.76ZM495.43,392.26c.22-.5.44-.99.66-1.49-1.33-.99-2.79-1.84-3.97-2.99-4.11-4.01-9.31-7.47-11.92-12.32-5.48-10.15-10.63-20.33-19.05-28.5-1-.97-1.34-4.49-.69-4.94,1.76-1.22,4.24-1.89,6.41-1.84,1.39.03,2.81,1.63,4.1,2.67,12.87,10.31,25.79,20.56,38.55,31.01,5.7,4.67,11.82,7.76,19.33,8.39,3.88.33,7.64,2.09,11.44,3.26,8.06,2.48,16.07,5.13,24.19,7.36,1.57.43,3.57-.73,5.37-1.15-1.11-1.44-1.92-3.38-3.37-4.24-14.91-8.8-29.87-17.54-44.93-26.08-22.03-12.49-44.82-24.07-61.79-43.52-12.79-14.66-24.6-30.19-36.79-45.37-3.96-4.93-7.47-10.25-11.66-14.97-5.48-6.18-9.92-6-15.43.01-3.38,3.69-6.75,7.38-10.01,11.17-33.57,39.04-72.13,71.9-117.91,95.97-12.67,6.66-24.97,14.04-37.35,21.24-1.16.68-1.69,2.44-2.51,3.7,1.29.35,2.61,1.09,3.87,1,11.55-.75,22.09-4.2,31.45-11.32,4.22-3.21,8.94-5.81,13.63-8.34,25.46-13.71,48.88-30.48,72.1-47.56,4.99-3.67,6.83-3.39,12.08,3.21-4.89,4.41-10.17,8.72-14.92,13.56-16.55,16.88-33.81,32.79-56.55,41.01-29.3,10.59-59.54,15.43-90.73,14.14-10.15-.42-20.32-.52-30.48-.67-1.84-.03-3.69.4-5.54.62-.06.5-.11,1.01-.17,1.51,1.17.41,2.34,1.15,3.51,1.17,30.6.45,61.18,2.66,91.62-3.79,27.4-5.8,52.93-14.9,73.5-34.63,12.98-12.45,25.48-25.39,38.11-38.19,4.65-4.72,7.23-4.62,11.62,1.23-5.73,8.8-11.76,17.58-17.3,26.67-10.46,17.16-24.92,29.7-42.78,38.69-8.02,4.04-15.86,8.49-23.49,13.23-10.21,6.35-18.38,14.85-24.09,25.51-.55,1.02-.05,2.61-.04,3.93,1-.55,2.49-.83,2.94-1.67,8.01-14.95,20.76-24.99,35.64-31.69,27.69-12.46,48.51-31.75,62.98-58.26,4.46-8.16,9.22-16.17,14.15-24.06.87-1.39,3.27-1.82,4.97-2.69.39,1.68,1.33,3.46,1.05,5.02-.7,3.75-2.14,7.35-2.99,11.07-5.32,23.25-11.42,46.18-22.95,67.35-3.96,7.28-6.9,15.14-10.14,22.8-1.16,2.74-2.28,5.64-2.61,8.55-.39,3.44-.25,7.14,3.8,9.27.49-.95.99-1.47.88-1.78-2.75-7.79,1.21-14.22,4.1-20.89,7.2-16.63,15.06-33.02,21.29-50,4.39-11.96,6.52-24.75,9.7-37.15.73-2.84,1.24-6.19,5.67-3.72-1.2,4.69-2.46,9.17-3.47,13.7-1.21,5.42-.88,10.7,2.95,15.11,4.95,5.7,5.38,12.25,4.22,19.26-2.04,12.31-4,24.64-5.96,36.96-.81,5.07.42,9.65,3.89,13.43.97,1.05,2.67,1.44,5.13,2.69-.63-2.15-.61-2.95-1.01-3.33-4.97-4.74-4.89-10.37-3.74-16.64,2.12-11.45,3.51-23.03,5.53-34.49,1.27-7.21-.35-13.4-4.56-19.3-4.79-6.7-3.45-20.19,2.29-26.27.14-.15.62.01,1.39.05.25,1.12.71,2.33.75,3.56.26,7.75,3.23,14.42,7.21,20.97,2.54,4.19,4.49,9.01,5.5,13.8,2.4,11.39,4.03,22.95,6.06,34.42,1.16,6.6,3.97,12.38,9.33,16.6.83.66,2.3.51,3.47.73-.37-1.11-.42-2.59-1.18-3.26-5.47-4.82-7.69-11.11-8.66-18.05-.62-4.45-1.01-8.97-2.06-13.32-2.47-10.3-3.9-21.18-8.35-30.59-4.06-8.6-7.58-16.84-8.14-26.34-.16-2.62-.18-4.68,2.83-5.4,3.06-.73,5.53-.48,6.69,3.16,1.57,4.91,2.93,9.99,5.29,14.52,2.4,4.61,5.32,9.28,9.09,12.75,4.59,4.22,7.97,8.74,9.81,14.67,2.41,7.78,4.96,15.54,7.82,23.17,2.91,7.78,8.26,13.65,15.6,17.53,1.51.8,3.52.66,5.3.95.12-.53.25-1.05.37-1.58-.71-.58-1.33-1.36-2.14-1.71-8.72-3.8-13.74-10.86-16.87-19.42-2.29-6.24-3.86-12.76-6.33-18.92-1.88-4.71-3.57-10.47-7.24-13.31-9.23-7.14-13.35-16.67-16.19-27.3,4.85-4.02,6.32-3.87,10.06.7,3.59,4.38,7.61,8.42,10.98,12.95,10.01,13.42,22.2,25.32,28.63,41.28,2.64,6.55,7.61,11.3,13.95,14.44,1.56.77,3.45.89,5.19,1.31ZM242.86,308.28c.1-7.7-3.09-13.66-7.12-19.47-1.93-2.78-3.26-6.72-3.1-10.06.36-7.79,1.89-15.52,2.74-23.3.4-3.65,2.35-5.1,5.75-5.7,3.74-.66,4.53,1.81,5.49,4.38,3.9,10.44,7.79,20.89,11.74,31.32,5.48,14.46,10.99,28.92,16.57,43.34,1.08,2.78,2.36,5.61,6.51,6.73-.41-1.68-.52-2.47-.8-3.19-8.53-21.66-17.08-43.32-25.61-64.98-1.72-4.38.37-7.73,5.03-7.33,1.8.15,3.73,1.86,5.13,3.31,11.54,12.01,22.89,24.2,34.46,36.18,7.33,7.59,15.19,14.1,26.11,16.53,7.83,1.74,8.11,2.45,14.1-4.8-2.29-1.9-4.6-3.78-6.88-5.7-25.43-21.4-49.71-43.9-69.07-71.21-6.94-9.78-13.88-19.57-21.09-29.14-4.37-5.8-6.02-5.28-9.19,1.05-6.26,12.48-12.56,24.97-19.39,37.14-4.86,8.67-10.63,16.82-15.98,25.18,2.57,4.51,6.37,5,10.11,2.35,3.58-2.54,7.05-5.59,9.61-9.11,3-4.13,4.71-9.18,7.54-13.47.99-1.5,3.64-1.9,5.53-2.8.56,1.81,1.76,3.7,1.58,5.43-1.01,9.43-2.73,18.8-3.42,28.24-.24,3.33,1.36,6.99,2.79,10.19,2.02,4.52,4.61,8.78,7.06,13.09,1.14,2.01,2.54,3.87,3.82,5.79ZM482.89,193.55c.16.5.32,1,.48,1.5,17.78-5.5,36.05-7.64,54.51-8.5,31.77-1.49,62.6,2.19,90.9,17.91,11.92,6.62,23.31,14.18,34.89,21.41,16.41,10.24,34.07,16.49,53.53,13.87,12.96-1.74,25.82-4.84,38.43-8.37,24.34-6.8,48.36-14.81,73.59-17.87,3.82-.46,7.65-.76,11.48-1.13-15.37-2.62-30.73-3.01-45.71.29-17.35,3.82-34.64,8.29-51.54,13.78-29.85,9.7-56.96,6.03-81.97-13.33-7.08-5.48-14.8-10.27-22.65-14.6-38.81-21.46-79.78-29.19-123.2-17.35-11.21,3.06-21.85,8.21-32.76,12.39ZM483.79,207.27c.16.5.31,1.01.47,1.51.64,0,1.29.08,1.92-.01,16.93-2.43,33.8-5.71,50.81-7.14,25.97-2.19,51.48.9,76.1,10.11,18.77,7.02,35.38,17.68,51.29,29.59,17.63,13.19,36.82,20.82,59.2,16.6,10.61-2,21.17-4.39,31.56-7.3,21.93-6.14,43.72-12.79,65.61-19.11,3.66-1.06,7.49-1.55,11.26-2.18,3.53-.59,7.09-1.02,10.64-1.52-16.48-3.01-32.66-1.64-48.52,2.74-19.72,5.44-39.3,11.38-58.98,16.95-23.18,6.57-44.47,3.13-63.43-12.33-3.22-2.63-6.73-4.9-10.07-7.38-43.28-32.12-91.44-42.59-144.04-31.59-11.54,2.41-22.56,7.31-33.83,11.06ZM726.18,190.12c-1.76-.41-3.52-.86-5.3-1.22-19.75-4-38.7-9.8-54.76-22.79-3.73-3.01-8.21-5.07-12.24-7.73-54.17-35.66-112.59-36.69-172.25-19.06-25.81,7.63-49.77,21.02-71.83,36.65-27.06,19.18-56.01,32.52-89.34,35.52-24,2.16-47.88,3.25-71.1-5.19-.61-.22-1.38-.03-2.34-.03,2.87,5.52,6.54,8.7,12.61,9.9,25.76,5.07,51.41,3.5,76.98-.78,26.12-4.37,48.84-16.36,70.75-30.94,35.81-23.83,73.24-44.05,117.45-48.07,23.37-2.13,46.5-3.22,69.49,2.35,28.64,6.93,53.69,21.28,77.63,37.85,16.39,11.34,34.35,16.42,54.24,13.54ZM215.09,229.73l2.13-.6c-.34-1.18-.41-2.53-1.05-3.5-2.23-3.37-2.21-6.68,1.49-8.37,1.61-.74,4.33.97,7.42,1.79,1.96-1.91,2.91-4.65-.51-7.91-1.29-1.23-2.05-3.01-3.05-4.53-7.31-11.12-14.5-22.33-22-33.32-3.28-4.82-5.53-4.79-9.57-.73-2.11,2.12-4.12,4.35-6.14,6.57-11.34,12.41-22.71,24.8-33.92,37.33-.83.92-.42,2.96-.58,4.47,1.73-.01,3.82.59,5.1-.18,1.76-1.05,2.65-3.57,4.4-4.63,1.51-.92,3.72-.69,5.62-.97-.2,1.6.07,3.49-.69,4.75-1.98,3.25-4.41,6.23-6.66,9.32.54.46,1.07.91,1.61,1.37,2.62-2.94,5.18-5.93,7.86-8.81,2.21-2.38,3.63-7.13,7.82-4.7,1.05.61-.1,5.9-1.03,8.78-1.03,3.19-2.41,5.89-.67,9.46,1.7,3.48,2.58,7.41,3.48,11.22.87,3.68,2.48,6.14,6.27,6.45-1.2-3.58-2.26-6.81-3.37-10.03-1.19-3.45-2.52-6.84-3.57-10.33-.3-1.01-.06-2.32.3-3.37,1.44-4.24,2.92-8.48,4.58-12.64,1.6-4.02,6.21-4.65,8.55-1.01.94,1.46.67,3.74.8,5.65.49,7.2.52,14.45,1.52,21.57.54,3.83,2.64,7.45,4.13,11.13.43,1.06,1.2,1.99,1.81,2.98.58-.25,1.16-.49,1.73-.74-1.82-4.84-4.26-9.56-5.28-14.57-1.2-5.89-1.54-12.04-1.4-18.05.04-1.54,3.27-3.01,5.04-4.51,1.26,1.5,3.17,2.81,3.64,4.52,1.44,5.28,2.29,10.72,3.46,16.07.35,1.62,1,3.18,1.51,4.77.48-.05.96-.1,1.44-.15.18-.95.7-1.97.49-2.82-1.31-5.3-2.62-10.61-4.25-15.81-1.31-4.19,1.1-5.95,4.27-7.08,3.89-1.39,4.3,1.93,5.16,4.36.79,2.24,1.42,4.53,2.12,6.8ZM861.19,238.66c.03.41.07.81.1,1.22,1.74,0,3.51.24,5.2-.04,10.64-1.74,21.52-2.68,31.84-5.6,23.83-6.74,47.28-14.79,71.07-21.67,20.53-5.94,41.7-8.81,62.63-3.28,13.55,3.58,26.8,9.05,39.44,15.19,31.49,15.31,63.69,19.39,97.38,8.94,39.71-12.32,79.5-24.36,119.08-37.07,21.25-6.82,41.95-15.19,60.43-28.13,1.35-.94,2.62-2,3.93-3-3.3.52-5.88,1.98-8.54,3.26-9.42,4.56-18.62,9.71-28.37,13.43-17.24,6.58-34.73,12.55-52.27,18.3-33.19,10.88-66.4,21.68-99.76,32-19.42,6.01-39.42,7.53-59.07,1.52-13.3-4.07-26.55-8.96-38.95-15.2-27.97-14.07-56.97-20-87.55-12.22-21.23,5.41-42.06,12.49-62.89,19.34-14.22,4.68-28.1,10.4-43.17,11.97-3.51.36-7.03.7-10.55,1.04ZM1263.96,258.83c.04.56.07,1.13.11,1.69,13.03,0,26.2,1.23,39.06-.26,23.98-2.78,44.85-14.11,64.58-27.39,10.21-6.87,19.55-15.09,30.01-21.52,7.22-4.44,8.39-10.79,9.88-18.68-4.1,2.49-7.62,4.36-10.84,6.64-10.87,7.69-21.71,15.42-32.42,23.32-24.77,18.29-52.58,28.94-82.89,33.47-5.83.87-11.65,1.82-17.48,2.73ZM507.22,279.08c-.16-.4-.32-.81-.49-1.21-1.71.31-3.44.97-5.12.84-3.33-.25-7.03-.17-9.86-1.62-4.52-2.31-8.66-5.53-12.53-8.86-1.49-1.29-3.03-4.52-2.41-5.85,1.32-2.8,4.17-3.16,7.22-1.38,6.3,3.67,12.71,7.16,19.19,10.5,3.59,1.85,7.02,1.29,10.61-2.54-17.3-6.32-28.85-19.92-42.84-30.2-4.48-3.29-8.7-3.01-13.05,1.3-5.91,5.85-11.35,12.16-17.03,18.24-4.74,5.06-9.53,10.07-14.64,15.47,1.76,1.32,3.6,2.71,4.77,3.59,2.32-2.91,4.07-5.37,6.11-7.56,1.68-1.82,3.52-3.65,5.64-4.86,1.67-.95,3.88-.95,5.85-1.38-.51,2.2-.3,5.23-1.67,6.41-2.7,2.32-6.33,3.54-9.5,5.34-1.36.78-2.53,1.9-3.79,2.86,5.38-.78,10.72-1.78,14.65-4.69,2.94-2.17,4.05-6.8,6.47-11.23,1.03,2.13,2.25,3.81,2.67,5.67,1.41,6.17-6.53,5.18-7.73,9.59,8.27-.47,11.63-5.09,9.6-12.54-.4-1.48-.04-3.61.8-4.9,2.31-3.52,5.9-3.94,9.27,1.13,4.59,6.91,11.57,10.5,17.09,15.93,5.06,4.98,10.5,4.96,16.43,4.45,1.48-.13,2.85-1.63,4.27-2.5ZM768.51,308.29c-.87.1-1.49.11-2.08.24-16.73,3.67-31.5,11.17-44.82,21.98-12.86,10.44-21.03,9.92-32.66-1.9-6.05-6.15-11.44-12.99-16.88-19.71-12.42-15.35-26.93-28.08-44.92-36.55-2.99-1.41-6.19-2.39-9.29-3.56-.36.51-.72,1.03-1.08,1.54,3.2,3.7,5.71,8.58,9.71,10.89,13.31,7.71,24.61,17.55,34.69,29,6.38,7.24,12.46,14.81,19.38,21.5,16.73,16.19,28.73,16.52,46.82,1.86,9.7-7.87,20.4-13.82,32.48-16.96,4.61-1.19,7.08-3.81,8.65-8.34ZM1333.86,272.21c-18.14,7.17-36.74,9.63-55.58,9.71-22.82.1-45.64-.56-68.46-.89-1.7-.02-3.4,0-5.73,0,1.86,3,2.95,5.29,4.55,7.14,1.04,1.21,2.8,2.47,4.28,2.53,14.65.54,29.31.96,43.97,1.09,2.44.02,5.33-.96,7.25-2.46,4.37-3.4,8.71-4.03,13.39-1.26,4.83,2.86,9.98,3.41,15.4,2.93,4.81-.43,9.67-.52,14.43-1.25,11.03-1.7,23.16-1.84,26.33-16.31.04-.16.05-.33.17-1.23ZM902.89,301.8c-5.29,2.15-9.77,3.85-14.15,5.77-16.68,7.3-33.09,8.8-49.92-.2-9.55-5.1-20.29-5.39-31.07-4.25.42,4.4,2.3,6.06,6.57,5.82,9.14-.51,17.79,1.78,26.15,5.43,3.19,1.39,6.49,2.59,9.84,3.52,14.09,3.93,27.24.07,40.41-4.67,5.56-2,9.56-5.07,12.17-11.43ZM935.61,286.07c4.08,4.11,8.04,3.31,12.53,1.26,18.98-8.68,38.47-15.95,59.24-18.96,4.96-.72,7.31-3.39,9.74-7.68-29.68,1.88-55.72,13.06-81.5,25.38ZM1062.15,260.59c-.21.51-.42,1.02-.63,1.53,5.41,9.3,15.4,12.89,23.42,18.91,9.82,7.36,21.11,10.87,33.28,12.32,5.39.64,7.58-1.5,8.94-6.51-17.47.56-31.87-6.2-45.4-16.17-5.84-4.3-13.03-6.78-19.61-10.08ZM149.31,205.83c-9.62-15.47-34.01-34.63-46.27-35.02,13.25,13.16,26.5,26.31,39.6,39.33,2.52-1.46,3.96-2.27,5.37-3.12.4-.24.71-.64,1.3-1.18ZM87.61,160.54c-16.23-6.96-32.38-9.75-48.42-5.5,10.03,3.9,20.68,7.94,31.24,12.18,8.21,3.29,8.17,3.4,14.09-3.32.86-.98,1.77-1.93,3.09-3.36ZM956.42,305.68c1.66,2.09,2.63,3.03,3.26,4.16,2.29,4.15,5.06,4.69,9.36,2.48,4.99-2.57,10.29-4.87,15.72-6.18,8.18-1.96,10.17-8.25,13.02-15.99-14.29,5.37-27.43,10.3-41.36,15.53ZM1396.97,235.74c-8.27,6.09-15.83,11.67-23.75,17.5,2.1,3.45,4.02,6.58,5.75,9.42,11.97-5.24,15.7-15.09,18-26.93ZM1084.53,295.3c-.39.43-.77.87-1.16,1.31,3.4,4.21,6.33,8.95,10.29,12.53,7.7,6.98,17.15,4.7,22.32-5.06-11.99,2.31-21.8-2.94-31.45-8.77ZM817.54,331.12c2.41,10.86,2.41,10.93,14.53,11.42,6.45.26,4.64-6.14,8.49-9.65-8.41-.65-15.45-1.19-23.01-1.77ZM883.69,335.28c-6.83.84-12.96,1.59-19.33,2.37.57,2.26.91,4.41,1.67,6.38.46,1.2,1.4,2.79,2.44,3.1,4.77,1.39,9.06-.6,11.5-4.95,1.21-2.15,2.34-4.35,3.72-6.91ZM233.26,200.55c-5.89-3.05-11.7-6.07-17.51-9.09,2.36,6.24,6.1,10.46,12.19,12.63,3.81,1.36,4.7-.14,5.32-3.55ZM420.74,245.64c-.74.01-1.49.03-2.23.04-1.47,2.22-4.16,4.51-4.03,6.64.1,1.75,3.65,4.7,5.47,4.56,1.88-.15,4.71-3.26,4.92-5.3.19-1.82-2.63-3.95-4.13-5.94ZM319.37,285.05c2.59-3.42,5.53-5.66,5.28-7.43-.29-2.01-3.22-4.67-5.41-5.13-2.89-.61-5.88,1.64-5.21,5.02.44,2.25,2.81,4.12,5.34,7.55ZM376.11,270.61c-3.26-2.47-5.08-4.92-7.16-5.17-3.06-.38-5.93,1.45-5.84,5.21.07,3.27,2.23,5.67,5.37,5.1,2.28-.41,4.21-2.73,7.63-5.14ZM365.33,248.34c-2.78,3.15-5.86,5.13-5.75,6.91.12,1.98,3.14,3.79,4.89,5.67,1.87-1.79,4.69-3.31,5.29-5.45.41-1.48-2.25-3.81-4.44-7.12ZM353.71,270.33c-.73.02-1.46.04-2.19.06-1.45,2.07-4.07,4.18-4.01,6.21.05,1.74,2.93,4.47,4.94,4.86,2.93.57,5.9-1.63,5.43-4.92-.32-2.22-2.7-4.15-4.16-6.2ZM336.24,285.75c2.49-3.34,5.32-5.49,5.16-7.4-.15-1.84-3.49-4.84-5.25-4.73-1.97.13-5.01,3.05-5.24,5.02-.2,1.77,2.78,3.91,5.33,7.1ZM349.17,252.97c-.79,0-1.57,0-2.36,0-1.43,2.05-4.07,4.18-3.93,6.12.13,1.82,2.96,4.44,5.01,4.9,3.06.69,5.79-1.69,5.34-4.93-.31-2.18-2.63-4.07-4.05-6.1ZM453.82,233.59c-.01-.71-.02-1.41-.03-2.12-2.11-1.44-4.41-4.21-6.29-3.95-1.96.27-4.52,3.29-4.89,5.44-.22,1.31,3.16,4.51,4.99,4.56,2.04.05,4.14-2.5,6.22-3.92ZM313.64,269.07l2.26.07c1.5-1.97,3.89-3.77,4.31-5.94.63-3.29-2.19-5.49-5.16-4.93-2.03.38-4.97,2.85-5.11,4.57-.15,1.97,2.35,4.15,3.7,6.23ZM431.76,247.94c.78.03,1.56.06,2.34.09,1.48-1.94,3.82-3.7,4.24-5.85.62-3.16-1.63-5.25-5.01-5.27-3.38-.02-5.54,2.09-5.15,5.23.25,2.05,2.33,3.87,3.58,5.8ZM382.43,244.99c-.79-.03-1.58-.05-2.37-.08-1.45,2-3.91,3.94-4.03,6.01-.09,1.59,3.22,4.97,4.22,4.7,2.23-.62,4.9-2.73,5.58-4.82.46-1.41-2.16-3.83-3.4-5.8ZM331.64,268.69c2.58-3.48,5.46-5.71,5.22-7.52-.25-1.9-3.38-4.51-5.47-4.73-1.57-.16-4.84,2.94-4.88,4.64-.04,2.01,2.59,4.08,5.12,7.6ZM460.79,229.93c.78-.01,1.57-.03,2.35-.04,1.37-2.05,3.93-4.2,3.76-6.12-.14-1.72-3.31-4.45-5.1-4.41-1.84.04-4.99,2.83-5.06,4.52-.08,1.96,2.57,4.03,4.04,6.05ZM521.14,244c.76,0,1.52,0,2.28,0,1.43-2.06,4.01-4.17,3.93-6.17-.07-1.69-3.04-4.27-5.05-4.64-3.06-.56-5.64,1.82-5.07,5.09.36,2.07,2.55,3.82,3.92,5.71ZM461.19,209.97c-.02-.79-.05-1.58-.07-2.37-1.98-1.18-4.16-3.54-5.89-3.24-1.92.33-4.74,3.05-4.75,4.75-.01,1.68,2.94,4.67,4.68,4.74,1.96.08,4.02-2.47,6.03-3.88ZM397.24,238.23c-.72.01-1.44.03-2.17.04-1.32,1.94-3.45,3.76-3.78,5.86-.51,3.29,2.09,5.61,5.15,4.87,1.92-.47,4.38-3.18,4.54-5.06.15-1.79-2.39-3.79-3.75-5.7ZM482.72,215.9c-.04-.72-.08-1.44-.12-2.16-2.07-1.12-4.36-3.4-6.14-3.06-1.95.37-3.44,3.17-5.13,4.91,1.79,1.64,3.61,4.6,5.37,4.57,2.04-.04,4.02-2.72,6.03-4.25ZM424.12,233.04c.77.01,1.55.03,2.32.04,1.31-1.89,3.84-3.93,3.62-5.63-.24-1.96-2.65-4.71-4.57-5.15-3.12-.73-5.6,1.87-5.22,5,.25,2.04,2.49,3.84,3.84,5.75ZM410.68,242.14c.78-.03,1.57-.05,2.35-.08,1.15-2,3.47-4.23,3.13-5.93-.39-1.93-3.19-4.7-4.89-4.66-1.74.03-4.78,3.03-4.77,4.72,0,1.99,2.67,3.97,4.18,5.96ZM477.79,200.38c-3.28-2.03-5.39-4.38-7.01-4.08-2.02.38-3.63,2.95-5.41,4.57,1.89,1.71,3.63,4.5,5.72,4.79,1.6.22,3.63-2.71,6.71-5.27ZM446.39,219.2c.03-.77.06-1.53.09-2.3-1.91-1.33-3.94-3.85-5.71-3.68-1.92.19-3.6,2.87-5.38,4.47,1.68,1.75,3.17,4.58,5.09,4.91,1.72.3,3.92-2.16,5.91-3.4ZM512.98,244.01c-.79.02-1.58.03-2.38.05-1.23,1.95-3.67,4.13-3.36,5.8.34,1.88,3.26,4.69,4.88,4.58,1.79-.12,4.51-2.96,4.74-4.87.2-1.67-2.48-3.69-3.88-5.56ZM500.12,231.11c-2.34,3.33-4.48,5.11-4.84,7.19-.53,3.01,1.85,5.38,4.78,4.58,1.94-.53,4.26-3.04,4.61-4.99.27-1.52-2.24-3.53-4.54-6.78ZM517.67,227.65c0-.7.02-1.4.02-2.1-1.8-1.29-3.68-3.69-5.39-3.57-1.79.12-3.42,2.65-5.12,4.13,1.66,1.72,3.09,4.37,5.06,4.86,1.44.36,3.59-2.1,5.43-3.31ZM605.28,225.27c-2.4,2.91-5.02,4.73-4.87,6.27.18,1.74,2.78,4.37,4.46,4.48,1.62.1,4.57-2.36,4.8-3.99.23-1.62-2.21-3.62-4.4-6.76ZM480.58,238.54c.69,0,1.39,0,2.08,0,1.21-1.82,3.36-3.67,3.33-5.46-.03-1.43-2.75-3.92-4.25-3.9-1.58.02-4.27,2.4-4.37,3.89-.11,1.75,2.04,3.64,3.21,5.47ZM498.83,224.47l-.12-1.9c-1.82-.92-3.77-2.71-5.44-2.49-1.53.21-2.75,2.61-4.11,4.04,1.58,1.37,3.11,3.75,4.75,3.83,1.58.08,3.27-2.23,4.92-3.48ZM593.59,222.32c-1.76,2.6-3.76,4.29-3.48,5.45.38,1.6,2.47,3.87,3.83,3.87,1.38,0,3.78-2.34,3.87-3.77.09-1.42-2.14-2.98-4.22-5.56ZM716.72,361.22c-4.22.59-8,1.12-12.07,1.68,5.24,5.68,8.5,5.23,12.07-1.68ZM55.46,369.18c-2.69,3.39-5.38,6.78-8.68,10.95,5.91-.55,10.03-5.65,8.68-10.95ZM345.95,295.17c-2.29-1.52-3.73-3.17-4.66-2.92-1.37.37-2.38,2.09-3.55,3.23,1.11,1.01,2.22,2.83,3.32,2.82,1.31,0,2.61-1.58,4.88-3.13ZM536.77,226.67c-1.73-1.17-2.9-2.56-3.92-2.47-1.01.09-1.89,1.7-2.83,2.64,1.05,1.02,1.97,2.6,3.18,2.86.78.17,1.98-1.61,3.57-3.04Z"/>
  <path d="M1456.19,44c-5.16,2.23-10.54,4.07-15.45,6.75-21.63,11.83-40.63,27.26-58.68,43.89-26.66,24.57-54.77,47.11-86.75,64.59-39.98,21.85-81.84,37.82-127.51,42.41-32.74,3.29-64.63.94-95.74-11.3-32.84-12.92-66.48-23.59-101.37-29.74-18.92-3.34-37.87-1.99-56.77-.06-31.17,3.18-61,11.99-90.54,21.95-2.03.69-4.2,1.47-6.27,1.37-1.51-.07-3.72-1.24-4.18-2.46-.38-.99,1.05-3.61,2.25-4.09,8.01-3.24,16.05-6.48,24.29-9.03,32.77-10.14,66.26-15.94,100.63-17,23.01-.71,45.1,3.92,66.83,10.35,22.15,6.56,44.34,13.37,65.79,21.88,29.62,11.75,60.08,13.87,91.29,12.02,54.58-3.23,102.65-24.67,147.24-54.36,23.23-15.47,45.2-32.97,66.76-50.75,24.51-20.21,49.89-38.89,78.19-53.44v7Z"/>
  <path d="M.19,286c3.66-4.69,7.75-9.12,10.87-14.15,4.24-6.85,9.41-12.67,16.6-16.11,13.16-6.29,22.1-16.81,30.02-28.49,2.24-3.3,4.22-6.82,6.74-9.88,1-1.22,3.16-1.5,4.78-2.21.22,1.71,1.12,3.71.53,5.08-2.57,5.95-5.63,11.68-8.39,17.54-6.37,13.51-9.41,27.72-7.92,42.64.99,9.92-2.42,17.94-9.31,24.73-3.79,3.73-7.65,7.41-11.62,10.95-13.17,11.73-21.65,26.29-26.89,43.01-.91,2.91-3.56,5.28-5.41,7.9,0-27,0-54,0-81Z"/>
  <path d="M80.66,235.95c1.28,8.95,2.28,16.4.21,24.58-1.53,6.03.86,13.1,1.7,19.68.38,2.96,1.24,5.86,1.88,8.78,1.91,8.62,3.32,16.96.14,25.93-2.16,6.1-1.58,13.15-2.39,19.76-1.42,11.56-7.15,21.03-14.9,29.34-3.89,4.17-6.51,3.58-9.19-1.48-3.08-5.8-3.32-12.05-1.14-17.94,3.69-9.96,8-19.7,12.27-29.43,2.2-5.02,4.94-9.81,7.35-14.75,4.09-8.41,4.46-17.21,3.11-26.35-1.7-11.49-4.24-23.04-.5-34.63.28-.86.7-1.67,1.47-3.51Z"/>
  <path d="M1346.91,184.09c-35.82,18.27-72.78,33.67-111.8,43.84,37.18-14.82,75.17-27.6,111.8-43.84Z"/>
  <path d="M1424.71,134.18c-1.48-1.36-2.5-2.31-3.53-3.26.9-.96,1.84-2.71,2.7-2.68,1.09.04,2.56,1.36,3.02,2.48.26.62-1.19,1.95-2.2,3.46Z"/>
</svg>