<?xml version="1.0" encoding="UTF-8"?>
<svg id="Ebene_1" xmlns="http://www.w3.org/2000/svg" viewBox="0 0 1482.03 545.87">
  <path d="M25.08,251.06V99.06c11.43.77,18.06-5.6,23.21-14.9,8.53-15.41,13.57-16.42,27.66-6.02,7.9,5.83,16.49,10.19,26.19,11.73,11.83,1.87,23.72,3.42,35.63,4.71,11.67,1.26,19.97-3.76,24.83-14.42,1.59-3.48,2.95-7.07,4.57-10.53,2.12-4.51,5.68-6.55,10.77-6.63,6.47-.1,12.96-.43,19.37-1.24,7.43-.94,13.34,1.19,18.29,6.79,3.41,3.86,6.94,7.7,10.88,10.99,7.93,6.61,16.67,7.86,25.97,2.72,3.06-1.69,6.13-3.36,9.23-4.98,9.91-5.18,14.68-4.05,22.55,3.87,3.9,3.93,8.47,7.59,13.4,10.04,6.94,3.45,13.35,7.13,18.72,12.91,6.67,7.18,15.15,8.89,24.22,4.96,4.7-2.04,8.98-5.02,13.53-7.44,5.11-2.73,10.09-5.94,15.51-7.8,8.75-3,14.97-8.11,18.78-16.63,3.48-7.79,10.34-8.04,15-.69,2.03,3.21,3.53,6.79,4.94,10.34,9.39,23.61,30.95,27.01,47.81,23.74,7.51-1.46,12.69-6.08,16.87-12.3,4.72-7.03,9.04-14.55,14.88-20.55,10.14-10.4,23.93-8.89,32.8,2.54,3.26,4.21,5.99,8.99,9.88,12.52,4.09,3.71,8.9,7.26,14.03,9.05,11.85,4.13,22.9,1.11,31.87-7.42,5.51-5.24,9.87-11.66,14.85-17.47,5.47-6.39,11.3-6.64,16.97-.46,3.14,3.42,5.68,7.39,8.54,11.06,9.24,11.84,21.44,18.53,36.37,17.14,20.18-1.87,37.88-8.64,44.78-30.56.15-.47.42-.91.63-1.36,3.97-8.44,10.92-12.41,19.95-12.61,9.42-.21,17.2,3.34,22.58,11.38,3.52,5.26,6.61,10.85,10.57,15.74,18.96,23.4,51.07,26.43,76.4,7.04,5.9-4.52,11.13-10.05,16.08-15.63,10.4-11.73,23.37-15.67,38.32-12.81,10.43,2,20.54,5.73,30.98,7.63,22.51,4.08,43.69,2.87,58.97-17.79,1.55-2.1,4.4-3.79,6.96-4.5,9.5-2.64,23.11,3.95,27.33,12.83,2.5,5.26,4.52,10.8,7.53,15.75,6.36,10.49,17.23,14.13,28.51,9.26,5.56-2.4,10.67-6.03,15.65-9.56,4.68-3.32,5.86-3.13,10.38.3,4.27,3.24,8.96,6.53,13.99,8.03,9.53,2.84,19.47,4.25,29.17,6.58,10,2.4,19.26.86,27.68-4.82,5.23-3.53,10.16-7.55,15.01-11.61,12.54-10.48,26.31-17.92,42.96-19.47,19.03-1.76,31.31,5.6,37.81,23.3.29.78.58,1.56.9,2.33,6.45,15.52,20.51,23.49,37.28,21.38,12.6-1.59,23.62-6.86,31.91-16.1,7.61-8.48,13.87-18.22,20.3-27.69,7.16-10.55,18.66-12.83,28.8-5.01,3.29,2.53,6.23,5.52,9.23,8.41,12.39,11.92,27.5,17.13,44.34,17.99,17.34.88,33.55-4.26,49.71-9.64,7.71-2.56,15.47-4.95,23.21-7.41v115c-2.46.22-4.99.14-7.37.7-23.32,5.52-43.44,17.42-62.35,31.63-20.36,15.3-37.54,33.97-54.94,52.36-27.75,29.32-58.02,55.14-93.59,74.97-35.91,20.03-74.08,25.54-113.53,19.3-23.79-3.76-47.14-11.74-69.96-19.86-37.4-13.31-74.91-22.53-115.22-19.44-32.91,2.53-65.07,7.8-96.6,17.3-1.97.59-5.47.66-3.9,4.12.46,1.02,3.61,1.59,5.24,1.2,32.28-7.7,64.83-13.27,98.06-15.16,23.71-1.35,47,.06,69.7,6.87,25.63,7.68,51.23,15.58,76.47,24.44,37.56,13.19,75.47,13.17,113.68,4.53,25.6-5.79,47.54-19.75,69.37-33.49,24.53-15.44,45.46-35.33,66.33-55.25,21.93-20.94,43.49-42.44,69.91-57.88,15.93-9.3,32.45-17.59,48.7-26.33v13c-5.08,1.43-10.37,2.35-15.21,4.37-45.89,19.13-85.23,47.34-116.38,86.23-15.88,19.83-33.03,37.91-55.59,50.17-10.09,5.48-20.11,11.12-30.32,16.36-38.21,19.59-79.1,24.46-120.56,16.79-27.14-5.02-53.49-14.74-79.83-23.45-24.8-8.2-49.74-15.51-76.01-15.19-33.04.41-65.85,3.86-97.9,12.37-36.66,9.74-73.13,20.22-109.85,29.69-29.08,7.5-56.51,3.72-80.98-14.98-3.3-2.52-6.89-4.68-10.33-7.02-40.81-27.73-85.01-43.14-135.11-37.39-20.03,2.3-40.22,4.16-59.02,11.97-26.17,10.87-51.46,23.5-74.56,40.21-6.59,4.76-13.62,9-20.8,12.83-21.79,11.62-45.53,15.38-69.84,16.77-42.73,2.44-80.19-9.49-111.18-39.9-14.39-14.11-29.13-27.87-43.89-41.59-26.15-24.29-54.56-45.35-87.56-59.56-19.47-8.39-39.52-14.1-61.08-11.68ZM116.04,174.05c-3.76,4.17-7.52,8.33-11.46,12.68-3.44-4.04-6.96-8.16-10.47-12.29-.46.28-.91.57-1.37.85.76,5.34,1.51,10.69,2.28,16.13-5.43.57-10.52,1.1-15.61,1.63-.05.48-.09.96-.14,1.44,4.18,2.23,8.36,4.47,12.33,6.59-2.69,4.8-5.22,9.32-7.75,13.84l.98.9c4.81-2.33,9.62-4.66,14.46-7,1.85,5.36,3.54,10.25,5.23,15.13.4-.06.8-.12,1.2-.19,1.55-4.94,3.11-9.88,4.64-14.77,5.34,2.25,10.22,4.31,15.1,6.37.25-.41.5-.82.75-1.23-2.83-4.22-5.65-8.44-8.63-12.9,2.47-1.21,4.76-2.19,6.9-3.41,1.99-1.14,3.83-2.54,5.74-3.82-.16-.39-.32-.77-.48-1.16-5.08-.51-10.16-1.01-15.11-1.51.41-5.97.8-11.72,1.21-17.48.93.3,1.98,1.01,2.77.8,1.23-.33,2.73-1.07,3.27-2.08.33-.62-.74-2.86-1.45-2.99-1.13-.22-2.74.43-3.64,1.25-.67.62-.55,2.1-.78,3.2ZM724.41,375.66c13.3,4.3,27.1,6.57,40.65,3.69,22.75-4.84,45.35-10.56,67.71-16.97,39.38-11.29,78.67-22.29,119.77-26,33.65-3.03,66.45-.96,98.59,9.77,21.76,7.26,43.67,14.08,65.36,21.52,27.19,9.34,55.09,10.58,83.35,8.03,43.41-3.91,79.51-24.88,114.1-49.25,2.37-1.67,4.19-4.12,6.27-6.21-.35-.39-.7-.78-1.05-1.17-2.08,1.24-4.17,2.45-6.23,3.72-13.86,8.57-27.56,17.42-41.6,25.69-40.46,23.81-84.44,29.43-129.74,21.23-23.71-4.29-47.14-11.87-69.67-20.62-42.18-16.38-85.17-21.34-129.86-15.71-35.41,4.47-70.09,12.43-104.75,20.52-23.81,5.56-47.33,12.4-71.25,17.36-13.61,2.82-27.77,3.01-41.67,4.39ZM233.5,245.84l-.33,1.35c6.85,3.74,13.7,7.48,20.2,11.03-4.09,7.05-8.01,13.79-11.93,20.53.41.33.81.67,1.22,1,7.09-3.44,14.18-6.88,21.41-10.38,2.72,7.85,5.34,15.41,7.96,22.97.36-.03.73-.07,1.09-.1,2.29-7.71,4.58-15.42,6.85-23.06,7.51,3.36,14.63,6.53,21.75,9.71.33-.4.65-.81.98-1.21-4.05-6.41-8.09-12.81-12.07-19.12,6.67-3.46,13.41-6.95,20.15-10.45-.16-.5-.31-1-.47-1.51-8-.82-15.99-1.65-23.87-2.46,1.32-8.82,2.54-17.03,3.77-25.25-.46-.19-.93-.38-1.39-.57-5.44,6.14-10.88,12.27-16.39,18.49-5.54-6.51-10.98-12.89-16.42-19.27-.48.19-.96.39-1.44.58,1.23,8.55,2.46,17.1,3.71,25.76-8.4.66-16.59,1.31-24.78,1.95ZM1101.08,272.48c-.14-.42-.27-.83-.41-1.25-4.54-.47-9.07-.95-13.61-1.42.49-4.86.94-9.31,1.39-13.76-.38-.09-.76-.18-1.13-.27-2.9,3.36-5.8,6.73-8.8,10.21-3.21-3.61-6.35-7.12-9.48-10.64-.37.19-.75.39-1.12.58.65,4.53,1.3,9.06,1.98,13.8-4.43.58-8.86,1.17-13.29,1.75-.04.43-.09.85-.13,1.28,3.65,1.86,7.31,3.73,10.96,5.59-2.22,4.02-4.37,7.93-6.52,11.83.31.22.63.44.94.65,4.14-1.93,8.28-3.86,12.35-5.76,1.66,4.53,3.15,8.58,4.63,12.63l1.25-.22c1.29-4.05,2.58-8.1,3.88-12.2,4.44,1.77,8.51,3.39,12.58,5.01.25-.3.5-.6.75-.9-2.46-3.62-4.92-7.23-7.42-10.9,3.76-2.02,7.49-4.03,11.21-6.03ZM336.4,306.83c1.53,2.77,2.78,5.03,4.37,7.9,1.4-3.15,2.52-5.66,3.76-8.43,2.77,1.35,5.26,2.56,8.75,4.26-1.33-3.51-2.19-5.75-3.11-8.18,2.61-.93,4.92-1.76,7.91-2.83-2.8-1.71-5.08-3.1-7.65-4.66,2.01-2.38,3.64-4.32,5.72-6.78-3.23.27-5.65.47-8.35.69-.29-2.65-.55-5-.89-8.11-2.26,2.54-3.96,4.45-5.86,6.6-1.97-2.35-3.7-4.43-6-7.18-.5,3.41-.87,5.9-1.22,8.29-2.81-.23-5.18-.42-8.32-.68,1.83,3.26,3.15,5.61,4.58,8.14-2.89,1.51-5.28,2.76-8.5,4.44,3.6,1.19,6.18,2.05,8.88,2.94-.75,2.94-1.39,5.43-2.27,8.86,1.88-1.2,2.95-1.87,4.02-2.56,1.24-.8,2.47-1.6,4.2-2.72ZM918.8,271.56c-1.8,2.85-2.62,5.35-4.34,6.54-1.82,1.26-4.51,1.27-8.12,2.14,6.39,3.04,5.8,7.84,4.65,13.2,4.81-3.67,9.2-4.85,14.02.21-1.83-5.73.23-9.68,5.24-13.66-6.85.17-10.42-2.12-11.44-8.43ZM1253.38,293.51c-1.68-6.3,1.76-9.28,6.21-12.26-6.06-.68-8.9-4.07-10.1-9.72-2.64,4.7-6.29,7-12.01,6.63,5.31,4.21,3.41,8.84,1.81,13.83,5.11-2.96,9.6-3.63,14.09,1.53ZM981.72,280.71c5.51,3.49,4.64,8.17,2.57,14.4,5.59-4.2,9.91-4.96,14.64-.75-2.55-6.01,1.03-9.25,4.46-12.93-6.48.84-8.3-3.79-10.59-8.69-2.4,5.17-5.08,8.4-11.08,7.98ZM736.48,312.67c6.33,3.24,4.57,8.23,3.08,14.18,5.42-4.03,9.83-5.54,14.73-.74-2.57-5.91,0-9.51,4.19-12.98-5.85-.09-9.12-2.97-10.82-9.44-2.19,6.22-5.27,9.02-11.18,8.99ZM787.08,309.13c4.7-4.29,9.16-3.88,14.16-.33-2.86-5.65.11-9.03,4.88-13.05-7.12,1-9.62-2.59-12.01-8.32-1.77,6.06-5.06,8.51-10.72,8.52,5.44,3.38,5.15,7.76,3.69,13.18ZM1295.57,201.63c-1.5.37-2.94.72-5.19,1.28,2.06,1.61,3.31,2.59,4.52,3.54-.65,1.7-1.21,3.19-2,5.25,2-.8,3.42-1.37,4.85-1.94.54,1.62.99,2.96,1.57,4.73,1.69-1.78,3.01-3.17,4.31-4.54,1.4.75,2.59,1.38,4.63,2.48-.74-2.43-1.2-3.92-1.68-5.49,1.08-.78,2.17-1.57,2.66-1.92-2.22-3.15-4.22-5.98-6.38-9.04-1.11,1.2-2.25,2.45-3.4,3.7-1.2-1.04-2.25-1.95-3.89-3.38v5.35ZM933.26,180.9c.05-3.81-2.75-6.8-6.39-6.81-3.5,0-6.55,2.85-6.38,6.25.2,3.86,2.4,6.12,6.26,6.45,3.73.31,6.46-2.26,6.51-5.89ZM863.43,126.52c-3.71-.09-6.48,2.36-6.67,5.61-.21,3.64,2.69,6.81,6.39,6.67,3.59-.14,5.99-1.89,6-5.77,0-3.94-2.3-5.94-5.72-6.51ZM1322.06,139.19c3-.21,5.1-2,5.07-5.6-.03-3.73-2.27-5.97-5.83-6.17-3.4-.19-5.66,1.84-6,5.33-.32,3.25,2.87,6.38,6.76,6.44ZM175.33,172.75c.75-2.15,1.76-5.06,2.54-7.28-2.36-1.99-4.58-3.87-6.25-5.27-2.43,1.68-4.89,3.37-6.65,4.58.69,3.02,1.36,5.95,1.81,7.97h8.55ZM1218.16,188.93c3.44-.38,5.95-1.87,5.82-5.58-.13-3.68-2.41-5.94-6.1-5.91-3.38.03-5.76,1.87-5.78,5.55-.02,3.95,2.64,5.42,6.06,5.94ZM32.3,161.29c.67,2.25,1.55,5.22,2.23,7.5h8.01c.97-2.52,2.03-5.24,2.77-7.18-2.42-2.01-4.71-3.9-6.27-5.19-2.27,1.63-4.54,3.27-6.75,4.87ZM1048.07,148.62c-.68-4.59-3.59-7.55-7.08-7.43-3.19.11-5.35,1.7-5.7,5.01-.31,3.04,3.1,7.02,6.11,6.4,2.39-.49,4.46-2.59,6.66-3.98ZM1077.22,186.14c3.92.16,6.51-1.12,6.67-4.79.16-3.58-1.8-6.01-5.54-6.29-3.41-.26-5.94,1.31-6.2,4.88-.27,3.69,1.89,5.76,5.06,6.2ZM482.73,146.87c.5,2.16,1.17,5,1.68,7.21h8.21c.68-1.97,1.6-4.61,2.32-6.7-2.08-1.94-4.17-3.89-5.91-5.5-1.92,1.52-3.98,3.15-6.31,5ZM1390.68,141.75c1.09-1.51,3.26-3.35,3.83-5.59.8-3.16-2.76-6.37-6.16-6.18-3.53.2-5.52,2.12-5.41,5.73.13,3.93,2.83,5.26,7.74,6.04ZM1216.46,325.08c-.9-5.09-2.84-7.22-6.62-7.06-3.29.13-5.22,1.91-5.26,5.3-.04,3.52,3.07,6.61,6.48,5.69,2.2-.59,3.97-2.83,5.4-3.93ZM787.86,195.21c.79-.01,1.58-.02,2.38-.03,1.45-2,3.8-3.87,4.13-6.04.52-3.37-1.97-5.73-5.4-5.85-3.47-.12-6.12,2.19-5.61,5.52.35,2.31,2.92,4.28,4.5,6.4ZM779.43,238.15c.79-.02,1.57-.05,2.36-.07,1.41-2.01,3.71-3.88,4.01-6.05.48-3.38-2.09-5.57-5.47-5.6-3.34-.02-6.15,1.93-5.41,5.46.48,2.3,2.94,4.19,4.51,6.26ZM1219.35,247.48c.92-1.32,3.21-3.2,3.51-5.36.5-3.51-2.17-5.39-5.61-5.38-3.22,0-5.4,1.58-5.29,5.14.11,3.63,2.26,5.27,7.38,5.6ZM275.9,154.83c-3.57.24-6.3,2.11-5.56,5.48.45,2.07,3.21,4.53,5.38,5.1,3.01.78,5.34-1.39,5.47-4.82.14-3.62-1.92-5.39-5.3-5.76ZM1163.66,233.77c-.94,1.3-3.15,3.11-3.58,5.26-.71,3.55,2.05,5.48,5.27,5.75,3.33.28,5.26-1.89,5.36-5.13.1-3.49-1.89-5.42-7.05-5.88ZM649.39,252.59c.77-.04,1.54-.08,2.31-.12,1.41-2.05,3.8-4.01,4-6.17.31-3.26-2.05-5.48-5.69-5.35-3.32.13-5.76,2.08-5.1,5.26.49,2.34,2.91,4.27,4.48,6.38ZM952.98,183.63c1.02-1.34,3.41-3.13,3.8-5.3.57-3.1-1.71-5.22-5.05-5.41-3.27-.19-5.55,1.26-5.76,4.71-.22,3.65,1.98,5.37,7.01,5.99ZM841.13,202.42c-.99,1.36-3.4,3.23-3.68,5.37-.46,3.44,2.22,5.3,5.66,5.35,3.14.04,4.99-1.72,5.08-4.85.11-3.62-2.03-5.35-7.06-5.87ZM230.75,143.72c2.47-3.2,4.77-4.88,5.1-6.9.55-3.32-1.64-5.68-5.19-5.73-3.28-.05-5.7,2.12-5.24,5.18.33,2.17,2.77,4.03,5.33,7.45ZM1271.14,232.73c-.76.02-1.53.04-2.29.05-1.33,2.04-3.51,3.96-3.8,6.14-.44,3.3,2.24,5,5.4,5.04,3.36.04,5.63-2.15,5.02-5.28-.43-2.18-2.81-3.98-4.33-5.94ZM1104.67,186.62c2.49-3.15,4.83-4.82,5.17-6.84.58-3.41-1.84-5.59-5.32-5.6-3.15,0-5.84,1.82-5.24,5.09.4,2.19,2.83,4.01,5.39,7.35ZM390.04,199.55l-.09-2.34c-2.12-1.32-4.35-3.78-6.34-3.61-1.76.15-4.31,3.07-4.64,5.08-.54,3.3,2.4,5.38,5.41,4.92,2.04-.31,3.78-2.63,5.66-4.06ZM436.61,218.93c.02-.71.04-1.42.05-2.13-1.9-1.41-3.64-3.61-5.75-4.06-3.24-.69-5.82,1.72-5.25,4.83.36,1.94,3.07,4.5,5.01,4.78,1.78.26,3.94-2.18,5.94-3.43ZM300.5,345.99c-.78.01-1.56.03-2.34.04-1.33,1.93-4.04,4.19-3.67,5.69.52,2.11,3.13,4.62,5.25,5.06,1.29.27,4.64-2.97,4.69-4.7.06-1.99-2.51-4.06-3.93-6.1ZM523.27,223.15l2.35-.02c1.27-1.96,3.79-4.14,3.49-5.81-.36-1.96-3.1-4.68-4.95-4.8-1.64-.11-4.84,2.88-4.88,4.55-.04,2,2.55,4.06,4,6.09ZM169.06,221.69c.72-.02,1.44-.03,2.16-.05,1.25-1.97,3.72-4.17,3.41-5.84-.35-1.86-3.25-4.47-5.04-4.47-1.63,0-4.44,3.01-4.53,4.8-.09,1.78,2.56,3.7,4.01,5.56ZM1321.33,221.17c-.78,0-1.57.02-2.35.03-1.3,1.91-3.87,4.05-3.58,5.67.35,1.92,3.13,4.62,4.94,4.68,1.6.06,4.41-2.88,4.66-4.77.22-1.68-2.34-3.72-3.67-5.61ZM375.66,166.46c0-.72,0-1.45,0-2.17-1.96-1.25-3.98-3.53-5.87-3.44-1.65.08-3.17,2.85-4.75,4.43,1.72,1.6,3.27,4.13,5.23,4.49,1.54.28,3.57-2.11,5.39-3.31ZM577.6,200.25c-2.2,3.37-4.6,5.45-4.32,7.05.32,1.78,3.05,4.24,4.81,4.3,1.45.05,4.08-2.89,4.2-4.65.12-1.68-2.33-3.53-4.69-6.7ZM1021.63,180.23c.01-.68.02-1.37.03-2.05-1.84-1.22-3.68-3.38-5.51-3.37-1.63.01-3.24,2.43-4.86,3.79,1.54,1.64,2.9,4.31,4.68,4.64,1.65.3,3.75-1.9,5.66-3.01ZM1005.37,190.28c.08-.63.15-1.25.23-1.88-1.78-1.41-3.58-3.95-5.33-3.91-1.74.04-3.42,2.67-5.12,4.16,1.54,1.43,2.93,3.75,4.66,4.04,1.67.28,3.7-1.52,5.57-2.41ZM573.96,196.59c.06-.72.13-1.43.19-2.15-1.74-1.21-3.51-3.39-5.22-3.34-1.6.05-3.13,2.45-4.7,3.81,1.54,1.61,2.85,4.02,4.71,4.56,1.28.37,3.32-1.83,5.02-2.88ZM701.85,195.66c1.22-2.16,2.29-3.99,3.27-5.86.34-.65.44-1.44.64-2.16-.72-.13-1.45-.42-2.15-.34-1.83.21-3.65.58-6.08,1-.45.48-1.64,1.75-2.94,3.14.48,1.26,1.2,3.17,1.79,4.73,2.1-.19,4.23-.39,5.47-.51ZM989.06,205.95c-2.25,2.82-4.64,4.52-4.51,6.01.14,1.6,2.55,4.01,4.15,4.16,1.35.13,3.92-2.33,4.16-3.92.22-1.49-1.9-3.33-3.8-6.25ZM1374.22,201.67c-2.95-2.09-4.63-4.2-6.3-4.18-1.41.01-2.8,2.48-4.19,3.87,1.49,1.48,2.79,3.76,4.54,4.19,1.24.3,3.08-1.9,5.96-3.87ZM973.73,233.16c1.8-2.71,3.82-4.43,3.66-5.9-.17-1.54-2.44-2.85-3.79-4.26-1.48,1.48-3.83,2.81-4.14,4.5-.23,1.28,2.17,3.03,4.27,5.66ZM649.55,270.08c-1.88,2.77-3.94,4.48-3.74,5.85.23,1.55,2.49,2.8,3.86,4.19,1.46-1.46,3.73-2.75,4.09-4.45.25-1.18-2.1-2.93-4.22-5.59ZM1167.08,309.44c-2.93-2-4.63-4.05-6.27-4.01-1.35.04-3.9,2.83-3.67,3.9.36,1.65,2.49,3.68,4.19,4.03,1.24.26,2.98-1.93,5.75-3.92ZM1033.37,160.72c-3.27-1.78-5.15-3.62-6.84-3.46-1.51.14-2.82,2.49-4.22,3.87,1.67,1.33,3.21,3.45,5.04,3.72,1.35.2,3.07-1.99,6.02-4.13ZM910.19,218.27c-2.46-2.1-4.03-4.44-5.3-4.29-1.73.21-3.23,2.32-4.82,3.61,1.44,1.49,2.68,3.74,4.4,4.21,1.2.33,3.06-1.79,5.73-3.54ZM954.6,145.33c-2.22,2.73-4.57,4.42-4.36,5.67.29,1.68,2.34,3.55,4.07,4.27.74.31,3.7-2.09,3.69-3.25-.01-1.79-1.7-3.57-3.41-6.68ZM1415.05,130.29c1.91-2.6,4.01-4.22,3.86-5.58-.17-1.54-2.38-2.85-3.7-4.25-1.42,1.33-3.76,2.53-3.97,4.03-.2,1.38,1.91,3.08,3.81,5.8ZM640.33,196.68c-2.51-2.03-4.21-4.41-5.48-4.2-1.69.29-3.03,2.59-4.52,4.03,1.42,1.35,2.73,3.59,4.29,3.78,1.43.17,3.13-1.87,5.71-3.61ZM1184.74,331.04c2.01-2.57,4.18-4.15,4.06-5.51-.14-1.57-2.31-2.95-3.6-4.41-1.51,1.37-3.82,2.54-4.25,4.19-.31,1.18,1.9,3.02,3.8,5.72ZM1150.09,266.6c-2.88-2.1-4.5-4.21-5.93-4.09-1.55.13-2.93,2.33-4.38,3.63,1.36,1.38,2.57,3.59,4.13,3.88,1.39.25,3.17-1.64,6.18-3.42ZM613.65,218.94c2.05-2.64,4.25-4.26,4.1-5.62-.16-1.52-2.45-2.81-3.82-4.21-1.36,1.41-3.42,2.64-3.82,4.28-.28,1.15,1.72,2.85,3.54,5.55ZM1255.84,201.77c-2.77-1.81-4.49-3.81-5.88-3.6-1.52.23-2.75,2.48-4.1,3.86,1.49,1.27,2.86,3.3,4.51,3.57,1.23.2,2.83-1.88,5.46-3.83ZM1121.29,144.82c-3.09-1.8-4.8-3.59-6.31-3.44-1.39.14-2.56,2.4-3.82,3.72,1.41,1.35,2.71,3.57,4.28,3.78,1.33.18,2.98-1.95,5.86-4.07ZM985.05,150.28c1.87-2.52,3.97-4.13,3.82-5.49-.17-1.49-2.37-3.75-3.77-3.82-1.33-.06-3.78,2.18-3.91,3.57-.13,1.43,1.95,3.07,3.86,5.74ZM621.19,256.28c-2.97-2-4.66-4.01-6.09-3.85-1.51.17-2.78,2.42-4.16,3.77,1.4,1.31,2.68,3.46,4.24,3.69,1.37.21,3.07-1.73,6.01-3.61ZM945.2,216.1c-2.88-1.88-4.66-3.94-6.02-3.69-1.55.28-2.73,2.63-4.07,4.07,1.45,1.31,2.81,3.52,4.36,3.67,1.39.13,3-2.01,5.73-4.05ZM578.38,136.77c-2.68-2.07-4.29-4.28-5.76-4.19-1.52.09-2.91,2.41-4.36,3.76,1.39,1.39,2.63,3.64,4.21,3.9,1.4.23,3.16-1.75,5.91-3.47ZM921.28,220.88c1.82-2.8,3.79-4.51,3.62-5.95-.18-1.5-2.44-2.75-3.78-4.11-1.4,1.45-3.66,2.77-3.92,4.41-.21,1.3,2.04,2.99,4.08,5.66ZM545.48,243.71c-2.68-1.84-4.35-3.87-5.77-3.72-1.52.17-2.81,2.41-4.2,3.75,1.38,1.4,2.66,3.75,4.18,3.91,1.43.15,3.11-1.99,5.8-3.94ZM1074.16,141.47c-2.9-1.87-4.64-3.88-6.03-3.66-1.53.24-2.74,2.53-4.09,3.93,1.51,1.23,2.9,3.18,4.56,3.44,1.24.2,2.82-1.78,5.56-3.71ZM1175.23,196.07c-2.86-1.93-4.54-3.93-5.93-3.75-1.52.19-2.78,2.41-4.15,3.74,1.4,1.34,2.66,3.53,4.22,3.76,1.35.2,3.03-1.83,5.86-3.75ZM1248.01,130.33c-1.85,2.81-3.89,4.54-3.69,5.96.2,1.46,2.59,3.59,4.03,3.59,1.3,0,3.54-2.42,3.63-3.88.09-1.45-2-3.02-3.97-5.68ZM1297.94,231.86c-2.03,2.54-4.29,4.16-4.16,5.55.14,1.47,2.49,3.69,4,3.8,1.31.1,3.8-2.2,3.94-3.62.14-1.45-1.94-3.12-3.77-5.73ZM1247.69,237.1c-2.85-1.86-4.48-3.73-6.09-3.71-1.31.01-3.83,2.54-3.63,3.51.33,1.63,2.27,3.89,3.75,4.06,1.45.17,3.17-1.93,5.97-3.86ZM927.31,124.03c-2.88-1.86-4.61-3.86-5.96-3.63-1.57.27-2.8,2.5-4.18,3.88,1.45,1.28,2.8,3.39,4.38,3.58,1.36.16,2.98-1.87,5.76-3.83ZM1400.83,182.82c-2.94-1.87-4.67-3.83-6.12-3.64-1.42.18-3.39,2.48-3.54,4-.1,1.12,2.34,3.45,3.67,3.47,1.56.02,3.14-1.89,5.98-3.82ZM901.25,178.12c-3-1.84-4.76-3.77-6.14-3.53-1.53.26-2.72,2.51-4.06,3.89,1.46,1.27,2.82,3.36,4.4,3.55,1.35.16,2.96-1.88,5.8-3.9ZM873.92,173.34c-2.93-1.77-4.71-3.71-6.13-3.47-1.47.25-2.58,2.61-3.85,4.05,1.52,1.16,2.95,3.07,4.57,3.25,1.27.14,2.78-1.86,5.41-3.83ZM1246.44,325.09c-2.72-2.11-4.32-4.29-5.71-4.17-1.54.13-2.89,2.38-4.32,3.71,1.25,1.34,2.41,3.62,3.79,3.76,1.54.16,3.28-1.62,6.24-3.3ZM1041.82,226.63c1.69-2.59,3.65-4.31,3.36-5.49-.38-1.58-2.55-3.84-3.86-3.78-1.42.07-3.73,2.41-3.81,3.86-.08,1.4,2.2,2.92,4.3,5.41ZM1363.86,158.66c1.95-2.42,4.13-4,3.92-5.13-.3-1.61-2.16-3.61-3.73-4.04-.97-.26-3.69,2.05-3.74,3.29-.07,1.54,1.8,3.16,3.56,5.88ZM905.5,120.88c1.7-2.88,3.6-4.66,3.36-6.09-.23-1.43-2.69-3.59-3.99-3.46-1.41.13-3.56,2.49-3.61,3.95-.05,1.44,2.11,2.95,4.24,5.6ZM1317.18,273c1.9-2.8,3.78-4.35,3.74-5.86-.03-1.35-2.38-3.87-3.32-3.7-1.64.29-3.92,2.08-4.18,3.56-.24,1.35,1.83,3.11,3.76,6.01ZM886.88,124.18c1.68-2.71,3.69-4.53,3.41-5.86-.32-1.48-2.8-3.56-4.19-3.45-1.42.1-3.68,2.52-3.71,3.97-.03,1.41,2.29,2.87,4.5,5.35ZM1285.91,266.16c-1.91,2.75-4,4.44-3.81,5.82.2,1.5,2.51,3.71,3.94,3.75,1.32.03,3.65-2.32,3.79-3.79.13-1.42-1.95-3.05-3.92-5.78ZM673.27,288.28c1.75-2.43,3.8-4.05,3.57-5.24-.3-1.56-2.34-3.76-3.74-3.84-1.3-.08-3.8,2.24-3.84,3.55-.04,1.49,2.07,3.04,4.01,5.54ZM1281.13,169.21c-1.96,2.93-3.88,4.55-3.81,6.08.05,1.29,2.39,3.41,3.77,3.45,1.29.04,3.67-2.12,3.72-3.39.07-1.55-1.79-3.19-3.68-6.15ZM957.41,223.09c-2.12,2.89-4.23,4.52-4.14,6.02.08,1.42,2.32,3.48,3.89,3.78,1.04.2,3.54-2.14,3.64-3.48.12-1.57-1.65-3.28-3.39-6.32ZM896.82,232.15c-2.52-1.88-4.15-3.98-5.33-3.75-1.62.32-2.91,2.39-4.33,3.71,1.44,1.33,2.73,3.38,4.38,3.74,1.14.25,2.78-1.85,5.28-3.7ZM1195.37,244.11c-3.08-1.78-4.77-3.55-6.29-3.41-1.36.13-2.54,2.34-3.79,3.64,1.5,1.24,2.88,3.16,4.56,3.49,1.15.23,2.74-1.75,5.52-3.72ZM1267.62,157.13c-2.72-1.96-4.35-4.03-5.77-3.89-1.47.14-3.48,2.26-3.83,3.82-.22.98,2.17,3.54,3.46,3.59,1.59.06,3.25-1.75,6.14-3.52ZM1347.63,214.49c-2.05,2.75-4.01,4.25-4.08,5.83-.06,1.2,2.22,3.4,3.6,3.51,1.26.1,3.71-1.94,3.79-3.15.1-1.57-1.63-3.27-3.3-6.19ZM254.51,150.55c1.66-2.66,3.62-4.46,3.29-5.59-.46-1.57-2.51-3.35-4.14-3.65-.96-.18-3.5,2.45-3.38,3.61.17,1.62,2.16,3.05,4.23,5.64ZM1334.62,174.16c-2.42-1.93-3.94-4.06-5.18-3.91-1.6.19-2.98,2.21-4.46,3.45,1.34,1.39,2.51,3.56,4.08,3.91,1.22.27,2.95-1.73,5.56-3.45ZM736.29,224.14c-2.44-1.76-4.08-3.82-5.28-3.59-1.58.3-2.82,2.41-4.2,3.74,1.42,1.27,2.73,3.32,4.31,3.56,1.22.19,2.78-1.89,5.17-3.71ZM810.26,218.05c-3.03-1.67-4.73-3.38-6.25-3.23-1.39.14-2.59,2.28-3.88,3.54,1.58,1.3,3.02,3.22,4.81,3.66,1.03.25,2.65-1.88,5.32-3.96ZM1192.85,201.48c-1.73,2.63-3.66,4.29-3.43,5.55.26,1.42,2.47,3.42,3.83,3.42,1.24,0,3.35-2.28,3.45-3.68.1-1.31-1.92-2.79-3.85-5.28ZM1205.35,136.99c-2.07,2.76-4.23,4.41-4.06,5.74.2,1.5,2.36,3.43,3.98,3.79.96.21,3.45-2.16,3.56-3.51.12-1.5-1.7-3.14-3.48-6.03ZM696.43,266.65c-1.57,2.55-3.54,4.41-3.18,5.47.53,1.56,2.73,2.55,4.22,3.79,1.12-1.41,3.15-2.84,3.12-4.22-.04-1.39-2.13-2.72-4.16-5.04ZM1446.44,161.13c-2.97-1.67-4.7-3.41-6.28-3.28-1.35.11-2.52,2.36-3.77,3.67,1.52,1.24,2.93,3.22,4.6,3.49,1.21.19,2.78-1.88,5.44-3.88ZM561.28,222.28c-2.75-1.84-4.32-3.71-5.62-3.54-1.51.2-2.78,2.19-4.15,3.41,1.39,1.33,2.61,3.37,4.22,3.74,1.15.26,2.81-1.73,5.55-3.61ZM870.35,202.64c-1.76,2.52-3.89,4.35-3.56,5.38.52,1.58,2.72,2.62,4.2,3.89,1.15-1.36,3.17-2.71,3.19-4.08.02-1.38-1.96-2.79-3.84-5.18ZM1194.62,116.25c-2.56-1.86-4.07-3.82-5.43-3.72-1.43.11-2.72,2.18-4.07,3.39,1.26,1.32,2.38,3.49,3.81,3.7,1.33.2,2.98-1.66,5.69-3.38ZM1464.29,130.63c-1.98,2.7-3.91,4.2-3.99,5.79-.06,1.21,2.19,3.46,3.51,3.53,1.32.08,3.82-1.92,3.88-3.1.08-1.6-1.68-3.29-3.4-6.22ZM704.67,221.34c-2,2.42-4.28,4.12-4,5.05.48,1.61,2.38,3.28,4.05,3.84.71.24,3.16-2.17,3.31-3.54.14-1.31-1.68-2.83-3.36-5.35ZM682.2,233.23c-2.94-1.65-4.6-3.35-5.96-3.13-1.49.23-2.71,2.23-4.04,3.46,1.5,1.27,2.87,3.25,4.55,3.57,1.15.22,2.75-1.86,5.45-3.9ZM560.96,272.34c-2.51-1.97-4.14-4.14-5.23-3.89-1.63.37-2.89,2.42-4.31,3.76,1.32,1.26,2.53,3.3,4.01,3.53,1.28.2,2.88-1.67,5.52-3.4ZM556.08,148.96c-2.57-2.07-4.06-4.15-5.24-3.99-1.66.23-3.09,2.12-4.61,3.3,1.35,1.35,2.52,3.39,4.12,3.81,1.18.31,2.91-1.49,5.73-3.12ZM701.84,121.27c-1.81,2.74-3.73,4.38-3.52,5.65.24,1.39,2.33,3.09,3.86,3.39.89.18,3.2-2.13,3.19-3.31,0-1.49-1.72-2.97-3.54-5.73ZM356.48,163.22c-2.49-1.8-3.98-3.72-5.26-3.59-1.51.16-2.83,2.08-4.24,3.24,1.34,1.38,2.49,3.51,4.07,3.89,1.15.28,2.85-1.76,5.43-3.54ZM1094.89,124.89c-1.73,2.43-3.72,4.03-3.52,5.26.23,1.37,2.48,3.36,3.8,3.33,1.29-.03,3.4-2.2,3.53-3.58.11-1.26-1.95-2.71-3.82-5.01ZM405.06,284.86c-2.76-1.85-4.37-3.76-5.66-3.57-1.45.21-2.62,2.33-3.92,3.61,1.32,1.26,2.53,3.33,4.01,3.55,1.27.19,2.86-1.73,5.57-3.59ZM1229.33,210.73c-2.86-1.9-4.51-3.83-5.66-3.56-1.65.38-2.93,2.36-4.37,3.65,1.38,1.19,2.67,3.14,4.18,3.35,1.32.18,2.91-1.61,5.84-3.44ZM417.24,151.35c-2.44-1.96-3.88-4-5.15-3.89-1.41.12-3.64,2.12-3.71,3.41-.08,1.27,1.94,3.5,3.33,3.76,1.25.24,2.9-1.62,5.53-3.28ZM1058.91,196.38c-1.81,2.51-3.81,4.09-3.61,5.33.21,1.35,2.44,3.29,3.8,3.29,1.29,0,3.52-2.07,3.63-3.38.11-1.3-1.9-2.77-3.81-5.25ZM758.59,230.52c-1.83,2.54-3.92,4.23-3.64,5.34.38,1.53,2.54,2.62,3.94,3.91,1.17-1.31,3.18-2.57,3.28-3.96.09-1.34-1.79-2.81-3.57-5.29ZM1149.37,159.48c-2.8-2.01-4.33-3.94-5.91-3.98-1.18-.03-3.46,2.42-3.38,3.65.09,1.36,2.16,3.36,3.63,3.63,1.27.23,2.9-1.59,5.66-3.3ZM717.55,154.32c-1.7,2.65-3.59,4.32-3.36,5.6.24,1.35,2.56,3.28,3.89,3.22,1.3-.06,3.42-2.28,3.48-3.62.06-1.33-2.01-2.75-4.01-5.19ZM226.48,280.03c1.65-2.54,3.5-4.17,3.25-5.34-.3-1.4-2.41-3.33-3.73-3.33-1.25,0-3.44,2.17-3.49,3.46-.06,1.33,1.97,2.74,3.97,5.22ZM743.16,251.26c-1.86,2.59-3.85,4.18-3.66,5.43.22,1.39,2.4,3.34,3.79,3.4,1.22.05,3.43-2.1,3.56-3.44.13-1.31-1.82-2.82-3.69-5.39ZM299.34,150.88c-2.75-2.03-4.21-3.95-5.51-3.84-1.44.11-2.74,2.07-4.11,3.22,1.22,1.3,2.28,3.36,3.71,3.66,1.27.27,2.96-1.42,5.91-3.04ZM1168.72,158.05c1.81-2.57,3.7-4.08,3.55-5.35-.17-1.43-2.4-3.84-3.35-3.67-1.56.29-3.56,2.11-3.94,3.64-.27,1.09,1.82,2.76,3.73,5.37ZM534.84,275.3c-1.76,2.72-3.67,4.39-3.44,5.65.25,1.35,2.44,3.02,3.96,3.21,1,.13,3.27-2.16,3.22-3.29-.07-1.5-1.84-2.92-3.74-5.58ZM1308.77,182.59c1.82-2.32,3.74-3.71,3.59-4.83-.2-1.5-2-2.79-3.11-4.17-1.35,1.18-3.55,2.21-3.79,3.59-.22,1.26,1.67,2.89,3.32,5.42ZM1130.91,170.95c-2.91-1.56-4.6-3.24-5.91-2.98-1.42.28-2.48,2.37-3.7,3.66,1.39,1.16,2.73,3.14,4.19,3.24,1.31.09,2.76-1.89,5.42-3.93ZM671.99,175.12c1.74-2.71,3.59-4.34,3.36-5.57-.27-1.39-2.41-3.36-3.72-3.35-1.23.01-3.3,2.19-3.43,3.56-.12,1.28,1.83,2.75,3.79,5.35ZM180.13,287.43c-2.9-1.77-4.52-3.55-5.83-3.34-1.41.22-2.54,2.3-3.8,3.56,1.35,1.21,2.59,3.18,4.08,3.38,1.26.17,2.8-1.71,5.56-3.6ZM198.1,314.66c1.58-2.71,3.31-4.36,3.08-5.66-.25-1.39-2.35-2.45-3.64-3.65-1.2,1.33-3.27,2.6-3.35,4-.08,1.32,1.92,2.76,3.91,5.31ZM151.95,245.86c1.63-2.58,3.42-4.22,3.12-5.21-.45-1.44-2.28-3.1-3.75-3.35-.9-.15-3.15,2.18-3.11,3.34.04,1.41,1.87,2.76,3.75,5.22ZM724.38,260.87c-2.59-2.06-3.99-4.04-5.35-4.01-1.4.03-2.76,2.01-4.14,3.14,1.19,1.33,2.2,3.46,3.61,3.76,1.3.28,3.02-1.39,5.88-2.9ZM616.62,179.87c1.83-2.64,3.7-4.15,3.55-5.44-.16-1.39-2.2-3.55-3.43-3.56-1.28-.01-3.44,2.03-3.63,3.39-.18,1.29,1.69,2.87,3.51,5.61ZM599.32,198.16c1.86-2.56,3.78-4.05,3.62-5.28-.18-1.39-2.21-3.54-3.44-3.54-1.3,0-3.45,1.98-3.68,3.35-.21,1.23,1.69,2.81,3.5,5.47ZM652.72,178.73c-1.87,2.31-3.87,3.73-3.72,4.86.2,1.52,2.07,2.82,3.22,4.21,1.25-1.1,3.45-2.15,3.52-3.33.1-1.49-1.53-3.1-3.02-5.74ZM638.1,151.17c-2,2.61-3.96,4.06-3.88,5.39.08,1.38,2.12,2.65,3.31,3.97,1.3-1.17,3.42-2.2,3.66-3.57.23-1.31-1.48-2.96-3.09-5.79ZM679.01,133.79c-2.71-1.73-4.34-3.59-5.62-3.37-1.4.24-3.46,2.45-3.4,3.72.06,1.28,2.28,3.29,3.71,3.43,1.28.13,2.76-1.86,5.31-3.79ZM1210.62,270.57c-2.84-1.83-4.45-3.67-5.76-3.48-1.42.2-2.56,2.3-3.83,3.57,1.21,1.14,2.38,3.15,3.64,3.21,1.47.07,3.02-1.57,5.95-3.3ZM206.51,171.41c1.81-2.3,3.78-3.75,3.59-4.81-.28-1.52-2.12-2.76-3.3-4.12-1.26,1.12-3.47,2.17-3.54,3.36-.09,1.44,1.63,2.99,3.25,5.57ZM246.38,180.23c-1.99,2.53-4.05,4.05-3.89,5.25.19,1.34,2.28,3.09,3.78,3.35.99.18,3.31-1.89,3.37-3.04.08-1.4-1.59-2.9-3.27-5.57ZM353.15,331.14c-1.88,2.58-3.93,4.23-3.67,5.32.34,1.43,2.39,3.1,3.93,3.37.97.17,3.3-2.02,3.31-3.18.02-1.42-1.74-2.86-3.57-5.51ZM373.8,315.01c-1.78,2.67-3.69,4.31-3.44,5.47.31,1.38,2.39,3.03,3.88,3.23.98.13,3.19-2.1,3.19-3.27,0-1.4-1.77-2.81-3.64-5.43ZM518.09,253.31c-2.04,2.64-4.04,4.11-3.93,5.41.11,1.39,2.03,3.22,3.52,3.67.8.24,3.2-1.91,3.34-3.16.16-1.41-1.39-3.02-2.93-5.93ZM228.89,198.46c-1.57,2.47-3.26,3.98-3.19,5.4.06,1.13,2.51,3.21,3.45,2.99,1.41-.33,3.13-2.19,3.39-3.64.19-1.03-1.8-2.46-3.66-4.75ZM825.99,175.77c1.89-2.33,3.9-3.79,3.69-4.79-.31-1.49-2-3.31-3.46-3.72-.89-.25-3.45,1.84-3.48,2.92-.04,1.48,1.62,2.99,3.24,5.59ZM442.99,143.67c-2.88-1.83-4.49-3.66-5.77-3.46-1.41.23-2.52,2.33-3.76,3.62,1.23,1.11,2.41,3.05,3.69,3.11,1.43.07,2.95-1.55,5.85-3.27ZM1186.12,145.62c-1.76,2.31-3.7,3.81-3.48,4.82.33,1.44,2.09,3.18,3.53,3.52.9.21,3.33-1.95,3.31-3.01-.02-1.46-1.72-2.89-3.37-5.33ZM764.17,178.61c2.27,1.97,3.66,4.03,4.71,3.87,1.5-.23,3.36-1.86,3.88-3.32.28-.79-1.79-3.38-2.96-3.49-1.43-.14-3.02,1.48-5.62,2.95ZM423.71,257.76c-2.29-1.59-3.84-3.46-4.92-3.23-1.45.32-2.54,2.27-3.79,3.52,1.36,1.15,2.61,2.97,4.12,3.22,1.06.17,2.47-1.8,4.59-3.51ZM281.84,190.15c-2.42-1.54-3.86-3.2-5.06-3.04-1.35.18-2.47,2-3.7,3.1,1.29,1.22,2.44,3.1,3.93,3.43,1.01.23,2.5-1.72,4.83-3.5ZM409.42,187.47c-2.88-1.73-4.4-3.36-5.81-3.28-1.24.07-3.5,2.36-3.3,3.14.38,1.48,2.09,3.4,3.48,3.62,1.25.2,2.83-1.64,5.63-3.48ZM211.11,224.26c-2.57-2.04-3.89-3.9-5.29-3.97-1.24-.06-2.58,1.89-3.87,2.95,1.17,1.32,2.13,3.26,3.57,3.74,1.05.35,2.74-1.25,5.59-2.72ZM165.52,267.28c1.84-2.32,3.79-3.72,3.62-4.8-.22-1.48-2.05-2.72-3.19-4.07-1.27,1.1-3.46,2.12-3.57,3.32-.13,1.4,1.57,2.96,3.14,5.55ZM201.88,274.47c-.61-.03-1.23-.07-1.84-.1-1,1.45-2.76,2.91-2.75,4.35,0,1.17,2.07,3.13,3.36,3.25,1.12.11,3.32-1.79,3.44-2.95.14-1.43-1.4-3.03-2.21-4.55ZM317.22,201.36c-1.68,2.5-3.44,3.98-3.39,5.41.04,1.15,2.46,3.27,3.48,3.08,1.42-.27,3.21-2.13,3.52-3.59.22-1.02-1.76-2.52-3.61-4.89ZM245.27,313.34c1.54-2.11,3.34-3.51,3.22-4.71-.13-1.28-2.35-3.49-3.2-3.29-1.48.34-3.28,2.06-3.62,3.51-.22.96,1.88,2.46,3.6,4.5ZM445.64,248.98c-2.35-1.59-3.78-3.31-5.04-3.2-1.28.11-2.4,2.04-3.59,3.17,1.27,1.25,2.39,3.18,3.87,3.52,1.01.23,2.53-1.76,4.76-3.48ZM275.97,329.49c-2.81-1.58-4.39-3.18-5.83-3.07-1.2.1-2.23,2.22-3.33,3.44,1.34,1.1,2.59,2.87,4.05,3.08,1.14.16,2.55-1.63,5.11-3.45ZM202.76,253.18c-2.75-1.49-4.36-3.07-5.8-2.93-1.24.12-2.28,2.21-3.41,3.43,1.4,1.12,2.69,2.92,4.22,3.15,1.11.17,2.53-1.75,4.99-3.65ZM851.03,168.07c-2.33-1.81-3.85-3.81-4.84-3.58-1.49.35-2.61,2.27-3.89,3.52,1.22,1.08,2.36,2.87,3.69,3.02,1.22.14,2.65-1.47,5.04-2.97ZM278.15,345.71c-1.76,2.21-3.66,3.56-3.58,4.79.08,1.25,2,3.15,3.3,3.3,1.02.12,3.13-1.86,3.26-3.08.14-1.26-1.52-2.71-2.98-5.01ZM401.03,341.52c-1.95,2.29-3.98,3.68-3.82,4.73.22,1.47,1.88,3.28,3.32,3.78.79.27,3.33-1.79,3.42-2.93.11-1.44-1.47-3-2.92-5.58ZM588.43,244.34c1.58-2.4,3.31-3.88,3.17-5.15-.14-1.23-2.21-3.13-3.4-3.11-1.15.02-3.07,2.08-3.15,3.33-.08,1.26,1.71,2.63,3.38,4.92ZM469.74,243.72c-2.61-1.67-4.09-3.34-5.54-3.32-1.08.01-3.04,2.27-2.96,3.41.08,1.19,2.04,3.01,3.34,3.16,1.21.14,2.63-1.55,5.16-3.25ZM1444.64,108.85c1.68-2.26,3.46-3.61,3.35-4.78-.13-1.34-1.94-2.52-3.03-3.77-1.31,1.21-3.24,2.23-3.69,3.71-.28.92,1.67,2.52,3.37,4.84ZM75.03,129.97c-1.58,3.04-3.1,4.65-2.92,6.03.15,1.17,2.34,2.96,3.51,2.87,1.21-.09,3.17-2.12,3.17-3.29,0-1.4-1.75-2.8-3.75-5.61ZM500.54,269.24c-2.15-1.86-3.56-3.94-4.59-3.77-1.47.25-2.67,2.14-3.99,3.33,1.15,1.18,2.19,3.12,3.5,3.33,1.21.19,2.72-1.46,5.09-2.9ZM1426.55,181.86c-2.12-1.75-3.53-3.74-4.57-3.56-1.5.26-2.73,2.08-4.08,3.24,1.25,1.21,2.36,3.1,3.81,3.42,1.07.24,2.59-1.57,4.84-3.09ZM116,135.22c-1.81,2.15-3.85,3.59-3.64,4.54.32,1.48,2.16,2.63,3.36,3.92,1.15-1.14,3.05-2.17,3.23-3.45.17-1.2-1.47-2.66-2.95-5.01ZM511.69,229.42c-2.35-1.84-3.67-3.67-4.9-3.61-1.27.06-2.47,1.95-3.69,3.04,1.11,1.21,2.07,3.16,3.37,3.42,1.17.23,2.71-1.38,5.23-2.84ZM779,268.84c-2.52-1.49-4.01-3.08-5.22-2.89-1.34.21-2.44,2.04-3.64,3.17,1.32,1.17,2.52,3.01,4,3.27,1.07.19,2.51-1.73,4.86-3.54ZM811.08,185.16c1.42-2.45,3.04-4,2.8-5.19-.25-1.24-2.31-2.99-3.5-2.93-1.13.05-3.01,2.16-3.01,3.36,0,1.26,1.85,2.52,3.71,4.76ZM1226.8,137.38c-1.49,2.39-3.18,3.92-2.95,5.05.26,1.28,2.27,3.05,3.49,3.03,1.1-.02,2.96-2.13,3.02-3.39.06-1.19-1.78-2.48-3.56-4.69ZM331.31,341.43c-1.61,2.31-3.36,3.73-3.19,4.87.2,1.33,2.06,2.42,3.21,3.61,1.18-1.15,3.14-2.2,3.3-3.48.15-1.19-1.63-2.61-3.32-5ZM491.71,237.5c-2.4-1.6-3.87-3.35-5.04-3.17-1.29.2-2.31,2.17-3.44,3.38,1.22,1.11,2.35,2.96,3.67,3.1,1.17.13,2.54-1.65,4.82-3.31ZM375.55,214.66c-2.34-1.69-3.71-3.45-5.01-3.4-1.24.05-2.41,1.97-3.61,3.07,1.15,1.21,2.19,3.19,3.5,3.39,1.22.19,2.72-1.53,5.12-3.06ZM477.83,267.62c-1.74,2.3-3.59,3.68-3.49,4.9.1,1.28,2.01,3.24,3.26,3.34,1.09.09,3.14-1.9,3.3-3.16.16-1.23-1.54-2.7-3.07-5.08ZM418.39,312.06c-1.54,2.26-3.29,3.71-3.14,4.92.16,1.23,2.16,3.05,3.39,3.08,1.12.03,3.16-1.99,3.19-3.15.03-1.28-1.75-2.62-3.44-4.85ZM694.77,161.71c-2.26-1.5-3.58-3.06-4.9-3.05-1.17,0-2.32,1.76-3.48,2.75,1.29,1.23,2.42,2.91,3.96,3.48.74.27,2.26-1.55,4.43-3.17ZM359.08,226.11c-1.76,2.23-3.63,3.57-3.54,4.77.09,1.24,1.99,3.09,3.28,3.26,1,.13,3.09-1.82,3.23-3.01.14-1.24-1.49-2.68-2.96-5.01ZM335.09,158.19c1.48-2.33,3.12-3.78,2.97-5-.15-1.2-2.29-3.13-3.29-2.98-1.32.2-3.2,2.03-3.32,3.31-.11,1.14,1.83,2.48,3.65,4.67ZM320.99,140.57c-2.42-1.76-3.81-3.54-4.95-3.39-1.27.17-2.98,1.97-3.22,3.29-.16.91,1.8,3.01,2.94,3.11,1.26.12,2.67-1.44,5.22-3.01ZM876.59,234.75c-1.78,2.09-3.61,3.33-3.47,4.29.2,1.41,1.81,2.61,2.82,3.9,1.12-.98,3.05-1.87,3.16-2.96.14-1.32-1.25-2.8-2.51-5.23ZM459.96,279.97c-1.73-1.56-2.97-3.49-3.93-3.35-1.33.18-2.44,1.91-3.65,2.98,1.06,1.09,2.01,2.89,3.2,3.06,1.1.16,2.45-1.42,4.38-2.69ZM434.34,300.92c-2.38-1.36-3.83-2.83-5.17-2.75-1.07.06-2.03,2.03-3.04,3.15,1.26,1.04,2.42,2.7,3.81,2.92.98.16,2.27-1.63,4.4-3.32ZM555.66,192.23c1.71-2.55,3.24-3.86,3.26-5.19.02-1.05-1.82-2.95-2.85-2.96-1.16,0-3.21,1.6-3.29,2.64-.11,1.32,1.35,2.78,2.89,5.51ZM753.99,174.85c1.51-2.6,2.98-4.02,2.88-5.34-.07-1-2.19-2.65-3.28-2.57-1.17.09-3.1,1.89-3.08,2.91.02,1.3,1.68,2.57,3.48,4.99ZM727.01,120.28c-1.72,2.49-3.31,3.81-3.34,5.17-.02.98,2.02,2.76,3.18,2.79,1.09.04,3.11-1.71,3.15-2.74.06-1.32-1.45-2.71-2.99-5.23ZM322.07,258.36c.84-.49,1.68-.99,2.51-1.48.79-1.23,2.38-2.62,2.18-3.66-.23-1.2-2.04-2.09-3.16-3.12-1.1,1.22-2.87,2.32-3.13,3.7-.26,1.37,1,3.03,1.6,4.56ZM228.92,321.98c-2.44-1.53-3.8-3.04-5.12-3.01-1.13.03-2.23,1.82-3.34,2.84,1.22,1.13,2.3,2.82,3.72,3.2.92.25,2.35-1.42,4.74-3.03ZM347.75,244.7c-2.23-1.4-3.59-2.92-4.89-2.87-1.04.05-2.98,2.33-2.75,3.06.41,1.32,2.04,2.82,3.38,3.09.91.18,2.21-1.62,4.25-3.28ZM742.07,163.33c-1.97-1.49-3.18-3.11-4.33-3.07-1.16.04-2.26,1.74-3.39,2.7,1.02,1.08,1.94,2.89,3.08,3.05,1.14.15,2.49-1.36,4.63-2.68ZM123.57,243.57c-1.95-1.42-3.29-3.12-4.33-2.96-1.18.18-2.91,2.05-2.9,3.16.02,1.07,1.9,2.82,3.09,2.94,1.05.1,2.28-1.64,4.14-3.14ZM765.2,135.29c-1.93-1.48-3.03-2.94-4.25-3.06-.85-.08-2.81,1.93-2.64,2.57.33,1.23,1.67,2.67,2.88,3.03.8.24,2.11-1.27,4.01-2.54ZM751.49,128.36c-1.96-1.4-3.26-3.03-4.29-2.87-1.14.17-2.04,1.98-3.04,3.07,1.16.94,2.22,2.4,3.51,2.64.84.16,2.02-1.43,3.82-2.85ZM355.24,376.84c-2.15-1.29-3.54-2.78-4.6-2.57-1.06.21-2.29,2.06-2.45,3.32-.09.72,1.89,2.47,2.78,2.37,1.23-.14,2.31-1.59,4.27-3.12ZM301.58,198.87c-2.18-1.41-3.39-2.78-4.59-2.77-.99,0-2.93,1.92-2.76,2.48.39,1.29,1.68,2.95,2.84,3.17,1.01.19,2.35-1.41,4.51-2.87ZM440.21,291.4c1.32-1.86,2.94-3.33,2.66-3.92-.63-1.36-2.18-2.28-3.36-3.39-.86,1.04-2.47,2.15-2.38,3.09.12,1.22,1.6,2.31,3.08,4.21ZM390.39,359.85c-1.7-1.3-2.88-2.86-3.73-2.69-1.23.24-2.21,1.73-3.3,2.69,1.09,1.03,2.05,2.56,3.33,2.91.74.2,2-1.5,3.69-2.91ZM536.08,204.27c1.31-1.72,2.82-2.85,2.69-3.76-.15-1.1-1.69-2.02-2.62-3.01-1.05,1-2.61,1.86-2.96,3.07-.21.73,1.48,1.99,2.88,3.71ZM314.28,345.98c-1.36,1.79-2.86,2.91-2.76,3.86.12,1.11,1.64,2.07,2.56,3.09.98-.92,2.63-1.76,2.77-2.79.13-1-1.28-2.21-2.56-4.15ZM792.44,138.16c-1.15,1.9-2.65,3.35-2.36,4.14.44,1.18,2.13,1.9,3.29,2.81.79-1.08,2.26-2.22,2.18-3.24-.08-1.07-1.63-2.04-3.11-3.71ZM373.82,363.97c-1.46,1.99-2.86,3.06-2.84,4.11.02,1.06,1.37,2.86,2.27,2.94,1,.1,3-1.34,3.03-2.17.05-1.26-1.21-2.58-2.46-4.88ZM414.35,331.48c-2.05-1.41-3.23-2.82-4.48-2.87-.87-.04-1.82,1.77-2.74,2.75,1.08.98,2.05,2.47,3.29,2.77.82.2,2.05-1.32,3.92-2.65ZM774.78,143.39c1.43-1.87,2.96-3,2.83-3.92-.14-1.08-1.72-1.97-2.67-2.95-.96.95-2.51,1.8-2.71,2.9-.17.89,1.26,2.09,2.55,3.97ZM825.66,141.14c1.4-1.84,2.91-2.97,2.8-3.91-.13-1.08-1.7-1.99-2.64-2.98-.93.91-2.5,1.76-2.61,2.76-.11,1.02,1.22,2.2,2.44,4.13ZM850.8,249.33c-1.79-1.46-2.82-2.94-3.87-2.96-.98-.02-2.68,1.46-2.78,2.41-.1,1,1.33,3.06,2.07,3.05,1.27-.02,2.52-1.28,4.58-2.49ZM861.63,240c-1.29,1.95-2.76,3.23-2.54,4.07.31,1.19,1.87,2.06,2.89,3.07.79-1.02,2.17-2.02,2.2-3.06.03-1.07-1.27-2.16-2.55-4.09ZM362.39,367.79c-1.29,2.09-2.56,3.25-2.48,4.3.09,1.09,1.48,2.08,2.3,3.12.94-.96,2.52-1.84,2.65-2.9.13-1.06-1.18-2.3-2.48-4.52ZM807.98,266.21c-2.04-1-3.26-2.08-4.36-1.98-.85.08-1.55,1.67-2.32,2.59,1.07.78,2.09,2.04,3.24,2.18.8.09,1.78-1.37,3.44-2.79ZM1105.48,229.47c1.39-1.77,2.88-2.86,2.79-3.79-.1-1.02-1.61-2.53-2.62-2.62-.88-.08-2.59,1.44-2.7,2.39-.11.99,1.26,2.14,2.52,4.02ZM1088.56,233.09c-1.65-1.35-2.68-2.85-3.62-2.79-1.01.06-2.7,1.59-2.68,2.47.01,1.04,1.4,2.69,2.42,2.89.89.17,2.1-1.31,3.88-2.56ZM805.24,140.57c1.69,1.39,2.72,2.9,3.74,2.89.99-.01,2.72-1.56,2.74-2.47.02-.97-1.47-2.6-2.5-2.78-.95-.17-2.17,1.21-3.98,2.36Z"/>
  <path d="M1482.03,27v10c-3.41,1.24-7.31,1.81-10.12,3.86-5.33,3.89-10.55,8.19-14.9,13.13-7.66,8.72-16.95,13.47-28.43,13.24-9.47-.19-18.92-1.14-28.38-1.81-11.35-.81-20.66-5.98-28.59-13.82-3.43-3.39-6.56-7.09-9.95-10.53-8.35-8.48-18.4-11.56-30.1-9.26-11.94,2.35-19.89,10.19-26.9,19.37-5.45,7.14-10.3,14.9-16.6,21.2-13.3,13.29-28.97,9.49-35.19-8.06-3.65-10.29-10.15-17.91-19.89-22.65-22.96-11.16-45.89-10.66-67.81,2.21-9.08,5.33-17.22,12.53-25.06,19.67-10.15,9.24-20.76,11.96-33.28,5.48-5.83-3.02-11.85-4.22-18.17-1.04-3.2,1.61-5.9.73-7.32-2.74-5.75-14.08-22.17-14.8-32.44-5.37-2.45,2.25-4.82,4.65-7.53,6.55-4.76,3.33-9.66,1.87-11.7-3.55-1.03-2.75-1.38-5.81-1.71-8.77-2.32-21.04-23.87-37.73-43.65-32.93-13.56,3.3-23.98,11.1-29.15,24.86-4.64,12.36-11.5,16.82-24.65,16.95-12.11.12-21.95-4.4-29.72-13.74-7.35-8.84-16.33-14.98-28.05-16.74-18.82-2.83-35.21,5.99-42.83,23.33-1.27,2.89-2.68,5.74-4.3,8.44-12.17,20.24-46.72,23.34-60.64,1.47-2.59-4.07-5.34-8.07-8.34-11.84-14.26-17.91-39.82-22.94-58.92-11.88-9.43,5.46-14,14.33-17.72,23.97-4.38,11.33-12.81,17.74-24.81,18.85-12.36,1.14-21.59-4.6-28.01-14.79-2.73-4.33-4.4-9.31-6.87-13.83-1.81-3.32-3.63-6.88-6.3-9.46-11.07-10.69-27.72-8.95-36.35,3.82-3.33,4.93-5.69,10.52-8.55,15.78-8.14,14.98-23.21,16.56-34.15,3.57-2.79-3.31-5.25-6.9-8.1-10.15-13.81-15.8-34.22-17.19-49.36-2.63-5.91,5.68-10.52,12.83-15.14,19.7-7.99,11.89-22.66,12.6-31,.89-3.26-4.58-5.49-9.88-8.42-14.71-2.49-4.11-4.87-8.43-8.07-11.96-11.02-12.17-28.27-10.45-36.75,3.6-2.21,3.66-3.64,7.83-5.19,11.86-4.01,10.49-9.06,12.91-19.79,9.3-9.11-3.06-12.58-2.19-18.91,5.07-3.18,3.64-7.03,5.58-11.86,5.19-11.07-.87-18.83-5.97-23.26-16.64-8.11-19.52-29.23-24.35-45.32-10.78-12,10.12-14.91,9.67-22.64-3.89-4.93-8.64-12.15-14.94-21.9-15.67-12.02-.91-24.27-.54-36.28.68-10.5,1.07-17.74,7.81-21.88,17.63-1.42,3.37-2.7,6.84-4.45,10.04-2.4,4.39-6.02,6.65-11.22,4.83-8.01-2.8-15.97-2.54-24.01,0-5.55,1.76-10.23-.26-13.94-4.36-1.99-2.2-3.6-4.8-5.05-7.4-3.31-5.93-8.12-10.01-14.34-12.61-17.37-7.26-34.47-7.12-43.65,14.24-1.26,2.94-5.52,4.59-8.39,6.84,0-7.67,0-15.33,0-23,.92-1.25,2.44-2.41,2.66-3.78,1.08-6.88,5.68-10.08,11.64-12.36,18.19-6.99,34.67-3.03,48.16,11.21,4.42,4.66,9.3,9.19,14.74,12.52,9.03,5.52,14.43,4.36,21.5-3.67,7.69-8.74,17.04-14.84,27.94-18.63,11.47-3.99,22.91-8.14,34.56-11.53,5.47-1.59,11.49-2.52,17.12-2.05,12.39,1.04,21.12,8.66,27.47,18.73,4.85,7.68,10.9,10.11,19.8,8.6,24.03-4.07,46.04-.66,63.55,18.49,5.33,5.83,12.53,6.99,19.79,3.96,4.71-1.96,9.11-4.77,13.44-7.52,3.4-2.17,6.46-3.6,10.63-1.68,4.37,2.01,8.28.11,10.55-4.64,1.36-2.84,2.26-5.9,3.46-8.82,2.13-5.23,5.7-9.81,11.27-10.39,16.5-1.7,31.59,2.52,44.32,13.49,2.31,1.99,3.61,5.16,5.32,7.81,1.35,2.1,2.51,4.33,3.97,6.35,6.18,8.61,14.17,9.54,22.14,2.47,3.23-2.87,5.98-6.3,9.28-9.09,4.94-4.17,9.79-8.67,15.36-11.82,13.76-7.8,26-5.57,37.09,5.75,4.54,4.63,9.01,9.41,13.99,13.54,10.95,9.09,20.49,6.79,26.13-6.29,2.56-5.94,4.15-12.28,6.38-18.37,2.83-7.72,8.13-11.86,16.1-10.48,20.16,3.47,40.29,7.47,51.08,28.25,2.69,5.18,7.45,7.26,13.3,7.23,11.76-.06,21.5-3.45,27.4-14.66,4.07-7.73,10.31-13.73,18.36-17.05,10.27-4.23,20.65-8.66,31.41-11.1,18.72-4.26,34.44-1.11,44.51,20.36,1.69,3.61,3.65,7.14,5.89,10.43,2.71,3.97,5.48,8.03,8.89,11.37,9.32,9.14,18.66,8.78,27.96-.4,3.18-3.14,6.38-6.5,10.18-8.71,4.83-2.81,8.39-6.4,10.94-11.24,1.63-3.09,3.35-6.14,5.19-9.11,3.75-6.02,9.16-10.14,16.27-10.15,10.08-.02,20.21.48,30.22,1.66,9.73,1.14,17.38,7.18,25.12,12.71,6.69,4.79,13.96,7.75,22.45,6.35,9.32-1.55,17.58-5.27,23.95-12.34,4.22-4.69,8-9.79,11.86-14.79,5.54-7.17,12.9-10.02,21.61-8.34,8.97,1.72,17.85,3.98,26.66,6.4,9.96,2.73,17.51,8.5,21.75,18.3,3.19,7.37,9.47,10.07,17.09,9.53,3.94-.28,8.12-.78,11.68-2.36,9.35-4.15,16.67-1.66,24.26,4.55,5.41,4.43,11.99,7.75,18.52,10.44,9.71,3.99,18.3,1.29,25.11-6.7,3.35-3.93,6.45-8.08,9.88-11.93,9.28-10.42,20.55-18.25,34.62-18.88,10.11-.45,20.55,1.35,30.51,3.61,19.17,4.36,36.22,11.98,47.88,29.65,8.62,13.07,28.58,10.87,36.53-2.73,1.93-3.3,3.53-6.79,5.25-10.21,6.66-13.2,18-19.02,32.83-17.44,12,1.28,22.55,6.69,33.66,10.65,8.08,2.88,16.44,5.72,24.89,6.63,14.43,1.56,27.05-4.6,38.59-12.63,15.86-11.05,33.16-19,51.37-25.16v23c-15.9-1.89-27.34,5.15-36.78,17.39-4.06,5.26-9.2,10.12-14.78,13.68-7.4,4.72-15.74,6.21-23.98.87-.78-.5-2.21,0-3.33.04.42,1.13.57,3.01,1.3,3.26,4.6,1.59,9.35,4.05,13.99,3.93,13.11-.36,22.74-7.61,29.92-18.13,8.14-11.93,18.83-18.49,33.66-17.03Z"/>
  <path d="M26.03,76c8.4-1.15,12.94-6.81,16.34-13.87,2.95-6.13,7.1-10.84,14.34-11.88,10.76-1.54,24.93,5.02,30.34,14.45,4.41,7.7,9.64,14.22,19.33,14.56,3.42.12,6.88-1.16,10.33-1.3,4.9-.2,10.03-.8,14.7.3,11.59,2.73,18.48.7,22.37-10.57,5.96-17.25,17.44-24.18,35.03-22.79,7.07.56,14.3,0,21.24,1.21,7,1.21,12.34,5.75,15.4,12.37,8.16,17.64,21.11,16.53,32.41,5.79,12.69-12.06,28.6-7.87,35.45,8.08,1.5,3.5,3.43,6.81,5.64,11.14-1.99-1.2-3.58-1.85-4.77-2.95-2.93-2.71-5.68-5.61-8.49-8.44-6.03-6.09-12.59-7.59-20.49-4.19-4.57,1.97-8.91,4.48-13.3,6.85-7.99,4.31-15.4,3.54-22.07-2.61-3.3-3.04-6.59-6.15-9.46-9.59-6.44-7.72-14.52-9.84-24.18-8.4-5.38.8-10.89.93-16.34.92-7.15-.02-12.7,2.36-15.81,9.1-1.54,3.32-2.91,6.71-4.38,10.06-4.21,9.54-9.88,13.38-20.36,12.6-7.78-.58-15.44-2.7-23.22-3.16-14.96-.89-28.29-5.46-39.91-15.05-2.13-1.76-4.85-2.94-7.48-3.91-7.35-2.73-13.98-.7-18.54,5.62-1.84,2.56-3.61,5.24-4.94,8.09-3.85,8.2-9.73,13.35-19.16,13.57v-16Z"/>
  <path d="M1439.22,71.16c11.59-3.4,19.01-12.26,27.34-20.17,4.21-4,10.25-6.06,15.47-8.99v16c-7.66,2.49-15.28,5.09-22.98,7.44-6.6,2.02-13.28,3.76-19.92,5.62l.09.11Z"/>
  <path d="M315.63,91.96c10.77,2.12,19.02-.75,25.57-8.82,1.09-1.34,3.8-1.88,5.75-1.86,2.25.02,4.51,1.03,6.75,1.67,11.83,3.35,20.12-.69,24.83-12.15,1.64-4,2.86-8.22,4.89-12,5.72-10.64,17.89-12.35,26.22-3.54,3.03,3.21,5.21,7.28,7.51,11.12,2.99,4.99,5.28,10.45,8.63,15.17,11.2,15.79,32.03,14.94,42.39-1.26,3.93-6.14,8.05-12.36,13.12-17.52,12.86-13.08,29.7-11.89,41.19,2.32,2.62,3.24,4.96,6.69,7.62,9.9,12.18,14.69,33.67,13.18,43.47-3.12,2.65-4.41,4.63-9.22,7.11-13.74,3.7-6.73,8.56-12.3,17.05-11.72,8.46.57,13.89,5.46,17.05,13.34,2.16,5.38,4.48,10.83,7.66,15.64,7.8,11.82,19.22,17.49,33.27,16.23,14.2-1.27,24.54-8.71,30.22-22.09.52-1.23,1.1-2.43,1.53-3.69,10.7-31.02,47.37-27.1,62.27-9.69,3.23,3.78,6.13,7.92,8.71,12.17,17.69,29.13,62.29,22.6,74.69-3.67.92-1.96,1.96-3.86,2.85-5.83,7.64-17.02,25.89-24.69,43.25-17.6,4.64,1.89,8.88,5.2,12.7,8.55,4.35,3.82,8.02,8.41,12.6,13.32-4.84-1.33-8.93-2.95-13.15-3.51-7.36-.97-14.85-2.07-22.21-1.7-10.95.55-19.52,6.3-27.23,14.11-7.3,7.4-14.91,15.07-23.77,20.26-23.23,13.62-49.16,7.19-64.67-14.78-2.21-3.12-4.16-6.43-6.16-9.7-6.69-10.97-16.55-16.26-29.26-15.54-12.56.71-19.97,8.17-24.77,19.43-9.14,21.46-37.12,31.79-57.75,21.23-5.03-2.57-9.3-6.88-13.41-10.91-3.06-3-5.16-6.94-7.93-10.26-8.3-9.94-18.42-9.84-26.49.21-2.71,3.37-5.06,7.04-7.83,10.36-5.22,6.23-11.23,11.32-19.6,12.91-9.44,1.8-17.62-.73-24.18-7.5-4.03-4.16-7.63-8.84-10.84-13.67-9.61-14.45-29.4-13.79-39.62-3.14-4.79,4.99-9.22,10.66-12.46,16.75-6.18,11.63-15.16,17.11-28.31,16.27-13.36-.86-23.63-6.38-29.68-18.65-1.99-4.03-3.08-8.63-5.67-12.18-2.62-3.58-6.16-7.04-10.07-8.98-5.36-2.66-11.11-.3-13.24,5.29-3.81,10-10.84,15.47-20.94,18.07-3.45.89-6.58,3.15-9.72,5.01-3.58,2.12-6.92,4.64-10.52,6.73-11.98,6.95-20.47,5.03-29.42-7.24Z"/>
  <path d="M1439.13,71.06c-21.64,8.4-52.89,5.76-71.36-12.59-3.19-3.17-6.41-6.35-9.97-9.08-11.78-9.04-26.49-6.34-34.61,6.08-4.92,7.52-9.37,15.43-15.05,22.33-9.75,11.84-22,19.87-38.04,20.15-13.57.24-23.21-6.21-28.43-18.73-.45-1.07-.97-2.14-1.26-3.26-4.38-17.29-17.06-23.68-33.29-25.01-19.73-1.61-36.5,5.72-51.52,17.88-5.05,4.09-9.99,8.32-15.2,12.2-8.68,6.47-18.17,8.27-28.8,5.28-8.3-2.33-17-3.27-25.25-5.76-4.72-1.43-9.44-4.08-13.18-7.31-6.25-5.39-9.61-5.83-16.18-.87-4.35,3.29-8.89,6.54-13.8,8.84-10.02,4.69-18.72,1.83-24.37-7.72-2.53-4.27-4.32-8.98-6.41-13.51-5.32-11.56-19.87-19.6-32.1-16.61-4.32,1.06-8.22,4.63-11.82,7.64-5.13,4.31-9.81,9.16-15.15,12.99,3.47-6.75,6.96-13.5,10.41-20.26,5.38-10.57,19.8-18.38,30.71-16.62,13.48,2.18,24.92,13.36,26.75,26.04.55,3.78.87,7.68,2.07,11.27,3.36,10.07,13.31,13.33,22.02,7.28,3.12-2.17,5.82-4.97,8.66-7.52,6.44-5.79,16.19-6.5,21.07,3.57,3.76,7.75,7.73,8.58,15.98,6.57,3.75-.91,8.06-.27,11.98.42,3.39.6,6.53,2.45,9.88,3.42,8.66,2.5,17,1.52,24.24-3.94,6.51-4.9,12.61-10.34,18.76-15.7,14.76-12.88,31.71-19.77,51.4-17.35,7.77.96,15.58,3.46,22.81,6.55,8.43,3.6,14.36,10.41,16.7,19.48,6.21,24.11,32.59,23.01,44.95,10.96,4.62-4.5,8.42-9.85,12.51-14.88,4.3-5.3,8.1-11.07,12.82-15.94,13.04-13.45,28.89-13.23,42.1,0,4.11,4.12,8.31,8.21,12.85,11.82,8.27,6.56,17.65,10.63,28.39,10.95,12.94.38,25.87.69,38.81,1.04,0,0-.09-.1-.09-.1Z"/>
  <path d="M1419.93,479.25c-1.48-1.36-2.5-2.31-3.53-3.26.9-.96,1.84-2.71,2.7-2.68,1.09.04,2.56,1.36,3.02,2.48.26.62-1.19,1.95-2.2,3.46Z"/>
  <path d="M29.48,231.79v293.67l1452.09,20.41c-1.01-125.48-2.02-250.96-3.02-376.44-33.37,11.26-57.2,25.16-72.17,35.15-44.32,29.56-59.15,56.94-118.41,107.72-18.6,15.94-34.35,27.99-43.98,35.15-26.73-1.13-54.98-3.29-84.58-6.8-57.15-6.79-108.88-17.41-154.49-29.48-42.1,5.67-84.2,11.34-126.3,17.01l-155.62,35.15-111.64-56.69-113.9,11.34-56.38,32.88c-19.29,15.79-47.81,34.72-85.7,46.49-11.97,3.72-23.34,6.24-33.83,7.94-22.93-7.94-45.86-15.87-68.79-23.81-24.81-24.19-49.62-48.38-74.43-72.57l-72.17-56.69-76.68-20.41Z"/>
  <rect x="25.32" y="215.92" width="38.17" height="309.54"/>
  <rect x="1379.91" y="180.01" width="101.67" height="365.86"/>
</svg>