<?xml version="1.0" encoding="UTF-8"?>
<svg id="Ebene_1" xmlns="http://www.w3.org/2000/svg" viewBox="0 0 481.19 598.45">
  <path d="M54.72,1.38c2.03,0,4.06,0,6.09,0-.36,6.55-.72,13.11-1.08,19.66l1.04.37c2.15-2.59,4.44-5.07,6.4-7.81.78-1.09,1.14-2.77,1.11-4.16-.06-2.69-.53-5.38-.82-8.06,5.72,0,11.44,0,17.17,0-.03,33.67-.09,67.34-.08,101,.04,71.7.18,143.41.15,215.11-.01,31.13-.37,62.26-.5,93.4-.03,7.96.27,15.91.28,23.87.07,54.34.1,108.67.14,163.01h-16.06c-.72-4.68-1.42-9.36-2.18-14.03-.53-3.25-1.62-4.19-5.25-4.48-.29,6.17-.59,12.34-.88,18.51h-6.09v-18.11c-1.19.77-2.42,1.42-3.47,2.3-.68.57-1.48,1.44-1.57,2.26-.46,4.5-.73,9.03-1.06,13.55h-13.29c-.08-2.9-.1-5.8-.23-8.7-.66-14.23-1.77-28.45-1.92-42.68-.28-26.58.15-53.16-.01-79.74-.18-29.59-.85-59.17-.98-88.76-.07-15.6.5-31.21.88-46.81.29-12.11,1.3-24.24.97-36.33-.89-32.49-1.5-64.96-1.1-97.48.61-49.57.52-99.15.7-148.73.06-15.71.02-31.43.03-47.14,4.8,0,9.6,0,14.4,0-.21,3-.46,5.99-.61,8.99-.04.83-.05,1.91.39,2.48,1.91,2.42,3.98,4.69,6.38,7.44.37-6.75.71-12.83,1.04-18.91ZM60.22,129.54c2.41-2,4.75-3.74,6.82-5.77.71-.69,1.15-2.16,1.06-3.21-.34-3.95-.94-7.87-1.46-11.81-.47-3.62-1.59-7.3-1.32-10.86.67-8.76,1.99-17.47,2.99-26.21.1-.9.13-2.21-.37-2.7-2.49-2.46-5.17-4.71-7.72-6.98v67.54ZM54.57,486.55v-37.59c-2.65,1.52-5,2.79-7.24,4.22-.5.32-.9,1.26-.89,1.91.03,8.13.1,16.27.31,24.4.03.96.78,2.18,1.54,2.79,1.88,1.51,3.97,2.73,6.27,4.27ZM55.67,399.82c-.33-12.16-.64-23.47-.97-35.54-2.26,2.1-3.81,3.75-5.56,5.12-1.74,1.37-2.3,2.98-2.13,5.23.45,5.98.67,11.99,1.07,17.98.05.79.34,1.84.88,2.28,1.93,1.59,4.02,2.98,6.72,4.93ZM53.27,60.08c-2.31.24-4.35.45-6.28.65,0,7.88-.01,15.33,0,22.78.01,5.34,2.41,8.6,7.42,10.21-.38-11.11-.76-22.21-1.15-33.65ZM61.47,401.78q5.4.62,5.42-4.24c.04-9.97.08-19.93.11-29.9,0-1.11,0-2.22,0-3.45h-5.53v37.59ZM55.8,283.72v-33.03c-3.41,2.81-6.31,5.13-9.12,7.58-.47.41-.87,1.39-.75,2,1.61,8.54,3.15,17.13,9.88,23.46ZM60.91,447.99v40.12c4.23,1.19,4.87.77,4.88-3.3.03-10.95.02-21.9-.01-32.85-.01-4.28-.18-4.38-4.87-3.97ZM61.21,202.35c2.01-.19,3.52-.34,5.09-.49,0-12.03.02-23.75-.02-35.48,0-1.49.18-3.37-2.18-3.12-1.98.21-3.4.69-3.32,3.48.27,10.37.31,20.75.43,31.12.02,1.34,0,2.67,0,4.48ZM53.83,98.34c-1.93,1.49-3.88,2.81-5.59,4.4-.8.74-1.56,1.98-1.63,3.04-.36,5.6-.53,11.22-.65,16.84-.02.86.31,2.05.9,2.55,2.04,1.72,4.26,3.19,6.98,5.18v-32.01ZM54.84,165.89c-.26-.07-.53-.14-.79-.2-1.43,2.91-3.31,5.67-4.18,8.75-1.61,5.74-2.66,11.66-3.85,17.53-.17.83-.11,2.24.37,2.61,2.62,2.03,5.41,3.82,8.44,5.9v-34.59ZM54.07,134.5c-4.59,2.75-8.89,5.24-7.74,11.87.31,1.76.11,3.73-.29,5.49-1.02,4.57.52,7.9,4.07,10.39.7.49,1.76,1.11,2.37.87.54-.21.95-1.52.99-2.36.27-5.52.45-11.04.59-16.56.08-3.14.01-6.29.01-9.7ZM60.98,568.63c1.37-.08,2.62.08,3.7-.3.72-.26,1.7-1.26,1.72-1.96.2-8.44.29-16.88.25-25.32,0-.76-1.01-1.87-1.78-2.18-1.11-.44-2.43-.3-3.88-.42v30.18ZM61.9,284.29c4.84.3,4.88.3,4.91-4.23.08-8.93.12-17.86.17-26.79,0-1.03-.09-2.06-.14-3.16-1.81-.15-3.32-.28-4.95-.41v34.59ZM54.7,567.06v-27.69c-1.67,1.06-2.95,1.97-4.31,2.7-2.32,1.25-3.2,3.09-2.98,5.86.23,2.88.03,5.79.03,8.69,0,5.84,1.49,8.03,7.26,10.43ZM54.68,331.39c-1.69,1.05-2.89,1.9-4.18,2.59-2.51,1.34-3.54,3.34-3.31,6.34.22,2.99.07,6,.08,9.01.01,4.45,2.93,8.08,7.41,9.11v-27.05ZM54.61,26c-5.38,2.42-8.58,5.8-7.39,12.14.35,1.87.1,3.86.12,5.8.04,4.65,2.66,7.75,7.27,8.59v-26.54ZM59.5,162.71c.23.15.46.3.69.45,1.49-1.89,4.87-1.26,5.11-4.77.48-7.23.92-14.47,1.21-21.71.03-.79-.89-1.97-1.65-2.37-1.16-.6-2.57-.68-4.3-1.07-.36,10.09-.71,19.78-1.06,29.47ZM60.86,54.54c.89,0,1.44-.04,1.98,0,2.82.27,3.88-.93,3.68-4-.25-3.85-.04-7.73-.04-11.6,0-4.34,0-8.67,0-13.3-2.04-.17-3.8-.32-5.63-.47v29.37ZM60.84,330.91v28.54c5.2.38,5.55.05,5.56-5.03.02-6.3.04-12.6.07-18.9.02-4.85-.51-5.32-5.63-4.61ZM53.85,290.65c-.27-.06-.54-.11-.82-.17-1.46,2.21-3.09,4.32-4.34,6.65-1.01,1.88-1.91,3.98-2.23,6.09-1.13,7.41,5.29,10.78,7.56,16.4.3-.11.59-.22.89-.33-.36-9.55-.71-19.09-1.07-28.64ZM55.29,497.6l-1.1-.15c-2.01,2.87-4.12,5.68-6.01,8.63-1.9,2.97-1.85,6.57-.48,9.41,1.82,3.77,4.65,7,7.45,11.03.08-1.29.14-1.82.14-2.36,0-8.85,0-17.71,0-26.56ZM60.93,526.62c11.82-12.82,9.19-17.37,0-28.7v28.7ZM55.1,209.42c-.24-.09-.48-.17-.72-.26-1.95,2.76-3.94,5.5-5.84,8.3-2.14,3.15-1.94,6.94-.62,9.93,1.68,3.82,4.6,7.03,7.17,10.78v-28.75ZM52.97,438.05c.25-.04.51-.09.76-.13.59-9.35,1.18-18.7,1.77-28.05-3.12,3.11-5.59,6.33-7.95,9.64-.45.63-.52,1.6-.66,2.44-1.15,6.74,2.97,11.21,6.09,16.11ZM61.16,209.75v28.79c11.1-12.26,9.96-16,0-28.79ZM60.28,290.84v28.52c2.63-2.41,4.72-4.93,6.56-7.63.69-1.01.98-2.42,1.16-3.69,1.04-7.35-4.79-11.16-7.73-17.2ZM61.11,409.69c-.4,9.23-.8,18.45-1.24,28.56,2.7-3.79,4.97-6.82,7.05-9.98.64-.97.81-2.31,1.09-3.51,1.62-6.96-4.03-10.29-6.9-15.06Z" style="fill: #ae542b;"/>
  <path d="M152.05,597.38h-19.94c.06-.87.18-1.73.18-2.6.05-68.12.1-136.23.14-204.35.02-27.17.03-54.33.04-81.5,0-16.3-.02-32.6,0-48.91.03-53.66.1-107.32.1-160.98,0-31.25-.09-62.49-.15-93.74,0-1.44-.2-2.88-.31-4.32,15.32,0,30.64,0,45.96,0,.04.87.11,1.74.11,2.61-.05,148.74-.11,297.47-.15,446.21-.01,49.19.02,98.38.04,147.57h-8.31c.18-.32.33-.66.56-.94,1.8-2.25,2.17-5.25.81-7.83-1.31-2.49-3.27-3.87-6.9-3.27v12.04h-5.54v-12.4c-2.31,1.49-3.96,2.46-5.5,3.58-3.2,2.33-3.58,5.47-1.14,8.82ZM162.11,143.97c.22.17.45.33.67.5,2.45-3.4,4.9-6.8,7.34-10.21,1.2-1.68,1.15-3.38-.02-5.07-2.06-2.96-4.1-5.94-6.2-8.87-.37-.52-1-.85-1.79-1.49v25.14ZM156.31,119.44c-.28-.14-.56-.28-.84-.41-2.78,3.95-5.41,8.01-6.66,12.9-.15.57.11,1.37.41,1.94,1.73,3.29,3.5,6.55,5.34,9.78.26.46.93.67,1.76,1.24v-25.44ZM162.52,173.15c.24.1.48.19.71.29,2.5-3.32,5.11-6.57,7.43-10.02.63-.94.92-2.75.5-3.76-1.17-2.8-2.7-5.47-4.32-8.03-.5-.79-1.73-1.06-3.05-1.81-.45,8.22-.87,15.78-1.28,23.33ZM156.31,399.19c-1.48.8-2.82,1.07-3.35,1.9-1.61,2.55-2.99,5.28-4.27,8.04-.36.76-.45,2.13-.03,2.75,2.48,3.7,5.15,7.27,7.85,11.01,0-7.08,0-13.64,0-20.19,0-.86-.09-1.72-.19-3.51ZM161.93,520.99c.22.1.44.19.65.29,2.66-3.64,5.55-7.12,7.9-10.97,1.79-2.93-3.19-11.76-6.57-12.17-.15-.02-.33.14-.69.31-.43,7.45-.86,14.99-1.29,22.54ZM163.43,3.6c-.44,7.32-.89,14.86-1.34,22.4,3.26-3.34,6.18-6.78,8.59-10.59,1.89-2.98-3.27-11.92-6.76-12.18-.07,0-.15.11-.49.37ZM156.35,381.98v-24.06c-1.08.31-2.21.27-2.52.77-1.96,3.2-3.78,6.5-5.53,9.83-.23.44.04,1.39.37,1.9,2.4,3.7,4.87,7.35,7.68,11.55ZM163.38,52.88c.22.14.45.27.67.41,2.34-3.31,4.81-6.53,6.94-9.98.53-.86.37-2.72-.17-3.7-1.73-3.18-3.77-6.17-5.75-9.2-.3-.46-.91-.71-1.69-1.29v23.75ZM162.81,550.62c.25.12.5.25.75.37,2.02-4.42,7.52-7.12,6.35-12.93-.86-4.26-2.8-8.46-6.13-11.37-.33.15-.65.31-.98.46v23.47ZM162.17,457.25c.2.1.39.21.59.31,2.34-2.92,4.79-5.76,7-8.79,2.66-3.66-1.49-13.3-5.89-13.89-.17-.02-.35.1-.66.2-.34,7.35-.68,14.76-1.03,22.17ZM157.34,53.92v-24.42c-.22-.1-.44-.19-.66-.29-1.86,2.71-3.7,5.44-5.59,8.12-1.68,2.38-1.8,4.72-.26,7.25,1.49,2.44,2.8,5.01,4.3,7.45.42.67,1.23,1.07,2.21,1.89ZM164.22,177.22c-.35.17-.7.34-1.05.52v23.5c.24.08.47.15.71.23,2.07-4.56,8.01-7.21,6.39-13.47-1.04-4.01-2.57-8.21-6.04-10.77ZM155.91,225.83c.37-.05.73-.1,1.1-.15v-21.86c-2.13,2.89-4.48,5.96-6.68,9.14-.6.87-1.25,2.23-1.01,3.11,1.08,4.05,2.99,7.6,6.6,9.76ZM157.43,553.32c-.19-.08-.38-.17-.57-.25-1.64,2.18-3.28,4.34-4.9,6.53-4.18,5.62-4.18,5.91-.34,11.77.52.8,1,1.68,1.69,2.28.78.69,1.76,1.11,3.12,1.92.35-7.85.68-15.05,1-22.25ZM162.86,111.87c4.1-.26,9.09-7.02,7.92-10.58-1.46-4.43-4.81-7.46-7.92-10.75v21.33ZM156.77,527.32c-2.66,3.82-5.06,7.19-7.34,10.64-.36.54-.52,1.65-.24,2.15,2.14,3.75,4.42,7.42,6.65,11.12.31-.11.62-.22.93-.33v-23.58ZM157.15,178.14c-2.51,3.5-4.95,6.82-7.29,10.23-.37.54-.63,1.65-.36,2.13,2.11,3.76,4.36,7.42,6.56,11.12l1.08-.35v-23.12ZM156.84,111.07c.35-.12.71-.24,1.06-.36-.4-6.7-.81-13.4-1.21-20.1-5.19.39-9.17,7.16-6.72,11.03,2.08,3.29,4.57,6.3,6.88,9.43ZM162.29,381.58c.28.17.56.33.84.5,2.22-3.14,4.46-6.25,6.61-9.44.3-.45.41-1.43.15-1.85-2.31-3.84-4.71-7.61-7.09-11.39-.17.13-.34.25-.51.38v21.81ZM162.57,400.76v22.16c.34.12.69.24,1.03.36,2.23-3.25,4.52-6.47,6.63-9.81.32-.5.04-1.77-.37-2.38-2.33-3.45-4.78-6.81-7.29-10.33ZM163.57,324.12v19.13c5.11-.47,8.12-3.45,7.4-7.65-.8-4.71-3.98-7.95-7.4-11.48ZM157.46,324.39c-4.74,1.42-7.92,5.29-7.78,9.26.11,3.2,4.47,8.17,7.78,8.9v-18.16ZM155.64,457.78c.33-.11.65-.21.98-.32.33-7.03.66-14.05,1-21.08-.25-.09-.5-.18-.75-.27-2.42,3.25-4.89,6.47-7.22,9.8-.39.56-.49,1.82-.15,2.38,1.95,3.23,4.08,6.34,6.15,9.49ZM157.69,500.06l-.77-.36c-2.31,2.96-4.66,5.9-6.91,8.91-.41.55-.84,1.64-.59,2.08,1.97,3.59,4.09,7.08,6.16,10.61.29-.13.59-.25.88-.38.41-6.96.81-13.91,1.22-20.87ZM161.91,573.44c.24.11.47.23.71.34,2.38-2.99,4.77-5.97,7.11-9,.32-.41.65-1.24.47-1.57-2.04-3.65-4.18-7.24-6.3-10.84-.32.14-.64.28-.95.42-.34,6.88-.69,13.77-1.03,20.65ZM164.25,202.94c-.41.12-.81.24-1.22.37v21.22c2.36-3.03,4.62-5.81,6.71-8.72.48-.67.87-2.04.54-2.64-1.89-3.48-4-6.84-6.04-10.23ZM164.32,299.63c1.83-1.06,3.87-1.8,5.35-3.19,2.34-2.19,2.54-5.24,1.69-8.3-.7-2.52-2.27-4.28-4.84-4.44-.7-.05-2.08,1.01-2.11,1.6-.18,4.51-.1,9.04-.1,14.33ZM157.99,238.98c-2.04,1.58-3.59,2.46-4.71,3.75-1.3,1.5-2.92,3.25-3.19,5.09-.7,4.65,2.4,7.27,7.9,7.27v-16.1ZM158.11,302.15c-4.86.32-8.33,3.18-8.24,6.55.12,4.31,3.96,8.26,8.24,8.37v-14.92ZM155.67,26.1c.33-.11.67-.21,1-.32.4-7.02.8-14.04,1.21-21.06-2.83,2.59-5.1,5.34-7.24,8.2-.51.69-1.07,2.01-.78,2.58,1.81,3.61,3.85,7.08,5.82,10.6ZM158.13,152.17c-.17-.08-.35-.16-.52-.24-1.09,1.37-2.2,2.73-3.26,4.12-5.84,7.67-5.67,5.03-.55,13.51.82,1.36,1.78,2.62,2.68,3.92.23-.12.46-.24.68-.36.32-6.99.65-13.97.97-20.96ZM164.07,254.75c5.9-2.01,8.45-6.18,7.04-10.92-1.12-3.76-3.64-5.31-7.04-4.31v15.23ZM158.08,258.1c-6.15,1.73-8.71,5.08-7.75,9.86.69,3.44,3.71,5.34,7.75,4.77v-14.63ZM164.09,302.3c0,2.76,0,5.26,0,7.76s0,5.12,0,7.67c4.48-.05,7.34-2.31,7.79-5.83.48-3.72-3.2-8.47-7.79-9.6ZM157.94,284.08c-5.29,1.69-8.36,5.71-7.78,10.02.32,2.38,4.31,4.96,7.78,4.85v-14.87ZM164.17,271.63c6.2-2.04,8.1-4.5,7.24-9.13-.44-2.35-4.28-4.71-7.24-4.34v13.47ZM157.45,70.2v-13.81c-2.73,2.43-5.15,4.15-6.96,6.41-.77.96-.88,3.53-.19,4.54,1.54,2.25,4.05,3.16,7.15,2.86ZM155.82,480.68c-2.41,1.11-4.77,1.73-6.46,3.2-.78.68-.9,3.61-.18,4.52,1.79,2.25,4.23,3.92,6.41,5.83.63-4.05.64-7.52.62-11,0-.55-.16-1.1-.39-2.55ZM162.29,85.33c4.28-.21,6.89-1.8,7.13-4.22.35-3.53-2.71-7.18-7.13-8.27v12.49ZM163.78,69.27c5.47-2.15,7.91-5.19,7.23-8.85-.42-2.26-3.95-4.14-7.23-3.8v12.65ZM156.16,476.14v-13.04c-.26-.14-.52-.29-.78-.43-1.87,2.04-4.04,3.87-5.55,6.18-1.72,2.65-.57,5.26,2.35,6.27,1.28.44,2.62.68,3.98,1.01ZM162.39,494.66c4.03.05,6.68-1.46,6.92-3.85.36-3.51-2.71-7.4-6.92-8.52v12.37ZM155.91,72.25c-1.47.21-2.57.24-3.59.55-3.34,1-4.75,3.02-3.6,6.1,1.19,3.18,4.43,4.05,7.19,6.05v-12.69ZM162.6,461.36v14.43c2.41-2.17,4.43-3.67,6.05-5.54,1.52-1.75,1-5.83-.7-6.73-1.6-.85-3.37-1.38-5.36-2.16Z" style="fill: #ae542b;"/>
  <path d="M236.57,597.2h-47.07c.04-1.06.12-2.13.12-3.19.12-50.85-1.61-101.68-.24-152.54.59-22-.61-44.04-.77-66.06-.1-13.77.34-27.55.32-41.33-.03-17.66-.3-35.32-.44-52.98-.38-51.72-1.09-103.44-1.01-155.17.05-34.83,1.24-69.65,1.88-104.48.13-6.88.09-13.76.13-20.64,14.58,0,29.17,0,43.75,0-8,13.6-15.97,27.23-24.05,40.78-1.06,1.77-.95,2.94.09,4.65,9.14,15.03,18.15,30.14,27.28,45.18.94,1.55.86,2.59-.04,4.12-8.95,15.27-17.77,30.62-26.77,45.86-1.43,2.41-1.36,4.06.1,6.44,9.03,14.76,17.89,29.63,26.74,44.51.44.73.74,2.13.37,2.73-9.26,15.29-18.6,30.52-27.96,45.74-.93,1.51-2.09,2.86-3.06,4.17,2.45,3.52,4.75,6.67,6.9,9.94,8.21,12.42,16.33,24.9,24.58,37.29,1.07,1.61.21,2.42-.47,3.51-10.21,16.36-20.42,32.72-30.31,48.57,10.83,16.97,21.65,33.93,32.31,50.62-10.18,17.57-19.98,34.56-29.87,51.49-.95,1.62-1.05,2.74-.04,4.4,9.22,15.21,18.32,30.49,27.54,45.7.92,1.52.96,2.53.04,4.1-9.19,15.68-18.25,31.45-27.44,47.13-1.04,1.78-1.04,3.04.07,4.68,1.76,2.61,3.34,5.35,4.98,8.04,7.45,12.24,14.89,24.49,22.34,36.74Z" style="fill: #ae542b;"/>
  <path d="M246.54.81c14.58,0,29.17,0,43.75,0,.54,18.33,1.38,36.66,1.54,54.99.28,31.63.25,63.26.17,94.89-.12,43.08-.45,86.17-.62,129.25-.08,19.5-.01,39,.05,58.5.03,10.77.36,21.54.27,32.3-.2,23.09-.78,46.18-.87,69.27-.13,33.86.04,67.73.06,101.59,0,18.53-.03,37.07-.05,55.6h-48.18c1.53-2.51,3.02-5.04,4.6-7.51,8.11-12.61,16.27-25.18,24.32-37.84.52-.82.73-2.51.28-3.27-9.29-15.85-18.65-31.65-28.13-47.38-1.02-1.69-.94-2.69.03-4.3,9.22-15.32,18.3-30.73,27.54-46.04,1.17-1.95,1.06-3.25-.08-5.15-10.07-16.92-20.03-33.92-29.98-50.82,9.25-17.04,20.29-32.81,31.7-48.32,1-1.36,1.43-2.33.34-4.01-9.15-14.1-18.18-28.28-27.28-42.42-1.48-2.3-3.1-4.5-4.5-6.53,10.67-15.6,21.16-30.96,31.68-46.29.8-1.17,1.31-1.97.33-3.51-9.94-15.75-19.75-31.59-29.68-47.34-1.04-1.65-.95-2.7.03-4.32,9.26-15.29,18.4-30.66,27.65-45.97.87-1.45.88-2.43,0-3.87-3.62-5.97-7.09-12.04-10.64-18.05-6.03-10.2-12.08-20.38-18.12-30.55,9.52-15.92,19.02-31.85,28.59-47.74,1.01-1.67,1.11-2.87,0-4.63-6.7-10.57-13.28-21.22-19.86-31.88-1.74-2.82-3.31-5.76-4.96-8.65Z" style="fill: #ae542b;"/>
  <path d="M22.15,597.77H0C0,398.97,0,200.17,0,1.38h21.59c-.04.58-.13,1.16-.12,1.73.48,30.28,1.27,60.56,1.36,90.84.08,24.45-.56,48.9-1.11,73.35-.4,18.04-1.82,36.09-1.64,54.12.36,35.91,1.74,71.8,2.25,107.71.37,26.2.07,52.4-.01,78.6-.05,14.65-.44,29.3-.37,43.95.08,16.59.69,33.19.72,49.78.02,10.95-.82,21.91-.82,32.86,0,14.46.5,28.91.64,43.37.06,6.69-.22,13.39-.35,20.08Z" style="fill: #ae542b;"/>
  <path d="M104.08,597.77c-1.19-1.33-2.38-2.66-3.36-3.76,2.48-2.84,4.96-5.66,7.42-8.48,2.61,2.99,5.12,5.87,7.68,8.81-.47.69-1.4,2.06-2.32,3.43h-9.41Z" style="fill: #ae542b;"/>
  <path d="M101.87,1.38c1.26,1.07,2.52,2.14,3.83,3.25-3.96,2.53-7.85,5.01-12.14,7.76V1.38c2.77,0,5.54,0,8.31,0Z" style="fill: #ae542b;"/>
  <path d="M123.47,1.38v10.84c-4.22-2.72-8.03-5.17-12.03-7.74,1.3-1.09,2.51-2.1,3.72-3.11,2.77,0,5.54,0,8.31,0Z" style="fill: #ae542b;"/>
  <path d="M108.37,344.82c4.95,5.89,9.81,11.68,14.67,17.47-.13,3.87,1.03,8.58-.66,11.43-3.88,6.58-9.14,12.27-13.85,18.32-4.65-5.78-9.16-11.28-13.5-16.91-.85-1.1-1.28-2.7-1.54-4.14-1-5.65.68-10.23,4.71-14.25,3.59-3.58,6.65-7.75,10.17-11.92ZM108.5,387.74c4.18-5.19,8.25-10.18,12.23-15.25,1.49-1.9.94-4.08-.44-5.59-3.43-3.77-7.07-7.34-10.74-10.86-.44-.42-1.92-.42-2.32,0-3.69,3.92-7.35,7.89-10.78,12.06-1,1.21-1.66,2.99-.19,4.74,4.03,4.79,7.96,9.68,12.23,14.9Z" style="fill: #ae542b;"/>
  <path d="M93.53,354.84c0-3.37-.05-6.06.04-8.74.02-.71.34-1.54.79-2.08,4.41-5.34,8.87-10.62,13.84-16.55,1.15,1.46,2.1,2.72,3.1,3.94,3.26,3.95,6.43,8.01,9.87,11.78,1.89,2.07,2.69,4.22,2.37,7.01-.15,1.33-.03,2.7-.03,4.85-5.3-6.13-10.18-11.78-15.28-17.68-4.82,5.73-9.5,11.3-14.69,17.48Z" style="fill: #ae542b;"/>
  <path d="M94.37,62.04c4.64,4.39,9.28,8.78,14.05,13.3,4.75-4.37,9.5-8.76,14.84-13.68,0,4.87,1.29,8.87-2.88,12.07-4.21,3.23-7.9,7.21-11.94,10.97-4.83-4.52-9.52-8.86-14.13-13.3-.5-.48-.65-1.54-.68-2.34-.09-2.2-.03-4.41-.03-6.62.26-.13.51-.27.77-.4Z" style="fill: #ae542b;"/>
  <path d="M108.35,272.98c4.85-4.73,9.62-9.37,14.88-14.49.24,4.95.86,8.82-3.01,12.16-4.1,3.54-7.47,7.99-11.75,12.69-5.18-5.69-9.96-10.78-14.49-16.1-.72-.85-.34-2.76-.41-4.18-.05-1.24-.01-2.48-.01-4.69,5.27,5.21,9.98,9.87,14.79,14.61Z" style="fill: #ae542b;"/>
  <path d="M107.66,41.44c-4.5-5.11-9.19-10.07-13.39-15.44-1.09-1.4-.7-4.07-1-6.16.22-.1.44-.2.66-.3,4.78,4.3,9.56,8.61,14.58,13.12,4.85-4.41,9.62-8.74,14.66-13.32.57,3.78.39,6.6-2.41,9.31-4.05,3.92-7.53,8.51-11.25,12.82-.62,0-1.23-.02-1.85-.03Z" style="fill: #ae542b;"/>
  <path d="M107.95,290.75c5.55-6.07,10.18-11.14,15.19-16.63.6,4.48.41,7.7-2.76,10.47-4.31,3.76-8.23,8.03-11.65,11.41-4.64-4.47-9.86-9.1-14.54-14.28-1.17-1.29-.61-4.32-.85-6.55.23-.11.46-.23.69-.34,4.45,5.1,8.91,10.19,13.91,15.92Z" style="fill: #ae542b;"/>
  <path d="M107.79,441.32c-4.87-5.53-9.54-10.49-13.75-15.86-1.1-1.4-.74-4.07-1.05-6.16.25-.12.5-.23.75-.35,4.85,4.5,9.69,9,14.71,13.67,4.91-4.58,9.71-9.05,14.84-13.84.33,3.7.58,6.54-2.33,9.12-4.34,3.85-8.2,8.3-13.17,13.42Z" style="fill: #ae542b;"/>
  <path d="M93.91,518.63c4.77,4.5,9.53,8.99,14.51,13.69,4.87-4.51,9.68-8.96,14.77-13.67.5,3.51.69,6.27-2.09,8.79-4.38,3.97-8.38,8.4-13.42,13.53-4.68-5.35-9.36-10.32-13.52-15.71-1.12-1.45-.7-4.22-.98-6.38.24-.08.49-.17.73-.25Z" style="fill: #ae542b;"/>
  <path d="M108.46,229.85c4.94-4.55,9.69-8.92,14.66-13.49.76,3.93.44,6.88-2.57,9.5-4.15,3.62-7.91,7.74-12.1,11.92-4.9-5.06-9.78-9.76-14.2-14.9-1.07-1.24-.64-3.92-.91-5.93.22-.11.44-.21.66-.32,4.75,4.34,9.5,8.68,14.46,13.22Z" style="fill: #ae542b;"/>
  <path d="M108.37,91.3c4.92-4.52,9.75-8.94,14.74-13.52.81,3.76.39,6.48-2.46,8.94-4.26,3.67-8.12,7.87-12.22,11.91-4.79-4.77-9.64-9.25-14.01-14.2-1.13-1.28-.75-4.03-1.06-6.11.25-.11.5-.22.74-.33,4.72,4.4,9.43,8.79,14.27,13.31Z" style="fill: #ae542b;"/>
  <path d="M93.72,150.3v-27.71c3.97,4.44,7.93,8.88,12.1,13.55-3.52,4.12-7.64,8.94-12.1,14.16Z" style="fill: #ae542b;"/>
  <path d="M123.14,149.93c-4.35-5.08-8.4-9.8-12.33-14.38,4.1-4.36,8.13-8.66,12.33-13.13v27.51Z" style="fill: #ae542b;"/>
  <path d="M93.45,410.97v-29.41c4.11,5.21,7.67,9.73,11.48,14.55-3.76,4.86-7.43,9.62-11.48,14.86Z" style="fill: #ae542b;"/>
  <path d="M110.69,544.55c4.11-3.98,8.14-7.89,12.52-12.13v26.18c-4.32-4.85-8.38-9.4-12.52-14.05Z" style="fill: #ae542b;"/>
  <path d="M106.44,544.93c-4.35,4.37-8.52,8.55-12.75,12.8v-25.39c4.34,4.29,8.39,8.29,12.75,12.6Z" style="fill: #ae542b;"/>
  <path d="M106.67,103.25c-4.29,4.03-8.38,7.87-12.86,12.08v-25.04c4.33,4.36,8.44,8.51,12.86,12.97Z" style="fill: #ae542b;"/>
  <path d="M99.98,152.88c2.87-3.39,5.6-6.62,8.53-10.09,2.92,3.37,5.74,6.62,8.68,10-3.08,2.94-6.04,5.77-8.89,8.49-2.34-2.36-5.22-5.27-8.32-8.4Z" style="fill: #ae542b;"/>
  <path d="M123.39,382.49v27.99c-3.88-5.26-7.37-9.99-10.95-14.84,3.55-4.6,6.95-9,10.34-13.39.2.08.4.16.61.24Z" style="fill: #ae542b;"/>
  <path d="M123.09,115.55c-4.63-4.42-8.62-8.23-12.89-12.31,4.31-4.32,8.46-8.48,12.89-12.91v25.22Z" style="fill: #ae542b;"/>
  <path d="M110.44,324.31c4.2-3.44,8.15-6.67,12.69-10.39v22.93c-3.76-3.72-8.13-8.04-12.69-12.54Z" style="fill: #ae542b;"/>
  <path d="M116.66,413.28c-2.85,3.33-5.44,6.34-8.07,9.41-2.77-3.2-5.35-6.17-8.07-9.31,2.33-2.74,5.08-5.96,8.07-9.47,2.86,3.32,5.61,6.51,8.08,9.37Z" style="fill: #ae542b;"/>
  <path d="M93.67,456.43v-24.51c4.33,5.13,8.2,9.71,12.15,14.39-3.45,2.87-7.56,6.3-12.15,10.13Z" style="fill: #ae542b;"/>
  <path d="M93.79,229.94c4.49,4.43,8.7,8.58,13.15,12.97-4.33,3.41-8.56,6.74-13.15,10.36v-23.33Z" style="fill: #ae542b;"/>
  <path d="M110.2,445.31c4.37-4.27,8.51-8.33,13.01-12.73v23.52c-4.44-3.69-8.63-7.16-13.01-10.79Z" style="fill: #ae542b;"/>
  <path d="M123.08,463.64v22.7c-4.19-3.57-8.32-7.1-11.91-10.15,3.66-4.44,7.24-8.8,10.83-13.15.36.2.72.4,1.08.6Z" style="fill: #ae542b;"/>
  <path d="M116.88,119.39c-2.95,3.33-5.68,6.41-8.51,9.61-2.79-3.25-5.48-6.37-8.21-9.54,2.76-3.06,5.41-5.99,7.68-8.52,3.01,2.81,5.99,5.59,9.04,8.44Z" style="fill: #ae542b;"/>
  <path d="M106.57,475.59c-4.37,3.68-8.45,7.11-12.85,10.82v-23.83c4.6,4.66,8.63,8.73,12.85,13.01Z" style="fill: #ae542b;"/>
  <path d="M93.78,56.14v-23.07c4.41,4.43,8.58,8.62,12.99,13.05-4.19,3.23-8.3,6.4-12.99,10.02Z" style="fill: #ae542b;"/>
  <path d="M110.29,242.72c4.31-4.22,8.38-8.22,12.86-12.6v22.75c-4.33-3.42-8.46-6.68-12.86-10.15Z" style="fill: #ae542b;"/>
  <path d="M123.35,33.05v22.96c-4.47-3.46-8.63-6.67-13.03-10.07,4.34-4.29,8.44-8.35,13.03-12.89Z" style="fill: #ae542b;"/>
  <path d="M116.6,561.8c-2.81,3.01-5.43,5.82-8.1,8.67-2.68-2.88-5.35-5.75-8.15-8.76,2.6-3,5.25-6.05,8.08-9.32,2.76,3.17,5.47,6.29,8.17,9.4Z" style="fill: #ae542b;"/>
  <path d="M117.97,312.88c-3.49,2.96-6.55,5.55-9.79,8.29-2.89-2.57-5.73-5.11-8.9-7.94,3.08-2.69,6-5.24,9.14-7.98,3.09,2.47,6.13,4.89,9.55,7.63Z" style="fill: #ae542b;"/>
  <path d="M105.56,302.69c-3.52,2.74-7.47,5.82-11.73,9.13v-22.01c3.9,4.28,7.8,8.57,11.73,12.88Z" style="fill: #ae542b;"/>
  <path d="M111.26,302.39c3.96-4.41,7.79-8.67,11.92-13.27v22.04c-4.14-3.04-8.2-6.03-11.92-8.77Z" style="fill: #ae542b;"/>
  <path d="M123.15,567.26v23.04c-4.18-4.16-8.03-8-12.02-11.97,3.94-3.63,7.77-7.15,12.02-11.07Z" style="fill: #ae542b;"/>
  <path d="M93.77,567.23c4.09,3.8,7.93,7.36,12.04,11.18-3.88,3.85-7.77,7.71-12.04,11.95v-23.13Z" style="fill: #ae542b;"/>
  <path d="M123.23,187.47v21.62c-4.37-3.68-8.42-7.09-12.69-10.68,4.2-3.62,8.22-7.09,12.69-10.93Z" style="fill: #ae542b;"/>
  <path d="M93.72,209.25v-21.47c4.36,3.66,8.41,7.07,12.8,10.77-4.22,3.53-8.28,6.92-12.8,10.7Z" style="fill: #ae542b;"/>
  <path d="M100.08,59.68c2.97-2.78,5.64-5.28,8.46-7.93,2.84,2.6,5.59,5.12,8.66,7.94-2.91,2.76-5.67,5.39-8.63,8.19-2.8-2.7-5.55-5.36-8.5-8.21Z" style="fill: #ae542b;"/>
  <path d="M100.94,256.33c2.11-2.09,4.77-4.72,7.59-7.52,2.78,2.67,5.51,5.3,8.4,8.07-2.87,2.85-5.59,5.54-8.65,8.59-2.48-3.09-4.89-6.09-7.34-9.14Z" style="fill: #ae542b;"/>
  <path d="M105.43,324.15c-4.12,4.04-8.06,7.91-11.7,11.48v-21.7c4.24,3.7,7.92,6.92,11.7,10.22Z" style="fill: #ae542b;"/>
  <path d="M123.13,179.97c-4.1-3.74-7.89-7.2-11.85-10.8,3.92-3.43,7.67-6.72,11.85-10.37v21.17Z" style="fill: #ae542b;"/>
  <path d="M105.74,169.33c-3.97,3.66-7.79,7.19-11.98,11.05v-21.32c4.12,3.54,7.98,6.84,11.98,10.27Z" style="fill: #ae542b;"/>
  <path d="M100.26,212.73c2.92-2.72,5.52-5.14,8.34-7.76,2.74,2.53,5.46,5.05,8.35,7.72-2.84,2.68-5.54,5.24-8.47,8.02-2.77-2.69-5.44-5.28-8.22-7.98Z" style="fill: #ae542b;"/>
  <path d="M99.82,16.1c2.98-2.25,5.79-4.39,8.82-6.68,2.84,2.14,5.79,4.35,8.88,6.67-3.07,2.64-5.96,5.13-8.98,7.72-2.92-2.58-5.76-5.1-8.72-7.72Z" style="fill: #ae542b;"/>
  <path d="M108.24,522.8c-2.54-3.05-4.9-5.88-7.39-8.86,2.26-1.99,4.9-4.3,7.7-6.75,2.69,2.36,5.28,4.64,8.13,7.14-2.73,2.75-5.36,5.38-8.44,8.48Z" style="fill: #ae542b;"/>
  <path d="M108.39,467.65c-2.38-2.57-4.86-5.25-7.55-8.15,2.37-2.17,4.9-4.49,7.66-7.02,2.63,2.34,5.25,4.67,7.83,6.96-2.75,2.84-5.34,5.52-7.95,8.22Z" style="fill: #ae542b;"/>
  <path d="M111.41,501.44c3.96-2.77,7.69-5.38,11.78-8.24v17.34c-3.97-3.07-7.77-6-11.78-9.09Z" style="fill: #ae542b;"/>
  <path d="M108.46,191.04c-2.45-2.42-4.77-4.72-7.16-7.08,2.43-2.43,4.75-4.76,7.29-7.3,2.37,2.38,4.74,4.75,7.31,7.33-2.45,2.32-4.81,4.56-7.44,7.05Z" style="fill: #ae542b;"/>
  <path d="M105.47,501.33c-4.07,3.05-7.78,5.83-11.84,8.87v-17.22c4.01,2.83,7.78,5.49,11.84,8.35Z" style="fill: #ae542b;"/>
  <path d="M108.44,482.79c2.46,2.35,4.76,4.55,7.28,6.96-2.45,1.89-4.78,3.68-7.21,5.55-2.33-1.82-4.6-3.6-7.14-5.58,2.32-2.27,4.56-4.47,7.07-6.93Z" style="fill: #ae542b;"/>
  <path d="M239.96,486.37c-5.02-7.98-9.74-15.47-14.46-22.97-2.69-4.29-5.43-8.55-7.99-12.92-.52-.88-.81-2.56-.36-3.31,7.36-12.3,14.86-24.51,22.5-37.03.59.82,1.05,1.36,1.41,1.98,6.62,11.53,13.25,23.06,19.81,34.63.43.76.67,2.18.3,2.84-6.91,12.14-13.93,24.21-21.2,36.78ZM240.79,424.16c-4.98,8.55-9.54,16.37-14.12,24.23,4.56,7.57,9.06,15.04,13.79,22.89,3.56-5.96,6.57-11.64,10.2-16.86,3.07-4.42,3.26-8.13.24-12.69-3.61-5.46-6.59-11.38-10.11-17.57Z" style="fill: #ae542b;"/>
  <path d="M239.71,181.53c-2.89-4.6-5.68-9.02-8.47-13.44-4.53-7.19-9.12-14.35-13.54-21.61-.55-.9-.78-2.69-.3-3.5,7.05-11.71,14.24-23.33,21.4-34.96.25-.4.55-.76.99-1.36.51.67,1,1.2,1.35,1.81,6.62,11.42,13.24,22.84,19.77,34.31.4.71.43,2.11.03,2.81-6.74,11.68-13.58,23.3-20.4,34.93-.18.3-.45.55-.84,1.01ZM240.46,166.98c4.01-6.77,7.54-13.1,11.44-19.15,1.81-2.8,1.88-4.99.2-7.81-3.8-6.37-7.34-12.91-11.24-19.83-4.77,8.13-9.21,15.68-13.59,23.26-.25.43-.13,1.35.15,1.82,4.19,7.05,8.43,14.06,13.04,21.71Z" style="fill: #ae542b;"/>
  <path d="M239.89,511.61c3.79,6.51,7.33,12.51,10.78,18.56,3.41,5.99,6.78,12,10.06,18.07.42.77.64,2.17.25,2.83-6.8,11.53-13.71,23-20.6,34.47-.09.15-.27.24-.66.59-1.36-2.03-2.74-4.03-4.05-6.07-5.99-9.32-11.92-18.68-17.96-27.97-1.1-1.7-1.07-2.9.02-4.64,6.83-10.94,13.53-21.98,20.28-32.98.49-.8,1.04-1.57,1.89-2.86ZM240.89,525.46c-5.02,8.59-9.58,16.4-14.15,24.21,4.5,7.46,8.95,14.85,13.73,22.76,4.53-7.7,8.8-14.91,12.99-22.16.26-.45.18-1.37-.08-1.86-4.03-7.48-8.11-14.92-12.49-22.95Z" style="fill: #ae542b;"/>
  <path d="M239.88,281.24c-7.85-11.82-15.52-23.33-23.11-34.89-.35-.53-.4-1.73-.06-2.26,7.51-11.75,15.09-23.45,22.66-35.16.21-.32.44-.62.9-1.27,2.25,3.58,4.44,6.79,6.36,10.17,4.93,8.64,9.77,17.35,14.58,26.07.33.61.43,1.76.1,2.31-6.76,11.33-13.6,22.62-20.43,33.9-.19.31-.49.55-1,1.12ZM240.83,220.93c-4.69,8-9.15,15.55-13.48,23.18-.32.56.09,1.83.51,2.55,2.34,4.06,4.78,8.06,7.21,12.06,1.77,2.91,3.57,5.79,5.6,9.09,4.37-7.44,8.53-14.4,12.51-21.48.51-.91.42-2.69-.09-3.66-3.21-6.1-6.61-12.09-9.97-18.1-.63-1.13-1.36-2.19-2.28-3.64Z" style="fill: #ae542b;"/>
  <path d="M239.99,81.2c-5-7.89-9.75-15.37-14.5-22.85-2.66-4.19-5.38-8.35-7.9-12.63-.51-.86-.76-2.54-.3-3.27,7.2-11.49,14.54-22.89,21.86-34.3.19-.3.48-.54.96-1.07,1.3,1.96,2.58,3.7,3.66,5.57,5.76,9.93,11.48,19.87,17.15,29.86.38.67.49,1.96.13,2.59-6.88,11.93-13.85,23.8-21.06,36.11ZM240.89,19.35c-4.77,8.2-9.19,15.74-13.5,23.37-.32.57.05,1.85.46,2.55,3.54,6,7.16,11.95,10.76,17.92.56.92,1.12,1.85,1.93,3.19,4.38-7.51,8.48-14.5,12.51-21.54.37-.64.62-1.79.32-2.35-4.01-7.59-8.13-15.11-12.49-23.15Z" style="fill: #ae542b;"/>
  <path d="M239.73,380.01c-3.2-4.7-6.38-9.3-9.47-13.96-4.33-6.51-8.55-13.1-12.94-19.56-1.15-1.7-1.09-2.81.05-4.53,7.28-10.95,14.42-22.01,21.61-33.03.36-.55.77-1.08,1.31-1.83.53.65,1.07,1.14,1.41,1.75,6.42,11.41,12.84,22.83,19.18,34.29.33.59.35,1.74.01,2.3-6.75,11.32-13.58,22.59-20.4,33.86-.13.22-.38.36-.77.72ZM241.06,319.72c-4.09,6.89-7.48,13.22-11.46,19.1-2.56,3.78-2.59,6.56.04,10.33,3.83,5.47,7.01,11.45,10.76,17.7,4.5-7.67,8.76-14.89,12.94-22.15.3-.52.27-1.55-.02-2.1-3.92-7.42-7.91-14.8-12.26-22.88Z" style="fill: #ae542b;"/>
  <path d="M102.85,370.78c1.98-2.76,3.79-5.27,5.77-8.03,2.06,2.73,3.97,5.26,5.99,7.93-1.98,2.49-3.9,4.9-6.01,7.53-1.98-2.55-3.81-4.92-5.76-7.43Z" style="fill: #ae542b;"/>
  <path d="M240.65,436.5c2,3.65,3.84,6.87,5.52,10.18.31.61.21,1.71-.11,2.35-1.68,3.31-3.49,6.55-5.58,10.42-2.09-4-3.98-7.56-5.77-11.17-.19-.38.05-1.12.3-1.57,1.77-3.26,3.58-6.49,5.65-10.2Z" style="fill: #ae542b;"/>
  <path d="M240.46,155.02c-2.02-3.74-3.82-6.97-5.5-10.26-.28-.55-.26-1.53.03-2.07,1.76-3.27,3.63-6.48,5.7-10.11,2.01,3.62,3.86,6.89,5.63,10.21.23.42.25,1.2.02,1.62-1.83,3.42-3.74,6.78-5.88,10.62Z" style="fill: #ae542b;"/>
  <path d="M240.44,560.48c-2.02-3.82-3.82-7.15-5.52-10.54-.24-.48-.17-1.35.09-1.84,1.74-3.28,3.57-6.51,5.6-10.17,2.08,3.76,3.97,7.14,5.8,10.55.19.35.19,1.01,0,1.36-1.87,3.41-3.79,6.78-5.97,10.64Z" style="fill: #ae542b;"/>
  <path d="M240.57,255.83c-2.03-3.76-3.86-7.08-5.6-10.45-.25-.49-.26-1.38,0-1.86,1.83-3.44,3.75-6.83,5.79-10.5,1.97,3.61,3.82,6.93,5.58,10.3.26.5.33,1.38.09,1.85-1.81,3.43-3.72,6.81-5.86,10.66Z" style="fill: #ae542b;"/>
  <path d="M240.68,31.81c1.99,3.69,3.79,6.92,5.47,10.23.28.56.28,1.55,0,2.11-1.71,3.29-3.54,6.51-5.63,10.29-2.07-3.85-3.92-7.24-5.68-10.68-.2-.4-.09-1.15.14-1.58,1.79-3.35,3.65-6.66,5.7-10.36Z" style="fill: #ae542b;"/>
  <path d="M240.7,332.18c2,3.7,3.85,7.02,5.56,10.41.27.54.19,1.54-.11,2.1-1.75,3.27-3.61,6.46-5.73,10.2-2.04-3.85-3.91-7.33-5.71-10.84-.16-.32-.02-.94.17-1.31,1.85-3.43,3.75-6.83,5.82-10.57Z" style="fill: #ae542b;"/>
  <path d="M425.48,596.49c-2.03,0-4.06,0-6.09-.01.37-6.55.74-13.11,1.11-19.66l-1.04-.37c-2.16,2.58-4.45,5.06-6.41,7.8-.78,1.09-1.15,2.76-1.12,4.16.05,2.69.52,5.38.81,8.06-5.72,0-11.44-.02-17.17-.03.08-33.67.21-67.34.25-101,.08-71.7.06-143.41.21-215.11.06-31.13.47-62.26.65-93.4.05-7.95-.25-15.91-.24-23.87.02-54.34.08-108.67.13-163.01l16.06.03c.72,4.68,1.41,9.36,2.15,14.04.52,3.25,1.61,4.19,5.24,4.49.3-6.17.61-12.34.91-18.51h6.09c0,5.99-.02,11.97-.03,18.12,1.19-.77,2.42-1.41,3.47-2.3.68-.57,1.49-1.44,1.57-2.25.47-4.5.74-9.03,1.08-13.55l13.29.02c.07,2.9.09,5.8.22,8.7.63,14.23,1.72,28.45,1.85,42.69.24,26.58-.24,53.16-.12,79.74.13,29.59.75,59.18.83,88.76.04,15.6-.56,31.21-.95,46.81-.31,12.11-1.34,24.24-1.03,36.33.84,32.49,1.39,64.97.94,97.48-.7,49.57-.69,99.15-.95,148.73-.08,15.71-.08,31.43-.11,47.14-4.8,0-9.6-.02-14.4-.02.22-3,.47-5.99.63-8.99.04-.83.06-1.91-.38-2.48-1.9-2.42-3.98-4.69-6.37-7.45-.38,6.75-.73,12.83-1.08,18.91ZM420.2,468.31c-2.42,2-4.75,3.73-6.83,5.76-.71.69-1.15,2.16-1.06,3.21.33,3.95.93,7.88,1.44,11.81.47,3.63,1.58,7.3,1.3,10.86-.68,8.76-2.02,17.47-3.03,26.2-.1.9-.13,2.21.36,2.7,2.49,2.46,5.16,4.72,7.71,6.99.04-22.62.07-44.85.11-67.54ZM426.44,111.32c-.02,12.64-.04,24.87-.06,37.59,2.66-1.52,5-2.78,7.24-4.21.5-.32.9-1.26.9-1.91-.02-8.13-.07-16.27-.27-24.4-.02-.96-.77-2.18-1.54-2.8-1.88-1.51-3.97-2.74-6.27-4.28ZM425.19,198.04c.31,12.16.6,23.47.91,35.54,2.26-2.1,3.82-3.75,5.57-5.11,1.75-1.37,2.31-2.97,2.14-5.23-.44-5.99-.65-11.99-1.04-17.98-.05-.79-.34-1.84-.87-2.28-1.93-1.6-4.02-2.99-6.71-4.94ZM427.03,537.78c2.31-.24,4.36-.45,6.28-.64.01-7.88.04-15.33.03-22.78,0-5.34-2.39-8.61-7.41-10.22.36,11.11.72,22.22,1.09,33.65ZM419.4,196.08q-5.4-.63-5.42,4.23c-.05,9.97-.11,19.93-.16,29.9,0,1.11,0,2.22,0,3.45h5.53c.02-12.59.04-25.02.06-37.58ZM424.87,314.15c-.02,10.92-.04,21.6-.06,33.03,3.42-2.8,6.32-5.12,9.14-7.56.47-.41.87-1.39.76-2-1.59-8.54-3.12-17.13-9.84-23.47ZM420.03,149.86c.02-13.51.04-26.84.07-40.12-4.23-1.19-4.87-.77-4.89,3.29-.04,10.95-.06,21.9-.04,32.85,0,4.28.17,4.38,4.86,3.98ZM419.32,395.5c-2.01.19-3.52.33-5.1.48-.02,12.03-.06,23.75-.04,35.48,0,1.49-.18,3.37,2.17,3.12,1.98-.21,3.4-.69,3.33-3.47-.25-10.37-.27-20.75-.37-31.12-.01-1.34,0-2.67,0-4.48ZM426.54,499.52c1.93-1.49,3.88-2.8,5.6-4.39.8-.74,1.56-1.98,1.63-3.04.37-5.6.55-11.22.68-16.84.02-.86-.31-2.06-.89-2.55-2.04-1.72-4.25-3.2-6.97-5.19-.02,11.07-.04,21.46-.05,32.01ZM425.64,431.98c.26.07.53.14.79.2,1.43-2.9,3.32-5.66,4.19-8.74,1.62-5.74,2.68-11.66,3.88-17.52.17-.83.12-2.24-.37-2.62-2.62-2.04-5.4-3.83-8.43-5.91-.02,11.92-.04,23.25-.06,34.59ZM426.35,463.36c4.6-2.74,8.9-5.22,7.76-11.85-.3-1.76-.1-3.73.3-5.49,1.03-4.57-.51-7.9-4.05-10.39-.7-.49-1.76-1.12-2.37-.88-.54.21-.95,1.51-.99,2.36-.28,5.52-.47,11.04-.62,16.56-.08,3.14-.02,6.29-.03,9.7ZM420.17,29.22c-1.37.08-2.62-.09-3.7.29-.72.26-1.7,1.26-1.72,1.96-.21,8.44-.32,16.88-.29,25.32,0,.76,1,1.87,1.77,2.18,1.11.44,2.43.3,3.88.43.02-10.18.03-19.94.05-30.18ZM418.78,313.56c-4.84-.31-4.88-.31-4.92,4.22-.09,8.93-.15,17.86-.21,26.79,0,1.03.08,2.06.13,3.17,1.81.15,3.32.28,4.95.42.02-11.74.04-23.07.06-34.59ZM426.45,30.81l-.05,27.69c1.67-1.05,2.95-1.96,4.32-2.69,2.32-1.24,3.21-3.09,2.99-5.86-.22-2.88-.02-5.79-.02-8.69.01-5.84-1.48-8.03-7.25-10.45ZM426.07,266.48c1.69-1.05,2.9-1.9,4.19-2.58,2.51-1.33,3.54-3.34,3.32-6.34-.22-2.99-.06-6-.07-9.01,0-4.45-2.92-8.08-7.4-9.12l-.05,27.05ZM425.63,571.87c5.39-2.41,8.58-5.78,7.41-12.13-.35-1.87-.09-3.86-.11-5.8-.03-4.65-2.65-7.76-7.26-8.61l-.04,26.54ZM420.97,435.15c-.23-.15-.46-.3-.69-.45-1.5,1.88-4.87,1.25-5.11,4.76-.49,7.23-.95,14.47-1.25,21.71-.03.79.88,1.97,1.64,2.37,1.16.6,2.57.68,4.3,1.08.38-10.09.75-19.78,1.11-29.47ZM419.43,543.32c-.89,0-1.44.04-1.98-.01-2.82-.28-3.88.93-3.68,4,.24,3.85.03,7.73.02,11.6-.01,4.34-.02,8.67-.02,13.3,2.04.18,3.8.33,5.63.48.02-10,.03-19.54.05-29.37ZM419.91,266.94c.02-9.63.03-19.09.05-28.54-5.2-.39-5.55-.06-5.57,5.02-.03,6.3-.06,12.6-.1,18.9-.03,4.85.5,5.32,5.62,4.62ZM426.83,307.21c.27.06.54.11.82.17,1.47-2.2,3.1-4.31,4.35-6.65,1.01-1.88,1.92-3.98,2.24-6.08,1.14-7.41-5.28-10.78-7.54-16.41-.3.11-.59.22-.89.33.34,9.55.68,19.1,1.02,28.64ZM425.73,100.27l1.1.15c2.02-2.87,4.13-5.67,6.03-8.62,1.91-2.97,1.86-6.56.5-9.41-1.81-3.77-4.64-7.01-7.43-11.04-.08,1.29-.14,1.82-.14,2.36-.02,8.85-.03,17.71-.05,26.56ZM420.15,71.23c-11.84,12.8-9.22,17.36-.05,28.7.02-9.39.03-18.75.05-28.7ZM425.45,388.44c.24.09.48.17.72.26,1.95-2.76,3.95-5.49,5.85-8.29,2.14-3.15,1.95-6.94.64-9.93-1.68-3.82-4.59-7.04-7.15-10.79-.02,9.9-.03,19.33-.05,28.75ZM427.96,159.82c-.25.04-.51.09-.76.13-.61,9.35-1.21,18.7-1.82,28.04,3.12-3.11,5.6-6.32,7.97-9.62.45-.63.52-1.6.67-2.44,1.16-6.74-2.95-11.21-6.06-16.12ZM419.39,388.11c.02-9.59.03-19.02.05-28.79-11.12,12.24-9.98,15.98-.05,28.79ZM420.41,307.02c.02-10.08.03-19.3.05-28.52-2.63,2.4-4.72,4.92-6.57,7.62-.69,1.01-.99,2.41-1.17,3.68-1.06,7.35,4.77,11.16,7.7,17.22ZM419.77,188.17c.41-9.22.83-18.45,1.28-28.56-2.71,3.79-4.98,6.81-7.06,9.97-.64.97-.82,2.31-1.1,3.51-1.63,6.95,4.01,10.3,6.87,15.07Z" style="fill: #ae542b;"/>
  <path d="M328.3,2.02c6.65.01,13.29.02,19.94.03-.07.87-.19,1.73-.19,2.6-.17,68.12-.32,136.23-.48,204.35-.06,27.17-.12,54.33-.18,81.5-.03,16.3-.04,32.6-.07,48.91-.12,53.66-.28,107.32-.37,160.98-.05,31.25-.02,62.49,0,93.74,0,1.44.2,2.88.3,4.32-15.32-.03-30.64-.05-45.96-.08-.04-.87-.11-1.74-.11-2.61.3-148.74.61-297.47.9-446.21.1-49.19.14-98.38.21-147.57h8.31c-.18.33-.33.68-.56.96-1.8,2.25-2.18,5.24-.82,7.83,1.31,2.5,3.26,3.87,6.89,3.28,0-3.96.01-8,.02-12.04h5.54c0,3.88-.01,7.75-.02,12.4,2.31-1.49,3.96-2.45,5.51-3.57,3.2-2.32,3.59-5.46,1.16-8.81ZM317.48,455.41c-.22-.17-.45-.33-.67-.5-2.45,3.4-4.91,6.8-7.36,10.2-1.21,1.68-1.16,3.38.01,5.07,2.06,2.96,4.09,5.94,6.18,8.88.37.52,1,.85,1.79,1.49.01-8.74.03-16.94.04-25.14ZM323.24,479.95c.28.14.56.28.84.41,2.79-3.95,5.43-8,6.68-12.89.15-.57-.11-1.37-.4-1.94-1.73-3.29-3.49-6.56-5.32-9.79-.26-.46-.93-.68-1.76-1.24l-.04,25.44ZM317.12,426.24c-.24-.1-.48-.19-.71-.29-2.51,3.32-5.12,6.56-7.45,10.01-.64.94-.93,2.75-.51,3.75,1.17,2.81,2.69,5.48,4.3,8.04.5.79,1.73,1.07,3.05,1.82.47-8.22.89-15.77,1.32-23.33ZM323.71,200.21c1.48-.8,2.83-1.06,3.35-1.89,1.61-2.55,2.99-5.28,4.28-8.03.36-.76.45-2.13.04-2.75-2.47-3.71-5.13-7.27-7.83-11.03-.01,7.08-.03,13.64-.03,20.19,0,.86.09,1.72.18,3.51ZM318.29,78.4c-.22-.1-.44-.19-.65-.29-2.66,3.63-5.56,7.11-7.92,10.95-1.8,2.93,3.17,11.77,6.55,12.18.15.02.33-.14.69-.31.44-7.45.89-14.99,1.33-22.54ZM315.93,595.79c.45-7.32.91-14.86,1.37-22.4-3.26,3.33-6.19,6.77-8.61,10.57-1.89,2.98,3.25,11.92,6.74,12.19.07,0,.15-.11.49-.37ZM323.64,217.42l-.04,24.06c1.08-.31,2.21-.26,2.52-.77,1.96-3.2,3.79-6.49,5.54-9.82.23-.44-.04-1.39-.37-1.9-2.39-3.71-4.86-7.36-7.66-11.57ZM316.06,546.5c-.22-.14-.45-.27-.67-.41-2.35,3.3-4.82,6.52-6.95,9.97-.53.86-.37,2.72.16,3.7,1.73,3.18,3.76,6.18,5.73,9.2.3.46.91.71,1.69,1.29.01-8.23.03-15.99.04-23.75ZM317.46,48.77c-.25-.12-.5-.25-.75-.37-2.02,4.41-7.54,7.11-6.37,12.92.85,4.26,2.79,8.46,6.11,11.38.33-.15.65-.31.98-.46.01-7.82.03-15.64.04-23.47ZM317.94,142.14c-.19-.1-.39-.21-.58-.31-2.35,2.92-4.8,5.75-7.01,8.78-2.67,3.66,1.47,13.3,5.87,13.9.17.02.35-.1.66-.2.35-7.35.71-14.76,1.06-22.16ZM322.1,545.48c-.01,8.57-.03,16.5-.04,24.42.22.1.44.19.66.29,1.87-2.71,3.71-5.43,5.6-8.11,1.68-2.38,1.81-4.72.27-7.25-1.49-2.44-2.79-5.02-4.29-7.45-.41-.68-1.23-1.08-2.21-1.89ZM315.42,422.17c.35-.17.7-.34,1.05-.51.01-7.83.03-15.67.04-23.5-.24-.08-.47-.15-.71-.23-2.07,4.56-8.02,7.2-6.41,13.46,1.03,4.01,2.55,8.21,6.02,10.78ZM323.82,373.57c-.37.05-.73.1-1.1.15l-.04,21.86c2.14-2.89,4.49-5.95,6.7-9.13.6-.87,1.25-2.23,1.02-3.11-1.08-4.05-2.98-7.61-6.58-9.77ZM322.84,46.08c.19.08.38.17.57.25,1.64-2.17,3.29-4.34,4.91-6.52,4.19-5.61,4.19-5.9.36-11.77-.52-.8-1-1.68-1.69-2.29-.77-.69-1.76-1.11-3.12-1.92-.37,7.85-.7,15.05-1.04,22.24ZM316.68,487.51c-4.1.25-9.1,7-7.94,10.56,1.45,4.43,4.8,7.47,7.9,10.77.01-7.32.02-14.18.04-21.33ZM323.46,72.07c2.66-3.82,5.07-7.18,7.36-10.62.36-.54.53-1.65.24-2.15-2.13-3.76-4.41-7.43-6.63-11.13-.31.11-.62.22-.93.33l-.04,23.58ZM322.5,421.26c2.52-3.49,4.96-6.81,7.3-10.21.37-.54.63-1.65.36-2.13-2.1-3.76-4.34-7.43-6.54-11.13l-1.08.35-.04,23.12ZM322.7,488.33c-.35.12-.71.24-1.06.36.39,6.7.79,13.4,1.18,20.11,5.19-.38,9.18-7.15,6.74-11.02-2.07-3.29-4.56-6.3-6.86-9.44ZM317.7,217.8c-.28-.17-.56-.33-.84-.5-2.22,3.13-4.47,6.25-6.63,9.43-.3.45-.41,1.42-.15,1.85,2.3,3.84,4.7,7.61,7.07,11.41.17-.13.34-.25.51-.38.01-7.27.02-14.54.04-21.81ZM317.45,198.63c.01-7.67.02-14.91.04-22.16-.34-.12-.69-.24-1.03-.36-2.24,3.25-4.53,6.46-6.64,9.8-.32.5-.04,1.77.37,2.38,2.32,3.46,4.77,6.82,7.27,10.35ZM316.32,275.26c.01-6.86.02-12.99.03-19.13-5.11.46-8.12,3.43-7.41,7.64.8,4.71,3.97,7.96,7.38,11.49ZM322.43,275c4.74-1.41,7.93-5.27,7.79-9.24-.11-3.2-4.46-8.17-7.76-8.92-.01,6.03-.02,12.07-.03,18.16ZM324.47,141.62c-.33.11-.65.21-.98.32-.34,7.03-.69,14.05-1.03,21.08.25.09.5.18.75.27,2.43-3.25,4.9-6.46,7.23-9.79.39-.56.49-1.82.16-2.38-1.95-3.23-4.07-6.35-6.13-9.5ZM322.49,99.33l.77.36c2.32-2.96,4.67-5.89,6.92-8.9.41-.55.84-1.64.6-2.08-1.96-3.59-4.08-7.09-6.15-10.62-.29.13-.59.25-.88.38-.42,6.96-.84,13.91-1.26,20.87ZM318.4,25.94c-.24-.11-.47-.23-.71-.34-2.38,2.99-4.78,5.97-7.12,8.99-.32.41-.65,1.24-.47,1.57,2.04,3.65,4.17,7.24,6.28,10.85.32-.14.64-.28.95-.41.36-6.88.71-13.77,1.07-20.65ZM315.44,396.44c.41-.12.82-.24,1.22-.37.01-6.93.02-13.85.04-21.22-2.36,3.03-4.62,5.8-6.73,8.71-.49.67-.87,2.04-.55,2.64,1.88,3.49,3.99,6.84,6.02,10.24ZM315.53,299.75c-1.84,1.06-3.87,1.8-5.36,3.18-2.35,2.19-2.55,5.24-1.71,8.29.69,2.52,2.27,4.28,4.83,4.45.7.05,2.08-1,2.11-1.6.19-4.51.11-9.04.12-14.33ZM321.76,360.41c2.04-1.58,3.59-2.45,4.72-3.74,1.31-1.5,2.92-3.24,3.2-5.08.7-4.65-2.38-7.27-7.89-7.28,0,5.01-.02,10.02-.03,16.1ZM321.74,297.24c4.86-.31,8.33-3.16,8.25-6.54-.11-4.31-3.95-8.27-8.22-8.38l-.02,14.92ZM323.72,573.3c-.33.11-.67.21-1,.32-.41,7.02-.83,14.04-1.24,21.06,2.83-2.58,5.11-5.33,7.25-8.19.51-.69,1.07-2,.79-2.58-1.8-3.61-3.84-7.09-5.8-10.61ZM321.47,447.22c.17.08.35.16.52.24,1.09-1.37,2.2-2.72,3.27-4.12,5.85-7.66,5.68-5.02.58-13.51-.82-1.36-1.78-2.62-2.67-3.93-.23.12-.46.24-.69.36-.34,6.99-.67,13.97-1.01,20.96ZM315.71,344.63c-5.9,2-8.46,6.17-7.06,10.9,1.11,3.76,3.63,5.31,7.03,4.32,0-4.98.02-9.96.03-15.23ZM321.7,341.3c6.15-1.72,8.71-5.07,7.77-9.85-.68-3.44-3.7-5.35-7.74-4.78,0,4.79-.02,9.6-.02,14.63ZM315.76,297.08c0-2.76,0-5.26.01-7.76s0-5.12.01-7.67c-4.48.05-7.34,2.3-7.8,5.82-.48,3.72,3.18,8.47,7.77,9.62ZM321.89,315.31c5.29-1.68,8.37-5.69,7.79-10-.32-2.38-4.3-4.97-7.77-4.86,0,4.89-.02,9.8-.02,14.87ZM315.64,327.76c-6.2,2.03-8.11,4.49-7.26,9.12.43,2.35,4.27,4.72,7.24,4.35l.02-13.47ZM322.02,529.19c0,4.46-.01,8.58-.02,13.81,2.73-2.43,5.16-4.14,6.97-6.4.77-.96.88-3.53.2-4.54-1.53-2.25-4.04-3.17-7.14-2.88ZM324.33,118.71c2.41-1.11,4.78-1.72,6.47-3.19.78-.68.91-3.61.19-4.52-1.78-2.25-4.23-3.93-6.4-5.84-.64,4.05-.65,7.52-.64,10.99,0,.55.16,1.1.38,2.55ZM317.21,514.05c-4.28.2-6.89,1.79-7.14,4.21-.36,3.53,2.7,7.18,7.11,8.28,0-4.14.01-8.23.02-12.49ZM315.69,530.11c-5.47,2.14-7.92,5.18-7.24,8.84.41,2.26,3.94,4.14,7.22,3.81l.02-12.65ZM323.99,123.26c0,4.56-.01,8.8-.02,13.04.26.14.52.29.78.43,1.88-2.04,4.05-3.87,5.56-6.17,1.73-2.64.57-5.26-2.34-6.28-1.28-.45-2.62-.68-3.98-1.02ZM317.79,104.73c-4.03-.05-6.68,1.45-6.93,3.84-.36,3.51,2.7,7.41,6.91,8.53,0-4.09.01-8.13.02-12.37ZM323.57,527.14c1.47-.21,2.57-.24,3.59-.54,3.34-.99,4.76-3.01,3.61-6.09-1.19-3.19-4.42-4.06-7.18-6.06l-.02,12.69ZM317.52,138.03c0-4.84.02-9.19.02-14.43-2.42,2.17-4.43,3.66-6.06,5.53-1.52,1.74-1.01,5.83.69,6.73,1.6.86,3.36,1.38,5.35,2.17Z" style="fill: #ae542b;"/>
  <path d="M459.05.15l22.14.04c-.33,198.8-.66,397.59-.99,596.39-7.2-.01-14.39-.02-21.59-.04.04-.58.13-1.16.12-1.73-.43-30.28-1.16-60.56-1.21-90.84-.03-24.45.64-48.9,1.23-73.35.43-18.04,1.88-36.08,1.73-54.12-.3-35.91-1.62-71.8-2.07-107.71-.33-26.2.02-52.4.14-78.6.07-14.65.49-29.3.44-43.95-.05-16.59-.63-33.19-.64-49.78,0-10.95.86-21.91.88-32.86.03-14.46-.45-28.91-.57-43.37-.05-6.69.24-13.39.38-20.08Z" style="fill: #ae542b;"/>
  <path d="M377.11.02c1.19,1.33,2.38,2.67,3.35,3.76-2.49,2.84-4.97,5.66-7.43,8.47-2.61-3-5.11-5.88-7.66-8.82.47-.69,1.4-2.06,2.33-3.42,3.14,0,6.28.01,9.41.02Z" style="fill: #ae542b;"/>
  <path d="M378.33,596.41c-1.26-1.07-2.52-2.14-3.83-3.25,3.96-2.52,7.86-5,12.15-7.74,0,3.94-.01,7.47-.02,11-2.77,0-5.54,0-8.31-.01Z" style="fill: #ae542b;"/>
  <path d="M356.73,596.37l.02-10.84c4.22,2.72,8.02,5.18,12.01,7.76-1.31,1.09-2.52,2.09-3.72,3.1-2.77,0-5.54,0-8.31-.01Z" style="fill: #ae542b;"/>
  <path d="M372.4,252.96c-4.94-5.9-9.79-11.69-14.64-17.49.14-3.87-1.01-8.58.68-11.43,3.89-6.58,9.17-12.25,13.88-18.3,4.64,5.79,9.14,11.29,13.47,16.93.85,1.1,1.28,2.7,1.53,4.15.99,5.65-.7,10.23-4.73,14.24-3.6,3.58-6.67,7.74-10.19,11.9ZM372.35,210.04c-4.19,5.19-8.27,10.17-12.26,15.23-1.49,1.9-.95,4.08.43,5.59,3.42,3.78,7.06,7.35,10.72,10.87.44.42,1.92.43,2.32,0,3.7-3.92,7.36-7.88,10.8-12.04,1-1.21,1.67-2.99.2-4.74-4.02-4.8-7.94-9.69-12.2-14.92Z" style="fill: #ae542b;"/>
  <path d="M387.26,242.96c0,3.37.04,6.06-.05,8.74-.03.71-.34,1.54-.79,2.08-4.41,5.33-8.88,10.61-13.86,16.53-1.14-1.46-2.09-2.72-3.1-3.94-3.26-3.96-6.41-8.02-9.85-11.8-1.88-2.07-2.68-4.23-2.36-7.02.16-1.33.03-2.7.03-4.85,5.29,6.14,10.16,11.8,15.25,17.71,4.83-5.73,9.52-11.29,14.72-17.45Z" style="fill: #ae542b;"/>
  <path d="M385.93,535.76c-4.63-4.4-9.26-8.8-14.02-13.32-4.75,4.37-9.52,8.74-14.87,13.65,0-4.87-1.27-8.87,2.91-12.07,4.22-3.23,7.92-7.2,11.95-10.95,4.82,4.53,9.51,8.88,14.1,13.32.5.48.65,1.54.68,2.34.09,2.2.02,4.41.02,6.62-.26.13-.51.27-.77.4Z" style="fill: #ae542b;"/>
  <path d="M372.31,324.79c-4.86,4.72-9.64,9.35-14.9,14.46-.23-4.95-.84-8.82,3.03-12.15,4.1-3.53,7.49-7.98,11.77-12.67,5.17,5.7,9.94,10.8,14.46,16.13.72.85.34,2.76.4,4.18.05,1.24,0,2.48,0,4.69-5.26-5.22-9.97-9.88-14.76-14.64Z" style="fill: #ae542b;"/>
  <path d="M372.6,556.33c4.5,5.12,9.17,10.09,13.37,15.47,1.09,1.4.7,4.08.99,6.17-.22.1-.44.2-.66.29-4.77-4.31-9.55-8.62-14.56-13.15-4.86,4.4-9.64,8.73-14.68,13.3-.56-3.78-.38-6.6,2.43-9.31,4.06-3.92,7.54-8.5,11.27-12.8.62.01,1.23.02,1.85.03Z" style="fill: #ae542b;"/>
  <path d="M372.73,307.02c-5.56,6.06-10.2,11.13-15.22,16.61-.59-4.48-.4-7.7,2.78-10.46,4.32-3.76,8.25-8.01,11.67-11.39,4.63,4.48,9.84,9.12,14.51,14.3,1.17,1.3.61,4.32.84,6.55-.23.11-.46.23-.69.34-4.44-5.1-8.89-10.21-13.89-15.95Z" style="fill: #ae542b;"/>
  <path d="M373.15,156.46c4.86,5.54,9.53,10.51,13.73,15.89,1.1,1.41.73,4.08,1.04,6.16-.25.12-.5.23-.75.35-4.84-4.51-9.68-9.02-14.69-13.69-4.92,4.57-9.72,9.03-14.87,13.81-.33-3.7-.57-6.54,2.35-9.12,4.35-3.84,8.21-8.28,13.19-13.4Z" style="fill: #ae542b;"/>
  <path d="M387.16,79.18c-4.76-4.5-9.52-9.01-14.49-13.71-4.88,4.5-9.7,8.95-14.79,13.65-.5-3.51-.68-6.27,2.11-8.79,4.38-3.96,8.39-8.38,13.44-13.51,4.67,5.36,9.34,10.33,13.5,15.74,1.12,1.45.69,4.22.97,6.38-.24.08-.49.17-.73.25Z" style="fill: #ae542b;"/>
  <path d="M372.12,367.93c-4.95,4.54-9.7,8.91-14.68,13.47-.75-3.93-.43-6.88,2.58-9.49,4.16-3.61,7.92-7.73,12.12-11.9,4.89,5.07,9.76,9.78,14.18,14.92,1.07,1.25.64,3.92.9,5.93-.22.11-.44.21-.66.32-4.74-4.35-9.48-8.7-14.44-13.24Z" style="fill: #ae542b;"/>
  <path d="M371.98,506.48c-4.93,4.51-9.76,8.93-14.76,13.5-.8-3.76-.38-6.48,2.48-8.94,4.27-3.67,8.13-7.85,12.24-11.89,4.78,4.78,9.63,9.26,13.99,14.22,1.13,1.28.74,4.03,1.05,6.11-.25.11-.5.22-.74.32-4.71-4.41-9.42-8.81-14.25-13.33Z" style="fill: #ae542b;"/>
  <path d="M386.73,447.5c-.02,9.58-.03,18.61-.05,27.71-3.96-4.45-7.91-8.89-12.08-13.57,3.53-4.12,7.66-8.93,12.12-14.14Z" style="fill: #ae542b;"/>
  <path d="M357.31,447.82c4.34,5.08,8.39,9.82,12.31,14.4-4.1,4.36-8.14,8.64-12.35,13.11.02-9.08.03-18.06.05-27.51Z" style="fill: #ae542b;"/>
  <path d="M387.43,186.83c-.02,10.08-.03,19.31-.05,29.41-4.11-5.22-7.66-9.74-11.46-14.57,3.76-4.85,7.45-9.61,11.51-14.84Z" style="fill: #ae542b;"/>
  <path d="M370.42,53.22c-4.11,3.97-8.16,7.88-12.54,12.11.01-8.9.03-17.31.04-26.18,4.31,4.86,8.36,9.42,12.49,14.07Z" style="fill: #ae542b;"/>
  <path d="M374.67,52.85c4.36-4.37,8.53-8.54,12.77-12.78-.01,8.25-.03,16.57-.04,25.39-4.33-4.29-8.37-8.3-12.73-12.62Z" style="fill: #ae542b;"/>
  <path d="M373.7,494.53c4.3-4.02,8.4-7.86,12.88-12.06-.01,8.5-.03,16.47-.04,25.04-4.32-4.37-8.42-8.52-12.84-12.99Z" style="fill: #ae542b;"/>
  <path d="M380.48,444.91c-2.87,3.39-5.61,6.61-8.55,10.08-2.92-3.38-5.73-6.63-8.66-10.02,3.08-2.93,6.05-5.76,8.9-8.47,2.34,2.37,5.21,5.28,8.3,8.41Z" style="fill: #ae542b;"/>
  <path d="M357.45,215.26c.02-9.05.03-18.09.05-27.99,3.87,5.27,7.35,10,10.92,14.86-3.56,4.59-6.96,8.98-10.37,13.38-.2-.08-.4-.16-.61-.24Z" style="fill: #ae542b;"/>
  <path d="M357.31,482.2c4.62,4.43,8.61,8.25,12.87,12.33-4.32,4.32-8.47,8.46-12.91,12.89.01-8.39.03-16.34.04-25.22Z" style="fill: #ae542b;"/>
  <path d="M370.3,273.46c-4.21,3.44-8.16,6.66-12.71,10.37.01-8.52.03-16.22.04-22.93,3.76,3.73,8.12,8.05,12.67,12.56Z" style="fill: #ae542b;"/>
  <path d="M364.23,184.49c2.86-3.32,5.45-6.33,8.09-9.4,2.77,3.2,5.34,6.18,8.06,9.33-2.34,2.74-5.09,5.96-8.08,9.46-2.86-3.33-5.6-6.52-8.06-9.39Z" style="fill: #ae542b;"/>
  <path d="M387.29,141.37c-.01,8.31-.03,15.94-.04,24.51-4.32-5.14-8.18-9.73-12.12-14.41,3.45-2.87,7.57-6.29,12.16-10.11Z" style="fill: #ae542b;"/>
  <path d="M386.79,367.86c-4.48-4.44-8.68-8.59-13.12-12.99,4.34-3.41,8.57-6.73,13.16-10.34-.01,7.9-.03,15.29-.04,23.33Z" style="fill: #ae542b;"/>
  <path d="M370.74,152.46c-4.37,4.27-8.52,8.31-13.03,12.71l.04-23.52c4.44,3.69,8.62,7.18,12.99,10.81Z" style="fill: #ae542b;"/>
  <path d="M357.89,134.11c.01-7.42.02-14.83.04-22.7,4.19,3.58,8.31,7.11,11.89,10.17-3.67,4.44-7.26,8.79-10.85,13.14-.36-.2-.72-.4-1.08-.6Z" style="fill: #ae542b;"/>
  <path d="M363.52,478.37c2.95-3.32,5.69-6.4,8.53-9.6,2.79,3.25,5.47,6.38,8.19,9.55-2.77,3.06-5.42,5.98-7.7,8.5-3-2.81-5.98-5.6-9.02-8.46Z" style="fill: #ae542b;"/>
  <path d="M374.42,122.19c4.38-3.67,8.46-7.1,12.87-10.8-.01,7.89-.03,15.35-.04,23.83-4.6-4.67-8.61-8.74-12.83-13.03Z" style="fill: #ae542b;"/>
  <path d="M386.51,541.66c-.01,8-.03,15.3-.04,23.07-4.41-4.44-8.56-8.63-12.97-13.08,4.2-3.23,8.31-6.39,13.01-10Z" style="fill: #ae542b;"/>
  <path d="M370.31,355.06c-4.31,4.21-8.4,8.2-12.88,12.58.01-7.79.03-15.02.04-22.75,4.32,3.42,8.45,6.69,12.84,10.17Z" style="fill: #ae542b;"/>
  <path d="M356.9,564.7c.01-8.03.03-15.17.04-22.96,4.47,3.47,8.62,6.68,13.01,10.09-4.35,4.28-8.45,8.33-13.05,12.87Z" style="fill: #ae542b;"/>
  <path d="M364.54,35.96c2.82-3.01,5.44-5.81,8.11-8.66,2.67,2.88,5.34,5.75,8.13,8.77-2.61,3-5.26,6.04-8.09,9.3-2.75-3.18-5.46-6.3-8.15-9.41Z" style="fill: #ae542b;"/>
  <path d="M362.75,284.88c3.49-2.95,6.56-5.54,9.8-8.28,2.88,2.58,5.72,5.12,8.89,7.95-3.08,2.68-6.01,5.23-9.15,7.97-3.08-2.47-6.12-4.91-9.53-7.64Z" style="fill: #ae542b;"/>
  <path d="M375.15,295.09c3.52-2.73,7.48-5.8,11.74-9.11-.01,7.57-.02,14.81-.04,22.01-3.89-4.28-7.79-8.58-11.71-12.9Z" style="fill: #ae542b;"/>
  <path d="M369.44,295.38c-3.97,4.41-7.8,8.66-11.94,13.25.01-7.51.02-14.59.04-22.04,4.13,3.05,8.19,6.04,11.9,8.79Z" style="fill: #ae542b;"/>
  <path d="M357.99,30.49c.01-7.85.03-15.06.04-23.04,4.18,4.17,8.02,8.01,12,11.99-3.95,3.63-7.78,7.14-12.04,11.05Z" style="fill: #ae542b;"/>
  <path d="M387.37,30.57c-4.09-3.81-7.92-7.38-12.03-11.2,3.89-3.84,7.78-7.69,12.06-11.93-.01,7.93-.03,15.31-.04,23.13Z" style="fill: #ae542b;"/>
  <path d="M357.28,410.29c.01-7.5.02-14.31.04-21.62,4.36,3.69,8.4,7.1,12.67,10.71-4.21,3.62-8.23,7.07-12.7,10.91Z" style="fill: #ae542b;"/>
  <path d="M386.82,388.55c-.01,7.43-.02,14.22-.04,21.47-4.35-3.67-8.4-7.08-12.79-10.79,4.23-3.52,8.29-6.91,12.82-10.68Z" style="fill: #ae542b;"/>
  <path d="M380.22,538.11c-2.97,2.78-5.65,5.27-8.48,7.91-2.83-2.61-5.58-5.13-8.65-7.95,2.91-2.76,5.68-5.38,8.64-8.18,2.79,2.7,5.54,5.37,8.49,8.22Z" style="fill: #ae542b;"/>
  <path d="M379.68,341.46c-2.11,2.09-4.77,4.71-7.61,7.51-2.77-2.67-5.51-5.31-8.39-8.09,2.87-2.84,5.59-5.53,8.67-8.58,2.48,3.1,4.88,6.1,7.32,9.16Z" style="fill: #ae542b;"/>
  <path d="M375.31,273.63c4.12-4.03,8.07-7.89,11.72-11.46-.01,6.43-.02,13.61-.04,21.7-4.23-3.71-7.91-6.93-11.68-10.24Z" style="fill: #ae542b;"/>
  <path d="M357.37,417.78c4.1,3.75,7.88,7.21,11.83,10.82-3.92,3.42-7.68,6.71-11.87,10.35.01-7.3.02-13.99.04-21.17Z" style="fill: #ae542b;"/>
  <path d="M374.75,428.45c3.97-3.65,7.81-7.18,12-11.03-.01,7.31-.02,14.08-.04,21.32-4.12-3.54-7.97-6.85-11.96-10.29Z" style="fill: #ae542b;"/>
  <path d="M380.3,385.06c-2.92,2.71-5.53,5.13-8.35,7.74-2.73-2.53-5.45-5.06-8.34-7.73,2.84-2.68,5.54-5.23,8.48-8,2.77,2.7,5.43,5.29,8.21,8Z" style="fill: #ae542b;"/>
  <path d="M380.41,581.69c-2.98,2.25-5.8,4.38-8.83,6.67-2.84-2.14-5.78-4.36-8.87-6.69,3.07-2.63,5.97-5.12,8.99-7.71,2.91,2.59,5.75,5.11,8.7,7.73Z" style="fill: #ae542b;"/>
  <path d="M372.83,74.97c2.54,3.05,4.89,5.89,7.38,8.87-2.27,1.98-4.91,4.29-7.71,6.74-2.68-2.36-5.27-4.65-8.12-7.15,2.74-2.74,5.37-5.37,8.45-8.46Z" style="fill: #ae542b;"/>
  <path d="M372.58,130.12c2.37,2.57,4.86,5.26,7.53,8.16-2.37,2.17-4.9,4.48-7.67,7.01-2.63-2.34-5.25-4.68-7.82-6.97,2.75-2.84,5.35-5.52,7.96-8.2Z" style="fill: #ae542b;"/>
  <path d="M369.63,96.34c-3.96,2.77-7.7,5.37-11.79,8.23,0-5.91.02-11.41.03-17.34,3.97,3.07,7.76,6.01,11.76,9.11Z" style="fill: #ae542b;"/>
  <path d="M372.06,406.73c2.44,2.42,4.77,4.73,7.15,7.09-2.43,2.43-4.76,4.75-7.3,7.29-2.37-2.38-4.73-4.76-7.3-7.35,2.46-2.32,4.82-4.55,7.45-7.03Z" style="fill: #ae542b;"/>
  <path d="M375.57,96.45c4.07-3.04,7.79-5.82,11.85-8.85,0,5.84-.02,11.32-.03,17.22-4.01-2.84-7.77-5.5-11.83-8.37Z" style="fill: #ae542b;"/>
  <path d="M372.56,114.99c-2.46-2.35-4.75-4.56-7.27-6.97,2.46-1.88,4.78-3.67,7.22-5.54,2.33,1.83,4.6,3.61,7.13,5.59-2.32,2.27-4.57,4.46-7.08,6.92Z" style="fill: #ae542b;"/>
  <path d="M377.97,227c-1.99,2.76-3.8,5.26-5.78,8.02-2.06-2.73-3.96-5.26-5.98-7.94,1.99-2.48,3.91-4.89,6.02-7.52,1.97,2.56,3.8,4.93,5.74,7.44Z" style="fill: #ae542b;"/>
</svg>