<?xml version="1.0" encoding="UTF-8"?>
<svg id="Ebene_2" xmlns="http://www.w3.org/2000/svg" viewBox="0 0 187.4 546.66">
  <g id="Kapitel2_x5F_Illu4">
    <g>
      <path d="M14.84,481.74c-1.9-2.03-2.03-4.69-2.13-7.44-.77-22.36.05-45.15.05-45.15.12-3.29.29-7.26.14-12.35-.14-4.84-.73-9.67-.77-14.51-.07-9.04-.21-18.12.24-27.17.56-11.65.35-23.24-1.08-34.82-1.11-8.98-.97-17.95.56-26.89,1.32-7.62.77-15.24.21-22.92-.77-10.61-1.6-21.22-1.53-31.83.21-21.6,1.18-43.21,1.53-64.81.1-8.04-.77-16.11-1.18-24.18-.1-2.05-.17-4.1-.14-6.19.21-18.16.49-36.25.77-54.41.07-3.97,0-7.93.07-11.9,0-1.32-.35-1.88-1.6-2.57-6.05-3.41-8.66-8.94-8.49-15.65.17-6.05,2.82-10.78,8.45-13.43,1.18-.56,2.71-.77,4.07-.7,8.31.52,16.63,1.18,24.91,1.84,4.7.35,9.08,1.6,11.1,6.44,2.16,5.11,1.5,9.98-1.95,14.4-2.54,3.27-5.74,5.67-9.67,6.99-1.43.49-1.88,1.08-1.74,2.64.63,5.5.9,11.03,1.67,16.49,1.01,7.44.59,14.82-.21,22.19-.35,3.2-.35,6.44-.38,9.64-.14,15.76-.35,31.52-.35,47.24,0,5.77.7,11.51.73,17.29,0,8-.24,15.97-.42,23.97-.35,17.64-1.04,35.27-.9,52.95.07,15.34,1.5,30.65,1.53,45.99,0,19.97-.77,39.9-1.15,59.87-.07,4.21.1,8.42.56,12.59.8,7.69,0,15.27-.42,22.96-.63,11.03-.59,22.09-.77,33.15-.07,6.33,0,12.66,0,19.65-3.67,1.43-16.58,6.11-21.72.62ZM13.57,142.64c4.38-.77,8-1.98,11.58-1.91,3.65.07,7.27,1.36,10.89,2.12,1.88-10.33,1.5-36.63-.7-43.48-6.85,3.06-13.88,2.44-21.5.49.66,1.74,1.04,3.03,1.63,4.24,1.53,3.1,3.34,6.05,4.73,9.22,3.97,8.94,2.61,17.15-3.65,24.63-1.04,1.29-1.81,2.85-2.99,4.73h0v-.03ZM31.21,303.36s.21-.07.35-.07c-.21.94-.56,1.88-.63,2.85-.52,7.06-1.18,14.12-1.46,21.22-.35,9.88-1.88,19.38-6.3,28.46-5.36,10.99-6.75,23.06-8.56,35.24,6.61-4.45,11.38-11.51,20.32-10.96.07-.59.24-1.04.24-1.57,0-8.84.42-17.67-.1-26.47-1.01-16.25-2.54-32.46-3.86-48.67h0v-.03ZM35.38,387.72c-2.4.94-4.66,2.02-7.03,2.78-4.17,1.36-7.79,3.51-10.44,7.1-5.53,7.58-2.71,20.56,5.64,25.64,4.24,2.57,9.08,4.35,11.83,9.01v-44.49h0v-.03ZM13.92,221.99c7.44-15.9,15.06-31.59,20.84-48.77-8,4.38-14.82,2.3-22.06-2.12,5.08,17.25,1.95,34.06,1.25,50.86h0l-.03.03ZM33.64,241.09c.56-16.77,1.11-33.6,1.63-50.41-.21-.07-.49-.14-.7-.21-5.77,14.58-11.58,29.15-17.57,44.28,7.41-.9,12.59,1.88,16.63,6.33h0ZM22.47,88.27c6.54-.07,12.28-2.3,17.5-6.05,3.17-2.26,2.96-4.97-.42-6.71-7.17-3.62-14.65-4.73-22.51-2.85-4.24,1.01-6.89,3.44-6.85,6.61,0,3.76,3.06,7.44,6.89,8.28,1.74.35,3.58.49,5.36.73h.03ZM14.68,268.74c-.35,2.57-.73,4.59-.87,6.61-.56,7.76-.45,15.48,2.19,22.96,1.77,5.04,5.77,7.69,10.4,10.37-.49-11.06.24-21.6,3.97-31.93-6.26-.49-11.13-3.51-15.69-8.04h0v.03ZM21.4,244.25c-1.88.31-3.41.35-4.77.83-.83.31-1.77,1.29-2.02,2.12-2.16,8.42,2.89,17.08,11.31,19.31,1.43.35,3.13.17,4.56-.21.83-.21,1.81-1.18,2.16-2.02,2.5-6.44-1.18-15.79-7.41-18.85-1.29-.63-2.75-.9-3.83-1.22h0v.03ZM33.88,158.78c0-5.81-2.85-8.66-8.63-8.28-1.88.1-3.83.77-5.64,1.46-4.73,1.81-5.08,5.77-4.59,9.98.35,3.24,3.27,3.55,5.5,4.52,1.25.52,2.71.63,4.07.87,5.29.97,10.09-2.44,9.29-8.56h0ZM16.39,480.01c6.64-1.7,12.66-9.98,12.04-16.73-.07-.56-.49-1.11-.87-1.6-2.16-2.99-4.66-5.74-6.44-8.94-1.81-3.24-2.96-6.89-4.38-10.33h-.38v37.57h0l.03.03ZM14.54,355.68c.31.07.59.17.9.21,1.43-3.41,3.13-6.68,4.14-10.19,2.33-8.17,2.3-16.63,1.77-24.98-.14-2.09-.9-4.17-1.7-6.12-.31-.77-1.57-1.67-2.33-1.63-.77.07-1.88,1.15-2.05,1.91-.56,2.64-1.04,5.36-1.04,8.04,0,10.54.1,21.08.21,31.66,0,.35.07.77.14,1.11h-.03ZM17.81,429.11c1.88,5.43,3.27,10.51,5.46,15.24,1.5,3.27,4,6.09,6.23,8.98.63.77,1.84,1.11,2.85,1.74,1.81-12.63-3.55-21.64-14.54-25.95h0Z" style="fill: #010101;"/>
      <path d="M58.79,49.31c-1.74,2.02-3.17,4.42-5.22,6.02-11.1,8.56-23.31,11.06-36.67,5.91C7.45,57.55,2.78,49.93.84,40.51-1.18,30.66.45,21.23,5.74,12.68,10.78,4.43,18.33-.3,28.28.01c2.89.1,6.05,1.08,8.56,2.57,8.87,5.29,15.1,19.9,12.87,29.99-1.95,8.66-7.13,14.99-15.38,18.37-6.44,2.61-12.31.38-17.15-3.86-4.87-4.24-6.33-10.09-4.31-16.21,1.29-3.97,3.44-7.62,5.43-11.34.49-.9,1.6-1.74,2.57-2.16,4.66-2.02,12.07.38,14.47,4.56,2.82,4.84,1.46,11.34-3.13,14.85-.63.49-1.32.94-2.02,1.39-3.24,2.09-4.66,1.6-6.44-2.3,3.55-1.46,5.29-4.31,5.43-8,0-1.04-.63-2.78-1.46-3.13-1.46-.66-3.34-.45-4.17,1.46-1.04,2.33-2.26,4.63-2.82,7.06-1.6,6.89,1.95,10.96,9.04,10.37,1.74-.14,3.69-.77,4.97-1.88,5.77-4.84,8.77-10.99,6.57-18.58-.94-3.27-2.47-6.47-4.24-9.39-4.1-6.89-10.37-8.28-17.85-3.34-8.38,5.57-11.65,14.26-11.24,24.18.14,3.06.9,6.23,1.91,9.11,4.1,11.69,14.99,17.85,27.31,16.07,8.42-1.18,15.69-4.24,20.94-11.27.21.21.42.35.63.56v.21Z" style="fill: #010101;"/>
      <path d="M33.33,137.91c-2.99-.56-5.81-1.08-8.8-1.63,2.96-9.98,2.99-20.04-1.74-30.13h9.88c2.12,10.47,2.26,21.08.63,31.76h.03Z" style="fill: #010101;"/>
      <path d="M34.06,376.55c-6.96-.35-11.31,3.2-16.21,7.34,1.25-4.63,2.19-8.59,3.41-12.52,1.22-4,2.71-7.9,4.04-11.9,1.25-3.9,2.57-7.83,3.51-11.79.97-4.07,1.5-8.21,2.26-12.31h.66c.77,13.6,1.57,27.2,2.37,41.19h-.03ZM27.13,365.24c.9,1.25,1.5,2.09,2.12,2.96.56-.87,1.57-1.74,1.6-2.61,0-.9-.9-1.84-1.39-2.75-.7.73-1.36,1.46-2.3,2.44h0l-.03-.03Z" style="fill: #010101;"/>
      <path d="M33.36,423.03c-8.59-1.39-15.31-10.75-13.78-18.99,1.01-5.39,7.24-8.73,12.25-6.44.66.31,1.46,1.25,1.46,1.91.1,7.83.07,15.65.07,23.48v.03Z" style="fill: #010101;"/>
      <path d="M17.64,207.17c.63-9.74,1.18-19.41-.87-28.73,4.31.35,8.63.63,13.01.97-3.97,9.04-8.04,18.4-12.18,27.76h.03Z" style="fill: #010101;"/>
      <path d="M21.99,230.2c2.16-5.64,4.35-11.31,6.57-16.98.94-2.44,2.02-4.8,2.96-7.1v27.73c-3.27-1.25-6.3-2.4-9.53-3.65h0Z" style="fill: #010101;"/>
      <path d="M24.39,84.62c-2.71-.77-4.9-1.18-6.85-2.09-.9-.42-1.74-1.88-1.77-2.85,0-.66,1.32-1.74,2.26-2.02,5.32-1.74,10.71-1.74,16,.07.8.28,1.74,1.11,1.91,1.88.14.49-.9,1.6-1.6,1.88-3.37,1.18-6.82,2.19-9.95,3.17v-.03Z" style="fill: #010101;"/>
      <path d="M25.95,279.98c-1.04,6.96-2.05,13.98-3.17,21.5-1.04-1.18-2.54-2.3-3.13-3.76-1.18-2.96-2.23-6.05-2.71-9.15-.66-4.24-.77-8.59-1.08-13.01,3.79,1.63,7.13,3.1,10.09,4.38h0v.03Z" style="fill: #010101;"/>
      <path d="M20.56,247.98c4.94-.56,10.23,7.27,9.5,11.34-.35,2.05-1.91,3.27-3.83,2.89-4.14-.8-8.98-6.33-9.22-10.58-.17-2.92.59-3.69,3.51-3.65h.03Z" style="fill: #010101;"/>
      <path d="M25.05,163.24c-1.74-.49-3.51-.87-5.15-1.53-2.16-.87-2.47-2.96-.7-4.45,2.71-2.23,5.81-3.2,9.11-1.74,1.25.56,2.89,2.02,2.85,3.1,0,1.25-1.43,2.71-2.57,3.65-.87.7-2.3.66-3.55.97Z" style="fill: #010101;"/>
      <path d="M18.58,455.38c2.3,3.13,4.52,6.16,6.64,9.18.24.35.35.97.24,1.39-1.18,3.86-3.17,7.17-6.89,9.39v-19.97h0Z" style="fill: #010101;"/>
      <path d="M16.49,347.09c.35-10.58-1.91-21.19.42-31.59.35-.07.73-.1,1.08-.17.49,1.32,1.32,2.57,1.46,3.9,1.01,9.18.35,18.26-2.47,27.1-.07.28-.31.52-.49.77h0Z" style="fill: #010101;"/>
      <path d="M30.06,449.43c-4.14-3.41-5.88-8.07-7.03-13.05,4.42,3.2,6.64,7.65,7.03,13.05Z" style="fill: #010101;"/>
    </g>
  </g>
</svg>