<?xml version="1.0" encoding="UTF-8"?>
<svg id="Ebene_2" xmlns="http://www.w3.org/2000/svg" viewBox="0 0 167.37 184.68">
  <defs>
    <style>
      .cls-1 {
        fill: #fff;
      }
    </style>
  </defs>
  <g id="Kapitel2_x5F_Illu1">
    <g>
      <path d="M81.89,92.67v6.74c-2.02.16-4.01.22-5.97.5-3.93.55-7.63,1.81-10.98,3.96-4.4,2.82-5.92,6.57-4.52,11.58,1.93,6.88,6.85,10.84,13.33,13.17.05.02.12-.02.18-.03.02-.06.06-.11.06-.17.11-1.71.11-1.69-1.53-2.18-2.09-.64-3.96-1.65-5.47-3.28-2.45-2.63-2.41-6.21.11-8.77,1.86-1.88,4.22-2.78,6.74-3.25,4.69-.88,9.44-1,14.18-.65,2.48.18,4.96.55,7.4,1.04,1.91.38,3.61,1.34,5.02,2.73,2.63,2.59,2.68,6.34.12,8.99-1.63,1.69-3.55,2.67-7.01,3.58v1.96c.16.01.26.05.33.02,5.76-2.09,10.41-5.47,12.72-11.39,1.1-2.83,1.59-5.74.28-8.67-.94-2.1-2.51-3.65-4.44-4.81-4.63-2.79-9.67-4.15-15.06-4.21-.53,0-1.06,0-1.69,0v-7.36c.16.27.26.41.34.56,1.36,2.54,3.39,4.32,6.1,5.27,2.8.99,5.66,1.81,8.42,2.91,1.65.66,3.29,1.52,4.7,2.59,3.2,2.43,3.97,5.9,3.49,9.69-1.1,8.48-7.94,15.86-16.28,17.65-.09.02-.19,0-.46,0v-4.01c-2.57.12-4.96.23-7.4.35v23.41h-1.33v-23.38c-2.65-.13-5.14-.25-7.73-.38v4.03c-3.03-.56-5.71-1.69-8.04-3.46-4.96-3.76-8.07-8.67-8.73-14.95-.44-4.16.97-7.64,4.66-9.75,2.2-1.26,4.68-2.02,7.06-2.94,1.62-.62,3.29-1.11,4.94-1.67,2.81-.97,5.02-2.65,6.46-5.39ZM86,112.3c1.62.11,3.14.14,4.63.35,1.62.23,3.27.46,4.81,1,1.76.62,3.02,1.88,3.12,3.91.11,2.15-.99,3.62-2.83,4.53-.78.39-1.66.64-2.52.78-5.53.87-11.09.97-16.65.33-1.79-.21-3.58-.48-5.14-1.5-2.02-1.31-2.82-3.66-1.85-5.59.85-1.69,2.36-2.58,4.13-2.88,2.27-.38,4.57-.55,6.87-.81.55-.06,1.1-.09,1.74-.14-.18-.56-.36-.97-.44-1.4-.11-.55-.43-.61-.9-.55-1.57.2-3.14.36-4.71.59-2.5.36-4.89,1.04-6.94,2.6-3.88,2.96-3.6,7.49.63,9.91,2.15,1.23,4.51,1.89,6.98,1.9,5.19,0,10.38-.04,15.57-.15,2.48-.05,4.67-1.08,6.57-2.64,2.27-1.86,2.68-4.56,1.15-7.05-.93-1.51-2.28-2.52-3.87-3.24-3.09-1.4-6.41-1.54-9.75-1.92-.19.64-.36,1.24-.58,1.98ZM83.92,120.97l.02-.16c1.64-.08,3.29-.13,4.93-.24.85-.06,1.72-.13,2.53-.36,1.29-.37,2.63-.73,3.79-1.37,1.32-.72,1.26-2.08-.02-2.88-.63-.39-1.36-.71-2.08-.86-5.67-1.17-11.37-1.07-17.07-.23-1.07.16-2.16.53-3.12,1.04-1.5.8-1.51,2.15-.05,3.01.86.5,1.83.95,2.8,1.1,2.74.41,5.51.65,8.27.96Z"/>
      <path d="M123.76,55.82c-1.36-.09-2.59-.2-3.82-.24-1.04-.04-2.08.04-3.11,0-.34-.02-.7-.22-.98-.43-2.08-1.5-4.12-3.04-6.21-4.53-2.93-2.09-6.28-3.21-9.67-4.26-2.2-.68-4.38-1.55-6.63-1.89-2.74-.41-5.55-.38-8.32-.51-5.7-.26-11.34.39-16.81,1.9-5.68,1.57-10.79,4.44-15.49,8.02-.77.59-1.76.99-2.7,1.22-1.92.46-3.89.75-6.03,1.14,19.61-24.86,58.74-25.71,79.79-.41ZM61.51,46.46c-.53-.54-1.04-1.11-1.62-1.59-.18-.15-.65-.19-.82-.06-.17.13-.26.65-.14.8.49.59,1.02,1.19,1.65,1.62.52.35.79-.05.94-.77ZM64.95,43.95c.12,0,.24-.01.35-.02.18-.28.59-.72.52-.81-.29-.39-.71-.7-1.12-.98-.05-.03-.52.37-.49.45.2.47.49.91.75,1.36ZM104.14,45.63c.42-.37.76-.67,1.09-.97-.3-.15-.64-.48-.89-.42-.42.09-.78.43-1.16.66.27.2.54.41.96.73ZM55.8,47.49c-.41.48-.67.78-.93,1.08.3.21.61.6.89.57.29-.03.65-.42.75-.73.06-.16-.36-.49-.71-.91ZM114.67,50.38c.43-.37.71-.61.99-.85-.27-.19-.55-.55-.82-.54-.31.01-.62.33-.93.52.21.25.43.49.75.86ZM111.62,47.42c-.45-.57-.91-.91-1.55-.58-.13.07-.21.6-.1.72.5.53,1.03.38,1.65-.14Z"/>
      <path d="M125.08,65.3c1.87,0,3.45-.03,5.02.03.28.01.65.34.81.62,3.76,6.62,6.08,13.73,6.98,21.29,1.19,10.02-.01,19.75-3.67,29.16-2.18,5.61-5.26,10.72-9.26,15.24-.23.26-.68.47-1.02.46-3.89-.07-7.78-.17-11.67-.31-.34-.01-.72-.24-1-.48-.91-.78-1.78-1.61-2.67-2.42-.23-.21-.47-.39-.71-.58.08-.16.1-.29.17-.31,1.42-.57,1.96-1.88,2.67-3.07,1.68-2.78,3.39-5.55,5.11-8.35,1.01.46,1.91.88,3.01,1.39-3.49,3.2-5.9,6.98-7.59,11.42.94.07,1.78.14,2.62.2,1.51.11,3.03.22,4.55.29.31.01.73-.07.93-.27,1.4-1.41,2.76-2.87,4.2-4.39-.23-.39-.49-.84-.9-1.54.69.2,1.16.38,1.65.47.29.06.68.1.9-.04.69-.44,1.32-.98,2.15-1.61-1.51-1.27-2.95-2.47-4.53-3.8.45.02.77.02,1.09.05,2.22.24,3.95-.65,4.75-2.67.84-2.13,1.52-4.36,1.91-6.61,1.42-8.19,1.18-16.46.85-24.71-.11-2.77-.39-5.56-.94-8.28-.66-3.32-2.57-6.16-4.26-9.05-.36-.62-.7-1.25-1.18-2.13ZM135.57,88.01c-.12-.03-.24-.07-.36-.1-.34.41-.77.77-1,1.23-.29.58-.48,1.24-.56,1.89-.03.24.34.54.52.81.28-.22.75-.39.82-.65.26-1.04.4-2.11.58-3.18ZM132.51,79.43c0,.15,0,.3,0,.45.35.26.83.8,1.04.71.48-.21.82-.72,1.21-1.11-.34-.3-.69-.86-1.01-.84-.43.03-.83.5-1.24.79ZM133.72,111.94c0-.15-.01-.3-.02-.45-.35-.21-.77-.65-1.04-.58-.37.1-.62.6-.93.93.29.27.59.76.88.75.38-.01.74-.42,1.11-.65ZM133.83,95.17c.3.44.51.75.73,1.06.22-.37.59-.72.62-1.1.02-.31-.38-.65-.59-.97-.23.31-.46.62-.75,1.01ZM134.14,99.47c-.3.56-.59.85-.59,1.15,0,.26.31.52.48.79.22-.31.52-.59.62-.93.06-.19-.23-.48-.5-1.01Z"/>
      <path d="M38.23,96.29c2.6-.16,5.18-.32,7.93-.49.07,1.6.14,3.16.22,4.82-.69.08-1.31.12-1.92.23-.55.1-1.12.22-1.62.45-.23.1-.48.52-.44.74.05.28.35.58.62.72.25.13.62.12.91.07,1.3-.25,2.59-.56,3.9-.8.5-.09.69-.28.66-.81-.17-4.11-.31-8.22-.5-12.33-.01-.26-.36-.67-.61-.73-1.11-.26-2.24-.41-3.36-.61-.06-.01-.13-.01-.19-.02-.71-.05-1.46.05-1.49.9-.03.79.68.97,1.35.99.69.02,1.39,0,2.21,0,.07,1.41.15,2.81.22,4.23h-7.86c-.09-.15-.15-.2-.14-.25.15-4.23.31-8.46.45-12.7.05-1.67,1.43-2.45,2.33-3.54.18-.21.65-.24.99-.25,2.72-.11,5.44-.22,8.16-.27,1.55-.03,2.05.46,2.1,2.02.03.95-.08,1.9-.11,2.84-.27,7.57.06,15.12.7,22.66.12,1.45.19,2.9.23,4.36.04,1.53-.65,2.7-1.97,3.44-2.52,1.41-5.26,1.96-8.13,1.75-1.33-.09-2.28-.89-2.66-2.12-.5-1.59-.98-3.22-1.17-4.86-.39-3.33-.57-6.68-.84-10.02,0-.12.02-.24.05-.46Z"/>
      <path d="M129.02,95.92c-2.41-.25-4.8-.51-7.29-.77-.08-1.4-.16-2.77-.25-4.37,1.08,0,2.05,0,3.03,0,.67,0,1.37-.21,1.32-.88-.03-.39-.76-.99-1.21-1.02-1.66-.12-3.33-.05-5.06-.05-.04.54-.08.85-.08,1.15-.05,4.34-.08,8.67-.16,13.01-.01.74.18,1.06.95,1.17,1.22.18,2.41.51,3.62.75.27.06.64.14.83.01.37-.24.8-.58.9-.96.05-.21-.48-.67-.83-.85-.35-.18-.8-.16-1.2-.19-.66-.05-1.31-.07-2.01-.11v-4.78c2.51-.16,4.99-.31,7.58-.47-.07,1.34-.09,2.57-.21,3.78-.4,3.83-.75,7.68-1.32,11.49-.37,2.48-1.73,3.23-4.16,2.66-3.19-.75-5.98-2.34-8.77-4.12,1.73-2.59,1.5-5.5,1.41-8.35-.25-7.46-.58-14.92-.91-22.38-.12-2.7.56-3.8,3.23-3.98,2.25-.15,4.54.08,6.79.31,1.35.14,2.34,1.08,2.72,2.37.48,1.62.99,3.3,1.06,4.97.16,3.81.05,7.64.05,11.58Z"/>
      <path d="M55.07,77.29c.58-1.24,1.06-2.55,1.77-3.72,3.74-6.23,9.31-9.93,16.38-11.23,6.92-1.27,13.94-1.57,20.88-.37,8.45,1.46,14.31,6.45,17.79,14.26.16.36.25.76.24,1.21-.34-.43-.67-.88-1.04-1.29-2.12-2.32-4.87-3.18-7.89-3.42-4.82-.39-9.52.35-14.17,1.56-1.4.37-2.83.79-4.27.86-1.45.07-2.93-.18-4.37-.43-3.29-.58-6.55-1.46-9.86-1.82-2.62-.29-5.32-.17-7.94.12-2.99.33-5.52,1.75-7.2,4.41-.11-.04-.21-.09-.32-.13ZM73.25,71.55c-.36-1.61-.74-3.32-1.14-5.03-.04-.15-.21-.36-.35-.39-.72-.18-1.45-.31-2.22-.47-.51,1.9-.99,3.68-1.46,5.42,1.74.16,3.41.31,5.16.47ZM97.88,65.84c-.63.07-1.22.18-1.81.2-.62.02-.87.27-.97.89-.2,1.21-.5,2.4-.75,3.61-.07.34-.14.69-.18.91,1.77-.12,3.41-.22,5.09-.33-.45-1.71-.89-3.41-1.38-5.27ZM79.97,73.28c-.39-1.73-.75-3.35-1.14-4.96-.04-.17-.25-.38-.42-.42-.66-.18-1.33-.3-2.05-.46-.48,1.56-.94,3.06-1.42,4.62,1.69.41,3.3.8,5.04,1.23ZM87.51,73.21c1.78-.45,3.43-.86,5.13-1.28-.59-1.58-1.14-3.04-1.69-4.52-.71.18-1.32.31-1.91.52-.22.08-.5.31-.54.52-.35,1.52-.64,3.06-.99,4.77ZM81.71,73.71h3.84c-.46-1.63-.85-3.09-1.29-4.52-.06-.19-.39-.41-.58-.4-.24.01-.63.2-.69.4-.45,1.44-.83,2.9-1.28,4.53Z"/>
      <path d="M39.8,122.36c1.64,1.15,3.06,2.54,5.2.88,0,.15,0,.29-.01.44-.32.41-.65.82-1.04,1.32.49.45.97.89,1.44,1.34,1.05,1.01,2.08,2.04,3.13,3.05.19.19.46.44.68.43,2.2-.09,4.4-.24,6.9-.38-.61-1.69-1.07-3.25-1.73-4.73-1.03-2.31-2.6-4.25-4.44-5.98-.49-.46-.88-1.02-1.4-1.64,1.11-.5,2.01-.9,2.98-1.33.46.86.89,1.7,1.34,2.52,1.86,3.42,3.78,6.8,6.65,9.52.34.32.37.54.03.93-.56.63-1.12,1.31-1.48,2.06-.33.7-.75.84-1.45.85-4.11.1-8.22.23-12.33.39-.6.02-.97-.13-1.36-.6-6.5-7.69-10.6-16.54-12.31-26.41-2.39-13.87-.27-27.06,6.6-39.42.18-.32.61-.59.97-.68.73-.18,1.5-.21,2.25-.32.72-.1,1.43-.23,2.24-.36-.67,1.3-1.33,2.53-1.95,3.78-1.23,2.45-2.8,4.81-3.58,7.4-.9,2.99-1.37,6.18-1.56,9.31-.42,6.98-.38,13.98.54,20.94.31,2.34.89,4.65,1.49,6.93.26.98.8,1.92,1.36,2.79,1.11,1.75,2.78,2.62,4.85,2.72.28.01.57.03.85.05.02,0,.03.05.1.16-1.61,1.31-3.24,2.64-4.94,4.03ZM33.22,93.25c-.64.22-1.17.25-1.45.53-.27.28-.37.81-.38,1.24,0,.17.51.55.63.5.36-.16.73-.44.92-.78.19-.35.17-.81.29-1.49ZM34,99.3c-.52-.42-.99-.92-1.1-.86-.36.23-.76.63-.83,1.03-.05.27.42.64.66.96.36-.32.72-.64,1.27-1.13ZM34.92,78.92c-.52-.33-.83-.69-1.07-.64-.31.06-.56.43-.83.67.26.27.5.71.79.74.26.03.58-.38,1.11-.77ZM33.66,89.07c-.43-.32-.69-.51-.96-.71-.22.3-.58.59-.61.91-.02.22.4.5.62.75.27-.26.53-.53.95-.94ZM36.3,111.78c-.48-.33-.77-.68-1.01-.65-.31.04-.57.39-.86.61.25.28.47.74.76.79.26.04.59-.37,1.11-.74Z"/>
      <path d="M81.84,89.67c-2.04-1.58-4.01-3.16-6.04-4.66-4.33-3.2-8.79-3.26-13.36-.49-2.37,1.44-4.42,3.25-6.43,5.34.39.4.73.8,1.11,1.15,4.27,3.93,9.38,5.13,15.02,4.62,1.82-.16,3.64-.34,5.5-.32-1.6.43-3.2.83-4.79,1.3-2.27.67-4.52,1.39-6.79,2.05-.29.08-.79.02-.96-.17-1.25-1.47-2.76-1.52-4.39-.9-2.11.8-3.68,2.3-5.11,3.98-.26.31-.52.63-.95,1.16-.09-1.4-.19-2.57-.24-3.73-.2-4.78-.33-9.55.64-14.27,1.2-5.88,4.26-8.8,10.12-9.89,5.81-1.09,11.02.36,15.87,3.49.29.19.61.61.62.93.13,3.41.19,6.83.27,10.25,0,.05-.05.11-.09.19Z"/>
      <path d="M112.96,102.37c-1.27-1.21-2.41-2.45-3.71-3.49-.82-.66-1.83-1.12-2.83-1.48-1.43-.52-2.76-.23-3.76,1-.3.37-.57.47-1.04.33-3.8-1.17-7.61-2.32-11.41-3.48-.32-.1-.64-.22-.94-.42,2.5.27,4.99.6,7.49.79,5.45.42,10.25-1.07,14.2-4.99.55-.55.58-.89,0-1.45-2.87-2.77-5.91-5.26-9.82-6.43-2.46-.74-4.88-.59-7.03.82-2.4,1.57-4.68,3.34-7,5.03-.45.33-.89.68-1.51,1.16,0-.43,0-.66,0-.9-.02-3.16-.06-6.33-.04-9.49,0-.34.2-.83.46-1,3.48-2.23,7.21-3.83,11.41-3.99,3.01-.12,5.93.37,8.7,1.56,2.57,1.1,4.18,3.1,5.11,5.69,1.18,3.28,1.53,6.71,1.65,10.16.11,3.32.08,6.64.11,9.97,0,.21-.04.42-.05.6Z"/>
      <path d="M77.21,35.38c.45-2.37.87-4.6,1.29-6.82,1.75-9.13,3.5-18.25,5.26-27.37.08-.41.35-.79.53-1.18.21.4.52.78.6,1.2,2.09,11.15,4.15,22.31,6.21,33.46.04.21.03.43.04.75-4.64-.67-9.23-.64-13.94-.04ZM85.28,24.58c-.2-.17-.53-.66-.96-.79-.57-.17-1.29.64-1.28,1.34,0,.65.33,1.06,1.03,1.08.7.01,1.2-.52,1.21-1.63Z"/>
      <path d="M83.76,184.68c-2.3-10.88-4.61-21.76-6.94-32.78.7.04,1.29.06,1.87.11,3.85.35,7.7.36,11.54-.22.85-.13,1.1.11.93,1.11-.29,1.62-.64,3.22-1,4.82-1.88,8.51-3.77,17.01-5.67,25.51-.11.48-.26.96-.4,1.44-.11,0-.22,0-.33,0ZM83.87,162.59c.82,0,1.33-.56,1.29-1.3-.04-.67-.34-1.15-1.09-1.15-.68,0-1.18.58-1.17,1.32,0,.71.36,1.1.97,1.13Z"/>
      <path d="M33.74,165.76c4.97-8.79,9.94-17.58,14.97-26.48,3.42,3,7.07,5.47,11.34,7.51-8.79,6.47-17.43,12.83-26.06,19.18-.08-.07-.17-.14-.25-.21ZM48.2,150.44c-.52-.41-.82-.82-1.08-.79-.34.04-.64.41-.96.64.26.29.49.77.79.83.28.05.65-.33,1.25-.68Z"/>
      <path d="M60.12,40.2c-3.66,2.42-7.23,4.78-10.97,7.25-4.72-8.77-9.54-17.72-14.35-26.66.05-.05.09-.1.14-.14,8.43,6.55,16.86,13.09,25.18,19.56ZM49.61,36.28c-.58-.42-.91-.84-1.19-.81-.33.04-.61.47-.91.73.28.28.53.73.85.78.28.05.64-.34,1.26-.71Z"/>
      <path d="M108.07,146.48c3.57-2.4,7.08-4.75,10.68-7.17,4.99,8.86,10.06,17.86,15.13,26.87-.06.05-.12.1-.18.15-8.56-6.63-17.12-13.26-25.62-19.85ZM121.45,150.55c0-.12,0-.24-.01-.36-.33-.19-.68-.55-1-.53-.28.02-.53.46-.8.72.28.27.55.73.86.77.29.03.63-.38.95-.6Z"/>
      <path d="M118.87,47.65c-3.78-2.53-7.36-4.92-11.09-7.42,7.98-6.34,16.03-12.74,24.09-19.15.08.06.16.11.24.17-4.42,8.82-8.85,17.64-13.24,26.39ZM121,36.22c-.6-.36-.94-.72-1.26-.71-.28.01-.55.44-.82.69.32.28.6.69.96.79.22.06.57-.37,1.12-.76Z"/>
      <path d="M131.26,63.12c-.47-1.27-.86-2.26-1.2-3.27-.26-.79-.62-1.44-1.44-1.76-.2-.08-.41-.2-.55-.36-1.58-1.88-3.15-3.77-4.81-5.77,9-4.15,17.99-8.3,26.98-12.45.04.06.09.11.13.17-6.31,7.74-12.62,15.48-19.11,23.44ZM134.97,52.5c.39-.53.79-.85.79-1.16,0-.27-.49-.77-.71-.75-.34.04-.84.42-.89.71-.04.28.41.63.81,1.19Z"/>
      <path d="M44.24,51.8c-2.83,3.64-5.51,7.11-8.3,10.7-6.12-7.56-12.34-15.23-18.56-22.9.02-.04.04-.09.06-.13,8.98,4.13,17.97,8.27,26.8,12.33ZM32.49,50.16c-.38.56-.81.92-.76,1.19.05.29.54.68.87.7.25.02.74-.48.73-.74,0-.32-.42-.62-.83-1.16Z"/>
      <path d="M148.94,146.95c-8.51-3.99-17.02-7.97-25.56-11.97,2.93-3.62,5.79-7.17,8.74-10.81,5.66,7.52,11.32,15.05,16.98,22.58-.05.07-.11.13-.16.2ZM137.28,135.91c-.56-.34-.97-.72-1.1-.64-.38.23-.64.64-.95.98.23.21.55.63.69.58.41-.14.75-.48,1.37-.92ZM131.74,131.21c-.36.56-.74.89-.72,1.2.02.26.53.73.74.69.33-.06.78-.45.83-.75.04-.26-.42-.59-.85-1.13Z"/>
      <path d="M18.47,146.25c5.63-7.29,11.27-14.57,17.08-22.09.15.61.19.99.34,1.33.31.7.54,1.5,1.05,2.03,2.29,2.43,4.66,4.78,7.24,7.41-8.7,3.98-17.08,7.81-25.46,11.64l-.25-.32ZM32.44,136.11c-.56-.41-.88-.78-1.25-.85-.2-.04-.49.46-.74.72.32.3.59.68.97.84.15.07.51-.34,1.02-.71ZM36.66,132.29c-.53-.33-.87-.71-1.13-.66-.32.06-.58.48-.86.74.3.25.58.67.92.71.25.03.57-.4,1.08-.79Z"/>
      <path d="M32.19,69.98c-1.23,3.67-2.4,7.19-3.63,10.86-9.5-4.59-19.03-9.21-28.56-13.82,0-.07.02-.15.03-.22,10.73,1.06,21.46,2.13,32.16,3.19ZM26.96,74.64c-.59-.38-.98-.81-1.2-.74-.35.12-.73.55-.8.91-.04.21.52.76.78.74.34-.02.65-.46,1.22-.91ZM20.77,72.92c-.48-.35-.82-.74-.95-.68-.4.19-.71.56-1.05.85.25.23.55.7.74.65.39-.09.71-.44,1.26-.83Z"/>
      <path d="M139.94,100.47v-12.75c9.16,2.46,18.25,4.89,27.33,7.33,0,.07,0,.14,0,.21-9.14,1.74-18.28,3.48-27.34,5.2ZM149.89,95.88c.41-.53.86-.85.84-1.14-.02-.3-.49-.57-.76-.85-.28.28-.72.53-.8.86-.06.24.36.59.72,1.13Z"/>
      <path d="M65.48,38.27c-2.91-10.68-5.85-21.47-8.79-32.25.08-.04.17-.07.25-.11,6.19,9.76,12.38,19.51,18.6,29.32-3.39,1.03-6.63,2.01-10.06,3.05ZM65.36,30.73c.64.52,1,1.01,1.44,1.1.25.05.83-.55.89-.92.11-.65-.31-1.24-1.02-1.18-.37.03-.7.51-1.3,1ZM65.9,23.58c-.59-.51-.95-.82-1.31-1.13-.28.32-.7.61-.8.98-.15.56.12,1.16.79,1.11.38-.03.72-.5,1.32-.95Z"/>
      <path d="M135.19,70.05c10.66-1.01,21.29-2.01,31.92-3.01.02.06.04.11.07.17-9.39,4.49-18.79,8.97-28.13,13.44-1.29-3.55-2.55-7.01-3.85-10.59ZM142.63,74.75c-.58-.41-.93-.84-1.25-.83-.29.01-.82.56-.78.78.06.35.49.78.83.87.25.06.62-.4,1.2-.82ZM147.44,71.85c-.39.49-.82.89-.76.99.23.38.62.66.96.98.23-.25.68-.55.64-.74-.08-.37-.44-.69-.83-1.23Z"/>
      <path d="M27.68,87.78v12.53c-9-1.69-18.09-3.4-27.18-5.11,0-.07,0-.15,0-.22,9.02-2.39,18.05-4.78,27.18-7.2ZM17.76,95.7c.35-.59.75-.96.7-1.26-.04-.3-.52-.54-.81-.8-.26.3-.71.58-.72.89-.01.3.42.62.83,1.17Z"/>
      <path d="M92.61,35.14c6.04-9.88,12.05-19.72,18.06-29.56.06.03.12.05.18.08-.63,2.36-1.26,4.72-1.88,7.09-2.08,7.94-4.16,15.89-6.24,23.83-.4,1.53-.6,1.58-2.12,1.08-2.61-.86-5.24-1.65-8-2.52ZM103.23,22.52c-.14-.02-.28-.03-.42-.05-.37.43-.83.81-1.06,1.3-.06.13.73.91.89.84.48-.2.94-.63,1.19-1.08.1-.17-.38-.67-.6-1.01ZM102.05,30.43c-.21-.16-.55-.63-.91-.64-.69-.03-1.1.55-1.02,1.19.04.34.5.84.82.89.73.11,1.02-.45,1.11-1.44Z"/>
      <path d="M167.31,122.24c-10.69-1.44-21.37-2.89-32.04-4.33,1.11-3.37,2.15-6.54,3.25-9.89,9.61,4.62,19.23,9.25,28.85,13.88-.02.11-.04.22-.05.33ZM148.03,117.37c.39-.62.81-1,.75-1.27-.08-.35-.55-.62-.84-.92-.26.29-.73.58-.72.86.01.36.41.71.82,1.33ZM141.98,115.6c.42-.46.67-.75.93-1.03-.31-.25-.61-.69-.94-.71-.29-.02-.6.44-.9.68.25.29.5.59.9,1.06Z"/>
      <path d="M92.56,152.54c2.95-.78,5.75-1.51,8.55-2.28,1.17-.32,1.65-.16,1.99,1.01.54,1.85,1.01,3.72,1.49,5.58,1.82,7.09,3.64,14.19,5.45,21.28.09.35.17.7.25,1.06l-.28.14c-5.82-8.94-11.64-17.87-17.45-26.78ZM102.92,159.98c-.53.64-1,.99-1.13,1.44-.17.58.27.93.87.96.61.04,1.29-.55,1.16-1.09-.09-.38-.46-.69-.91-1.31ZM100.37,153.86c-.14-.01-.29-.03-.43-.04-.29.32-.74.61-.84.98-.15.59.25,1.03.86,1.11.64.08,1.08-.29,1.03-.91-.03-.39-.4-.76-.61-1.14Z"/>
      <path d="M32.24,117.72c-10.54,1.28-21.04,2.55-31.53,3.83-.02-.07-.05-.14-.07-.21,9.51-4.43,19.02-8.86,28.53-13.29,1.02,3.22,2.03,6.39,3.08,9.68ZM20.28,116.32c-.62-.45-.94-.85-1.32-.91-.26-.04-.6.4-.9.62.31.29.58.72.94.84.26.08.65-.26,1.28-.55ZM26.45,114.62c0-.11-.02-.23-.02-.34-.36-.17-.75-.52-1.07-.46-.33.05-.6.5-.89.77.33.23.65.63.98.64.33,0,.67-.39,1-.61Z"/>
      <path d="M75.57,152.15c-5.83,9.03-11.69,18.12-17.55,27.2-.07-.03-.14-.06-.21-.08.36-1.41.71-2.83,1.07-4.24,2.02-7.82,4.04-15.64,6.06-23.46.29-1.13,1.35-1.71,2.49-1.42,2.66.67,5.32,1.32,8.14,2.01ZM65.72,160.76c-.15,0-.3-.02-.45-.02-.3.44-.73.86-.85,1.34-.05.2.68.86.84.79.45-.18.94-.58,1.11-1.01.09-.25-.42-.73-.66-1.1ZM66.62,154.97v.44c.37.24.78.72,1.09.67.35-.06.86-.61.85-.94,0-.32-.55-.84-.9-.88-.31-.04-.69.46-1.04.72Z"/>
      <path d="M75.74,139.69v10.91c-5.13-.81-9.98-2.23-14.7-4.68,1.5-.7,2.88-1.33,4.25-1.97l-.02-.13c-.59.04-1.18.13-1.77.12-1.19-.03-1.78-.69-1.81-1.96-.03-1.39.55-2.11,1.76-2.2.93-.06,1.87-.11,2.96-.18-.75-.44-1.4-.75-1.96-1.17-.86-.64-.97-1.35-.48-2.24.5-.91,1.28-1.3,2.19-.98.89.31,1.75.71,2.6,1.12,2.3,1.09,4.59,2.21,6.97,3.36ZM74.69,145.41c0-1.57-.11-3.12-1.45-4.25-.85-.72-1.73-.83-2.61-.27-1.25.79-1.83,1.99-2.1,3.46,3.62-1.71,4.37-1.57,6.16,1.06Z"/>
      <path d="M102.98,140.34c.83,0,1.52-.13,2.13.03.66.17,1.41.48,1.85.98.81.9.28,2.04-.91,2.23-.83.14-1.66.24-2.68.38,1.44.55,2.94.19,4.13,1.4-4.88,2.57-9.98,4.08-15.3,5.11-.04-.31-.09-.53-.09-.74,0-3.01,0-6.01-.03-9.02,0-.6.17-.82.77-1.03,2.41-.84,4.78-1.79,7.16-2.7.94-.36,1.85-.82,2.82-1.09,1.05-.3,1.92.32,2.37,1.53.36.97.16,1.5-.84,2.12-.4.25-.82.47-1.38.8ZM100.44,143.82c-.56-2.1-2.57-3.56-4.11-3.06-1.81.58-2.62,2.84-1.76,5.17,1.08-3.17,3.39-2.9,5.87-2.1Z"/>
      <path d="M45.58,71.86c1.09-1.78,2.12-3.55,3.25-5.27.9-1.37,1.91-2.66,3.81-2.59.28.01.6-.03.84.08,1.69.82,3.37,1.68,5.15,2.57-.41.59-.77,1.12-1.23,1.79-.63-.49-1.26-.93-1.83-1.45-2.34-2.13-2.89-2.14-5.04.17-1.78,1.92-3.24,4.05-4.04,6.57-.19.59-.48.81-1.1.65-.64-.16-1.3-.24-2.01-.37,1.05-4,3.11-7.47,5.06-11.07-.53-.34-1.07-.7-1.68-1.09.98-1.07,1.89-2.06,2.69-2.94.22.5.43.98.64,1.49.93-.89,1.71-1.65,2.53-2.43-.36-.43-.69-.85-1.06-1.3.95-.63,1.85-1.23,2.93-1.94-.04.58-.07,1.01-.11,1.59,1.23-.93,2.36-1.79,3.51-2.66-.21-.32-.4-.59-.63-.94,1.13-.49,2.19-.95,3.32-1.45.1.17.22.36.37.61,1.05-.51,2.09-1.02,3.13-1.54-.1-.63-1.24-1.31.08-1.83,1.42-.56,1.9-.4,2.28.85.8-.23,1.59-.47,2.39-.7.03,1.15-.35,1.77-1.38,2.18-1.22.48-2.45.94-3.87,1.48.55.34.88.55,1.14.71-.13.56-.24,1.05-.38,1.64-1.03.21-2.22.47-3.2-.89-1.15.82-2.27,1.61-3.3,2.35,1.18,1.24,2.32,2.44,3.58,3.76-1.24.08-2.33.16-3.41.2-1.54.06-3.09.07-4.63.12-.16,0-.35.1-.47.22-3.14,3.23-5.76,6.8-7.3,11.09-.03.08-.02.18-.03.31ZM56.5,57.36c-.66.62-1.23,1.17-1.89,1.79h3.77c-.7-.67-1.26-1.2-1.88-1.79Z"/>
      <path d="M60.31,89.69c.68-.64,1.25-1.22,1.87-1.76,3.66-3.17,8.56-3.67,12.66-1.11,1.78,1.11,3.34,2.55,4.94,3.97-3.69,1.53-7.18,3.27-11.21,3.08-3.37-.15-6-1.72-8.26-4.18Z"/>
      <path d="M88.42,90.66c2.44-2.09,4.8-4.14,7.88-5.08,4.18-1.29,8.58.34,10.98,4.06-3.97,4.45-11.32,6.4-18.86,1.02Z"/>
      <path d="M57.12,134.53c.37,1.02,2.08,1.34.98,2.88,1.48-.41,2.59-.67,2.91-2.08.13-.57.52-1.08.76-1.62.5-1.1.22-1.67-.96-1.92-.55-.11-1.11-.17-1.64-.24.18-.49.36-.98.55-1.47.04-.11.12-.23.21-.29.81-.5,2.98.1,3.44.93.15.27.32.56.55.75,1,.85,1.01.84,1.27,2.21-.7.5-1.45.98-2.11,1.55-.34.29-.64.72-.76,1.15-.75,2.77-1.45,5.55-2.17,8.33-.04.15-.08.3-.16.61-1.26-.72-2.44-1.4-3.63-2.09-.33-.19-.64-.41-.98-.58-1.37-.69-2.47-1.51-1.59-3.38-1.44-.27-3.13.54-3.92-1.39.7,0,1.41.05,2.12-.01.59-.05,1.35.24,1.85-.74-1.64,0-3.08.02-4.53-.01-.35,0-.8-.06-1.04-.28-1.42-1.29-2.8-2.63-4.33-4.09h12.98c-.56,1.54-1.08,2.95-1.57,4.37-.74,2.13.07,3.9,1.36,5.53.67.84,1.13.85,1.85.03.51-.59.96-1.26,1.28-1.96.4-.9.12-1.45-.83-1.75-.72-.23-1.47-.36-2.22-.45-.6-.07-.87-.25-.64-.9.35-1.01.64-2.04.96-3.05Z"/>
      <path d="M122.26,71.8c-1.3-4-3.38-7.58-6.27-10.65-.4-.42-1.13-.66-1.74-.72-2.38-.23-4.78-.35-7.38-.52,1.36-1.28,2.56-2.41,4.01-3.78-2.07-1.21-3.81-2.4-5.7-3.29-1.73-.82-3.62-1.3-5.42-1.96-.5-.18-.96-.49-1.44-.73,0-.12.01-.24.02-.37,1.65-.61,3.31-1.22,5.18-1.91-.22.83-.34,1.41-.52,1.96-.17.52-.08.81.48.99.66.21,1.29.49,1.96.76.09-.18.16-.34.26-.54,1.22.49,2.42.97,3.61,1.47.11.05.24.3.2.37-.42.76.22.99.65,1.32,5.5,4.27,10.06,9.32,12.96,15.72.48,1.06.86,2.17,1.29,3.26.03.08.04.18.08.4-.9.15-1.78.35-2.67.42-.18.01-.49-.42-.58-.7-1.1-3.27-3.11-5.89-5.59-8.23-.61-.58-1.05-.62-1.67-.05-1.25,1.15-2.56,2.25-3.88,3.41-.38-.48-.73-.91-1.09-1.37,1.51-2.34,3.64-3.75,6.32-4.29.36-.07.91.22,1.21.5,2.16,2.05,3.6,4.63,5.01,7.21.24.44.48.88.73,1.32ZM113.58,59.55c-.83-.98-1.53-1.8-2.31-2.71-.68.84-1.3,1.6-2.04,2.52,1.54.07,2.85.13,4.34.19Z"/>
      <path d="M123.74,132.99c-1.42,1.33-2.82,2.68-4.26,3.98-.17.16-.53.15-.8.15-1.04.02-2.08,0-3.21,0-.02.36-.04.69-.06,1.11.82.09,1.6.17,2.44.27-.56,1.02-1.53.85-2.54.94.39,1.4-.75,1.75-1.6,2.29-1.63,1.03-3.26,2.03-4.77,2.97-1.22-3.07-2.4-6.03-3.61-9.07.14-.06.43-.2.87-.4-.9-.58-1.71-1.1-2.55-1.64.8-1.73,1.48-3.44,3.7-3.65.84-.08,1.5-.07,1.61.98.02.2.14.4.21.59-.57.18-1.14.3-1.64.53-.73.35-1.01.96-.66,1.73.39.86.79,1.72,1.25,2.55.45.8,1.19,1.07,2.2.96-.17-1.23-.13-2.42.94-3.42.66,1.26,1.32,2.53,2.03,3.91-.88.17-1.65.29-2.4.48-1.39.35-1.77.93-1.45,2.14.35,1.33,1.52,2.16,2.65,1.86.09-.02.19-.05.26-.1,1.26-1.06,1.93-3.35,1.37-4.95-.48-1.36-1.05-2.69-1.62-4.11,3.85-.12,7.68-.24,11.51-.37.04.08.08.17.13.25Z"/>
      <path d="M93.65,108.92c-6.58-.63-13.1-.61-19.65,0-.23-1.73-.51-3.34-.64-4.97-.1-1.34.68-2.27,1.95-2.61-.13.57-.32,1.14-.37,1.72-.11,1.24.6,2,1.85,1.96,1.61-.05,3.22-.25,4.83-.25,2.72,0,5.43.12,8.15.19.28,0,.57.05.85.06,1.65.04,2.46-.94,2.08-2.54-.09-.39-.24-.76-.37-1.15,1.32.3,2.13,1.35,1.99,2.76-.16,1.56-.42,3.12-.66,4.83Z"/>
      <path d="M74.29,46.75c4.7-1.35,12.88-1.4,19.04-.11-.63,3.97-1.25,7.94-1.88,11.94h-15.34c-.6-3.88-1.21-7.83-1.82-11.83ZM75.82,48.35c.44,2.63.9,5.24,1.31,7.86.11.69.4.93,1.11.92,3.16-.03,6.32-.02,9.48-.01,2.48,0,2.49.01,2.96-2.42.41-2.13.78-4.26,1.16-6.32-5.38-1.53-10.65-1.24-16.02-.03Z"/>
      <path d="M68.56,106.36c.09,0,.19,0,.28,0,2.21.05,2.99,1.07,2.37,3.19-.07.23-.4.5-.65.55-2.16.47-3.89,1.55-5.27,3.29-.71.9-1.33.72-1.64-.4-.46-1.66-.27-3.28.6-4.76.96-1.63,2.63-1.79,4.31-1.86Z"/>
      <path d="M99.1,106.34c3.78,0,5.95,2.98,4.82,6.64-.34,1.11-.86,1.3-1.55.41-1.38-1.75-3.11-2.82-5.27-3.3-.28-.06-.63-.51-.68-.83-.36-2.41.12-2.92,2.67-2.93Z"/>
      <path d="M143.62,60.94c-3.14,2.29-6.27,4.58-9.48,6.92-.77-1.36-1.47-2.61-2.23-3.95,3.91-1.13,7.73-2.23,11.54-3.34l.16.37Z"/>
      <path d="M33.23,67.93c-3.08-2.36-6.05-4.64-9.03-6.92.05-.12.11-.23.16-.35,3.66,1.1,7.32,2.21,11.05,3.33-.75,1.36-1.43,2.59-2.18,3.94Z"/>
      <path d="M119.73,48.69c2.8-2.42,5.55-4.79,8.31-7.17.12.09.23.17.35.26-1.82,3.27-3.64,6.54-5.51,9.89-1.13-1.07-2.06-1.95-3.15-2.98Z"/>
      <path d="M132.75,122.49c.9-1.31,1.72-2.51,2.6-3.8,2.16,1.64,4.17,3.16,6.17,4.68.45.34.92.67,1.36,1.03.14.12.19.35.29.52-.22.05-.46.19-.65.15-1.07-.27-2.12-.6-3.19-.88-2.12-.56-4.25-1.1-6.58-1.71Z"/>
      <path d="M47.8,48.49c-.97,1.01-1.79,1.88-2.73,2.85-2.37-2.95-3.88-6.36-5.66-9.61.09-.08.19-.17.28-.25,2.72,2.35,5.45,4.7,8.11,7Z"/>
      <path d="M149.21,104.99c-3.41.41-6.82.82-10.33,1.24.04-1.53.32-2.93.99-4.22.08-.15.49-.27.69-.21,2.9.97,5.78,1.97,8.67,2.96,0,.08-.01.15-.02.23Z"/>
      <path d="M125.79,58.48c-2.21-.29-4.43-.57-6.83-.88.18.44.22.69.36.87,1.89,2.33,4.05,4.19,7.28,4.21.41,0,.82.11,1.23.09,1.12-.07,1.75.47,2.04,1.7-.98-.14-1.91-.19-2.8-.42-1.43-.37-2.84-.83-4.24-1.32-.43-.15-.88-.45-1.14-.81-.52-.7-1-1.01-1.79-.39-.11.09-.5.06-.57-.05-.57-.85-1.1-1.73-1.72-2.73.51.04.84.06,1.33.1-.58-.89-1.1-1.68-1.69-2.57,2.44.36,4.75.65,7.04,1.06.57.1,1.09.55,1.63.84-.05.11-.1.21-.15.32Z"/>
      <path d="M27.87,101.56c.31,1.56.61,3.01.93,4.64-3.46-.43-6.74-.84-10.03-1.25,0-.07-.02-.14-.03-.21,2.99-1.04,5.97-2.08,9.12-3.18Z"/>
      <path d="M32.89,118.41c.41,1.17.83,2.27,1.15,3.4.06.2-.2.69-.4.75-3.08.92-6.17,1.78-9.38,2.49,2.79-2.15,5.59-4.3,8.63-6.64Z"/>
      <path d="M114.67,66.5c1.42,1.28,2.75,2.48,4.08,3.69.01-.02,0,.01-.02.02q-1.52.96-2.75-.38c-.38-.42-.79-.81-1.2-1.23-.53.44-1.02.85-1.57,1.3,1.06,1.4,2.13,2.8,3.27,4.3-.45.26-.84.48-1.38.79-1.26-1.75-2.5-3.45-3.7-5.18-.11-.16,0-.63.16-.77,1-.87,2.04-1.68,3.1-2.53Z"/>
      <path d="M102.35,52.24c-1.08.93-1.98,1.7-3.01,2.58.8.04,1.47.08,2.44.13-1.52,1.02-2.82,1.89-4.33,2.9.87.13,1.47.22,2.27.34-.73.64-1.37,1.2-2.01,1.76-1.14-.3-1.57-1.16-1.77-2.27h1.08v-2.92h1.65c.05-.52.12-1.02.15-1.51,0-.17-.07-.48-.15-.49-1.32-.27-.53-1.21-.72-2.07,1.52.54,2.87,1.02,4.4,1.57Z"/>
      <path d="M122.97,135.27c1.62,2.91,3.16,5.69,4.71,8.48-.05.04-.1.08-.16.12-2.53-1.85-5.05-3.7-7.43-5.44.94-1.03,1.82-2,2.87-3.16Z"/>
      <path d="M93.3,59.69c.93-4.34,1.86-8.67,2.8-13.08.79.23,1.48.42,2.35.67-1.58,4.22-3.13,8.38-4.68,12.54-.16-.04-.32-.09-.48-.13Z"/>
      <path d="M51.89,74.08c.85-1.36,1.71-2.71,2.59-4.1-.6-.25-1.14-.48-1.79-.76-.53.69-1.07,1.4-1.66,2.17-.61-.29-1.19-.57-1.9-.9,1.14-1.09,2.2-2.14,3.32-3.12.2-.17.71-.19.96-.06.78.41,1.49.94,2.26,1.38.47.27.6.55.31,1.05-.77,1.34-1.42,2.76-2.3,4.02-.28.4-1.12.42-1.7.61-.03-.1-.06-.19-.09-.29Z"/>
      <path d="M39.66,143.75c1.47-2.71,2.94-5.41,4.48-8.25.96,1.03,1.85,1.99,2.79,3-2.43,1.83-4.79,3.59-7.14,5.35-.05-.04-.09-.07-.14-.11Z"/>
      <path d="M19.29,83.16c3.01-.28,6.02-.55,9.18-.85-.24,1.38-.45,2.6-.68,3.92-2.91-.98-5.73-1.94-8.55-2.89l.05-.18Z"/>
      <path d="M139.73,86.11c-.23-1.28-.44-2.43-.68-3.81,3.27.3,6.31.59,9.35.87l.04.2c-2.83.89-5.66,1.78-8.71,2.74Z"/>
      <path d="M69.81,46.94c.71-.2,1.28-.37,2.01-.58.86,4.31,1.7,8.59,2.55,12.87l-.36.1c-1.39-4.11-2.79-8.22-4.2-12.39Z"/>
      <path d="M87.03,143.94v-3.88h3.8v3.88h-3.8Z"/>
      <path d="M80.79,143.76h-3.82v-3.91h3.82v3.91Z"/>
      <path d="M80.68,138.01h-3.72v-3.95h3.72v3.95Z"/>
      <path d="M87.04,145.58h3.7v3.84h-3.7v-3.84Z"/>
      <path d="M76.96,145.29h3.81v3.76h-3.81v-3.76Z"/>
      <path d="M87.06,132.33v-3.64h3.79v3.64h-3.79Z"/>
      <path d="M90.87,134.24v3.65h-3.78v-3.65h3.78Z"/>
      <path d="M38.74,63.48c.08-.93.55-1.17,1.34-1.18,3.09-.03,5.68-1.11,7.44-3.78.07-.1.14-.21.2-.32.03-.05.02-.12.06-.43-1.97.29-3.87.57-5.77.85.35-.91,5.38-2.25,7.39-1.93-1.23,1.57-2.35,3.17-3.66,4.62-1.26,1.4-3.1,1.6-4.85,1.9-.71.12-1.42.19-2.16.28Z"/>
      <path d="M76.89,132.35v-3.69h3.73v3.69h-3.73Z"/>
      <path d="M54.74,63.01c2.3-.35,4.41-.67,6.51-.99.34,1.81.16,2.24-1.26,3.14q-1.64,1.04-3.09-.24c-.66-.58-1.32-1.16-2.17-1.91ZM57.19,63.4c.45.47.72.96,1.13,1.15.35.16.93.12,1.27-.08.2-.12.25-.76.13-1.07-.07-.19-.6-.31-.91-.3-.48.02-.96.17-1.61.3Z"/>
      <path d="M106.4,61.86c1.94.12,3.78.23,5.62.34.05.09.09.17.14.26-.95,1.13-1.86,2.28-2.85,3.37-.39.44-2.21-.25-2.35-.87-.21-.98-.36-1.98-.56-3.1ZM107.81,62.51c0,.86-.02,1.58.01,2.29,0,.18.19.35.29.53.17-.11.41-.18.5-.33.42-.73.8-1.49,1.26-2.37-.72-.04-1.3-.08-2.06-.12Z"/>
      <path d="M121.24,58.67c1.74.28,3.34.54,4.95.8,1.24.2,1.34,1.44,2.15,2.15-3.37.47-5.57-.44-7.1-2.95Z"/>
      <path d="M69.44,57.73c-1.1-.91-2.17-1.81-3.38-2.81,1.91-.35,3.68-.67,5.57-1.02-.77,1.35-1.46,2.57-2.19,3.83Z"/>
      <path d="M98.41,132.8c.24.82.51,1.62.7,2.43.04.18-.14.53-.32.62-.77.41-1.57.76-2.48,1.18-.22-.87-.45-1.64-.58-2.43-.03-.21.2-.56.4-.68.7-.4,1.45-.72,2.28-1.13Z"/>
      <path d="M63.67,59.42c-.99-.93-1.87-1.77-2.87-2.72,1.54-.51,2.96-.98,4.54-1.51-.58,1.47-1.1,2.78-1.67,4.23Z"/>
      <path d="M70.06,50.98c-.39.5-.83.97-1.16,1.52-.19.32-.21.76-.35,1.34-.76-.18-1.56-.3-2.29-.6-.28-.11-.51-.63-.53-.98-.02-.21.36-.58.62-.67,1.13-.37,2.28-.66,3.42-.98.1.12.2.24.3.36Z"/>
      <path d="M103.47,55.81c.97.43,1.95.86,3.07,1.35-1.05.72-2.08,1.44-3.27,2.26-.4-1.42-.75-2.64-1.12-3.95.53.14.94.25,1.35.36l-.03-.02Z"/>
      <path d="M39.95,61.28c1.26-2.52,3.8-1.67,5.8-2.6-.61,1.91-3.3,3.04-5.8,2.6Z"/>
      <path d="M54.93,119.86c-.52-.91-1-1.75-1.53-2.66.75-.47,1.44-.9,2.22-1.39.49.8.97,1.59,1.46,2.4-.71.54-1.38,1.05-2.15,1.65Z"/>
      <path d="M57.88,108.02c-.03.91-.68,1.57-1.54,1.55-.87-.02-1.47-.69-1.45-1.63.02-.9.69-1.59,1.53-1.57.83.02,1.49.77,1.46,1.65Z"/>
      <path d="M109.72,108.02c-.01-.93.63-1.65,1.44-1.64.86.01,1.47.68,1.47,1.62,0,.9-.56,1.53-1.4,1.56-.89.04-1.5-.59-1.51-1.55Z"/>
      <path d="M61.33,102.57c-.87,0-1.45-.58-1.48-1.48-.02-.95.58-1.58,1.49-1.57.85,0,1.44.63,1.44,1.53,0,.87-.61,1.52-1.45,1.52Z"/>
      <path d="M69.8,61.03c-.63-.91-1.22-1.75-1.87-2.7,1.5-.38,2.92-.73,4.57-1.14-.97,1.38-1.81,2.58-2.69,3.84Z"/>
      <path d="M107.67,100.97c.02.99-.54,1.61-1.46,1.6-.82,0-1.36-.58-1.38-1.48-.02-.94.5-1.55,1.38-1.58.91-.03,1.45.5,1.47,1.46Z"/>
      <path d="M70.02,132.58c.61.37,1.25.71,1.82,1.14.18.14.29.53.26.78-.1.65-.29,1.28-.45,1.91-2.25-.65-2.64-1.56-1.62-3.84Z"/>
      <path d="M49.4,127.64c1.19-.62,2.43-1.27,3.63-1.9.16.37.37.81.54,1.28.06.18.09.45,0,.6-.37.61-.79,1.19-1.3,1.94-.52-1.49-1.86-1.6-2.87-1.92Z"/>
      <path d="M110.29,124.4c-.69.87-1.31,1.65-1.93,2.44-.58-.55-1.12-1.07-1.75-1.68.56-.64,1.08-1.25,1.64-1.82.1-.11.43-.13.56-.04.51.34.99.73,1.48,1.11Z"/>
      <path d="M92.14,134.7c.55-.11,1.1-.22,1.64-.33.5,2.06-.24,4.12-1.64,4.28v-3.95Z"/>
      <path d="M50.97,125.78c-1.26-.28-2.34-.53-3.29-.74,1.12-.76,2.39-1.63,3.56-2.43.24.43.55.86.72,1.34.08.23-.02.6-.17.83-.27.41-.62.77-.82,1Z"/>
      <path d="M65.59,62.31c-.91-.86-1.71-1.61-2.6-2.44,1.43-.45,2.76-.87,4.23-1.34-.57,1.32-1.08,2.51-1.63,3.78Z"/>
      <path d="M104.42,59.85c-.74.67-1.38,1.26-2.01,1.83-1.82-.34-1.49-1.97-2.02-3.27,1.4.5,2.65.95,4.03,1.44Z"/>
      <path d="M114.84,125.78c1.21.67,2.43,1.34,3.4,1.88-.81.45-1.86,1.03-2.9,1.61q-.67-1.35-.5-3.48Z"/>
      <path d="M120.04,125.16c-.89.22-1.92.47-3.05.75-1.16-.72-1.23-1.84-.39-3.13,1.12.77,2.33,1.61,3.44,2.38Z"/>
      <path d="M41.78,74.27c-.73-.2-1.42-.39-2.24-.61.57-1.1,1.1-2.11,1.78-3.42.01,1.31.57,1.33,1.44.93-.34,1.06-.65,2.03-.99,3.11Z"/>
      <path d="M45.19,67.55c-.76-.26-1.43-.5-2.18-.76.86-1.09,1.69-2.13,2.69-3.4-.07.6-.1.91-.14,1.27.29.08.54.15.95.27-.45.9-.88,1.74-1.32,2.62Z"/>
      <path d="M125.97,74.12c-.34-1.02-.64-1.91-.95-2.83.38.12.76.24,1.23.39v-1.4c.06-.02.12-.04.19-.07.6,1.11,1.2,2.22,1.87,3.45-.86.17-1.58.3-2.33.45Z"/>
      <path d="M114.11,117.88c-.53.82-.98,1.53-1.49,2.34-.59-.4-1.18-.78-1.83-1.22.52-.79.98-1.49,1.53-2.31.63.42,1.21.8,1.8,1.19Z"/>
      <path d="M118.9,71.33c.34.75.63,1.36.94,2.05-.96.24-1.83.46-2.74.69-.33-.55-.64-1.08-1-1.68.97-.37,1.83-.69,2.79-1.06Z"/>
      <path d="M103.5,55.84c-.13-.91-.26-1.82-.4-2.83,1.09-.1,1.94-.1,2.54.62.5.6.15,1.56-.62,1.81-.5.17-1.03.25-1.55.38,0,0,.03.02.03.02Z"/>
      <path d="M47.73,73.57c.26-.57.43-1.07.72-1.51.1-.15.49-.22.7-.17.82.2,1.62.47,2.48.73-.31.53-.61,1.04-.92,1.59-.97-.21-1.91-.42-2.97-.65Z"/>
      <path d="M102.82,133.76c-.74.39-1.39.73-2.05,1.08-.71-2.94-.72-3.29-.02-4.18.69,1.03,1.36,2.03,2.07,3.09Z"/>
      <path d="M121.11,122.6c-.47.12-1.15.24-1.79.49-.84.33-1-.48-1.4-.81-.12-.1.01-.64.16-.92.25-.46.59-.87.85-1.23.77.88,1.52,1.73,2.18,2.47Z"/>
      <path d="M50.12,121.77c-.56.81-1.08,1.59-2.3.94-.44-.23-1.02-.18-1.34-.23.69-.75,1.44-1.57,2.26-2.45.42.53.89,1.12,1.38,1.74Z"/>
      <path d="M124.85,66.56c-.71.29-1.34.54-2.02.82-.29-.7-.56-1.37-.82-2.03-.06-.14-.11-.32-.07-.46.11-.47.26-.94.42-1.47.77.98,1.61,2.03,2.5,3.15Z"/>
      <path d="M61.11,124.66c-.52.48-1.05.96-1.57,1.43-1.9-1.73-1.9-1.22-.15-3.23.54.56,1.08,1.13,1.72,1.8Z"/>
      <path d="M73.88,134.29c.6.05,1.06.1,1.61.15v3.94c-1.89-.72-1.27-2.51-1.61-4.08Z"/>
      <path d="M43.86,120.72c1.08-.74,2.17-1.49,3.15-2.17.19.59.36,1.09.52,1.58-.43.88-2.07.65-3.56.86-.04-.09-.08-.18-.12-.27Z"/>
      <path d="M120.67,118.68c1.05.79,2.11,1.59,3.24,2.43-1.7.49-3.75-.31-4.3-1.69h1.17c-.1-.2-.2-.38-.29-.57.06-.06.13-.12.19-.18Z"/>
      <path d="M116.15,56.01c-.44.57-.79,1.04-1.15,1.5-1.46-.59-1.54-2.02-2.07-3.23,1.04.56,2.07,1.11,3.22,1.73Z"/>
      <path d="M58.42,120.24c-.5,1.06-1,2.12-1.56,3.32-.25-.33-.4-.55-.57-.75-.46-.53-.45-.93.18-1.37.6-.42,1.11-.97,1.65-1.47.1.09.2.18.3.27Z"/>
      <path d="M112.16,121.79c-.39.48-.65.79-1.07,1.31-.7-.93-1.32-1.77-1.94-2.6.1-.11.21-.23.31-.34.87.53,1.75,1.05,2.7,1.63Z"/>
      <path d="M112.56,113.91c.9.69,1.79,1.37,2.68,2.06-.8,1.08-.9,1.1-1.61.12-.48-.66-.92-1.35-1.38-2.03.1-.05.21-.1.31-.16Z"/>
      <path d="M67.38,130.38v3.85c-.62-.97-1.09-1.72-1.61-2.53.53-.43.98-.81,1.61-1.32Z"/>
      <path d="M59.63,105.26c-.92-.59-1.78-1.14-2.77-1.78.86-.37,1.57-.29,2.24.18.56.39.84.91.53,1.6Z"/>
      <path d="M110.77,103.48c-.98.62-1.83,1.16-2.74,1.74-.4-.48-.11-.92.25-1.32.67-.72,1.46-.86,2.49-.42Z"/>
      <path d="M55.15,113.66c-.67.76-1.35,1.53-2.14,2.42-.2-.39-.33-.67-.51-1.03.85-.56,1.64-1.09,2.44-1.62.07.08.14.15.21.23Z"/>
      <path d="M104.94,125.86c.75.59,1.5,1.18,2.27,1.79-.77.53-1.88-.26-2.27-1.79Z"/>
      <path d="M62.56,126.42c-.24.66-.48,1.32-.76,2.1-.36-.2-.64-.36-1.12-.64.62-.6,1.14-1.11,1.66-1.61.07.05.15.1.22.15Z"/>
      <path class="cls-1" d="M86,112.3c.22-.74.39-1.34.58-1.98,3.33.38,6.66.52,9.75,1.92,1.59.72,2.94,1.73,3.87,3.24,1.54,2.5,1.12,5.19-1.15,7.05-1.9,1.56-4.09,2.59-6.57,2.64-5.19.11-10.38.16-15.57.15-2.47,0-4.83-.67-6.98-1.9-4.23-2.42-4.51-6.95-.63-9.91,2.05-1.56,4.44-2.23,6.94-2.6,1.56-.23,3.14-.38,4.71-.59.47-.06.79,0,.9.55.08.43.26.84.44,1.4-.64.05-1.19.08-1.74.14-2.29.25-4.6.42-6.87.81-1.77.3-3.28,1.19-4.13,2.88-.97,1.93-.17,4.28,1.85,5.59,1.56,1.01,3.35,1.29,5.14,1.5,5.56.64,11.12.54,16.65-.33.86-.14,1.74-.39,2.52-.78,1.85-.91,2.94-2.39,2.83-4.53-.1-2.03-1.36-3.3-3.12-3.91-1.53-.54-3.19-.77-4.81-1-1.49-.21-3.01-.23-4.63-.35Z"/>
      <path class="cls-1" d="M83.92,120.97c-2.76-.31-5.53-.55-8.27-.96-.97-.15-1.94-.6-2.8-1.1-1.46-.85-1.44-2.21.05-3.01.96-.51,2.05-.89,3.12-1.04,5.7-.84,11.4-.94,17.07.23.73.15,1.45.46,2.08.86,1.28.8,1.33,2.16.02,2.88-1.17.64-2.5,1-3.79,1.37-.81.23-1.68.3-2.53.36-1.64.11-3.28.17-4.93.24l-.02.16ZM74.47,117.65c.51.19.92.44,1.35.48,3.05.24,6.1.57,9.16.59,2.42.01,4.84-.36,7.26-.61.42-.04.82-.3,1.34-.5-2.67-1.88-16.84-1.84-19.1.04Z"/>
      <path class="cls-1" d="M61.51,46.46c-.14.72-.42,1.12-.94.77-.63-.43-1.15-1.03-1.65-1.62-.12-.14-.02-.67.14-.8.17-.13.64-.09.82.06.58.48,1.09,1.05,1.62,1.59Z"/>
      <path class="cls-1" d="M64.95,43.95c-.26-.45-.54-.89-.75-1.36-.03-.07.44-.48.49-.45.41.28.83.59,1.12.98.07.09-.33.53-.52.81-.12,0-.24.01-.35.02Z"/>
      <path class="cls-1" d="M104.14,45.63c-.42-.32-.69-.52-.96-.73.38-.23.75-.57,1.16-.66.25-.06.59.27.89.42-.33.3-.67.59-1.09.97Z"/>
      <path class="cls-1" d="M55.8,47.49c.35.43.77.75.71.91-.11.31-.46.7-.75.73-.27.03-.59-.36-.89-.57.26-.3.52-.6.93-1.08Z"/>
      <path class="cls-1" d="M114.67,50.38c-.32-.37-.53-.62-.75-.86.31-.19.61-.51.93-.52.27,0,.54.34.82.54-.28.24-.57.48-.99.85Z"/>
      <path class="cls-1" d="M111.62,47.42c-.62.52-1.15.67-1.65.14-.11-.12-.03-.65.1-.72.64-.33,1.1,0,1.55.58Z"/>
      <path class="cls-1" d="M135.57,88.01c-.18,1.06-.32,2.13-.58,3.18-.07.27-.53.44-.82.65-.19-.27-.55-.57-.52-.81.09-.64.28-1.3.56-1.89.23-.46.66-.83,1-1.23.12.03.24.07.36.1Z"/>
      <path class="cls-1" d="M132.51,79.43c.41-.28.81-.76,1.24-.79.31-.02.67.54,1.01.84-.4.39-.74.9-1.21,1.11-.2.09-.68-.46-1.04-.71,0-.15,0-.3,0-.45Z"/>
      <path class="cls-1" d="M133.72,111.94c-.37.24-.73.64-1.11.65-.28.01-.58-.48-.88-.75.3-.33.56-.83.93-.93.27-.08.69.37,1.04.58,0,.15.01.3.02.45Z"/>
      <path class="cls-1" d="M133.83,95.17c.29-.39.52-.7.75-1.01.21.32.61.66.59.97-.02.38-.39.73-.62,1.1-.21-.31-.42-.62-.73-1.06Z"/>
      <path class="cls-1" d="M134.14,99.47c.28.53.56.81.5,1.01-.1.34-.4.62-.62.93-.17-.26-.48-.53-.48-.79,0-.3.29-.6.59-1.15Z"/>
      <path class="cls-1" d="M73.25,71.55c-1.75-.16-3.43-.31-5.16-.47.47-1.74.95-3.52,1.46-5.42.77.16,1.5.29,2.22.47.14.04.31.24.35.39.4,1.71.78,3.42,1.14,5.03Z"/>
      <path class="cls-1" d="M97.88,65.84c.49,1.86.93,3.56,1.38,5.27-1.68.11-3.32.22-5.09.33.04-.22.11-.56.18-.91.26-1.2.55-2.4.75-3.61.1-.62.35-.87.97-.89.59-.02,1.17-.13,1.81-.2Z"/>
      <path class="cls-1" d="M79.97,73.28c-1.74-.42-3.35-.81-5.04-1.23.48-1.56.94-3.06,1.42-4.62.72.16,1.39.28,2.05.46.17.05.38.25.42.42.39,1.61.75,3.23,1.14,4.96Z"/>
      <path class="cls-1" d="M87.51,73.21c.35-1.71.64-3.24.99-4.77.05-.21.32-.44.54-.52.59-.2,1.2-.33,1.91-.52.55,1.48,1.1,2.94,1.69,4.52-1.7.42-3.34.83-5.13,1.28Z"/>
      <path class="cls-1" d="M81.71,73.71c.45-1.63.83-3.09,1.28-4.53.06-.2.45-.39.69-.4.19-.01.52.22.58.4.44,1.44.83,2.89,1.29,4.52h-3.84Z"/>
      <path class="cls-1" d="M33.22,93.25c-.12.67-.1,1.14-.29,1.49-.18.33-.56.61-.92.78-.12.06-.63-.33-.63-.5.01-.43.11-.96.38-1.24.27-.28.81-.31,1.45-.53Z"/>
      <path class="cls-1" d="M34,99.3c-.55.49-.91.81-1.27,1.13-.24-.32-.71-.69-.66-.96.07-.39.47-.79.83-1.03.11-.07.57.44,1.1.86Z"/>
      <path class="cls-1" d="M34.92,78.92c-.53.39-.85.8-1.11.77-.29-.04-.53-.48-.79-.74.28-.24.53-.61.83-.67.24-.04.55.31,1.07.64Z"/>
      <path class="cls-1" d="M33.66,89.07c-.42.42-.69.68-.95.94-.22-.25-.64-.52-.62-.75.03-.32.39-.61.61-.91.27.2.53.4.96.71Z"/>
      <path class="cls-1" d="M36.3,111.78c-.52.37-.85.78-1.11.74-.29-.05-.51-.51-.76-.79.28-.22.55-.57.86-.61.24-.03.53.33,1.01.65Z"/>
      <path class="cls-1" d="M85.28,24.58c0,1.11-.51,1.64-1.21,1.63-.7-.01-1.02-.43-1.03-1.08-.01-.69.71-1.51,1.28-1.34.44.13.76.62.96.79Z"/>
      <path class="cls-1" d="M83.87,162.59c-.61-.03-.96-.42-.97-1.13,0-.74.49-1.32,1.17-1.32.75,0,1.05.48,1.09,1.15.04.74-.47,1.29-1.29,1.3Z"/>
      <path class="cls-1" d="M48.2,150.44c-.59.35-.96.73-1.25.68-.31-.06-.53-.53-.79-.83.32-.23.62-.61.96-.64.25-.03.56.39,1.08.79Z"/>
      <path class="cls-1" d="M49.61,36.28c-.62.37-.98.76-1.26.71-.32-.05-.57-.5-.85-.78.3-.26.58-.69.91-.73.28-.03.61.39,1.19.81Z"/>
      <path class="cls-1" d="M121.45,150.55c-.32.22-.66.63-.95.6-.31-.04-.57-.5-.86-.77.26-.26.52-.7.8-.72.32-.02.67.34,1,.53,0,.12,0,.24.01.36Z"/>
      <path class="cls-1" d="M121,36.22c-.55.39-.9.82-1.12.76-.36-.1-.64-.51-.96-.79.27-.25.54-.68.82-.69.32-.01.66.35,1.26.71Z"/>
      <path class="cls-1" d="M134.97,52.5c-.41-.56-.86-.92-.81-1.19.05-.3.55-.67.89-.71.22-.03.71.48.71.75,0,.31-.4.63-.79,1.16Z"/>
      <path class="cls-1" d="M32.49,50.16c.41.54.83.84.83,1.16,0,.26-.49.75-.73.74-.32-.02-.81-.41-.87-.7-.05-.28.38-.64.76-1.19Z"/>
      <path class="cls-1" d="M137.28,135.91c-.62.44-.96.78-1.37.92-.14.05-.46-.37-.69-.58.31-.34.58-.75.95-.98.13-.08.54.3,1.1.64Z"/>
      <path class="cls-1" d="M131.74,131.21c.43.54.89.87.85,1.13-.04.3-.5.69-.83.75-.22.04-.72-.43-.74-.69-.02-.3.35-.63.72-1.2Z"/>
      <path class="cls-1" d="M32.44,136.11c-.5.37-.87.78-1.02.71-.37-.16-.65-.55-.97-.84.25-.26.54-.75.74-.72.37.07.69.44,1.25.85Z"/>
      <path class="cls-1" d="M36.66,132.29c-.51.4-.82.83-1.08.79-.33-.05-.61-.46-.92-.71.28-.26.54-.68.86-.74.26-.05.6.33,1.13.66Z"/>
      <path class="cls-1" d="M26.96,74.64c-.57.45-.88.89-1.22.91-.26.02-.82-.53-.78-.74.06-.36.45-.79.8-.91.22-.08.62.36,1.2.74Z"/>
      <path class="cls-1" d="M20.77,72.92c-.55.38-.88.74-1.26.83-.19.04-.49-.42-.74-.65.34-.3.66-.66,1.05-.85.13-.06.48.33.95.68Z"/>
      <path class="cls-1" d="M149.89,95.88c-.36-.53-.77-.89-.72-1.13.08-.33.51-.58.8-.86.27.28.74.55.76.85.02.29-.43.61-.84,1.14Z"/>
      <path class="cls-1" d="M65.36,30.73c.61-.49.94-.97,1.3-1,.71-.06,1.13.53,1.02,1.18-.06.37-.64.96-.89.92-.44-.08-.8-.58-1.44-1.1Z"/>
      <path class="cls-1" d="M65.9,23.58c-.61.46-.95.92-1.32.95-.66.05-.93-.55-.79-1.11.1-.37.52-.66.8-.98.36.31.72.62,1.31,1.13Z"/>
      <path class="cls-1" d="M142.63,74.75c-.59.42-.96.88-1.2.82-.35-.08-.77-.52-.83-.87-.04-.22.49-.77.78-.78.33-.01.67.42,1.25.83Z"/>
      <path class="cls-1" d="M147.44,71.85c.39.54.75.85.83,1.23.04.19-.41.49-.64.74-.33-.32-.73-.6-.96-.98-.06-.1.37-.5.76-.99Z"/>
      <path class="cls-1" d="M17.76,95.7c-.41-.55-.84-.87-.83-1.17.01-.31.46-.59.72-.89.29.27.77.5.81.8.04.3-.35.67-.7,1.26Z"/>
      <path class="cls-1" d="M103.23,22.52c.22.35.69.84.6,1.01-.26.46-.72.88-1.19,1.08-.16.07-.95-.71-.89-.84.23-.49.69-.88,1.06-1.3.14.02.28.03.42.05Z"/>
      <path class="cls-1" d="M102.05,30.43c-.09.99-.38,1.55-1.11,1.44-.33-.05-.78-.55-.82-.89-.08-.64.33-1.22,1.02-1.19.36.02.69.48.91.64Z"/>
      <path class="cls-1" d="M148.03,117.37c-.41-.62-.81-.97-.82-1.33,0-.28.46-.57.72-.86.3.3.76.57.84.92.06.27-.36.65-.75,1.27Z"/>
      <path class="cls-1" d="M141.98,115.6c-.4-.47-.65-.77-.9-1.06.3-.25.61-.7.9-.68.32.02.63.45.94.71-.26.29-.52.57-.93,1.03Z"/>
      <path class="cls-1" d="M102.92,159.98c.45.62.82.93.91,1.31.13.55-.55,1.13-1.16,1.09-.6-.04-1.04-.39-.87-.96.13-.45.6-.8,1.13-1.44Z"/>
      <path class="cls-1" d="M100.37,153.86c.22.38.58.75.61,1.14.05.62-.39.99-1.03.91-.61-.08-1.01-.52-.86-1.11.1-.37.55-.66.84-.98.14.01.29.03.43.04Z"/>
      <path class="cls-1" d="M20.28,116.32c-.63.29-1.02.63-1.28.55-.37-.12-.63-.54-.94-.84.3-.22.64-.66.9-.62.38.06.71.46,1.32.91Z"/>
      <path class="cls-1" d="M26.45,114.62c-.33.22-.67.61-1,.61-.33,0-.65-.41-.98-.64.29-.27.56-.72.89-.77.32-.05.71.29,1.07.46,0,.11.02.23.02.34Z"/>
      <path class="cls-1" d="M65.72,160.76c.24.37.75.85.66,1.1-.16.43-.66.83-1.11,1.01-.16.07-.89-.59-.84-.79.12-.49.54-.9.85-1.34.15,0,.3.02.45.02Z"/>
      <path class="cls-1" d="M66.62,154.97c.35-.26.73-.75,1.04-.72.35.04.89.57.9.88,0,.33-.5.88-.85.94-.31.06-.72-.42-1.08-.67v-.44Z"/>
      <path class="cls-1" d="M74.69,145.41c-1.79-2.63-2.54-2.77-6.16-1.06.27-1.47.85-2.67,2.1-3.46.88-.56,1.76-.45,2.61.27,1.34,1.13,1.45,2.68,1.45,4.25Z"/>
      <path class="cls-1" d="M100.44,143.82c-2.48-.79-4.79-1.06-5.87,2.1-.86-2.32-.05-4.58,1.76-5.17,1.54-.49,3.54.96,4.11,3.06Z"/>
      <path class="cls-1" d="M56.5,57.36c.62.59,1.18,1.13,1.88,1.79h-3.77c.66-.62,1.23-1.17,1.89-1.79Z"/>
      <path class="cls-1" d="M113.58,59.55c-1.49-.07-2.8-.12-4.34-.19.74-.92,1.35-1.67,2.04-2.52.77.91,1.48,1.73,2.31,2.71Z"/>
      <path class="cls-1" d="M75.82,48.35c5.37-1.2,10.64-1.5,16.02.03-.38,2.06-.75,4.2-1.16,6.32-.47,2.43-.48,2.42-2.96,2.42-3.16,0-6.32-.02-9.48.01-.71,0-1-.22-1.11-.92-.41-2.62-.86-5.23-1.31-7.86ZM81.12,52.38c-1.04.82-1.86,1.46-2.72,2.14.17.42.35.87.59,1.46.93-1,1.76-1.88,2.68-2.87.86.92,1.68,1.79,2.53,2.7.64-.95,1.23-1.81,1.87-2.75.45.72.76,1.31,1.15,1.84.3.42.69.77,1.05,1.15.35-.42.7-.85,1.04-1.28.03-.04.01-.12.01-.16-.86-.69-1.7-1.38-2.66-2.14.8-.51,1.42-1.03,2.13-1.34,1.03-.45,1.18-1.24,1.16-2.38-1.23.98-2.35,1.86-3.5,2.77-.65-1.22-1.23-2.32-1.87-3.52-.94.87-1.88,1.63-2.68,2.51-.69.77-1.2.74-1.94.09-.71-.63-1.55-1.12-2.31-1.66-.57,1.21-.03,1.71.94,2.09.81.32,1.54.8,2.55,1.34Z"/>
      <path class="cls-1" d="M57.19,63.4c.65-.13,1.13-.28,1.61-.3.32-.01.84.1.91.3.12.31.08.95-.13,1.07-.33.2-.92.24-1.27.08-.41-.19-.69-.67-1.13-1.15Z"/>
      <path class="cls-1" d="M107.81,62.51c.76.04,1.34.08,2.06.12-.46.88-.84,1.64-1.26,2.37-.09.15-.33.22-.5.33-.1-.18-.28-.35-.29-.53-.03-.72-.01-1.43-.01-2.29Z"/>
      <path d="M74.47,117.65c2.26-1.88,16.43-1.93,19.1-.04-.52.2-.92.46-1.34.5-2.42.25-4.84.62-7.26.61-3.05-.02-6.11-.35-9.16-.59-.43-.03-.84-.29-1.35-.48Z"/>
      <path d="M81.12,52.38c-1-.54-1.74-1.02-2.55-1.34-.96-.38-1.5-.88-.94-2.09.77.54,1.6,1.03,2.31,1.66.74.65,1.25.68,1.94-.09.8-.89,1.74-1.64,2.68-2.51.64,1.2,1.22,2.3,1.87,3.52,1.15-.91,2.27-1.79,3.5-2.77.02,1.14-.13,1.93-1.16,2.38-.71.31-1.32.82-2.13,1.34.95.77,1.8,1.45,2.66,2.14,0,.04.02.12-.01.16-.34.43-.69.85-1.04,1.28-.35-.38-.74-.73-1.05-1.15-.39-.53-.7-1.12-1.15-1.84-.64.94-1.22,1.8-1.87,2.75-.85-.91-1.66-1.78-2.53-2.7-.93.99-1.75,1.87-2.68,2.87-.24-.59-.42-1.04-.59-1.46.87-.68,1.68-1.32,2.72-2.14Z"/>
    </g>
  </g>
</svg>