<?xml version="1.0" encoding="UTF-8"?>
<svg id="Ebene_1" xmlns="http://www.w3.org/2000/svg" viewBox="0 0 568 565.16">
  <g id="Ebene_4">
    <circle cx="283.46" cy="282.15" r="164.95" style="fill: none; stroke: #1d1d1b; stroke-miterlimit: 10; stroke-width: 4px;"/>
  </g>
  <rect width="568" height="565.16" style="fill: #fef5e7;"/>
  <g id="Ebene_1-2" data-name="Ebene_1">
    <path d="M262.14,119.89c1.32-6.6,2.55-12.82,3.78-19,5.13-25.44,10.27-50.85,15.43-76.26.23-1.14,1.03-2.2,1.55-3.29.62,1.11,1.53,2.17,1.76,3.34,6.13,31.07,12.17,62.16,18.22,93.23.12.59.09,1.2.12,2.09-13.61-1.87-27.08-1.78-40.89-.11h.03ZM285.81,89.8c-.59-.47-1.55-1.84-2.82-2.2-1.67-.47-3.78,1.78-3.76,3.73,0,1.81.97,2.95,3.02,3.01,2.05.03,3.52-1.45,3.55-4.54h.01Z" style="fill: #010101;"/>
    <path d="M279.85,535.89c-6.75-30.32-13.52-60.63-20.36-91.34,2.05.11,3.78.17,5.49.31,11.29.98,22.59,1,33.85-.61,2.49-.36,3.23.31,2.73,3.09-.85,4.51-1.88,8.97-2.93,13.43-5.52,23.71-11.06,47.4-16.63,71.08-.32,1.34-.76,2.67-1.17,4.01h-.97v.03h0ZM280.17,474.34c2.41,0,3.9-1.56,3.78-3.62-.12-1.87-1-3.2-3.2-3.2-1.99,0-3.46,1.62-3.43,3.68,0,1.98,1.06,3.06,2.85,3.15h0Z" style="fill: #010101;"/>
    <path d="M134.61,483.17c14.58-24.49,29.16-48.98,43.92-73.78,10.03,8.36,20.74,15.24,33.27,20.93-25.79,18.03-51.13,35.75-76.45,53.44-.23-.2-.5-.39-.73-.59h-.01ZM177.03,440.49c-1.53-1.14-2.41-2.28-3.17-2.2-1,.11-1.88,1.14-2.82,1.78.76.81,1.44,2.15,2.32,2.31.82.14,1.91-.92,3.67-1.89h0Z" style="fill: #010101;"/>
    <path d="M212,133.32c-10.74,6.74-21.21,13.32-32.18,20.2-13.85-24.44-27.99-49.37-42.1-74.28.15-.14.26-.28.41-.39,24.73,18.25,49.46,36.47,73.87,54.5v-.03ZM181.17,122.4c-1.7-1.17-2.67-2.34-3.49-2.26-.97.11-1.79,1.31-2.67,2.03.82.78,1.55,2.03,2.49,2.17.82.14,1.88-.95,3.7-1.98l-.03.03h0Z" style="fill: #010101;"/>
    <path d="M351.16,429.45c10.47-6.69,20.77-13.24,31.33-19.98,14.64,24.69,29.51,49.76,44.39,74.87-.18.14-.35.28-.53.42-25.11-18.47-50.22-36.95-75.16-55.31h-.03ZM390.42,440.79c0-.33,0-.67-.03-1-.97-.53-1.99-1.53-2.93-1.48-.82.06-1.55,1.28-2.35,2.01.82.75,1.61,2.03,2.52,2.15.85.08,1.85-1.06,2.79-1.67h0Z" style="fill: #010101;"/>
    <path d="M384.35,154.08c-11.09-7.05-21.59-13.71-32.53-20.67,23.41-17.67,47.03-35.5,70.67-53.36.23.17.47.31.7.47-12.97,24.58-25.96,49.15-38.84,73.53v.03ZM390.6,122.23c-1.76-1-2.76-2.01-3.7-1.98-.82.03-1.61,1.23-2.41,1.92.94.78,1.76,1.92,2.82,2.2.65.17,1.67-1.03,3.29-2.12v-.03h0Z" style="fill: #010101;"/>
    <path d="M419.19,197.19c-1.38-3.54-2.52-6.3-3.52-9.11-.76-2.2-1.82-4.01-4.22-4.9-.59-.22-1.2-.56-1.61-1-4.64-5.24-9.24-10.5-14.11-16.08,26.4-11.56,52.78-23.13,79.15-34.69.12.17.26.31.38.47-18.51,21.57-37.02,43.13-56.06,65.31h-.01ZM430.08,167.59c1.14-1.48,2.32-2.37,2.32-3.23,0-.75-1.44-2.15-2.08-2.09-1,.11-2.46,1.17-2.61,1.98-.12.78,1.2,1.76,2.38,3.32v.03h-.01Z" style="fill: #010101;"/>
    <path d="M165.42,165.64c-8.3,10.14-16.16,19.81-24.35,29.81-17.95-21.06-36.2-42.44-54.45-63.81.06-.11.12-.25.18-.36,26.34,11.51,52.72,23.04,78.62,34.36ZM130.95,161.07c-1.11,1.56-2.38,2.56-2.23,3.32.15.81,1.58,1.89,2.55,1.95.73.06,2.17-1.34,2.14-2.06,0-.89-1.23-1.73-2.43-3.23l-.03.03h0Z" style="fill: #010101;"/>
    <path d="M471.06,430.76c-24.96-11.12-49.93-22.21-74.98-33.35,8.6-10.09,16.99-19.98,25.64-30.12,16.6,20.95,33.21,41.93,49.81,62.92-.15.2-.32.36-.47.56h0ZM436.85,400c-1.64-.95-2.85-2.01-3.23-1.78-1.11.64-1.88,1.78-2.79,2.73.67.59,1.61,1.76,2.02,1.62,1.2-.39,2.2-1.34,4.02-2.56h-.03.01ZM420.6,386.91c-1.06,1.56-2.17,2.48-2.11,3.34.06.72,1.55,2.03,2.17,1.92.97-.17,2.29-1.25,2.43-2.09.12-.72-1.23-1.64-2.49-3.15v-.03h0Z" style="fill: #010101;"/>
    <path d="M89.82,428.81c16.52-20.31,33.06-40.6,50.11-61.55.44,1.7.56,2.76,1,3.71.91,1.95,1.58,4.18,3.08,5.66,6.72,6.77,13.67,13.32,21.24,20.65-25.52,11.09-50.11,21.76-74.69,32.43l-.73-.89h0ZM130.8,400.56c-1.64-1.14-2.58-2.17-3.67-2.37-.59-.11-1.44,1.28-2.17,2.01.94.84,1.73,1.89,2.85,2.34.44.2,1.5-.95,2.99-1.98h0ZM143.18,389.92c-1.55-.92-2.55-1.98-3.31-1.84-.94.17-1.7,1.34-2.52,2.06.88.7,1.7,1.87,2.7,1.98.73.08,1.67-1.11,3.17-2.2h-.04Z" style="fill: #010101;"/>
    <path d="M130.07,216.3c-3.61,10.23-7.04,20.03-10.65,30.26-27.87-12.79-55.83-25.66-83.78-38.51,0-.2.06-.42.09-.61,31.48,2.95,62.96,5.93,94.34,8.89v-.03ZM114.72,229.28c-1.73-1.06-2.87-2.26-3.52-2.06-1.03.33-2.14,1.53-2.35,2.54-.12.59,1.53,2.12,2.29,2.06,1-.06,1.91-1.28,3.58-2.54ZM96.57,224.49c-1.41-.98-2.41-2.06-2.79-1.89-1.17.53-2.08,1.56-3.08,2.37.73.64,1.61,1.95,2.17,1.81,1.14-.25,2.08-1.23,3.7-2.31v.03h0Z" style="fill: #010101;"/>
    <path d="M445.98,302.57v-35.53c26.87,6.85,53.54,13.63,80.18,20.42v.59c-26.81,4.85-53.63,9.7-80.2,14.49l.03.03h-.01ZM475.17,289.78c1.2-1.48,2.52-2.37,2.46-3.18-.06-.84-1.44-1.59-2.23-2.37-.82.78-2.11,1.48-2.35,2.4-.18.67,1.06,1.64,2.11,3.15h.01Z" style="fill: #010101;"/>
    <path d="M227.73,127.94c-8.54-29.76-17.16-59.82-25.79-89.86.23-.11.5-.2.73-.31,18.16,27.19,36.32,54.36,54.56,81.7-9.94,2.87-19.45,5.6-29.51,8.5v-.03h0ZM227.37,106.94c1.88,1.45,2.93,2.81,4.22,3.06.73.14,2.43-1.53,2.61-2.56.32-1.81-.91-3.46-2.99-3.29-1.09.08-2.05,1.42-3.81,2.79h-.03ZM228.96,87.01c-1.73-1.42-2.79-2.28-3.84-3.15-.82.89-2.05,1.7-2.35,2.73-.44,1.56.35,3.23,2.32,3.09,1.11-.08,2.11-1.39,3.87-2.65v-.03h0Z" style="fill: #010101;"/>
    <path d="M430.72,216.49c31.27-2.81,62.46-5.6,93.64-8.39.06.17.12.31.21.47-27.55,12.51-55.12,24.99-82.52,37.45-3.78-9.89-7.48-19.53-11.29-29.51l-.03-.03h-.01ZM452.55,229.59c-1.7-1.14-2.73-2.34-3.67-2.31-.85.03-2.41,1.56-2.29,2.17.18.98,1.44,2.17,2.43,2.42.73.17,1.82-1.11,3.52-2.28h.01ZM466.66,221.51c-1.14,1.37-2.41,2.48-2.23,2.76.67,1.06,1.82,1.84,2.82,2.73.67-.7,1.99-1.53,1.88-2.06-.23-1.03-1.29-1.92-2.43-3.43h-.04Z" style="fill: #010101;"/>
    <path d="M116.84,265.9v34.91c-26.4-4.71-53.07-9.47-79.74-14.24v-.61c26.46-6.66,52.95-13.32,79.74-20.06h0ZM87.74,287.96c1.03-1.64,2.2-2.67,2.05-3.51-.12-.84-1.53-1.5-2.38-2.23-.76.84-2.08,1.62-2.11,2.48-.03.84,1.23,1.73,2.43,3.26h0Z" style="fill: #010101;"/>
    <path d="M307.32,119.22c17.72-27.53,35.35-54.95,52.98-82.36.18.08.35.14.53.22-1.85,6.58-3.7,13.15-5.52,19.76-6.1,22.12-12.2,44.27-18.31,66.4-1.17,4.26-1.76,4.4-6.22,3.01-7.66-2.4-15.37-4.6-23.47-7.02h0ZM338.47,84.06c-.41-.06-.82-.08-1.23-.14-1.09,1.2-2.43,2.26-3.11,3.62-.18.36,2.14,2.54,2.61,2.34,1.41-.56,2.76-1.76,3.49-3.01.29-.47-1.11-1.87-1.76-2.81h0ZM335.01,106.1c-.62-.45-1.61-1.76-2.67-1.78-2.02-.08-3.23,1.53-2.99,3.32.12.95,1.47,2.34,2.41,2.48,2.14.31,2.99-1.25,3.26-4.01h-.01Z" style="fill: #010101;"/>
    <path d="M524.95,361.91c-31.36-4.01-62.69-8.05-93.99-12.06,3.26-9.39,6.31-18.22,9.53-27.56,28.19,12.87,56.41,25.77,84.63,38.67-.06.31-.12.61-.15.92l-.03.03h.01ZM468.39,348.34c1.14-1.73,2.38-2.79,2.2-3.54-.23-.98-1.61-1.73-2.46-2.56-.76.81-2.14,1.62-2.11,2.4.03,1,1.2,1.98,2.41,3.71h-.04ZM450.64,343.41c1.23-1.28,1.97-2.09,2.73-2.87-.91-.7-1.79-1.92-2.76-1.98-.85-.06-1.76,1.23-2.64,1.89.73.81,1.47,1.64,2.64,2.95h.03Z" style="fill: #010101;"/>
    <path d="M305.66,446.34c8.65-2.17,16.87-4.21,25.08-6.35,3.43-.89,4.84-.45,5.84,2.81,1.58,5.15,2.96,10.37,4.37,15.55,5.34,19.76,10.68,39.54,15.99,59.29.26.98.5,1.95.73,2.95l-.82.39c-17.07-24.91-34.15-49.79-51.19-74.62v-.03h0ZM336.06,467.07c-1.55,1.78-2.93,2.76-3.31,4.01-.5,1.62.79,2.59,2.55,2.67,1.79.11,3.78-1.53,3.4-3.04-.26-1.06-1.35-1.92-2.67-3.65h.03ZM328.57,450.02c-.41-.03-.85-.08-1.26-.11-.85.89-2.17,1.7-2.46,2.73-.44,1.64.73,2.87,2.52,3.09,1.88.22,3.17-.81,3.02-2.54-.09-1.09-1.17-2.12-1.79-3.18h-.03,0Z" style="fill: #010101;"/>
    <path d="M130.21,349.32c-30.92,3.57-61.72,7.11-92.5,10.67-.06-.2-.15-.39-.21-.59,27.9-12.34,55.8-24.69,83.7-37.03,2.99,8.97,5.96,17.8,9.04,26.97l-.03-.03h0ZM95.13,345.42c-1.82-1.25-2.76-2.37-3.87-2.54-.76-.11-1.76,1.11-2.64,1.73.91.81,1.7,2.01,2.76,2.34.76.22,1.91-.72,3.76-1.53h-.01ZM113.23,340.68c0-.31-.06-.64-.06-.95-1.06-.47-2.2-1.45-3.14-1.28-.97.14-1.76,1.39-2.61,2.15.97.64,1.91,1.76,2.87,1.78.97,0,1.97-1.09,2.93-1.7h0Z" style="fill: #010101;"/>
    <path d="M255.82,445.25c-17.1,25.16-34.29,50.49-51.48,75.79-.21-.08-.41-.17-.62-.22,1.06-3.93,2.08-7.89,3.14-11.81,5.93-21.79,11.85-43.58,17.78-65.37.85-3.15,3.96-4.76,7.3-3.96,7.8,1.87,15.61,3.68,23.88,5.6v-.03h0ZM226.93,469.24c-.44,0-.88-.06-1.32-.06-.88,1.23-2.14,2.4-2.49,3.73-.15.56,1.99,2.4,2.46,2.2,1.32-.5,2.76-1.62,3.26-2.81.26-.7-1.23-2.03-1.94-3.06h.03ZM229.57,453.11v1.23c1.09.67,2.29,2.01,3.2,1.87,1.03-.17,2.52-1.7,2.49-2.62,0-.89-1.61-2.34-2.64-2.45-.91-.11-2.02,1.28-3.05,2.01v-.03h0Z" style="fill: #010101;"/>
    <path d="M455.45,191.11c-9.21,6.38-18.39,12.76-27.81,19.28-2.26-3.79-4.31-7.27-6.54-11.01,11.47-3.15,22.68-6.21,33.85-9.31l.47,1.03h.03Z" style="fill: #010101;"/>
    <path d="M133.12,210.59c-9.04-6.58-17.75-12.93-26.49-19.28.15-.33.32-.64.47-.98,10.74,3.06,21.47,6.16,32.42,9.28-2.2,3.79-4.2,7.22-6.4,10.98Z" style="fill: #010101;"/>
    <path d="M385.37,156.98c8.21-6.74,16.28-13.35,24.38-19.98.35.25.67.47,1.03.72-5.34,9.11-10.68,18.22-16.16,27.56-3.31-2.98-6.04-5.43-9.24-8.3h-.01Z" style="fill: #010101;"/>
    <path d="M423.56,362.61c2.64-3.65,5.05-6.99,7.63-10.59,6.34,4.57,12.23,8.8,18.1,13.04,1.32.95,2.7,1.87,3.99,2.87.41.33.56.98.85,1.45-.65.14-1.35.53-1.91.42-3.14-.75-6.22-1.67-9.36-2.45-6.22-1.56-12.47-3.06-19.3-4.76v.03h0Z" style="fill: #010101;"/>
    <path d="M175.86,156.42c-2.85,2.81-5.25,5.24-8.01,7.94-6.95-8.22-11.38-17.72-16.6-26.78.26-.22.56-.47.82-.7,7.98,6.55,15.99,13.1,23.79,19.5v.03h0Z" style="fill: #010101;"/>
    <path d="M471.85,313.85c-10,1.14-20.01,2.28-30.3,3.46.12-4.26.94-8.16,2.9-11.76.23-.42,1.44-.75,2.02-.59,8.51,2.7,16.96,5.49,25.43,8.25,0,.22-.03.42-.06.64h.01Z" style="fill: #010101;"/>
    <path d="M117.39,304.29c.91,4.35,1.79,8.39,2.73,12.93-10.15-1.2-19.77-2.34-29.42-3.48,0-.2-.06-.39-.09-.59,8.77-2.9,17.51-5.8,26.75-8.86,0,0,.03,0,.03,0Z" style="fill: #010101;"/>
    <path d="M132.12,351.24c1.2,3.26,2.43,6.32,3.37,9.47.18.56-.59,1.92-1.17,2.09-9.04,2.56-18.1,4.96-27.52,6.94,8.18-5.99,16.4-11.98,25.32-18.5Z" style="fill: #010101;"/>
    <path d="M394.87,398.22c4.75,8.11,9.27,15.85,13.82,23.63-.15.11-.29.22-.47.33-7.42-5.15-14.81-10.31-21.8-15.16,2.76-2.87,5.34-5.57,8.42-8.8h.03,0Z" style="fill: #010101;"/>
    <path d="M151.98,421.85c4.31-7.55,8.62-15.07,13.14-22.99,2.82,2.87,5.43,5.54,8.18,8.36-7.13,5.1-14.05,10-20.95,14.91-.15-.11-.26-.2-.41-.31l.03.03h.01Z" style="fill: #010101;"/>
    <path d="M92.22,253.02c8.83-.78,17.66-1.53,26.93-2.37-.7,3.85-1.32,7.24-1.99,10.92-8.54-2.73-16.81-5.41-25.08-8.05l.15-.5h-.01Z" style="fill: #010101;"/>
    <path d="M445.36,262.56c-.67-3.57-1.29-6.77-1.99-10.62,9.59.84,18.51,1.64,27.43,2.42l.12.56c-8.3,2.48-16.6,4.96-25.55,7.63h-.01Z" style="fill: #010101;"/>
    <ellipse cx="281.44" cy="282.65" rx="164.61" ry="163.93" style="fill: none; stroke: #010101; stroke-miterlimit: 10;"/>
  </g>
</svg>