<?xml version="1.0" encoding="UTF-8"?>
<svg id="Mitte" xmlns="http://www.w3.org/2000/svg" viewBox="0 0 113.57 113.57">
  <g id="Kapitel2_x5F_Illu1">
    <g>
      <path d="M54.74,55.58v6.7c-2.1.16-4.18.22-6.22.5-4.09.55-7.95,1.8-11.44,3.93-4.58,2.8-6.17,6.53-4.71,11.5,2.01,6.84,7.14,10.77,13.89,13.08.05.02.13-.02.19-.03.02-.06.06-.11.06-.17.11-1.7.11-1.68-1.59-2.17-2.18-.64-4.13-1.64-5.7-3.26-2.55-2.61-2.51-6.17.11-8.71,1.94-1.87,4.4-2.76,7.02-3.23,4.89-.87,9.83-.99,14.77-.65,2.58.18,5.17.55,7.71,1.03,1.99.38,3.76,1.33,5.23,2.71,2.74,2.57,2.79,6.3.13,8.93-1.7,1.68-3.7,2.65-7.3,3.56v1.95c.17,0,.27.05.34.02,6-2.08,10.85-5.43,13.25-11.32,1.15-2.81,1.66-5.7.29-8.61-.98-2.09-2.61-3.63-4.63-4.78-4.82-2.77-10.07-4.12-15.69-4.18h-1.76v-7.31c.17.27.27.41.35.56,1.42,2.52,3.53,4.29,6.36,5.24,2.92.98,5.9,1.8,8.77,2.89,1.72.66,3.43,1.51,4.9,2.57,3.33,2.41,4.14,5.86,3.64,9.63-1.15,8.43-8.27,15.76-16.96,17.54-.09.02-.2,0-.48,0v-3.98c-2.68.12-5.17.23-7.71.35v23.26h-1.39v-23.23c-2.76-.13-5.35-.25-8.05-.38v4c-3.16-.56-5.95-1.68-8.38-3.44-5.17-3.74-8.41-8.61-9.1-14.85-.46-4.13,1.01-7.59,4.85-9.69,2.29-1.25,4.88-2.01,7.36-2.92,1.69-.62,3.43-1.1,5.15-1.66,2.93-.96,5.23-2.63,6.73-5.36v-.03ZM59.02,75.08c1.69.11,3.27.14,4.82.35,1.69.23,3.41.46,5.01.99,1.83.62,3.15,1.87,3.25,3.88.11,2.14-1.03,3.6-2.95,4.5-.81.39-1.73.64-2.63.77-5.76.86-11.55.96-17.35.33-1.86-.21-3.73-.48-5.35-1.49-2.1-1.3-2.94-3.64-1.93-5.55.89-1.68,2.46-2.56,4.3-2.86,2.36-.38,4.76-.55,7.16-.8.57-.06,1.15-.09,1.81-.14-.19-.56-.38-.96-.46-1.39-.11-.55-.45-.61-.94-.55-1.64.2-3.27.36-4.91.59-2.6.36-5.09,1.03-7.23,2.58-4.04,2.94-3.75,7.44.66,9.85,2.24,1.22,4.7,1.88,7.27,1.89,5.41,0,10.81-.04,16.22-.15,2.58-.05,4.87-1.07,6.84-2.62,2.36-1.85,2.79-4.53,1.2-7-.97-1.5-2.38-2.5-4.03-3.22-3.22-1.39-6.68-1.53-10.16-1.91-.2.64-.38,1.23-.6,1.97h-.02ZM56.85,83.7l.02-.16c1.71-.08,3.43-.13,5.14-.24.89-.06,1.79-.13,2.64-.36,1.34-.37,2.74-.73,3.95-1.36,1.38-.72,1.31-2.07-.02-2.86-.66-.39-1.42-.71-2.17-.85-5.91-1.16-11.85-1.06-17.78-.23-1.11.16-2.25.53-3.25,1.03-1.56.79-1.57,2.14-.05,2.99.9.5,1.91.94,2.92,1.09,2.85.41,5.74.65,8.62.95h0Z"/>
      <path d="M98.36,18.97c-1.42-.09-2.7-.2-3.98-.24-1.08-.04-2.17.04-3.24,0-.35-.02-.73-.22-1.02-.43-2.17-1.49-4.29-3.02-6.47-4.5-3.05-2.08-6.54-3.19-10.07-4.23-2.29-.68-4.56-1.54-6.91-1.88-2.85-.41-5.78-.38-8.67-.51-5.94-.26-11.81.39-17.51,1.89-5.92,1.56-11.24,4.41-16.14,7.97-.8.59-1.83.98-2.81,1.21-2,.46-4.05.75-6.28,1.13,20.43-24.7,61.2-25.54,83.13-.41h-.02ZM33.5,9.67c-.55-.54-1.08-1.1-1.69-1.58-.19-.15-.68-.19-.85-.06-.18.13-.27.65-.15.79.51.59,1.06,1.18,1.72,1.61.54.35.82-.05.98-.77h-.01ZM37.09,7.18c.13,0,.25,0,.36-.02.19-.28.61-.72.54-.8-.3-.39-.74-.7-1.17-.97-.05-.03-.54.37-.51.45.21.47.51.9.78,1.35h-.01ZM77.92,8.84c.44-.37.79-.67,1.14-.96-.31-.15-.67-.48-.93-.42-.44.09-.81.43-1.21.66.28.2.56.41,1,.73ZM27.56,10.69c-.43.48-.7.77-.97,1.07.31.21.64.6.93.57.3-.03.68-.42.78-.73.06-.16-.38-.49-.74-.9h0ZM88.89,13.56c.45-.37.74-.61,1.03-.84-.28-.19-.57-.55-.85-.54-.32,0-.65.33-.97.52.22.25.45.49.78.85h.01ZM85.71,10.62c-.47-.57-.95-.9-1.61-.58-.14.07-.22.6-.1.72.52.53,1.07.38,1.72-.14Z"/>
      <path d="M99.52,28.39c1.92,0,3.55-.03,5.17.03.29,0,.67.34.83.62,3.87,6.58,6.26,13.64,7.18,21.15,1.22,9.96-.01,19.62-3.78,28.97-2.24,5.57-5.41,10.65-9.53,15.14-.24.26-.7.47-1.05.46-4-.07-8.01-.17-12.01-.31-.35,0-.74-.24-1.03-.48-.94-.77-1.83-1.6-2.75-2.4-.24-.21-.48-.39-.73-.58.08-.16.1-.29.17-.31,1.46-.57,2.02-1.87,2.75-3.05,1.73-2.76,3.49-5.51,5.26-8.3,1.04.46,1.97.87,3.1,1.38-3.59,3.18-6.07,6.93-7.81,11.35.97.07,1.83.14,2.7.2,1.55.11,3.12.22,4.68.29.32,0,.75-.07.96-.27,1.44-1.4,2.84-2.85,4.32-4.36-.24-.39-.5-.83-.93-1.53.71.2,1.19.38,1.7.47.3.06.7.1.93-.04.71-.44,1.36-.97,2.21-1.6-1.55-1.26-3.04-2.45-4.66-3.78.46.02.79.02,1.12.05,2.29.24,4.07-.65,4.89-2.65.86-2.12,1.56-4.33,1.97-6.57,1.46-8.14,1.21-16.35.87-24.55-.11-2.75-.4-5.52-.97-8.23-.68-3.3-2.65-6.12-4.38-8.99-.37-.62-.72-1.24-1.21-2.12h.03ZM110.32,50.95c-.12-.03-.25-.07-.37-.1-.35.41-.79.77-1.03,1.22-.3.58-.49,1.23-.58,1.88-.03.24.35.54.54.8.29-.22.77-.39.84-.65.27-1.03.41-2.1.6-3.16h0ZM107.17,42.43v.45c.36.26.85.79,1.07.71.49-.21.84-.72,1.25-1.1-.35-.3-.71-.85-1.04-.83-.44.03-.85.5-1.28.78ZM108.41,74.73c0-.15-.01-.3-.02-.45-.36-.21-.79-.65-1.07-.58-.38.1-.64.6-.96.92.3.27.61.76.91.75.39,0,.76-.42,1.14-.65h0ZM108.53,58.06c.31.44.52.75.75,1.05.23-.37.61-.72.64-1.09.02-.31-.39-.65-.61-.96-.24.31-.47.62-.77,1h-.01ZM108.84,62.34c-.31.56-.61.84-.61,1.14,0,.26.32.52.49.78.23-.31.54-.59.64-.92.06-.19-.24-.48-.51-1h-.01Z"/>
      <path d="M9.25,59.18c2.71-.16,5.4-.32,8.26-.49.07,1.59.15,3.14.23,4.79-.72.08-1.36.12-2,.23-.57.1-1.17.22-1.69.45-.24.1-.5.52-.46.74.05.28.36.58.65.72.26.13.65.12.95.07,1.35-.25,2.7-.56,4.06-.79.52-.09.72-.28.69-.8-.18-4.08-.32-8.17-.52-12.25-.01-.26-.38-.67-.64-.73-1.16-.26-2.33-.41-3.5-.61-.06,0-.14,0-.2-.02-.74-.05-1.52.05-1.55.89-.03.78.71.96,1.41.98.72.02,1.45,0,2.3,0,.07,1.4.16,2.79.23,4.2h-8.19c-.09-.15-.16-.2-.15-.25.16-4.2.32-8.41.47-12.62.05-1.66,1.49-2.43,2.43-3.52.19-.21.68-.24,1.03-.25,2.83-.11,5.67-.22,8.5-.27,1.61-.03,2.14.46,2.19,2.01.03.94-.08,1.89-.11,2.82-.28,7.52.06,15.02.73,22.51.13,1.44.2,2.88.24,4.33.04,1.52-.68,2.68-2.05,3.42-2.63,1.4-5.48,1.95-8.47,1.74-1.39-.09-2.38-.88-2.77-2.11-.52-1.58-1.02-3.2-1.22-4.83-.41-3.31-.59-6.64-.88-9.96,0-.12.02-.24.05-.46l-.02.04Z"/>
      <path d="M103.84,58.81c-2.51-.25-5-.51-7.59-.77-.08-1.39-.17-2.75-.26-4.34h3.16c.7,0,1.43-.21,1.38-.87-.03-.39-.79-.98-1.26-1.01-1.73-.12-3.47-.05-5.27-.05-.04.54-.08.84-.08,1.14-.05,4.31-.08,8.61-.17,12.93-.01.74.19,1.05.99,1.16,1.27.18,2.51.51,3.77.75.28.06.67.14.86,0,.39-.24.83-.58.94-.95.05-.21-.5-.67-.86-.84s-.83-.16-1.25-.19c-.69-.05-1.36-.07-2.09-.11v-4.75c2.61-.16,5.2-.31,7.9-.47-.07,1.33-.09,2.55-.22,3.76-.42,3.81-.78,7.63-1.38,11.42-.39,2.46-1.8,3.21-4.33,2.64-3.32-.75-6.23-2.32-9.14-4.09,1.8-2.57,1.56-5.46,1.47-8.3-.26-7.41-.6-14.82-.95-22.24-.13-2.68.58-3.78,3.37-3.95,2.34-.15,4.73.08,7.07.31,1.41.14,2.44,1.07,2.83,2.35.5,1.61,1.03,3.28,1.1,4.94.17,3.79.05,7.59.05,11.5l-.03.03Z"/>
      <path d="M26.8,40.3c.6-1.23,1.1-2.53,1.84-3.7,3.9-6.19,9.7-9.87,17.07-11.16,7.21-1.26,14.52-1.56,21.75-.37,8.8,1.45,14.91,6.41,18.53,14.17.17.36.26.76.25,1.2-.35-.43-.7-.87-1.08-1.28-2.21-2.3-5.07-3.16-8.22-3.4-5.02-.39-9.92.35-14.76,1.55-1.46.37-2.95.78-4.45.85-1.51.07-3.05-.18-4.55-.43-3.43-.58-6.82-1.45-10.27-1.81-2.73-.29-5.54-.17-8.27.12-3.12.33-5.75,1.74-7.5,4.38-.11-.04-.22-.09-.33-.13h0ZM45.74,34.6c-.38-1.6-.77-3.3-1.19-5-.04-.15-.22-.36-.36-.39-.75-.18-1.51-.31-2.31-.47-.53,1.89-1.03,3.66-1.52,5.38,1.81.16,3.55.31,5.38.47h.01ZM71.4,28.92c-.66.07-1.27.18-1.89.2-.65.02-.91.27-1.01.88-.21,1.2-.52,2.38-.78,3.59-.07.34-.15.69-.19.9,1.84-.12,3.55-.22,5.3-.33-.47-1.7-.93-3.39-1.44-5.24h0ZM52.74,36.32c-.41-1.72-.78-3.33-1.19-4.93-.04-.17-.26-.38-.44-.42-.69-.18-1.39-.3-2.14-.46-.5,1.55-.98,3.04-1.48,4.59,1.76.41,3.44.79,5.25,1.22h-.01ZM60.59,36.25c1.85-.45,3.57-.85,5.34-1.27-.61-1.57-1.19-3.02-1.76-4.49-.74.18-1.38.31-1.99.52-.23.08-.52.31-.56.52-.36,1.51-.67,3.04-1.03,4.74h0ZM54.55,36.74h4c-.48-1.62-.89-3.07-1.34-4.49-.06-.19-.41-.41-.6-.4-.25,0-.66.2-.72.4-.47,1.43-.86,2.88-1.33,4.5h0Z"/>
      <path d="M10.89,85.08c1.71,1.14,3.19,2.52,5.42.87,0,.15,0,.29-.01.44-.33.41-.68.81-1.08,1.31.51.45,1.01.88,1.5,1.33,1.09,1,2.17,2.03,3.26,3.03.2.19.48.44.71.43,2.29-.09,4.58-.24,7.19-.38-.64-1.68-1.11-3.23-1.8-4.7-1.07-2.3-2.71-4.22-4.63-5.94-.51-.46-.92-1.01-1.46-1.63,1.16-.5,2.09-.89,3.1-1.32.48.85.93,1.69,1.4,2.5,1.94,3.4,3.94,6.76,6.93,9.46.35.32.39.54.03.92-.58.63-1.17,1.3-1.54,2.05-.34.7-.78.83-1.51.84-4.28.1-8.56.23-12.85.39-.63.02-1.01-.13-1.42-.6-6.77-7.64-11.04-16.43-12.82-26.24-2.49-13.78-.28-26.88,6.88-39.16.19-.32.64-.59,1.01-.68.76-.18,1.56-.21,2.34-.32.75-.1,1.49-.23,2.33-.36-.7,1.29-1.39,2.51-2.03,3.76-1.28,2.43-2.92,4.78-3.73,7.35-.94,2.97-1.43,6.14-1.63,9.25-.44,6.93-.4,13.89.56,20.8.32,2.32.93,4.62,1.55,6.89.27.97.83,1.91,1.42,2.77,1.16,1.74,2.9,2.6,5.05,2.7.29,0,.59.03.89.05.02,0,.03.05.1.16-1.68,1.3-3.38,2.62-5.15,4h-.02ZM4.03,56.16c-.67.22-1.22.25-1.51.53-.28.28-.39.8-.4,1.23,0,.17.53.55.66.5.38-.16.76-.44.96-.77.2-.35.18-.8.3-1.48h-.01ZM4.84,62.17c-.54-.42-1.03-.91-1.15-.85-.38.23-.79.63-.86,1.02-.05.27.44.64.69.95.38-.32.75-.64,1.32-1.12ZM5.8,41.92c-.54-.33-.86-.69-1.11-.64-.32.06-.58.43-.86.67.27.27.52.71.82.74.27.03.6-.38,1.16-.77ZM4.49,52c-.45-.32-.72-.51-1-.71-.23.3-.6.59-.64.9-.02.22.42.5.65.75.28-.26.55-.53.99-.93h0ZM7.24,74.57c-.5-.33-.8-.68-1.05-.65-.32.04-.59.39-.9.61.26.28.49.74.79.78.27.04.61-.37,1.16-.74h0Z"/>
      <path d="M55.06,52.87c-2.13-1.57-4.18-3.14-6.29-4.63-4.51-3.18-9.16-3.24-13.92-.49-2.47,1.43-4.6,3.23-6.7,5.31.41.4.76.79,1.16,1.14,4.45,3.9,9.77,5.1,15.65,4.59,1.9-.16,3.79-.34,5.73-.32-1.67.43-3.33.82-4.99,1.29-2.36.67-4.71,1.38-7.07,2.04-.3.08-.82.02-1-.17-1.3-1.46-2.88-1.51-4.57-.89-2.2.79-3.83,2.29-5.32,3.95-.27.31-.54.63-.99,1.15-.09-1.39-.2-2.55-.25-3.71-.21-4.75-.34-9.49.67-14.18,1.25-5.84,4.44-8.74,10.54-9.83,6.05-1.08,11.48.36,16.53,3.47.3.19.64.61.65.92.14,3.39.2,6.79.28,10.18,0,.05-.05.11-.09.19v-.03Z"/>
      <path d="M87.11,65.22c-1.32-1.2-2.51-2.43-3.87-3.47-.85-.66-1.91-1.11-2.95-1.47-1.49-.52-2.88-.23-3.92.99-.31.37-.59.47-1.08.33-3.96-1.16-7.93-2.3-11.89-3.46-.33-.1-.67-.22-.98-.42,2.6.27,5.2.6,7.8.78,5.68.42,10.68-1.06,14.79-4.96.57-.55.6-.88,0-1.44-2.99-2.75-6.16-5.23-10.23-6.39-2.56-.74-5.08-.59-7.32.81-2.5,1.56-4.88,3.32-7.29,5-.47.33-.93.68-1.57,1.15v-.89c-.02-3.14-.06-6.29-.04-9.43,0-.34.21-.82.48-.99,3.63-2.22,7.51-3.81,11.89-3.96,3.14-.12,6.18.37,9.06,1.55,2.68,1.09,4.35,3.08,5.32,5.65,1.23,3.26,1.59,6.67,1.72,10.09.11,3.3.08,6.6.11,9.91,0,.21-.04.42-.05.6h.01Z"/>
      <path d="M48.33,102.3v10.84c-5.34-.8-10.4-2.22-15.31-4.65,1.56-.7,3-1.32,4.43-1.96l-.02-.13c-.61.04-1.23.13-1.84.12-1.24-.03-1.85-.69-1.89-1.95-.03-1.38.57-2.1,1.83-2.19.97-.06,1.95-.11,3.08-.18-.78-.44-1.46-.75-2.04-1.16-.9-.64-1.01-1.34-.5-2.23.52-.9,1.33-1.29,2.28-.97.93.31,1.82.71,2.71,1.11,2.4,1.08,4.78,2.2,7.26,3.34h.01ZM47.24,107.98c0-1.56-.11-3.1-1.51-4.22-.89-.72-1.8-.82-2.72-.27-1.3.78-1.91,1.98-2.19,3.44,3.77-1.7,4.55-1.56,6.42,1.05Z"/>
      <path d="M76.71,102.94c.86,0,1.58-.13,2.22.03.69.17,1.47.48,1.93.97.84.89.29,2.03-.95,2.22-.86.14-1.73.24-2.79.38,1.5.55,3.06.19,4.3,1.39-5.08,2.55-10.4,4.05-15.94,5.08-.04-.31-.09-.53-.09-.74,0-2.99,0-5.97-.03-8.96,0-.6.18-.81.8-1.02,2.51-.83,4.98-1.78,7.46-2.68.98-.36,1.93-.81,2.94-1.08,1.09-.3,2,.32,2.47,1.52.38.96.17,1.49-.88,2.11-.42.25-.85.47-1.44.79h0ZM74.06,106.4c-.58-2.09-2.68-3.54-4.28-3.04-1.89.58-2.73,2.82-1.83,5.14,1.13-3.15,3.53-2.88,6.12-2.09h0Z"/>
      <path d="M16.91,34.9c1.14-1.77,2.21-3.53,3.39-5.24.94-1.36,1.99-2.64,3.97-2.57.29,0,.63-.03.88.08,1.76.81,3.51,1.67,5.37,2.55-.43.59-.8,1.11-1.28,1.78-.66-.49-1.31-.92-1.91-1.44-2.44-2.12-3.01-2.13-5.25.17-1.85,1.91-3.38,4.02-4.21,6.53-.2.59-.5.8-1.15.65-.67-.16-1.35-.24-2.09-.37,1.09-3.97,3.24-7.42,5.27-11-.55-.34-1.11-.7-1.75-1.08,1.02-1.06,1.97-2.05,2.8-2.92.23.5.45.97.67,1.48.97-.88,1.78-1.64,2.64-2.41-.38-.43-.72-.84-1.1-1.29.99-.63,1.93-1.22,3.05-1.93-.04.58-.07,1-.11,1.58,1.28-.92,2.46-1.78,3.66-2.64-.22-.32-.42-.59-.66-.93,1.18-.49,2.28-.94,3.46-1.44.1.17.23.36.39.61,1.09-.51,2.18-1.01,3.26-1.53-.1-.63-1.29-1.3.08-1.82,1.48-.56,1.98-.4,2.38.84.83-.23,1.66-.47,2.49-.7.03,1.14-.36,1.76-1.44,2.17-1.27.48-2.55.93-4.03,1.47.57.34.92.55,1.19.71-.14.56-.25,1.04-.4,1.63-1.07.21-2.31.47-3.33-.88-1.2.81-2.36,1.6-3.44,2.33,1.23,1.23,2.42,2.42,3.73,3.74-1.29.08-2.43.16-3.55.2-1.6.06-3.22.07-4.82.12-.17,0-.36.1-.49.22-3.27,3.21-6,6.76-7.61,11.02-.03.08-.02.18-.03.31v.03ZM28.28,20.5c-.69.62-1.28,1.16-1.97,1.78h3.93c-.73-.67-1.31-1.19-1.96-1.78Z"/>
      <path d="M32.25,52.62c.71-.64,1.3-1.21,1.95-1.75,3.81-3.15,8.92-3.65,13.19-1.1,1.85,1.1,3.48,2.53,5.15,3.94-3.84,1.52-7.48,3.25-11.68,3.06-3.51-.15-6.25-1.71-8.61-4.15Z"/>
      <path d="M61.54,53.58c2.54-2.08,5-4.11,8.21-5.05,4.35-1.28,8.94.34,11.44,4.03-4.14,4.42-11.79,6.36-19.65,1.01Z"/>
      <path d="M28.93,97.17c.39,1.01,2.17,1.33,1.02,2.86,1.54-.41,2.7-.67,3.03-2.07.14-.57.54-1.07.79-1.61.52-1.09.23-1.66-1-1.91-.57-.11-1.16-.17-1.71-.24.19-.49.38-.97.57-1.46.04-.11.13-.23.22-.29.84-.5,3.1.1,3.58.92.16.27.33.56.57.75,1.04.84,1.05.83,1.32,2.2-.73.5-1.51.97-2.2,1.54-.35.29-.67.72-.79,1.14-.78,2.75-1.51,5.51-2.26,8.28-.04.15-.08.3-.17.61-1.31-.72-2.54-1.39-3.78-2.08-.34-.19-.67-.41-1.02-.58-1.43-.69-2.57-1.5-1.66-3.36-1.5-.27-3.26.54-4.08-1.38.73,0,1.47.05,2.21,0,.61-.05,1.41.24,1.93-.74-1.71,0-3.21.02-4.72,0-.36,0-.83-.06-1.08-.28-1.48-1.28-2.92-2.61-4.51-4.06h13.52c-.58,1.53-1.13,2.93-1.64,4.34-.77,2.12.07,3.87,1.42,5.49.7.83,1.18.84,1.93.03.53-.59,1-1.25,1.33-1.95.42-.89.13-1.44-.86-1.74-.75-.23-1.53-.36-2.31-.45-.63-.07-.91-.25-.67-.89.36-1,.67-2.03,1-3.03v-.04Z"/>
      <path d="M96.8,34.85c-1.35-3.97-3.52-7.53-6.53-10.58-.42-.42-1.18-.66-1.81-.72-2.48-.23-4.98-.35-7.69-.52,1.42-1.27,2.67-2.39,4.18-3.76-2.16-1.2-3.97-2.38-5.94-3.27-1.8-.81-3.77-1.29-5.65-1.95-.52-.18-1-.49-1.5-.73,0-.12.01-.24.02-.37,1.72-.61,3.45-1.21,5.4-1.9-.23.82-.35,1.4-.54,1.95-.18.52-.08.8.5.98.69.21,1.34.49,2.04.76.09-.18.17-.34.27-.54,1.27.49,2.52.96,3.76,1.46.11.05.25.3.21.37-.44.76.23.98.68,1.31,5.73,4.24,10.48,9.26,13.5,15.62.5,1.05.9,2.16,1.34,3.24.03.08.04.18.08.4-.94.15-1.85.35-2.78.42-.19,0-.51-.42-.6-.7-1.15-3.25-3.24-5.85-5.82-8.18-.64-.58-1.09-.62-1.74-.05-1.3,1.14-2.67,2.24-4.04,3.39-.4-.48-.76-.9-1.14-1.36,1.57-2.32,3.79-3.73,6.58-4.26.38-.07.95.22,1.26.5,2.25,2.04,3.75,4.6,5.22,7.16.25.44.5.87.76,1.31h-.02ZM87.75,22.67c-.86-.97-1.59-1.79-2.41-2.69-.71.83-1.35,1.59-2.13,2.5,1.6.07,2.97.13,4.52.19h.01Z"/>
      <path d="M98.34,95.64c-1.48,1.32-2.94,2.66-4.44,3.95-.18.16-.55.15-.83.15-1.08.02-2.17,0-3.34,0-.02.36-.04.69-.06,1.1.85.09,1.67.17,2.54.27-.58,1.01-1.59.84-2.65.93.41,1.39-.78,1.74-1.67,2.28-1.7,1.02-3.4,2.02-4.97,2.95-1.27-3.05-2.5-5.99-3.76-9.01.15-.06.45-.2.91-.4-.94-.58-1.78-1.09-2.66-1.63.83-1.72,1.54-3.42,3.85-3.63.88-.08,1.56-.07,1.68.97.02.2.15.4.22.59-.59.18-1.19.3-1.71.53-.76.35-1.05.95-.69,1.72.41.85.82,1.71,1.3,2.53.47.79,1.24,1.06,2.29.95-.18-1.22-.14-2.4.98-3.4.69,1.25,1.38,2.51,2.11,3.88-.92.17-1.72.29-2.5.48-1.45.35-1.84.92-1.51,2.13.36,1.32,1.58,2.15,2.76,1.85.09-.02.2-.05.27-.1,1.31-1.05,2.01-3.33,1.43-4.92-.5-1.35-1.09-2.67-1.69-4.08,4.01-.12,8-.24,11.99-.37.04.08.08.17.14.25v.02Z"/>
      <path d="M66.99,71.72c-6.86-.63-13.65-.61-20.47,0-.24-1.72-.53-3.32-.67-4.94-.1-1.33.71-2.26,2.03-2.59-.14.57-.33,1.13-.39,1.71-.11,1.23.63,1.99,1.93,1.95,1.68-.05,3.35-.25,5.03-.25,2.83,0,5.66.12,8.49.19.29,0,.59.05.89.06,1.72.04,2.56-.93,2.17-2.52-.09-.39-.25-.76-.39-1.14,1.38.3,2.22,1.34,2.07,2.74-.17,1.55-.44,3.1-.69,4.8h-.01Z"/>
      <path d="M46.82,9.96c4.9-1.34,13.42-1.39,19.84-.11-.66,3.94-1.3,7.89-1.96,11.86h-15.98c-.63-3.85-1.26-7.78-1.9-11.75ZM48.41,11.55c.46,2.61.94,5.21,1.36,7.81.11.69.42.92,1.16.91,3.29-.03,6.58-.02,9.88,0,2.58,0,2.59,0,3.08-2.4.43-2.12.81-4.23,1.21-6.28-5.61-1.52-11.1-1.23-16.69-.03Z"/>
      <path d="M40.85,69.18h.29c2.3.05,3.12,1.06,2.47,3.17-.07.23-.42.5-.68.55-2.25.47-4.05,1.54-5.49,3.27-.74.89-1.39.72-1.71-.4-.48-1.65-.28-3.26.63-4.73,1-1.62,2.74-1.78,4.49-1.85h0Z"/>
      <path d="M72.67,69.16c3.94,0,6.2,2.96,5.02,6.6-.35,1.1-.9,1.29-1.61.41-1.44-1.74-3.24-2.8-5.49-3.28-.29-.06-.66-.51-.71-.82-.38-2.39.13-2.9,2.78-2.91h.01Z"/>
      <path d="M100.47,21.61c-2.3-.29-4.62-.57-7.12-.87.19.44.23.69.38.86,1.97,2.31,4.22,4.16,7.58,4.18.43,0,.85.11,1.28.09,1.17-.07,1.82.47,2.13,1.69-1.02-.14-1.99-.19-2.92-.42-1.49-.37-2.96-.82-4.42-1.31-.45-.15-.92-.45-1.19-.8-.54-.7-1.04-1-1.86-.39-.11.09-.52.06-.59-.05-.59-.84-1.15-1.72-1.79-2.71.53.04.88.06,1.39.1-.6-.88-1.15-1.67-1.76-2.55,2.54.36,4.95.65,7.33,1.05.59.1,1.14.55,1.7.83-.05.11-.1.21-.16.32l.02-.02Z"/>
      <path d="M88.89,29.58c1.48,1.27,2.87,2.46,4.25,3.67.01-.02,0,0-.02.02-1.06.64-2.01.51-2.87-.38-.4-.42-.82-.8-1.25-1.22-.55.44-1.06.84-1.64,1.29,1.1,1.39,2.22,2.78,3.41,4.27-.47.26-.88.48-1.44.78-1.31-1.74-2.6-3.43-3.85-5.15-.11-.16,0-.63.17-.77,1.04-.86,2.13-1.67,3.23-2.51h.01Z"/>
      <path d="M76.05,15.41c-1.13.92-2.06,1.69-3.14,2.56.83.04,1.53.08,2.54.13-1.58,1.01-2.94,1.88-4.51,2.88.91.13,1.53.22,2.36.34-.76.64-1.43,1.19-2.09,1.75-1.19-.3-1.64-1.15-1.84-2.26h1.13v-2.9h1.72c.05-.52.13-1.01.16-1.5,0-.17-.07-.48-.16-.49-1.38-.27-.55-1.2-.75-2.06,1.58.54,2.99,1.01,4.58,1.56v-.02Z"/>
      <path d="M66.62,22.81c.97-4.31,1.94-8.61,2.92-13,.82.23,1.54.42,2.45.67-1.65,4.19-3.26,8.33-4.88,12.46-.17-.04-.33-.09-.5-.13h.01Z"/>
      <path d="M23.48,37.11c.89-1.35,1.78-2.69,2.7-4.07-.63-.25-1.19-.48-1.86-.76-.55.69-1.11,1.39-1.73,2.16-.64-.29-1.24-.57-1.98-.89,1.19-1.08,2.29-2.13,3.46-3.1.21-.17.74-.19,1-.06.81.41,1.55.93,2.35,1.37.49.27.63.55.32,1.04-.8,1.33-1.48,2.74-2.4,3.99-.29.4-1.17.42-1.77.61-.03-.1-.06-.19-.09-.29Z"/>
      <path d="M42.15,10.15c.74-.2,1.33-.37,2.09-.58.9,4.28,1.77,8.53,2.66,12.79l-.38.1c-1.45-4.08-2.91-8.17-4.38-12.31Z"/>
      <path d="M60.09,106.52v-3.85h3.96v3.85h-3.96Z"/>
      <path d="M53.59,106.34h-3.98v-3.88h3.98v3.88Z"/>
      <path d="M53.48,100.63h-3.88v-3.92h3.88v3.92Z"/>
      <path d="M60.1,108.15h3.85v3.82h-3.85v-3.82Z"/>
      <path d="M49.6,107.86h3.97v3.74h-3.97v-3.74Z"/>
      <path d="M60.12,94.98v-3.62h3.95v3.62h-3.95Z"/>
      <path d="M64.09,96.88v3.63h-3.94v-3.63h3.94Z"/>
      <path d="M9.78,26.58c.08-.92.57-1.16,1.4-1.17,3.22-.03,5.92-1.1,7.75-3.76.07-.1.15-.21.21-.32.03-.05.02-.12.06-.43-2.05.29-4.03.57-6.01.84.36-.9,5.61-2.24,7.7-1.92-1.28,1.56-2.45,3.15-3.81,4.59-1.31,1.39-3.23,1.59-5.05,1.89-.74.12-1.48.19-2.25.28h.01Z"/>
      <path d="M49.53,95v-3.67h3.89v3.67h-3.89Z"/>
      <path d="M26.45,26.11c2.4-.35,4.59-.67,6.78-.98.35,1.8.17,2.23-1.31,3.12-1.14.69-2.21.61-3.22-.24-.69-.58-1.38-1.15-2.26-1.9h.01ZM29,26.5c.47.47.75.95,1.18,1.14.36.16.97.12,1.32-.08.21-.12.26-.76.14-1.06-.07-.19-.63-.31-.95-.3-.5.02-1,.17-1.68.3h-.01Z"/>
      <path d="M80.27,24.97c2.02.12,3.94.23,5.86.34.05.09.09.17.15.26-.99,1.12-1.94,2.27-2.97,3.35-.41.44-2.3-.25-2.45-.86-.22-.97-.38-1.97-.58-3.08ZM81.74,25.62c0,.85-.02,1.57.01,2.28,0,.18.2.35.3.53.18-.11.43-.18.52-.33.44-.73.83-1.48,1.31-2.35-.75-.04-1.35-.08-2.15-.12Z"/>
      <path d="M95.73,21.8c1.81.28,3.48.54,5.16.79,1.29.2,1.4,1.43,2.24,2.14-3.51.47-5.8-.44-7.4-2.93Z"/>
      <path d="M41.77,20.87c-1.15-.9-2.26-1.8-3.52-2.79,1.99-.35,3.83-.67,5.8-1.01-.8,1.34-1.52,2.55-2.28,3.81Z"/>
      <path d="M71.95,95.45c.25.81.53,1.61.73,2.41.04.18-.15.53-.33.62-.8.41-1.64.76-2.58,1.17-.23-.86-.47-1.63-.6-2.41-.03-.21.21-.56.42-.68.73-.4,1.51-.72,2.38-1.12h0Z"/>
      <path d="M35.75,22.55c-1.03-.92-1.95-1.76-2.99-2.7,1.6-.51,3.08-.97,4.73-1.5-.6,1.46-1.15,2.76-1.74,4.2Z"/>
      <path d="M42.41,14.16c-.41.5-.86.96-1.21,1.51-.2.32-.22.76-.36,1.33-.79-.18-1.63-.3-2.39-.6-.29-.11-.53-.63-.55-.97-.02-.21.38-.58.65-.67,1.18-.37,2.38-.66,3.56-.97.1.12.21.24.31.36h-.01Z"/>
      <path d="M77.22,18.96c1.01.43,2.03.85,3.2,1.34-1.09.72-2.17,1.43-3.41,2.25-.42-1.41-.78-2.62-1.17-3.92.55.14.98.25,1.41.36,0,0-.03-.02-.03-.02Z"/>
      <path d="M11.04,24.39c1.31-2.5,3.96-1.66,6.04-2.58-.64,1.9-3.44,3.02-6.04,2.58Z"/>
      <path d="M26.65,82.59c-.54-.9-1.04-1.74-1.59-2.64.78-.47,1.5-.89,2.31-1.38.51.79,1.01,1.58,1.52,2.38-.74.54-1.44,1.04-2.24,1.64Z"/>
      <path d="M29.72,70.83c-.03.9-.71,1.56-1.6,1.54-.91-.02-1.53-.69-1.51-1.62.02-.89.72-1.58,1.59-1.56.86.02,1.55.77,1.52,1.64Z"/>
      <path d="M83.73,70.83c-.01-.92.66-1.64,1.5-1.63.9,0,1.53.68,1.53,1.61s-.58,1.52-1.46,1.55c-.93.04-1.56-.59-1.57-1.54h0Z"/>
      <path d="M33.32,65.42c-.91,0-1.51-.58-1.54-1.47-.02-.94.6-1.57,1.55-1.56.89,0,1.5.63,1.5,1.52s-.64,1.51-1.51,1.51Z"/>
      <path d="M42.14,24.14c-.66-.9-1.27-1.74-1.95-2.68,1.56-.38,3.04-.73,4.76-1.13-1.01,1.37-1.89,2.56-2.8,3.82h-.01Z"/>
      <path d="M81.6,63.83c.02.98-.56,1.6-1.52,1.59-.85,0-1.42-.58-1.44-1.47-.02-.93.52-1.54,1.44-1.57.95-.03,1.51.5,1.53,1.45h-.01Z"/>
      <path d="M42.37,95.23c.64.37,1.3.71,1.9,1.13.19.14.3.53.27.77-.1.65-.3,1.27-.47,1.9-2.34-.65-2.75-1.55-1.69-3.82h-.01Z"/>
      <path d="M20.89,90.32c1.24-.62,2.53-1.26,3.78-1.89.17.37.39.8.56,1.27.06.18.09.45,0,.6-.39.61-.82,1.18-1.35,1.93-.54-1.48-1.94-1.59-2.99-1.91Z"/>
      <path d="M84.32,87.1c-.72.86-1.36,1.64-2.01,2.42-.6-.55-1.17-1.06-1.82-1.67.58-.64,1.13-1.24,1.71-1.81.1-.11.45-.13.58-.04.53.34,1.03.73,1.54,1.1h0Z"/>
      <path d="M65.42,97.34c.57-.11,1.15-.22,1.71-.33.52,2.05-.25,4.09-1.71,4.25v-3.92Z"/>
      <path d="M22.52,88.48c-1.31-.28-2.44-.53-3.43-.74,1.17-.76,2.49-1.62,3.71-2.41.25.43.57.85.75,1.33.08.23-.02.6-.18.82-.28.41-.65.77-.85.99Z"/>
      <path d="M37.76,25.42c-.95-.85-1.78-1.6-2.71-2.42,1.49-.45,2.88-.86,4.41-1.33-.59,1.31-1.13,2.49-1.7,3.76Z"/>
      <path d="M78.21,22.97c-.77.67-1.44,1.25-2.09,1.82-1.9-.34-1.55-1.96-2.1-3.25,1.46.5,2.76.94,4.2,1.43Z"/>
      <path d="M89.07,88.48c1.26.67,2.53,1.33,3.54,1.87-.84.45-1.94,1.02-3.02,1.6-.47-.89-.64-2.05-.52-3.46h0Z"/>
      <path d="M94.48,87.86c-.93.22-2,.47-3.18.75-1.21-.72-1.28-1.83-.41-3.11,1.17.77,2.43,1.6,3.58,2.36Z"/>
      <path d="M12.95,37.3c-.76-.2-1.48-.39-2.33-.61.59-1.09,1.15-2.1,1.85-3.4.01,1.3.59,1.32,1.5.92-.35,1.05-.68,2.02-1.03,3.09h.01Z"/>
      <path d="M16.5,30.62c-.79-.26-1.49-.5-2.27-.76.9-1.08,1.76-2.12,2.8-3.38-.07.6-.1.9-.15,1.26.3.08.56.15.99.27-.47.89-.92,1.73-1.38,2.6Z"/>
      <path d="M100.66,37.15c-.35-1.01-.67-1.9-.99-2.81.4.12.79.24,1.28.39v-1.39c.06-.02.13-.04.2-.07.63,1.1,1.25,2.21,1.95,3.43-.9.17-1.65.3-2.43.45h-.01Z"/>
      <path d="M88.3,80.63c-.55.81-1.02,1.52-1.55,2.32-.61-.4-1.23-.77-1.91-1.21.54-.78,1.02-1.48,1.59-2.3.66.42,1.26.79,1.88,1.18h-.01Z"/>
      <path d="M93.3,34.38c.35.75.66,1.35.98,2.04-1,.24-1.91.46-2.85.69-.34-.55-.67-1.07-1.04-1.67,1.01-.37,1.91-.69,2.91-1.05h.01Z"/>
      <path d="M77.25,18.99c-.14-.9-.27-1.81-.42-2.81,1.14-.1,2.02-.1,2.65.62.52.6.16,1.55-.65,1.8-.52.17-1.07.25-1.61.38,0,0,.03.02.03.02Z"/>
      <path d="M19.15,36.6c.27-.57.45-1.06.75-1.5.1-.15.51-.22.73-.17.85.2,1.69.47,2.58.73-.32.53-.64,1.03-.96,1.58-1.01-.21-1.99-.42-3.09-.65h-.01Z"/>
      <path d="M76.54,96.4c-.77.39-1.45.73-2.14,1.07-.74-2.92-.75-3.27-.02-4.15.72,1.02,1.42,2.02,2.16,3.07h0Z"/>
      <path d="M95.6,85.32c-.49.12-1.2.24-1.86.49-.88.33-1.04-.48-1.46-.8-.13-.1.01-.64.17-.91.26-.46.61-.86.89-1.22.8.87,1.58,1.72,2.27,2.45Z"/>
      <path d="M21.64,84.49c-.58.8-1.13,1.58-2.4.93-.46-.23-1.06-.18-1.4-.23.72-.75,1.5-1.56,2.35-2.43.44.53.93,1.11,1.44,1.73Z"/>
      <path d="M99.49,29.64c-.74.29-1.4.54-2.1.81-.3-.7-.58-1.36-.85-2.02-.06-.14-.11-.32-.07-.46.11-.47.27-.93.44-1.46.8.97,1.68,2.02,2.6,3.13h-.01Z"/>
      <path d="M33.09,87.36c-.54.48-1.09.95-1.64,1.42-1.98-1.72-1.98-1.21-.16-3.21.56.56,1.13,1.12,1.79,1.79Z"/>
      <path d="M46.39,96.93c.63.05,1.1.1,1.68.15v3.91c-1.97-.72-1.32-2.49-1.68-4.05h0Z"/>
      <path d="M15.12,83.45c1.13-.74,2.26-1.48,3.28-2.16.2.59.38,1.08.54,1.57-.45.87-2.16.65-3.71.85-.04-.09-.08-.18-.13-.27h.01Z"/>
      <path d="M95.14,81.42c1.09.78,2.2,1.58,3.38,2.41-1.77.49-3.91-.31-4.48-1.68h1.22c-.1-.2-.21-.38-.3-.57.06-.06.14-.12.2-.18h-.01Z"/>
      <path d="M90.43,19.16c-.46.57-.82,1.03-1.2,1.49-1.52-.59-1.6-2.01-2.16-3.21,1.08.56,2.16,1.1,3.35,1.72Z"/>
      <path d="M30.29,82.97c-.52,1.05-1.04,2.11-1.63,3.3-.26-.33-.42-.55-.59-.75-.48-.53-.47-.92.19-1.36.63-.42,1.16-.96,1.72-1.46.1.09.21.18.31.27Z"/>
      <path d="M86.27,84.51c-.41.48-.68.78-1.11,1.3-.73-.92-1.38-1.76-2.02-2.58.1-.11.22-.23.32-.34.91.53,1.82,1.04,2.81,1.62Z"/>
      <path d="M86.69,76.68c.94.69,1.86,1.36,2.79,2.05-.83,1.07-.94,1.09-1.68.12-.5-.66-.96-1.34-1.44-2.02.1-.05.22-.1.32-.16h0Z"/>
      <path d="M39.62,93.05v3.83c-.65-.96-1.14-1.71-1.68-2.51.55-.43,1.02-.8,1.68-1.31Z"/>
      <path d="M31.55,68.09c-.96-.59-1.85-1.13-2.89-1.77.9-.37,1.64-.29,2.33.18.58.39.88.9.55,1.59Z"/>
      <path d="M84.83,66.32c-1.02.62-1.91,1.15-2.85,1.73-.42-.48-.11-.91.26-1.31.7-.72,1.52-.85,2.59-.42Z"/>
      <path d="M26.88,76.43c-.7.76-1.41,1.52-2.23,2.4-.21-.39-.34-.67-.53-1.02.89-.56,1.71-1.08,2.54-1.61.07.08.15.15.22.23Z"/>
      <path d="M78.75,88.55c.78.59,1.56,1.17,2.36,1.78-.8.53-1.96-.26-2.36-1.78Z"/>
      <path d="M34.6,89.11c-.25.66-.5,1.31-.79,2.09-.38-.2-.67-.36-1.17-.64.65-.6,1.19-1.1,1.73-1.6.07.05.16.1.23.15Z"/>
      <path d="M47.01,80.4c2.35-1.87,17.12-1.92,19.9-.04-.54.2-.96.46-1.4.5-2.52.25-5.04.62-7.56.61-3.18-.02-6.37-.35-9.54-.59-.45-.03-.88-.29-1.41-.48h.01Z"/>
      <path d="M53.93,15.55c-1.04-.54-1.81-1.01-2.66-1.33-1-.38-1.56-.87-.98-2.08.8.54,1.67,1.02,2.41,1.65.77.65,1.3.68,2.02-.09.83-.88,1.81-1.63,2.79-2.49.67,1.19,1.27,2.29,1.95,3.5,1.2-.9,2.36-1.78,3.65-2.75.02,1.13-.14,1.92-1.21,2.36-.74.31-1.38.81-2.22,1.33.99.77,1.88,1.44,2.77,2.13,0,.04.02.12-.01.16-.35.43-.72.84-1.08,1.27-.36-.38-.77-.73-1.09-1.14-.41-.53-.73-1.11-1.2-1.83-.67.93-1.27,1.79-1.95,2.73-.89-.9-1.73-1.77-2.64-2.68-.97.98-1.82,1.86-2.79,2.85-.25-.59-.44-1.03-.61-1.45.91-.68,1.75-1.31,2.83-2.13h.02Z"/>
      <circle cx="56.79" cy="56.79" r="56.29" style="fill: none; stroke: #000; stroke-miterlimit: 10;"/>
    </g>
  </g>
</svg>