<?xml version="1.0" encoding="UTF-8"?>
<svg id="Ebene_2" xmlns="http://www.w3.org/2000/svg" viewBox="0 0 128.1 206.6">
  <defs>
    <style>
      .cls-1 {
        fill: #fff;
      }
    </style>
  </defs>
  <g id="Kapitel2_x5F_Illu3">
    <g>
      <path d="M43.69,57.65c.82.96,1.66,1.91,2.46,2.89.87,1.05,1.17,1.05,1.97,0,1.31-1.7,2.63-3.39,4.14-5.03-.11,1.42-.12,2.85-.35,4.25-.3,1.85-.71,3.7-1.2,5.51-.31,1.15-.95,2.17-1.97,2.9-.16.12-.27.43-.26.65.04,7.79.09,15.58.18,23.37,0,.44.4.94.72,1.31,1.78,2.02,1.81,2.04,4.02.61.61-.39,1.09-.99,1.74-1.6.68.57,1.48,1.18,2.19,1.89.21.21.24.72.18,1.07-.15.84.24,1.34.87,1.81,3.33,2.48,6.67,4.96,9.96,7.49,4.49,3.46,8.94,6.96,13.4,10.45.44.34.88.67,1.31,1.01.63.5.63.98-.02,1.45-1.18.85-2.37,1.69-3.54,2.54-.28.2-.74.35-.38.86.34.48.69.28,1.04.04,1.05-.72,2.1-1.43,3.37-2.3,0,1.02.02,1.84-.02,2.66,0,.17-.25.35-.42.47-.67.46-1.37.88-2.02,1.37-.33.24-.98.41-.59,1.04.4.64.81.11,1.17-.1.59-.35,1.16-.75,1.88-1.23.04.71.08,1.27.11,1.83.13,2.81.22,5.63.41,8.44.06.95.38,1.87.55,2.82.16.86-.13,1.27-1,1.35-.49.05-1.01.08-1.47-.04-1.67-.44-3.34-.91-4.99-1.44-.9-.29-1.58.05-1.82.97-.69,2.61-1.43,5.2-2.14,7.8-.58,2.12-.69,4.15.31,6.27.74,1.57.34,3.53-1.83,4.18-1.22.37-2.43.77-3.66,1.13-.33.1-.69.14-1.03.13-.68-.02-1.06-.35-.85-1.07.44-1.47.68-3.06,1.41-4.38,1.48-2.66,1.74-5.51,1.83-8.42.09-2.9.09-5.81.02-8.72-.03-1.41-.89-2.49-2.23-2.56-.68-.03-1.1-.32-1.33-1.02-.49-1.54-.76-1.67-2.5-1.51,0,1.08-.02,2.16,0,3.25.09,3.51.36,7.02.27,10.53-.08,3.07.66,5.86,1.98,8.55.54,1.1.49,1.48-.66,1.81-.98.28-2.04.28-3.07.38-1.2.12-2.41.2-3.61.32-.89.09-1.78.33-2.67.3-.46-.01-.92-.46-1.37-.71.27-.41.45-.91.81-1.2.87-.72,1.83-1.33,2.74-2,.51-.37.65-.91.86-1.51,1.03-2.98-.09-5.8-.44-8.67-.39-3.25-.79-6.51-1.22-9.76-.19-1.41-.42-2.81-.69-4.2-.06-.32-.27-.78-.51-.86-.87-.29-.68-.95-.69-1.55,0-5.81-.01-11.63-.02-17.44,0-.25,0-.51,0-1.02,1.12,1.06,2.22,1.84,2.6,3.2.45,1.65,1.35,2.93,2.8,3.84.74.47,1.19,1.13,1.3,2.06.15,1.31,1,2.02,2.34,2.1q1.38.08,1.53,1.42c.15,1.3.67,1.76,1.97,1.59,1.19-.16,2.21.13,3.02.98.27.29.49.73.53,1.13.13,1.38,1.19,2.18,2.53,1.83.22-.06.44-.14.66-.23.7-.27,1.04,0,1.13.71.18,1.36.5,1.6,1.87,1.48,1.42-.13,1.6-.01,2.05,1.39.53,1.64.68,1.72,2.37,1.5.27-.03.57.15.84.26.26.11.51.25.95.46-.33-1-.89-1.47-1.65-1.51-.64-.04-.95-.29-1.09-.88-.39-1.62-1.53-2.39-3.09-2.64-.53-.08-.86-.28-1.06-.85-.2-.56-.64-1.03-1.01-1.6,1.7-1.12,3.53-2.32,5.38-3.54-.46-.7-.85-.98-1.58-.45-1.44,1.03-2.96,1.95-4.42,2.95-.33.23-.52.67-.85.91-.27.2-.64.34-.97.35-.22,0-.59-.21-.65-.41-.59-1.94-2.2-2.61-3.89-3.1-.78-.23-1.3-.53-1.47-1.36-.17-.88-.76-1.41-1.59-1.68-.44-.14-.87-.32-1.32-.44-.71-.2-1.15-.59-1.49-1.3-.32-.67-.88-1.34-1.51-1.72-1.25-.75-2.04-1.75-2.43-3.14-.16-.57-.48-1.09-.7-1.59,1.28-1.44,2.64-2.96,4.05-4.55-.35-.28-.62-.51-.95-.77-1.37,1.55-2.7,3.04-4.05,4.57-.78-.7-1.57-1.41-2.52-2.26,1.93-.95,3.73-1.84,5.52-2.72-.48-1.1-.54-1.13-1.48-.68-1.23.58-2.45,1.16-3.75,1.77v-3.4h-4.65c-.61.76-1.07,1.27-1.45,1.83-.14.21-.16.54-.16.81.08,11.95.16,23.89.24,35.84.03,4.59.04,9.19.05,13.78,0,.2,0,.4,0,.65h2.05c-.09,1.47-.17,2.97-.28,4.46-.1,1.38-.12,1.39,1.16,1.78,4.22,1.27,8.45,2.53,12.67,3.82.93.28,1.79.25,2.71-.07,3.56-1.26,7.14-2.44,10.7-3.7,1.03-.36,2-.89,3.08-1.37-.9-2.13-1.77-4.17-2.73-6.44,3.93,0,7.7-.06,11.46.01,6.82.13,13.48,1.18,19.81,3.82,2.91,1.22,5.73,2.67,8.67,4.05-.18.48-.31.83-.44,1.17-3.8,9.81-8.72,18.99-15.48,27.11-6.16,7.39-13.43,13.35-22.39,17.04-12.13,4.99-24.04,4.37-35.65-1.7-9.43-4.93-16.83-12.11-22.85-20.79-3.72-5.36-6.78-11.09-9.4-17.06-.05-.1-.08-.22-.15-.43,11.22-4.95,22.98-8.21,34.91-11.26,0-1.14,0-2.29,0-3.45-.05-9.39-.11-18.78-.16-28.17-.04-6.34-.07-12.67-.1-19.01,0-.55-.12-.93-.56-1.34-.46-.43-.7-1.11-.96-1.72-.18-.42-.21-.9-.36-1.34-.55-1.66-.33-3.01,1.4-3.87.22-.11.41-.54.41-.83-.03-7.85-.08-15.7-.14-23.54,0-.24-.04-.59-.2-.71-1.7-1.27-2.1-3.16-2.36-5.07-.24-1.73-.27-3.5-.39-5.25.09-.03.17-.06.26-.08ZM88.36,179.53c.25.11.5.3.76.3,1.45.02,2.9-.04,4.35,0,3.19.1,6.38.26,9.57.35,1.07.03,2.11-.16,3.01-.87h-3.26c1.07-.84,2.02-1.59,2.98-2.34-1.22-.33-2.83.63-3.43,1.68-.13.23-.49.43-.75.45-.38.03-.77-.12-1.29-.21,1.4-2.14,2.57-4.24,3.2-6.58-.12-.06-.24-.13-.36-.19-1.01,1.6-2.01,3.2-3.01,4.8-.54-1.34-1.1-2.72-1.65-4.1-.09.03-.19.06-.28.09.39,1.42.75,2.84,1.19,4.24.2.65.18,1.12-.51,1.42-1.47-2.03-3.63-3.02-5.81-3.99-.05.06-.1.13-.16.19,1.18,1.18,2.35,2.36,3.67,3.68-2.96-.3-5.66.02-8.25,1.1-.2-.14-.39-.37-.61-.4-2.67-.35-5.34-.74-8.02-.96-.96-.08-1.95.25-3.08.42-.73-1.38-1.57-2.97-2.48-4.69,1.53.4,8.44.26,9.85-.13-.03-.05-.06-.12-.09-.13-2.87-.65-5.78-.99-8.73-.8-.42.03-.82.3-1.23.47-1.84-3.07-3.72-6.19-5.62-9.34,3.86-1.69,7.65-3.32,11.3-5.45-.67-.32-11.12,4.04-12.36,5.04.02.08.03.17.08.24,3.51,6.29,7.02,12.58,10.56,18.85.68,1.21,1.5,2.35,2.29,3.5.16.24.5.36.75.53.05-.07.09-.14.14-.21-1.31-2.28-2.61-4.57-3.98-6.96,3.91,0,7.59,0,11.27,0ZM93.34,162.2c-.51-.12-.93-.12-.93-.82,0-2.18-.08-4.36-.14-6.54,0-.18-.06-.36-.09-.54-1.15,1.91-.96,3.98-.9,6.17-1.32-1.64-2.77-2.92-4.58-3.77,1.24,1.59,2.47,3.18,3.8,4.89-3.35-.31-6.37.03-8.88,1.88,2.63-.12,5.34-.33,8.06-.35,2.83-.02,5.59.3,8.05,1.99,1.03.71,2.29,1.12,3.47,1.6,2.7,1.07,5.47,1.77,8.41,1.45,1.42-.15,2.78-.49,4.19-1.42-1.01.18-1.78.32-2.55.46,1.1-1.21,1.98-2.46,2.36-4.02-1.45.68-2.58,1.73-3.23,3.13-.41.88-.89.83-1.66.69.52-1.94,1.29-3.79,1.12-6.06-1.32,1.58-1.98,3.17-2.34,4.86-1.06-1.6-2.12-3.21-3.18-4.81-.1.06-.21.12-.31.18.76,1.77,1.51,3.53,2.34,5.47-4.14-1.37-8.25-2.24-12.14-4.2,1.59-1.68,3.1-3.27,4.6-4.86-2.4.84-4.44,2.11-5.5,4.61ZM16.93,171.38c.04.12.08.24.13.36,1.24-.23,2.49-.42,3.72-.71,5.06-1.19,9.75-3.35,14.51-5.37,3.7-1.57,7.28-3.5,11.54-4.04-1.42-.43-2.68-.36-3.93-.13-1.25.23-2.48.54-3.72.82-.05-.06-.1-.12-.15-.18.65-.56,1.31-1.12,1.96-1.68-.05-.06-.1-.12-.15-.18-1.75.52-3.07,1.69-4.36,3.21-.35-1.47-.65-2.75-.95-4.02-.17,1.16-.19,2.28-.16,3.39.03,1.26-.38,1.52-1.53.99-1.85-.85-3.75-1.07-5.71-.46,1.72.18,3.46.26,5.07,1.37-3.1,1.24-6.06,2.42-9.18,3.66.47-1.51.88-2.79,1.29-4.08-.1-.05-.21-.09-.31-.14-.81,1.3-1.73,2.54-2.38,3.91-.48,1.01-1.26,1.29-2.23,1.6.23-2.02.47-3.97-.47-6.03-.78,1.99-.69,3.84-.44,5.83-1.45-1.42-2.9-2.59-4.77-3.15,1.22,1.35,2.44,2.7,3.69,4.08-.57.37-1.01.66-1.45.94ZM63.62,164.5c-.65,1.71-1.28,3.38-1.88,4.97-3.55.25-6.98.58-10.36,1.28.01.12.02.24.03.36,3.34-.22,6.68-.44,10.1-.67-1.62,3.72-3.27,7.49-4.92,11.26-.52,1.2-1.08,2.38-1.58,3.58-.07.18.07.44.11.67.17-.12.36-.22.5-.37.12-.12.18-.29.26-.45,3.35-6.44,6.37-13.03,8.96-19.81.21-.54.52-1.05.83-1.66-.85-.31-1.76-.68-2.69-.98-3.71-1.23-7.43-2.44-11.16-3.64-.33-.1-.71-.01-1.07-.01-.02.14-.04.28-.06.42,4.28,1.67,8.55,3.34,12.91,5.04ZM32.78,176.72c-2.37.71-4.62,1.36-6.86,2.06-.54.17-.88.09-1.26-.37-.51-.61-1.14-1.12-1.71-1.68-.09.08-.18.15-.27.23.36.64.72,1.28,1.17,2.09-.99-.15-1.82-.27-2.65-.4,1.76,1.35,3.76,1.87,5.86,1.25,1.77-.52,3.44-1.36,5.17-2.01.37-.14.86-.26,1.21-.14,3.43,1.15,6.84,2.36,10.26,3.55.3.1.6.22.9.32-1.89-2.03-4.18-3.38-6.76-4.32,1.33-1.25,2.39-2.53,2.82-4.22-1.94.71-3.02,2.25-3.97,4.01-.37-2.09-.83-4.04-1.87-5.82-.31,1.91.3,3.69.7,5.47-.87.27-1.34-.03-1.73-.77-.83-1.57-2.31-2.4-3.87-3.08-.12-.05-.3.01-.56.03.75,1.66,2.29,2.48,3.42,3.8ZM59.99,181.44c.04.1.07.2.11.3.29-.07.63-.07.87-.22.73-.47,1.44-.98,2.11-1.53.75-.62,1.45-1.3,2.19-1.97.65.6,1.25,1.16,1.88,1.76.71-.9,1.35-1.71,2.04-2.58,1.64,1.59,3.42,2.91,5.38,3.97-1.19-1.98-2.86-3.46-4.76-4.77.81-1.09,1.56-2.11,2.28-3.1-1.72-1.79-3.42-3.56-5.16-5.37-1.64,2.01-3.2,3.91-4.77,5.81-.32.38-.34.63.05,1.01.8.75,1.52,1.58,2.31,2.41-1.78,1.21-3.39,2.52-4.55,4.29ZM82.73,194.64c.03-.06.06-.12.08-.18-.31-.22-.61-.44-.92-.64-3.51-2.32-7.02-4.64-10.52-6.97-.61-.4-1.18-.44-1.87-.11-5.21,2.48-10.44,4.93-15.65,7.41-.34.16-.59.54-.88.81.42-.01.89.1,1.26-.06,4.92-2.06,9.84-4.13,14.73-6.27,1.07-.47,1.97-.49,2.96.08,1.61.92,3.23,1.83,4.86,2.72,1.98,1.08,3.97,2.14,5.95,3.21ZM77.07,200.16c-2.36-2.05-4.85-3.99-7.82-5.2-1.86-.76-3.63-.78-5.41.29-2.5,1.5-4.81,3.24-6.83,5.35-.16.17-.28.37-.43.56.45-.04.79-.18,1.11-.35,2.4-1.29,4.85-2.51,7.19-3.89,1.52-.9,2.92-1,4.51-.24,2.53,1.22,5.12,2.32,7.68,3.47ZM57.51,187.97c.04.12.09.24.13.35.44-.11.92-.14,1.32-.34,3.26-1.64,6.53-3.29,9.75-5.01.8-.43,1.44-.47,2.15.07.37.28.77.52,1.14.81,2.45,1.91,4.89,3.83,7.34,5.74.25.2.53.36.79.54l.28-.28c-.36-.46-.68-.97-1.1-1.37-2.82-2.76-6.03-4.99-9.35-7.09-.5-.32-.94-.31-1.44-.01-3.45,2.03-6.92,4.04-10.37,6.06-.23.14-.42.35-.63.53ZM65.59,194.11c.03.06.07.12.1.17,1.02-.4,2.05-.77,3.06-1.19.98-.41,1.88-.33,2.84.13,2.48,1.2,4.99,2.34,7.49,3.48,1.09.5,2.2.96,3.3,1.44-.61-.62-1.27-1.15-1.98-1.6-2.55-1.61-5.1-3.21-7.68-4.77-.77-.47-1.65-.84-2.55-.34-1.54.86-3.05,1.77-4.57,2.67ZM40.25,190.63c0,.06,0,.13,0,.19.1.04.19.13.29.13,3.45.02,6.91.05,10.36,0,.52,0,1.51-.55,1.48-.69-.16-.82-.97-.8-1.61-.78-1.57.06-3.13.15-4.69.33-1.95.22-3.89.54-5.83.81ZM94.87,188.93c-3.43-.93-6.86-1.64-10.4-1.41-.43.03-.84.45-1.27.68.42.24.83.67,1.26.68,3.3.09,6.61.09,9.91.12.16,0,.33-.05.49-.08ZM90.47,182.45c0-.1,0-.2,0-.3-.1-.05-.2-.12-.3-.14-2.8-.68-5.63-1.06-8.51-.92-.39.02-.8.15-1.16.31-.44.21-.4.54-.02.79.21.14.48.25.73.25,3.09.02,6.18.01,9.26.01ZM91.14,184.71s.03-.09.05-.13c-.15-.06-.29-.14-.45-.18-3.06-.72-6.16-1.14-9.3-1.05-.43.01-1.18.39-1.2.65-.05.7.7.69,1.17.69,3.24.03,6.49.02,9.74.02ZM43.96,187.62c0,.08,0,.16,0,.24.19.04.39.12.58.12,2.76.09,5.51.21,8.27.24.53,0,1.05-.39,1.58-.6-.54-.25-1.07-.71-1.62-.72-1.62-.04-3.25.05-4.87.19-1.32.11-2.63.35-3.94.53ZM45.25,182.42c0,.12.02.24.03.37,1.32.1,2.63.26,3.95.29,1.7.03,3.41-.01,5.11-.11.39-.02.75-.4,1.12-.61-.4-.23-.78-.49-1.19-.68-.17-.08-.4-.03-.6-.02-.87.04-1.74.05-2.6.13-1.94.19-3.88.43-5.82.65ZM53.93,196.91c-2.52-1.03-6.95-.32-9.07,1.4,1.66.36,6.82-.42,9.07-1.4ZM85.61,176.26c0-.09-.01-.18-.02-.27-.1-.04-.2-.12-.3-.12-2.45-.18-4.91-.37-7.37-.52-.46-.03-.94.02-1.37.17-.29.09-.49.42-.74.64.26.18.52.38.79.54.09.05.23.04.34.03,2.89-.15,5.78-.31,8.67-.46ZM69.53,116.84c.69.95.82.96,1.43.22.59-.72,1.19-1.42,1.78-2.14.79-.95,1.57-1.9,2.39-2.89-.35-.3-.61-.52-.95-.81-1.58,1.91-3.12,3.77-4.65,5.62ZM71.32,201.46c-.48-1.44-2.35-2.9-3.73-2.98-1.32-.08-3.38,1.06-3.97,2.38,1.04-.25,1.97-.41,2.86-.68,1.58-.48,2.97-.12,4.25.84.18.13.35.26.59.44ZM80.01,169.38c-2.39-.93-4.84-1.37-7.37-1.34-.22,0-.48.06-.66.19-.17.12-.33.34-.35.53-.01.14.19.34.35.43.19.11.44.18.66.18,2.45.01,4.91,0,7.36,0ZM69.93,107.36c-1.73,1.2-3.36,2.34-5,3.48-.34.24-.71.42-.33.94.33.45.63.38,1.02.11,1.61-1.13,3.23-2.24,4.84-3.37.08-.06.13-.18.22-.31-.24-.27-.46-.52-.75-.84ZM67.45,106.57c-1.77,1.02-3.5,2.02-5.23,3.02-.37.21-.73.37-.44.92.32.61.69.34,1.07.12,1.51-.87,3.02-1.73,4.52-2.62.9-.53.9-.59.08-1.44ZM58.99,196.66c-2.94-.36-6.1,1.17-6.68,3.23,2.47-.53,4.52-1.81,6.68-3.23ZM53.14,166.4c2.44.39,4.85.57,7.27.17.11-.02.24-.05.32-.12.17-.14.42-.3.43-.46,0-.14-.24-.34-.42-.45-.16-.1-.38-.16-.58-.15-2.39.02-4.74.31-7.02,1.02ZM79.33,166.79c-2.25-.94-4.57-1.35-6.94-1.47-.51-.02-1.19-.08-1.22.6-.01.21.75.63,1.18.66,2.08.15,4.16.21,6.24.29.25,0,.5-.05.75-.08ZM72.99,117.49c0,.14.01.29.02.43.35.08.83.34,1.03.21,1.64-1.11,3.24-2.29,4.85-3.46,0-.11.01-.23.02-.34-.39-.14-.94-.53-1.13-.4-1.63,1.13-3.2,2.36-4.78,3.56ZM42.44,194.6c3.18.04,6.34-.03,9.29-1.39-3.16.02-6.34-.01-9.29,1.39ZM72.75,111.32c-.78-1.11-.83-1.12-1.75-.45-.82.6-1.64,1.2-2.46,1.8-.43.32-.84.66-1.29,1.02.44.51.68,1.15,1.38.64,1.36-.98,2.71-1.98,4.11-3.01ZM92.2,192.62c.02-.08.04-.16.06-.24-.3-.13-.59-.31-.9-.38-1.85-.42-3.71-.86-5.58-1.18-.41-.07-.9.3-1.36.47.42.25.81.63,1.26.72,1.05.21,2.12.3,3.19.39,1.1.1,2.21.15,3.32.22ZM52.23,184.44c-1.1-1.09-6.31-.71-7.92.51,2.6.11,5.21.46,7.92-.51ZM58.61,176.86c-.59-.7-.72-.75-1.6-.64-1.26.16-2.53.31-3.79.52-1.28.21-2.55.49-3.83.73.02.1.03.19.05.29,3.04-.04,6.08-.13,9.18-.9ZM82.68,171.54c0-.09,0-.18,0-.26-2.26-.64-4.57-.96-6.93-.84-.32.02-.63.37-.94.56.29.18.58.51.87.52,2.33.04,4.67.02,7.01.02ZM60.29,172.3c-1.23-.62-9.2.27-10.16,1.15,3.54-.31,6.9-.23,10.16-1.15ZM66.55,104.85c-.52-.29-.98-.74-1.18-.64-1.57.77-3.09,1.63-4.66,2.49.36.61.54,1.19,1.29.75,1.42-.82,2.85-1.63,4.55-2.61ZM56.74,179.5c0-.12-.01-.25-.02-.37-.13-.04-.27-.14-.39-.13-2.82.22-5.64.45-8.46.69-.16.01-.31.22-.46.33.04.12.07.24.11.36,3.08-.29,6.15-.59,9.23-.88ZM48.71,175.16c2.47.26,4.87.1,7.19-.82-2.5-.66-4.87-.12-7.19.82ZM72.25,163.99c.01.09.03.18.04.27,2.25-.13,4.49-.26,6.74-.39,0-.08,0-.17-.01-.25-1.52-.89-5.54-.67-6.77.37ZM57.46,168.03c-1.4-.77-5.08-.32-5.87.66,1.98.08,3.85-.02,5.87-.66ZM57.8,163.98l-.03-.31c-1.18-.69-4.1-.4-5.2.53,0,.09.02.17.02.26,1.74-.16,3.47-.32,5.21-.48Z"/>
      <path d="M82.28,30.27h21.59c0-.06,0-.13,0-.19-2.37-.19-4.73-.46-7.1-.55-5.72-.22-11.44-.36-17.16-.56-.56-.02-1.16-.17-1.65-.44-3.27-1.82-6.57-3.6-9.74-5.59-1.81-1.14-3.46-1.4-5.44-.52-3.92,1.74-7.9,3.35-11.87,5-.41.17-.89.23-1.34.27-2.89.21-5.79.39-8.68.6-.33.02-.65.16-.97.25,0,.1.01.19.02.29h7.33c0,.09.01.17.02.26-1.13.63-2.26,1.28-3.41,1.89-.24.12-.56.09-.85.1-3.69.12-7.38.23-11.06.35-.61.02-1.21.13-1.81.37h12.04c-9.55,6.21-20.17,9.7-31.13,12.84.06-.39.06-.55.12-.69,5.41-12.97,13.08-24.33,24.1-33.22,6.2-4.99,13.13-8.54,21.02-10,9.26-1.71,18.08-.3,26.52,3.79,7.97,3.86,14.47,9.52,20.07,16.3,5.08,6.15,9.12,12.95,12.44,20.19.09.21.16.42.35.93-11.68-2.7-22.73-6.56-33.47-11.31.02-.12.04-.24.06-.36ZM60.84,8.18c-.43.43-.91.76-1.17,1.2-.32.55-.73.63-1.28.65-2.32.07-4.65.16-6.97.29-1.64.09-3.28.25-4.93.38,0,.09,0,.18,0,.27,4.07.25,8.14.5,11.92.74.56,1.42,1.05,2.68,1.52,3.87-4.68.14-9.51.29-14.34.43,5.3,1.66,40.6,1.93,43.95.36-7.54-.29-14.84-.56-21.97-.83.45-1.2.92-2.44,1.39-3.69,5.49-.26,11.12-.53,16.75-.79,0-.11,0-.22,0-.33-.88-.07-1.75-.18-2.63-.22-4.76-.19-9.52-.36-14.28-.56-.27-.01-.6-.08-.77-.25-.43-.44-.79-.96-1.23-1.5,2.29-.09,4.52-.17,6.74-.28,2.2-.12,4.39-.28,6.58-.42-3.67-1.22-29.48-1.29-31.43-.13,4.12.28,8.08.55,12.14.83ZM94.98,21.13c-19.68-1.05-39.37-2.03-59.09-.85,3.34.86,57.58,1.68,59.09.85ZM107.31,32.94c-1.93-.77-16.06-1.15-17.39-.47,5.8.92,11.47.81,17.39.47ZM23.85,33.11c5.08.66,10.16.58,15.25.31-5.07-.71-10.16-.75-15.25-.31ZM37.12,28.5c-3.52-.31-7-.29-10.47.34,3.52.5,7.02.66,10.47-.34ZM36.54,25.38c3.95.59,7.91,1.03,11.87.35,0-.12,0-.23,0-.35h-11.87ZM79.33,26.98v.28h8.46c-2.82-.67-5.64-.75-8.46-.28ZM25.92,37.32c0-.17,0-.34.01-.51-2.9-.15-5.8-.3-8.71-.46,0,.15-.02.3-.03.45,2.91.17,5.81.34,8.72.51ZM44.44,23.33c-2.64-.61-5.31-.62-7.97-.27,0,.09,0,.18,0,.27h7.98ZM96.35,27.01h-7.77c0,.12,0,.24,0,.36,2.59.06,5.19.29,7.76-.36ZM83.66,25.24c0,.08-.02.17-.03.25h6.9v-.25h-6.88ZM24.66,35.81c0-.11,0-.23,0-.34-1.06-.09-2.13-.17-3.19-.26,0,.11-.02.22-.03.33,1.07.09,2.14.19,3.22.28Z"/>
      <path d="M11.41,162.3C1.53,137.71-1.68,112.4.8,86.25c.15.04.25.03.3.08,1.82,2.08,3.65,4.14,5.43,6.24,1.22,1.44,1.93,3.15,2.51,4.93,1.3,4,3.2,7.71,5.57,11.19,1.33,1.94,3.09,3.38,5.17,4.43,1.24.63,2.27,1.47,3.13,2.58.53.67,1.2,1.28,1.91,1.75,1.71,1.15,3.17,2.55,4.36,4.22,3.48,4.88,7.37,9.43,11.42,13.84.94,1.03,2.02,1.92,3,2.91.22.22.47.57.47.86.04,3.66.04,7.32.05,10.98,0,.05-.03.11-.06.23-11.23,2.7-22.4,5.72-32.65,11.82ZM30.32,135.78c-1.03,1.95-.58,9.37.65,10.93.51-3.71.12-7.26-.65-10.93ZM6.1,103.73c-.59,3.17-.21,6.21,1.17,9.13.48-3.15-.17-6.16-1.17-9.13ZM25.87,138.69c.7-1.9.25-7.63-.61-8.7-.58,2.92-.44,5.72.61,8.7ZM14.6,125.34c-.36,2.79,0,5.46,1.33,7.96.34-2.78-.3-5.41-1.33-7.96ZM35.72,139.05c-.32,2.82-.27,5.61.82,8.28.52-2.84.18-5.59-.82-8.28ZM8.49,147.42c.51-1.55-.17-6.59-1.02-7.79-.6,1.71-.02,6.3,1.02,7.79ZM3.8,112.64c-.55,2.63-.24,5.16.81,7.6.45-2.62,0-5.13-.81-7.6ZM17.79,124.99c.36-2.62-.17-5.1-1.11-7.53-.42,2.62-.08,5.13,1.11,7.53ZM11.14,131.92c-.44,1.66.06,3.96,1.01,4.81.12-1.75-.24-3.32-1.01-4.81ZM20.02,138.87c.23-1.54-.04-2.97-.83-4.3-.36,1.55,0,2.97.83,4.3ZM17.39,145.43c-.41,1.53-.17,2.95.67,4.53.34-1.75,0-3.16-.67-4.53ZM12.73,151.12c.45-1.51.25-3.36-.4-4.18-.51,1.26-.37,2.97.4,4.18ZM23.42,146.15c.24-1.48.03-2.87-.74-4.17-.42,1.5.01,2.86.74,4.17ZM14.82,139.61c-.11,0-.22,0-.32,0-.52,1.12-.26,3.29.76,4.15-.15-1.38-.29-2.77-.44-4.15ZM7.61,129.46c.33-1.28-.22-3.37-1.06-4.21-.14,1.52.24,2.84,1.06,4.21ZM11.96,113.2c-.12.04-.25.08-.37.12,0,1.4.46,2.62,1.22,3.74.13-.05.27-.09.4-.14l-1.25-3.73ZM9.36,118.79c-.36,1.29.08,3.1.94,3.98.16-1.44-.3-2.66-.94-3.98ZM22.01,127.13c.11-.02.21-.04.32-.06.29-1.19-.15-3.18-1.07-3.72.25,1.26.5,2.52.75,3.78Z"/>
      <path d="M69.86,36.42c-.13.55-.31,1.09-.38,1.64-.21,1.71-.03,3.33.53,5.03.66,1.97.74,4.14,1.06,6.23.02.12-.09.25-.34.41-.15-.54-.27-1.09-.47-1.6-.49-1.26-.92-2.56-1.55-3.74-.7-1.3-.84-2.7-1.07-4.1-.2-1.14-.45-2.27-.72-3.4-.09-.38-.33-.72-.5-1.07-.11-.02-.22-.04-.33-.06-.25.61-.68,1.2-.72,1.82-.07.91.18,1.84.2,2.76.01.53.01,1.19-.27,1.57-2.19,2.92-4.46,5.79-6.71,8.67-.07-.04-.14-.07-.21-.11.14-.3.26-.62.43-.91.9-1.53,1.86-3.02,2.7-4.57.88-1.62.99-3.35.32-5.38-2.87,4.18-5.23,8.48-8.64,12.07.04-.3.05-.6.11-.89.84-3.68,2.6-6.93,4.6-10.09,2.19-3.46,4.31-6.96,5.83-10.78.28-.72.49-1.47.73-2.2-.08-.05-.15-.1-.23-.15-.41.41-.87.78-1.22,1.24-2.26,3.02-4.5,6.06-6.72,9.11-.9,1.24-1.73,2.54-2.61,3.81-.19.27-.42.51-.69.72.23-1.71,1.84-3.03,1.3-5.16-.8.53-1.47.96-2.19,1.44-.15-.64-.34-1.24-.41-1.86-.02-.21.19-.51.38-.67,1.91-1.63,3.64-3.42,4.99-5.56.26-.42.45-.89.67-1.34-.07-.06-.14-.11-.21-.17-2.23,1.41-4.45,2.83-6.76,4.29-.28-.78-.52-1.48-.78-2.21.14-.11.23-.22.36-.28,4.43-2.24,8.86-4.46,13.28-6.72.68-.35,1.27-.34,1.89,0,2.58,1.38,5.26,2.62,7.72,4.2,8.33,5.35,17.32,9.32,26.48,12.94.55.22,1.09.4.56,1.28-2.82-.62-5.63-1.49-8.36-2.6-2.71-1.1-5.29-2.43-7.55-4.35-.07.07-.14.15-.21.22.14.29.26.59.43.86,1.61,2.43,3.79,4.26,6.3,5.66,2.63,1.47,5.36,2.78,8.04,4.15.21.11.45.17.61.32.14.12.18.35.26.53-.19.05-.42.19-.57.13-.64-.26-1.25-.61-1.9-.87-1.7-.68-3.38-1.4-5.11-1.96-3.06-.98-5.63-2.72-7.93-4.91-.41-.39-.68-.41-1.11-.13-.5.33-.19.66-.02.96,1.28,2.26,3.14,4.02,5.03,5.74.58.52,1.16,1.04,1.78,1.6-.2.22-.34.38-.54.59-.54-.46-1.02-.93-1.54-1.32-.97-.73-1.91-1.53-2.97-2.12-2.69-1.49-4.82-3.57-6.36-6.19-2.41-4.09-5.63-7.53-8.79-11.01-.18-.2-.41-.36-.62-.54-.1.05-.19.11-.29.16.23.55.35,1.19.71,1.64,1.52,1.87,3.05,3.74,4.7,5.5,1.06,1.13,1.89,2.34,2.3,3.83.84,3.01,2.47,5.56,4.65,7.76,2.48,2.49,5,4.94,7.51,7.4.16.16.37.3.48.5.06.1,0,.33-.08.44-.05.07-.27.08-.37.04-.15-.07-.28-.2-.41-.31-2.97-2.69-5.99-5.33-8.52-8.47-.11-.14-.23-.26-.34-.39-1.26-1.41-1.64-1.39-2.74.18-.27.38-.53.77-.84,1.11-.67.75-1.1.66-1.4-.28-.22-.69-.39-1.4-.63-2.08-.37-1.08-.98-1.96-2.08-2.44-1.05-.46-1.27-1.43-1.35-2.45-.08-1.03-.18-2.06-.27-3.09-.1,0-.2-.01-.3-.02Z"/>
      <path d="M90.46,95.08c.1-.46.18-.92.29-1.37.58-2.25,1.17-4.49,1.73-6.74.08-.33.14-.71.07-1.04-.37-1.69.23-3.21.8-4.73.83-2.2,1.78-4.37,1.9-6.76.03-.59-.05-1.18-.08-1.77-.1-.05-.2-.09-.3-.14-.36.37-.81.68-1.07,1.11-1.83,3.03-3.64,6.07-5.43,9.13-.57.97-1.04,2-1.66,3.2-.41-1.07-.78-1.96-1.08-2.87-.06-.18.13-.47.26-.67.55-.85,1.18-1.66,1.69-2.54.78-1.34.76-2.81.56-4.5-1.87.97-2.75,2.7-4.1,4.14-.49-1.04-.97-2.03-1.45-3.04,2.18-1.85,4.34-3.65,6.46-5.5,1.64-1.43,3.24-2.92,4.86-4.37,3.39-3.04,5.64-6.82,7.23-11.04,1.15-3.07,2.4-6.1,3.6-9.15.1-.27.22-.53.38-.92.19.33.34.55.45.8,3.17,7.07,6.34,14.14,9.5,21.22.09.2.16.46.1.65-.31.95-.67,1.89-1.04,2.92-.6-.5-1.09-.95-1.62-1.34-.23-.17-.68-.37-.8-.27-.26.21-.54.64-.5.92.12.76.33,1.53.66,2.23.77,1.61.8,1.59-.41,2.98-.28.32-.53.67-.96.95.17-2.23-1.07-3.89-1.83-5.71-.82-1.96-.97-4.04-1.13-6.13-.24-3.24-.56-6.48-.84-9.72,0-.11-.05-.22-.24-.34-.19,1.6-.43,3.2-.57,4.81-.23,2.66-.45,5.33.09,7.99.06.31.1.64.24.93,1.24,2.68,1.55,5.51,1.41,8.42-.01.26-.04.54.05.78.48,1.36-.27,2.01-1.38,2.47-.96.4-1.91.85-2.91,1.14-1.13.32-1.75-.2-1.73-1.38.02-1.16.22-2.32.22-3.48,0-1.59-.11-3.18-.21-4.77-.02-.29-.19-.58-.4-1.16-.47.67-.88,1.08-1.08,1.58-1.05,2.61-2.07,5.23-3.07,7.86-1.13,2.95-2.17,5.94-3.36,8.87-.85,2.09-1.89,4.1-2.86,6.15-.05.12-.17.2-.26.3-.06-.02-.13-.05-.19-.07Z"/>
      <path d="M89.22,147.36c1.54-1.52,3.12-2.51,4.94-3.08,1.24-.39,2.5-.77,3.78-1.02,3.86-.78,7.14-2.64,10.14-5.14,2.65-2.21,5.36-4.36,8.14-6.42,2.13-1.58,4.47-2.83,7.04-3.56.93-.26,1.91-.35,2.9-.52-.24,5.12-5.43,25.28-7.37,28.69-4.54-2.51-9.04-5.11-14.06-6.61-4.98-1.49-10.06-2.28-15.51-2.34ZM109.81,149.41c.98-1.4,1.66-5.57,1.12-6.67-.78,2.16-1.36,4.26-1.12,6.67ZM114.75,144.12c1.22-1.69,1.85-3.58,1.97-5.64-1.18,1.69-1.91,3.55-1.97,5.64ZM119.72,141.32c-.12-.05-.24-.09-.36-.14-.79,1.09-1.34,2.27-1.41,3.65.12.05.24.09.35.14.47-1.21.94-2.43,1.42-3.64ZM106.76,148.15c.1.03.2.05.3.08.75-.96,1.18-2.59.7-3.54-.33,1.15-.67,2.31-1,3.46ZM116.21,149.47c-.12-.02-.24-.05-.36-.07l-.42,2.09c.13.02.25.05.38.07.13-.7.27-1.4.4-2.1ZM112.4,148.63c.12.01.25.03.37.04.08-.66.15-1.32.23-1.98-.12-.01-.24-.03-.36-.04-.08.66-.16,1.32-.24,1.98Z"/>
      <path d="M123.45,63.41c1.04,5.79,2.07,11.59,3.12,17.38.1.56-.09.88-.52,1.24-2.83,2.4-4.46,5.42-4.33,9.19.14,4.11-.87,8.01-2.1,11.86-1.38,4.31-2.9,8.57-4.44,12.82-.88,2.42-2.45,4.19-4.96,5.16-2.29.88-3.94,2.67-5.32,4.63-1.45,2.06-2.73,4.24-4.09,6.37-.39.61-.72,1.27-1.19,1.82-.24.28-.7.38-1.07.56-.09-.37-.35-.81-.24-1.11.41-1.16.84-2.34,1.45-3.39.8-1.38,1.85-2.61,2.67-3.97,3.92-6.53,7.6-13.2,9.89-20.49,1.1-3.5,1.67-7.17,2.57-10.73.58-2.3,1.22-4.6,2.06-6.81,1.15-3.03,1.74-6.14,1.76-9.36.02-2.09-.08-4.18-.1-6.27,0-.25.14-.54.28-.76.52-.79,1.19-1.5,1.6-2.34.82-1.66,1.51-3.39,2.26-5.09.1-.23.21-.45.32-.68.12,0,.25,0,.37-.01Z"/>
      <path d="M68.01,74.15c-1.85,2.02-3.7,4.03-5.55,6.05-.84-.81-1.54-1.46-2.22-2.14-.13-.13-.3-.36-.27-.5.25-.96.13-2.02,1.02-2.78,1.07-.93,2.05-1.96,3-2.88-.4-1.3-.8-2.66-1.27-3.99-.07-.21-.5-.38-.78-.41-1.93-.19-3.88-.3-5.81-.52-.63-.07-1.55-.18-1.5-.99.02-.39.83-.86,1.37-1.07,1.24-.47,2.56-.77,3.81-1.23.38-.14.75-.52.96-.88.55-.95.91-2.02,1.51-2.93,1.41-2.13,3.57-2.52,5.92-2.32,2.04.18,3.41,1.4,3.87,3.27.56,2.28,1.87,3.41,4.08,3.88.88.19,1.7.73,2.48,1.22.29.18.63.71.55.97-.1.33-.57.73-.91.76-1.67.16-3.35.27-5.02.28-1.08,0-1.18.02-1.23,1.12-.05,1.12.34,1.97,1.34,2.54,1.13.65,2.27,1.3,3.35,2.03.28.19.53.69.52,1.03-.03.91.25,1.68.66,2.48,2.19,4.19,4.34,8.4,6.47,12.63.32.63.43,1.36.63,2.05l-.25.16c-5.49-5.85-10.98-11.71-16.72-17.84Z"/>
      <path d="M41.37,89.37c-.2-.38-.38-.73-.56-1.07-.99-1.87-1.9-3.78-2.97-5.6-1.64-2.78-2.57-5.83-3.68-8.82-1.01-2.75-2.16-5.44-3.27-8.15-.2-.5-.55-.93-.85-1.44-.71.42-.82.93-.65,1.59,1.43,5.63,2.98,11.2,5.2,16.59,1.4,3.4,2.54,6.91,3.78,10.38.13.35.14.74.21,1.11-.08.03-.17.07-.25.1-.15-.18-.35-.34-.45-.54-2.04-3.94-4.24-7.81-6.05-11.86-1.49-3.33-2.45-6.88-3.78-10.29-.68-1.74-1.63-3.37-2.54-5.22-1.14,1.3-1.56,2.56-1.63,3.94-.1,2.09-.14,4.18-.21,6.27-.01.31-.03.62-.14.96-1.02-1.51-2.23-2.86-2.35-4.85-.16-2.6-.49-5.19-.79-7.78-.03-.28-.26-.74-.43-.75-.33-.03-.82.1-.99.34-.52.76-.98,1.57-1.33,2.42-.43,1.04-.73,2.13-1.15,3.4-.55-.54-1.13-.95-1.48-1.5-.67-1.05-1.22-2.17-1.77-3.28-.09-.17.02-.55.17-.72,2.86-3.2,5.75-6.39,8.63-9.58.19-.22.38-.44.59-.64.44-.45.95-.45,1.41-.09.34.26.65.59.89.95,3.48,5.14,7.86,9.46,12.23,13.81,1.85,1.84,3.68,3.71,5.43,5.65.45.5.69,1.29.77,1.98.12,1.18.03,2.38.03,3.76-.28-.32-.49-.52-.67-.75-1.75-2.21-3.38-4.51-4.53-7.11-.38-.86-.87-1-1.42-.41-.17.19-.26.59-.2.85.49,1.82.92,3.66,1.58,5.42,1.14,3.07,2.43,6.09,3.66,9.13.27.66.4,1.27-.42,1.8Z"/>
      <path d="M116.87,73.07c1.25,2.78,1.26,5.58.57,8.4-.42,1.69-.82,3.41-1.51,4.99-1.55,3.57-2.35,7.33-3.34,11.05-1.05,3.97-2.45,7.86-3.79,11.75-.6,1.74-1.56,3.22-3.26,4.26-.9.54-1.62,1.63-2.06,2.63-1.62,3.69-3.1,7.44-4.62,11.17-.23.56-.35,1.22-.72,1.66-.5.6-1.16,1.08-1.82,1.53-.19.13-.71.06-.85-.11-.18-.21-.25-.67-.14-.93.47-1.09,1.03-2.14,1.53-3.22.95-2.05,1.89-4.11,2.79-6.19.26-.59.35-1.26.52-1.89-.09-.06-.18-.12-.27-.17-.34.32-.73.6-1,.97-1.91,2.67-3.79,5.35-5.67,8.05-1.16,1.67-2.3,3.36-3.45,5.03-.18.26-.35.54-.58.76-.17.16-.43.22-.65.33-.07-.25-.28-.57-.2-.75.72-1.7,1.31-3.5,2.27-5.05,2.9-4.69,5.98-9.28,8.93-13.94,3.5-5.52,6.58-11.28,9.43-17.17,1.29-2.66,1.66-5.55,2.25-8.38.44-2.1.72-4.23,1.08-6.35.05-.28.14-.57.27-.82,1.35-2.44,2.71-4.87,4.07-7.3.05-.09.12-.17.23-.31Z"/>
      <path d="M59.53,79.04c.89.84,1.67,1.53,2.41,2.26.42.42.72.41,1.13-.04,1.67-1.81,3.37-3.59,5.11-5.45.48.51.94.99,1.39,1.47,5.06,5.34,10.12,10.67,15.16,16.02.21.22.35.6.37.91.07,1.39.06,2.79.13,4.18.03.52-.11.86-.58,1.12-.52.3-.98.7-1.46,1.05q.47.81,2.05.06c-.13,1.58-.26,3.09-.4,4.8-.51-.42-.91-.72-1.28-1.05-7.89-7.14-16-14.01-24.6-20.3-.45-.33-.56-.63-.41-1.16.35-1.22.63-2.46.98-3.87ZM69.83,89.58c.41.82.82,1,1.49.47.62-.48,1.3-.87,1.95-1.31,1.05-.71,2.09-1.43,3.22-2.21-.36-.37-.61-.64-.89-.92-1.98,1.36-3.86,2.65-5.78,3.97ZM70.45,81.35c-1.59,1.47-3.05,2.82-4.56,4.22.45.36.65,1.09,1.31.5,1.38-1.23,2.74-2.49,4.14-3.77-.31-.34-.56-.61-.88-.95ZM64.23,84.31c1.63-1.78,3.11-3.4,4.63-5.07-.08-.1-.28-.36-.52-.67-1.74,1.67-3.33,3.19-5,4.8.29.3.5.53.89.94ZM73.04,91.71c.37.88.8.89,1.4.43,1.09-.82,2.21-1.6,3.31-2.4.31-.23.6-.49.94-.77-.35-.3-.61-.52-.87-.74-1.63,1.19-3.2,2.33-4.79,3.49ZM68.52,87.6c0,.13.01.26.02.39.37.06.93.3,1.09.15,1.26-1.22,2.44-2.52,3.5-3.64-.25-.4-.43-.7-.67-1.09-1.37,1.46-2.65,2.83-3.93,4.2ZM82.62,92.74c-1.27,1.4-2.5,2.76-3.77,4.16.12.1.38.31.81.66,1.23-1.38,2.41-2.7,3.62-4.06-.14-.16-.35-.4-.66-.76ZM76.84,94.56c1.22-1.11,2.41-2.2,3.56-3.25-.27-.37-.46-.65-.7-.98-1.31,1.24-2.48,2.34-3.7,3.48.34.3.54.49.84.75ZM84.08,95.27c-.98,1.18-1.85,2.21-2.68,3.28-.11.14-.05.58.08.68.16.12.6.13.71,0,.89-1.01,1.73-2.06,2.66-3.19-.26-.26-.46-.46-.78-.77Z"/>
      <path d="M20.08,85.75c-.38,4.33.02,8.65,1.03,12.92.91,3.87,1.78,7.74,2.75,11.6.37,1.5.95,2.95,1.45,4.48-1.02-.48-1.71-1.28-2.27-2.19-1.44-2.32-2.32-4.86-3.01-7.48-.24-.91-.54-1.8-.81-2.7-.13,0-.26,0-.39,0-.2,1.04-.4,2.08-.59,3.12-.1.03-.2.05-.3.08-.17-.44-.46-.86-.5-1.31-.15-1.79-.3-3.59-.3-5.39,0-4.36-.04-8.72.16-13.07.12-2.59.67-5.17,1.03-7.75.1-.04.19-.07.29-.11.55.52,1.19.97,1.63,1.58,1.09,1.53,2.28,3.05,3.06,4.74.59,1.27.66,2.8.9,4.23.52,3.12.55,6.4,1.57,9.34,2.45,7.06,4.6,14.26,8.22,20.86.28.51.52,1.04.68,1.6.08.29-.06.64-.1.97-.1.02-.19.04-.29.05-.28-.31-.58-.61-.83-.94-3.24-4.17-5.4-8.83-6.63-13.97-.36-1.51-.97-2.98-1.58-4.41-.54-1.28-.74-1.29-2.09-.53-1.04-5.3-2.07-10.53-3.08-15.7Z"/>
      <path d="M126.87,83.03c1.46,12.64,1.73,25.08.21,37.67-.85-.89-1.78-1.58-2.3-2.51-.36-.65-.34-1.65-.18-2.42.27-1.3.79-2.54,1.21-3.81.17-.52.39-1.03.53-1.57.3-1.15.05-1.46-1.13-1.48-1.31-.03-1.8-.69-1.39-1.93.16-.49.36-.95.55-1.43-.08-.07-.17-.14-.25-.21-.51.5-1.16.92-1.49,1.51-.45.82-.78,1.75-.96,2.67-1.46,7.13-4.27,13.72-7.93,19.97-.69,1.18-1.44,2.32-2.22,3.44-.16.24-.55.32-.83.47-.04-.32-.22-.7-.11-.95.69-1.63,1.43-3.24,2.19-4.83,4.56-9.5,7.55-19.52,9.73-29.8.51-2.4.59-4.9.74-7.36.18-2.93,1.51-5.23,3.64-7.43Z"/>
      <path d="M65.33,101.22c-1.39-1.07-2.76-2.12-4.29-3.3.99-.05,1.07-.53.99-1.2-.26-2.28-.44-4.57-.73-6.84-.05-.4-.44-.86-.8-1.07-.22-.13-.74.05-1.03.25-.82.55-1.6,1.15-2.36,1.79-.33.27-.55.67-.84,1.04-.68-.27-.49-.77-.19-1.45.77-1.75,1.43-3.54,2.16-5.38.51.4,1.1.85,1.67,1.32,8.07,6.66,16.13,13.32,24.18,19.99.23.19.5.56.47.82-.31,2.56-.68,5.11-1.06,7.85-1.19-.98-2.32-1.9-3.43-2.84-.12-.1-.15-.37-.14-.56.09-2.15.17-4.29.31-6.44.04-.64-.21-1.05-.75-1.19-.27-.07-.68.12-.93.31-1.46,1.11-2.88,2.25-4.38,3.43-.79-.6-1.59-1.16-2.34-1.78-.18-.15-.29-.49-.29-.74,0-2.21-.02-4.42.05-6.62.03-.84-.22-1.4-1.11-1.74-1.67,1.41-3.39,2.87-5.15,4.36ZM75.99,103.23c-.11-.09-.32-.41-.57-.45-.54-.09-1.41.99-1.32,1.67.04.28.36.67.61.73.53.11,1.29-.97,1.29-1.95ZM66.75,97.21c-.16-.33-.22-.68-.39-.74-.21-.08-.6-.02-.75.14-.35.36-.67.79-.84,1.25-.08.22.16.65.38.85.1.1.58-.02.73-.19.34-.4.59-.88.88-1.32ZM83.09,107.58c-.39-.44-.57-.83-.87-.96-.38-.16-1.04.67-1.04,1.27,0,.5.09,1.21.66,1.06.47-.12.78-.82,1.26-1.37ZM64.4,91.88c-.12-.12-.32-.48-.6-.58-.4-.14-1.19.89-1.09,1.46.05.3.32.72.59.8.46.14,1.1-.76,1.11-1.69Z"/>
      <path d="M111.08,81.88c-.56,3.55-1.02,6.88-1.64,10.18-.18.97-.63,1.99-1.24,2.75-3.47,4.33-5.67,9.37-8.19,14.24-1.38,2.67-3.1,5.17-4.76,7.69-.56.86-1.36,1.59-2.15,2.27-1.51,1.31-2.62,2.85-3.33,4.72-.49,1.27-1.05,2.52-1.62,3.75-.17.36-.5.65-.76.97-.09-.02-.19-.05-.28-.07-.05-.34-.16-.69-.15-1.03.07-1.46.69-2.73,1.4-3.98,2.75-4.85,5.48-9.71,8.18-14.59.46-.83.74-1.76,1.08-2.66,1.56-4.06,3.11-8.12,4.67-12.18.08-.21.2-.44.37-.58,2.75-2.18,4.33-5.15,5.43-8.36.53-1.55,1.88-2.01,2.99-3.12Z"/>
      <path d="M25.21,86.84c1.14.76,2.21,1.44,3.25,2.17.23.16.44.46.51.73,1.12,4.33,3.21,8.13,6.03,11.57.4.49.53,1.27.6,1.93.56,5.48,2.6,10.52,4.72,15.52,1.04,2.45,2.28,4.82,3.42,7.23.11.23.21.49.22.74.02,1.04.01,2.09.01,3.27-.19-.21-.32-.33-.43-.47-2.9-3.88-4.99-8.15-6.45-12.76-.57-1.82-1.37-3.57-2.14-5.32-.39-.88-.9-1.72-2.19-1.24-.24.09-.83-.3-1-.61-.43-.78-.74-1.63-1.06-2.47-.95-2.5-2.03-4.95-2.77-7.51-.82-2.83-1.34-5.75-1.96-8.64-.29-1.36-.51-2.73-.77-4.13Z"/>
      <path d="M112.3,49.35c.32.98.52,2.02.99,2.91,1.22,2.31,2.57,4.55,3.85,6.83.92,1.64,1.79,3.31,2.77,5.14-.48.52-1.08,1.17-1.78,1.93-4.58-7.1-7.7-14.71-10.92-22.42.34.13.6.2.85.31,2.99,1.41,5.97,2.86,8.97,4.24,1.19.55,1.98,1.4,2.38,2.62.89,2.73,1.79,5.46,2.61,8.21.14.46-.11,1.03-.22,1.83-.61-.66-1.04-1.11-1.45-1.57-1.18-1.32-2.34-2.65-3.54-3.95-.98-1.06-1.87-2.2-2.1-3.65-.21-1.33-1.13-1.92-2.08-2.56-.11.04-.22.09-.33.13Z"/>
      <path d="M86.83,116.25c.19-1.69.37-3.38.56-5.07.23-2.08.48-4.15.68-6.23.06-.62.27-1,.85-1.35,3.12-1.87,5.61-4.41,7.47-7.53.31-.51.66-.71,1.23-.78.8-.09,1.6-.28,2.46-.43-.02.14-.02.31-.08.45-1.9,4.62-3.8,9.23-5.71,13.84-.18.43-.4.84-.59,1.26-.88,2.06-2.35,3.42-4.57,3.91-1.08.24-1.88.77-2.02,2-.1-.03-.2-.05-.3-.08Z"/>
      <path d="M9.53,82.23c-1.02-.52-1.54-1.3-1.72-2.22-.4-2.07-.67-4.17-1.04-6.26-.27-1.53-.61-3.04-.92-4.57-.13,0-.26-.01-.39-.02-.22.57-.42,1.15-.65,1.72-.15.38-.27.8-.53,1.08-.22.23-.63.27-.95.39-.07-.28-.25-.6-.19-.85,1.24-5.22,2.51-10.42,3.78-15.63.03-.11.08-.21.18-.48.15.33.27.53.34.75,1.12,3.26,2.26,6.52,3.33,9.8.16.49.05,1.07,0,1.61-.39,4.71-.8,9.43-1.2,14.14-.01.14-.03.28-.05.53Z"/>
      <path d="M12.44,80.68c-.09.59-.21,1.18-.25,1.77-.18,2.29.25,4.5.72,6.73.48,2.27.79,4.58,1.14,6.87.06.36-.04.74-.07,1.11-.08.01-.16.02-.24.03-.11-.15-.26-.28-.31-.45-.88-2.67-1.83-5.33-2.58-8.03-.84-3.03-.77-6.18-.5-9.27.32-3.67.89-7.32,1.36-10.97.01-.08.07-.15.16-.37.31.58.56,1.07.83,1.56,1.22,2.21,2.44,4.42,3.65,6.63.13.23.18.55.16.82-.2,3.07-.42,6.14-.64,9.21-.01.2.02.44-.07.6-.18.34-.38.83-.67.91-.28.07-.86-.2-.99-.48-.44-.9-.83-1.84-1.05-2.81-.21-.93-.16-1.91-.24-2.86-.03-.34-.09-.68-.13-1.01-.09,0-.19,0-.28.01Z"/>
      <path d="M45.54,33.57c-.72,2.84-1.43,5.63-2.15,8.48-.45-.24-.87-.49-1.31-.67-1.4-.56-2.75-.31-4.02.39-3.84,2.1-7.67,4.23-11.51,6.32-.44.24-1,.42-1.48.38-1.97-.2-3.67.29-5.1,1.67-.2.19-.46.3-.7.45l-.2-.18c.2-.27.35-.59.6-.81.83-.73,1.65-1.47,2.56-2.09.53-.36,1.19-.63,1.82-.72,2.19-.29,4.05-1.17,5.52-2.84.42-.48.88-.92,1.3-1.41,1.82-2.13,4-3.74,6.57-4.9,2.74-1.24,5.38-2.69,8.12-4.07Z"/>
      <path d="M54.33,151.3c-.36.34-.63.55-.85.82-.9,1.11-.55,2.4.8,2.83.62.2,1.32.32,1.96.27,2.63-.22,5.25-.52,7.88-.82.51-.06,1-.23,1.65-.38-.21.59-.4,1.08-.59,1.6-1.11-.15-2.19-.29-3.26-.43-.02.08-.05.17-.07.25.8.3,1.61.61,2.46.93-.39.73-.97.45-1.41.37-1.11-.19-2.21-.49-3.31-.73-.28-.06-.56-.09-.88,0,1.45.49,2.96.86,4.35,1.49,2.21,1,4.29.87,6.51-.04,2.38-.98,4.87-1.68,7.37-2.52-.76-1.51-1.52-3.02-2.37-4.71.84-.08,1.4-.17,1.96-.16.19,0,.47.21.56.4.83,1.78,1.62,3.59,2.47,5.48-1.84.66-3.64,1.3-5.43,1.93-2.49.88-4.97,1.77-7.46,2.63-.22.08-.51.05-.73-.02-4.31-1.35-8.62-2.75-12.94-4.06-.91-.28-1.28-.64-1.12-1.62.14-.85.11-1.74.1-2.61,0-.65.23-.97.91-.93.43.02.86,0,1.46,0Z"/>
      <path d="M50.6,39.97c.4,2.28.8,4.56,1.19,6.84.04.21.07.51-.04.65-1.53,1.93-3.08,3.83-4.65,5.76-1.08-1.16-2.14-2.29-3.19-3.44-.12-.13-.15-.37-.14-.56.18-2.58.86-5.05,1.66-7.65.63.72,1.17,1.35,1.83,2.11,1.13-1.37,2.11-2.57,3.09-3.76.08.02.16.03.24.05Z"/>
      <path d="M36.99,103.64c2.34,2.1,4.45,3.99,6.56,5.9.15.14.26.4.26.6.03,2.87.04,5.75.05,8.63,0,.05-.05.09-.21.37-.78-.83-1.66-1.53-2.2-2.43-.76-1.28-1.41-2.68-1.86-4.1-.93-2.89-1.7-5.83-2.6-8.97Z"/>
      <path d="M43.85,50.99c.74.83,1.49,1.64,2.21,2.49.95,1.12,1.09,1.15,2.03,0,1.11-1.34,2.17-2.72,3.26-4.07.17-.21.36-.41.67-.76.09,1.2.24,2.1-.61,3.02-1.51,1.63-2.84,3.44-4.27,5.22-1.13-1.25-2.32-2.41-3.29-3.73-.36-.49-.2-1.35-.27-2.05.09-.04.18-.08.27-.12Z"/>
      <path d="M47.18,60.31c-1.12-1.3-2.24-2.49-3.21-3.79-.36-.49-.37-1.25-.54-1.88.1-.05.21-.1.31-.15.85.93,1.7,1.85,2.54,2.79.78.89.93.91,1.66.02,1.13-1.37,2.23-2.75,3.35-4.13.25-.31.52-.61.91-1.07.05.89.16,1.52-.4,2.2-1.6,1.95-3.09,3.99-4.62,6Z"/>
      <path d="M48.67,34.78c.47,1.18.95,2.35,1.4,3.54.06.15,0,.41-.1.53-.86,1.09-1.75,2.16-2.68,3.3-.45-.51-.89-.96-1.28-1.46-.11-.14-.13-.45-.05-.62.78-1.77,1.58-3.52,2.38-5.28.11,0,.22,0,.33-.01Z"/>
      <path d="M57.06,148.98c-1.77.15-3.55.31-5.37.47v-5.08c1.87,1.51,3.64,2.95,5.42,4.38-.02.07-.03.15-.05.22Z"/>
      <path d="M56.93,92.58c.93-.67,1.76-1.28,2.71-1.97.41,2.41.8,4.7,1.22,7.16-.74-.56-1.38-1.02-2.01-1.51-.1-.08-.18-.26-.17-.38.1-1.44-.52-2.51-1.75-3.3Z"/>
      <path d="M42.92,46.05c-.19.23-.33.55-.57.68-2.37,1.28-4.75,2.53-7.14,3.76-.41.21-.96.34-1.19-.25-.24-.58.16-.93.65-1.14,2.59-1.07,5.18-2.13,7.77-3.19.1-.04.22-.03.32-.05.05.06.1.12.15.18Z"/>
      <path d="M69.56,104.28c-1-.74-1.98-1.45-3.04-2.23.99-.93,1.92-1.81,3.04-2.87v5.09Z"/>
      <path d="M78.17,106.25v4.57c-1.02-.78-1.92-1.47-2.88-2.21.96-.79,1.87-1.53,2.88-2.36Z"/>
      <path d="M75.76,154.85c-.42.12-.74.21-1.17.32.17-.52.3-.94.46-1.45.25.4.46.73.71,1.13Z"/>
      <path class="cls-1" d="M93.34,162.2c1.06-2.5,3.1-3.77,5.5-4.61-1.51,1.59-3.01,3.18-4.6,4.86,3.89,1.96,8,2.83,12.14,4.2-.83-1.94-1.59-3.71-2.34-5.47.1-.06.21-.12.31-.18,1.06,1.6,2.12,3.21,3.18,4.81.36-1.69,1.02-3.28,2.34-4.86.16,2.27-.6,4.12-1.12,6.06.76.14,1.25.19,1.66-.69.65-1.4,1.78-2.45,3.23-3.13-.38,1.56-1.25,2.8-2.36,4.02.77-.14,1.54-.28,2.55-.46-1.41.94-2.77,1.27-4.19,1.42-2.94.31-5.72-.38-8.41-1.45-1.19-.47-2.44-.88-3.47-1.6-2.46-1.7-5.23-2.01-8.05-1.99-2.72.02-5.43.23-8.06.35,2.51-1.85,5.53-2.2,8.88-1.88-1.33-1.71-2.57-3.3-3.8-4.89,1.82.85,3.27,2.13,4.58,3.77-.07-2.19-.25-4.26.9-6.17.03.18.09.36.09.54.06,2.18.14,4.36.14,6.54,0,.71.42.7.93.82Z"/>
      <path class="cls-1" d="M16.93,171.38c.44-.29.88-.57,1.45-.94-1.25-1.38-2.47-2.73-3.69-4.08,1.87.56,3.32,1.73,4.77,3.15-.25-1.99-.34-3.84.44-5.83.94,2.06.7,4.01.47,6.03.97-.31,1.75-.59,2.23-1.6.66-1.37,1.58-2.61,2.38-3.91.1.05.21.09.31.14-.41,1.29-.81,2.57-1.29,4.08,3.12-1.24,6.08-2.43,9.18-3.66-1.62-1.11-3.35-1.2-5.07-1.37,1.96-.61,3.87-.4,5.71.46,1.15.53,1.56.27,1.53-.99-.03-1.12,0-2.23.16-3.39.3,1.27.6,2.55.95,4.02,1.29-1.52,2.61-2.69,4.36-3.21.05.06.1.12.15.18-.65.56-1.31,1.12-1.96,1.68.05.06.1.12.15.18,1.24-.28,2.47-.59,3.72-.82,1.25-.23,2.51-.3,3.93.13-4.26.54-7.84,2.47-11.54,4.04-4.75,2.02-9.45,4.18-14.51,5.37-1.23.29-2.48.48-3.72.71-.04-.12-.08-.24-.13-.36Z"/>
      <path class="cls-1" d="M88.35,179.53h-11.27c1.37,2.39,2.67,4.67,3.98,6.96-.05.07-.09.14-.14.21-.26-.17-.59-.29-.75-.53-.79-1.15-1.6-2.29-2.29-3.5-3.54-6.27-7.04-12.56-10.56-18.85-.04-.07-.05-.16-.08-.24,1.24-1,11.68-5.36,12.36-5.04-3.65,2.13-7.44,3.76-11.3,5.45,1.9,3.15,3.78,6.28,5.62,9.34.42-.16.81-.44,1.23-.47,2.95-.2,5.85.14,8.73.8.04,0,.06.09.09.13-1.4.4-8.32.53-9.85.13.91,1.72,1.75,3.3,2.48,4.69,1.13-.17,2.12-.5,3.08-.42,2.68.23,5.35.61,8.02.96.22.03.41.26.61.4l.03-.02Z"/>
      <path class="cls-1" d="M63.62,164.5c-4.35-1.7-8.63-3.37-12.91-5.04.02-.14.04-.28.06-.42.36,0,.75-.09,1.07.01,3.73,1.19,7.44,2.41,11.16,3.64.93.31,1.84.67,2.69.98-.31.61-.63,1.11-.83,1.66-2.59,6.78-5.61,13.37-8.96,19.81-.08.15-.15.33-.26.45-.14.15-.33.25-.5.37-.04-.23-.18-.49-.11-.67.5-1.2,1.06-2.39,1.58-3.58,1.65-3.77,3.29-7.54,4.92-11.26-3.42.23-6.76.45-10.1.67-.01-.12-.02-.24-.03-.36,3.38-.7,6.81-1.03,10.36-1.28.6-1.59,1.23-3.26,1.88-4.97Z"/>
      <path class="cls-1" d="M32.78,176.72c-1.13-1.32-2.66-2.14-3.42-3.8.26-.02.43-.09.56-.03,1.57.68,3.04,1.51,3.87,3.08.39.74.86,1.04,1.73.77-.4-1.79-1.02-3.57-.7-5.47,1.04,1.77,1.5,3.73,1.87,5.82.95-1.76,2.04-3.3,3.97-4.01-.43,1.7-1.49,2.97-2.82,4.22,2.59.94,4.87,2.28,6.76,4.32-.3-.11-.6-.22-.9-.32-3.42-1.19-6.83-2.4-10.26-3.55-.35-.12-.84,0-1.21.14-1.73.66-3.4,1.49-5.17,2.01-2.11.62-4.1.1-5.86-1.25.83.12,1.66.25,2.65.4-.45-.81-.81-1.45-1.17-2.09.09-.08.18-.15.27-.23.58.55,1.21,1.06,1.71,1.68.38.46.71.54,1.26.37,2.24-.69,4.49-1.35,6.86-2.06Z"/>
      <path class="cls-1" d="M59.99,181.44c1.16-1.77,2.77-3.08,4.55-4.29-.79-.83-1.51-1.66-2.31-2.41-.4-.38-.37-.62-.05-1.01,1.57-1.89,3.12-3.8,4.77-5.81,1.74,1.81,3.44,3.58,5.16,5.37-.73.98-1.48,2-2.28,3.1,1.9,1.31,3.56,2.8,4.76,4.77-1.97-1.06-3.74-2.37-5.38-3.97-.69.87-1.33,1.68-2.04,2.58-.63-.59-1.24-1.16-1.88-1.76-.74.67-1.44,1.35-2.19,1.97-.67.55-1.39,1.05-2.11,1.53-.24.15-.58.15-.87.22-.04-.1-.07-.2-.11-.3ZM67.18,178.17c1.21-1.71,2.35-3.31,3.51-4.95-1.29-1.15-2.51-2.24-3.77-3.36-1.27,1.33-2.52,2.65-3.8,3.99,1.36,1.44,2.67,2.83,4.06,4.31Z"/>
      <path class="cls-1" d="M88.33,179.55c2.59-1.08,5.3-1.39,8.25-1.1-1.32-1.32-2.5-2.5-3.67-3.68.05-.06.1-.13.16-.19,2.17.97,4.34,1.96,5.81,3.99.69-.31.72-.77.51-1.42-.44-1.4-.8-2.83-1.19-4.24.09-.03.19-.06.28-.09.56,1.38,1.11,2.76,1.65,4.1,1-1.59,2-3.19,3.01-4.8.12.06.24.13.36.19-.63,2.34-1.8,4.44-3.2,6.58.52.1.91.24,1.29.21.27-.02.62-.22.75-.45.6-1.05,2.21-2.01,3.43-1.68-.95.75-1.91,1.5-2.98,2.34h3.26c-.9.7-1.94.9-3.01.87-3.19-.1-6.38-.25-9.57-.35-1.45-.04-2.9.02-4.35,0-.25,0-.51-.2-.76-.3,0,0-.03.02-.03.02Z"/>
      <path class="cls-1" d="M82.73,194.64c-1.98-1.07-3.98-2.13-5.95-3.21-1.63-.89-3.25-1.79-4.86-2.72-.99-.57-1.89-.55-2.96-.08-4.89,2.14-9.81,4.21-14.73,6.27-.36.15-.84.04-1.26.06.29-.28.54-.65.88-.81,5.21-2.48,10.44-4.93,15.65-7.41.69-.33,1.26-.29,1.87.11,3.51,2.32,7.02,4.64,10.52,6.97.31.21.61.43.92.64-.03.06-.06.12-.08.18Z"/>
      <path class="cls-1" d="M77.07,200.16c-2.56-1.15-5.15-2.25-7.68-3.47-1.59-.77-2.99-.66-4.51.24-2.35,1.38-4.79,2.61-7.19,3.89-.32.17-.66.31-1.11.35.14-.19.26-.39.43-.56,2.02-2.11,4.33-3.85,6.83-5.35,1.78-1.07,3.54-1.05,5.41-.29,2.97,1.21,5.46,3.14,7.82,5.2Z"/>
      <path class="cls-1" d="M57.51,187.97c.21-.18.4-.39.63-.53,3.46-2.02,6.92-4.03,10.37-6.06.51-.3.94-.3,1.44.01,3.32,2.1,6.53,4.33,9.35,7.09.42.41.73.91,1.1,1.37l-.28.28c-.27-.18-.54-.34-.79-.54-2.45-1.91-4.89-3.83-7.34-5.74-.37-.29-.77-.53-1.14-.81-.71-.54-1.35-.5-2.15-.07-3.22,1.72-6.49,3.36-9.75,5.01-.4.2-.88.23-1.32.34-.04-.12-.09-.24-.13-.35Z"/>
      <path class="cls-1" d="M65.59,194.11c1.52-.89,3.03-1.81,4.57-2.67.9-.5,1.78-.13,2.55.34,2.58,1.56,5.13,3.16,7.68,4.77.71.45,1.36.98,1.98,1.6-1.1-.48-2.21-.94-3.3-1.44-2.5-1.15-5.01-2.29-7.49-3.48-.96-.46-1.86-.54-2.84-.13-1.01.43-2.04.8-3.06,1.19-.03-.06-.07-.12-.1-.17Z"/>
      <path class="cls-1" d="M40.25,190.63c1.94-.28,3.88-.59,5.83-.81,1.56-.18,3.12-.27,4.69-.33.64-.02,1.45-.04,1.61.78.03.14-.96.68-1.48.69-3.45.05-6.91.02-10.36,0-.1,0-.19-.08-.29-.13,0-.06,0-.13,0-.19Z"/>
      <path class="cls-1" d="M94.87,188.93c-.16.03-.33.08-.49.08-3.3-.03-6.61-.03-9.91-.12-.42-.01-.84-.45-1.26-.68.42-.24.83-.66,1.27-.68,3.54-.23,6.97.48,10.4,1.41Z"/>
      <path class="cls-1" d="M90.47,182.45c-3.09,0-6.18,0-9.26-.01-.24,0-.52-.12-.73-.25-.38-.25-.42-.59.02-.79.36-.17.77-.29,1.16-.31,2.88-.14,5.71.25,8.51.92.11.03.2.09.3.14,0,.1,0,.2,0,.3Z"/>
      <path class="cls-1" d="M91.14,184.71c-3.25,0-6.49.02-9.74-.02-.47,0-1.22,0-1.17-.69.02-.26.77-.64,1.2-.65,3.14-.09,6.24.33,9.3,1.05.15.04.3.12.45.18-.02.04-.03.09-.05.13Z"/>
      <path class="cls-1" d="M43.96,187.62c1.31-.18,2.62-.43,3.94-.53,1.62-.13,3.25-.22,4.87-.19.54.01,1.08.47,1.62.72-.53.21-1.06.6-1.58.6-2.76-.02-5.51-.14-8.27-.24-.19,0-.39-.08-.58-.12,0-.08,0-.16,0-.24Z"/>
      <path class="cls-1" d="M45.25,182.42c1.94-.22,3.88-.45,5.82-.65.86-.09,1.73-.09,2.6-.13.2,0,.43-.05.6.02.41.19.8.45,1.19.68-.37.21-.74.59-1.12.61-1.7.1-3.41.14-5.11.11-1.32-.02-2.63-.19-3.95-.29,0-.12-.02-.24-.03-.37Z"/>
      <path class="cls-1" d="M53.93,196.91c-2.25.99-7.41,1.77-9.07,1.4,2.12-1.73,6.54-2.44,9.07-1.4Z"/>
      <path class="cls-1" d="M85.61,176.26c-2.89.15-5.78.31-8.67.46-.11,0-.25.02-.34-.03-.27-.16-.53-.36-.79-.54.24-.22.45-.54.74-.64.43-.14.92-.19,1.37-.17,2.46.15,4.91.34,7.37.52.1,0,.2.08.3.12,0,.09.01.18.02.27Z"/>
      <path class="cls-1" d="M69.53,116.84c1.53-1.85,3.07-3.71,4.65-5.62.34.29.6.51.95.81-.82.99-1.6,1.94-2.39,2.89-.59.71-1.19,1.42-1.78,2.14-.61.74-.74.73-1.43-.22Z"/>
      <path class="cls-1" d="M71.32,201.46c-.24-.18-.42-.31-.59-.44-1.28-.96-2.67-1.33-4.25-.84-.89.27-1.81.44-2.86.68.59-1.31,2.65-2.46,3.97-2.38,1.38.09,3.24,1.55,3.73,2.98Z"/>
      <path class="cls-1" d="M80.01,169.38c-2.45,0-4.91,0-7.36,0-.22,0-.47-.07-.66-.18-.16-.09-.36-.29-.35-.43.02-.19.18-.42.35-.53.18-.12.44-.19.66-.19,2.53-.03,4.98.41,7.37,1.34Z"/>
      <path class="cls-1" d="M69.93,107.36c.28.32.51.57.75.84-.09.14-.14.26-.22.31-1.61,1.13-3.23,2.24-4.84,3.37-.39.27-.69.34-1.02-.11-.38-.52-.01-.71.33-.94,1.64-1.14,3.27-2.28,5-3.48Z"/>
      <path class="cls-1" d="M67.45,106.57c.82.85.82.91-.08,1.44-1.5.88-3.01,1.74-4.52,2.62-.38.22-.75.49-1.07-.12-.29-.55.08-.71.44-.92,1.73-.99,3.46-2,5.23-3.02Z"/>
      <path class="cls-1" d="M58.99,196.66c-2.16,1.42-4.21,2.7-6.68,3.23.59-2.06,3.74-3.6,6.68-3.23Z"/>
      <path class="cls-1" d="M53.14,166.4c2.28-.71,4.63-1,7.02-1.02.19,0,.41.05.58.15.18.11.42.31.42.45-.01.16-.26.32-.43.46-.08.07-.21.1-.32.12-2.42.4-4.83.22-7.27-.17Z"/>
      <path class="cls-1" d="M79.33,166.79c-.25.03-.5.09-.75.08-2.08-.08-4.16-.14-6.24-.29-.43-.03-1.19-.45-1.18-.66.04-.67.71-.62,1.22-.6,2.37.11,4.69.53,6.94,1.47Z"/>
      <path class="cls-1" d="M72.99,117.49c1.59-1.2,3.15-2.43,4.78-3.56.19-.13.75.25,1.13.4,0,.11-.01.23-.02.34-1.61,1.16-3.2,2.35-4.85,3.46-.2.14-.68-.13-1.03-.21,0-.14-.01-.29-.02-.43Z"/>
      <path class="cls-1" d="M42.44,194.6c2.95-1.4,6.12-1.37,9.29-1.39-2.95,1.36-6.11,1.43-9.29,1.39Z"/>
      <path class="cls-1" d="M72.75,111.32c-1.4,1.03-2.75,2.03-4.11,3.01-.7.51-.95-.13-1.38-.64.45-.35.86-.7,1.29-1.02.81-.61,1.64-1.2,2.46-1.8.92-.67.97-.66,1.75.45Z"/>
      <path class="cls-1" d="M92.2,192.62c-1.11-.07-2.22-.12-3.32-.22-1.07-.1-2.14-.19-3.19-.39-.45-.09-.84-.47-1.26-.72.45-.17.94-.55,1.36-.47,1.87.32,3.72.76,5.58,1.18.31.07.6.25.9.38-.02.08-.04.16-.06.24Z"/>
      <path class="cls-1" d="M52.23,184.44c-2.71.97-5.32.63-7.92.51,1.61-1.23,6.82-1.61,7.92-.51Z"/>
      <path class="cls-1" d="M58.61,176.86c-3.1.77-6.14.86-9.18.9-.02-.1-.03-.19-.05-.29,1.28-.25,2.55-.52,3.83-.73,1.26-.21,2.52-.36,3.79-.52.89-.11,1.02-.05,1.6.64Z"/>
      <path class="cls-1" d="M82.68,171.54c-2.34,0-4.67.02-7.01-.02-.29,0-.58-.34-.87-.52.31-.2.62-.55.94-.56,2.36-.12,4.67.2,6.93.84,0,.09,0,.18,0,.26Z"/>
      <path class="cls-1" d="M60.29,172.3c-3.26.92-6.62.84-10.16,1.15.96-.88,8.93-1.77,10.16-1.15Z"/>
      <path class="cls-1" d="M66.55,104.85c-1.7.97-3.13,1.78-4.55,2.61-.75.43-.93-.14-1.29-.75,1.58-.86,3.09-1.73,4.66-2.49.2-.1.66.35,1.18.64Z"/>
      <path class="cls-1" d="M56.74,179.5c-3.08.29-6.15.59-9.23.88-.04-.12-.07-.24-.11-.36.15-.12.3-.32.46-.33,2.82-.25,5.64-.47,8.46-.69.13,0,.26.08.39.13,0,.12.01.25.02.37Z"/>
      <path class="cls-1" d="M48.71,175.16c2.31-.94,4.68-1.48,7.19-.82-2.31.92-4.72,1.08-7.19.82Z"/>
      <path class="cls-1" d="M72.25,163.99c1.22-1.04,5.24-1.26,6.77-.37,0,.08,0,.17.01.25-2.25.13-4.49.26-6.74.39-.01-.09-.03-.18-.04-.27Z"/>
      <path class="cls-1" d="M57.46,168.03c-2.03.64-3.9.74-5.87.66.79-.98,4.48-1.43,5.87-.66Z"/>
      <path class="cls-1" d="M57.8,163.98c-1.74.16-3.47.32-5.21.48,0-.09-.02-.17-.02-.26,1.1-.93,4.02-1.22,5.2-.53l.03.31Z"/>
      <path class="cls-1" d="M60.84,8.18c-4.06-.28-8.01-.55-12.14-.83,1.95-1.16,27.76-1.09,31.43.13-2.19.14-4.39.31-6.58.42-2.23.12-4.46.19-6.74.28.44.54.8,1.06,1.23,1.5.17.17.51.24.77.25,4.76.19,9.52.36,14.28.56.88.04,1.75.14,2.63.22,0,.11,0,.22,0,.33-5.63.27-11.26.53-16.75.79-.47,1.25-.94,2.49-1.39,3.69,7.13.27,14.43.55,21.97.83-3.35,1.57-38.65,1.3-43.95-.36,4.83-.15,9.66-.29,14.34-.43-.47-1.19-.96-2.45-1.52-3.87-3.79-.23-7.85-.49-11.92-.74,0-.09,0-.18,0-.27,1.64-.13,3.28-.29,4.93-.38,2.32-.13,4.64-.22,6.97-.29.56-.02.96-.1,1.28-.65.26-.45.74-.77,1.17-1.2Z"/>
      <path class="cls-1" d="M94.98,21.13c-1.51.83-55.75,0-59.09-.85,19.72-1.18,39.4-.2,59.09.85Z"/>
      <path class="cls-1" d="M107.31,32.94c-5.91.34-11.59.45-17.39-.47,1.33-.68,15.46-.3,17.39.47Z"/>
      <path class="cls-1" d="M23.85,33.11c5.09-.44,10.18-.4,15.25.31-5.09.28-10.17.35-15.25-.31Z"/>
      <path class="cls-1" d="M37.12,28.5c-3.45,1-6.95.84-10.47.34,3.46-.63,6.95-.64,10.47-.34Z"/>
      <path class="cls-1" d="M36.54,25.38h11.87c0,.12,0,.23,0,.35-3.96.68-7.92.24-11.87-.35Z"/>
      <path class="cls-1" d="M79.33,26.98c2.82-.47,5.64-.38,8.46.28h-8.46v-.28Z"/>
      <path class="cls-1" d="M25.92,37.32c-2.91-.17-5.81-.34-8.72-.51,0-.15.02-.3.03-.45,2.9.15,5.8.3,8.71.46,0,.17,0,.34-.01.51Z"/>
      <path class="cls-1" d="M44.44,23.33h-7.98c0-.09,0-.18,0-.27,2.67-.35,5.33-.34,7.97.27Z"/>
      <path class="cls-1" d="M96.35,27.01c-2.57.65-5.17.42-7.76.36,0-.12,0-.24,0-.36h7.77Z"/>
      <path class="cls-1" d="M83.66,25.24h6.88v.25h-6.9c0-.08.02-.17.03-.25Z"/>
      <path class="cls-1" d="M24.66,35.81c-1.07-.09-2.14-.19-3.22-.28,0-.11.02-.22.03-.33,1.06.09,2.13.17,3.19.26,0,.11,0,.23,0,.34Z"/>
      <path class="cls-1" d="M30.32,135.78c.77,3.67,1.17,7.21.65,10.93-1.23-1.56-1.68-8.97-.65-10.93Z"/>
      <path class="cls-1" d="M6.1,103.73c1,2.97,1.65,5.98,1.17,9.13-1.39-2.91-1.77-5.96-1.17-9.13Z"/>
      <path class="cls-1" d="M25.87,138.69c-1.06-2.98-1.2-5.78-.61-8.7.86,1.07,1.31,6.8.61,8.7Z"/>
      <path class="cls-1" d="M14.6,125.34c1.03,2.56,1.67,5.18,1.33,7.96-1.34-2.5-1.7-5.17-1.33-7.96Z"/>
      <path class="cls-1" d="M35.72,139.05c1,2.69,1.34,5.45.82,8.28-1.09-2.68-1.14-5.46-.82-8.28Z"/>
      <path class="cls-1" d="M8.49,147.42c-1.04-1.49-1.62-6.08-1.02-7.79.85,1.2,1.53,6.24,1.02,7.79Z"/>
      <path class="cls-1" d="M3.8,112.64c.82,2.47,1.26,4.99.81,7.6-1.05-2.45-1.36-4.98-.81-7.6Z"/>
      <path class="cls-1" d="M17.79,124.99c-1.19-2.39-1.52-4.91-1.11-7.53.94,2.42,1.46,4.91,1.11,7.53Z"/>
      <path class="cls-1" d="M11.14,131.92c.77,1.48,1.13,3.06,1.01,4.81-.95-.85-1.45-3.15-1.01-4.81Z"/>
      <path class="cls-1" d="M20.02,138.87c-.82-1.33-1.19-2.75-.83-4.3.78,1.33,1.05,2.76.83,4.3Z"/>
      <path class="cls-1" d="M17.39,145.43c.67,1.36,1,2.77.67,4.53-.83-1.57-1.08-3-.67-4.53Z"/>
      <path class="cls-1" d="M12.73,151.12c-.77-1.21-.91-2.92-.4-4.18.65.82.85,2.67.4,4.18Z"/>
      <path class="cls-1" d="M23.42,146.15c-.73-1.31-1.17-2.67-.74-4.17.77,1.29.99,2.69.74,4.17Z"/>
      <path class="cls-1" d="M14.82,139.61c.15,1.38.29,2.77.44,4.15-1.02-.86-1.28-3.03-.76-4.15.11,0,.22,0,.32,0Z"/>
      <path class="cls-1" d="M7.61,129.46c-.82-1.37-1.2-2.69-1.06-4.21.83.84,1.38,2.93,1.06,4.21Z"/>
      <path class="cls-1" d="M11.96,113.2l1.25,3.73c-.13.05-.27.09-.4.14-.77-1.12-1.23-2.35-1.22-3.74.12-.04.25-.08.37-.12Z"/>
      <path class="cls-1" d="M9.36,118.79c.64,1.32,1.1,2.53.94,3.98-.86-.88-1.3-2.69-.94-3.98Z"/>
      <path class="cls-1" d="M22.01,127.13c-.25-1.26-.5-2.52-.75-3.78.92.54,1.36,2.53,1.07,3.72-.11.02-.21.04-.32.06Z"/>
      <path class="cls-1" d="M109.81,149.41c-.24-2.41.34-4.52,1.12-6.67.54,1.11-.14,5.28-1.12,6.67Z"/>
      <path class="cls-1" d="M114.75,144.12c.06-2.09.78-3.95,1.97-5.64-.11,2.07-.74,3.96-1.97,5.64Z"/>
      <path class="cls-1" d="M119.72,141.32c-.47,1.21-.94,2.43-1.42,3.64-.12-.05-.24-.09-.35-.14.07-1.37.62-2.56,1.41-3.65.12.05.24.09.36.14Z"/>
      <path class="cls-1" d="M106.76,148.15c.33-1.15.67-2.31,1-3.46.48.95.06,2.58-.7,3.54-.1-.03-.2-.05-.3-.08Z"/>
      <path class="cls-1" d="M116.21,149.47c-.13.7-.27,1.4-.4,2.1-.13-.02-.25-.05-.38-.07l.42-2.09c.12.02.24.05.36.07Z"/>
      <path class="cls-1" d="M112.4,148.63c.08-.66.16-1.32.24-1.98.12.01.24.03.36.04-.08.66-.15,1.32-.23,1.98-.12-.01-.25-.03-.37-.04Z"/>
      <path class="cls-1" d="M69.83,89.58c1.92-1.32,3.8-2.61,5.78-3.97.27.29.53.55.89.92-1.14.78-2.17,1.5-3.22,2.21-.65.44-1.34.83-1.95,1.31-.67.52-1.08.34-1.49-.47Z"/>
      <path class="cls-1" d="M70.45,81.35c.32.35.57.62.88.95-1.4,1.28-2.76,2.54-4.14,3.77-.66.59-.85-.14-1.31-.5,1.51-1.4,2.97-2.75,4.56-4.22Z"/>
      <path class="cls-1" d="M64.23,84.31c-.39-.41-.6-.64-.89-.94,1.68-1.61,3.26-3.13,5-4.8.24.31.44.57.52.67-1.52,1.67-3,3.29-4.63,5.07Z"/>
      <path class="cls-1" d="M73.04,91.71c1.59-1.16,3.16-2.3,4.79-3.49.26.22.51.44.87.74-.34.28-.63.55-.94.77-1.1.8-2.23,1.58-3.31,2.4-.61.46-1.03.45-1.4-.43Z"/>
      <path class="cls-1" d="M68.52,87.6c1.28-1.37,2.56-2.74,3.93-4.2.24.4.43.69.67,1.09-1.06,1.12-2.24,2.42-3.5,3.64-.16.16-.72-.09-1.09-.15,0-.13-.01-.26-.02-.39Z"/>
      <path class="cls-1" d="M82.62,92.74c.32.36.52.6.66.76-1.21,1.36-2.4,2.68-3.62,4.06-.43-.35-.69-.56-.81-.66,1.27-1.4,2.5-2.76,3.77-4.16Z"/>
      <path class="cls-1" d="M76.84,94.56c-.29-.26-.5-.45-.84-.75,1.22-1.15,2.38-2.25,3.7-3.48.24.33.43.61.7.98-1.15,1.05-2.34,2.14-3.56,3.25Z"/>
      <path class="cls-1" d="M84.08,95.27c.32.32.52.52.78.77-.93,1.13-1.77,2.18-2.66,3.19-.11.13-.56.12-.71,0-.13-.1-.19-.55-.08-.68.83-1.07,1.7-2.1,2.68-3.28Z"/>
      <path class="cls-1" d="M75.99,103.23c0,.98-.76,2.06-1.29,1.95-.25-.05-.57-.45-.61-.73-.09-.69.78-1.76,1.32-1.67.25.04.46.36.57.45Z"/>
      <path class="cls-1" d="M66.75,97.21c-.29.45-.53.93-.88,1.32-.14.17-.62.28-.73.19-.22-.2-.46-.63-.38-.85.17-.46.5-.89.84-1.25.15-.16.54-.22.75-.14.17.06.23.41.39.74Z"/>
      <path class="cls-1" d="M83.09,107.58c-.47.55-.79,1.25-1.26,1.37-.56.15-.66-.57-.66-1.06,0-.59.67-1.42,1.04-1.27.3.12.49.51.87.96Z"/>
      <path class="cls-1" d="M64.4,91.88c-.01.92-.65,1.83-1.11,1.69-.26-.08-.53-.5-.59-.8-.1-.57.69-1.6,1.09-1.46.29.1.48.45.6.58Z"/>
      <path d="M67.18,178.17c-1.4-1.48-2.71-2.87-4.06-4.31,1.28-1.34,2.53-2.66,3.8-3.99,1.26,1.12,2.48,2.21,3.77,3.36-1.16,1.63-2.29,3.24-3.51,4.95ZM68.33,173.65c-.44-.69-1.48-.85-1.97-.33-.28.3-.36.68.15.76.63.1,1.31.15,1.82-.43Z"/>
      <path class="cls-1" d="M68.33,173.65c-.5.58-1.18.53-1.82.43-.51-.08-.43-.45-.15-.76.49-.52,1.52-.35,1.97.33Z"/>
    </g>
  </g>
</svg>