<?xml version="1.0" encoding="UTF-8"?>
<svg id="Ebene_2" xmlns="http://www.w3.org/2000/svg" viewBox="0 0 93.48 160.96">
  <g id="Kapitel2_x5F_Illu4">
    <g>
      <path d="M82.2,151.57c1.61-.84,2.86-2.35,4.86-2.34.66,0,1.33,0,1.99.13-1.61.3-3.3.25-4.62,1.58.45-.06.83-.1,1.21-.14l.05.14-1.7.98.05.1c1.42-.46,2.83-.92,4.26-1.38l.09.18c-.42.25-.84.5-1.34.79.46-.08.84-.14,1.22-.2,0,.02,0,.03,0,.06-.79.34-1.58.67-2.38,1.01,2.08-.61,4.14-.8,6.22-.02-2.12.12-4.27.1-6.22,1.57.89.22,1.42-.29,2.02-.5.62-.23,1.23-.52,1.84-.78.06.09.1.18.16.26-.34.29-.67.58-1.09.95,1.59-.11,3.09-.02,4.38.96-1.47-.36-2.92-.39-4.33.3h.76c-.36.36-.6.59-.84.83,0,.03.02.06.03.1l1.63-.78c.06.03.11.06.17.1-.23.38-.46.77-.62,1.04,1.05-.08,2.22-.18,3.38-.26l.02.23c-.71.18-1.43.36-2.14.54.02.06.02.12.04.18.34-.1.69-.19,1.04-.28.02.04.04.08.06.11-.12.11-.24.23-.44.42.5-.03.9-.06,1.5-.1-.36.3-.56.48-.8.69.22.06.36.09.5.13v.12c-1.24.2-2.48.4-3.71.6-.02-.06-.03-.11-.05-.18l1.04-.46c-1.36.05-2.74,0-4.07.89.19-.59.34-1.05.54-1.67-.91.55-1.68,1.02-2.45,1.49-.02-.02-.06-.04-.08-.06.1-.15.2-.31.38-.6-.96.37-1.82.7-2.66,1.02-.04-.07-.08-.14-.12-.21.58-.44,1.18-.87,1.76-1.31-.02-.04-.04-.08-.06-.13-1.05.59-2.1,1.18-3.14,1.77-.03-.04-.07-.08-.1-.12.18-.22.36-.44.67-.82-1.24.5-2.32.94-3.4,1.37.74-1.49,2.1-2.15,3.49-2.76-.02-.06-.05-.1-.07-.16-.78.32-1.59.58-2.33.97-.76.4-1.45.92-2.21,1.34.47-1.25,1.46-2.04,2.41-2.87-.05-.06-.09-.11-.14-.18-.89.67-1.81,1.3-2.66,2.02-.87.73-1.68,1.52-2.52,2.29l-.18-.18c.83-1.27,1.67-2.54,2.5-3.82-1.61,1.5-3.02,3.26-5.26,3.96.98-1.23,1.95-2.46,2.93-3.7-1.96,1.64-3.83,3.43-6.61,3.79.33-.34.65-.67.98-.99.34-.33.7-.65,1.06-.94.38-.3.78-.57,1.14-.9-2.22.65-3.69,2.69-5.99,3.22,1.84-1.84,2.71-4.5,5.08-5.87-.03-.06-.07-.1-.1-.16-.58.38-1.2.7-1.73,1.15-1.01.86-1.94,1.81-2.94,2.68-1.21,1.06-2.63,1.66-4.25,1.78-.32.02-.63.1-.95.15.1.1.21.18.31.28,1.18-1.38,2.35-2.78,3.53-4.16-2.51,1.89-5.22,3.38-8.5,3.62.47-.22.92-.41,1.35-.63.48-.25.97-.5,1.41-.82.4-.29.74-.66,1.03-1.06-1.76.62-3.53,1.24-5.41,1.9,1.14-.82,2.19-1.58,3.25-2.35-.04-.06-.08-.11-.11-.17-1.5.55-2.99,1.11-4.48,1.66-.04-.02-.08-.04-.11-.06.5-.45,1.01-.9,1.52-1.34,0-.03-.02-.06-.03-.09-.85.34-1.69.69-2.56,1.05.21-.26.44-.54.66-.81-.02-.05-.05-.1-.07-.14-1.06.41-2.11.82-3.29,1.26.28-.94,1.06-1.12,1.65-1.61-1.29.35-2.58.71-3.87,1.06-.02-.02-.04-.05-.06-.06.5-.35,1-.7,1.5-1.06,0-.04-.02-.07-.02-.11-.84.31-1.68.62-2.55.94.3-.84,1.14-1.11,1.82-1.55-1.81.42-3.57.93-4.98,2.34.23-.84.85-1.41,2.42-2.46-1.25.36-2.5.73-3.8,1.1.55-.38,1.1-.75,1.64-1.12,0-.04-.02-.07-.02-.11-.93.28-1.86.57-2.78.85-.03-.04-.06-.07-.09-.11.46-.3.93-.61,1.39-.9-.02-.04-.02-.09-.04-.13-1.01.34-2.02.69-3.14,1.07.38-.44.73-.85,1.06-1.25-1.44.05-2.37,1.24-3.69,1.7.66-.78,1.31-1.57,1.7-2.04-.77.34-2,.87-3.31,1.45.22-1,.97-1.38,1.69-1.78l-.09-.17c-1.38.65-2.74,1.29-4.12,1.94-.06-.1-.13-.18-.19-.28.94-.99,1.88-1.99,2.77-2.93-1.43.83-2.94,1.71-4.46,2.6.14-1.17,1.09-1.62,1.69-2.41-1.79.94-3.59,1.87-5.38,2.82-.06-.1-.12-.18-.18-.28.6-.5,1.2-.99,1.8-1.49l-.02-.09c-1.98.86-3.95,1.7-6.04,2.61.8-1.12,1.93-1.67,2.94-2.4l-3.31,1.3s-.06-.1-.1-.14c.34-.26.69-.53,1.03-.8-.02-.05-.05-.09-.06-.14-.92.48-1.84.96-2.76,1.44-.04-.02-.08-.04-.12-.06.33-.42.66-.84.98-1.26-.02-.03-.03-.06-.05-.1-.94.56-1.88,1.12-2.99,1.78.28-.38.46-.62.7-.94-.46.14-.81.25-1.16.35-.02-.04-.05-.08-.07-.12.3-.18.62-.37.92-.56l-.06-.16c-.95.34-1.91.68-3.02,1.08.5-.42.87-.74,1.26-1.06,0-.02-.02-.05-.03-.07-.62.26-1.23.5-1.85.76-.03-.03-.06-.06-.09-.1.3-.34.61-.67.95-1.05-1.5.37-2.31,1.67-3.61,2.51.46-.7.83-1.28,1.21-1.86l-.22-.22c-.67.51-1.34,1.03-2.01,1.54-.04-.02-.08-.03-.12-.05.25-.5.5-1,.75-1.5-.03-.03-.07-.07-.1-.1-.54.52-1.09,1.04-1.74,1.66.1-.4.17-.69.29-1.18-.54.6-.98,1.07-1.53,1.68.05-.38.07-.57.1-.87-.34.3-.63.54-.92.78-.03-.02-.06-.05-.09-.07.24-.32.48-.64.72-.96-1.05.35-1.9.94-2.46,1.93-.06-.04-.11-.08-.18-.13.39-.58.79-1.17,1.26-1.86-.74.48-1.4.9-2.06,1.32-.04-.04-.08-.08-.12-.13.33-.34.65-.69.98-1.03-.03-.05-.07-.1-.1-.14-.79.58-1.58,1.17-2.37,1.75-.04-.02-.08-.06-.12-.08.27-.47.55-.94.82-1.41-.02-.03-.03-.06-.05-.09-.48.37-.97.74-1.5,1.15-.28-.72-.06-1.34.3-1.84,1.06-1.46,2.18-2.86,3.29-4.27.28-.36.58-.7.98-.96-1.03,1.41-2.27,2.64-2.84,4.38.79-.85,1.54-1.66,2.3-2.46.04.03.08.07.12.1-.37.52-.74,1.03-1.1,1.55,1.26-1.42,3.18-2.26,3.81-4.24.13,1.5-1.47,2.13-1.8,3.53,1.42-1.26,2.67-2.47,2.77-4.45.02-.54.34-1.07.62-1.57l-.78,3.94s.06.05.09.08c.6-.86,1.19-1.71,1.9-2.73-.19.8-.34,1.42-.49,2.06,1.22-1.16.74-2.88,1.41-4.22v3.86c.22-.39.34-.62.52-.95.1.36.18.6.25.84.06,0,.11,0,.17.02.06-.66.18-1.3.17-1.95-.06-2.05.5-3.88,1.78-5.48.07-.09.15-.17.32-.22-1.5,2.06-1.95,4.31-1.34,6.78.64-1.49.39-3.2,1.12-4.7v4.02c.2-.33.33-.54.54-.9.02.43.04.7.06,1.09.66-1.44.82-2.83.26-4.3.12,0,.25-.02.37-.02.32,1.29.65,2.58.97,3.87h.14c0-1.22-.04-2.46,0-3.68.05-1.25.42-2.42,1.21-3.44-.7,1.75-.9,3.54-.62,5.38.06,0,.12.02.18.03.18-1,.35-1.99.53-2.99.02,0,.05,0,.07,0v3.35c.74-1.34,1.47-2.65,2.2-3.95.03,0,.06.02.1.03-.35.93-.7,1.86-1.06,2.79.06.05.13.1.19.15.1-.22.2-.46.3-.68.06.05.13.1.19.15l-.17,1c.06.02.13.03.18.06.26-.82.5-1.63.76-2.44.32-.96.64-1.92,1-2.86.1-.24.33-.43.58-.58-.23.6-.54,1.18-.68,1.8-.13.61-.08,1.25.05,1.9.13-.44.26-.88.38-1.32.06,0,.11.02.17.03-.15.88-.3,1.76-.46,2.71.88-1.48,1.72-2.91,2.57-4.34.1.04.19.09.28.13-.25.98-.97,1.88-.68,2.96.42-.71.83-1.42,1.24-2.12.08.04.16.07.23.11-.09.4-.18.8-.26,1.2.02,0,.05.02.07.03.06-.1.1-.22.17-.32.18-.22.36-.42.54-.62.16.22.32.46.46.66.36-.79.77-1.68,1.18-2.56l.2.09c-.14.82-.27,1.63-.41,2.45.83-1.61.58-3.65,2.08-4.9-.34,1.29-.68,2.61-.95,3.64.47-.44,1.06-.99,1.66-1.55.06.06.12.12.18.18-.36.82-.72,1.66-1.08,2.48.09.05.18.1.26.15.58-1.14,1.42-2.02,2.62-2.8-.42.7-.74,1.24-1.06,1.78.03.02.07.05.1.07.27-.24.55-.47.82-.71.03.03.06.06.1.09-.13.31-.26.62-.42,1.01.6-.38.62-1.53,1.74-1.06.21-.65.44-1.38.67-2.1h.11c.06.57.13,1.14.21,1.81,1.01-1.33.32-2.59.14-3.93.54.84,1.07,2.24.85,3.76.18-.38.38-.74.52-1.14.14-.38.22-.78.44-1.17v1.89c.36-.75.67-1.39.98-2.03.06.03.14.06.2.09-.21.46-.42.91-.62,1.37.9-.56,1.27-1.44,1.74-2.31-.13.66-.26,1.3-.38,1.96.06.02.13.05.19.07.52-1.01,1.33-1.86,1.4-3.26.52,1.18-.26,1.99-.53,2.9.65-.25,1-.64,1.04-1.51.04-.89-.11-1.78-.16-2.67-.02-.35,0-.71,0-1.06.07,0,.14,0,.22,0,.25,1.5.49,3,.74,4.5l.03.02c-.05-1.1-.1-2.19-.14-3.29l.06-.02c.22.84.46,1.68.68,2.52.08-1.3.15-2.52.99-3.59.21-.26.14-.78.14-1.18,0-3.46-.03-6.92-.04-10.38,0-1.18.07-2.37.04-3.55-.04-1.39-.21-2.78-.22-4.17-.02-2.6-.06-5.21.07-7.81.16-3.35.1-6.68-.31-10.01-.32-2.58-.28-5.16.16-7.73.38-2.19.22-4.38.06-6.59-.22-3.05-.46-6.1-.44-9.15.06-6.21.34-12.42.44-18.63.03-2.31-.22-4.63-.34-6.95-.03-.59-.05-1.18-.04-1.78.06-5.22.14-10.42.22-15.64.02-1.14,0-2.28.02-3.42,0-.38-.1-.54-.46-.74-1.74-.98-2.49-2.57-2.44-4.5.05-1.74.81-3.1,2.43-3.86.34-.16.78-.22,1.17-.2,2.39.15,4.78.34,7.16.53,1.35.1,2.61.46,3.19,1.85.62,1.47.43,2.87-.56,4.14-.73.94-1.65,1.63-2.78,2.01-.41.14-.54.31-.5.76.18,1.58.26,3.17.48,4.74.29,2.14.17,4.26-.06,6.38-.1.92-.1,1.85-.11,2.77-.04,4.53-.1,9.06-.1,13.58,0,1.66.2,3.31.21,4.97,0,2.3-.07,4.59-.12,6.89-.1,5.07-.3,10.14-.26,15.22.02,4.41.43,8.81.44,13.22,0,5.74-.22,11.47-.33,17.21-.02,1.21.03,2.42.16,3.62.23,2.21,0,4.39-.12,6.6-.18,3.17-.17,6.35-.22,9.53-.02,1.82,0,3.64,0,5.65.26-.64.46-1.14.66-1.65.05.02.1.03.14.04-.18.73-.36,1.46-.56,2.27,1.41-1.27,2.28-2.7,2.14-4.59.58,1.6-.22,2.86-1.01,4.14,1.08-.74,1.56-1.88,2.06-3.02.22.82-.18,1.56-.3,2.36.17-.25.34-.49.51-.74.03,0,.06.02.09.02-.13.39-.25.78-.38,1.18.03.02.06.05.09.06.4-.52.8-1.04,1.2-1.57.06.04.13.08.19.12-.51.85-1.02,1.7-1.51,2.54,1.18-.94,2.35-1.88,3.54-2.82.02.02.04.06.06.08-.8.82-1.6,1.65-2.39,2.47l.07.06,2.56-1.51c.06.09.12.17.18.26-.4.32-.79.64-1.19.96l.14.14c.8-.42,1.42-1.03,1.74-1.9.33-.87,1-1.26,1.94-1.34-1.82.4-1.65,2.38-2.77,3.32.05.06.09.12.14.18.71-.53,1.42-1.06,2.14-1.58.03.02.06.05.09.07-.23.36-.47.71-.8,1.22.94-.21,1.51-.7,2.01-1.43-.04.41-.83,1.16-2.38,2.27.02.06.05.11.08.18,1.17-.54,2.34-1.08,3.6-1.66-.58.48-1.11.91-1.56,1.28,1.07-.3,2.22-.62,3.37-.94.02.07.05.14.07.22-1.1.46-2.19.9-3.29,1.36.03.1.06.18.09.28,1.03-.21,2.07-.42,3.1-.63.02.05.03.1.05.15-.38.14-.78.28-1.2.44.93.3,1.58.1,2.46-.72-.05.37-.64.91-1.78,1.62.02.06.04.11.06.16,1.06-.41,2.11-.82,3.14-1.22-.1.22-.25.59-.46.92-.22.34-.51.65-.8,1,1.01.17,1.68-.23,2.01-1.31.24-.78.31-1.62.46-2.43.02-.14.03-.26.22-.39-.06.95-.11,1.9-.17,2.86.02.02.06.03.08.05.22-.45.42-.9.64-1.34.15.45-.23,1.44-1.15,2.95.05.05.1.1.14.14.41-.42.85-.82,1.22-1.28.65-.78,1.25-1.6,1.89-2.39.16-.2.42-.32.63-.48.06.05.1.1.16.14-.58.86-1.15,1.71-1.74,2.56.05.04.1.08.15.12.48-.6.96-1.21,1.44-1.81l.21.13c-.58,1.02-1.17,2.05-1.78,3.1.95-.34,1.41-1.15,1.88-2.05,0,.96-.49,1.62-1.89,2.54.88.16,1.61.08,2.16-.53,1.09-1.22,2.48-1.3,3.97-1.12-1.18.39-2.56.34-3.51,1.62.42-.13.71-.21.99-.3.02.03.02.06.04.09-.45.24-.9.48-1.34.71l.11.28c.98-.3,1.94-.59,3.06-.94-.46.43-.87.82-1.44,1.34,1.21-.48,2.25-.89,3.24-1.28-.13.65-.62,1.09-1.37,1.37-.64.24-1.25.59-2.02.97,1.77-.29,3.33-.54,4.9-.79.02.1.06.2.08.3-1.15.65-2.7.42-3.62,1.58.42-.21.85-.42,1.27-.62.05.06.1.13.15.19-.19.28-.38.56-.58.84.02.04.04.07.06.11.59-.4,1.18-.8,1.78-1.2.04.03.08.06.12.1-.19.3-.38.58-.57.88,1.66-.99,3.17-2.46,5.39-1.59-1.33-.03-2.56.21-3.52,1.36.39-.12.71-.22,1.04-.31.02.06.06.1.08.16-.8.49-1.59.97-2.32,1.42,2.11-.32,4.27-.65,6.42-.98-1.3,1.36-3.15,1.48-4.75,2.24.22.02.43.04.74.07-.4.38-.73.7-1.06,1.01,2.61-1.11,5.28-2.1,7.05-4.5-.69,1.76-2.27,2.68-3.75,3.94.38-.15.61-.24.84-.33.03.04.06.09.1.13-.49.39-.98.78-1.62,1.3,2.46-.97,3.94-3.26,6.5-3.69-2.18.99-3.74,2.7-5.3,4.42l-.03-.09ZM42.46,41c1.26-.22,2.3-.57,3.33-.55,1.05.02,2.09.39,3.13.61.54-2.97.43-10.53-.2-12.5-1.97.88-3.99.7-6.18.14.19.5.3.87.47,1.22.44.89.96,1.74,1.36,2.65,1.14,2.57.75,4.93-1.05,7.08-.3.37-.52.82-.86,1.36h0ZM47.53,87.2s.06-.02.1-.02c-.06.27-.16.54-.18.82-.15,2.03-.34,4.06-.42,6.1-.1,2.84-.54,5.57-1.81,8.18-1.54,3.16-1.94,6.63-2.46,10.13,1.9-1.28,3.27-3.31,5.84-3.15.02-.17.07-.3.07-.45,0-2.54.12-5.08-.03-7.61-.29-4.67-.73-9.33-1.11-13.99h0ZM48.73,111.45c-.69.27-1.34.58-2.02.8-1.2.39-2.24,1.01-3,2.04-1.59,2.18-.78,5.91,1.62,7.37,1.22.74,2.61,1.25,3.4,2.59v-12.79h0ZM42.56,63.81c2.14-4.57,4.33-9.08,5.99-14.02-2.3,1.26-4.26.66-6.34-.61,1.46,4.96.56,9.79.36,14.62h0ZM48.23,69.3c.16-4.82.32-9.66.47-14.49-.06-.02-.14-.04-.2-.06-1.66,4.19-3.33,8.38-5.05,12.73,2.13-.26,3.62.54,4.78,1.82h0ZM45.02,25.37c1.88-.02,3.53-.66,5.03-1.74.91-.65.85-1.43-.12-1.93-2.06-1.04-4.21-1.36-6.47-.82-1.22.29-1.98.99-1.97,1.9,0,1.08.88,2.14,1.98,2.38.5.1,1.03.14,1.54.21ZM42.78,77.25c-.1.74-.21,1.32-.25,1.9-.16,2.23-.13,4.45.63,6.6.51,1.45,1.66,2.21,2.99,2.98-.14-3.18.07-6.21,1.14-9.18-1.8-.14-3.2-1.01-4.51-2.31h0ZM44.71,70.21c-.54.09-.98.1-1.37.24-.24.09-.51.37-.58.61-.62,2.42.83,4.91,3.25,5.55.41.1.9.05,1.31-.06.24-.06.52-.34.62-.58.72-1.85-.34-4.54-2.13-5.42-.37-.18-.79-.26-1.1-.35h0ZM48.3,45.64c0-1.67-.82-2.49-2.48-2.38-.54.03-1.1.22-1.62.42-1.36.52-1.46,1.66-1.32,2.87.1.93.94,1.02,1.58,1.3.36.15.78.18,1.17.25,1.52.28,2.9-.7,2.67-2.46h0ZM43.27,137.98c1.91-.49,3.64-2.87,3.46-4.81-.02-.16-.14-.32-.25-.46-.62-.86-1.34-1.65-1.85-2.57-.52-.93-.85-1.98-1.26-2.97h-.11v10.8h0ZM42.74,102.24c.09.02.17.05.26.06.41-.98.9-1.92,1.19-2.93.67-2.35.66-4.78.51-7.18-.04-.6-.26-1.2-.49-1.76-.09-.22-.45-.48-.67-.47-.22.02-.54.33-.59.55-.16.76-.3,1.54-.3,2.31,0,3.03.03,6.06.06,9.1,0,.1.02.22.04.32ZM43.68,123.35c.54,1.56.94,3.02,1.57,4.38.43.94,1.15,1.75,1.79,2.58.18.22.53.32.82.5.52-3.63-1.02-6.22-4.18-7.46h0ZM41.82,139.02h.27v-3.76c-.51,1.3-.68,2.51-.27,3.75h0Z"/>
      <path d="M55.46,14.17c-.5.58-.91,1.27-1.5,1.73-3.19,2.46-6.7,3.18-10.54,1.7-2.72-1.06-4.06-3.25-4.62-5.96-.58-2.83-.11-5.54,1.41-8C41.66,1.27,43.83-.09,46.69,0c.83.03,1.74.31,2.46.74,2.55,1.52,4.34,5.72,3.7,8.62-.56,2.49-2.05,4.31-4.42,5.28-1.85.75-3.54.11-4.93-1.11-1.4-1.22-1.82-2.9-1.24-4.66.37-1.14.99-2.19,1.56-3.26.14-.26.46-.5.74-.62,1.34-.58,3.47.11,4.16,1.31.81,1.39.42,3.26-.9,4.27-.18.14-.38.27-.58.4-.93.6-1.34.46-1.85-.66,1.02-.42,1.52-1.24,1.56-2.3,0-.3-.18-.8-.42-.9-.42-.19-.96-.13-1.2.42-.3.67-.65,1.33-.81,2.03-.46,1.98.56,3.15,2.6,2.98.5-.04,1.06-.22,1.43-.54,1.66-1.39,2.52-3.16,1.89-5.34-.27-.94-.71-1.86-1.22-2.7-1.18-1.98-2.98-2.38-5.13-.96-2.41,1.6-3.35,4.1-3.23,6.95.04.88.26,1.79.55,2.62,1.18,3.36,4.31,5.13,7.85,4.62,2.42-.34,4.51-1.22,6.02-3.24.06.06.12.1.18.16v.02Z"/>
      <path d="M48.14,39.64c-.86-.16-1.67-.31-2.53-.47.85-2.87.86-5.76-.5-8.66h2.84c.61,3.01.65,6.06.18,9.13Z"/>
      <path d="M48.35,108.24c-2-.1-3.25.92-4.66,2.11.36-1.33.63-2.47.98-3.6.35-1.15.78-2.27,1.16-3.42.36-1.12.74-2.25,1.01-3.39.28-1.17.43-2.36.65-3.54.06,0,.13,0,.19,0,.22,3.91.45,7.82.68,11.84h0ZM46.36,104.99c.26.36.43.6.61.85.16-.25.45-.5.46-.75,0-.26-.26-.53-.4-.79-.2.21-.39.42-.66.7h0Z"/>
      <path d="M48.15,121.6c-2.47-.4-4.4-3.09-3.96-5.46.29-1.55,2.08-2.51,3.52-1.85.19.09.42.36.42.55.03,2.25.02,4.5.02,6.75Z"/>
      <path d="M43.63,59.55c.18-2.8.34-5.58-.25-8.26,1.24.1,2.48.18,3.74.28-1.14,2.6-2.31,5.29-3.5,7.98Z"/>
      <path d="M44.88,66.17c.62-1.62,1.25-3.25,1.89-4.88.27-.7.58-1.38.85-2.04v7.97c-.94-.36-1.81-.69-2.74-1.05h0Z"/>
      <path d="M45.57,24.32c-.78-.22-1.41-.34-1.97-.6-.26-.12-.5-.54-.51-.82,0-.19.38-.5.65-.58,1.53-.5,3.08-.5,4.6.02.23.08.5.32.55.54.04.14-.26.46-.46.54-.97.34-1.96.63-2.86.91Z"/>
      <path d="M46.02,80.48c-.3,2-.59,4.02-.91,6.18-.3-.34-.73-.66-.9-1.08-.34-.85-.64-1.74-.78-2.63-.19-1.22-.22-2.47-.31-3.74,1.09.47,2.05.89,2.9,1.26h0Z"/>
      <path d="M44.47,71.28c1.42-.16,2.94,2.09,2.73,3.26-.1.59-.55.94-1.1.83-1.19-.23-2.58-1.82-2.65-3.04-.05-.84.17-1.06,1.01-1.05h0Z"/>
      <path d="M45.76,46.92c-.5-.14-1.01-.25-1.48-.44-.62-.25-.71-.85-.2-1.28.78-.64,1.67-.92,2.62-.5.36.16.83.58.82.89,0,.36-.41.78-.74,1.05-.25.2-.66.19-1.02.28Z"/>
      <path d="M43.9,130.9c.66.9,1.3,1.77,1.91,2.64.07.1.1.28.07.4-.34,1.11-.91,2.06-1.98,2.7v-5.74Z"/>
      <path d="M43.3,99.77c.1-3.04-.55-6.09.12-9.08.1-.02.21-.03.31-.05.14.38.38.74.42,1.12.29,2.64.1,5.25-.71,7.79-.02.08-.09.15-.14.22h0Z"/>
      <path d="M47.2,129.19c-1.19-.98-1.69-2.32-2.02-3.75,1.27.92,1.91,2.2,2.02,3.75Z"/>
    </g>
  </g>
</svg>