<?xml version="1.0" encoding="UTF-8"?>
<svg id="Ebene_1" xmlns="http://www.w3.org/2000/svg" xmlns:xlink="http://www.w3.org/1999/xlink" viewBox="0 0 325.21 134.53">
  <defs>
    <clipPath id="clippath">
      <ellipse cx="162.61" cy="26.09" rx="23.02" ry="26.4" transform="translate(.07 52.58) rotate(-18.37)" style="fill: none;"/>
    </clipPath>
  </defs>
  <g id="Kapitel2_x5F_Illu4">
    <g>
      <path d="M286.04,66.32c5.6-2.92,9.95-8.17,16.91-8.14,2.3,0,4.63,0,6.92.45-5.6,1.04-11.48.87-16.07,5.5,1.57-.21,2.89-.35,4.21-.49l.17.49-5.91,3.41.17.35c4.94-1.6,9.84-3.2,14.82-4.8l.31.63c-1.46.87-2.92,1.74-4.66,2.75,1.6-.28,2.92-.49,4.24-.7v.21c-2.75,1.18-5.5,2.33-8.28,3.51,7.24-2.12,14.4-2.78,21.64-.07-7.37.42-14.85.35-21.64,5.46,3.1.77,4.94-1.01,7.03-1.74,2.16-.8,4.28-1.81,6.4-2.71.21.31.35.63.56.9-1.18,1.01-2.33,2.02-3.79,3.3,5.53-.38,10.75-.07,15.24,3.34-5.11-1.25-10.16-1.36-15.06,1.04h2.64c-1.25,1.25-2.09,2.05-2.92,2.89,0,.1.07.21.1.35l5.67-2.71c.21.1.38.21.59.35-.8,1.32-1.6,2.68-2.16,3.62,3.65-.28,7.72-.63,11.76-.9l.07.8c-2.47.63-4.97,1.25-7.44,1.88.07.21.07.42.14.63,1.18-.35,2.4-.66,3.62-.97.07.14.14.28.21.38-.42.38-.83.8-1.53,1.46,1.74-.1,3.13-.21,5.22-.35-1.25,1.04-1.95,1.67-2.78,2.4.77.21,1.25.31,1.74.45v.42c-4.31.7-8.63,1.39-12.91,2.09-.07-.21-.1-.38-.17-.63l3.62-1.6c-4.73.17-9.53,0-14.16,3.1.66-2.05,1.18-3.65,1.88-5.81-3.17,1.91-5.84,3.55-8.52,5.18-.07-.07-.21-.14-.28-.21.35-.52.7-1.08,1.32-2.09-3.34,1.29-6.33,2.44-9.25,3.55-.14-.24-.28-.49-.42-.73,2.02-1.53,4.1-3.03,6.12-4.56-.07-.14-.14-.28-.21-.45-3.65,2.05-7.31,4.1-10.92,6.16-.1-.14-.24-.28-.35-.42.63-.77,1.25-1.53,2.33-2.85-4.31,1.74-8.07,3.27-11.83,4.77,2.57-5.18,7.31-7.48,12.14-9.6-.07-.21-.17-.35-.24-.56-2.71,1.11-5.53,2.02-8.11,3.37-2.64,1.39-5.04,3.2-7.69,4.66,1.64-4.35,5.08-7.1,8.38-9.98-.17-.21-.31-.38-.49-.63-3.1,2.33-6.3,4.52-9.25,7.03-3.03,2.54-5.84,5.29-8.77,7.97l-.63-.63c2.89-4.42,5.81-8.84,8.7-13.29-5.6,5.22-10.51,11.34-18.3,13.78,3.41-4.28,6.78-8.56,10.19-12.87-6.82,5.71-13.32,11.93-22.99,13.18,1.15-1.18,2.26-2.33,3.41-3.44,1.18-1.15,2.44-2.26,3.69-3.27,1.32-1.04,2.71-1.98,3.97-3.13-7.72,2.26-12.84,9.36-20.84,11.2,6.4-6.4,9.43-15.65,17.67-20.42-.1-.21-.24-.35-.35-.56-2.02,1.32-4.17,2.44-6.02,4-3.51,2.99-6.75,6.3-10.23,9.32-4.21,3.69-9.15,5.77-14.78,6.19-1.11.07-2.19.35-3.3.52.35.35.73.63,1.08.97,4.1-4.8,8.17-9.67,12.28-14.47-8.73,6.57-18.16,11.76-29.57,12.59,1.63-.77,3.2-1.43,4.7-2.19,1.67-.87,3.37-1.74,4.9-2.85,1.39-1.01,2.57-2.3,3.58-3.69-6.12,2.16-12.28,4.31-18.82,6.61,3.97-2.85,7.62-5.5,11.31-8.17-.14-.21-.28-.38-.38-.59-5.22,1.91-10.4,3.86-15.58,5.77-.14-.07-.28-.14-.38-.21,1.74-1.57,3.51-3.13,5.29-4.66,0-.1-.07-.21-.1-.31-2.96,1.18-5.88,2.4-8.91,3.65.73-.9,1.53-1.88,2.3-2.82-.07-.17-.17-.35-.24-.49-3.69,1.43-7.34,2.85-11.44,4.38.97-3.27,3.69-3.9,5.74-5.6-4.49,1.22-8.98,2.47-13.46,3.69-.07-.07-.14-.17-.21-.21,1.74-1.22,3.48-2.44,5.22-3.69,0-.14-.07-.24-.07-.38-2.92,1.08-5.84,2.16-8.87,3.27,1.04-2.92,3.97-3.86,6.33-5.39-6.3,1.46-12.42,3.24-17.32,8.14.8-2.92,2.96-4.9,8.42-8.56-4.35,1.25-8.7,2.54-13.22,3.83,1.91-1.32,3.83-2.61,5.71-3.9,0-.14-.07-.24-.07-.38-3.24.97-6.47,1.98-9.67,2.96-.1-.14-.21-.24-.31-.38,1.6-1.04,3.24-2.12,4.84-3.13-.07-.14-.07-.31-.14-.45-3.51,1.18-7.03,2.4-10.92,3.72,1.32-1.53,2.54-2.96,3.69-4.35-5.01.17-8.24,4.31-12.84,5.91,2.3-2.71,4.56-5.46,5.91-7.1-2.68,1.18-6.96,3.03-11.51,5.04.77-3.48,3.37-4.8,5.88-6.19l-.31-.59c-4.8,2.26-9.53,4.49-14.33,6.75-.21-.35-.45-.63-.66-.97,3.27-3.44,6.54-6.92,9.64-10.19-4.97,2.89-10.23,5.95-15.52,9.04.49-4.07,3.79-5.64,5.88-8.38-6.23,3.27-12.49,6.51-18.72,9.81-.21-.35-.42-.63-.63-.97,2.09-1.74,4.17-3.44,6.26-5.18l-.07-.31c-6.89,2.99-13.74,5.91-21.01,9.08,2.78-3.9,6.71-5.81,10.23-8.35l-11.51,4.52s-.21-.35-.35-.49c1.18-.9,2.4-1.84,3.58-2.78-.07-.17-.17-.31-.21-.49-3.2,1.67-6.4,3.34-9.6,5.01-.14-.07-.28-.14-.42-.21,1.15-1.46,2.3-2.92,3.41-4.38-.07-.1-.1-.21-.17-.35-3.27,1.95-6.54,3.9-10.4,6.19.97-1.32,1.6-2.16,2.44-3.27-1.6.49-2.82.87-4.04,1.22-.07-.14-.17-.28-.24-.42,1.04-.63,2.16-1.29,3.2-1.95l-.21-.56c-3.3,1.18-6.64,2.37-10.51,3.76,1.74-1.46,3.03-2.57,4.38-3.69,0-.07-.07-.17-.1-.24-2.16.9-4.28,1.74-6.44,2.64-.1-.1-.21-.21-.31-.35,1.04-1.18,2.12-2.33,3.3-3.65-5.22,1.29-8.04,5.81-12.56,8.73,1.6-2.44,2.89-4.45,4.21-6.47l-.77-.77c-2.33,1.77-4.66,3.58-6.99,5.36-.14-.07-.28-.1-.42-.17.87-1.74,1.74-3.48,2.61-5.22-.1-.1-.24-.24-.35-.35-1.88,1.81-3.79,3.62-6.05,5.77.35-1.39.59-2.4,1.01-4.1-1.88,2.09-3.41,3.72-5.32,5.84.17-1.32.24-1.98.35-3.03-1.18,1.04-2.19,1.88-3.2,2.71-.1-.07-.21-.17-.31-.24.83-1.11,1.67-2.23,2.5-3.34-3.65,1.22-6.61,3.27-8.56,6.71-.21-.14-.38-.28-.63-.45,1.36-2.02,2.75-4.07,4.38-6.47-2.57,1.67-4.87,3.13-7.17,4.59-.14-.14-.28-.28-.42-.45,1.15-1.18,2.26-2.4,3.41-3.58-.1-.17-.24-.35-.35-.49-2.75,2.02-5.5,4.07-8.24,6.09-.14-.07-.28-.21-.42-.28.94-1.64,1.91-3.27,2.85-4.9-.07-.1-.1-.21-.17-.31-1.67,1.29-3.37,2.57-5.22,4-.97-2.5-.21-4.66,1.04-6.4,3.69-5.08,7.58-9.95,11.44-14.85.97-1.25,2.02-2.44,3.41-3.34-3.58,4.91-7.9,9.18-9.88,15.24,2.75-2.96,5.36-5.77,8-8.56.14.1.28.24.42.35-1.29,1.81-2.57,3.58-3.83,5.39,4.38-4.94,11.06-7.86,13.25-14.75.45,5.22-5.11,7.41-6.26,12.28,4.94-4.38,9.29-8.59,9.64-15.48.07-1.88,1.18-3.72,2.16-5.46l-2.71,13.71s.21.17.31.28c2.09-2.99,4.14-5.95,6.61-9.5-.66,2.78-1.18,4.94-1.7,7.17,4.24-4.04,2.57-10.02,4.9-14.68v13.43c.77-1.36,1.18-2.16,1.81-3.3.35,1.25.63,2.09.87,2.92.21,0,.38,0,.59.07.21-2.3.63-4.52.59-6.78-.21-7.13,1.74-13.5,6.19-19.06.24-.31.52-.59,1.11-.77-5.22,7.17-6.78,14.99-4.66,23.59,2.23-5.18,1.36-11.13,3.9-16.35v13.98c.7-1.15,1.15-1.88,1.88-3.13.07,1.5.14,2.44.21,3.79,2.3-5.01,2.85-9.84.9-14.96.42,0,.87-.07,1.29-.07,1.11,4.49,2.26,8.98,3.37,13.46h.49c0-4.24-.14-8.56,0-12.8.17-4.35,1.46-8.42,4.21-11.97-2.44,6.09-3.13,12.31-2.16,18.72.21,0,.42.07.63.1.63-3.48,1.22-6.92,1.84-10.4h.24v11.65c2.57-4.66,5.11-9.22,7.65-13.74.1,0,.21.07.35.1-1.22,3.24-2.44,6.47-3.69,9.71.21.17.45.35.66.52.35-.77.7-1.6,1.04-2.37.21.17.45.35.66.52l-.59,3.48c.21.07.45.1.63.21.9-2.85,1.74-5.67,2.64-8.49,1.11-3.34,2.23-6.68,3.48-9.95.35-.83,1.15-1.5,2.02-2.02-.8,2.09-1.88,4.1-2.37,6.26-.45,2.12-.28,4.35.17,6.61.45-1.53.9-3.06,1.32-4.59.21,0,.38.07.59.1-.52,3.06-1.04,6.12-1.6,9.43,3.06-5.15,5.98-10.12,8.94-15.1.35.14.66.31.97.45-.87,3.41-3.37,6.54-2.37,10.3,1.46-2.47,2.89-4.94,4.31-7.37.28.14.56.24.8.38-.31,1.39-.63,2.78-.9,4.17.07,0,.17.07.24.1.21-.35.35-.77.59-1.11.63-.77,1.25-1.46,1.88-2.16.56.77,1.11,1.6,1.6,2.3,1.25-2.75,2.68-5.84,4.1-8.91l.7.31c-.49,2.85-.94,5.67-1.43,8.52,2.89-5.6,2.02-12.7,7.24-17.05-1.18,4.49-2.37,9.08-3.3,12.66,1.63-1.53,3.69-3.44,5.77-5.39l.63.63c-1.25,2.85-2.5,5.77-3.76,8.63.31.17.63.35.9.52,2.02-3.97,4.94-7.03,9.11-9.74-1.46,2.44-2.57,4.31-3.69,6.19.1.07.24.17.35.24.94-.83,1.91-1.64,2.85-2.47.1.1.21.21.35.31-.45,1.08-.9,2.16-1.46,3.51,2.09-1.32,2.16-5.32,6.05-3.69.73-2.26,1.53-4.8,2.33-7.31h.38c.21,1.98.45,3.97.73,6.3,3.51-4.63,1.11-9.01.49-13.67,1.88,2.92,3.72,7.79,2.96,13.08.63-1.32,1.32-2.57,1.81-3.97.49-1.32.77-2.71,1.53-4.07v6.57c1.25-2.61,2.33-4.84,3.41-7.06.21.1.49.21.7.31-.73,1.6-1.46,3.17-2.16,4.77,3.13-1.95,4.42-5.01,6.05-8.04-.45,2.3-.9,4.52-1.32,6.82.21.07.45.17.66.24,1.81-3.51,4.63-6.47,4.87-11.34,1.81,4.1-.9,6.92-1.84,10.09,2.26-.87,3.48-2.23,3.62-5.25.14-3.1-.38-6.19-.56-9.29-.07-1.22,0-2.47,0-3.69h.77c.87,5.22,1.7,10.44,2.57,15.65l.1.07c-.17-3.83-.35-7.62-.49-11.44l.21-.07c.77,2.92,1.6,5.84,2.37,8.77,9.2-.24,18.39-.49,27.59-.73.9-2.23,1.6-3.97,2.3-5.74.17.07.35.1.49.14-.63,2.54-1.25,5.08-1.95,7.9,4.9-4.42,7.93-9.39,7.44-15.97,2.02,5.57-.77,9.95-3.51,14.4,3.76-2.57,5.43-6.54,7.17-10.51.77,2.85-.63,5.43-1.04,8.21.59-.87,1.18-1.7,1.77-2.57.1,0,.21.07.31.07-.45,1.36-.87,2.71-1.32,4.1.1.07.21.17.31.21,1.39-1.81,2.78-3.62,4.17-5.46.21.14.45.28.66.42-1.77,2.96-3.55,5.91-5.25,8.84,4.1-3.27,8.17-6.54,12.31-9.81.07.07.14.21.21.28-2.78,2.85-5.57,5.74-8.31,8.59l.24.21,8.91-5.25c.21.31.42.59.63.9-1.39,1.11-2.75,2.23-4.14,3.34l.49.49c2.78-1.46,4.94-3.58,6.05-6.61,1.15-3.03,3.48-4.38,6.75-4.66-6.33,1.39-5.74,8.28-9.64,11.55.17.21.31.42.49.63,2.47-1.84,4.94-3.69,7.44-5.5.1.07.21.17.31.24-.8,1.25-1.63,2.47-2.78,4.24,3.27-.73,5.25-2.44,6.99-4.97-.14,1.43-2.89,4.04-8.28,7.9.07.21.17.38.28.63,4.07-1.88,8.14-3.76,12.52-5.77-2.02,1.67-3.86,3.17-5.43,4.45,3.72-1.04,7.72-2.16,11.72-3.27.07.24.17.49.24.77-3.83,1.6-7.62,3.13-11.44,4.73.1.35.21.63.31.97,3.58-.73,7.2-1.46,10.78-2.19.07.17.1.35.17.52-1.32.49-2.71.97-4.17,1.53,3.24,1.04,5.5.35,8.56-2.5-.17,1.29-2.23,3.17-6.19,5.64.07.21.14.38.21.56,3.69-1.43,7.34-2.85,10.92-4.24-.35.77-.87,2.05-1.6,3.2-.77,1.18-1.77,2.26-2.78,3.48,3.51.59,5.84-.8,6.99-4.56.83-2.71,1.08-5.64,1.6-8.45.07-.49.1-.9.77-1.36-.21,3.3-.38,6.61-.59,9.95.07.07.21.1.28.17.77-1.57,1.46-3.13,2.23-4.66.52,1.57-.8,5.01-4,10.26.17.17.35.35.49.49,1.43-1.46,2.96-2.85,4.24-4.45,2.26-2.71,4.35-5.57,6.57-8.31.56-.7,1.46-1.11,2.19-1.67.21.17.35.35.56.49-2.02,2.99-4,5.95-6.05,8.91.17.14.35.28.52.42,1.67-2.09,3.34-4.21,5.01-6.3l.73.45c-2.02,3.55-4.07,7.13-6.19,10.78,3.3-1.18,4.9-4,6.54-7.13,0,3.34-1.7,5.64-6.57,8.84,3.06.56,5.6.28,7.51-1.84,3.79-4.24,8.63-4.52,13.81-3.9-4.1,1.36-8.91,1.18-12.21,5.64,1.46-.45,2.47-.73,3.44-1.04.07.1.07.21.14.31-1.57.83-3.13,1.67-4.66,2.47l.38.97c3.41-1.04,6.75-2.05,10.64-3.27-1.6,1.5-3.03,2.85-5.01,4.66,4.21-1.67,7.83-3.1,11.27-4.45-.45,2.26-2.16,3.79-4.77,4.77-2.23.83-4.35,2.05-7.03,3.37,6.16-1.01,11.58-1.88,17.05-2.75.07.35.21.7.28,1.04-4,2.26-9.39,1.46-12.59,5.5,1.46-.73,2.96-1.46,4.42-2.16.17.21.35.45.52.66-.66.97-1.32,1.95-2.02,2.92.07.14.14.24.21.38,2.05-1.39,4.1-2.78,6.19-4.17.14.1.28.21.42.35-.66,1.04-1.32,2.02-1.98,3.06,5.77-3.44,11.03-8.56,18.75-5.53-4.63-.1-8.91.73-12.25,4.73,1.36-.42,2.47-.77,3.62-1.08.07.21.21.35.28.56-2.78,1.7-5.53,3.37-8.07,4.94,7.34-1.11,14.85-2.26,22.33-3.41-4.52,4.73-10.96,5.15-16.52,7.79.77.07,1.5.14,2.57.24-1.39,1.32-2.54,2.44-3.69,3.51,9.08-3.86,18.37-7.31,24.52-15.65-2.4,6.12-7.9,9.32-13.05,13.71,1.32-.52,2.12-.83,2.92-1.15.1.14.21.31.35.45-1.7,1.36-3.41,2.71-5.64,4.52,8.56-3.37,13.71-11.34,22.61-12.84-7.58,3.44-13.01,9.39-18.44,15.38l-.1-.31.38-.17ZM145.57,22.67h.94v-13.08c-1.77,4.52-2.37,8.73-.94,13.05h0v.03Z" style="fill: #010101;"/>
      <g style="clip-path: url(#clippath);">
        <path d="M206.3,58.5c1.56-4.64,1.51-12.02,5-13.13,1.14-.38,2.31-.77,3.64-.57-2.35,2.25-5.36,3-5.7,9.64.69-.52,1.29-.92,1.89-1.32l.29.59-1.51,5.31.23.41c1.79-2.85,3.56-5.69,5.36-8.55l.42.74c-.36,1.35-.72,2.69-1.17,4.26.68-.62,1.25-1.1,1.82-1.59l.09.26c-.87,1.96-1.76,3.87-2.65,5.83,2.71-3.89,6.01-5.92,10.76-3.67-3.5,1.75-7.26,2.9-8.49,10.51,1.87.46,2.04-2.1,2.77-3.37.74-1.37,1.37-3,2.05-4.5.24.36.44.74.66,1.06-.16,1.48-.31,2.95-.5,4.82,2.6-1.4,5.33-1.87,9,1.72-3.08-.74-5.64-.04-7.07,3.82l1.32-.44c-.1,1.8-.18,2.95-.24,4.15.04.13.12.25.2.42l1.68-4.38c.15.1.28.2.44.34.16,1.81.33,3.66.45,4.95,1.7-.96,3.59-2.07,5.48-3.09l.37,1c-.97,1.2-1.95,2.41-2.92,3.62.12.25.21.52.33.77.44-.64.92-1.24,1.39-1.84.09.17.19.33.27.45-.05.55-.08,1.15-.15,2.11.82-.42,1.47-.78,2.45-1.31-.18,1.53-.27,2.44-.38,3.51.47.14.76.19,1.06.29l.18.53c-1.86,1.6-3.71,3.19-5.55,4.79-.12-.25-.21-.47-.35-.77l1.13-2.63c-2.29,1-4.75,1.58-5.75,6.27-.54-2.71-.95-4.83-1.51-7.68-.77,2.95-1.42,5.47-2.06,7.99-.06-.08-.16-.14-.23-.22-.05-.72-.11-1.48-.22-2.87-1.12,2.19-2.13,4.14-3.12,6.04-.17-.29-.34-.57-.52-.86.36-2.28.77-4.52,1.13-6.8-.09-.17-.19-.33-.29-.54-.96,3.21-1.91,6.42-2.85,9.62-.11-.16-.24-.31-.35-.47-.01-1.07-.02-2.15-.04-4.01-1.42,2.92-2.65,5.49-3.89,8.01-.9-7,.49-10.7,2.01-14.19-.12-.25-.23-.41-.36-.67-.88,1.86-1.91,3.48-2.62,5.62-.73,2.2-1.17,4.9-1.87,7.19-1.02-5.79-.46-9.85-.03-14.06-.17-.24-.32-.43-.51-.71-.56,3.47-1.23,6.78-1.65,10.45-.44,3.72-.68,7.68-1.01,11.56l-.58-.69c-.42-6.08-.83-12.18-1.27-18.3-.59,7.55-.46,16.13-3.32,20.51-.1-5.99-.23-11.98-.34-18.02-.99,8.37-1.61,17.35-5.91,20.54.07-1.69.14-3.33.25-4.94.11-1.65.26-3.27.46-4.76.22-1.54.52-2.97.66-4.63-2.9,4.15-2.46,14-5.67,17.67.49-9.18-1.9-21.43.2-28.84-.14-.25-.27-.4-.41-.65-.45,2.01-1.05,3.78-1.31,6.07-.49,4.38-.71,9.11-1.17,13.52-.54,5.38-2.13,8.84-4.76,10.31-.53.27-.95.8-1.43,1.21.32.38.63.67.95,1.06.02-6.77,0-13.63.02-20.4-1.58,9.79-4.1,17.93-9.43,20.88.49-1.24.99-2.34,1.42-3.56.47-1.38.95-2.77,1.24-4.43.27-1.51.32-3.34.23-5.27-2.14,3.75-4.3,7.51-6.6,11.5.77-4.28,1.48-8.24,2.19-12.25-.16-.24-.3-.44-.44-.69-1.79,3.29-3.56,6.62-5.34,9.91-.1-.07-.2-.13-.28-.2.21-2.27.43-4.55.67-6.79-.04-.13-.12-.25-.18-.38-.98,1.99-1.92,4.02-2.9,6.11-.02-1.27-.03-2.64-.04-3.96-.11-.21-.23-.41-.33-.58-1.24,2.42-2.46,4.84-3.86,7.46-.89-4.31.2-5.55.5-8.06-1.72,2.29-3.43,4.62-5.16,6.91-.06-.08-.14-.2-.19-.23.35-1.83.71-3.67,1.05-5.54-.06-.18-.14-.3-.2-.47-1,1.85-2,3.7-3.04,5.62-.71-3.88.35-5.56.88-7.89-2.52,2.9-4.83,6.16-5.21,13.2-.83-3.84-.59-6.71.59-12.25-1.64,2.31-3.27,4.66-4.98,7.05.4-1.99.81-3.94,1.2-5.89-.06-.18-.14-.3-.2-.47-1.2,1.77-2.39,3.59-3.57,5.35-.11-.16-.21-.27-.32-.43.36-1.59.72-3.23,1.09-4.77-.09-.17-.17-.39-.26-.55-1.25,2.08-2.49,4.21-3.88,6.53.01-2.16.02-4.17,0-6.13-2.42,1.05-2.29,6.84-3.91,9.63,0-3.82-.03-7.69-.04-9.99-.84,1.94-2.19,4.99-3.61,8.31-1.08-4.54-.34-6.65.32-8.83l-.41-.7c-1.44,3.66-2.86,7.27-4.3,10.94-.25-.41-.49-.72-.74-1.13.18-4.91.34-9.87.51-14.53-1.26,4.49-2.59,9.24-3.92,14.05-1.47-5.25-.49-7.78-.6-11.61-1.73,5.18-3.48,10.32-5.2,15.55-.25-.41-.47-.73-.72-1.13.31-2.55.63-5.06.94-7.61l-.17-.39c-2.17,4.94-4.36,9.78-6.65,15-.25-5.41.9-8.48,1.58-12.29l-3.83,7.65s-.25-.41-.38-.56c.21-1.34.42-2.74.61-4.13-.11-.21-.22-.37-.31-.58-.89,2.65-1.78,5.3-2.68,7.95-.1-.07-.2-.13-.3-.2-.04-2.04-.09-4.09-.15-6.13-.08-.12-.14-.25-.23-.41-.81,3.01-1.62,6.03-2.58,9.58-.07-1.84-.11-3-.16-4.55-.59.88-1.04,1.57-1.5,2.21-.09-.17-.2-.32-.3-.49.26-.97.53-1.99.77-3l-.34-.67c-1.15,2.05-2.32,4.1-3.65,6.51.25-2.14.42-3.77.63-5.41-.03-.09-.11-.21-.15-.29-.69,1.5-1.4,2.92-2.09,4.42-.1-.12-.19-.23-.3-.39.02-1.67.08-3.31.11-5.18-2.06,2.5-1.56,8.7-2.58,13.16-.23-3.36-.44-6.13-.63-8.91l-.7-.84c-.41,2.64-.81,5.32-1.23,7.96-.1-.07-.18-.09-.28-.15-.3-2.35-.6-4.7-.9-7.05-.1-.12-.22-.27-.32-.38-.17,2.61-.37,5.22-.58,8.33-.41-1.82-.72-3.14-1.23-5.38-.06,2.96-.13,5.29-.19,8.3-.47-1.71-.71-2.56-1.1-3.9-.15,1.52-.3,2.75-.45,3.97-.08-.07-.18-.19-.26-.26-.05-1.55-.11-3.1-.16-4.65-1.31,2.15-1.92,5.24-1.44,9.94-.16-.14-.31-.29-.5-.47-.17-2.79-.35-5.62-.54-8.94-.58,2.55-1.11,4.78-1.64,7.01-.13-.15-.26-.31-.4-.5.07-1.69.12-3.42.19-5.11-.13-.2-.27-.4-.38-.56-.52,3.02-1.02,6.08-1.54,9.09-.1-.07-.23-.22-.33-.28-.22-2.23-.42-4.47-.65-6.7-.08-.12-.14-.25-.22-.37-.29,1.91-.6,3.83-.92,5.94-1.54-3.02-2.07-5.88-2.18-8.3-.3-7.06-.41-13.88-.56-20.75-.04-1.75-.02-3.42.29-4.8.28,6.82-.07,12.96,1.5,20.97.12-4.21.24-8.22.38-12.19.11.11.24.26.35.37.12,2.51.23,4.97.37,7.48.1-6.99,2.2-11.81.39-20.91,2.42,6.55.57,10.25,2.05,16.62.62-6.38,1.01-12.44-1.72-21.24-.76-2.4-.98-4.92-1.23-7.29l4.42,17.84s.18.19.27.3c-.22-4.14-.44-8.23-.71-13.15.84,3.64,1.49,6.46,2.17,9.38.41-5.82-2.94-13.14-3.74-19.44l5.66,17.04c-.19-1.85-.32-2.93-.49-4.49.7,1.53,1.19,2.55,1.67,3.56.1-.03.19-.06.32,0-.86-2.95-1.59-5.84-2.56-8.71-3.11-9.02-4.82-17.42-4.95-25.22-.01-.44.01-.84.23-1.16.42,9.96,2.94,20.15,7.62,30.7-1.07-6.95-4.02-14.35-4.95-21.39l5.89,17.75c-.14-1.57-.22-2.57-.38-4.28.67,1.89,1.1,3.07,1.7,4.78-.97-6.74-2.73-12.97-5.85-19.13.21-.07.4-.23.61-.3,2.45,5.51,4.91,11.02,7.36,16.53l.24-.08c-1.79-5.39-3.68-10.84-5.4-16.25-1.75-5.55-2.82-10.93-2.95-15.88,1.35,8.13,3.63,16.15,6.81,24.11.1-.03.24.02.36.03-1.15-4.52-2.31-8.99-3.46-13.51l.12-.04,4.91,14.79c-.68-6.34-1.34-12.55-1.98-18.71.05-.02.13.05.22.07.76,4.31,1.51,8.61,2.25,12.93.18.19.37.37.55.55-.15-1.03-.33-2.15-.48-3.17.18.19.37.37.55.55l1.17,4.51c.13.05.27.06.4.16-.75-3.77-1.52-7.48-2.26-11.21-.85-4.42-1.71-8.84-2.46-13.2-.18-1.12-.06-2.09.16-2.89.48,2.78.79,5.52,1.46,8.34.67,2.77,1.69,5.56,2.87,8.36-.42-2.02-.84-4.03-1.28-6.05.1-.03.22.02.34.03,1.03,3.97,2.06,7.94,3.18,12.23-.64-7.04-1.28-13.84-1.91-20.64.23.12.46.29.68.41,1,4.47,1.07,8.86,3.16,13.46-.31-3.38-.64-6.75-.96-10.07.2.13.38.22.56.35.43,1.82.86,3.64,1.31,5.45.03-.01.12.06.17.09-.04-.48-.15-1.03-.17-1.51-.01-1.07,0-2.06.03-3.05.6.88,1.23,1.85,1.77,2.65-.53-3.69-1.13-7.86-1.71-11.98l.48.28c.96,3.7,1.92,7.35,2.88,11.05-.92-7.59-4.35-16.45-3.58-22.83,1.3,5.89,2.65,11.91,3.69,16.62.17-2.21.39-4.98.61-7.8l.58.69c.58,3.83,1.19,7.74,1.76,11.57.23.17.46.34.67.51-.67-5.37-.5-9.74.44-13.87.3,3.33.53,5.9.77,8.47.08.07.19.18.28.25.12-1.22.26-2.39.38-3.61.1.12.19.23.31.34.23,1.44.46,2.89.75,4.7.48-2.02-1.17-7.11,1.46-5.68-.59-2.99-1.26-6.35-1.92-9.66l.19-.06c.94,2.48,1.9,4.96,3.02,7.87-.2-6.45-3.24-11.62-5.52-17.43,2.17,3.4,5.14,9.27,6.99,16.11-.25-1.78-.43-3.49-.77-5.33-.31-1.76-.76-3.57-.95-5.42l2.77,8.34c-.48-3.52-.88-6.52-1.28-9.53.15.1.33.18.48.28.31,2.15.61,4.26.93,6.41.74-2.99.09-7.09-.37-11.2.74,2.99,1.46,5.89,2.21,8.87.13.05.3.15.43.2-.58-4.76-.42-8.98-2.35-15.2,2.63,4.91,2.47,8.94,3.33,13.11.76-1.48.8-3.4-.41-7.27-1.24-3.95-2.8-7.79-4.19-11.7-.55-1.53-1.04-3.13-1.55-4.68l.38-.13c2.63,6.48,5.25,12.96,7.88,19.44l.08.07c-1.7-4.83-3.38-9.61-5.07-14.44l.07-.12c1.61,3.58,3.26,7.15,4.87,10.73,4.48-1.83,8.96-3.66,13.44-5.49-.49-2.98-.87-5.3-1.27-7.66.12.06.22.07.3.1.76,3.33,1.52,6.65,2.36,10.34.58-6.42,0-13.23-3.02-21.5,3.35,6.73,3.81,12.75,4.32,18.86.79-3.89-.05-9.2-.86-14.52,1.58,3.49,1.98,6.99,2.94,10.59-.07-1.2-.13-2.36-.2-3.56.05-.02.13.05.19.04.35,1.8.71,3.59,1.07,5.43.08.07.18.19.24.21-.07-2.53-.14-5.05-.22-7.62.16.14.34.28.51.42.36,4.05.72,8.09,1.11,12.08.67-4.83,1.32-9.65,2-14.49.06.08.16.24.22.32-.19,4.08-.36,8.21-.52,12.28l.21.22,2.23-8.14c.24.36.46.68.69,1.04-.22,1.64-.43,3.28-.66,4.92l.45.54c.77-2.31.95-5.37.23-9.39-.7-4.03-.11-6.14,1.4-7.03-2.57,2.81.63,11.46.06,16.25.17.24.33.48.51.71.45-2.75.91-5.5,1.39-8.21.08.07.18.19.26.26.13,1.72.23,3.41.4,5.85,1.32-1.47,1.59-3.96,1.39-7.47.53,1.83.26,5.6-.8,11.39.12.25.25.46.4.75,1.24-3.06,2.47-6.12,3.81-9.4-.3,2.45-.59,4.66-.83,6.55,1.42-1.94,2.94-4.02,4.47-6.09.14.3.29.59.44.93-1.23,2.66-2.48,5.23-3.71,7.9.2.42.37.76.57,1.18,1.48-1.52,2.97-3.05,4.45-4.57.11.21.2.42.31.63-.45.84-.94,1.69-1.44,2.63,2.05.79,2.89-.47,3.21-4.6.46,1.66.22,4.39-.71,8.18.12.25.23.46.34.67,1.24-2.42,2.46-4.84,3.66-7.19.15,1.03.43,2.75.55,4.33.12,1.63.07,3.16.08,4.88,2,.17,2.58-1.98,1.57-6.94-.73-3.58-1.84-7.33-2.77-10.99-.17-.63-.33-1.17-.19-1.85,1.29,4.23,2.6,8.45,3.9,12.72.06.08.15.1.21.17-.28-2.11-.59-4.22-.85-6.28.92,1.9,1.71,6.49,2.33,13.69.16.19.32.38.45.54.1-2.09.27-4.11.24-6.35-.02-3.82-.18-7.78-.23-11.64-.02-.98.26-1.65.39-2.48.18.19.32.38.48.53.26,4.13.51,8.21.74,12.3.15.15.29.3.44.44-.05-2.93-.11-5.89-.16-8.82l.55.45c.49,4.84.98,9.72,1.46,14.71,1.15-2.05.76-5.89.25-10.13,1.41,4.24,1.53,7.43.45,12.3,1.76.2,2.91-.57,2.97-3.58.1-6.01,2.39-7.17,5.24-7.23-1.47,2.4-3.94,2.98-3.71,9.17.54-.82.92-1.34,1.28-1.89.08.12.12.25.2.37-.43,1.32-.86,2.64-1.28,3.91l.6,1.17c1.26-1.89,2.5-3.72,3.93-5.91-.17,2.16-.31,4.12-.53,6.75,1.39-2.82,2.6-5.23,3.74-7.52.73,2.94.52,5.17-.37,6.84-.76,1.43-1.3,3.32-2.08,5.45,2.64-2.3,4.98-4.3,7.34-6.31.18.43.4.85.58,1.28-1.04,3.53-4.07,3.41-3.96,9.06.42-1.17.86-2.34,1.29-3.47.17.24.36.52.54.75.08,1.35.16,2.69.23,4.04.09.17.17.29.27.45.44-2.11.87-4.21,1.33-6.32.11.11.23.22.35.37.11,1.43.19,2.78.3,4.21,1.43-5.33,1.89-12.69,7.02-10.12-2.35.63-4.13,2.4-4.11,8.03.5-.75.91-1.38,1.35-1.97.12.25.25.41.37.66-.67,2.62-1.34,5.2-1.94,7.61,3.19-2.63,6.45-5.33,9.7-8.02-.26,6.75-3.29,8.35-4.95,12.62.41-.04.8-.07,1.39-.12-.14,1.91-.24,3.51-.36,5.07,2.9-6.4,6.08-12.31,5.63-23.93,1.38,8.17,0,13.14-.73,19.55.44-.88.71-1.41.97-1.94.11.16.24.36.36.52-.28,2-.56,4.01-.9,6.67,2.84-5.7,2.05-16.66,5.86-20.03-2.33,5.63-2.53,14.07-2.71,22.57l-.18-.38.12-.28ZM117.87,26.36l.47-.16-5.51-16.6c1.02,6.03,2.5,11.47,5.03,16.71h0v.04Z" style="fill: #010101;"/>
      </g>
    </g>
  </g>
</svg>