<?xml version="1.0" encoding="UTF-8"?>
<svg id="Ebene_2" xmlns="http://www.w3.org/2000/svg" viewBox="0 0 117.44 185.02">
  <defs>
    <style>
      .cls-1 {
        fill: #fff;
      }
    </style>
  </defs>
  <g id="Kapitel2_x5F_Illu2">
    <g>
      <path d="M5.27,89.36c-1.92.52-3.81-.91-4.09-3.02-.2-1.48.01-2.92.65-4.23.51-1.05.44-1.89-.38-2.7-.26-.26-.44-.6-.65-.91-1.05-1.58-1.07-3.18-.13-4.81,1.72-2.98,1.44-2.23.31-5.13-.83-2.13-1.3-4.28-.67-6.56.46-1.66,1.38-3.05,2.55-4.29.66-.7,1.32-1.39,2-2.1-.58-.34-1.22-.7-1.94-1.12.22-.11.36-.19.52-.27.94-.47,1.93-.86,2.8-1.42,2.43-1.56,3.19-3.59,2.45-6.38-.29-1.1-.67-2.18-.97-3.29-.52-1.88.1-3.39,1.57-4.6.34-.28.72-.51,1.16-.83-.67-.36-1.31-.71-2.07-1.12.63-.17,1.16-.26,1.63-.46,1.67-.7,3.3-1.5,4.99-2.16.97-.38,1.99-.62,3.01-.84,6.87-1.44,13.75-2.85,20.62-4.27.04,0,.09,0,.24.02.14.76.28,1.55.44,2.47-2.01-.7-3.59.2-5.19,1.02-.82.42-1.63.67-2.5.01.19.78.73,1.18,1.51.98.78-.2,1.52-.58,2.29-.83.77-.25,1.55-.5,2.34-.6.64-.08,1.11.3,1.39.95.39.9.9,1.74,1.29,2.64.31.72.58,1.48.75,2.25.25,1.13-.24,1.68-1.4,1.7-.16,0-.32.02-.53.03-.09.49-.16.97-.25,1.45-.16.86-.22.9-1.05.71-.38-.08-.76-.16-1.18-.12.56.21,1.12.42,1.68.62.39.14.45.33.29.74-.43,1.13-.82,2.27-1.17,3.42-.28.91-.78,1.41-1.8,1.28-2.85-.35-5.52-1.16-7.49-3.47-.2.76.02,1.6.77,1.91,1.01.43,1.02,1.25,1.15,2.11-3.17-1.75-3.85-1.75-9.01,0,.18-.87.3-1.75.55-2.59.33-1.1.03-1.84-1.15-2.26.24,1.34.74,2.65.5,4.05-.49-.78-.94-1.51-1.49-2.38-.13.33-.2.46-.23.6-.24,1.4-1,2.47-2.21,3.16-1.05.6-2.16,1.09-3.24,1.64-2.81,1.43-3.9,3.87-3.18,6.97.31,1.31.56,2.64.76,3.98.2,1.4-.16,2.72-1.02,3.82-.97,1.25-.95,2.39-.07,3.7,1.08,1.6.81,3.12-.61,4.43-.4.36-.82.69-1.24,1.03-.74.61-.99,1.36-.75,2.31.29,1.13.61,2.26.76,3.41.25,1.95-.5,2.98-2.35,3.68-.71.27-1.43.61-1.99,1.1-1.03.89-1.09,2.13-.26,3.2.37.47.81.88,1.26,1.36ZM29.05,40.61c.27-.89.7-1.77.79-2.68.18-1.82-.27-3.5-2.04-4.4-1.81-.92-3.67-.9-5.34.38-2.58,1.98-2.68,6.78-.23,8.9,2,1.74,5.49.96,6.43-1.43.13-.26.25-.51.38-.77ZM39.41,35.71c-.24-1.02-.95-1.76-1.97-1.99-1.14-.26-2.27-.21-3.43.49,1.81.74,3.49,1.38,5.4,1.51Z"/>
      <path d="M78.78,28.58c1.92.44,3.7.86,5.5,1.25,5.81,1.26,11.62,2.51,17.43,3.77.23.05.47.1.66.22,2.03,1.27,4.21,2.2,6.73,2.76-.76.42-1.38.76-1.99,1.1.56.44,1.15.82,1.62,1.31,1.08,1.11,1.53,2.45,1.11,3.98-.3,1.1-.65,2.19-1,3.28-1.07,3.37.34,5.39,2.81,6.91.86.53,1.8.94,2.77,1.44-.68.37-1.31.71-2.01,1.1.41.37.79.73,1.18,1.08,1.52,1.38,2.81,2.93,3.45,4.93.69,2.17.39,4.29-.42,6.36-.26.67-.55,1.34-.85,1.99-.3.65-.27,1.26.08,1.87.29.51.56,1.03.85,1.53,1.06,1.79,1.01,3.6-.33,5.14-1.09,1.25-1.34,2.33-.58,3.85.64,1.28.71,2.76.32,4.18-.51,1.82-2.06,2.76-3.8,2.42.28-.33.59-.72.91-1.11.94-1.14.9-2.51-.21-3.49-.49-.43-1.12-.76-1.74-.98-2.19-.77-2.93-2-2.46-4.31.17-.84.39-1.68.64-2.5.36-1.2.04-2.14-.97-2.89-.47-.35-.91-.74-1.3-1.17-1.01-1.13-1.1-2.46-.31-3.74.2-.32.4-.63.59-.95.39-.66.38-1.33.04-2-.03-.06-.05-.13-.1-.19-1.92-2.37-1.63-5.01-.87-7.66.53-1.85.58-3.65-.36-5.36-.35-.63-.85-1.25-1.43-1.64-.9-.61-1.93-1.04-2.91-1.51-1.14-.55-2.31-1.09-3-2.21-.4-.67-.64-1.44-.97-2.22-.65.57-1.15,1.31-1.39,2.24-.42-1.45.14-2.79.38-4.17-.07.03-.11.05-.15.07-1.04.51-1.31,1.28-.95,2.38.3.92.47,1.89.72,2.96-3.03-1.59-6.05-2.69-9.32-.77.08-.83.35-1.47,1.18-1.81.31-.12.65-.39.78-.67.3-.66.73-.62,1.34-.56.83.07,1.68.06,2.5-.07,3.72-.63,4.6-4.91,3.63-7.46-.92-2.39-2.63-3.42-5.19-3.2-1.99.17-3.66.79-4.77,2.59-1.8,2.94-.34,6.75,2.22,7.76.11.04.21.11.5.26-.8.55-1.46,1.22-2.25,1.5-1.59.58-3.24,1.04-4.9,1.37-1.6.32-2.26-.31-2.55-1.9-.15-.82-.47-1.6-.73-2.4-.12-.37-.28-.73-.47-1.2,1.19-.38,2.3-.73,3.42-1.09,0-.04-.01-.09-.02-.13-.73.12-1.47.22-2.2.37-1.25.25-1.26.25-1.4-1.04-.04-.34-.1-.68-.14-.98-.11-.04-.16-.08-.2-.07-1.48.15-2.06-.63-1.51-2.18.31-.87.79-1.68,1.21-2.51.25-.48.57-.91.81-1.39.47-.98.98-1.32,2.03-1.01,1,.29,1.95.76,2.91,1.17,1.02.44,2.02.88,3.17.55.58-.17,1.14-.39,1.44-.99-.06-.04-.11-.1-.13-.09-1.46.72-2.86.4-4.25-.22-.53-.24-1.05-.5-1.58-.75-1.13-.52-2.26-1.02-3.66-.49.16-.92.29-1.71.44-2.61ZM83.54,34.45c0-.08-.02-.16-.02-.24-2.21-1.24-4.11-1.32-5.22,1.11,1.83-.3,3.54-.58,5.24-.86ZM77.88,37.18c.22.43.46.9.68,1.34.31-.7.05-1.18-.68-1.34Z"/>
      <path d="M83.35,85.5l-.46.51c-.17.19-.34.39-.52.58-1.15,1.16-2.24,2.39-3.46,3.46-2.05,1.8-4.2,3.48-6.29,5.23-.63.52-1.21,1.09-1.82,1.64-1.11,1-2.23,1.99-3.33,2.99-.33.3-.58.27-.89-.04-1.66-1.65-2.4-3.64-2.27-5.95.01-.26.31-.5.48-.74.04-.05.13-.06.18-.11,1.94-1.96,4-3.81,5.76-5.91,1.4-1.67,2.43-3.64,3.62-5.49,1.11-1.71,2.34-3.32,4.01-4.56.26.36.5.7.74,1.04.06-.02.12-.05.18-.07-.61-1.48-.5-2.98-.17-4.46.36-1.61.71-3.24,1.29-4.78,1.13-3.04,1.78-6.16,2.23-9.36.42-2.99,1.39-5.83,2.61-8.6,1.4-3.15,4.32-4.01,7.11-3.5,2.74.5,4.98,2.04,7.09,3.77,2.97,2.42,4.36,5.7,5.03,9.35.18,1,.25,2.01.36,2.94-3.02-.76-5.95-1.49-8.93-2.24.58-.72,1.25-1.54,1.91-2.37-.05-.04-.09-.07-.14-.11-1.16.99-2.21,1.99-2.85,3.5-2.15,5.04-4.44,10.01-6.69,15-.67,1.49-1.33,2.98-2.07,4.43-.43.84-1.03,1.59-1.55,2.39-.16.25-.32.51-.48.76-.23.23-.45.46-.68.69Z"/>
      <path d="M40.88,113.62c-5.02-2.85-10.26-4.11-15.88-3.61,1.38.08,2.76.12,4.14.24,4.08.36,7.86,1.71,11.44,3.63.18.09.32.39.34.61.13,1.18.22,2.37.33,3.62H8.89c0-.27,0-.5,0-.72-.12-3.5-.09-7.01-.39-10.49-.57-6.7,1.16-12.7,4.96-18.17.03-.04.04-.12.07-.12.88-.06,1.77-.17,2.65-.15.2,0,.45.39.57.65.56,1.15,1.03,2.35,1.62,3.49,1.4,2.69,3.39,4.86,5.97,6.45,1.98,1.22,3.81,2.61,5.44,4.27,2.44,2.5,5.52,3.56,8.89,3.98,1.47.18,1.49.14,1.67,1.6.19,1.5.34,3.01.54,4.73Z"/>
      <path d="M108.55,108.41c.06.17.18.34.17.51-.06,3.03-.14,6.06-.21,9.13-10.49.11-21.1.21-31.74.32,0-.67-.04-1.41,0-2.15.17-2.59.38-5.17.53-7.75.04-.62.28-1,.81-1.32,4.03-2.45,8.33-4.05,13.08-4.36,5.29-.34,10.12,1.02,14.57,3.82.29.18.62.31.93.46.62.45,1.23.89,1.85,1.34ZM92.66,106.58c-.1,0-.28,0-.47.02-2.3.21-4.13,2.22-3.91,4.3.21,1.99,1.59,3.38,3.74,3.76,1.91.33,3.96-.69,4.75-2.35,1.29-2.74-.83-5.75-4.11-5.73ZM101.81,112.95c.59,0,.93-.28.94-.79.02-.51-.28-.84-.82-.83-.54,0-.92.27-.92.83,0,.52.34.78.79.8ZM106.96,114.18c.59,0,.96-.25.99-.76.03-.5-.28-.82-.83-.83-.53,0-.86.28-.87.79-.02.49.28.77.72.79ZM84,111.81c.32-.37.69-.61.68-.83-.01-.23-.44-.65-.6-.62-.29.06-.58.37-.72.65-.05.1.33.42.64.8ZM78.72,111.78c.3-.38.63-.61.63-.85,0-.2-.43-.59-.59-.55-.29.07-.51.39-.77.61.19.21.39.42.72.79Z"/>
      <path d="M108.55,108.41c-.62-.45-1.23-.89-1.85-1.34-1.73-1.38-3.68-2.38-5.74-3.15-7.27-2.71-14.29-1.93-21.09,1.62-.39.2-.78.42-1.17.64-.38.22-.75.44-1.27.75.3-2.48.49-4.83.89-7.14.44-2.57,1-5.12,1.64-7.65.31-1.23.88-2.4,1.41-3.57.1-.22.54-.4.82-.4,3.15-.02,6.31,0,9.46.02,3.78.02,7.57.04,11.35.03.51,0,.78.17,1.07.58,2.3,3.21,3.93,6.71,4.68,10.61.44,2.3.29,4.6.16,6.91-.03.51-.04,1.03-.11,1.54-.02.19-.17.37-.26.55ZM97.65,95.07c.03-3.29-2.68-6.1-5.91-6.14-3.33-.04-6.09,2.66-6.12,5.98-.03,3.34,2.62,6.09,5.91,6.11,3.41.02,6.09-2.59,6.12-5.95Z"/>
      <path d="M18.84,58.81c1.17.99,2.52,1.58,2.98,3.02-1.58.16-3.14.25-4.67.48-1.54.23-3.06.58-4.65.9.16-2.56.63-5.09,1.82-7.42,2.12-4.15,5.45-6.9,9.95-8.09,2.28-.6,4.48-.35,6.18,1.55.44.5.8,1.1,1.1,1.7.78,1.59,1.57,3.18,2.25,4.82.45,1.09.7,2.25,1.04,3.38-3.51.92-4.96,1.57-11.07,4.98-1.2-2.09-1.85-4.72-4.93-5.32Z"/>
      <path d="M75.46,144.68c.12-3.11.23-6.18.35-9.33.4,0,.72,0,1.04,0,10.56,0,21.12,0,31.68,0q1.13,0,.98,1.26c-2.02-.68-4.1-.43-6.15-.38-.87.02-1.74.29-2.59.5-.17.04-.43.4-.39.51.43,1.15.92,2.28,1.4,3.41l.34.22c.17-.29.34-.6.52-.88.44-.66.89-1.31,1.34-1.97.3-.43.68-.68,1.24-.62.56.06.69.49.84.91.27.73.59,1.42,1.43,1.69.49.16.79.07.98-.44.3-.8.65-1.58.97-2.36l.18.02c0,.24,0,.48,0,.72,0,1.33-.02,2.66.04,3.99.03.65-.14.87-.84.87-6.17-.03-12.33-.02-18.5-.02-4.51,0-9.02,0-13.53,0-.23,0-.46,0-.69.12h33.46v1.8h-34.09ZM96.49,137.72c-.2-.09-.44-.14-.44-.2-.06-1-.91-1.04-1.52-1.06-2.33-.08-4.66-.06-6.99-.05-.34,0-.71.08-1.01.24-.2.11-.43.4-.43.62-.03,1.1.93,2.35,2,2.7.83.27,1.2.14,1.64-.6.26-.44.49-.91.76-1.34.58-.93,1.45-1.02,2.18-.2.51.57.93,1.22,1.41,1.83.23.3.49.59.76.92.35-.97.66-1.82,1.03-2.84.16.9-.12,1.69.32,2.33.09,0,.19,0,.28-.01.07-.64.15-1.27.21-1.84.51.68,1.04,1.37,1.54,2.03.49-1.06.9-1.98,1.34-2.89.22-.45.11-.76-.37-.81-.65-.07-1.31-.12-1.95-.06-.8.07-.97.37-.76,1.23ZM83.48,140.1c.46-.76.91-1.53,1.38-2.28.54-.85.51-.99-.42-1.39-.26-.11-.53-.24-.8-.23-1.89.02-3.77.06-5.66.12-.25,0-.5.12-.73.22-.44.18-.82.41-.55.98-.26.08-.47.15-.73.24.14.79-.12,1.6.28,2.32.1,0,.19,0,.29,0,.09-.73.18-1.46.27-2.24.49,1.02.96,1.99,1.53,3.17.34-.56.59-.92.78-1.3.28-.54.47-1.12.79-1.63.65-1.06,1.84-1.05,2.48,0,.38.63.7,1.31,1.09,2.04ZM100.01,140.07c.09,0,.18,0,.28,0,.03-.72.07-1.43.08-2.15,0-.07-.18-.19-.3-.21-.09-.02-.23.05-.3.12-.2.24,0,1.94.24,2.23ZM85.25,138.84s.03,0,.04,0c0,.3-.02.6.01.9.01.1.15.21.26.25.06.02.24-.1.25-.17.06-.62.1-1.24.1-1.86,0-.09-.25-.23-.39-.25-.08,0-.24.18-.26.3-.04.27-.01.55-.01.83ZM92.05,138.46c-.29.23-.48.39-.68.55.19.16.38.46.57.46.21,0,.42-.27.63-.43-.15-.17-.3-.33-.52-.58ZM105.26,138.38c-.28.25-.46.42-.64.59.17.14.35.42.51.4.22-.02.43-.25.64-.38-.14-.17-.29-.34-.51-.6ZM81.37,138.39c-.24.24-.4.4-.57.56.18.15.37.43.53.41.22-.02.41-.27.61-.42-.16-.16-.33-.31-.58-.55Z"/>
      <path d="M97.85,150.3h12.11c-.91,6.13-1.81,12.24-2.72,18.46-1.16-.06-2.33-.12-3.5-.18-.48-2.25-.11-3.78,1.18-4.86-.88-.04-1.76.6-1.95,1.58-.15.77-.11,1.58-.15,2.37-.01.28,0,.55,0,.89-.64.04-1.24.08-1.84.12-.6.04-1.21.08-1.96.13-.39-6.14-.77-12.25-1.17-18.5Z"/>
      <path d="M7.79,150.31h12.06c-.38,6.14-.75,12.23-1.13,18.43-1.23-.05-2.41-.11-3.68-.16,0-.86.03-1.7,0-2.53-.06-1.45-.76-2.22-2.24-2.44,2.21,1.16,1.19,3.18,1.46,4.92-1.3.09-2.5.17-3.76.26-.9-6.16-1.8-12.31-2.7-18.49Z"/>
      <path d="M58.69,0c-.01.78.02,1.57-.05,2.34-.1,1.11.07,2.28-.68,3.29-.19.26-.16.72-.17,1.08-.14,6.3-.28,12.6-.41,18.91-.1,5.16-.2,10.32-.3,15.48,0,.14-.02.27-.03.41-2.19.28-4.23-1.06-4.59-3.15-.3-1.77-.38-3.57-.54-5.36-.07-.74-.08-1.48-.12-2.34,1.68,1.28,3.28,2.51,4.88,3.74.03-.03.07-.05.1-.08-.11-.19-.21-.38-.33-.55-1.44-2.12-2.91-4.23-4.32-6.37-.23-.34-.36-.81-.36-1.22.02-2.15.09-4.29.15-6.44,0-.13.02-.26.04-.5,1.73,1.26,3.38,2.46,5.19,3.78-.13-.3-.16-.42-.22-.53-1.46-2.31-2.94-4.6-4.36-6.93-.24-.4-.33-.96-.3-1.43.11-1.58.31-3.16.48-4.73.02-.23.06-.45.1-.8,1.52,1.38,2.95,2.68,4.39,3.98.03-.03.06-.06.09-.08-1.06-1.54-2.04-3.14-3.2-4.6-.85-1.07-.77-2.01-.18-3.12,1.01-1.9,2.59-3.22,4.29-4.43.15-.11.29-.23.43-.34,0,0,0,0,0,0Z"/>
      <path d="M20.65,150.38h11.29c-.47,6.17-.93,12.32-1.4,18.49h-3.43c0-.93.02-1.79,0-2.64-.04-1.33-.66-2.2-1.79-2.55-.08-.03-.18-.02-.49-.05,2.25,1.36,1.19,3.4,1.52,5.19-1.26.09-2.41.17-3.66.25-.68-6.24-1.35-12.44-2.03-18.69Z"/>
      <path d="M94.91,169.15c-1.17-.07-2.28-.14-3.42-.21,0-1.23-.13-2.45.05-3.62.1-.6.76-1.11,1.09-1.56-1.08.11-1.94,1.01-2.02,2.29-.03.47-.03.93-.03,1.4,0,.46,0,.92,0,1.49h-3.49c-.44-6.1-.9-12.3-1.35-18.56h11.23c-.68,6.24-1.36,12.45-2.06,18.77Z"/>
      <path d="M10.85,137.69c-.18-.04-.36-.09-.54-.13.03-1.73-1.4-1.03-2.26-1.36v-.87h34.12c.02.5.05.97.07,1.57-1.1-.17-2.28-.19-2.81.77-.32.57.02,1.49.06,2.26.13,0,.26.01.38.02.08-.69.17-1.38.27-2.24.39.96.72,1.78,1.08,2.65.35-.2.67-.38,1.08-.61v2.92H7.79c0-.87-.02-1.7,0-2.53.02-.81.08-1.62.25-2.47.35.76.7,1.51,1.12,2.41.33-.79.6-1.44.87-2.1.04,0,.09,0,.13,0,.03.34.05.69.09,1.03.04.35.08.71.24,1.06.57-.75.46-1.57.33-2.4.55,1,1.09,1.99,1.73,3.15.37-.93.66-1.68.98-2.43.22-.52.5-1.03,1.16-1.07.65-.04,1.02.38,1.34.87.44.68.87,1.37,1.36,2.16.39-.89.74-1.69,1.1-2.49.38-.87.26-1.25-.66-1.41-1.99-.36-3.99-.34-5.98.06-.24.05-.47.2-.7.3-.43.18-.53.48-.32.89ZM28.31,140.73c.08,0,.16.01.25.02.39-1.06.81-2.11,1.16-3.19.24-.75.02-1.06-.78-1.11-1.19-.08-2.38-.11-3.57-.11-1.49,0-2.99.02-4.48.11-1.08.07-1.53.83-1.19,1.84.09.26.18.53.3.78.63,1.36,2.06,1.47,2.91.23.3-.44.53-.93.81-1.39.42-.68.94-.83,1.58-.36.56.41,1.07.9,1.55,1.41.52.56.98,1.18,1.46,1.77ZM37.82,140.53c.43-.98.81-1.82,1.19-2.67.4-.93.2-1.26-.85-1.3-1.49-.05-2.99-.07-4.48-.08-.7,0-1.41,0-2.09.1-.32.05-.64.33-.9.56-.21.19-.34.47-.62.88.12.52-.21,1.34.23,2.04.1,0,.2,0,.3,0,.09-.67.17-1.34.27-2.15.38.92.71,1.71,1.08,2.59.21-.36.36-.62.5-.89.25-.45.47-.92.75-1.34.79-1.21,1.8-1.21,2.62-.04.32.46.63.93.99,1.35.28.32.63.58,1.02.94ZM18.75,137.8c0,.66-.01,1.31.01,1.95,0,.12.18.23.27.34.09-.11.25-.22.27-.34.06-.5.08-1.01.11-1.52.03-.53-.25-.56-.66-.42ZM25.93,139.38v-.26c-.22-.1-.45-.27-.67-.27-.19,0-.37.23-.56.35.18.16.35.42.55.45.21.03.45-.17.67-.27ZM34.7,139.6c.28-.28.47-.47.66-.66-.2-.12-.41-.36-.59-.34-.22.02-.41.26-.62.41.15.16.3.33.55.59ZM14.96,138.65c-.23.21-.4.36-.57.51.17.15.36.44.5.41.24-.04.45-.28.68-.43-.18-.14-.36-.29-.62-.5Z"/>
      <path d="M52.48,76.46c.4-1,.75-1.79,1.02-2.61.06-.19-.04-.6-.19-.67-1.57-.77-3.16-1.49-4.78-2.23-.26.52-.48.96-.72,1.44,1.37.61,2.7,1.2,4.03,1.8-.02.05-.04.1-.06.14-1.09-.32-2.18-.64-3.27-.96q-1.15-.34-1.89.7c1.27.47,2.53.94,3.78,1.4-.02.05-.03.1-.05.15-1.07-.24-2.15-.49-3.22-.73q-1.07-.24-1.77.66c1.3.39,2.6.78,3.89,1.16-.01.06-.03.11-.04.17-1.57-.25-3.13-.49-4.7-.74-.04.06-.09.11-.13.17.56.95,1.11,1.9,1.71,2.92-1.59.57-3.12,1.12-4.65,1.66-2.24.78-4.5,1.55-6.74,2.34-.31.11-.55.2-.75-.19-1.94-3.56-3.9-7.11-5.95-10.85,2.64-1.04,5.22-2.05,7.82-3.07.63,1.88.73,3.78,1.67,5.38.33-.45.53-1.05.91-1.2.87-.34,1.83-.58,2.76-.62.42-.02.96.44,1.29.82.56.64,1,1.4,1.56,2.21.63-.73,1.29-1.41,1.85-2.17.61-.82,1.13-1.71,1.7-2.56.11-.17.25-.38.41-.43,1.61-.49,3.22-.93,4.83-1.41.58-.17.85.03,1.03.58.51,1.5,1.04,3,1.62,4.47.23.58.09.96-.43,1.2-.8.37-1.61.69-2.56,1.09Z"/>
      <path d="M10.56,169.1h8.01v4.59c-1.05-.08-2.01-.15-3.04-.22,1.32-1.24,1.49-2.36.56-3.3-.83-.84-1.93-.84-2.79.02-.95.94-.79,1.98.54,3.28-.91.1-1.77.19-2.63.28,0,.05,0,.09.01.14h7.32c.43,2.19,2.07,3.18,3.9,3.86,4.48,1.66,8.98,3.25,13.48,4.87.26.09.52.19.83.3-.24.64-.77.97-1.33,1.04-1.17.15-2.37.28-3.54.21-2.7-.15-5.39-.49-8.1-.63-3.11-.17-6.2-.08-9.28.51-1.96.38-3.38-.42-3.82-2.06-.09-.33-.12-.7-.09-1.04.38-3.75.34-7.51-.03-11.26-.02-.18,0-.37,0-.57ZM15.12,175.02c1.27,3.01,3.26,4.17,6.03,3.46-2.38-.67-4.35-1.82-6.03-3.46ZM13.21,178.41c1.34.15,2.52.29,3.7.42.01-.07.02-.14.03-.22-.35-.1-.71-.2-1.06-.31q-1.76-.56-1.71-2.34c-.3.76-.59,1.52-.96,2.45Z"/>
      <path d="M102.34,173.51c-1.03.07-1.95.13-2.87.19v.17h7.4c0,.33,0,.6,0,.87.08,2.07.13,4.15.26,6.22.12,1.97-1.36,3.43-3.41,3.2-1.2-.13-2.38-.44-3.58-.62-3.98-.59-7.91-.35-11.81.61-1.83.45-3.69.6-5.54.06-.72-.21-1.41-.49-1.77-1.27,1.46-.45,2.93-.83,4.33-1.36,3.68-1.39,7.35-2.83,11.01-4.3,1.91-.77,2.97-2.16,2.87-4.33-.06-1.28-.01-2.56-.01-3.84h7.99c-.12,1.56-.24,3.06-.36,4.63-.91-.08-1.81-.15-2.85-.24.73-.66,1.38-1.3,1.07-2.24-.16-.48-.47-.98-.85-1.3-.8-.68-1.88-.47-2.61.38-.8.95-.59,1.93.74,3.19ZM103.15,175.14c-.06-.05-.12-.11-.18-.16-1.61,1.67-3.56,2.76-5.75,3.54,1.08.04,2.13-.02,3.19-.12.21-.02.47-.15.6-.32.73-.97,1.43-1.96,2.14-2.94ZM104.89,178.41c-.37-.97-.66-1.71-.95-2.45-.13.18-.11.32-.09.45.19,1.1.1,1.27-.96,1.65-.56.2-1.13.35-1.69.53.01.07.02.13.03.2,1.16-.12,2.32-.24,3.65-.38Z"/>
      <path d="M60.74,35.14c1.5-.91,3.01-1.81,4.65-2.8-.11,1.3-.18,2.48-.3,3.64-.12,1.09-.24,2.18-.45,3.26-.33,1.73-1.01,2.35-2.75,2.56-.52.06-1.06,0-1.64,0-.01-.23-.04-.46-.04-.68-.06-9.18-.12-18.36-.2-27.54,0-.55.16-.89.6-1.21,1.2-.89,2.36-1.83,3.54-2.74.18-.14.37-.26.67-.47.21,2.23.42,4.33.59,6.44.02.24-.16.53-.31.74-1.4,1.95-2.82,3.9-4.22,5.85-.09.13-.17.26-.16.51,1.59-.97,3.19-1.93,4.87-2.95.02.35.05.59.05.84-.02,2.48-.04,4.95-.1,7.43,0,.34-.21.71-.42.99-1.48,2.01-2.98,4.01-4.47,6.01.04.05.07.1.11.14Z"/>
      <path d="M102.43,25.88c4.02-.57,8.03-1.13,12.03-1.7l-.02-.3c-1.78-.17-3.56-.4-5.34-.51-2.28-.14-4.57-.17-6.86-.28-.24-.01-.57-.19-.68-.39-.69-1.21-1.33-2.44-2.03-3.75.57-.37,1.27-.86,2-1.3,2.89-1.74,5.85-3.32,9.14-4.16,1.34-.34,2.71-.54,4.09-.23,1.86.42,2.32,1.82,1.05,3.26-1.21,1.37-2.84,2.11-4.5,2.74-2.98,1.14-6.09,1.77-9.25,2.12-.22.02-.43.07-.65.25.24.01.47.04.71.03,2.31-.11,4.62-.3,6.93-.32,1.24,0,2.51.19,3.71.49.66.16,1.29.66,1.81,1.14,1.08,1,.97,1.96-.38,2.57-1.07.48-2.24.89-3.4.98-2.6.22-5.22.23-7.83.31-.58.02-.6-.05-.52-.96ZM115.67,14.71c-.18-.12-.45-.42-.77-.48-.46-.09-.98.43-.97.89.01.45.26.74.72.78.48.04,1.02-.49,1.01-1.19Z"/>
      <path d="M83.35,85.5c.23-.23.45-.46.68-.69.05-.05.12-.08.16-.14.82-1.14,1.99-1.14,3.24-1.12,3.29.06,6.59.04,9.88.05.19,0,.37-.02.6-.03.03-.16.08-.31.08-.46.07-3.06.14-6.12.19-9.18.02-1.63-.61-2.35-2.24-2.53-1.39-.15-2.79-.24-4.29-.36.21-.47.4-.96.66-1.42.08-.14.33-.25.5-.26,3.77-.21,7.38.45,10.81,2.07.3.14.46.27.39.68-.75,4.45-1.29,8.92-1.36,13.43,0,.07-.02.13-.05.27-.21.01-.44.03-.66.03-6-.05-12-.09-18.01-.15-.2,0-.39-.13-.59-.2Z"/>
      <path d="M88.35,14.46c-.34-1.28-.75-2.54-1.02-3.83-.48-2.32-.76-4.66-.22-7.01.13-.58.37-1.16.7-1.66.6-.91,1.62-1.09,2.4-.33.62.6,1.16,1.35,1.51,2.14,1.02,2.31.95,4.77.79,7.23-.1,1.55-.18,3.1-.28,4.77-1.17,0-2.53-.11-3.86.04-.84.09-1.25-.16-1.79-.75-2.93-3.23-5.92-6.41-8.89-9.61-.06-.06-.13-.1-.31-.23,1.65,4.52,4.48,8.1,7.63,11.54-.36.21-.65.39-1.01.6-.31-.28-.65-.56-.96-.86-1.93-1.81-3.77-3.71-5.08-6.03-.62-1.1-1.06-2.33-1.42-3.54-.24-.82-.25-1.8.53-2.39.8-.61,1.74-.3,2.42.2,1.06.77,2.1,1.64,2.95,2.63,1.43,1.66,2.7,3.46,4.06,5.18.55.69,1.15,1.33,1.73,1.99.04-.03.07-.06.11-.09ZM89.89,2.87c-.06-.51-.27-.91-.8-.92-.5,0-.81.32-.85.84-.03.53.34.96.82.93.55-.03.73-.42.83-.86Z"/>
      <path d="M29.45,14.8c1.21-1.51,2.42-3.01,3.62-4.53.9-1.14,1.74-2.31,2.67-3.42.81-.98,1.77-1.8,3.02-2.19,1.56-.49,2.48.13,2.36,1.76-.07.98-.33,1.99-.73,2.89-1.46,3.25-3.94,5.7-6.55,8.02-.2.17-.79-.1-1.39-.2,3.3-3.56,6.08-7.18,7.62-11.63-.23.21-.47.42-.68.65-2.92,3.18-5.84,6.36-8.74,9.56-.28.31-.5.42-.93.37-1.41-.16-2.82-.24-4.09-.34-.13-1.92-.29-3.89-.4-5.85-.12-2.14,0-4.26.93-6.24.33-.7.81-1.38,1.38-1.9.91-.84,2.04-.65,2.54.49.42.96.71,2.03.8,3.08.24,3.03-.45,5.93-1.41,8.79-.07.2-.13.39-.2.58.06.04.13.08.19.12ZM29.57,2.93c-.06-.47-.2-.89-.77-.88-.53,0-.8.34-.83.84-.03.51.2.87.75.88.53,0,.77-.34.86-.83Z"/>
      <path d="M19.11,83.58c.28.02.46.04.64.04,4.39-.02,8.78-.05,13.16-.05.29,0,.57.14.86.18.19.03.4.04.59-.01.39-.11.77-.27,1.26-.44-.13.82-.24,1.53-.35,2.24H15.06c-.87-4.62-1.73-9.18-2.62-13.86,2.28-.46,4.44-.89,6.67-1.34v13.26Z"/>
      <path d="M36.64,183.73c.66-.88.62-.95-.41-1.32-4.4-1.6-8.8-3.21-13.2-4.82-.42-.15-.54-.33-.45-.82.19-1.03.25-2.07.37-3.12,1.65,0,3.27,0,4.9,0,.79,0,1.59-.04,2.38,0,.2,0,.52.18.56.34.34,1.2,1.19,1.98,2.21,2.51,2.17,1.14,4.37,2.2,6.6,3.21,1.72.77,3.5,1.41,5.26,2.11.89.36,1.8.43,2.75.25.23-.04.63-.05.69.07.11.2.08.53.01.78-.18.64-.73.94-1.31,1.01-1.24.16-2.5.32-3.75.28-2.19-.08-4.37-.31-6.6-.48ZM27.04,174.35c-.59,1.27-1.18,2.52-1.81,3.87h5.28c-1.15-1.28-2.31-2.57-3.48-3.87Z"/>
      <path d="M86.97,173.76h7.77c.14,1.23.28,2.42.43,3.77-4.79,1.72-9.65,3.46-14.59,5.23.28.38.51.68.8,1.06-2.61.16-5.16.33-7.71.45-.74.03-1.49-.07-2.23-.19-.43-.07-.91-.18-1.24-.44-.33-.26-.57-.7-.73-1.11-.12-.32.1-.62.51-.51,1.5.39,2.85-.08,4.2-.66,2.59-1.11,5.21-2.17,7.81-3.28.64-.27,1.26-.61,1.87-.95,1.41-.78,2.74-1.64,3.11-3.37ZM90.76,174.4c-1.22,1.33-2.37,2.6-3.52,3.85h5.28c-.61-1.33-1.18-2.57-1.77-3.85Z"/>
      <path d="M109.32,129.93c.07,1.25.14,2.5.21,3.81h-3.1c.26-1.39-.03-2.11-1.1-2.66-1.08-.55-2.36-.36-3.16.47-.6.62-.62,1.14-.04,2.21h-5.58c.32-1.21-.37-1.98-1.23-2.61-.75-.54-1.61-.69-2.43-.15-1,.65-1.23,1.63-.9,2.78h-5.27c.22-1.03-.25-1.99-1.28-2.65-.88-.57-1.84-.58-2.54-.02-.77.61-.96,1.45-.6,2.67-.12.02-.23.04-.34.04-1.66,0-3.31,0-5,0,.02-.11,0-.18.04-.22.74-.94.62-1.92-.44-2.49-.55-.3-.57-.64-.45-1.18h33.23Z"/>
      <path d="M38.38,133.79c.54-1.68-.52-3.17-2.22-3.05-.76.05-1.55.34-2.22.72-1.01.57-1.05,1.33-.25,2.32h-5.08c.34-1.24.09-2.13-.77-2.75-.72-.52-1.64-.54-2.36-.04-.85.59-1.02,1.33-.61,2.79h-5.48c.01-.08.01-.16.05-.24.59-1.36.03-2.48-1.41-2.8-1.32-.29-2.93.4-3.65,1.55-.29.46-.48.92.08,1.47h-6.28c-.02-.07-.04-.13-.06-.2.21-.06.42-.14.64-.17.88-.12,1.4-.7,1.12-1.39-.14-.34-.54-.59-.87-.81-.17-.12-.44-.11-.72-.17.02-.37.04-.71.06-1.08h33.64c.06,1.27.11,2.53.17,3.87h-3.77Z"/>
      <path d="M21.16,16.93c-.89.61-1.79,1.23-2.73,1.88-1.27-1.6-3.07-2.57-4.9-3.52-2.28-1.19-4.49-2.51-6.28-4.39-.67-.7-1.29-1.49-1.72-2.35-.9-1.82.35-3.58,2.37-3.43,1.57.12,2.87.93,4.1,1.82,2.62,1.89,4.67,4.34,6.66,6.85.82,1.04,1.65,2.08,2.5,3.15ZM8.76,7.32c0-.66-.55-1.21-1.2-1.19-.65.02-1.19.56-1.2,1.21-.01.7.46,1.2,1.16,1.2.71,0,1.24-.51,1.24-1.22Z"/>
      <path d="M99.27,18.83c-.92-.66-1.78-1.29-2.68-1.93,2.96-3.45,5.47-7.39,9.36-10.03,1.06-.72,2.3-1.21,3.52-1.64.94-.33,1.85.01,2.5.82.66.82.74,1.78.19,2.61-.7,1.06-1.5,2.08-2.42,2.95-1.83,1.72-4.02,2.93-6.26,4.06-1.6.8-3.09,1.75-4.21,3.16ZM111.36,7.42c.01-.67-.55-1.27-1.21-1.28-.6-.01-1.16.53-1.19,1.13-.03.71.48,1.28,1.16,1.3.67.02,1.22-.49,1.23-1.15Z"/>
      <path d="M109.54,146.44v2.66c-11.33.1-22.66.2-34.03.3v-2.95h11.01c.02.44.04.89.07,1.41h7.74c.02-.47.05-.92.08-1.42h15.14Z"/>
      <path d="M63.58,93.49c-.29,2.75.62,5.01,2.57,6.96-2.35,1.77-4.48,3.76-7.6,3.82-1.63.03-2.53-.69-2.69-2.11.39-.06.79-.12,1.19-.18.04-.07.08-.15.13-.22-1.42.07-2.04-.61-2.08-1.84.58-.04,1.14-.07,1.69-.1-1.96-.35-2.47-.9-2.27-2.64,1.36.2,2.69.12,3.89-.66.19-.12.32-.34.44-.58-1.44.21-2.81.98-4.47.31.27-.16.37-.24.48-.27.81-.27,1.67-.43,2.43-.81,1.69-.84,3.42-1.5,5.31-1.67.21-.02.42-.03.63-.04.09,0,.18.02.36.04Z"/>
      <path d="M16.52,21.73c-.35-.11-.7-.29-1.06-.33-3.63-.43-7.2-1.12-10.51-2.72-1.07-.52-2.11-1.22-2.96-2.06-1.46-1.45-.92-2.97,1.1-3.38,1.38-.28,2.74-.07,4.08.29,4.07,1.07,7.64,3.16,11.06,5.45-.6.94-1.16,1.84-1.73,2.74l.02.02ZM2.62,14.18c-.15.2-.47.45-.55.76-.12.43.43.98.9.96.49-.02.79-.29.77-.8-.02-.55-.37-.82-1.12-.92Z"/>
      <path d="M61.33,65.88c.8.24.61.79.48,1.27-.1.34-.18.61.13.86.07.05.13.17.12.25-.08.56-.37,1.19-.21,1.67.19.57.46,1.1.14,1.64-.28.46-.64.99-1.09,1.22-1.45.73-2.96,1.34-4.53,2.03-.59-1.49-1.1-2.81-1.63-4.13-.29-.74-.6-1.47-.89-2.2-.06-.14-.11-.31-.08-.45.27-1.27.52-2.54.86-3.79.38-1.41.82-2.81,1.27-4.2.15-.48.55-.31.67-.04.19.4.32.88.29,1.32-.04.81-.28,1.61-.31,2.42-.05,1.18.43,1.45,1.45.84.85-.51,1.71-.8,2.73-.61,1.04.2,1.25.53.83,1.48-.05.13-.12.25-.22.43Z"/>
      <path d="M21.35,95.29c-.72-.95-1.43-1.89-2.23-2.95.98-.27,1.82-.51,2.66-.74.79-.21.93-.42.64-1.19-.23-.63-.52-1.23-.82-1.92,1.13,0,2.19-.02,3.25.02.14,0,.32.24.39.4,2.18,5.14,6.16,8.19,11.4,9.72.67.2,1.42.11,2.29.17.15.82.32,1.81.52,2.92-.53-.08-1.01-.09-1.47-.22-1.52-.41-2.74-.07-3.67,1.27-.37.53-.84.99-1.38,1.61-1.34-1.14-2.66-2.26-3.97-3.37.02-.08.04-.15.06-.23.8,0,1.61.02,2.41,0,1.04-.03,1.44-.58.94-1.5-.39-.71-.98-1.35-1.59-1.91-.51-.46-1.14-.81-1.76-1.12-1.41-.7-2.76-1.47-3.82-2.66-.31-.34-.61-.34-.98-.1-.9.58-1.81,1.15-2.85,1.8Z"/>
      <path d="M34.84,24.05c.18.54.17.9-.38,1.14-.47.2-.48.62-.2.99.27.36.62.67.93.99-.81.4-1.1.32-1.66-.33-.39-.46-.8-.91-1.26-1.3-.44-.37-.93-.38-1.36.11-.29.33-.6.66-.93.95-.44.39-.51.74,0,1.12.14.1.22.27.36.46-.81.28-1.43.1-1.97-.43-.33-.33-.64-.68-.95-1.03-.35-.4-.72-.37-1.11-.07-.13.1-.24.22-.37.32-.92.72-.91.71-.35,1.76.08.14,0,.36-.01.55-.18-.05-.42-.04-.53-.15-.36-.4-.65-.85-.99-1.27-.52-.65-.91-.69-1.53-.16-.43.36-.83.76-1.23,1.14-.08.08-.14.18-.25.33.29.28.57.55.9.86-.44.31-.82.24-1.14-.14-.28-.34-.52-.72-.8-1.06-.48-.58-.86-.61-1.42-.14-.27.22-.54.45-.8.69-.7.63-.67.62-.14,1.43.2.3.26.68.4,1.04.7-.07.4-1.53,1.49-.92-.23-.67-.43-1.24-.63-1.81.06-.03.11-.06.17-.09.48.43.97.84,1.44,1.29.44.42.93.46,1.49.33.51-.12,1.03-.2,1.67-.32-.21-.66-.46-1.46-.74-2.35.79.59,1.54,1.11,2.23,1.7.17.14.16.51.24.8.78-.41,1.02-1.54,2.13-1.56-.31-.58-.6-1.13-.9-1.69.04-.03.08-.05.12-.08.54.43,1.06.89,1.64,1.27.34.22.78.42,1.15.4.99-.06,1.98-.26,3.12-.42-.5-.86-.95-1.63-1.49-2.58.77.18,1.23.52,1.64.96,1.31,1.4,1.86,1.44,3.38.19.13-.1.25-.21.38-.31.74-.56.59-1.54-.28-1.95-.32-.15-.59-.39-1.07-.71.87-.19,1.51-.33,2.23-.48.41,1.51.82,2.98,1.22,4.45-7.82,1.61-15.55,3.2-23.34,4.8,0-1.35-.02-2.68.02-4.01,0-.17.3-.43.51-.48,3.61-.85,7.22-1.69,10.84-2.5,2.53-.57,5.06-1.09,7.59-1.62.16-.03.32-.05.52-.07Z"/>
      <path d="M25.03,15.81c-1.09.31-2.13.62-3.19.9-.15.04-.42-.05-.5-.17-1.91-2.79-3.53-5.72-4.12-9.09-.18-1.01-.19-2.1-.03-3.12.27-1.74,1.69-2.25,3.11-1.21,1.31.96,2.14,2.31,2.58,3.82.62,2.12,1.04,4.29,1.55,6.44.19.81.39,1.63.58,2.43ZM18.73,5.14c.54.02.93-.37.93-.84,0-.47-.44-.99-.85-.95-.49.05-.83.32-.82.86,0,.55.32.84.75.93Z"/>
      <path d="M96.36,16.77c-1.26-.38-2.37-.71-3.48-1.05.55-2.6,1-5.24,1.7-7.81.35-1.3,1.14-2.48,1.77-3.69.16-.3.44-.54.7-.78.7-.64,1.5-1.15,2.46-.74.94.39,1.14,1.3,1.2,2.21.2,2.71-.7,5.16-1.88,7.51-.75,1.5-1.65,2.92-2.48,4.35ZM98.18,4.61c.17.12.43.42.74.49.45.1,1-.47.87-.94-.09-.31-.42-.67-.72-.76-.41-.13-.88.45-.89,1.21Z"/>
      <path d="M60.06,127.88h-2.77v-22.91h2.77v22.91Z"/>
      <path d="M7.79,144.67v-1.75h34.54v1.75H7.79Z"/>
      <path d="M29.27,79.13c-.44.11-.89.21-1.33.35-.59.19-1.22.39-1.21,1.16.01.73.65.92,1.19,1.1.48.16.99.23,1.48.35-.25,1.11-.42,1.25-1.48,1.25-1.28,0-2.57,0-3.85,0-.05,0-.09-.02-.23-.05.81-1.3.65-2.73.6-4.14-.04-1.15-.2-1.27-1.31-1.29-.44,0-.89-.04-1.32-.11-.49-.08-.89-.29-.92-.88-.02-.6.26-.98.82-1.14.49-.14.99-.27,1.5-.33.67-.08.99-.45,1.08-1.08.23-1.51.17-2.97-.77-4.49.81,0,1.48-.02,2.14.02.18.01.43.18.52.34.85,1.53,1.65,3.08,2.49,4.61.26.47.1.7-.36.82-.38.1-.78.15-1.16.25-.85.22-1.23.69-1.23,1.46,0,.82.57,1.08,1.2,1.23.69.16,1.4.26,2.1.38,0,.07.01.14.02.21Z"/>
      <path d="M36.81,20.63c-1-1.03-1.93-2-2.92-3.03,2-1.43,3.6-3.52,6-4.49.99-.4,2.11-.63,3.18-.64,1.52-.02,2.33,1.25,1.66,2.61-.48.97-1.2,1.9-2.01,2.63-1.71,1.54-3.82,2.37-5.9,2.93ZM44.49,13.93c-.47-.37-.71-.67-1.01-.76-.39-.11-.94.44-.92.86.02.47.32.81.75.71.36-.09.66-.44,1.17-.81Z"/>
      <path d="M83.68,17.3c-.94,1.1-1.79,2.1-2.66,3.09-.09.1-.34.15-.48.11-2.2-.63-4.29-1.51-5.92-3.17-.68-.7-1.27-1.57-1.64-2.47-.51-1.24.24-2.32,1.59-2.42.71-.05,1.45.03,2.14.2.67.17,1.37.41,1.92.81,1.75,1.26,3.44,2.61,5.05,3.85ZM75.33,14.12c-.14-.6-.54-1-.99-.98-.46.02-.72.28-.73.75,0,.5.42.96.88.84.31-.08.56-.39.83-.6Z"/>
      <path d="M76.19,128.57v-1.33h32.93c.03.42.07.85.1,1.33h-33.03Z"/>
      <path d="M57.23,47.93h2.85v15.26c-.74.3-1.42.57-2.11.85-.72.28-1.16.03-.93-.7.74-2.39.06-4.8.18-7.19.11-2.4.02-4.8.02-7.21,0-.32,0-.65,0-1.01Z"/>
      <path d="M16.5,21.71c-.22,1.3-1.07,1.47-2.25,1.51-3.66.11-7.31.37-10.97.57,0,.11-.01.23-.02.34,1.97.35,3.93.75,5.91,1.04,1.98.28,3.99.44,6.07.66-.01.29-.03.63-.05,1.14-.77,0-1.51,0-2.25,0-2.62,0-5.24,0-7.79-.68-.62-.17-1.25-.41-1.81-.73-1.22-.69-1.31-1.52-.32-2.53,1.11-1.14,2.53-1.6,4.06-1.61,1.94-.02,3.87.11,5.81.18,1.21.04,2.42.1,3.62.15,0,0-.02-.02-.02-.02Z"/>
      <path d="M59.04,5.6c.06.63.16,1.26.16,1.9.06,6.84.11,13.68.17,20.52.03,4.25.07,8.5.11,12.75,0,.28,0,.56,0,.89h-1.67c0-.31,0-.55,0-.8.22-11.23.44-22.45.67-33.68.01-.53.13-1.05.2-1.58h.36Z"/>
      <path d="M8.44,128.57c.03-.48.05-.87.07-1.26h33.34c.03.45.06.83.09,1.26H8.44Z"/>
      <path d="M85.19,26.97c-.09.64-.18,1.28-.28,1.98-1.91-.38-3.84-.77-5.9-1.19.42-1.49.83-2.93,1.28-4.51,6.78,1.34,13.48,2.91,20.27,4.47-.04.48-.09.93-.11,1.24-.75-.4-1.44-.9-2.22-1.16-1.19-.39-2.25.1-2.51.99-.23.78.43,1.71,1.56,2.09,1.07.36,2.11.33,3.1-.54-.03.74-.06,1.37-.09,2.09-1.64-.38-3.23-.75-4.89-1.14.02-.25.06-.5.04-.75-.05-.86-.12-1.71-.2-2.57-.01-.15-.13-.3-.23-.43-.71-.94-3.07-1.36-4.07-.72-.72.46-.85,1.23-1.01,1.98-.08.38-.06.78-.1,1.25-1.43-.32-2.83-.64-4.24-.96v-1.56c.63.9,1.46,1.28,2.45,1.34.99.06,1.85-.44,1.94-1.12.14-1.03-.54-1.88-1.65-2.04-.3-.04-.6-.06-.91-.08-.99-.05-1.69.39-2.13,1.26.17-1.07.17-1.18-.84-1.6-.78-.33-1.62-.56-2.46-.69-1.03-.16-1.56.46-1.4,1.51.1.68.48,1.14,1.11,1.4,1.28.52,2.45.34,3.51-.55Z"/>
      <path d="M91.01,72.51c.11-.72.44-1.05,1.18-.96,1.46.18,2.92.29,4.38.45.4.05.75.17.75.73-.01,3.43,0,6.87.01,10.3,0,.07-.02.14-.03.26h-11.53c.56-1.09,1.1-2.14,1.69-3.29.96,1.38,2.23,2.18,3.86,2.32,1.03.09,1.99-.17,2.88-.71,1.76-1.07,2.69-3.35,2.19-5.34-.58-2.33-2.38-3.59-5.37-3.76Z"/>
      <path d="M97.71,125.56c-1.56,0-3.02.03-4.49-.03-.29-.01-.61-.31-.84-.55-.88-.96-1.69-1.99-2.59-2.93-.9-.93-1.87-1.79-2.87-2.73.2-.26.6-.36.94-.15.67.4,1.35.83,1.89,1.38.65.66,1.13,1.49,1.76,2.17.47.5,1.01.98,1.61,1.31.82.45,1.71.05,1.98-.79.07-.22.03-.5-.05-.72-.03-.07-.42-.13-.48-.06-.16.18-.23.44-.32.67-.02.05.01.13.03.28-.25,0-.48.04-.69,0-.82-.19-1.41-1.08-1.46-2.16-.05-1.18.31-1.91,1.27-2.12.78-.17,1.62-.21,2.41-.12,1.09.13,1.58.73,1.66,1.84.1,1.53.16,3.07.24,4.72Z"/>
      <path d="M20.8,25.76c.69-2.64,2.09-4.52,4.71-5.16,3.01-.74,5.45.47,7.77,2.56-4.22.88-8.29,1.73-12.48,2.61Z"/>
      <path d="M37.9,94.18c.24.98.49,1.86.64,2.74.03.15-.33.51-.52.52-.62.02-1.28.04-1.86-.14-4.68-1.44-8.36-4.14-10.65-8.55-.03-.06-.03-.13-.05-.24.81,0,1.59-.02,2.37.02.15,0,.3.25.44.39,1.3,1.29,2.52,2.69,3.93,3.85.85.7,1.99,1.09,3.04,1.51.84.34,1.73.39,2.67-.11Z"/>
      <path d="M58.69,0c.14.03.3.01.4.08,2.36,1.58,4.5,3.34,5.25,6.27.14.55.06.94-.32,1.39-1.23,1.46-2.4,2.97-3.6,4.46-.08.1-.15.22-.23.33-.06-.03-.11-.06-.17-.09-.01-.24-.04-.49-.04-.73-.03-1.61-.04-3.22-.08-4.82,0-.35.03-.76-.14-1.02-.85-1.31-.52-2.79-.68-4.2-.04-.37,0-.75-.07-1.11-.04-.2-.21-.37-.32-.55,0,0,0,0,0,0Z"/>
      <path d="M84.45,22.85c2.22-2.3,5.7-3.32,8.2-2.35,1.96.76,3.54,2.74,3.81,4.96-4-.87-7.97-1.73-12.01-2.61Z"/>
      <path d="M28.67,119.89c-2.23,1.42-3.81,3.49-5.54,5.41-.1.11-.26.23-.39.23-1.6.02-3.2.01-4.94.01.18-1.61.3-3.14.54-4.65.17-1.08.82-1.62,1.76-1.7,1.17-.1,2.02.34,2.42,1.26.41.94.19,2.16-.56,2.76-.24.19-.63.21-.94.31.02-.39.12-.68.03-.79-.11-.12-.5-.16-.6-.06-.14.14-.22.46-.16.66.25.85,1.33,1.21,2.04.61.6-.5,1.11-1.13,1.61-1.73.87-1.06,1.8-2.02,3.07-2.59.59-.27,1.16-.35,1.67.27Z"/>
      <path d="M60.07,73.96v12.35h-2.84c0-1.2,0-2.36,0-3.53,0-2.38.01-4.76,0-7.15,0-.43.09-.65.55-.79.75-.22,1.47-.56,2.29-.89Z"/>
      <path d="M100.07,125.54c.16-.63.38-1.21.44-1.8.1-.95.05-1.91.15-2.86.13-1.25.49-1.67,1.43-1.87,1.09-.24,2.24.18,2.79,1.01.62.95.65,2.12-.06,2.84-.28.29-.81.52-1.19.48-.28-.03-.52-.53-.89-.97.56-.12.88-.2,1.2-.27.03-.07.05-.13.08-.2-.24-.12-.51-.37-.72-.32-.29.06-.64.3-.75.55-.25.59.13,1.55.66,1.85.61.35,1.2.18,1.68-.24.47-.41.88-.9,1.29-1.38.7-.82,1.45-1.57,2.61-2.04-.04.28-.01.49-.1.64-.69,1.13-1.39,2.26-2.1,3.37-.2.31-.42.62-.68.88-.14.15-.37.29-.56.3-1.79.02-3.59.01-5.26.01Z"/>
      <path d="M23.8,82.07c-.27,1.2-.36,1.28-1.57,1.28-.82,0-1.63,0-2.55,0,0-.26,0-.48,0-.7.03-3.92.06-7.84.07-11.77,0-.53.18-.69.67-.71.56-.02,1.11-.11,1.67-.17,1.02-.11,1.39.21,1.51,1.37-.47.06-.95.14-1.43.19-.67.08-.94.47-1.02,1.12-.08.66.27.96.81,1.12.47.14.96.21,1.43.34.15.04.26.2.39.3-.12.12-.22.3-.37.34-.47.13-.99.14-1.42.34-.49.22-1.04.51-1.32.93-.58.88-.13,1.88.9,2.21.37.12.78.16,1.17.2.38.04.77.04,1.2.22-.24.07-.5.12-.72.23-.62.31-1.28.56-1.8.99-.51.41-.43.95.16,1.26.69.37,1.45.6,2.25.92Z"/>
      <path d="M31.53,125.53c.09-.59.21-1.12.25-1.66.06-.86.04-1.73.12-2.58.1-1.11.68-1.71,1.63-1.78,1.03-.08,1.77.43,2.02,1.52.13.56.15,1.16.1,1.73-.07.71-.89,1.06-1.42.65-.26-.19-.47-.42-.01-.68.15-.09.21-.34.31-.52-.19-.11-.38-.3-.57-.31-.49-.02-.71.3-.7.76,0,.69.31,1.21.93,1.52.62.31,1.24.28,1.76-.2.36-.33.65-.73.95-1.12,1.17-1.49,2.9-2.95,4.34-3.62.21.52.16.87-.28,1.33-1.4,1.46-2.7,3.02-4.06,4.53-.16.17-.38.41-.58.41-1.65.03-3.3.02-4.79.02Z"/>
      <path d="M85.69,125.53c-1.57,0-2.99.01-4.4-.01-.19,0-.42-.17-.55-.32-1.31-1.57-2.63-3.15-3.89-4.76-.22-.28-.22-.74-.32-1.12.07-.07.14-.13.21-.2.4.22.88.36,1.19.67.73.75,1.38,1.58,2.07,2.36.54.6,1.1,1.17,1.82,1.93.33-.92.58-1.62.86-2.42h-1.15c.05.45.09.82.14,1.31-.75-.44-1.05-.99-1-1.73.06-.79.22-1.55.98-1.98.84-.47,1.86-.11,2.2.8.17.45.27.95.29,1.43.08,1.46.45,2.8,1.55,4.03Z"/>
      <path d="M28.37,88.53c2.62,0,5.04,0,7.46.02.18,0,.46.23.52.4.4,1.17.74,2.35,1.13,3.52.16.47-.05.71-.45.71-.71,0-1.45.02-2.13-.16-1.91-.51-3.48-1.64-4.92-2.97-.51-.47-1-.95-1.62-1.54Z"/>
      <path d="M28.16,149.3v-2.85h8.59v2.85h-8.59Z"/>
      <path d="M12.11,122.08c.2-.54.31-.85.46-1.25.62.32.71.82.62,1.36-.17,1-1.45,1.54-2.3.98-.85-.55-1.16-1.36-1.05-2.35.11-.92.65-1.5,1.51-1.73.64-.17,1.33-.25,1.99-.27.64-.01,1.05.36,1.07,1.04.02,1.14.02,2.28.02,3.43,0,.85-.2,1.77.81,2.31h-6.58v-1.16c.76.65,1.52.87,2.36.4,1.11-.63,2.22-1.31,2.41-2.71.07-.5-.12-1.11-.37-1.56-.12-.22-.74-.35-1.02-.23-.28.12-.51.57-.55.91-.02.21.35.47.63.81Z"/>
      <path d="M17.33,149.27v-2.81h7.74v2.81h-7.74Z"/>
      <path d="M41.76,125.9c.2.69-.13.72-.57.72-3.9-.02-7.8-.04-11.7-.04-6.68,0-13.36.02-20.03.03-.09,0-.2.03-.28,0-.22-.09-.43-.21-.64-.32.21-.11.43-.31.64-.31,8.92-.03,17.84-.04,26.76-.06,1.66,0,3.32-.01,4.97-.02.28,0,.55,0,.84,0Z"/>
      <path d="M25.72,69.32c-2.28.24-4.49.4-6.68.74-2.16.33-4.3.83-6.52,1.27-.04-.51-.08-1.01-.14-1.64,1.99-.45,3.92-.99,5.89-1.31,1.95-.32,3.94-.41,5.91-.65.56-.07.87.11,1.07.61.14.34.31.67.46.98Z"/>
      <path d="M36.2,87.13v.99c-.26,0-.49,0-.72,0-7.1,0-14.2-.01-21.3-.02q-.89,0-.75-.97h22.77Z"/>
      <path d="M79.01,62.11c.31.02.53.01.73.06,1.5.33,2.16.82,1.48,2.31-.42.93-1,1.83-1.67,2.61-.69.8-2.14.74-2.8-.07-.25-.31-.21-.88-.27-1.34-.03-.23.08-.5,0-.7-.51-1.4-.04-2.33,1.39-2.68.4-.1.82-.14,1.13-.19Z"/>
      <path d="M12.5,69.36c-.26-.52.04-.65.42-.73,2.61-.51,5.21-1.04,7.82-1.52.46-.09.64-.21.62-.69-.03-1.02,0-2.04,0-3.27-3.06.53-5.98,1.03-8.93,1.54-.17-.42.12-.62.53-.7,1.78-.37,3.54-.79,5.33-1.08,1.12-.18,2.28-.14,3.42-.22.42-.03.67.08.87.49.61,1.26,1.28,2.48,1.93,3.73.05.1.06.21.13.42-4.18.09-8.16,1.03-12.13,2.04Z"/>
      <path d="M109.03,125.9c.2.57-.17.61-.62.61-4.67,0-9.34-.02-14.01-.02-5.81,0-11.63.03-17.44.04-.09,0-.2.03-.28,0-.16-.07-.31-.18-.46-.28.15-.12.3-.35.45-.35,1.49-.04,2.99-.06,4.48-.05,5.74.01,11.49.04,17.23.05,3.52,0,7.05,0,10.65,0Z"/>
      <path d="M36.18,85.9c.01.26.02.48.04.78-.29.01-.54.04-.79.04-7.05.04-14.11.08-21.16.12-.14,0-.31.05-.41-.01-.18-.11-.32-.28-.48-.42.17-.14.32-.39.5-.4,1.07-.07,2.15-.1,3.22-.11,6.14-.02,12.29-.03,18.43-.04.2,0,.41.03.66.05Z"/>
      <path d="M7.79,149.31v-2.86h7.08v2.86h-7.08Z"/>
      <path d="M96.1,63.03c0,1.01.03,1.92-.01,2.82-.02.53.26.58.66.68,2.33.56,4.66,1.14,6.98,1.75.84.22.83.27.65,1.26-3.43-1.63-7.04-2.4-10.92-2.31.7-1.79,1.33-3.4,2.02-5.19,2.44.64,4.87,1.27,7.29,1.9.38.1.75.28,1.13.35.78.14,1.07.55.77,1.44-2.56-1.72-5.39-2.64-8.59-2.7Z"/>
      <path d="M82.38,86.6c.17-.19.34-.39.52-.58.74-.01,1.49-.05,2.23-.04,5.65.02,11.3.05,16.95.09.53,0,1.07.06,1.6.09.2.51.05.71-.47.71-6.75.04-13.5.08-20.24.11-.2,0-.39-.24-.59-.36Z"/>
      <path d="M35.61,64.4c-.02-1.58.72-2.29,1.93-2.24,1.6.07,2.51.9,2.31,2.23-.09.59-.22,1.11,0,1.72.18.49-.07.97-.54,1.25-.6.35-1.23.44-1.85.05-1.24-.79-1.88-1.91-1.85-3.01Z"/>
      <path d="M29.42,83.27c.88-1.27.67-2.59.51-3.92-.09-.76-.53-1.1-1.24-1.17-.49-.05-.98-.09-1.46-.17-.42-.07-.84-.19-.83-.76,0-.54.31-.8.8-.91.68-.15,1.36-.28,2.13-.44,1.34,2.4,2.69,4.84,4.09,7.37h-4Z"/>
      <path d="M32.61,63.26c-.11,1.62-.21,3.06-.33,4.5-.01.15-.17.35-.3.4-1.14.45-2.29.88-3.46,1.32,0-1.37,0-2.69.01-4.01,0-.17.13-.41.26-.48,1.21-.57,2.44-1.12,3.81-1.73Z"/>
      <path d="M81.72,87.88c.12-.7.52-.76,1-.76,4.55,0,9.11,0,13.66,0,2.24,0,4.48,0,6.73-.01.55,0,.8.17.63.77h-22.02Z"/>
      <path d="M24.94,66.23c-.21-.42-.45-.9-.73-1.46,3.46-1.64,6.71-3.84,10.68-4.72v2.09c-.07.01-.14.02-.21.03-.06-.56-.12-1.11-.2-1.85-.58.69-.05,1.3-.15,1.69-3.18,1.43-6.28,2.82-9.38,4.21ZM33.12,60.88c-.08,0-.15,0-.23,0-.32.48.03.94.05,1.41.1,0,.2,0,.3-.01-.04-.47-.08-.94-.12-1.4ZM31.09,61.63c-.45.46-.42.87.19,1.37-.06-.42-.11-.84-.19-1.37ZM33.67,62.13c.1-.01.19-.03.29-.04-.06-.48-.12-.96-.18-1.44-.11.02-.22.03-.33.05.08.48.15.96.23,1.44ZM32.39,61.16c-.11.02-.22.05-.33.07.09.45.18.91.27,1.36.1-.02.19-.04.29-.06-.08-.46-.15-.91-.23-1.37ZM29,62.61c-.1.03-.2.06-.31.09.13.42.26.83.38,1.25l.3-.09c-.13-.41-.25-.83-.38-1.24ZM29.69,62.28c-.11.02-.22.03-.32.05.1.42.21.85.31,1.27.08-.02.17-.04.25-.06l-.24-1.27ZM31.73,61.4c-.09.01-.17.02-.26.03.05.47.1.94.15,1.41.11-.01.23-.03.34-.04-.08-.46-.16-.93-.23-1.39Z"/>
      <path d="M28.06,96.64c-.71.47-1.52,1.02-2.34,1.55-.13.08-.38.16-.48.09-1.11-.75-2.21-1.52-3.41-2.36,1-.73,1.83-1.32,2.64-1.93.34-.25.56-.14.84.13.91.86,1.84,1.69,2.76,2.52Z"/>
      <path d="M92.57,69.09c.22-.54.39-.94.54-1.31,3.56.04,7.01.42,10.24,1.95,1.15.54.94.31.75,1.59-3.62-1.79-7.43-2.5-11.54-2.24Z"/>
      <path d="M39.68,102.39c-.76,1.16-1.4,2.13-2.06,3.09-.08.11-.31.22-.44.18-1.09-.27-2.18-.57-3.39-.9.73-.99,1.34-1.84,1.98-2.66.12-.16.41-.3.6-.27,1.07.15,2.13.35,3.31.55Z"/>
      <path d="M26.17,98.81c.78-.72,1.51-1.39,2.37-2.18.93.68,1.88,1.36,2.82,2.07.21.16.37.42.49.67.33.65.18.89-.54.93-.33.02-.67-.04-.97.05-1.76.52-2.94-.51-4.17-1.53Z"/>
      <path d="M22.11,90.98c-1.07.23-2.08.47-3.1.66-.13.02-.38-.15-.45-.29-.5-.91-.97-1.84-1.52-2.91.87,0,1.61,0,2.36,0q1.96.02,2.54,1.91c.06.19.11.39.17.64Z"/>
      <path d="M57.27,185.02v-3.68h2.78v3.68h-2.78Z"/>
      <path class="cls-1" d="M85.19,26.97c-1.06.88-2.24,1.07-3.51.55-.63-.26-1.01-.72-1.11-1.4-.15-1.04.37-1.67,1.4-1.51.84.13,1.68.36,2.46.69,1,.42,1,.53.84,1.6-.02.03-.05.05-.08.07ZM84.75,26.08c0-.09-.01-.17-.02-.26-.86-.33-1.78-.38-2.7-.35-.13,0-.26.12-.39.19.12.11.23.3.37.33.69.12,1.38.22,2.07.27.22.02.45-.12.67-.18Z"/>
      <path d="M57.27,94.24v-3.92h2.82c0,.95,0,1.83-.01,2.71,0,.1-.13.25-.23.29-.84.31-1.7.61-2.58.92Z"/>
      <path d="M22.93,173.41c-.07-1.35-.15-2.69-.22-4.01h3.48c-.66.52-1.32.94-1.36,1.86-.04.89.54,1.37,1.3,1.87-.64.07-1.13.14-1.63.18-.51.04-1.01.07-1.56.1Z"/>
      <path d="M35.2,62.58v4.33c-.63.26-1.37.56-2.06.84,0-1.47,0-2.92.02-4.37,0-.12.21-.3.35-.34.53-.17,1.07-.29,1.69-.45Z"/>
      <path d="M89.16,80.32c.76-.69,1.48-1.35,2.21-2.01.08-.08.19-.13.34-.23.81.77,1.62,1.53,2.43,2.3-1.33,1.32-3.66,1.3-4.97-.06Z"/>
      <path d="M91.6,169.47h3.22v3.99c-1.03-.07-1.94-.14-3.07-.22.8-.56,1.29-1.12,1.18-1.98-.1-.82-.58-1.34-1.36-1.62,0-.06.02-.12.03-.18Z"/>
      <path d="M92.41,77.23c.68-.62,1.48-1.36,2.28-2.1,1.08,1.05,1.12,3.05.08,4.53-.76-.78-1.54-1.58-2.36-2.43Z"/>
      <path d="M94.03,74.38c-.7.74-1.37,1.44-2.04,2.15-.24.26-.45.28-.7,0-.22-.24-.45-.47-.7-.68-.99-.87-.91-.57-.33-1.82.12-.25.48-.5.76-.55,1.11-.19,2.1.14,3.01.89Z"/>
      <path d="M60.07,151.91v2.98h-2.79v-2.98h2.79Z"/>
      <path d="M60.07,145.6v3.02h-2.78v-3.02h2.78Z"/>
      <path d="M57.28,172.65v-2.93h2.75v2.93h-2.75Z"/>
      <path d="M60.05,163.57v2.94h-2.77v-2.94h2.77Z"/>
      <path d="M60.05,139.49v2.95h-2.77v-2.95h2.77Z"/>
      <path d="M57.29,133.75h2.77v2.77h-2.77v-2.77Z"/>
      <path d="M87.13,173.2v-3.73h3.4c-2.22,1.07-2.21,2.59-.65,3.73h-2.75Z"/>
      <path d="M27.81,65.42c0,1.37.04,2.69-.03,4.01-.01.27-.41.52-.73.91-.64-1.19-1.19-2.2-1.71-3.23-.05-.1,0-.36.09-.41.8-.45,1.62-.87,2.39-1.27Z"/>
      <path d="M60.04,178.56h-2.76v-2.73h2.76v2.73Z"/>
      <path d="M60.06,160.57h-2.77v-2.75h2.77v2.75Z"/>
      <path d="M27.94,173.14c1.8-1.51,1.23-2.95-.52-3.74,1.07-.05,2.06-.09,3.1-.14,0,.69-.01,1.32,0,1.94.01.63.05,1.26.08,1.94h-2.66Z"/>
      <path d="M57.29,129.68h2.74v2.34h-2.74v-2.34Z"/>
      <path d="M88.66,79.78c-.56-.57-.69-1.08-.31-1.75.38-.66.65-1.38,1.02-2.18.55.62,1.05,1.19,1.58,1.79-.69.65-1.47,1.37-2.29,2.13Z"/>
      <path d="M37.57,125.23c1.32-1.15,2.65-2.31,3.94-3.44.06.35.12.77-.32,1.22-.5.5-.94,1.11-1.27,1.74-.36.69-.85.91-1.57.8-.2-.03-.4-.04-.6-.05-.06-.09-.12-.18-.18-.27Z"/>
      <path d="M24.11,125.45c.91-1.04,1.73-2.05,2.63-2.98.27-.28.76-.39,1.16-.47.16-.03.38.21.76.45-1.36.46-1.88,1.51-2.57,2.39-.64.82-.75.87-1.99.61Z"/>
      <path d="M57.27,43.89v-1.72c.91.05,1.8.09,2.75.14v1.58h-2.75Z"/>
      <path d="M90.39,28.52c1.31,1.62,3,1.92,4.65.81-.09.6-.19,1.18-.29,1.83-1.44-.32-2.88-.65-4.36-.98v-1.65Z"/>
      <path d="M27.31,70.75c2.73-1.06,5.46-2.13,8.19-3.19l.17.16c-.12.15-.21.36-.36.43-2.45,1.02-4.91,2.02-7.39,3-.18.07-.45-.08-.68-.13.02-.09.04-.18.06-.27Z"/>
      <path d="M101.31,28.13c.61-.12.84.06.82.64-.03,1.32-.01,2.64-.01,4.04-.44-.09-.79-.16-1.21-.24.14-1.5.27-2.96.4-4.43Z"/>
      <path d="M87.06,122.17c.47-.42.94-.42,1.55.17.71.7,1.37,1.46,2.04,2.19.29.32.58.64.87.96-.05.08-.09.16-.14.24-.44-.22-.95-.35-1.3-.66-1.03-.92-2-1.9-3.02-2.9Z"/>
      <path d="M60.07,88.89h-2.78v-1.42h2.78v1.42Z"/>
      <path d="M80.03,125.44c-.83.22-1.31-.01-1.74-.53-.51-.63-1.15-1.16-1.62-1.81-.23-.31-.19-.81-.28-1.22.08-.05.16-.09.24-.14,1.11,1.21,2.22,2.42,3.4,3.71Z"/>
      <path d="M91.81,40.29c-.72.02-1.24-.41-1.24-1.02,0-.57.53-1.01,1.19-1.02.62,0,1.17.49,1.17,1.05,0,.57-.47.98-1.12.99Z"/>
      <path d="M41.29,149.3v-2.83h1.01v2.83h-1.01Z"/>
      <path d="M60.06,44.55v.98h-2.77v-.98h2.77Z"/>
      <path d="M98.47,30.23c-.47-.22-.89-.37-1.23-.61-.14-.1-.22-.44-.15-.61.06-.16.35-.32.54-.31.36.01.76.07,1.07.24.26.14.42.47.62.72-.27.18-.53.36-.84.57Z"/>
      <path d="M92.99,28.99c-.17-.07-.52-.12-.76-.31-.17-.14-.27-.48-.23-.7.02-.12.41-.26.61-.24.36.04.73.16,1.07.31.2.09.35.31.52.47-.21.15-.42.33-.65.45-.11.06-.27.02-.56.03Z"/>
      <path d="M82.16,59.44c-.4-.03-.73-.06-1.14-.09.61-1.04,1.2-2.02,1.78-3,.05.02.09.04.14.05-.26,1-.51,2-.78,3.04Z"/>
      <path d="M95.03,36.65c-.88.05-1.21-.54-1.45-1.13-.63,0-1.22.02-1.8-.02-.1,0-.18-.27-.29-.44,1.26-.29,3.2.38,3.54,1.59Z"/>
      <path d="M39.26,71.57c-.61.27-1.14.35-1.36.65-.24.34-.21.88-.45,1.35-.19-.67-.38-1.35-.6-2.13.81,0,1.53-.19,2.41.12Z"/>
      <path d="M108.82,123.05c.07,1.09-1.41,2.48-2.56,2.43.89-.84,1.66-1.58,2.56-2.43Z"/>
      <path d="M78.47,73.87c-.49-.66.04-1.93-1.39-2.14.65-.54,1.29-.19,1.9-.34-.18.89-.34,1.67-.51,2.48Z"/>
      <path d="M80.18,60.86c.35-1.05.49-1.11,1.82-.83.09.84.05.9-.73.87-.34-.01-.69-.03-1.09-.05Z"/>
      <path d="M88.06,36.48c.76-1.11,1.92-1.36,3.18-1.47-.49.77-1.09.96-1.84.58-.2.67-.61,1.04-1.35.86v.02Z"/>
      <path d="M58.68,47.3c-.37,0-.74.03-1.11-.02-.12-.01-.22-.21-.33-.32.11-.08.22-.23.34-.23.72-.02,1.44-.03,2.15,0,.12,0,.24.19.36.29-.12.1-.24.27-.37.28-.34.04-.69.01-1.04.01,0,0,0,0,0-.01Z"/>
      <path d="M88.76,27.52c-.48.48-1.06.35-1.59.13-.23-.1-.38-.4-.57-.61.06-.1.11-.2.17-.3.67.16,1.34.33,2.01.49-.01.1-.02.19-.03.29Z"/>
      <path d="M81.84,61.63c-.03.37-.06.64-.09.97-.79-.3-1.55-.59-2.5-.94.95-.37,1.73-.07,2.58-.03Z"/>
      <path d="M88.48,41.82c-.17.23-.33.44-.6.79-.39-.76-.71-1.39-1.1-2.15,1.03.11,1.3.77,1.7,1.36Z"/>
      <path d="M38.55,70.81c-1.68.2-1.79.17-1.86-.64,1.25-.34,1.75-.16,1.86.64Z"/>
      <path d="M88.03,42.81c.87-.64,1.31,0,1.8.23.17.08.18.48.26.73-.07.06-.14.12-.21.18-.58-.36-1.17-.72-1.85-1.14Z"/>
      <path d="M38.75,105.9c.33-.61.61-1.13.89-1.64.05.01.11.02.16.03.08.55.16,1.11.26,1.75-.46-.05-.82-.09-1.3-.14Z"/>
      <path d="M35.97,66.34c.44.51.88,1.01,1.35,1.56-1.09.38-1.16.35-1.35-.56-.06-.29-.1-.59-.16-.89.05-.04.1-.07.16-.11Z"/>
      <path d="M37.86,69.45c-1.22.28-1.47.16-1.48-.7.95-.31,1.1-.24,1.48.7Z"/>
      <path d="M35.54,62.57v-1.08c.36-.04.72-.11,1.09-.11.15,0,.3.15.46.23-.1.13-.18.3-.32.37-.36.2-.75.36-1.22.59Z"/>
      <path d="M77.83,70.8q.26-.84,1.53-.68c-.05.86-.19.92-1.53.68Z"/>
      <path d="M92.25,44.11c-.72-.04-1.31-.08-1.9-.12-.03-.09-.05-.17-.08-.26.27-.13.52-.33.8-.36.46-.05.91.04,1.18.74Z"/>
      <path d="M95.26,41.78c-.15-.64-.13-1.17.45-1.4-.05-.58-.09-1.09-.14-1.6.06,0,.13,0,.19-.01.42.73.19,2.16-.5,3.01Z"/>
      <path d="M77.64,125.48h-1.29v-1.42c.46.5.83.91,1.29,1.42Z"/>
      <path d="M35.37,59.9c.83-.21,1.07.22,1.21.89-.38.03-.74.05-1.15.08-.02-.35-.04-.64-.05-.97Z"/>
      <path d="M86.78,40.1c.06-.67.11-1.25.17-1.93.79.98.75,1.59-.17,1.93Z"/>
      <path d="M94.09,43.36c-.48.2-.97.4-1.45.6-.06-.06-.11-.12-.17-.18.3-.3.57-.65.93-.86.14-.09.47.12.71.2,0,.09,0,.17-.01.26Z"/>
      <path d="M34.26,56.31c.5.94,1.01,1.88,1.52,2.83-.41.05-1.26-1.44-1.52-2.83Z"/>
      <path d="M78.76,69.53c.21-.51.32-1.12,1.12-.87-.12.92-.17.97-1.12.87Z"/>
      <path d="M88.05,36.46c.21.89.03,1.24-.99,1.47.34-.48.67-.96,1.01-1.45,0,0-.01-.02-.01-.02Z"/>
      <path d="M94.53,43.09c-.19-.1-.22-.11-.22-.12-.2-.49-.05-.87.4-1.11.08-.04.25.11.38.16-.19.36-.37.71-.56,1.06Z"/>
      <path d="M41.65,125.52c-.18,0-.33,0-.49,0-.09,0-.17-.02-.37-.04.28-.4.53-.75.86-1.22v1.26Z"/>
      <path d="M79.55,67.96c.29-.34.58-.67.9-1.05-.07,1.03-.3,1.3-.9,1.05Z"/>
      <path d="M95.42,37.09c.12.36.26.72.36,1.09.02.08-.1.21-.16.31-.08-.08-.22-.16-.23-.25-.06-.36-.08-.73-.12-1.1.05-.02.1-.03.15-.05Z"/>
      <path class="cls-1" d="M28.67,41.37c-.95,2.39-4.43,3.17-6.43,1.43-2.45-2.13-2.35-6.93.23-8.9,1.67-1.28,3.53-1.3,5.34-.38,1.77.9,2.22,2.58,2.04,4.4-.09.91-.52,1.79-.79,2.68,0-.04.03-.12.01-.13-.05-.02-.13-.05-.15-.03-.97.8-2.09,1.07-3.33,1.04-1.52-.04-2.84-.6-4.07-1.54.33,2,2.21,3.42,4.13,3.25,1.32-.12,2.2-.91,3.03-1.82ZM26.38,36.84c-.18-.14-.29-.29-.4-.29-.46-.02-.95-.09-1.37.06-.18.06-.38.71-.26.87.24.33.66.66,1.05.74.81.16,1.61-.43,1.83-1.18.24-.79-.1-1.6-.85-2.03-1.36-.78-3.11-.06-3.51,1.46-.45,1.72.99,3.62,2.62,3.76-.47-.46-1.18-.98-1.65-1.66-.66-.96-.35-2.2.5-2.72.87-.53,1.97-.04,2.03.99Z"/>
      <path d="M28.67,41.37c-.82.91-1.7,1.7-3.03,1.82-1.93.17-3.81-1.25-4.13-3.25,1.22.94,2.55,1.5,4.07,1.54,1.23.03,2.36-.23,3.33-1.04.03-.02.11,0,.15.03.01,0,0,.08-.01.13-.13.26-.25.51-.38.77Z"/>
      <path class="cls-1" d="M39.41,35.71c-1.91-.13-3.59-.76-5.4-1.51,1.16-.7,2.28-.75,3.43-.49,1.03.24,1.74.97,1.97,1.99Z"/>
      <path class="cls-1" d="M83.54,34.45c-1.7.28-3.41.56-5.24.86,1.11-2.43,3.01-2.35,5.22-1.11,0,.08.02.16.02.24Z"/>
      <path class="cls-1" d="M77.88,37.18c.74.15.99.64.68,1.34-.22-.44-.47-.91-.68-1.34Z"/>
      <path class="cls-1" d="M92.66,106.58c3.28-.03,5.4,2.99,4.11,5.73-.78,1.66-2.84,2.68-4.75,2.35-2.15-.37-3.53-1.76-3.74-3.76-.22-2.08,1.61-4.09,3.91-4.3.19-.02.37-.02.47-.02ZM92.64,113.92c2.02.01,3.56-1.42,3.56-3.33,0-1.79-1.53-3.28-3.39-3.3-2.02-.02-3.59,1.42-3.6,3.3,0,1.84,1.52,3.32,3.42,3.33Z"/>
      <path class="cls-1" d="M101.81,112.95c-.46-.01-.8-.28-.79-.8,0-.55.39-.82.92-.83.54,0,.83.33.82.83-.02.51-.35.78-.94.79Z"/>
      <path class="cls-1" d="M106.96,114.18c-.44-.02-.73-.3-.72-.79.02-.52.34-.8.87-.79.55,0,.85.33.83.83-.03.51-.4.76-.99.76Z"/>
      <path class="cls-1" d="M84,111.81c-.31-.38-.69-.69-.64-.8.14-.28.44-.59.72-.65.17-.03.59.39.6.62.01.22-.36.46-.68.83Z"/>
      <path class="cls-1" d="M78.72,111.78c-.34-.37-.53-.58-.72-.79.25-.22.48-.54.77-.61.16-.04.59.35.59.55,0,.24-.33.47-.63.85Z"/>
      <path class="cls-1" d="M97.65,95.07c-.03,3.36-2.71,5.97-6.12,5.95-3.28-.02-5.94-2.77-5.91-6.11.03-3.33,2.79-6.02,6.12-5.98,3.23.04,5.94,2.85,5.91,6.14ZM94.71,91.44c-1.35-1.85-4.83-1.85-6.25,0,1.04.98,2.08,1.97,3.13,2.97,1.08-1.03,2.1-2,3.12-2.97ZM91.5,95.69c-.97,1.11-1.89,2.16-2.8,3.2,1.64,1.41,4.41,1.43,6.03-.14-1.03-.97-2.06-1.95-3.23-3.06ZM95.4,98.04c1.46-1.89,1.45-4.65.04-5.95-1,1.02-2.01,2.05-3.04,3.11.97.93,1.97,1.87,3,2.85ZM87.82,92.09c-1.37,1.69-1.3,4.48.13,5.97.93-1,1.86-2,2.71-2.92-.89-.96-1.84-1.98-2.84-3.05Z"/>
      <path class="cls-1" d="M96.49,137.72c-.21-.86-.04-1.16.76-1.23.64-.06,1.3-.01,1.95.06.49.05.59.36.37.81-.44.91-.85,1.84-1.34,2.89-.5-.67-1.03-1.35-1.54-2.03-.07.57-.14,1.2-.21,1.84-.09,0-.19,0-.28.01-.44-.64-.16-1.43-.32-2.33-.37,1.01-.68,1.87-1.03,2.84-.28-.33-.53-.62-.76-.92-.47-.61-.9-1.26-1.41-1.83-.74-.83-1.6-.73-2.18.2-.27.43-.5.9-.76,1.34-.44.74-.81.87-1.64.6-1.08-.36-2.03-1.6-2-2.7,0-.22.23-.51.43-.62.3-.16.67-.24,1.01-.24,2.33,0,4.66-.03,6.99.05.61.02,1.46.06,1.52,1.06,0,.06.23.11.44.2Z"/>
      <path class="cls-1" d="M83.48,140.1c-.38-.73-.7-1.4-1.09-2.04-.64-1.05-1.83-1.06-2.48,0-.31.51-.51,1.1-.79,1.63-.2.38-.44.74-.78,1.3-.57-1.17-1.04-2.14-1.53-3.17-.1.78-.18,1.51-.27,2.24-.1,0-.19,0-.29,0-.4-.71-.14-1.53-.28-2.32.26-.08.47-.15.73-.24-.27-.57.12-.8.55-.98.24-.1.48-.21.73-.22,1.88-.06,3.77-.1,5.66-.12.27,0,.54.12.8.23.93.4.96.53.42,1.39-.48.75-.93,1.53-1.38,2.28Z"/>
      <path class="cls-1" d="M100.01,140.07c-.25-.28-.44-1.99-.24-2.23.06-.08.21-.14.3-.12.11.02.3.14.3.21,0,.72-.05,1.43-.08,2.15-.09,0-.18,0-.28,0Z"/>
      <path class="cls-1" d="M85.25,138.84c0-.28-.03-.56.01-.83.02-.12.18-.31.26-.3.14.02.39.16.39.25,0,.62-.05,1.24-.1,1.86,0,.07-.19.19-.25.17-.11-.03-.25-.15-.26-.25-.03-.3-.01-.6-.01-.9-.01,0-.03,0-.04,0Z"/>
      <path class="cls-1" d="M92.05,138.46c.22.24.37.41.52.58-.21.15-.42.43-.63.43-.19,0-.38-.29-.57-.46.2-.16.39-.32.68-.55Z"/>
      <path class="cls-1" d="M105.26,138.38c.23.27.37.44.51.6-.21.14-.42.37-.64.38-.16.01-.34-.26-.51-.4.18-.17.37-.33.64-.59Z"/>
      <path class="cls-1" d="M81.37,138.39c.25.24.41.39.58.55-.2.15-.4.4-.61.42-.16.02-.35-.26-.53-.41.16-.16.32-.32.57-.56Z"/>
      <path class="cls-1" d="M28.31,140.73c-.48-.59-.94-1.21-1.46-1.77-.48-.51-.99-1-1.55-1.41-.64-.47-1.16-.32-1.58.36-.28.46-.51.95-.81,1.39-.86,1.24-2.28,1.13-2.91-.23-.12-.25-.21-.52-.3-.78-.34-1.01.11-1.77,1.19-1.84,1.49-.1,2.98-.11,4.48-.11,1.19,0,2.38.03,3.57.11.8.05,1.02.36.78,1.11-.34,1.08-.77,2.13-1.16,3.19-.08,0-.16-.01-.25-.02Z"/>
      <path class="cls-1" d="M37.82,140.53c-.39-.36-.75-.61-1.02-.94-.36-.42-.67-.9-.99-1.35-.82-1.17-1.83-1.17-2.62.04-.28.43-.5.9-.75,1.34-.15.26-.3.52-.5.89-.37-.88-.69-1.67-1.08-2.59-.1.81-.19,1.48-.27,2.15-.1,0-.2,0-.3,0-.45-.7-.12-1.52-.23-2.04.28-.41.41-.69.62-.88.26-.24.57-.51.9-.56.69-.11,1.39-.1,2.09-.1,1.49,0,2.99.03,4.48.08,1.05.03,1.25.37.85,1.3-.37.85-.75,1.7-1.19,2.67Z"/>
      <path class="cls-1" d="M10.85,137.69c-.21-.41-.11-.71.32-.89.23-.1.46-.26.7-.3,1.99-.4,3.99-.42,5.98-.06.92.17,1.04.55.66,1.41-.35.8-.71,1.61-1.1,2.49-.49-.78-.92-1.48-1.36-2.16-.31-.48-.69-.91-1.34-.87-.67.04-.94.55-1.16,1.07-.32.74-.61,1.5-.98,2.43-.64-1.16-1.18-2.15-1.73-3.15,0,0,.02.02.02.02Z"/>
      <path class="cls-1" d="M18.75,137.8c.41-.13.7-.11.66.42-.03.51-.05,1.02-.11,1.52-.01.12-.17.23-.27.34-.1-.11-.27-.22-.27-.34-.03-.64-.01-1.29-.01-1.95Z"/>
      <path class="cls-1" d="M25.93,139.38c-.22.1-.46.3-.67.27-.2-.03-.37-.29-.55-.45.19-.12.37-.34.56-.35.22,0,.45.17.67.27v.26Z"/>
      <path class="cls-1" d="M34.7,139.6c-.24-.26-.4-.42-.55-.59.2-.15.4-.39.62-.41.18-.02.39.22.59.34-.19.19-.38.38-.66.66Z"/>
      <path class="cls-1" d="M14.96,138.65c.26.21.44.35.62.5-.22.15-.44.39-.68.43-.14.02-.33-.26-.5-.41.17-.15.34-.3.57-.51Z"/>
      <path class="cls-1" d="M15.12,175.02c1.68,1.64,3.65,2.79,6.03,3.46-2.76.71-4.76-.45-6.03-3.46Z"/>
      <path class="cls-1" d="M13.21,178.41c.37-.94.66-1.69.96-2.45q-.05,1.78,1.71,2.34c.35.11.71.21,1.06.31-.01.07-.02.14-.03.22-1.18-.13-2.35-.27-3.7-.42Z"/>
      <path class="cls-1" d="M103.15,175.14c-.71.98-1.41,1.97-2.14,2.94-.13.17-.39.3-.6.32-1.05.1-2.11.16-3.19.12,2.18-.78,4.14-1.87,5.75-3.54.06.05.12.11.18.16Z"/>
      <path class="cls-1" d="M104.89,178.41c-1.32.14-2.49.26-3.65.38-.01-.07-.02-.13-.03-.2.56-.17,1.13-.33,1.69-.53,1.07-.38,1.16-.55.96-1.65-.02-.13-.04-.27.09-.45.29.74.57,1.49.95,2.45Z"/>
      <path class="cls-1" d="M115.67,14.71c0,.69-.53,1.22-1.01,1.19-.47-.03-.71-.33-.72-.78-.01-.46.5-.98.97-.89.32.06.58.36.77.48Z"/>
      <path class="cls-1" d="M89.89,2.87c-.1.44-.28.84-.83.86-.48.02-.85-.41-.82-.93.03-.52.35-.85.85-.84.53,0,.74.41.8.92Z"/>
      <path class="cls-1" d="M29.57,2.93c-.08.49-.33.84-.86.83-.55,0-.78-.36-.75-.88.03-.5.3-.83.83-.84.57,0,.71.41.77.88Z"/>
      <path class="cls-1" d="M27.04,174.35c1.17,1.3,2.33,2.59,3.48,3.87h-5.28c.63-1.35,1.21-2.6,1.81-3.87ZM26.05,177.72h3.27c-.74-.83-1.41-1.58-2.08-2.33-.41.81-.8,1.57-1.18,2.33Z"/>
      <path class="cls-1" d="M90.76,174.4c.59,1.28,1.15,2.52,1.77,3.85h-5.28c1.14-1.25,2.3-2.52,3.52-3.85ZM90.55,175.42c-.68.78-1.34,1.53-2.06,2.36h3.27c-.4-.79-.79-1.54-1.21-2.36Z"/>
      <path class="cls-1" d="M8.76,7.32c0,.71-.53,1.23-1.24,1.22-.7,0-1.17-.5-1.16-1.2.01-.65.55-1.19,1.2-1.21.64-.02,1.2.53,1.2,1.19Z"/>
      <path class="cls-1" d="M111.36,7.42c-.01.65-.56,1.17-1.23,1.15-.68-.02-1.19-.59-1.16-1.3.02-.6.59-1.14,1.19-1.13.66.02,1.22.61,1.21,1.28Z"/>
      <path class="cls-1" d="M2.62,14.18c.75.1,1.1.37,1.12.92.02.51-.29.78-.77.8-.47.02-1.02-.53-.9-.96.09-.31.4-.56.55-.76Z"/>
      <path class="cls-1" d="M18.73,5.14c-.43-.09-.74-.38-.75-.93,0-.54.33-.81.82-.86.41-.04.85.48.85.95,0,.47-.38.86-.93.84Z"/>
      <path class="cls-1" d="M98.18,4.61c0-.76.48-1.34.89-1.21.3.1.64.46.72.76.13.46-.42,1.04-.87.94-.31-.07-.57-.37-.74-.49Z"/>
      <path class="cls-1" d="M44.49,13.93c-.51.37-.81.73-1.17.81-.44.1-.73-.25-.75-.71-.02-.42.52-.97.92-.86.3.09.54.39,1.01.76Z"/>
      <path class="cls-1" d="M75.33,14.12c-.28.21-.52.52-.83.6-.46.12-.89-.34-.88-.84,0-.47.26-.73.73-.75.45-.02.85.38.99.98Z"/>
      <path class="cls-1" d="M33.12,60.88c.04.47.08.94.12,1.4-.1,0-.2,0-.3.01-.01-.47-.37-.93-.05-1.41.08,0,.15,0,.23,0Z"/>
      <path class="cls-1" d="M31.09,61.63c.07.53.13.95.19,1.37-.61-.51-.64-.91-.19-1.37Z"/>
      <path class="cls-1" d="M33.67,62.13c-.08-.48-.15-.96-.23-1.44.11-.02.22-.03.33-.05.06.48.12.96.18,1.44-.1.01-.19.03-.29.04Z"/>
      <path class="cls-1" d="M32.39,61.16c.08.46.15.91.23,1.37-.1.02-.19.04-.29.06-.09-.45-.18-.91-.27-1.36.11-.02.22-.05.33-.07Z"/>
      <path class="cls-1" d="M29,62.61c.13.41.25.83.38,1.24l-.3.09c-.13-.42-.26-.83-.38-1.25.1-.03.2-.06.31-.09Z"/>
      <path class="cls-1" d="M29.69,62.28l.24,1.27c-.08.02-.17.04-.25.06-.1-.42-.21-.85-.31-1.27.11-.02.22-.03.32-.05Z"/>
      <path class="cls-1" d="M31.73,61.4c.08.46.16.93.23,1.39-.11.01-.23.03-.34.04-.05-.47-.1-.94-.15-1.41.09-.01.17-.02.26-.03Z"/>
      <path d="M84.75,26.08c-.22.06-.45.2-.67.18-.69-.06-1.39-.15-2.07-.27-.14-.02-.24-.21-.37-.33.13-.07.26-.19.39-.19.92-.03,1.84.02,2.7.35,0,.09.01.17.02.26Z"/>
      <path d="M26.38,36.84c-.07-1.03-1.17-1.52-2.03-.99-.86.52-1.16,1.75-.5,2.72.47.68,1.18,1.2,1.65,1.66-1.63-.14-3.07-2.04-2.62-3.76.4-1.52,2.15-2.25,3.51-1.46.75.43,1.08,1.23.85,2.03-.22.75-1.02,1.34-1.83,1.18-.39-.08-.81-.41-1.05-.74-.12-.16.08-.81.26-.87.42-.14.91-.08,1.37-.06.11,0,.22.16.4.29Z"/>
      <path d="M92.64,113.92c-1.9-.01-3.42-1.49-3.42-3.33,0-1.88,1.57-3.32,3.6-3.3,1.85.02,3.39,1.51,3.39,3.3,0,1.9-1.54,3.34-3.56,3.33Z"/>
      <path d="M94.71,91.44c-1.02.97-2.04,1.95-3.12,2.97-1.06-1-2.1-1.99-3.13-2.97,1.43-1.86,4.91-1.85,6.25,0Z"/>
      <path d="M91.5,95.69c1.18,1.11,2.2,2.09,3.23,3.06-1.62,1.57-4.39,1.55-6.03.14.91-1.04,1.83-2.09,2.8-3.2Z"/>
      <path d="M95.4,98.04c-1.03-.98-2.02-1.92-3-2.85,1.03-1.06,2.04-2.08,3.04-3.11,1.4,1.3,1.41,4.06-.04,5.95Z"/>
      <path d="M87.82,92.09c1,1.07,1.95,2.09,2.84,3.05-.85.92-1.78,1.92-2.71,2.92-1.43-1.49-1.5-4.28-.13-5.97Z"/>
      <path d="M26.05,177.72c.39-.76.77-1.52,1.18-2.33.67.75,1.34,1.5,2.08,2.33h-3.27Z"/>
      <path d="M90.55,175.42c.42.82.81,1.57,1.21,2.36h-3.27c.72-.83,1.38-1.58,2.06-2.36Z"/>
    </g>
  </g>
</svg>