<?xml version="1.0" encoding="UTF-8"?>
<svg id="Ebene_3" xmlns="http://www.w3.org/2000/svg" viewBox="0 0 564.78 564.78">
  <rect width="564.78" height="564.78" style="fill: #fef5e7;"/>
  <circle cx="283.46" cy="283.46" r="165.49" style="fill: none; stroke: #000; stroke-miterlimit: 10;"/>
  <circle cx="283.46" cy="283.46" r="158.99" style="fill: none; stroke: #000; stroke-miterlimit: 10;"/>
  <path d="M476.85,185.53c-13.94,6.02-27.84,12.14-41.91,17.86-1.32.54-3.98-1.23-5.44-2.56-.57-.52.05-3.78.86-4.14,14.64-6.55,29.72-11.64,45.55-14.1.31.98.62,1.96.93,2.94Z"/>
  <path d="M420.42,184.64c14.75-5.65,29.37-11.25,43.99-16.84.26.6.52,1.2.77,1.8-12.32,6.82-24.62,13.65-36.95,20.44-4.37,2.41-6.19-.03-7.81-5.4Z"/>
  <path d="M240.2,74.47c3.73,12.74,7.6,25.43,11.01,38.25.47,1.79-1.36,4.19-2.13,6.31-1.35-1.54-3.56-2.91-3.9-4.65-2.56-13.06-4.76-26.2-7.07-39.31.7-.2,1.39-.4,2.09-.6Z"/>
  <path d="M226.32,74.5c4.77,14.27,9.6,28.52,14.18,42.85.42,1.31-.82,3.16-1.29,4.75-1.35-.93-3.61-1.62-3.91-2.81-3.75-14.78-7.22-29.64-10.77-44.47.6-.11,1.19-.21,1.79-.32Z"/>
  <path d="M389.6,95.17c-6.88,13.53-13.7,27.08-20.73,40.53-.47.9-2.45,1.01-3.73,1.49-.13-1.72-.97-3.84-.26-5.08,4.35-7.68,9.05-15.16,13.63-22.72,3.07-5.07,6.12-10.15,9.18-15.23.64.34,1.28.68,1.92,1.01Z"/>
  <path d="M409.49,106.81c-7.91,12.51-15.73,25.07-23.83,37.46-.88,1.34-3.3,1.68-5,2.48.26-1.9-.11-4.27.88-5.64,8.68-11.96,17.6-23.75,26.46-35.59.5.43,1,.86,1.49,1.29Z"/>
  <path d="M448.29,145.14c-12.49,9.75-24.99,19.5-37.85,29.53-2.14-2.11-5.66-3.88-1.27-6.75,12.55-8.18,25.3-16.06,37.96-24.06.38.43.77.85,1.15,1.28Z"/>
  <path d="M435.6,133.83c-10.11,10.19-20.16,20.43-30.41,30.47-.8.78-2.93.2-4.44.26.66-1.81.79-4.25,2.07-5.33,10.54-8.88,21.29-17.51,31.98-26.21.27.27.54.54.81.81Z"/>
  <path d="M492.42,243.66c-1.72.58-3.4,1.37-5.17,1.71-11.86,2.32-23.72,4.64-35.63,6.69-1.34.23-2.97-1.2-4.47-1.86,1.07-1.22,2.04-3.38,3.22-3.5,13.92-1.47,27.88-2.63,41.82-3.87.08.28.15.56.23.84Z"/>
  <path d="M478.31,198.73c-13.49,6.04-26.98,12.07-40.52,18.13-2.77-3.45-4.09-6.02.98-7.55,12.93-3.89,25.86-7.82,38.78-11.73.25.38.5.77.75,1.15Z"/>
  <path d="M332.9,77.65c-2.26,13.5-4.45,27.01-6.91,40.47-.21,1.13-2.22,1.93-3.39,2.88-.65-1.71-2.17-3.64-1.8-5.1,3.21-12.88,6.76-25.67,10.21-38.49.63.08,1.26.16,1.9.24Z"/>
  <path d="M387.97,152.47c-.28-5.54,15.47-24.59,31.07-36.24-9.73,12.52-19.45,25.05-29.18,37.57-.63-.44-1.26-.89-1.9-1.33Z"/>
  <path d="M181.65,93.25c7.43,12.34,14.95,24.63,22.16,37.09.89,1.54.11,4.05.1,6.11-1.55-1.17-3.76-2-4.53-3.55-6.48-13.02-12.69-26.17-18.99-39.27.42-.12.84-.25,1.26-.37Z"/>
  <path d="M445.14,240.86c-.45-2.84-.74-4.63-1.16-7.25,13.4-1.35,26.21-2.64,39.02-3.92.11.44.22.88.33,1.32-12.36,3.19-24.73,6.38-38.19,9.85Z"/>
  <path d="M276.04,75.11c1.75,12.06,3.63,24.1,5.1,36.2.21,1.7-1.53,3.65-2.37,5.48-1.1-1.71-3.11-3.39-3.15-5.12-.28-12.19-.15-24.38-.15-36.58.19,0,.38.02.57.03Z"/>
  <path d="M431.24,123.27c-11.15,11.68-22.29,23.36-33.51,34.97-.33.34-1.54-.16-4.49-.56,11.13-14.59,25.57-23.64,38-34.41Z"/>
  <path d="M262.75,71.86c2.16,13.08,4.45,26.14,6.32,39.26.27,1.92-1.52,4.14-2.35,6.22-.93-1.86-2.53-3.66-2.69-5.58-1.11-13.24-1.92-26.5-2.82-39.76.52-.05,1.03-.1,1.55-.15Z"/>
  <path d="M378.89,92.88c-5.94,12.54-11.81,25.11-17.94,37.55-.58,1.17-2.83,1.51-4.31,2.23-.06-1.51-.72-3.37-.09-4.49,6.83-12.08,13.87-24.05,20.85-36.05.5.25,1,.5,1.49.76Z"/>
  <path d="M214.02,77.97c5.84,14.31,11.73,28.61,17.43,42.97.37.94-.69,2.44-1.09,3.68-1.05-.55-2.17-.99-3.11-1.68-.46-.34-.66-1.1-.85-1.71-4.6-14.25-9.18-28.5-13.77-42.76.47-.17.93-.34,1.4-.51Z"/>
  <path d="M312.03,118.5c-.39-15.66,4.94-30.55,6.99-45.88,2.11,10.27-2.34,42.66-6.99,45.88Z"/>
  <path d="M116.5,258.6c.07,1.42.17,3.43.25,5-14.96-1.77-29.43-3.47-43.89-5.18-.01-.27-.03-.53-.04-.8,14.37.32,28.74.64,43.68.98Z"/>
  <path d="M368.3,84.78c-4.01,10.09-8.01,20.18-12.04,30.26-1.59,3.98-3.12,7.99-5,11.83-.53,1.08-2.17,1.61-3.31,2.4-.28-1.45-1.24-3.22-.73-4.31,6.36-13.69,12.94-27.28,19.46-40.9.54.24,1.08.48,1.62.71Z"/>
  <path d="M342.97,79.17c-2.39,12.21-4.77,24.42-7.18,36.62-.29,1.47-.46,3.07-1.19,4.31-.73,1.25-2.08,2.13-3.16,3.17-.55-1.57-1.86-3.33-1.52-4.68,1.53-6.25,3.47-12.4,5.35-18.56,2.18-7.15,4.45-14.27,6.67-21.41.34.19.69.37,1.03.56Z"/>
  <path d="M494.68,256.37c-14.1,2.63-28.18,5.3-42.31,7.77-1.06.19-2.39-1.13-3.59-1.75.95-1.18,1.75-3.19,2.86-3.38,3.79-.64,7.7-.52,11.55-.9,10.45-1.02,20.9-2.14,31.35-3.22.05.49.09.99.14,1.48Z"/>
  <path d="M413.03,177.64c12.74-6.98,25.47-13.96,38.21-20.94.28.5.55,1,.83,1.5-11.94,8.41-23.62,17.27-36.89,23.3-.71-1.28-1.43-2.57-2.14-3.85Z"/>
  <path d="M87.25,206.21c12.57,3.66,25.16,7.25,37.68,11.09,1.4.43,2.37,2.28,3.54,3.47-1.77.54-3.89,1.99-5.25,1.47-12.23-4.69-24.33-9.73-36.47-14.67.17-.45.33-.91.5-1.36Z"/>
  <path d="M374.57,142.37c-.59-6.36,14.14-31.12,24.81-42.75-7.62,14.03-13.52,29.09-24.81,42.75Z"/>
  <path d="M195.3,92.31c6.38,11.97,12.82,23.9,19.01,35.96.5.97-.67,2.79-1.06,4.22-1.26-.74-3.2-1.18-3.66-2.26-5.32-12.42-10.41-24.94-15.56-37.43.42-.16.84-.33,1.26-.49Z"/>
  <path d="M204.7,87.86c5.81,12.02,11.68,24.02,17.32,36.12.5,1.08-.48,2.86-.78,4.32-1.16-.71-2.99-1.16-3.4-2.17-5.04-12.48-9.87-25.05-14.76-37.59.54-.22,1.07-.45,1.61-.67Z"/>
  <path d="M296.17,116.18c1.22-15.18,2.33-29.04,3.46-43.15,4.32,9.54,2.93,39.07-3.46,43.15Z"/>
  <path d="M170.9,101.57c8.87,12.92,17.73,25.84,26.6,38.77-.85.57-1.7,1.15-2.55,1.72-10.9-11.59-16.8-26.47-25.44-39.55l1.39-.93Z"/>
  <path d="M288.5,115.79v-41.83c4.5,12.76,5.2,35.75,0,41.83Z"/>
  <path d="M98.49,185.61c5.6,2.31,11.22,4.6,16.81,6.95,6.11,2.58,12.22,5.14,18.23,7.92,1.07.5,1.63,2.08,2.42,3.16-1.43.46-3.27,1.74-4.22,1.25-11.37-5.8-22.61-11.85-33.88-17.84.21-.48.43-.97.64-1.45Z"/>
  <path d="M180.14,151.92c-9.16-11.88-18.33-23.76-27.49-35.64.35-.32.71-.64,1.06-.96,5.31,5.9,10.78,11.68,15.89,17.75,4.61,5.48,11.18,9.78,13.63,16.7-1.03.72-2.06,1.43-3.09,2.15Z"/>
  <path d="M355.6,83.23c-4.46,14.4-6.35,29.68-14.31,42.9-.93-.32-1.86-.63-2.79-.95,5.15-14.17,10.3-28.34,15.45-42.51.55.19,1.1.38,1.66.56Z"/>
  <path d="M489.4,217.13c-16.44,3.08-32.47,6.09-49.44,9.27,2.8-5.82,33.2-10.73,49.44-9.27Z"/>
  <path d="M111.85,164.39c11.59,6.79,23.18,13.58,35.21,20.63-.9,3.59-2.22,6.22-6.7,2.7-9.65-7.58-19.32-15.14-28.97-22.7.16-.21.31-.42.47-.63Z"/>
  <path d="M130.12,215.05c-12.35-5.5-24.7-11-37.05-16.5.13-.36.26-.72.39-1.08,12.22,3.82,24.47,7.53,36.58,11.64,1.1.37,1.31,3.33,1.94,5.09l-1.87.86Z"/>
  <path d="M106.24,176.79c10.64,5.24,21.32,10.39,31.85,15.83,1.12.58,1.37,2.84,2.02,4.31-1.69-.06-3.76.5-5.01-.27-9.97-6.11-19.78-12.47-29.64-18.76.26-.37.52-.75.78-1.12Z"/>
  <path d="M87.98,220.47c12.41,2.15,24.81,4.3,37.22,6.45.33.57.67,1.15,1,1.72-1.72,1.12-3.8,3.52-5.1,3.15-11.21-3.15-22.28-6.79-33.39-10.29.09-.34.18-.69.27-1.03Z"/>
  <path d="M159.97,171.25c-1.84-.11-4.34.52-5.41-.44-9.05-8.13-17.85-16.55-26.09-25.67,10.68,7.84,21.36,15.67,32.04,23.51-.18.87-.36,1.74-.54,2.61Z"/>
  <path d="M83.16,230.89c12.06,2.02,24.14,3.95,36.16,6.2,1.15.22,1.94,2.41,2.89,3.69-1.58.52-3.38,1.81-4.69,1.43-11.55-3.35-23.01-6.99-34.5-10.55.05-.25.1-.51.15-.76Z"/>
  <path d="M78.56,243.66c13.66,1.19,27.32,2.38,40.99,3.57.26.72.53,1.44.79,2.17-1.59.8-3.34,2.5-4.74,2.26-12.47-2.17-24.88-4.68-37.31-7.09.09-.3.18-.6.27-.9Z"/>
  <path d="M165.04,112.4c7.65,9.26,15.38,18.45,22.87,27.84,1.08,1.36,1,3.66,1.45,5.52-.88.3-1.76.61-2.64.91-7.56-11.24-15.13-22.48-22.69-33.72.34-.19.67-.37,1.01-.56Z"/>
  <path d="M251.28,78.34c5.15,11.47,8.87,35.4,5.79,40.03-3.65-13.08-4.39-26.61-5.79-40.03Z"/>
  <path d="M137.55,137.16c9.56,7.45,18.85,14.58,27.96,21.94.99.8.88,2.97,1.29,4.51-1.45-.23-3.38.07-4.26-.76-8.37-7.91-16.58-15.99-24.79-24.07-.26-.25-.12-.9-.19-1.62Z"/>
  <path d="M174.8,156.48c-11.31-7.46-18.4-18.91-27.74-28.18,9.25,9.39,18.49,18.79,27.74,28.18Z"/>
  <path d="M152.25,178.94c-10.25-8.25-20.51-16.49-30.76-24.74,11.53,6.82,23.41,13.17,32.89,22.62-.71.71-1.42,1.41-2.13,2.12Z"/>
  <path d="M303.97,116.45c1.76-14.16,3.52-28.33,5.29-42.49.52.06,1.04.12,1.56.17-1.23,14.22-2.47,28.43-3.7,42.65-1.05-.11-2.09-.22-3.14-.33Z"/>
  <path d="M89.27,380c13.94-6.02,27.84-12.14,41.91-17.86,1.32-.54,3.98,1.23,5.44,2.56.57.52-.05,3.78-.86,4.14-14.64,6.55-29.72,11.64-45.55,14.1-.31-.98-.62-1.96-.93-2.94Z"/>
  <path d="M144.59,380.2c-14.75,5.65-29.37,11.25-43.99,16.84-.26-.6-.52-1.2-.77-1.8,12.32-6.82,24.62-13.65,36.95-20.44,4.37-2.41,6.19.03,7.81,5.4Z"/>
  <path d="M326.58,492.94c-3.73-12.74-7.6-25.43-11.01-38.25-.47-1.79,1.36-4.19,2.13-6.31,1.35,1.54,3.56,2.91,3.9,4.65,2.56,13.06,4.76,26.2,7.07,39.31-.7.2-1.39.4-2.09.6Z"/>
  <path d="M340.46,492.92c-4.77-14.27-9.6-28.52-14.18-42.85-.42-1.31.82-3.16,1.29-4.75,1.35.93,3.61,1.62,3.91,2.81,3.75,14.78,7.22,29.64,10.77,44.47-.6.11-1.19.21-1.79.32Z"/>
  <path d="M177.18,472.25c6.88-13.53,13.7-27.08,20.73-40.53.47-.9,2.45-1.01,3.73-1.49.13,1.72.97,3.84.26,5.08-4.35,7.68-9.05,15.16-13.63,22.72-3.07,5.07-6.12,10.15-9.18,15.23-.64-.34-1.28-.68-1.92-1.01Z"/>
  <path d="M157.29,460.61c7.91-12.51,15.73-25.07,23.83-37.46.88-1.34,3.3-1.68,5-2.48-.26,1.9.11,4.27-.88,5.64-8.68,11.96-17.6,23.75-26.46,35.59-.5-.43-1-.86-1.49-1.29Z"/>
  <path d="M118.49,422.27c12.49-9.75,24.99-19.5,37.85-29.53,2.14,2.11,5.66,3.88,1.27,6.75-12.55,8.18-25.3,16.06-37.96,24.06-.38-.43-.77-.85-1.15-1.28Z"/>
  <path d="M131.18,433.58c10.11-10.19,20.16-20.43,30.41-30.47.8-.78,2.93-.2,4.44-.26-.66,1.81-.79,4.25-2.07,5.33-10.54,8.88-21.29,17.51-31.98,26.21-.27-.27-.54-.54-.81-.81Z"/>
  <path d="M74.76,330.96c1.72-.58,3.4-1.37,5.17-1.71,11.86-2.32,23.72-4.64,35.63-6.69,1.34-.23,2.97,1.2,4.47,1.86-1.07,1.22-2.04,3.38-3.22,3.5-13.92,1.47-27.88,2.63-41.82,3.87-.08-.28-.15-.56-.23-.84Z"/>
  <path d="M86.73,365.99c13.49-6.04,26.98-12.07,40.52-18.13,2.77,3.45,4.09,6.02-.98,7.55-12.93,3.89-25.86,7.82-38.78,11.73-.25-.38-.5-.77-.75-1.15Z"/>
  <path d="M233.88,489.77c2.26-13.5,4.45-27.01,6.91-40.47.21-1.13,2.22-1.93,3.39-2.88.65,1.71,2.17,3.64,1.8,5.1-3.21,12.88-6.76,25.67-10.21,38.49-.63-.08-1.26-.16-1.9-.24Z"/>
  <path d="M178.81,414.95c.28,5.54-15.47,24.59-31.07,36.24,9.73-12.52,19.45-25.05,29.18-37.57.63.44,1.26.89,1.9,1.33Z"/>
  <path d="M385.13,474.16c-7.43-12.34-14.95-24.63-22.16-37.09-.89-1.54-.11-4.05-.1-6.11,1.55,1.17,3.76,2,4.53,3.55,6.48,13.02,12.69,26.17,18.99,39.27-.42.12-.84.25-1.26.37Z"/>
  <path d="M290.74,492.31c-1.75-12.06-3.63-24.1-5.1-36.2-.21-1.7,1.53-3.65,2.37-5.48,1.1,1.71,3.11,3.39,3.15,5.12.28,12.19.15,24.38.15,36.58-.19,0-.38-.02-.57-.03Z"/>
  <path d="M135.54,444.15c11.15-11.68,22.29-23.36,33.51-34.97.33-.34,1.54.16,4.49.56-11.13,14.59-25.57,23.64-38,34.41Z"/>
  <path d="M304.03,495.56c-2.16-13.08-4.45-26.14-6.32-39.26-.27-1.92,1.52-4.14,2.35-6.22.93,1.86,2.53,3.66,2.69,5.58,1.11,13.24,1.92,26.5,2.82,39.76-.52.05-1.03.1-1.55.15Z"/>
  <path d="M187.89,474.54c5.94-12.54,11.81-25.11,17.94-37.55.58-1.17,2.83-1.51,4.31-2.23.06,1.51.72,3.37.09,4.49-6.83,12.08-13.87,24.05-20.85,36.05-.5-.25-1-.5-1.49-.76Z"/>
  <path d="M352.76,489.45c-5.84-14.31-11.73-28.61-17.43-42.97-.37-.94.69-2.44,1.09-3.68,1.05.55,2.17.99,3.11,1.68.46.34.66,1.1.85,1.71,4.6,14.25,9.18,28.5,13.77,42.76-.47.17-.93.34-1.4.51Z"/>
  <path d="M254.75,448.91c.39,15.66-4.94,30.55-6.99,45.88-2.11-10.27,2.34-42.66,6.99-45.88Z"/>
  <path d="M450.28,308.81c-.07-1.42-.17-3.43-.25-5,14.96,1.77,29.43,3.47,43.89,5.18.01.27.03.53.04.8-14.37-.32-28.74-.64-43.68-.98Z"/>
  <path d="M198.48,482.64c4.01-10.09,8.01-20.18,12.04-30.26,1.59-3.98,3.12-7.99,5-11.83.53-1.08,2.17-1.61,3.31-2.4.28,1.45,1.24,3.22.73,4.31-6.36,13.69-12.94,27.28-19.46,40.9-.54-.24-1.08-.48-1.62-.71Z"/>
  <path d="M223.81,488.25c2.39-12.21,4.77-24.42,7.18-36.62.29-1.47.46-3.07,1.19-4.31.73-1.25,2.08-2.13,3.16-3.17.55,1.57,1.86,3.33,1.52,4.68-1.53,6.25-3.47,12.4-5.35,18.56-2.18,7.15-4.45,14.27-6.67,21.41-.34-.19-.69-.37-1.03-.56Z"/>
  <path d="M72.24,318.81c14.1-2.63,28.18-5.3,42.31-7.77,1.06-.19,2.39,1.13,3.59,1.75-.95,1.18-1.75,3.19-2.86,3.38-3.79.64-7.7.52-11.55.9-10.45,1.02-20.9,2.14-31.35,3.22-.05-.49-.09-.99-.14-1.48Z"/>
  <path d="M151.43,389.77c-12.74,6.98-25.47,13.96-38.21,20.94-.28-.5-.55-1-.83-1.5,11.94-8.41,23.62-17.27,36.89-23.3.71,1.28,1.43,2.57,2.14,3.85Z"/>
  <path d="M479.53,361.21c-12.57-3.66-25.16-7.25-37.68-11.09-1.4-.43-2.37-2.28-3.54-3.47,1.77-.54,3.89-1.99,5.25-1.47,12.23,4.69,24.33,9.73,36.47,14.67-.17.45-.33.91-.5,1.36Z"/>
  <path d="M192.21,425.04c.59,6.36-14.14,31.12-24.81,42.75,7.62-14.03,13.52-29.09,24.81-42.75Z"/>
  <path d="M371.48,475.11c-6.38-11.97-12.82-23.9-19.01-35.96-.5-.97.67-2.79,1.06-4.22,1.26.74,3.2,1.18,3.66,2.26,5.32,12.42,10.41,24.94,15.56,37.43-.42.16-.84.33-1.26.49Z"/>
  <path d="M362.08,479.56c-5.81-12.02-11.68-24.02-17.32-36.12-.5-1.08.48-2.86.78-4.32,1.16.71,2.99,1.16,3.4,2.17,5.04,12.48,9.87,25.05,14.76,37.59-.54.22-1.07.45-1.61.67Z"/>
  <path d="M270.61,451.24c-1.22,15.18-2.33,29.04-3.46,43.15-4.32-9.54-2.93-39.07,3.46-43.15Z"/>
  <path d="M395.17,466.85c-8.95-13.05-17.91-26.1-26.86-39.15.86-.58,1.72-1.16,2.58-1.73,11,11.71,16.96,26.73,25.69,39.94l-1.4.94Z"/>
  <path d="M278.28,451.62v41.83c-4.5-12.76-5.2-35.75,0-41.83Z"/>
  <path d="M468.28,381.99c-5.66-2.34-11.33-4.64-16.97-7.02-6.16-2.6-12.34-5.19-18.41-8-1.08-.5-1.64-2.1-2.45-3.19,1.44-.46,3.3-1.75,4.26-1.27,11.48,5.85,22.83,11.97,34.22,18.02-.22.49-.43.98-.65,1.47Z"/>
  <path d="M386.64,415.5c9.16,11.88,18.33,23.76,27.49,35.64-.35.32-.71.64-1.06.96-5.31-5.9-10.78-11.68-15.89-17.75-4.61-5.48-11.18-9.78-13.63-16.7,1.03-.72,2.06-1.43,3.09-2.15Z"/>
  <path d="M211.18,484.19c4.46-14.4,6.35-29.68,14.31-42.9.93.32,1.86.63,2.79.95-5.15,14.17-10.3,28.34-15.45,42.51-.55-.19-1.1-.38-1.66-.56Z"/>
  <path d="M454.93,403.02c-11.59-6.79-23.18-13.58-35.21-20.63.9-3.59,2.22-6.22,6.7-2.7,9.65,7.58,19.32,15.14,28.97,22.7-.16.21-.31.42-.47.63Z"/>
  <path d="M436.66,352.37c12.35,5.5,24.7,11,37.05,16.5-.13.36-.26.72-.39,1.08-12.22-3.82-24.47-7.53-36.58-11.64-1.1-.37-1.31-3.33-1.94-5.09l1.87-.86Z"/>
  <path d="M460.46,390.91c-10.74-5.29-21.53-10.49-32.16-15.99-1.13-.58-1.38-2.86-2.04-4.36,1.71.06,3.79-.5,5.06.27,10.06,6.17,19.97,12.59,29.93,18.94-.26.38-.52.75-.78,1.13Z"/>
  <path d="M478.8,346.95c-12.41-2.15-24.81-4.3-37.22-6.45-.33-.57-.67-1.15-1-1.72,1.72-1.12,3.8-3.52,5.1-3.15,11.21,3.15,22.28,6.79,33.39,10.29-.09.34-.18.69-.27,1.03Z"/>
  <path d="M406.81,396.17c1.84.11,4.34-.52,5.41.44,9.05,8.13,17.85,16.55,26.09,25.67-10.68-7.84-21.36-15.67-32.04-23.51.18-.87.36-1.74.54-2.61Z"/>
  <path d="M483.62,336.52c-12.06-2.02-24.14-3.95-36.16-6.2-1.15-.22-1.94-2.41-2.89-3.69,1.58-.52,3.38-1.81,4.69-1.43,11.55,3.35,23.01,6.99,34.5,10.55-.05.25-.1.51-.15.76Z"/>
  <path d="M488.22,323.76c-13.66-1.19-27.32-2.38-40.99-3.57-.26-.72-.53-1.44-.79-2.17,1.59-.8,3.34-2.5,4.74-2.26,12.47,2.17,24.88,4.68,37.31,7.09-.09.3-.18.6-.27.9Z"/>
  <path d="M401.74,455.02c-7.65-9.26-15.38-18.45-22.87-27.84-1.08-1.36-1-3.66-1.45-5.52.88-.3,1.76-.61,2.64-.91,7.56,11.24,15.13,22.48,22.69,33.72-.34.19-.67.37-1.01.56Z"/>
  <path d="M315.5,489.07c-5.15-11.47-8.87-35.4-5.79-40.03,3.65,13.08,4.39,26.61,5.79,40.03Z"/>
  <path d="M428.84,430.92c-9.65-7.52-19.04-14.72-28.23-22.16-1-.81-.89-3-1.3-4.55,1.46.23,3.42-.07,4.3.77,8.46,7.98,16.74,16.15,25.03,24.3.26.25.12.91.2,1.64Z"/>
  <path d="M391.98,410.94c11.31,7.46,18.4,18.91,27.74,28.18-9.25-9.39-18.49-18.79-27.74-28.18Z"/>
  <path d="M414.53,388.47c10.25,8.25,20.51,16.49,30.76,24.74-11.53-6.82-23.41-13.17-32.89-22.62.71-.71,1.42-1.41,2.13-2.12Z"/>
  <path d="M262.81,450.97c-1.76,14.16-3.52,28.33-5.29,42.49-.52-.06-1.04-.12-1.56-.17,1.23-14.22,2.47-28.43,3.7-42.65,1.05.11,2.09.22,3.14.33Z"/>
  <path d="M452.43,273.67c-.33-1.38-.81-3.34-1.18-4.86,15.03-1.04,29.56-2.05,44.09-3.05.06.26.13.52.19.77-14.18,2.35-28.36,4.7-43.1,7.14Z"/>
  <path d="M491.57,294.71c-12.23.25-24.45.6-36.68.62-1.17,0-2.35-2.01-3.52-3.09,1.45-.8,2.98-2.4,4.35-2.27,11.97,1.15,23.91,2.6,35.86,3.97,0,.26,0,.52,0,.77Z"/>
  <path d="M494.4,281.32c-13.65,1.37-27.29,2.73-40.94,4.1-.39-.66-.79-1.32-1.18-1.98,1.41-1.08,2.81-3.08,4.24-3.1,12.66-.18,25.32-.02,37.97.05-.03.31-.07.62-.1.94Z"/>
  <path d="M71.46,268.8c13.09-.34,26.18-.77,39.27-.92,1.47-.02,2.96,1.45,4.43,2.22-1.52,1.05-3.1,3.08-4.55,3-13.08-.74-26.14-1.85-39.21-2.85.02-.48.04-.96.06-1.45Z"/>
  <path d="M76.34,282.15c12.47-1.73,24.94-3.47,37.41-5.2.49.44.99.89,1.48,1.33-1.3,1.59-2.54,4.51-3.9,4.55-11.63.42-23.29.32-34.93.38-.02-.35-.04-.71-.06-1.06Z"/>
  <path d="M75.09,293.55c12.1-1.75,24.19-3.6,36.33-5.12,1.16-.15,2.58,1.71,3.88,2.63-1.34.97-2.67,2.75-4.04,2.79-12.02.33-24.05.35-36.07.46-.03-.26-.06-.51-.09-.77Z"/>
  <path d="M74.6,307.11c13.37-3.03,26.75-6.06,40.12-9.09.47.61.94,1.21,1.42,1.82-1.27,1.25-2.41,3.4-3.83,3.6-12.54,1.74-25.12,3.12-37.69,4.61,0-.31-.01-.63-.02-.94Z"/>
  <path d="M125.28,340.96c-15.46,3.22-30.79,6.4-46.11,9.59-.16-.63-.32-1.27-.47-1.9,13.25-4.76,26.49-9.54,39.75-14.26,4.7-1.68,6.1,1.02,6.84,6.58Z"/>
</svg>