<?xml version="1.0" encoding="UTF-8"?>
<svg id="Ebene_4" xmlns="http://www.w3.org/2000/svg" xmlns:xlink="http://www.w3.org/1999/xlink" viewBox="0 0 1788.24 657.58">
  <defs>
    <clipPath id="clippath">
      <path d="M479.71,417.43c-17.43-26.28,9.72-73.91,30.08-97.11,7.86-8.95,42.8-48.76,82.72-40.54,15.93,3.28,42.1,16.14,50.35,37.6,3.07,7.98,4.9,20.36,16.02,29.75,4.13,3.49,6.52,4.01,11.77,8.83,5.58,5.12,10.01,11.07,15.04,20.6,10.84,20.53,16.26,30.8,13.73,38.25-4.42,13.06-30.7,15.38-97.76,15.69-107.55.5-116.67-5.11-121.96-13.08Z" style="fill: none;"/>
    </clipPath>
    <clipPath id="clippath-1">
      <path d="M1096.08,417.43c17.43-26.28-9.72-73.91-30.08-97.11-7.86-8.95-42.8-48.76-82.72-40.54-15.93,3.28-42.1,16.14-50.35,37.6-3.07,7.98-4.9,20.36-16.02,29.75-4.13,3.49-6.52,4.01-11.77,8.83-5.58,5.12-10.01,11.07-15.04,20.6-10.84,20.53-16.26,30.8-13.73,38.25,4.42,13.06,30.7,15.38,97.76,15.69,107.55.5,116.67-5.11,121.96-13.08Z" style="fill: none;"/>
    </clipPath>
    <clipPath id="clippath-2">
      <path d="M976.35,424.9c24.88-37.5-13.87-105.5-42.94-138.61-11.21-12.78-61.09-69.6-118.07-57.87-22.74,4.68-60.09,23.04-71.87,53.67-4.38,11.39-7,29.06-22.87,42.47-5.9,4.99-9.31,5.73-16.8,12.6-7.96,7.31-14.29,15.81-21.47,29.4-15.47,29.31-23.2,43.97-19.6,54.6,6.31,18.65,43.82,21.96,139.54,22.4,153.51.71,166.53-7.3,174.08-18.67Z" style="fill: none;"/>
    </clipPath>
  </defs>
  <rect x="503.15" y="374.11" width="566.93" height="283.46" style="fill: #fef5e7;"/>
  <path d="M724.05,342.54c.32-.96.83-2.37,1.64-4.05.02-.05.17-.35.26-.52,1.16-2.11,3.18-3.16,4.74-3.99,3.99-2.11,7.81-4.51,11.79-6.62,9.14-4.85,6.89-6.69,13.9-9.68,6.03-2.57,11.07-2.64,12.75-6.48.5-1.16.7-2.66,2.19-3.99,1.64-1.47,2.94-1.03,4.21-2.58,1.12-1.37.47-2.15,1.61-3.87.78-1.17,2.43-2.81,4.06-2.76,2.39.07,4.01,3.69,4.94,5.83,3.7,8.51,2.37,16.16,3.97,16.44,1.17.21,2.07-3.86,4.25-3.97,1.66-.09,3.17,2.16,4.33,4.48l3.74-.35,6.07,5.85s2.68,6.45,4,5.04c1.32-1.41,6.12-.75,6.12-.75l4.46-.11s6.5-6.12,7.31-6.62c.81-.51,8.35-2.9,8.35-2.9l1.09-3.36,3.54,3.36,4.56,4.43,7.94,6.8,1.84-1.61,8.38,4.65,10.1,6.02,41.29,20.65,5.56-6.04,30.52-20.63,3.37-5.27,3.91-.21,6.99,8.28,11.62,11.17,6.12,2.16,14.04-8.56,3.14-1.19,5.33,9,3.64-1.03,7.11,5.02,12.49,10.18h2.27l4.62-1.81,9.56,9.18,7.43,1.27,8.73,8.37-17.57,15.87h-533.76l-.23-19.12,8.17-4.43,8.79-3.38,25.23-12.47,4.31-4.77,7.31-3.73,5.1-1.92.4-5.12,2.47.09,7.97,6.38,8.09,2.16,2.76-.22,6.05-3.29,5.47-5.68,10.14-4.3-.88-8.82,3.63-.14,7.24,7.07,27.17,17.78,3.88,3.83.9,2.74,11.06.82,4.53,1.4s8.22,8.93,7.09,9.85c-1.13.92,6.8.35,6.8.35,0,0,7.37-18.65,8.5-18.11,1.13.54,5.46-6.77,5.46-6.77l4.94-1.62,5.41-1.7,13.66-1.98Z" style="fill: #fef5e7;"/>
  <g style="clip-path: url(#clippath);">
    <path d="M1071.79,353.97c-1.29,2.25.83,3.25,1.91,4.22,3.53,3.15,7.31,6.02,11,8.99.2.16.52.19,1.57.57-1.51-1.63-2.47-2.67-3.44-3.72.05-.11.11-.23.16-.34.51.29,1.22.46,1.5.89,2.66,4.26,7.12,6.19,11.08,8.83,4.21,2.81,8.17,5.99,12.74,8.81-1.86-2.62-3.72-5.24-5.58-7.86.18-.15.36-.29.54-.44.25.12.53.2.73.37,1.86,1.52,2.97,3.69,6.05,4.01,1.85.2,3.45,2.84,5.56,4.03-1.26-1.42-2.53-2.84-3.79-4.26.12-.17.23-.34.35-.5,2.23,1.55,4.46,3.1,6.69,4.65.1-.14.2-.28.3-.43-6.38-5.05-12.75-10.1-19.22-15.23-.49.32-1.29.84-1.76,1.15-1.7-2.87-2.93-5.95-5.03-8.2-2.15-2.31-1.69-3.71.24-5.48.69-.64,1.24-1.43,1.48-2.53-2.03,1.87-4.29,3.56-5.95,5.7-.57.73.34,2.62.25,4.15-1.53-3-3.05-6-4.88-9.59,4.81-3.22,9.65-6.5,14.54-9.7.43-.28,1.4-.31,1.76-.02,4.36,3.51,8.65,7.1,12.95,10.66l-.73.9c-.7-.49-1.4-.99-2.1-1.48-.13.09-.26.18-.39.26.62.89,1.23,1.78,2.43,3.51-4.92-3.4-3.64,1.84-5.78,2.76,3.12,3.08,6.14,6.08,9.17,9.08.33-.28.67-.56,1-.85-.61-1.13-1.21-2.26-1.89-3.53,3.65,2.08,6.05-.49,8.97-2.13v2.2c.2.06.39.11.59.17.38-1.04.76-2.08.84-2.3-1.36-1.56-3-2.68-2.84-3.43.32-1.55,1.4-3.11,2.6-4.2.34-.31,2.67.69,3.21,1.61,4.22,7.15,12.19,9.94,17.69,15.55,1.54,1.57,2.96,3.25,4.4,4.92,1.16,1.35,2.26,2.76,3.97,3.7-1.99-2.62-3.98-5.24-5.97-7.86.14-.25.29-.51.43-.76,3.92,2.45,7.84,4.89,11.75,7.35.98.62,1.91,1.33,2.86,2.01v20.42c-10.21,0-20.42-.02-30.64-.02-86.7.02-173.4.05-260.1.06-87.76,0-175.53-.01-263.29-.02-33.3,0-66.59,0-99.89-.01v-20.42c.86-.54,1.84-.95,2.55-1.64,3.3-3.22,7.23-5.18,11.71-6.1-1.95,2.42-3.9,4.85-5.85,7.27.31.23.62.47.92.7,1.87-2.46,3.75-4.91,5.59-7.4.07-.09-.28-.5-.43-.76.99-.73,1.98-1.45,2.98-2.18,1.65-1.04,3.3-2.08,4.95-3.12,2.89-2.2,5.9-4.27,8.62-6.67,1.39-1.23,2.17-3.12,3.37-4.6.78-.97,1.8-1.74,3.05-2.91,1.28,1.83,2.39,3.4,3.72,5.29,2.52-1.47,5.12-2.99,7.87-4.6-.13,4.01-4.39,8.79-7.43,8.67-.03.3-.07.59-.1.89,2.49.29,4.98.58,7.54.88.02-.04-.28.68-.57,1.41.24.14.48.28.72.41,2.05-3.14,4.09-6.29,6.32-9.71-1.87.09-3.52.17-5.27.26,3.38-7.16,8.28-12.42,9.98-10.51.35-.71.66-1.35.98-1.98,1.46-2.86,2.62-2.78,5.15-1.02,4.49,3.14,9.18,6.05,14.04,8.56,1.16.6,3.54-.4,4.96-1.3,1.8-1.15,3.2-2.94,5.05-4.14-2.29,3.72-4.59,7.43-6.88,11.16-.92.85-1.84,1.7-2.76,2.55l-.44-.42c1.33-1.93,2.65-3.86,3.98-5.79l-.58-.41c-1.39,1.56-2.77,3.12-4.16,4.68-.1-.08-.2-.16-.29-.24.45-1.12.89-2.24,1.34-3.36-.22-.09-.43-.18-.65-.27-1.51,2.68-3.02,5.36-4.54,8.04-.29-.15-.58-.31-.87-.46,1.5-2.91,3.01-5.82,4.6-8.9-.93-.6-1.92-1.24-2.91-1.88-.09.12-.19.24-.28.37.59.67,1.17,1.35,1.77,2.04-3.54,2.29-7.51.08-8.89-4.76.41.05.77.09,1.67.19-2.36-2.15-4.24-3.86-6.18-5.63-2.04,7.62-2.01,7.6,2.47,14.53.42.64.06,1.79.06,2.64.41.09,1.13.26,1.86.43-.17.68-.29,1.37-.51,2.03-.21.62-.62,1.18-.8,1.8-1.16,4.01-2.37,7.89-5.8,10.79-2.59,2.19-4.74,4.9-7.08,7.37.21.24.43.48.64.72,5.46-4.05,10.93-8.09,16.38-12.15,5.53-4.13,11.04-8.3,16.56-12.45-.2-.33-.39-.65-.59-.98-1.47.53-2.94,1.07-4.38,1.59.11-.75.2-1.46.3-2.16,4.17-3.87,8.33-7.75,12.5-11.62l-.47-.76c-1.07-.1-2.14-.2-3.73-.35,5.85-3.22,7.71-8.98,10.87-13.7,1.44-2.14,2.86-2.65,4.97-1.65,2.3,1.08,3.65,4.17,2.83,6.55-1.42-2.22-1.46-5.61-5.28-5.69,1.09,5.06,2.14,9.95,3.26,15.16-1.02-1.1-1.88-2.02-2.73-2.94-.25.12-.49.24-.74.35.67,2.02.95,4.31,2.1,6,2.48,3.64,1.37,6.4-1.34,9.1-1.13,1.13-2.73,2.47-.83,3.89,2.13,1.58,4.62,3.42,7.04,3.57,1.31.08,3.35-.35,4.95-.72,3.65-.85,5.19,2.33,8.16,2.88-1-.83-2-1.66-3-2.49,1.94.27,4.24,2.4,4.77-2.22,4.91,4.07,9.49,7.88,14.35,11.92-.94-1.26-1.7-2.26-2.94-3.91,2.69,1.15,4.67,1.99,6.64,2.83.25-.29.49-.57.74-.86-6.43-1.94-9.98-6.42-12.29-12,.27-.27.53-.54.8-.82,1.31,2.04,2.61,4.09,4.04,6.33,3.69-4.72-1.21-5.82-1.1-8.63.56.42.98.73,1.56,1.17-.37-1.75-.65-3.27-1.03-4.77-.15-.59-.37-1.38-.82-1.66-3.44-2.09-7-4-10.41-6.13-3.39-2.12-6.65-4.43-10.68-7.14.96,2.68,1.71,4.79,2.46,6.89-.43.16-.86.32-1.28.48-1.68-4.15-3.37-8.29-5.05-12.44,7.09,5.58,12.31,8.88,15.87,10.89,4.84,2.73,6.64,3.93,10.24,6.32,1.77,1.17,2.78,1.93,4.14,2.94,1.65,1.23,2.51,1.81,2.92,2.33,1.41,1.76,2.03,4.04,2.18,6.91-1.56-2.66-2.87-4.89-4.18-7.11-.28.16-.57.32-.85.48.65,1.15,1.3,2.3,2.14,3.78-.81-.34-1.38-.58-1.96-.82-.19.2-.38.41-.58.61,2.76,2.4,5.52,4.79,8.29,7.19-.14.18-.29.36-.43.54-2.32-1.63-4.65-3.27-6.97-4.9-.28.3-.56.61-.84.91,1.57,1.64,3.12,4.64,4.71,4.67,5.68.08,7.47,5.48,12,7.14-2.79-3.17-5.59-6.34-8.38-9.51.3-.28.6-.55.9-.83,3.45,3.81,6.9,7.62,10.35,11.43.16-.14.33-.27.49-.41-3.18-4.14-6.36-8.28-9.73-12.66,4.15-1.73,3.96,2.21,6.15,2.93.67-1.21,1.38-2.5,2.09-3.79-.14-.15-.28-.29-.41-.44-.61.37-1.22.73-2.07,1.24-.5-.72-1.05-1.51-1.6-2.31,2.85.75,5.78-3.17,8.14.34,1.46,2.17,2.77,4.43,4.24,6.78.39-.31,1.13-.92,1.9-1.54-35.43-75.3-11.55-156.68,42.21-203.25,58.03-50.25,137.21-57.73,202.26-19.48,37.43,22.01,63.2,53.93,76.78,95.17,13.51,41.05,12.06,81.8-5.06,121.79.21.25.42.5.62.75,1.61-.67,3.17-1.6,4.85-1.92,1.77-.33,3.66-.07,5.49-.07.21.35.43.7.64,1.05-4.28,5.03-8.56,10.06-12.84,15.1.1.08.19.17.29.25,4.63-4.54,9.26-9.07,14.55-14.26-.77,1.75-1.21,2.78-1.7,3.9,1.15-.39,2.17-.74,3.19-1.09.25.31.5.63.76.94-4.63,4.57-9.27,9.14-13.9,13.72,4.76-1.1,7.37-5.12,10.71-8.16.66-.6,1.65-1.06,2.53-1.15,4.72-.5,11.05-5.85,12.49-10.74-1.27,1.2-2.5,2.36-3.73,3.51q1.61-2.72,7.04-5.46c-1.5,2.52-3.05,5.12-4.59,7.71.36.24.73.47,1.09.71,1.46-1.74,2.93-3.47,4.58-5.44,4.32.76,6.82-3.89,10.52-5.68-2.01,3.22-3.84,6.14-5.67,9.07-.16-1.14-.31-2.29-.57-4.18-3.77,5.29-7.18,10.09-10.6,14.89.05.07.11.15.16.22,3.52-3.36,7.05-6.73,10.57-10.09-.4,1.22-.8,2.45-1.2,3.67l-.72,2.22c.22.12.44.24.66.37.88-.53,1.76-1.05,2.64-1.58,1.8.21,3.64.62,4.09-2.03.07-.39,1.01-.66,1.56-.95,2.13-1.09,4.27-2.17,6.41-3.25-.01.17-.03.34-.04.51,1.33-.09,2.66-.17,4.33-.28.2.33.66,1.09,1.37,2.26,2.65-1.63,5.13-3.16,8-4.93-1.33-1.88-2.32-3.48-3.51-4.92-2.83-3.41-2.89-3.89-.21-7.34.55-.7,1.09-1.41,1.7-2.2,1.77,2.06.44,6.19,4.28,6.21-.13-1.48-.26-2.93-.38-4.38-.14-.45-.28-.89-.43-1.34,1.92-.39,2.66-1.18,1.01-2.86-.82-.83-1.74-1.62-2.32-2.61-.92-1.57-3.21-3.03-1.45-4.36-.66-2.61-1.16-4.58-1.78-6.99-.65.94-1.25,1.64-1.67,2.09-1.49,1.6-2.29,1.87-3.87,3.64-.73.82-.66.87-1.25,1.48-1.1,1.12-2.2,1.81-2.97,2.22-1.89,1.36-3.39,2.45-4.3,3.12-5.21,3.81-9.32,6.96-11.77,8.04-.76.33-1.47.75-2.21,1.12-.79.4-1.31.65-1.83,1.2-.38.4-.59.76-.77,1.1-.52.98-1.05,1.95-1.79,3.33-.56-1-.83-1.49-.95-1.7-1.18,1.7-2.39,3.46-3.61,5.22.17-.85.33-1.69.61-3.09-1.11.72-1.77,1.14-2.42,1.57.88-1.42,2.3-3.39,4.48-5.29,1.65-1.43,3.08-2.24,4.01-2.78,0,0,5.75-3.29,11.76-7,6.92-4.26,7.03-4.68,10.11-7.11,2.96-2.34,3.61-3.19,4.06-3.88.7-1.09,1.11-1.95,2.23-3.09,2-2.04,4.05-1.87,5.65.52,2.17,3.24,3.97,6.74,6.33,9.83,1.5,1.97,3.71,3.39,6.02,5.43-3.53.98-4.06-2.92-6.92-3.27,1.8,2.41,3.43,4.43,4.86,6.59.91,1.37,1.53,2.94,2.28,4.42,0,0,.08-.06.08-.06-2.14-2.43-4.29-4.86-6.43-7.29-.14.08-.27.16-.41.24.3.82.59,1.64.89,2.47-.32-.06-.64-.11-.95-.17-.42,1.29-1.12,2.56-1.17,3.86-.05,1.53.47,3.07.72,4.46-1.12.15-2.25.3-3.38.45,3.53,1.56,11.18,12.33,11.5,16.97-.77-1.02-1.34-1.78-2.01-2.67-.1.86-.18,1.54-.26,2.21-.38.31-.76.62-1.14.93-1.17-1.68-2.35-3.35-3.52-5.03-.11.09-.21.17-.32.26,1.33,1.78,2.65,3.56,4.1,5.5-1.26.56-2.28,1.01-4.05,1.8,1.44.59,2.68,1.47,3.03,1.2,3.19-2.48,7.17-2.19,10.72-3.33,1.4-.45,2.64-1.37,4.15-2.18-3.2-3.08-5.97-5.75-9.38-9.03,1.51.26,2.13.36,3.16.54-3.44-3.9-7.68-6.82-9.18-12.7.88.71,1.76,1.43,2.64,2.14Z"/>
  </g>
  <path d="M534.86,421.01c20.71,0,41.42.06,62.13.02,100.26-.21,200.51-.56,300.77-.63,42.25-.03,84.49.52,126.74.78,5.86.04,11.72-.11,17.57-.16v1.49c-7.42-.12-14.83-.36-22.25-.35-36.14.06-72.29.26-108.43.28-83.27.04-166.54,0-249.8-.02-39.86-.01-79.72-.05-119.57-.1-2.38,0-4.77-.2-7.15-.3,0-.33,0-.66,0-.99Z"/>
  <path d="M568.17,442.41c149.52-1.59,299-.68,448.82-.46-7.44,2.35-428.85,2.84-448.82.46Z"/>
  <path d="M999.87,430.57h-423.29c0-.28,0-.56,0-.83,141.1-1.54,282.19-1.67,423.29-.13,0,.32,0,.64,0,.97Z"/>
  <path d="M931.13,426.15h-299.22c0-.3,0-.6,0-.9,99.71-1.53,199.41-1.86,299.12-.21.03.37.07.74.1,1.11Z"/>
  <path d="M619.06,438.82c5.35-2.28,303.05-2.28,314.87-.04-104.96.64-209.91.55-314.87.04Z"/>
  <path d="M660.51,433.67c79.12-1.33,158.23-1.95,237.35.02,0,.28,0,.57,0,.85h-237.35v-.87Z"/>
  <path d="M914.33,452.27h-221.3c10.84-2.62,208.03-2.67,221.3,0Z"/>
  <path d="M726.77,446.87c49.81-1,99.62-1.16,149.43.14,0,.27,0,.55,0,.82h-149.43v-.96Z"/>
  <path d="M843.37,455.78c-39.05.84-78.1,1.17-117.15,0,39.05-1.08,78.1-1.41,117.15,0Z"/>
  <path d="M766.2,459.44h44.41c0,.33,0,.66,0,.99-14.8,1.19-29.61.97-44.42.18,0-.39,0-.78,0-1.17Z"/>
  <path d="M801.6,463.57c-9.76,2.53-19.52,1.84-29.29,0h29.29Z"/>
  <path d="M796.88,468.63h-17.24v-.9h17.14l.1.9Z"/>
  <path d="M794.36,472.7h-11.75c0-.28,0-.56,0-.84h11.75c0,.28,0,.56,0,.84Z"/>
  <path d="M792.13,476.5h-8.04c0-.28,0-.57,0-.85h8.01l.04.85Z"/>
  <path d="M791.8,479.99h-6.93c0-.28,0-.55,0-.83h6.96c0,.28-.02.55-.03.83Z"/>
  <path d="M1029.72,406.48c-161.21.48-322.41.6-483.62-.07-.02-.35-.04-.71-.07-1.06.91-.09,1.81-.27,2.72-.27,19.97-.12,39.95-.31,59.92-.32,115.16-.04,230.31-.07,345.47-.04,23.61,0,47.21.26,70.82.44,1.6.01,3.19.29,4.79.45-.01.29-.03.58-.04.87Z"/>
  <path d="M996.92,417.49c-141,.94-281.99,1.13-422.97.12,141-2.09,281.99-1.82,422.97-.12Z"/>
  <path d="M596.93,412.96c8.98-.24,17.97-.68,26.95-.69,52.65-.04,105.31.04,157.96.05,49.85,0,99.69-.1,149.54-.02,17.41.02,34.82.42,52.23.66,1.15.02,2.29.13,3.44.38-130.04,1.98-260.07,1.66-390.1.34,0-.24,0-.48-.01-.72Z"/>
  <path d="M985.6,410.05c-134.47.63-268.97.93-403.48-.34,10.75-2.18,386.47-1.94,403.48.34Z"/>
  <g style="clip-path: url(#clippath-1);">
    <path d="M506.64,351.84c-1.5,5.88-5.75,8.8-9.18,12.7,1.03-.17,1.65-.28,3.16-.54-3.41,3.28-6.18,5.95-9.38,9.03,1.51.81,2.75,1.73,4.15,2.18,3.55,1.14,7.53.85,10.72,3.33.35.27,1.59-.6,3.03-1.2-1.78-.79-2.79-1.24-4.05-1.8,1.44-1.94,2.77-3.72,4.1-5.5-.11-.09-.21-.17-.32-.26-1.17,1.68-2.35,3.35-3.52,5.03-.38-.31-.76-.62-1.14-.93-.08-.67-.16-1.35-.26-2.21-.67.89-1.24,1.65-2.01,2.67.32-4.64,7.97-15.4,11.5-16.97-1.13-.15-2.26-.3-3.38-.45.25-1.39.77-2.93.72-4.46-.04-1.3-.75-2.58-1.17-3.86-.32.06-.64.11-.95.17.3-.82.59-1.64.89-2.47-.14-.08-.27-.16-.41-.24-2.14,2.43-4.29,4.86-6.43,7.29,0,0,.08.06.08.06.75-1.48,1.36-3.05,2.28-4.42,1.43-2.15,3.06-4.18,4.86-6.59-2.86.35-3.39,4.25-6.92,3.27,2.3-2.03,4.52-3.46,6.02-5.43,2.35-3.09,4.16-6.59,6.33-9.83,1.6-2.4,3.65-2.56,5.65-.52,1.12,1.14,1.53,2,2.23,3.09.44.69,1.1,1.54,4.06,3.88,3.08,2.43,3.19,2.85,10.11,7.11,6.01,3.7,11.76,7,11.76,7,.94.54,2.36,1.35,4.01,2.78,2.18,1.89,3.6,3.87,4.48,5.29-.65-.42-1.31-.85-2.42-1.57.27,1.4.44,2.25.61,3.09-1.22-1.76-2.43-3.52-3.61-5.22-.12.22-.4.71-.95,1.7-.74-1.37-1.27-2.35-1.79-3.33-.18-.34-.39-.7-.77-1.1-.52-.55-1.05-.81-1.83-1.2-.74-.37-1.45-.79-2.21-1.12-2.45-1.08-6.56-4.23-11.77-8.04-.91-.67-2.41-1.76-4.3-3.12-.77-.41-1.87-1.11-2.97-2.22-.6-.61-.53-.67-1.25-1.48-1.57-1.77-2.38-2.04-3.87-3.64-.42-.45-1.03-1.15-1.67-2.09-.61,2.41-1.11,4.38-1.78,6.99,1.76,1.33-.53,2.8-1.45,4.36-.58.99-1.5,1.78-2.32,2.61-1.64,1.67-.91,2.47,1.01,2.86-.14.45-.28.89-.43,1.34-.13,1.45-.25,2.9-.38,4.38,3.84-.01,2.51-4.14,4.28-6.21.61.8,1.15,1.5,1.7,2.2,2.68,3.46,2.63,3.94-.21,7.34-1.19,1.43-2.18,3.04-3.51,4.92,2.87,1.77,5.35,3.3,8,4.93.71-1.17,1.17-1.93,1.37-2.26,1.67.11,3,.19,4.33.28-.01-.17-.03-.34-.04-.51,2.14,1.08,4.28,2.15,6.41,3.25.56.28,1.49.55,1.56.95.45,2.65,2.29,2.24,4.09,2.03.88.53,1.76,1.05,2.64,1.58.22-.12.44-.24.66-.37l-.72-2.22c-.4-1.22-.8-2.45-1.2-3.67,3.52,3.36,7.05,6.73,10.57,10.09.05-.07.11-.15.16-.22-3.42-4.8-6.83-9.6-10.6-14.89-.26,1.89-.41,3.03-.57,4.18-1.83-2.93-3.66-5.85-5.67-9.07,3.7,1.79,6.2,6.44,10.52,5.68,1.66,1.97,3.12,3.7,4.58,5.44.36-.24.73-.47,1.09-.71-1.55-2.6-3.09-5.19-4.59-7.71q5.43,2.74,7.04,5.46c-1.23-1.16-2.46-2.31-3.73-3.51,1.43,4.9,7.76,10.24,12.49,10.74.88.09,1.87.55,2.53,1.15,3.35,3.04,5.95,7.06,10.71,8.16-4.64-4.57-9.27-9.15-13.9-13.72.25-.31.5-.63.76-.94,1.02.35,2.04.69,3.19,1.09-.49-1.12-.93-2.14-1.7-3.9,5.29,5.18,9.92,9.72,14.55,14.26.1-.08.19-.17.29-.25-4.28-5.03-8.56-10.06-12.84-15.1.21-.35.43-.7.64-1.05,1.84,0,3.72-.26,5.49.07,1.68.32,3.24,1.26,4.85,1.92.21-.25.42-.5.62-.75-17.12-40-18.58-80.74-5.06-121.79,13.57-41.23,39.35-73.16,76.78-95.17,65.05-38.25,144.24-30.77,202.26,19.48,53.77,46.56,77.65,127.94,42.21,203.25.77.62,1.51,1.23,1.9,1.54,1.46-2.35,2.78-4.62,4.24-6.78,2.36-3.51,5.29.41,8.14-.34-.55.79-1.1,1.59-1.6,2.31-.85-.51-1.46-.88-2.07-1.24-.14.15-.28.29-.41.44.71,1.29,1.43,2.58,2.09,3.79,2.19-.72,2-4.66,6.15-2.93-3.37,4.39-6.55,8.53-9.73,12.66.16.14.33.27.49.41,3.45-3.81,6.9-7.62,10.35-11.43.3.28.6.55.9.83-2.79,3.17-5.59,6.34-8.38,9.51,4.53-1.66,6.32-7.06,12-7.14,1.59-.02,3.14-3.03,4.71-4.67-.28-.3-.56-.61-.84-.91-2.32,1.63-4.65,3.27-6.97,4.9-.14-.18-.29-.36-.43-.54,2.76-2.4,5.52-4.79,8.29-7.19-.19-.2-.38-.41-.58-.61-.58.24-1.16.48-1.96.82.84-1.49,1.49-2.64,2.14-3.78-.28-.16-.57-.32-.85-.48-1.31,2.23-2.61,4.45-4.18,7.11.15-2.87.77-5.15,2.18-6.91.42-.52,1.27-1.1,2.92-2.33,1.36-1.01,2.37-1.76,4.14-2.94,3.61-2.39,5.41-3.59,10.24-6.32,3.56-2.01,8.78-5.31,15.87-10.89-1.68,4.15-3.37,8.29-5.05,12.44-.43-.16-.86-.32-1.28-.48.75-2.1,1.5-4.21,2.46-6.89-4.03,2.71-7.29,5.02-10.68,7.14-3.41,2.13-6.97,4.03-10.41,6.13-.45.27-.67,1.06-.82,1.66-.38,1.5-.66,3.02-1.03,4.77.58-.44,1.01-.75,1.56-1.17.11,2.81-4.79,3.91-1.1,8.63,1.43-2.24,2.74-4.29,4.04-6.33.27.27.53.54.8.82-2.3,5.58-5.86,10.06-12.29,12,.25.29.49.57.74.86,1.97-.84,3.95-1.68,6.64-2.83-1.24,1.65-2,2.66-2.94,3.91,4.86-4.04,9.44-7.84,14.35-11.92.53,4.62,2.83,2.49,4.77,2.22-1,.83-2,1.66-3,2.49,2.98-.55,4.51-3.73,8.16-2.88,1.6.37,3.64.8,4.95.72,2.42-.14,4.91-1.98,7.04-3.57,1.9-1.41.3-2.76-.83-3.89-2.71-2.7-3.83-5.46-1.34-9.1,1.15-1.69,1.43-3.98,2.1-6-.25-.12-.49-.24-.74-.35-.85.92-1.71,1.84-2.73,2.94,1.12-5.21,2.17-10.1,3.26-15.16-3.82.07-3.86,3.47-5.28,5.69-.82-2.38.53-5.46,2.83-6.55,2.11-.99,3.53-.49,4.97,1.65,3.17,4.72,5.02,10.49,10.87,13.7-1.59.15-2.66.25-3.73.35l-.47.76c4.17,3.87,8.33,7.75,12.5,11.62.1.7.2,1.41.3,2.16-1.44-.52-2.91-1.06-4.38-1.59-.2.33-.39.65-.59.98,5.52,4.15,11.03,8.31,16.56,12.45,5.45,4.07,10.92,8.1,16.38,12.15.21-.24.43-.48.64-.72-2.34-2.48-4.49-5.19-7.08-7.37-3.43-2.9-4.64-6.78-5.8-10.79-.18-.63-.58-1.18-.8-1.8-.23-.66-.35-1.35-.51-2.03.72-.17,1.44-.33,1.86-.43,0-.86-.36-2,.06-2.64,4.48-6.93,4.51-6.91,2.47-14.53-1.94,1.77-3.82,3.48-6.18,5.63.89-.1,1.25-.14,1.67-.19-1.37,4.84-5.34,7.05-8.89,4.76.6-.7,1.19-1.37,1.77-2.04-.09-.12-.19-.24-.28-.37-.99.64-1.98,1.28-2.91,1.88,1.59,3.08,3.1,5.99,4.6,8.9-.29.15-.58.31-.87.46-1.51-2.68-3.02-5.36-4.54-8.04-.22.09-.43.18-.65.27.45,1.12.89,2.24,1.34,3.36-.1.08-.2.16-.29.24-1.39-1.56-2.77-3.12-4.16-4.68l-.58.41c1.33,1.93,2.65,3.86,3.98,5.79l-.44.42c-.92-.85-1.84-1.69-2.76-2.55-2.29-3.72-4.58-7.44-6.88-11.16,1.85,1.2,3.24,3,5.05,4.14,1.42.9,3.81,1.9,4.96,1.3,4.86-2.51,9.55-5.42,14.04-8.56,2.53-1.77,3.68-1.84,5.15,1.02.32.63.63,1.27.98,1.98,1.71-1.91,6.6,3.35,9.98,10.51-1.75-.08-3.4-.16-5.27-.26,2.23,3.43,4.27,6.57,6.32,9.71.24-.14.48-.28.72-.41-.29-.73-.59-1.46-.57-1.41,2.56-.3,5.05-.59,7.54-.88-.03-.3-.07-.59-.1-.89-3.05.12-7.31-4.67-7.43-8.67,2.75,1.61,5.36,3.13,7.87,4.6,1.33-1.89,2.44-3.47,3.72-5.29,1.25,1.17,2.27,1.94,3.05,2.91,1.19,1.48,1.98,3.37,3.37,4.6,2.71,2.4,5.73,4.47,8.62,6.67,1.65,1.04,3.3,2.08,4.95,3.12.99.73,1.98,1.45,2.98,2.18-.15.26-.5.66-.43.76,1.84,2.49,3.72,4.94,5.59,7.4.31-.23.62-.47.92-.7-1.95-2.42-3.9-4.85-5.85-7.27,4.49.92,8.41,2.88,11.71,6.1.71.69,1.69,1.1,2.55,1.64,0,6.81,0,13.62,0,20.42-33.3,0-66.59.01-99.89.01-87.76,0-175.53.03-263.29.02-86.7,0-173.4-.04-260.1-.06-10.21,0-20.42.01-30.64.02,0-6.81,0-13.62,0-20.42.95-.67,1.87-1.39,2.86-2.01,3.91-2.47,7.83-4.9,11.75-7.35.14.25.29.51.43.76-1.99,2.62-3.98,5.24-5.97,7.86,1.71-.94,2.81-2.35,3.97-3.7,1.43-1.67,2.86-3.35,4.4-4.92,5.5-5.61,13.48-8.4,17.69-15.55.54-.92,2.87-1.92,3.21-1.61,1.2,1.08,2.28,2.65,2.6,4.2.15.75-1.49,1.87-2.84,3.43.08.21.46,1.25.84,2.3.2-.06.39-.11.59-.17v-2.2c2.92,1.64,5.32,4.21,8.97,2.13-.68,1.27-1.29,2.4-1.89,3.53.33.28.67.56,1,.85,3.03-3,6.05-5.99,9.17-9.08-2.14-.92-.86-6.16-5.78-2.76,1.2-1.73,1.81-2.62,2.43-3.51-.13-.09-.26-.18-.39-.26-.7.49-1.4.99-2.1,1.48l-.73-.9c4.31-3.57,8.6-7.16,12.95-10.66.36-.29,1.34-.26,1.76.02,4.89,3.2,9.73,6.48,14.54,9.7-1.83,3.59-3.35,6.59-4.88,9.59-.09-1.53.82-3.41.25-4.15-1.67-2.15-3.93-3.83-5.95-5.7.25,1.11.8,1.9,1.48,2.53,1.93,1.78,2.39,3.17.24,5.48-2.1,2.26-3.33,5.33-5.03,8.2-.48-.31-1.27-.83-1.76-1.15-6.47,5.13-12.85,10.18-19.22,15.23.1.14.2.28.3.43,2.23-1.55,4.46-3.1,6.69-4.65.12.17.23.34.35.5-1.26,1.42-2.53,2.84-3.79,4.26,2.11-1.19,3.71-3.83,5.56-4.03,3.07-.32,4.19-2.49,6.05-4.01.21-.17.49-.25.73-.37.18.15.36.29.54.44-1.86,2.62-3.72,5.24-5.58,7.86,4.57-2.82,8.53-6,12.74-8.81,3.96-2.64,8.42-4.56,11.08-8.83.27-.44.99-.6,1.5-.89.05.11.11.23.16.34-.97,1.05-1.93,2.09-3.44,3.72,1.05-.37,1.37-.4,1.57-.57,3.7-2.97,7.48-5.84,11-8.99,1.08-.97,3.2-1.97,1.91-4.22.88-.71,1.76-1.43,2.64-2.14Z"/>
  </g>
  <g style="clip-path: url(#clippath-2);">
    <path d="M134.99,331.28c-2.15,8.39-8.2,12.55-13.1,18.13,1.46-.25,2.35-.4,4.5-.77-4.87,4.68-8.82,8.49-13.39,12.89,2.15,1.16,3.93,2.47,5.92,3.11,5.07,1.63,10.74,1.21,15.3,4.75.5.39,2.27-.86,4.32-1.71-2.54-1.12-3.99-1.77-5.79-2.57,2.06-2.76,3.95-5.3,5.85-7.84-.15-.12-.3-.25-.45-.37-1.68,2.39-3.35,4.78-5.03,7.17-.54-.44-1.08-.88-1.62-1.32-.11-.96-.23-1.92-.38-3.16-.96,1.27-1.77,2.36-2.87,3.82.46-6.62,11.37-21.99,16.42-24.22-1.61-.22-3.22-.43-4.82-.65.35-1.98,1.1-4.19,1.03-6.37-.06-1.85-1.08-3.68-1.67-5.51-.45.08-.91.16-1.36.24.42-1.17.85-2.35,1.27-3.52-.19-.11-.39-.23-.58-.34-3.06,3.47-6.12,6.94-9.18,10.41,0,0,.12.08.12.08,1.07-2.11,1.95-4.35,3.25-6.3,2.04-3.07,4.37-5.96,6.94-9.4-4.09.5-4.84,6.07-9.88,4.67,3.29-2.9,6.45-4.93,8.59-7.74,3.36-4.41,5.94-9.41,9.03-14.03,2.29-3.42,5.21-3.66,8.07-.75,1.6,1.63,2.18,2.85,3.18,4.41.63.98,1.56,2.2,5.79,5.54,4.39,3.47,4.55,4.07,14.43,10.15,8.58,5.29,16.79,9.99,16.79,9.99,1.34.76,3.37,1.92,5.73,3.96,3.11,2.7,5.14,5.52,6.4,7.54-.93-.6-1.87-1.21-3.46-2.24.39,2,.63,3.21.86,4.42-1.74-2.51-3.47-5.02-5.15-7.46-.17.31-.56,1.01-1.36,2.43-1.06-1.96-1.82-3.35-2.56-4.75-.25-.48-.55-1-1.1-1.57-.75-.78-1.49-1.15-2.62-1.71-1.05-.53-2.07-1.12-3.15-1.59-3.5-1.53-9.37-6.04-16.8-11.47-1.3-.95-3.44-2.51-6.14-4.45-1.1-.59-2.67-1.58-4.24-3.18-.85-.87-.75-.95-1.79-2.12-2.25-2.53-3.4-2.92-5.52-5.19-.6-.64-1.46-1.64-2.39-2.99-.87,3.44-1.59,6.26-2.53,9.98,2.52,1.9-.76,3.99-2.06,6.23-.82,1.41-2.15,2.54-3.31,3.73-2.35,2.39-1.3,3.52,1.44,4.08-.2.64-.41,1.27-.61,1.91-.18,2.07-.36,4.14-.55,6.25,5.47-.02,3.58-5.91,6.1-8.86.88,1.14,1.65,2.14,2.43,3.15,3.83,4.93,3.75,5.62-.3,10.48-1.7,2.05-3.12,4.34-5.01,7.02,4.09,2.52,7.63,4.7,11.42,7.04,1.01-1.67,1.67-2.76,1.96-3.22,2.38.15,4.28.27,6.18.4-.02-.24-.04-.48-.06-.73,3.05,1.54,6.11,3.08,9.15,4.63.79.41,2.13.79,2.23,1.35.65,3.79,3.27,3.2,5.84,2.9,1.26.75,2.51,1.5,3.77,2.25.31-.17.63-.35.94-.52l-1.03-3.17c-.57-1.75-1.15-3.49-1.72-5.24,5.03,4.8,10.06,9.6,15.08,14.4.08-.1.16-.21.23-.31-4.88-6.85-9.75-13.7-15.13-21.25-.37,2.7-.59,4.33-.81,5.96-2.61-4.18-5.22-8.35-8.09-12.94,5.27,2.56,8.85,9.19,15.01,8.11,2.37,2.81,4.46,5.28,6.54,7.76.52-.34,1.04-.67,1.56-1.01-2.21-3.7-4.41-7.41-6.56-11.01q7.75,3.92,10.05,7.79c-1.76-1.65-3.51-3.3-5.33-5.01,2.04,6.99,11.08,14.62,17.82,15.33,1.26.13,2.67.79,3.61,1.65,4.78,4.34,8.49,10.08,15.29,11.65-6.62-6.53-13.23-13.05-19.85-19.58.36-.45.72-.9,1.08-1.35,1.45.49,2.91.99,4.55,1.55-.7-1.6-1.33-3.06-2.43-5.56,7.55,7.4,14.16,13.87,20.77,20.35.14-.12.27-.24.41-.35-6.11-7.18-12.21-14.37-18.32-21.55.31-.5.61-1,.92-1.51,2.62,0,5.31-.37,7.84.11,2.4.45,4.62,1.79,6.92,2.74.3-.36.59-.71.89-1.07-24.44-57.09-26.52-115.25-7.23-173.85,19.38-58.86,56.17-104.43,109.59-135.84,92.85-54.6,205.88-43.92,288.7,27.8,76.75,66.47,110.83,182.63,60.26,290.11,1.1.89,2.16,1.75,2.71,2.2,2.09-3.36,3.97-6.59,6.05-9.68,3.37-5,7.56.58,11.62-.49-.79,1.13-1.57,2.27-2.28,3.29-1.22-.73-2.09-1.25-2.96-1.77-.2.21-.39.42-.59.62,1.02,1.84,2.03,3.68,2.98,5.41,3.13-1.03,2.85-6.66,8.78-4.18-4.81,6.26-9.34,12.17-13.88,18.08.24.19.47.39.71.58,4.93-5.44,9.85-10.87,14.78-16.31.43.4.86.79,1.29,1.19-3.99,4.53-7.98,9.05-11.97,13.58,6.46-2.37,9.03-10.07,17.13-10.19,2.27-.03,4.48-4.32,6.72-6.66-.4-.43-.8-.87-1.2-1.3-3.32,2.33-6.64,4.66-9.96,6.99-.21-.26-.41-.51-.62-.77,3.94-3.42,7.89-6.84,11.83-10.26-.27-.29-.55-.58-.82-.87-.83.34-1.65.69-2.8,1.17,1.2-2.12,2.13-3.76,3.06-5.4-.41-.23-.81-.46-1.22-.69-1.87,3.18-3.73,6.35-5.96,10.15.21-4.09,1.09-7.36,3.11-9.86.6-.74,1.82-1.57,4.17-3.33,1.94-1.44,3.38-2.52,5.91-4.19,5.15-3.41,7.72-5.12,14.62-9.02,5.09-2.87,12.53-7.58,22.66-15.54-2.4,5.92-4.8,11.83-7.21,17.75-.61-.23-1.22-.46-1.83-.68,1.07-3,2.14-6.01,3.51-9.84-5.75,3.86-10.41,7.17-15.24,10.19-4.87,3.04-9.95,5.76-14.86,8.75-.64.39-.96,1.51-1.18,2.36-.54,2.14-.94,4.31-1.47,6.81.83-.62,1.44-1.08,2.23-1.67.16,4.02-6.84,5.58-1.57,12.32,2.04-3.2,3.91-6.12,5.77-9.04.38.39.76.78,1.15,1.17-3.29,7.97-8.36,14.36-17.54,17.14.35.41.7.82,1.05,1.22,2.82-1.2,5.63-2.4,9.48-4.04-1.77,2.36-2.85,3.8-4.19,5.59,6.94-5.76,13.48-11.2,20.48-17.01.75,6.59,4.04,3.56,6.81,3.17-1.43,1.19-2.86,2.37-4.29,3.56,4.25-.79,6.44-5.33,11.65-4.12,2.28.53,5.2,1.14,7.06,1.03,3.46-.2,7.01-2.83,10.05-5.09,2.71-2.02.43-3.94-1.19-5.55-3.87-3.85-5.46-7.8-1.92-12.99,1.65-2.41,2.04-5.68,3-8.56-.35-.17-.7-.34-1.05-.5-1.22,1.31-2.44,2.63-3.9,4.2,1.6-7.44,3.1-14.42,4.65-21.64-5.45.11-5.52,4.96-7.54,8.12-1.17-3.4.75-7.8,4.04-9.34,3.02-1.42,5.04-.7,7.09,2.36,4.52,6.74,7.17,14.97,15.52,19.56-2.27.21-3.79.36-5.32.5l-.68,1.09c5.95,5.53,11.89,11.06,17.84,16.59.14,1,.28,2.01.43,3.08-2.06-.75-4.16-1.51-6.25-2.27-.28.47-.56.93-.84,1.4,7.88,5.92,15.74,11.87,23.64,17.77,7.78,5.81,15.59,11.57,23.38,17.35.31-.34.61-.69.92-1.03-3.35-3.54-6.41-7.4-10.11-10.53-4.9-4.14-6.62-9.67-8.28-15.4-.26-.89-.83-1.69-1.14-2.57-.32-.94-.5-1.93-.73-2.89,1.03-.24,2.06-.48,2.65-.61,0-1.22-.51-2.85.08-3.77,6.39-9.89,6.44-9.86,3.53-20.74-2.77,2.52-5.46,4.97-8.82,8.04,1.27-.14,1.79-.2,2.38-.26-1.96,6.9-7.63,10.06-12.68,6.79.86-.99,1.7-1.95,2.53-2.92-.13-.17-.27-.35-.4-.52-1.41.91-2.83,1.82-4.16,2.68,2.27,4.4,4.42,8.55,6.56,12.7-.41.22-.83.44-1.24.66-2.16-3.82-4.32-7.65-6.48-11.47-.31.13-.62.25-.92.38.64,1.6,1.28,3.2,1.91,4.8-.14.11-.28.23-.42.34-1.98-2.22-3.96-4.45-5.94-6.67l-.83.58c1.89,2.76,3.78,5.51,5.67,8.27l-.62.6c-1.32-1.21-2.63-2.42-3.94-3.63-3.27-5.31-6.54-10.62-9.82-15.92,2.64,1.72,4.63,4.28,7.2,5.91,2.02,1.28,5.43,2.71,7.08,1.85,6.94-3.58,13.63-7.74,20.04-12.21,3.61-2.52,5.26-2.63,7.35,1.45.46.9.9,1.82,1.4,2.83,2.44-2.73,9.42,4.78,14.25,15-2.5-.12-4.86-.24-7.53-.36,3.18,4.89,6.1,9.38,9.02,13.86.34-.2.68-.39,1.02-.59-.42-1.04-.84-2.08-.81-2.02,3.66-.42,7.21-.84,10.76-1.25-.05-.42-.1-.84-.15-1.27-4.35.17-10.43-6.66-10.61-12.38,3.93,2.29,7.64,4.46,11.24,6.56,1.9-2.7,3.48-4.95,5.31-7.55,1.78,1.67,3.24,2.77,4.36,4.15,1.7,2.11,2.82,4.81,4.81,6.57,3.87,3.43,8.17,6.37,12.3,9.52,2.35,1.48,4.71,2.97,7.06,4.45,1.42,1.04,2.83,2.07,4.25,3.11-.22.37-.72.95-.62,1.08,2.62,3.55,5.31,7.05,7.98,10.56.44-.33.88-.66,1.32-1-2.78-3.46-5.56-6.92-8.34-10.38,6.4,1.31,12.01,4.11,16.72,8.7,1.01.99,2.42,1.57,3.64,2.34,0,9.72,0,19.43,0,29.15-47.53,0-95.05.01-142.58.02-125.27.01-250.54.04-375.81.03-123.75,0-247.51-.06-371.26-.08-14.58,0-29.15.02-43.73.03,0-9.72,0-19.43,0-29.15,1.36-.96,2.68-1.98,4.08-2.86,5.58-3.52,11.18-7,16.77-10.5.2.36.41.73.61,1.09-2.84,3.74-5.68,7.48-8.52,11.22,2.44-1.34,4.01-3.36,5.67-5.29,2.05-2.38,4.08-4.78,6.27-7.02,7.85-8.01,19.24-11.99,25.26-22.19.77-1.31,4.09-2.74,4.59-2.3,1.71,1.55,3.26,3.78,3.71,5.99.22,1.07-2.12,2.67-4.06,4.9.11.3.65,1.79,1.2,3.28.28-.08.56-.16.84-.24,0-.98,0-1.96,0-3.15,4.17,2.34,7.59,6.01,12.8,3.04-.97,1.81-1.84,3.42-2.7,5.03.48.4.95.81,1.43,1.21,4.32-4.28,8.64-8.55,13.09-12.96-3.06-1.32-1.23-8.79-8.25-3.94,1.71-2.46,2.58-3.73,3.46-5-.19-.13-.38-.25-.56-.38-1,.7-1.99,1.41-2.99,2.11l-1.04-1.29c6.15-5.09,12.27-10.22,18.49-15.22.52-.42,1.91-.37,2.52.03,6.98,4.57,13.9,9.25,20.76,13.85-2.61,5.13-4.78,9.4-6.96,13.68-.13-2.18,1.18-4.87.36-5.92-2.38-3.06-5.6-5.47-8.5-8.14.35,1.58,1.13,2.71,2.12,3.62,2.75,2.54,3.41,4.53.34,7.83-3,3.22-4.75,7.62-7.18,11.71-.68-.45-1.81-1.19-2.52-1.65-9.23,7.32-18.34,14.53-27.44,21.74.14.2.28.4.43.61,3.18-2.21,6.36-4.42,9.54-6.63.16.24.33.48.49.72-1.8,2.02-3.61,4.05-5.41,6.07,3.02-1.69,5.29-5.47,7.94-5.75,4.39-.46,5.98-3.55,8.63-5.73.29-.24.7-.35,1.05-.52.26.21.51.42.77.63-2.66,3.74-5.31,7.48-7.97,11.23,6.52-4.03,12.17-8.57,18.18-12.58,5.65-3.76,12.01-6.51,15.81-12.6.39-.63,1.41-.86,2.14-1.28.08.16.15.32.23.49-1.38,1.49-2.76,2.99-4.91,5.31,1.5-.53,1.95-.57,2.24-.81,5.27-4.23,10.67-8.33,15.71-12.83,1.54-1.38,4.56-2.81,2.72-6.02,1.26-1.02,2.51-2.03,3.77-3.05Z"/>
  </g>
</svg>