<?xml version="1.0" encoding="UTF-8"?>
<svg id="Ebene_1" xmlns="http://www.w3.org/2000/svg" viewBox="0 0 287.29 417.05">
  <path d="M181.88,86.95l.94.74.49.94.94.49-.23.94.23.94v.94l.49.97.49.94-.26.94.46.94-.2.97.46.94.72.94h.94l.94.49.94.69.49.94.26.94-.94.74-.74.94-.94.94-.94.97-1.17.94-.97.49-.72.94-.94.69-.72.94v.97l-.46.94-.74.94-.94.94-.72.97h.97l2.37-.72.94-.26.49-.94v-.94l.94-.49.69.97.74.94.23-.94-.72-.97.23-.94.74-.94.94-.49h1.89l.97.26h.94l.94-.26.94-.23.97-.46h.94l.94.23,1.43.94-.74.94-.2.94-.26.97-.49.94-.69.94-.94.94-.97.26-.94-.26-.94.74-.94.46-.97-.23-.94-.23-.94.23-.94.23h-1.92l-.94-.46-1.2-.26-.97.49v.94l1.2-.72.97.49.94.23.94.26h.97l.94-.49.94.23h.94l.97.26h.94l.94-.49.23.94.94-.72.26-.94.94-.23.94-.74h.97l.2-.94.74-.94.49-.94.69-.97.94-.46.94.46.97.26.94.72.94.23.94.23.97.74.94.46,1.2.49,1.17.49.94-.26.97.46.94.74.26.94.94-.49.94.23.94.74.72.94v.94l-.23.94.23.97-.23,1.17v.94l-.72.94.94.26.72-.94.23-.94.26-.97.94-.26.72.97,1.2-.23.46-.94.49-.97.94.49.94.49.97.69.94.49.94.26.94.94.97.23.94-.72.94.49.94.46.97.72.94-.49.94.26.72.94.94-.46.94-.49h.94l1.2.69.97.74h.94l.94.69.94.74.72.94.72.94.97.49.94.46.46.97.72.94.46.94.97.94.94.49.94.49.97.69.94.49.94.94.26.94,1.43-.23,1.17.49.94.23.94.26.49.94.49.94-.23.94v.97l.46.94.49.94v.94l.23.97v1.89l-.23.94-.26.97.26.94v.94l-.49.94-.46.97v.94l-.26.94-.23.94-.46.97-.74.92-.69.94-.97.26h-.94l.49.94-.49.94-.72.97-.72.94-.94.69-.94.74h-.97l-.72.94-.94.69-.49.97-.49.94-.46.97-.49.94-1.63,1.43-.74.97-.94.46-1.17-.26-.94-.46-.26.94v.94l-.23.94-.74.97-.69.94-.26.94.26.94.94-.46v1.89l-.94.74-.49.94.49.94v1.92l.23.94v.94l-.23.94v.97l-.49.94-.23.94-.49.94-.23.97-.72.94-.23.94-.26.94-.23.97v.94l-.72.94-.72.94-.46.97-.26.94v.94l-.23.94v.97l-.26.94-.46.94-.97.49-.94,1.63-.94.74-.23.94v.94l-.94.23-.94.94-.97.26v.94l-.72.97-.69.94v2.86l-.97.94-.94.49-.94.2-.94.74v.94l-.97.49-.94-.26h-2.86l-.94-.23-.94.23-.94.26-.97-.74-.94.26-.94.49h-.94l-.97.69-.94.74-.94.2-.94.74-.49.94h-2.37l-.94.49-.97.46h-.94l-.94.23-.94.49-.97.72-.72.94-.94.72-.97.72-.69.94-.49.97-.94.46-.94-.26-.74.97v.94l-.2.94-.26.94v.97l.26.94.2.94-.2,1.66v.94h-.97v1.92l.49.94.49,1.69-.49.94-.74.94-.94.23-1.89.26-.72.94-.72.94-.94.74-.23.94-.49.94-.49.94-.46.97-.26.94-.49.94-.2.94-.49.97-.94.94-.97.69-.72.94-.94.72-.97.72-.94.49-.46-.94.94-.26.94-.72.74-.94v-.94l.69-.94.94-.49.49-.94.26-1.17v-.94h-.97l-.94-.49v.94l.23.94-.23.97-.94.69-.26.94-.94.74-.72.94-.94.92-.72.94v3.8l-.49.97-.23.94-.46.94-.74.94-.94.49-.94.26-.97-.26-.2-.94.46-.94.97-.97.94-.69.94-.94.23-.97v-.94l-.94.23-.72.94-.72.94-.23.26-.94-.94-.74-.94-.69-.94-.74-.97-.94-.69-.94-.74-.94-.46-.97-.72-.94-.72-.49-.94-.69-.97-.94.26-.94-.46-.74-.97-.94-.94-.94-.72-.49-.97h-.94l-.97.49-.94.26-1.17.23.72-.97.72-.94.69-.94.74-.94.69-.94.97-.97.72-.94.94-.94.72-.94.46-.97.97-.94.94-.49.94-.2.94-.49.49-.94.94-.49.94-.72.97-.49h.94l.94-.69.74-.97v-.94l.2-.94v-1.92l-.46-.94v-.94l-.72-.94-.94-.26-.94.46-.94.54.46-.94v-5.01l.49-.94.23-.97-.23-.94-.94-.23h-1.2l-.97-.23-.94-.72-.23-.94-.26-.94.26-.94-.46-.97-.26-.94.26-.94-.49-.94-.94-.49-.94-.49-.97-.46h-.94l-.94.2h-1.92l-.94.49-.94-.23-1.2-.46.26-.97.2-.94v-.94l-.46-.94.46-.97v-.94l-.46-.94v-1.92l-.49-.72,1.2-1.43-1.43-1.17.23-.94.49-.94.26-.97.2-.94.49-.94.26-.94.46-.97.49-.94-.72-.94-.72-.94-.94-.74-.94-.94-.97-.49-.23-.94-.49-.94.26-.94.46-.97.49-.94-.26-.23-8.55-.46-1.43-5.01h.94l.49-.97v-.94l-.69-.94.46-.94v-.97l-.72-.94-.97-.49-.94-.2-.94-.49-.94-.49h-.97l-.94.23h-.94l-.94-.69-.97-.94h-.94l-.94-.26-.94-.49-.97-.69-.69-.97h-.94l-.94-.46-.97-.26h-1.89l-.97-.49-.72-.94-.94-.69-.94-.49-.97-.94-.94-.74-.23-.94.23-.94v-.94l-.23-.97-.46-.94-.49-.94.49-.94.46-.97v-.94l-.46-.94-.97.26h-.94l-.94.23h-.94l-.97.23-.94.72-.72.94-.97.74-.94.2-.94.49-.72.94-.94.49-.94.26-.74.94-.69.94h-.94l-.94-.46-.97-.26-.94.26-.94.2-.77.2-1.2-.23-.94.49-.94.46h-.97l-.94-.23-.49-.97.26-.94v-3.55l-.26-.94v-.97l-.92-.23-.94.72-.94.49-.94.69-.74.94-.94.26-.94.23h-.97l-.69-.94-.94-.97-1-.69-.94-.26-.94.26h-.94l.23-.94-.23-1.2-.49-.97-.94-.94-.72-.94-.26-.94-.2-.94-.97-.72-.46-.94.46-.94.23-.97.26-.94.23-.94.46-.94,1.23-.49.94-.94-.26-.94-.23-.97v-.94l.49-.94.69-.94.49-.97.46-.94.74-.94.69-.94,1-.49.94-.49.94-.26h2.12l.97-.94.94-.46,1.2-.49h.94l.92.49.97-.49h.94l.26-.49,1.17-6.64.46-5.95v-.46l.26-.94v-.97l-.72-.94-.72-.94-.72-.94-.94-.23v-3.8l.26-.94h.94l.94-.74.94.74.97-.49-.26-.94-.97-1-.94-.46-.94.26-.23-3.12h5.92l1.23.26.94-.74v-.94l1.17.26.94-.49.94-.23h.97l.46.46.49.94.49.97.94.94.72.94.97.49.2.94.97.26.94.46.94.49h.94l.97-.69.46-1,.94.74.74-1.2.49-.97.94-.69.94-.72.94-.49.49-.94.94-.94.94-.23.97-.26.94-.49-.26-.94-.94-.23h-1.92l-.94-.46v-.97l.26-.94-.49-.94v-.94l-.26-1.2-.69-.97-.94-.46-.94-.72v-.94h.94l.94.23.94-.23.97.49.94.2.94.49.94.26.97.49.94.2.94-.69.69-.94h1.92l.94-.49h.94l.97-.26.94-.46.94-.72h.94l1.23-.72,1.17-.49.72-.94-.43-1,.92-.43.94-.49h.94l.94.49v1.69l-.94.69v.94l.72.97.72.94.23.94-.23.94-.26.97-.23.94v3.8l.49.94.23.94.26.97.46.94.97.46.94.26,1.17.72.97.23h.94l.97-.46.94-.49.94-.43h2.6l.94-1,.97-.46h.94l1.2-.26.23.26h.94l.94.69,1.2-.23.97-.72v-.94l-.97-.72.23-.94.94.23.97.26.94-.26.94-.49h.94l.49.94h.94l.51.77.94.23,1.2.46.97-.46.94-.72.94.23.94-.23.97.49.94.23.94-.72,2.37-3.09.49-.94.69-.97.74-1.17.69-.94.74-.94-.26-.94.72.17" style="fill: none; stroke: #000; stroke-miterlimit: 14.17; stroke-width: .6px;"/>
  <path d="M81.74,53.69l.94-.49.94-.49h.97l.94-.69.46-.94-.2-.97-.97-.72-.94.26-.94.46-1.2.97-.74.94-.69.94-.94.23-.97.49-.94.46-.92,1-.97.46h-3.12l-.94.23-.72.94-.72.94-.94.97-.72-.97-.94-.23-.94.46-.74.94-.46.97-.49.94-.49.94-.2.94v1.92h-.97l-.94.26-.46.94-.49.94-.74.97-.94.46-.94.72-.23.94.49.94v1.94h-.94v-.97l-.74-.97-.69-.94h-.97l.23.94v.97l-.23.97-.46.94-.49.94-.94-.26-.26.94v.97l.74.94.2.94.97.23.23.94-.23,1.2.23.97.49.94-.49.94-.46.94.46.97v3.8l-.23.94v.94l.46.94h.94v.97l-.94.69-.69.94-.74.94-.2.97-.26.94-.23.94-.94.26h-.97l-.94.51-.94-.29-.23.94v.94l.49.94.23.97-.97.46h-.94l-.26,1,.74,1.63-.74-1.43,1.69,1.69.94.94.94.23.97.26.94.23.94-.23.94.69.97.97.94.46h.94l.94.49.97-.49.2-.94.97.49.94.46.94.26.94.72.97.23h1.43l.94.23.94.49.94.72.97.49.46.92.74.94.94.26.94.49.94.23.49.94.94.72.97.49-.26.94.46.94-.46.97.94.2.49.97,1.2-.72.94.23.94-.49.94-.46.97-.49.94-.23.94.23.94.94.97-.46.72-.94h.94l.97.23h.92l.94.49.26.94,1.17.23-4.49,5.69,1.89-.94.94-.46.49.46v.94l1.43,1.43,1.17-6.64.46-5.95v-.46l.26-.94v-.97l-.72-.94-.72-.94-.72-.94-.94-.23v-3.8l.26-.94h.94l.94-.74.94.74.97-.49-.26-.94-.97-1-.94-.46-.94.26-.23-3.12h5.92l1.23.26.94-.74v-.94l1.17.26.94-.49.94-.23h.97v-.97l-.49-.94-.69-.94-.74-.94.74-.97.69-.94.26-.94-.26-.94-.69-.97-.49-.94-.49-.94-.26-.94v-3.8l.49-.97.94-.94-.2-.94.2-.94-.2-.97-.97-.2-.94.46-.94.23h-1.43l-.94-.23-.97-.26-.94.26-.94.49h-.94l-.74-.94-.94-.74-.94-.94-.97-.46-.92-.26-.94-.46-.94-.23-.94-.26h-2.17l-.94-.23-.94.23-.97.49h-.94l-.46-.94-.97-.72-.26-.94.26-.94v-1l-.26-.94-.46-.94-.72-.94-.23-.97-.49-.94v-.94h-.94l-.72.94h-.94l.69-1.17.77-.94.2-.94-.2-1.2.2-.97.46-.94.49-.94.49-.94.94-.94.46-.94.97-.46.97-.51.23-.94" style="fill: none; stroke: #000; stroke-miterlimit: 14.17; stroke-width: .6px;"/>
  <path d="M104.77,97.85v-.94l-.49-.94-.69-.94-.74-.97.74-.94.69-.94.26-.94-.26-.97-.69-.94-.49-.94-.49-.94-.26-.97v-3.8l.49-.94.94-.94-.2-.94.2-.97-.2-.94-.97-.23-.94.49-.94.23h-1.43l-.94-.23-.97-.26-.94.26-.94.49h-.94l-.74-.97-.94-.72-.94-.94-.97-.46-.92-.26-.94-.46-.94-.23-.97-.26h-2.15l-.94-.23-.94.23-.97.49h-.94l-.49-.94-.94-.72-.26-.94.26-.94v-1l-.26-.94-.46-.94-.72-.94-.26-.97-.46-.94v-.94h-.94l-.72.94h-.94l.69-1.17.8-.94.17-.94-.17-1.23.17-.94.46-.94.49-.94.46-.97.97-.92.46-.94.97-.49.97-.49.23-.97.94-.46.94-.49h.94l-.17.51-.94.49-.74.94-.69.97.69.94.49.94.46.94v.94l-.94.94-.69.97-.49.94.69.94.49.94.49.97.94.46.94-.46.94-.49.49-.94v-.97l-.23-.94-.46-.94-.97-.49v-.94l-.23-.94v-.94l.23-.94.97-.23.94-.97.94-.2.94-.26.97-.26h.92l.72-.94.72-.97-.97-.46-.92-.97.92-.94.97.26.26.94.69.97.49.94.94.46.94-.23h.94l.97.46.94.49.94.72.74.97.94.94.94.23.94.23h3.8l.97-.46.94.23h1.89l.97.72.94.23.94.26.94.2h.97l.94.26h.94l.94-.26h.97l.94-.94h1.89l-.94-.69-.94-.23.94-.49h1.92l.94.23.94-.23.94-.23,1.92-.23h1.89l.97.46.94-.23-.74.94-.94.46-.94-.46-.94-.23h-.97l.49.92.74.94.94.74h.94l.94.49.97.2.94.26.94-.26.94.49.97.49.94.23.51.97.17.94v.94l-.94.72-.23.94h1l.92-.23h.94l.94-.26.94.26.49.94v.97l-.94.94-.94.46-.97.23-.94.94v1.94l.94.69.49.97-.94.72h-2.86l-.74.94v.92l-.2.97-.26.94v.94l.94.74.94.69.74.94.51.97.43.94-.72.94-1.17.49-1.23.72h-.94l-.94.72-.94.46-.97.26h-.94l-.94.49h-1.92l-.69.94-.94.69-.94-.2-.97-.49-.94-.26-.94-.49-.94-.2-.97-.49-.94.23-.94-.23h-.94v.94l.94.72.94.46.69.97.26,1.2v.94l.49.94-.26.94v.97l.94.46h1.92l.94.23.26.94-.94.49-.97.26-.94.23-.94.94-.49.94-.94.49-.94.72-.94.69-.49.97-.74,1.2-.94-.74-.46,1-.97.69h-.94l-.94-.49-.94-.46-.97-.26-.2-.94-.97-.49-.72-.94-.94-.94-.49-.97-.49-.94-.49-.51" style="fill: none; stroke: #000; stroke-miterlimit: 14.17; stroke-width: .6px;"/>
  <path d="M48.19,104.31l.74,1.43-.97.49h-.94l-1.2.26-.94.46-.94.97-.23.94-.49.94.49.94-.26.97-.69.94-.74.92-.23.94v.97l-.72.94-.94.94-.23.94.46.97-.23.94v.94l.23.94-.46.97v.94l.94.46.94.49,1.17-.49,1.2-.2.97-.26.94-.23.23.94-.49.94-.49.97-.94.46-.94.72-.69.94-.97.94-.46.94-.97.74-.94.94-.72.94-.23.97-.26.94.26.94.94.49h1.17l.94-.26.49-.94.94-.97.97-.46.94-.23.94.69h.94l.74.97.94.26.94.2.49-.94.72-.94.49-.94.49-.97.2-1.17.26-.94.49-.94.23-.94.94.69.49-.94v-.97l.69-.94.94-.46,1.2-.49,1.17-.49.97-.46,1.2-.49,1.17-.69.94-.74.94-.94.74-.94.69-.94.26-.97.49-.94.2-.94.26-.94v-.97l.94-.2-.72-1.43-.94-.72.94-.46.43-1-1.37.03-.97-.23-.94-.72-.94-.26-.94-.46-.97-.49-.2.94-.97.49-.94-.49h-.94l-.94-.46-.97-.97-.94-.69-.94.23-.94-.23-.97-.26-.94-.23-.94-.94-1.69-1.69" style="fill: none; stroke: #000; stroke-miterlimit: 14.17; stroke-width: .6px;"/>
  <path d="M93.13,128.28l-1.43-1.43v-.94l-.49-.46-.94.46-1.92.94,4.52-5.69-1.17-.23-.26-.94-.94-.49h-.92l-.97-.26h-.94l-.72.97-.97.46-.94-.94-.94-.23-.94.23-.97.49-.94.46-.94.49-.94-.23-1.23.72-.46-.97-.94-.2.46-.97-.46-.94.23-.94-.94-.49-.94-.72-.49-.97-.94-.2-.94-.49-.94-.26-.74-.94-.49-.92-.94-.49-.94-.72-.94-.49-.97-.23-.46.97-.94.46.94.72.72,1.4-.94.23v.94l-.26.97-.23.94-.46.94-.26.94-.69.97-.74.94-.94.94-.94.74-1.17.69-1.23.49-.94.46-1.17.49-1.2.49-.94.46-.72.94v.97l-.46.94-.94-.72-.23.97-.49.94-.26.94-.2,1.17-.49.94-.49.97-.72.94-.49.94-.94-.23-.94-.23-.74-.97h-.94l-.94-.69-.97.23-.94.46-.94.97-.49.94-.94.26h-1.17l-.23.26v.94l.49.94h.94l.49.94-.72,1.2-.94.49.23.94.94.49.94.23,1.43.26.97.46.94.49.94.94.74.94.46.97.49.94.23.94.97.69.94.74,1.66,1.17.26.94.2.94.26.97.49.94.49.94.69.94.49.97.69.94.49,1.2.23.94.72.94.46.97.26.94.72.94.94.72.94.94.49.94.26.97.69.97.74.94.94.94.46.94.49,1.17.69.97h.97l.46.94-.46.94-.49.94v.97l.74.94.2.94.97.74.94.46.94.49.94.94.97.49.72.94.69.94.97.49.94.23.94.23.94.49.97.46.94.46.94.49.94.46h.97l.97.74.94.49.97.2h.94l.94.49.94.49.97.46.94.74.94.94.49.94.92.72.94.46.74.94.94.74.94.49.94-.26.97-.23.94-.49.46-.94-.23-.94.72-.94-.26-.97-.69-.94-.26-.94.49-.94.94-.49.94-.49.94-.46-.2-.97-.26-.94-.97.26-.94-.72-.94-.23-.94-.49-.97-.46.97-.26.94-.23-.69-.94.2-1.2.97.46.46.74.49-.97.46-.72-.2-.94.46-2.86,1.17-1.17-.46-2.86v-1.66l1.2-4.06-4.29-6.66-1.2-.23-.94.49-.94.46h-.97l-.94-.23-.49-.97.26-.94v-3.55l-.26-.94v-.97l-.92-.23-.94.72-.94.49-.94.69-.74.94-.94.26-.94.23h-.97l-.69-.94-.94-.97-1-.69-.94-.26-.94.26h-.94l.23-.94-.23-1.2-.49-.97-.94-.94-.72-.94-.26-.94-.2-.94-.97-.72-.46-.94.46-.94.23-.97.26-.94.23-.94.46-.94,1.23-.49.94-.94-.26-.94-.23-.97v-.94l.49-.94.69-.94.49-.97.46-.94.74-.94.69-.94,1-.49.94-.49.94-.26h2.12l.97-.94.94-.46,1.2-.49h.94l.92.49.97-.49h.94l.23-.51" style="fill: none; stroke: #000; stroke-miterlimit: 14.17; stroke-width: .6px;"/>
  <path d="M141.41,66.3l.94.69h1.92l.94.74v.94l.46.94,1,.94.94.97.23.94v.94l-.23.94-.26.94v.97l.74-.97.46-.94h.97l.94.49.94.46.69.97.74.94.94.49.23.94.26.94-.26.94v.97l-.23.94-.94.69-1.43.26-.26.94-.23.97-.46.94v.94l.23.94.23.97.72.94.46.94.97.69.94.97.26.94.46.94.72.94.46.97.74.94-1.2.26h-.94l-.97.46-.94,1h-2.6l-.94.43-.94.49-.97.46h-.94l-.97-.23-1.17-.72-.94-.26-.97-.46-.46-.94-.26-.97-.23-.94-.49-.94v-3.8l.23-.94.26-.97.23-.94-.23-.94-.72-.94-.72-.97v-.94l.94-.69v-1.69l-.94-.49h-.94l-.94.49-.92.43-.54-.94-.74-.94-.94-.69-.94-.74v-.94l.26-.94.2-.97v-.92l.74-.94h2.86l.94-.72-.49-.97-.94-.69v-1.94l.94-.94.94-.23.97-.46.94-.97v-.94l.26-.43" style="fill: none; stroke: #000; stroke-miterlimit: 14.17; stroke-width: .6px;"/>
  <path d="M154.25,79.57l-.26.94v.94l-.23.97-.94.69-1.43.26-.26.94-.23.94-.46.97v.94l.2.94.26.94.72.97.46.94.97.69.94.97.26.94.46.94.72.94.46.97.74.94.26.29h.94l.94.69,1.2-.23.97-.72v-.94l-.97-.72.23-.94.94.23.97.26.94-.26.94-.49h.94l.49.94h.94l.94-.69.26-.94.49-.94.49-.97.2-.94.49-.94v-.94l-.94-.97-.49-.94v-.94l-.23-.94-.46-.97v-.94l.2-.94.97-.49.72-.94.49-.94.46-.97-.94-.23h-.94l-.94-.23-.97-.26-.94-.23-.94-.46-.94.46-.97.23h-.94l-.94.26h-.94l-.97-.49h-.94l-.94.23-.94-.23-.97.23-.23.94-.26.23" style="fill: none; stroke: #000; stroke-miterlimit: 14.17; stroke-width: .6px;"/>
  <path d="M166.89,96.27l.94.23,1.2.46.97-.46.94-.72.94.23.94-.23.97.49.94.23.94-.72,2.37-3.09.49-.94.69-.97.74-1.17.69-.94.74-.94-.26-.94-.23-.97h-.94l-.26.97-.23-.97-.72-.94-.97-.72-.94-.72-.69-.94-.97-.94-.94-.74h-.94l-.94-.46-.49-.97-1.43.49-.97.23-.49.94-.72.94-.97.49-.2.94v.94l.46.97.23.94v.94l.49.94.94.97v.94l-.49.94-.2.94-.49.97-.49.94-.26.94-.94.69.51.77" style="fill: none; stroke: #000; stroke-miterlimit: 14.17; stroke-width: .6px;"/>
  <path d="M98.42,194.69l1.43,1.69.26,1.17.2.94.49.94.94.94.94.74.97.69-.49.94-.49,1.23.26.94-.46.94.2.94.26.97.23.94.74.94.69.94.26.97v.94l.23.94.46.94.49.97.26.94.2.94-.94.69.74.97.94.26.94.46.94-.26.72-1.17.26-.94.94-.26.94-.69.23-.94.94-.26.49-.97h.94l.94.49.97.49.94.26.94-.26.94-.23h.97l.94.69v.97l.49.94.94.26v-.97l.26-.94.46-.94.49-.94h4.29l.94.69.23-.49,1.2-4.98v-3.32l2.37-4.29,3.8-.46,3.55-.94h4.49l4.32,1.89,1.17,2.6,1.2-1.43-1.43-1.17.23-.94.49-.94.26-.97.2-.94.49-.94.26-.94.46-.97.49-.94-.72-.94-.72-.94-.94-.74-.94-.94-.97-.49-.23-.94-.49-.94.26-.94.46-.97.49-.94-.26-.23-8.55-.46-1.43-5.01h.94l.49-.97v-.94l-.69-.94.46-.94v-.97l-.72-.94-.97-.49-.94-.2-.94-.49-.94-.49h-.97l-.94.23h-.94l-.94-.69-.97-.94h-.94l-.94-.26-.94-.49-.97-.69-.69-.97h-.94l-.94-.46-.97-.26h-1.89l-.97-.49-.72-.94-.94-.69-.94-.49-.97-.94-.94-.74-.23-.94.23-.94v-.94l-.23-.97-.46-.94-.49-.94.49-.94.46-.97v-.94l-.46-.94-.97.26h-.94l-.94.23h-.94l-.97.23-.94.72-.72.94-.97.74-.94.2-.94.49-.72.94-.94.49-.94.26-.74.94-.69.94h-.94l-.94-.46-.97-.26-.94.26-.94.2-.77.2,4.29,6.66-1.2,4.06v1.66l.46,2.86-1.17,1.17-.46,2.86.2.94-.46.72-.49.97-.46-.74-.97-.46-.2,1.2.69.94-.94.23-.97.26.97.46.94.49.94.23.94.72.97-.26.26.94.2.97-.94.46-.94.49-.94.49-.49.94.26.94.69.94.26.97.51.97" style="fill: none; stroke: #000; stroke-miterlimit: 14.17; stroke-width: .6px;"/>
  <path d="M150.24,204.67l-1.17-2.6-4.32-1.89h-4.49l-3.55.94-3.8.46-2.37,4.29v3.32l-1.2,4.98-.23.49.69.49.94.72.74.94.49.97.94.69.94.94.94.97.97.46.94.74h.94l.94.46.97.94h.92l.72.97.94.2.97.74.94.94.94.49.94.46.97.49h.94l.94.23.94.26.97.69.94.74v.94l-.69.94-.49.94-.94.97-.26.94-.49,1.17-.69.94-.26.94-.23.97v.94l.94-.23h.97l.94.23.94.46.94.26h.97l.94.23h1.89l.97.26.94-.74.94.26h.94l.97-.72.46-.94.72-.97.94-.69.94-.49.74-.94v-.94l-.26-.94.26-.97.46-.94v-5.01l.49-.94.23-.97-.23-.94-.94-.23h-1.2l-.97-.23-.94-.72-.23-.94-.26-.94.26-.94-.46-.97-.26-.94.26-.94-.49-.94-.94-.49-.94-.49-.97-.46h-.94l-.94.2h-1.92l-.94.49-.94-.23-1.2-.46.26-.97.2-.94v-.94l-.46-.94.46-.97v-.94l-.46-.94v-1.92l-.49-.72" style="fill: none; stroke: #000; stroke-miterlimit: 14.17; stroke-width: .6px;"/>
  <path d="M97.9,193.72l.51.97,1.43,1.69.26,1.17.2.94.49.94.94.94.94.74.97.69-.49.94-.49,1.23.26.94-.46.94.2.94.26.97.23.94.74.94.69.94.26.97v.94l.23.94.46.94.49.97.26.94.2.94-.94.69.74.97.94.26.94.46.94-.26.72-1.17.26.49v.94l-.26,4.49-4.52,2.86-.72,1.43.26.94v.97l-.74.94v.94l.26.94.49.97.23.94-.49.94v.94l.72.97.23.94-.94.72v.97l-.94.94-.72.94-.46.94-.26.97-.49.94-.46.94-.23.94-.26,1.17-.23.94-.46.97-.49.94.23.94.26.94.46.97.23.94-.49.94-.46.94v.97l.26.94-.74.94-.94.26-.23.94.69.97.97.94.94.94-.69.94.46.97.49.94.46.94-.23.94.23.49.49.94.69.94.26.97v.94l.23.94v.94l-.23.49-.94.49v.94l-.49.94-.23.94-.97.49-.2.94.2.94.49.97.49.94-.49.94-.23.94-.72.97-.72.94v.94l.23.94.26.97-.49.94v.94l.49.94.49.97.46.94.23.94.26.94-.94.97-.97.69v1.89l-.26.97-.2.94-.26.94v5.72l.26.94.46.94.49.94.49.97v.94l-.26.94-.72.74v.94l.23.94.94.72.49.94v1.89l.26.97.23.94v.94l.94.49.94-.49.94.49.49.94-.94.72-1.17.23h-.97l-.94.26.94.69.97.49.94.49.23.94-.97.94-.2.94v.97l-.26,1.2.46.17v.97l.74.94-.26.94-.49.94-.2.97v.94l-.49.94-.26.94v1.92l.74.94v.94l-.49.97-.72.94-.49.94-.23.94-.26.97v1.89l-.2.94.69.94.72.97.97.2.94-.46.94-.72.49.97v.94l-.26.94.26.94.46.97.23.94.26.94.94.49h.97l.94-.26.94-.23h4.03l.46.94-.69.97h-.94l-.94.2-.97.74-.46.94.2.94v2.86l-.2.94h-.97l-.94-.46-.94-.49-.74-.94.97-.74.94.26.94-1.43.26-.94-.26-.94-.94.23-.23.94-.46.94h-1.23l-.69.94v1.23l-.94-.49-.26-.94.49-.97v-.94l.46-.94-.94-.49-.23.97.23.94-.69.94h-.97l.23-.94v-.94h-.94l-.23-.97.94-.72-.26-.94-1.17-.49-.46-.94v-.97l-.74-.94-.46-1.17.26-.94-.97-.94-.26-.97-.94-.72-.23-.94.23-.94v-.97l-.23-.94-.23-.94-.23-.94-.49-1.17v-.97l-.94-.72.23-.94.26-.97-.97-1.17v-.94l-.26-.94.97-.49v-.94l-.49-.94-.94-.26-.49.94-.94-.23-.94-.94-.49.94.26.97-.94.2-.49-.94v-.94l.69-.94.49-.97v-1.89l.94-.23h.97l.94.49v.94l-.23.94h.94l.97.49.2-.94v-.97l-.46-.94.72-.94-.46-.94.2-.97.26-.94.72-.94.94-.49.26-.94v-.94l-.97-.74-.94-.2-.26-.97v-2.15l-.46-.94.26-.97.46-.94-.26-.94.49-.94-.23-.97-.72-.94.94.49.49-.94-.97-.49v-.94l.26-.97-.94-.69-.94.49-.26.94-.94.23h-1.17l-.49-.97-.94-.69v-1.89l.2-.97v-.94l-.2-.94v-2.17l.2-.94.49-.94v-.94l.26-.94-.26-.97-.49-.94-.46-.94-.23-.94v-2.86l-.26-.94-.46-.97.23-1.43.97-.94.46-.94.49-.94.23-.97v-.94l-.23-.94v-.94l.69-.97.26-.94.23-.94.49-1.17.46-.94v-1.92l.26-.94v-1.89l.49-.97.46-.94-.46-.94-.26-.94.26-.97.69-.94-.49-.94-.2-.94.2-.97v-.94l-.2-.94-.97-.94-.23-1.92-.23-.94-.26-.94v-1.23l.26-.94.46-.94.23-.94-.69-.97.46-.94v-.94l-.23-.94-.23-.94v-.97l.23-.94.23-.94v-.94l.23-.97v-1.89l.49-.94.26-.97v-1.17l.46-1.2.49-.94v-.94l-.74-.97-.46-1.17.26-1.2.46-.94.23-.94-.23-.94v-1.92l.23-.94v-2.12l.26-.97v-.94l-.26-.94-.69-.94v-.97l.94-.94v-.94l.23-.94.26-.97v-1.89l.2-.94-.2-1.2-.26-.97-.72-.94v-5.23l.23-1.17-.23-1.2-.26-.94-.69-.94-.26-.97-.23-1.17.23-.94-.03-.46.94-.26.97-.23.94-.49.46-.94-.23-.94.72-.94" style="fill: none; stroke: #000; stroke-miterlimit: 14.17; stroke-width: .6px;"/>
  <path d="M91.75,312.56v3.8l-.49.94v1.92l.26.94.97-.26h.94l.46-.94v-1.89l-.94-.72.23-.94.72-.94-.23-.97-.23-.94-.94.23-.74-.23" style="fill: none; stroke: #000; stroke-miterlimit: 14.17; stroke-width: .6px;"/>
  <path d="M118.15,370.1l-.94.2-.94.74-.74-.94h-.94l-.94-.26-.94-.49-.97.74-1.17.46-.94-.26-.94.74.94.23.94-.49.23.94h.94l.97.74.23-.97.97-.23h.94l.94.46.94.49,1.4-.72.03-1.4" style="fill: none; stroke: #000; stroke-miterlimit: 14.17; stroke-width: .6px;"/>
  <path d="M104.85,366.75l-.74.94.26.97h.94l.97.2.69-.94-.94-.94-1.17-.23" style="fill: none; stroke: #000; stroke-miterlimit: 14.17; stroke-width: .6px;"/>
  <path d="M115.06,360.81l-.72.94v.94h-1.2l-.94-.46-.49.94v.94l.26.94.94.49.97-.69.46.94-.94.49-.26.94.26.94.94.69.97.26h.94l.94.49h.94v-1.2l-.23-1.43-.23-1.66-.26-.94v-3.32l-.94.69-.97-.23-.46-.72" style="fill: none; stroke: #000; stroke-miterlimit: 14.17; stroke-width: .6px;"/>
  <path d="M103.42,366.3l-.74-.97-.94-.46h-.94l-.94-.49-.97-.72v.94l.74.94.94.26h1.92l.94.49" style="fill: none; stroke: #000; stroke-miterlimit: 14.17; stroke-width: .6px;"/>
  <path d="M95.33,344.9l-.94.46h-.94l.23.94.46.97-.94.69.26.94.46.97.97-.49.69.94.49.94.94.26v-1.2l-.23-.94-.26-.94-.46-1.17v-.97l-.72-1.4" style="fill: none; stroke: #000; stroke-miterlimit: 14.17; stroke-width: .6px;"/>
  <path d="M119.13,371.5l.46.97.94.69.97.26.94-.74-.26-.94-.94-.23h-2.12" style="fill: none; stroke: #000; stroke-miterlimit: 14.17; stroke-width: .55px;"/>
  <path d="M118.64,372.67l-.94-.11h-.97l-.94.37-.46.97.94.69.94-.69h.94l.97.2.46-.94-.94-.49" style="fill: none; stroke: #000; stroke-miterlimit: 14.17; stroke-width: .55px;"/>
  <path d="M165.72,231.47l.94-.46.94.26.72.94v.94l.46.94v1.92l-.2.94v.94l-.74.97-.94.69h-.94l-.97.49-.94.72-.94.49-.49.94-.94.49-.94.2-.94.49-.97.94-.46.97-.72.94-.94.94-.72.94-.97.97-.69.94-.74.94-.69.94-.72.94-.72.97-.46.94-.26.94-.23.94-.26.97-.23.94v.94l-.46.94-.26.97-.23.94v.94l-.26.94v1.92l-.23.94-.72.94-.23.97-.26.94v.94l.26.94.23.97v.94l.26.94.94.49.94.46.97.49.94.49.94.46.69.94-.2.97-.74.94v.94l.94.94.97.74.46.94v.94l-.2.97-.49.94-.49.94-.94.94-.72.97-.49.94-.49.94-.69.94h-.94l-.97.23-1.2.74-.94.2-.94.26-.94.49-.97.49h-.94l-1.2.46-.94.23-.92.26h-.97l-.94.69-.94-.69-.94.46-.97-.72-1.2-.69-.46.94.23.94.97.69.2.97-.2.94-.97.72v.97l-.23.94-.23.94.69.94.26.97-.94.94-1.2.46h-1.92l-.94.49h-.94l-.97-.94-.94-.49-.94-.26-.94-.2-.49.94-.23.94.23.94.49.97v1.89l.94.69.94.26.94.72.97-.72.94-.46.26.94.23.94.23.94-.94.49h-.94l-.49-.94h-1.89l-.94.46.2.97.97.46h.94v.97l-.94.2-.97.49-.94.72v1.92l.26.94.23.94.46.97-.46.94-.97.23v1.89l-.94.26-.94-.26h-.94l-.49.94-.94.26-.94.72-.49.94-.23.94-.26.94v.97l.26.94.23.94.94.74.94.46.97.94.94.23.94-.23.94-.46.74.94.23.94v.97l-.72.94v.94l-.94.94-.94.49-.97.69-.94.97-.94.94-.49.94-.72.94h.94l.26.97-.72.94-.49.94v.94l-.94.26-.97-.94-.46.94.46.94-.46.97-.49.94-1.43,2.37.94-.26.74.94.23.97v1.2l.94.46.94.49.74.94-.49.94h-.94l-1.2-.46-.97.46-.46-.94h-4.03l-.94.23-.94.26h-.97l-.94-.49-.26-.94-.23-.94-.46-.97-.26-.94.26-.94v-.94l-.49-.97-.94.72-.94.46-.97-.2-.72-.97-.69-.94.2-.94v-1.89l.26-.97.23-.94.49-.94.72-.94.49-.97v-.94l-.74-.94v-1.92l.26-.94.49-.94v-.94l.2-.97.49-.94.26-.94-.74-.94v-.97l-.46-.17.26-1.2v-.97l.2-.94.97-.94-.23-.94-.94-.49-.97-.49-.94-.69.94-.26h.97l1.17-.23.94-.72-.49-.94-.94-.49-.94.49-.94-.49v-.94l-.23-.94-.26-.97v-1.89l-.49-.94-.94-.72-.23-.94v-.94l.72-.74.26-.94v-.94l-.49-.97-.49-.94-.46-.94-.26-.94v-5.72l.26-.94.2-.94.26-.97v-1.89l.97-.69.94-.97-.26-.94-.23-.94-.46-.94-.49-.97-.49-.94v-.94l.49-.94-.26-.97-.23-.94v-.94l.72-.94.72-.97.23-.94.49-.94-.49-.94-.49-.97-.2-.94.2-.94.97-.49.23-.94.49-.94v-.94l.94-.49.23-.49v-.94l-.23-.94v-.94l-.26-.97-.69-.94-.49-.94-.23-.49.23-.94-.46-.94-.49-.94-.46-.97.69-.94-.94-.94-.97-.94-.69-.97.23-.94.94-.26.74-.94-.26-.94v-.97l.46-.94.49-.94-.23-.94-.46-.97-.26-.94-.23-.94.49-.94.46-.97.23-.94.26-1.17.23-.94.46-.94.49-.94.26-.97.46-.94.72-.94.94-.94v-.97l.94-.72-.23-.94-.72-.97v-.94l.49-.94-.23-.94-.49-.97-.26-.94v-.94l.74-.94v-.97l-.26-.94.72-1.43,4.52-2.86.26-4.49v-.94l-.26-.49.26-.94.94-.26.94-.69.23-.94.94-.26.49-.97h.94l.94.49.97.49.94.26.94-.26.94-.23h.97l.94.69v.97l.49.94.94.26v-.97l.26-.94.46-.94.49-.94h4.29l.94.69.69.49.94.72.74.94.49.97.94.69.94.94.94.97.97.46.94.74h.94l.94.46.97.94h.92l.72.97.94.2.97.74.94.94.94.49.94.46.97.49h.94l.94.23.94.26.97.69.94.74v.94l-.69.94-.49.94-.94.97-.26.94-.49,1.17-.69.94-.26.94-.23.97v.94l.94-.23h.97l.94.23.94.46.94.26h.97l.94.23h1.89l.97.26.94-.74.94.26h.94l.97-.72.46-.94.72-.97.94-.69.94-.49.74-.94v-.94l-.26-.94.26-.97.94-.54" style="fill: none; stroke: #000; stroke-miterlimit: 14.17; stroke-width: .6px;"/>
  <path d="M118.64,369.84l.94.72.94.49h1.92l.94.23.97.46,1.17-.23.94-.23.94-.23.94-.26-.2-.94h-.97l-.94-.23h-.94l-.74-.94-.94-.26-.94-.23-.94-.49-.49-.94-.94-.46-.72-.97-.46-.94h-.97l.23-.94v-.94l-.69-.97-.26-.46v3.32l.26.94.23,1.66.23,1.43v1.2l.49.23" style="fill: none; stroke: #000; stroke-miterlimit: 14.17; stroke-width: .6px;"/>
  <path d="M151.44,253.84l-.46.94-.26.94-.23.94-.26.97-.23.94v.94l-.46.94-.26.97-.23.94v.94l-.26.94v1.92l-.23.94-.72.94.26,1.23v.94l.23.94.23.94.97.72.94.72h.94l.94-.26.97.26.69.94.49.97.94.46h1.89l.97-.46.94.2.94.26.94.23.97.26h.94l.94-.49.74-.94.94-.26.94-.69.23-.94.72-.97.97-.72v-.94l-.49-.97-.49-.94.49-.94.49-.94h.94v-.97l-.94-.94-.74-.94-.69-.94-.74-.97-.94-.69-.94-.74-.94-.46-.97-.72-.94-.72-.49-.94-.69-.97-.94.26-.94-.46-.74-.97-.94-.94-.94-.72-.49-.97h-.94l-.97.49-.94.26-1.17.23" style="fill: none; stroke: #000; stroke-miterlimit: 14.17; stroke-width: .6px;"/>
</svg>