<?xml version="1.0" encoding="UTF-8"?>
<svg id="Ebene_2" xmlns="http://www.w3.org/2000/svg" viewBox="0 0 343.98 573.4">
  <g id="Ebene_2-2" data-name="Ebene_2">
    <path d="M273.17,349.78c-1.58,8.07-3.06,14.73-4.1,21.45-.31,1.99.33,4.28,1.05,6.24,17.67,48.11,35.4,96.19,53.11,144.27.73,1.98,1.31,4.02,2.17,6.65-15.67,1.73-28.04,9.06-39,20.2-5.32-10.86-10.38-21.21-15.55-31.77-18.87,11.12-37.18,21.92-55.83,32.91.67.98,1.35,2.03,2.09,3.04,1.72,2.31,1.21,4.07-.8,6.07-3.63,3.62-7.23,7.33-10.31,11.4-2.53,3.33-4.95,3.99-8.42,1.8-3.23-2.04-6.56-3.91-10.24-6.08-10.04,6.83-20.53,6.71-30.82.12-3.91,2.25-7.63,4.42-11.38,6.53-2.55,1.43-4.54.9-6.49-1.44-3.6-4.33-7.29-8.63-11.34-12.54-4-3.87.29-6.17,1.18-8.92-18.35-10.69-36.58-21.31-55.56-32.37-4.93,10.26-9.79,20.39-15.06,31.36-11.02-10.71-23.27-18.93-39.69-19.91,2.2-6.31,4.16-12.22,6.31-18.07,16.03-43.55,32.05-87.11,48.21-130.61,1.68-4.52,2.38-8.81,1.25-13.55-1.18-4.97-1.84-10.07-3.66-15.28-2.08,4.76-4.3,9.46-6.21,14.29-13.7,34.66-27.36,69.34-40.96,104.04-.77,1.96-.66,4.26-1.36,6.27-1.9,5.41-3.36,11.16-6.32,15.95-1.41,2.29-6.21,4.22-8.79,3.57-2.62-.66-5.87-4.47-6.26-7.27-1.28-9.06.48-17.55,8.7-23.4.95-.67,1.66-1.97,2.04-3.12,14.15-43.51,28.14-87.07,42.45-130.52,2-6.06,1.87-10.1-3.6-14.52-5.21-4.21-9.3-9.96-13.37-15.41-15.1-20.2-3.67-38.93,12.59-48.1,2.96-1.67,4.2-3.21,3.82-6.42-.2-1.64-.29-3.38.01-4.99,2.44-13.06-2.4-23.05-12.25-31.49-5.02-4.31-8.99-9.83-13.68-14.55-2.1-2.11-2.11-3.93-1.38-6.65,3.33-12.45,7.31-24.46,16.02-34.47,1.91-2.2,2.34-5.75,3.26-8.74,4.66-15.06,9.17-30.17,13.94-45.2.89-2.81,2.6-5.4,4.2-7.92,4.11-6.47,7.71-7.95,15.19-6.54,7.01,1.32,8.45.1,8.56-6.8.02-1.11,1.05-2.37,1.92-3.26,8.7-8.97,17.49-17.85,26.16-26.85,1.05-1.09,2.15-2.74,2.14-4.12-.05-4.77,2.48-7.02,6.59-8.64,4.63-1.84,8.95-4.45,13.58-6.3,2.99-1.2,4.25-3.02,3.72-6.05-1.38-8,2.14-12.64,9.55-15.37,4.18-1.54,7.96-4.15,11.91-6.29,2.86-1.55,5.62-4.03,8.96-.92.11.1.35.19.46.14,8.85-4.54,13.56,4.45,20.46,6.27.31.08.58.33.89.44,8.16,2.71,12,7.98,10.72,16.88-.2,1.42,1.69,3.84,3.23,4.7,5.23,2.91,10.83,5.14,16.07,8.03,1.56.86,3.3,3.01,3.37,4.63.15,3.71,1.81,6.07,4.31,8.53,8.32,8.18,16.46,16.53,24.53,24.95,1.04,1.09,1.82,3.03,1.71,4.5-.27,3.57,2.44,6.68,6.13,6.29,1.15-.12,2.26-.54,3.4-.76,6.48-1.27,11.31.81,14.66,6.7,8.07,14.2,13.05,29.55,16.26,45.4,1.96,9.71,6.25,17.85,11.22,26.26,4.8,8.11,7.05,17.76,10.07,26.85.39,1.16-1.05,3.29-2.15,4.53-7.74,8.72-15.62,17.32-23.42,25.99-.87.97-2.12,2.15-2.14,3.25-.14,8.32-.09,16.65.11,24.98.02.76,1.41,1.57,2.26,2.22,4.22,3.2,8.91,5.91,12.64,9.6,9.96,9.85,11.77,22.43,4.21,34.13-5.02,7.77-10.96,15.2-17.68,21.52-4.47,4.2-5.08,7.43-3.26,12.81,8.46,25.06,16.61,50.23,24.82,75.38,5.93,18.19,11.71,36.43,17.75,54.57.72,2.15,2.38,4.26,4.15,5.73,5.21,4.34,9.55,16.53,6.99,22.79-1.13,2.76-3.92,6.26-6.39,6.66-2.75.44-7.23-1.48-8.78-3.82-2.84-4.28-4.26-9.55-5.91-14.53-1.08-3.27-1.07-6.94-2.32-10.13-14.57-37.17-29.28-74.28-43.97-111.41-.6-1.52-1.37-2.97-2.67-5.78ZM70.97,241.25c-.37,1.06-.57,1.37-.57,1.68.49,23.15.92,46.31,1.65,69.46.06,1.91,1.83,4.18,3.42,5.58,12.89,11.33,25.88,22.55,38.97,33.65,2.97,2.52,3.57,4.73,2.13,8.55-6.49,17.28-12.63,34.7-18.66,52.15-.57,1.64-.08,4.25.93,5.71,4.23,6.18,8.7,12.22,13.35,18.09,9.09,11.49,17.97,23.2,27.77,34.06,3.4,3.76,9.07,6.85,14.06,7.51,10.01,1.32,20.28.55,30.43,1.02,10.22.48,17.44-4.33,23.29-12.07,12.47-16.47,25.03-32.87,37.36-49.43,1.03-1.38,1.36-4.07.79-5.72-5.91-16.96-11.89-33.91-18.31-50.68-1.67-4.35-1.17-6.89,2.36-9.8,13.01-10.67,25.9-21.5,38.6-32.54,1.86-1.61,3.42-4.62,3.51-7.05.82-22.14,1.23-44.3,1.91-66.45.1-3.34-.87-4.63-4.3-5.07-19.16-2.46-38.29-5.13-57.42-7.82-4-.56-7.32.13-10.61,2.8-8.54,6.93-17.46,13.37-26,20.29-2.65,2.15-4.31,1.88-6.8-.09-8.88-7.03-17.84-13.98-27-20.63-2.08-1.51-5.24-2.71-7.68-2.38-21.1,2.84-42.14,6.07-63.19,9.17ZM287.98,539.94q5.21-4.02,3.05-9.58c-2.15-5.59-4.21-11.21-6.37-16.79-9.07-23.42-18.21-46.81-27.15-70.27-.54-1.41.45-3.41.73-5.13,1.09,1.15,2.66,2.12,3.2,3.49,8.45,21.34,16.78,42.74,25.12,64.12,3.5,8.97,6.99,17.95,10.52,27.03,3.89-1.89,7.41-3.61,11.01-5.37-.55-1.48-.9-2.58-1.35-3.64-13.55-31.83-27.15-63.64-40.6-95.51-.62-1.47.02-3.47.07-5.22,1.29,1.11,3.17,1.96,3.79,3.36,6.45,14.61,12.71,29.31,19,43.99,7.86,18.32,15.71,36.65,23.71,55.31,2.52-.5,4.85-.97,7.74-1.55-17.74-47.84-35.26-95.08-53.27-143.67-5.65,18.44-13.99,33.8-25.15,47.67-.81,1-.49,3.49.12,4.95,3.32,7.98,6.94,15.84,10.36,23.79.78,1.81,2.16,4.27,1.53,5.61-2.41,5.06.91,8.48,2.68,12.39,1.72,3.79,3.38,7.61,5.19,11.35,8.61,17.78,17.26,35.55,26.07,53.66ZM55.91,539.6c.27-.19.66-.31.78-.56,11.21-23.22,22.41-46.45,33.54-69.72.5-1.04.3-2.43.37-3.66.15-2.84-.43-5.94.53-8.46,3.01-7.92,6.51-15.67,10-23.4,1.25-2.76.82-4.72-.91-7.25-5.24-7.68-10.5-15.41-14.9-23.58-3.6-6.68-5.97-14.03-9.1-21.57-17.66,47.76-35.22,95.21-52.93,143.11,3.23.46,5.45.78,7.67,1.1.46-.91.79-1.49,1.05-2.09,13.73-31.76,27.45-63.53,41.18-95.29.66-1.53,1.2-3.15,2.14-4.49.4-.57,1.86-.9,2.54-.62.65.27,1.35,1.54,1.24,2.25-.22,1.44-.92,2.83-1.51,4.2-9.76,22.61-19.55,45.2-29.29,67.81-4.26,9.88-8.42,19.8-12.68,29.82,3.86,1.97,7.25,3.7,11.18,5.7,12.52-31.67,25-63.25,37.45-94.76,4.9.93,3.18,3.58,2.33,5.77-11.24,28.83-22.39,57.69-33.92,86.4-1.91,4.75-1.28,7.37,3.24,9.29ZM119.41,120.87c.36-.14.72-.28,1.08-.43-1.11-10.91-2.37-21.82-3.21-32.75-.15-2.01,1.41-4.16,2.18-6.25,1.11,1.79,2.9,3.48,3.19,5.39,1.03,6.74,1.54,13.56,2.25,20.35,1.02,9.7,2.04,19.4,3.12,29.62,6.9-2.42,13.1-4.6,19.77-6.94-10-25.79-19.71-50.84-29.77-76.78-8.86,9.34-17.11,17.95-25.18,26.72-.65.71-.58,2.93.04,3.82,8.75,12.48,17.66,24.86,26.53,37.26ZM226.41,53.24c-9.95,26.08-19.51,51.15-29.25,76.69,6.92,2.33,13.07,4.4,19.54,6.59.53-4.22,1.03-7.67,1.39-11.13,1.35-13.07,2.55-26.15,4.11-39.19.19-1.58,2.21-2.94,3.38-4.4.7,1.63,2.01,3.28,1.97,4.9-.11,4.31-.88,8.59-1.26,12.9-.58,6.62-1.05,13.24-1.57,19.87.39.09.78.18,1.17.27,9.17-12.57,18.34-25.15,27.74-38.03-9.09-9.5-17.78-18.59-27.21-28.45ZM148.81,85.43c7.55-7.02,14.03-12.93,20.3-19.03.86-.84,1.03-2.7,1.02-4.09-.06-16.66-.2-33.31-.36-49.97-.02-1.92-.31-3.84-.54-6.55-7.25,3.13-13.69,6.15-20.32,8.68-3.37,1.28-4.53,3.14-4.29,6.65,1.44,20.92,2.74,41.85,4.18,64.32ZM176.05,5.5c-.46,20.27-.91,39.38-1.27,58.5-.02,1.04.43,2.41,1.15,3.1,6.1,5.8,12.32,11.47,19.25,17.87.85-9.93,1.7-18.84,2.36-27.76.91-12.27,1.74-24.55,2.4-36.83.08-1.55-.63-4.05-1.74-4.61-6.92-3.5-14.05-6.57-22.15-10.26ZM147.39,135.43c-5.38,1.72-9.99,3.04-14.49,4.67-20.32,7.37-37.45,19.26-50.83,36.34-2.86,3.65-5.16,7.63-4.22,13.16,17.68-1.41,35.08-2.81,53.04-4.24-3.91-7.39-7.33-13.84-10.74-20.3-4.2-7.95-4.03-8.63,4.13-12.03,8.07-3.37,16.23-6.53,24.47-9.83-.46-2.57-.85-4.82-1.37-7.76ZM196.2,143.16c8.68,3.43,16.93,6.49,25.01,9.95,7.68,3.29,7.84,4.18,3.96,11.42-3.58,6.69-7.14,13.4-11.11,20.84,18,1.36,35.23,2.66,52.68,3.98-2.79-20.92-43.06-51.51-69.62-53.7-.3,2.43-.6,4.87-.93,7.51ZM193.84,148.61c-6.34,8.99-12.5,17.47-18.28,26.19-.89,1.35-.83,4.42.13,5.72,5.86,8.04,12.11,15.8,18.9,24.51,9.44-15.54,18.36-30.24,27.8-45.79-10.13-3.77-19.25-7.17-28.54-10.64ZM150.18,204.85c6.6-8.35,12.73-15.81,18.44-23.57,1.09-1.48,1.48-4.78.57-6.2-5.2-8.13-10.84-15.98-16.46-23.83-.64-.9-2.29-2.03-3.02-1.78-8.84,3.1-17.6,6.45-27.15,10.02,9.45,15.53,18.25,29.98,27.61,45.36ZM69.55,234.7c.38.59.76,1.18,1.14,1.78.97-.07,1.95-.07,2.9-.21,21.25-3.08,42.49-6.24,63.77-9.15,2.1-.29,4.84.44,6.57,1.69,9.54,6.91,18.87,14.13,28.25,21.23,7.22-5.63,14.43-10.77,21.06-16.58,5.87-5.14,11.21-7.63,19.79-5.75,16.05,3.52,32.56,4.94,48.89,7.16,3.97.54,7.97.81,11.95,1.2.16-.71.33-1.42.49-2.12-2.27-.68-4.5-1.57-6.81-2-22.74-4.21-45.52-8.23-68.23-12.61-4.23-.82-6.63.15-9.21,3.54-5.39,7.11-11.33,13.81-17.86,21.66-6.58-8.11-12.58-15.17-18.15-22.56-2-2.65-3.81-3.58-7.04-2.95-7.51,1.47-15.1,2.54-22.64,3.89-16.72,2.98-33.43,5.98-50.12,9.13-1.69.32-3.18,1.74-4.76,2.65ZM144.47,529.54c-19.99-11.79-39.64-23.38-59.47-35.08-2.88,5.54-5.91,11.37-9.34,17.98,19.01,11.1,37.58,21.94,56.1,32.75,1.49-1.6,2.34-2.38,3.05-3.28,3.39-4.29,6.74-8.62,9.67-12.38ZM199.56,529.57c1.09,1.45,2.72,3.72,4.45,5.91,7.31,9.23,7.47,9.49,17.55,3.78,15.6-8.83,30.98-18.07,46.77-27.32-3.49-6.65-6.6-12.57-9.38-17.86-20.1,12.01-39.61,23.67-59.38,35.49ZM247.35,470.35c-2.4,1.79-4.28,3.4-6.35,4.69-12.38,7.75-24.56,15.86-37.32,22.93-5.44,3.01-9.04,5.74-11.39,12.09-2.38,6.41-.82,9.81,3.6,13.68,21.26-9.76,41.28-21.65,59.96-36.19-2.86-5.79-5.55-11.25-8.49-17.2ZM96.53,471.09c-2.39,4.75-4.38,9.14-6.77,13.3-1.58,2.75-1.27,4.44,1.48,6.07,17.01,10.1,33.88,20.44,51.01,30.34,6.24,3.61,6.61,3.23,10.36-2.76.76-1.21.73-3.26.36-4.75-.67-2.71-1.67-5.4-2.93-7.89-.87-1.72-2.11-3.87-3.71-4.51-15.3-6.11-28.9-15.06-42.21-24.55-2.4-1.71-4.85-3.36-7.59-5.26ZM169.74,165.61v-92.13c-.59-.42-1.19-.84-1.78-1.26-4.99,5.59-9.83,11.34-15.05,16.71-2.29,2.35-3.28,4.56-3,7.88,1.19,13.94,2.08,27.9,3.21,41.85.15,1.92.59,4.07,1.63,5.61,4.71,7.01,9.69,13.85,14.98,21.34ZM175.02,165.67c5.58-8.02,10.28-14.67,14.83-21.43.78-1.16,1.14-2.75,1.26-4.18,1.27-14.93,2.47-29.87,3.61-44.81.09-1.23,0-2.94-.74-3.69-6.01-6.08-12.19-11.98-18.96-18.56v92.67ZM60.69,324c-5.86,18.09-11.56,35.64-17.23,53.21-8.79,27.22-17.6,54.43-26.26,81.7-.72,2.25-3.14,5.35,1.63,7.27.99-2.16,2.03-4.19,2.87-6.3,15.09-38.03,29.96-76.15,45.37-114.05,3.06-7.54,1.81-14.44.83-21.82h-7.19ZM324.79,466.22c5.09-2.08,2.42-5.07,1.69-7.35-13.5-41.73-27.11-83.42-40.69-125.12-1.06-3.26-2.03-6.55-2.96-9.53h-7.31c0,6.18-1.68,12.7.27,17.85,13.02,34.36,26.81,68.42,40.36,102.58,2.81,7.07,5.65,14.12,8.63,21.57ZM195.32,495.34c19.18-7.75,35.49-19.44,51.2-32.08.74-.6,1.22-2.48.85-3.37-3.23-7.93-6.67-15.78-10.18-23.96-9.04,11.31-17.54,22.15-26.27,32.8-5.46,6.66-10.87,13.59-20.44,14.21,1.67,4.26,3.11,7.95,4.85,12.4ZM106.23,436.3c-3.29,7.85-6.6,15.29-9.42,22.9-.53,1.43.3,4.34,1.5,5.3,14.38,11.35,29.38,21.79,46.26,29.21,1.44.63,2.99,1,4.36,1.46,1.71-4.35,3.19-8.11,4.77-12.12-8.7-.62-14.83-5.32-19.85-11.6-9.14-11.41-18.08-22.98-27.63-35.15ZM155.65,499.12c-.54,8.13,2.76,14.95,7.38,21.2,3.86,5.2,13.31,6.07,17.15,1.32,7.75-9.57,11.01-20.33,6.7-32.5-1.47-4.15-3.86-6.72-8.83-6.1-3.27.41-6.63.09-9.95.1-7.91.04-10.19,1.82-11.84,9.56-.44,2.09-.42,4.28-.61,6.43ZM258.48,164.09c6.04-12.13,11.78-23.67,17.53-35.21.61-.03,1.22-.05,1.83-.08.42,1.49,1.38,3.09,1.12,4.45-.39,2.07-1.62,3.98-2.52,5.94-2.91,6.38-5.83,12.76-9.08,19.86,10.09-2.96,19.1-5.59,28.8-8.43-3.72-13.55-7.28-26.55-11.18-40.75-13.86,14.95-26.59,28.69-39.55,42.67,4.37,3.87,8.33,7.37,13.04,11.54ZM98.83,152.94c-13.09-14.29-25.81-28.16-39.65-43.26-3.88,14.69-7.33,27.75-10.86,41.14,9.99,2.87,19.01,5.46,29.08,8.35-1.32-2.82-2.21-4.7-3.1-6.59-2.97-6.33-6.04-12.6-8.79-19.03-.48-1.12.45-2.84.73-4.29,1.1.76,2.66,1.27,3.23,2.32,2.63,4.82,4.96,9.8,7.44,14.7,2.96,5.86,5.97,11.7,9.08,17.8,4.44-3.86,8.32-7.23,12.84-11.15ZM172.41,236.38c6.9-9.47,13.02-17.87,19.1-26.21-6.54-8.12-12.68-15.73-19.11-23.7-6.5,7.94-12.76,15.59-19.22,23.48,6.26,8.61,12.39,17.03,19.23,26.43ZM90,87.84c-.58-.09-1.16-.18-1.74-.28-.69,2.09-2.37,4.43-1.91,6.22,4.31,16.54,8.96,32.99,13.59,49.45.64,2.28,1.73,4.44,2.6,6.62,6.38-3.51,12.12-6.85,18.03-9.84,3.16-1.6,3.09-3.36,1.3-5.86-2.42-3.38-4.77-6.8-7.12-10.23-8.26-12.02-16.5-24.06-24.75-36.09ZM74.09,323.65c-1.16,7.65.82,12.96,6.95,17.23,5.42,3.77,9.91,8.85,14.95,13.18,2.91,2.5,3.6,5.01,2.2,8.75-3.38,9.01-5.79,18.42-9.62,27.22-3.46,7.95,1.44,12.88,4.35,19.63,6.43-17.54,12.51-34.02,18.43-50.55.38-1.06.03-3.07-.75-3.76-11.95-10.53-24.04-20.91-36.52-31.69ZM241.76,149.7c.47-1.03.9-1.74,1.13-2.51,5.15-17.86,10.36-35.71,15.26-53.64.45-1.66-1.06-3.86-1.66-5.81-.57.09-1.15.18-1.72.27-11.35,16.43-22.69,32.87-34.2,49.52,7.51,4.32,14.11,8.11,21.19,12.17ZM250.63,408.72c4.23-6.64,7.83-12.32,3.94-20.45-3.78-7.89-5.68-16.66-8.91-24.84-1.71-4.33-.79-7.07,2.67-9.86,5.05-4.07,9.44-9.05,14.76-12.67,6.17-4.2,7.79-9.76,7.44-16.64-.48.14-1.05.14-1.38.42-11.94,10.11-23.9,20.2-35.71,30.46-.9.78-1.38,3.02-.96,4.19,5.85,16.26,11.89,32.45,18.15,49.38ZM107.88,220.26c13.49-2.29,26.48-4.49,40.09-6.8-4.65-7.39-8.8-14.17-13.2-20.78-.64-.97-2.49-1.69-3.72-1.61-7.59.5-15.17,1.26-23.16,1.98v27.21ZM139.54,34.54c-4.96,2.11-9.03,3.86-13.11,5.57-6.16,2.59-7.28,5.66-4.61,11.95,4.8,11.3,9.53,22.63,14.18,33.99,3.23,7.9,6.27,15.88,9.4,23.82.4-.07.8-.15,1.2-.22-2.33-24.82-4.67-49.64-7.06-75.11ZM197.2,213.39c13.65,2.32,26.33,4.48,38.91,6.62v-27.28c-7.93-.58-15.21-1.17-22.5-1.57-1.14-.06-2.88.44-3.42,1.27-4.3,6.65-8.38,13.45-12.99,20.95ZM131.71,553.89c3.08,3.68,6.24,6.39,8.01,9.82,2.32,4.48,4.85,4.15,8.26,1.89.55-.37,1.13-.7,1.67-1.08,11.33-8.01,14.66-20.49,18.21-32.81.19-.65-.47-1.94-1.11-2.37-3.4-2.24-6.91-4.3-10.72-6.62-7.92,10.14-16.15,20.7-24.33,31.17ZM176,531.35c.85,7.68,5.68,20.23,11.14,26.19,3.19,3.48,7.26,6.22,11.19,8.92.85.58,3.35.08,4.12-.78,3.26-3.69,6.16-7.71,9.44-11.92-8.02-10.2-16.21-20.62-24.19-30.77-3.94,2.82-7.5,5.37-11.69,8.36ZM205.49,34.39c-2.51,25.95-4.92,50.97-7.37,76.38.92-.37,1.16-.4,1.21-.5,8.05-20.03,16.26-40.01,23.91-60.2.89-2.34-.38-7.18-2.29-8.54-4.23-3-9.51-4.53-15.45-7.14ZM267.8,225.9c0-9.42.12-18.37-.14-27.32-.03-1.23-1.81-3.32-2.95-3.45-7.4-.84-14.84-1.25-22.71-1.84,0,8.22.17,16-.08,23.77-.11,3.3,1.41,4.38,4.22,4.87,7.19,1.27,14.36,2.62,21.66,3.96ZM76.52,225.74c8.17-1.49,16.63-3.03,25.2-4.59v-27.78c-7.54.61-14.67,1.04-21.75,1.88-1.25.15-3.27,1.94-3.3,3.03-.27,8.93-.15,17.87-.15,27.46ZM64.9,269.37c0-2.45-.21-4.13.04-5.75.68-4.44-1.38-6.93-5.57-6.86-3.31.06-6.95.59-9.81,2.11-3.13,1.67-5.7,4.56-8.22,7.2-7.71,8.1-9.03,17.46-3.11,26.93,3.87,6.18,8.38,12.06,13.3,17.43,3.86,4.21,8.67,7.77,15.16,6.5,1.14-4.62-1.08-6.65-4.26-9.55-7.03-6.44-13.4-13.77-19.08-21.46-3.55-4.81-2.04-10.94,2.02-15.13,4.09-4.23,9-5.44,14.6-3.37,1.37.51,2.72,1.07,4.92,1.95ZM277.31,318.54c4.26-1.91,8.76-2.58,11.04-5.19,6.94-7.94,14.25-15.99,19.13-25.2,6.08-11.47-5.7-30.13-18.8-31.93-4.54-.62-9.07,1.34-9.37,4.31-.27,2.7-.06,5.46-.06,8.3,3.39-.83,6.07-1.81,8.81-2.08,9.65-.97,17.3,9.17,13.42,17.94-4.07,9.2-10.87,16.52-18.96,22.05-4.12,2.82-5.51,5.56-5.21,11.8ZM309.69,175.09c-9.15,7.19-18.04,14.11-26.82,21.18-.76.61-1.35,2.39-1.01,3.23,2.31,5.76,4.88,11.42,7.69,17.86,8.38-8.51,16.31-16.51,24.15-24.61.67-.69,1.25-2.14,1-2.96-1.5-4.86-3.26-9.65-5.01-14.7ZM54.56,217.08c2.8-6.61,5.31-12.34,7.59-18.15.28-.71-.39-2.26-1.09-2.81-8.73-6.84-17.55-13.56-26.74-20.61-1.71,4.95-3.32,9.43-4.76,13.97-.24.76-.03,2.06.5,2.61,7.95,8.21,15.99,16.34,24.5,24.99ZM91,134.16c-3.46-14.32-6.67-27.8-10.05-41.25-.25-1-1.52-2.13-2.55-2.48-6.17-2.07-9.6-.68-12.63,4.95-1.1,2.04-2.27,4.1-2.92,6.3-.35,1.17-.15,3.1.62,3.91,8.88,9.39,17.91,18.63,27.55,28.57ZM252.87,134.83c10.09-10.49,19.21-19.91,28.19-29.45.69-.73.94-2.54.54-3.49-1.35-3.2-2.89-6.36-4.71-9.32-2.34-3.81-6.18-2.69-9.48-1.96-1.54.34-3.61,1.89-4,3.29-3.57,13.11-6.83,26.3-10.55,40.93ZM291.26,158.29c-.3-.34-.6-.68-.9-1.02-9.24,3.98-19.54,5.19-28.79,10.63,5.69,7.95,10.81,15.1,16.49,23.03,4.55-11.25,8.87-21.95,13.2-32.64ZM52.36,156.94c4.74,11.93,8.96,22.57,13.45,33.89,5.81-8.09,11.08-15.43,17.1-23.82-10.25-3.38-19.7-6.49-30.56-10.06ZM273.91,193.85c0,11.07-.06,21.17.09,31.27.01.97,1.16,2.61,2.01,2.77,3.25.62,3.18,2.83,3.17,5.26-.04,6.24-.01,12.48-.01,18.74q7.67-.4,7.57-6.6c-.08-4.16-.47-8.34-.27-12.48.7-14.4-6.67-26.03-12.55-38.95ZM70.4,227.09v-33.28c-.72,1.24-1.26,2.18-1.82,3.11-9.09,14.98-12.55,31.19-11.12,48.63.52,6.41.44,6.72,7.46,6.15,0-5.95.22-11.93-.08-17.88-.19-3.82.43-6.55,5.56-6.72ZM269.44,343.68c-.41-.25-.83-.49-1.24-.74-5.79,5.11-11.61,10.19-17.32,15.38-.58.53-.96,1.9-.71,2.63,2.85,8.44,5.84,16.83,8.8,25.23.39,0,.79-.01,1.18-.02,3.1-14.16,6.2-28.33,9.3-42.49ZM75.9,342.95c-.45.3-.91.59-1.36.89,2.89,14.01,5.78,28.02,8.66,42.03l1.52-.08c2.84-8.3,5.72-16.57,8.44-24.91.28-.87-.06-2.45-.72-3.05-5.44-5.04-11.02-9.94-16.55-14.88ZM65.29,303.07c0-7.93-.43-14.35.12-20.7.52-6-2.71-8.27-7.5-9.92-3.88-1.34-6.77-.06-9.29,2.85-2.44,2.82-2.57,6.15-.44,8.72,5.22,6.31,10.92,12.22,17.11,19.05ZM279.01,300.57c.27.41.54.81.81,1.22,5.47-6.27,11.25-12.3,16.16-18.97,1.17-1.59.2-5.82-1.16-7.97-2.06-3.25-5.79-3.48-9.41-2.11-2.95,1.12-6.31,1.94-6.37,5.97-.11,7.29-.03,14.58-.03,21.86ZM160.76,561.76c6.83,4.13,16.28,4.06,22.23-.12-2.12-3.91-4.17-7.83-6.35-11.68-1.62-2.85-7.96-2.81-9.62.1-2.19,3.84-4.18,7.79-6.26,11.69ZM46.29,156.46c-2.87,4.24-5.38,7.73-7.58,11.4-.47.79-.28,2.81.35,3.3,5.28,4.07,10.73,7.9,16.12,11.81.22-.23.44-.46.66-.69-3.09-8.36-6.18-16.71-9.55-25.82ZM298.1,156.02c-3.55,9.59-6.68,18.04-10.18,27.48,6.73-4.92,12.6-9.21,18.6-13.61-2.85-4.7-5.41-8.91-8.42-13.87ZM326.18,475.42c1.79,4.32,3.13,8.39,5.18,12.06.72,1.3,3.52,2.61,4.72,2.16,1.33-.49,2.89-3.17,2.63-4.58-.76-4.14-2.05-8.28-3.84-12.08-.67-1.42-3.59-2.93-4.97-2.54-1.48.41-2.35,3.01-3.72,4.99ZM3.98,484.44c1.36,2.01,2.22,4.67,3.83,5.24,1.26.44,4.37-1.31,5.01-2.79,1.65-3.86,2.68-8.07,3.31-12.23.18-1.21-1.57-3.5-2.87-3.91-1.18-.38-3.72.72-4.33,1.88-1.91,3.58-3.2,7.49-4.94,11.82Z"/>
    <path d="M163.24,266.7q8.42-7.17,17.71.03c4.85-4.22,9.55-8.66,14.61-12.65,16.61-13.11,34.62-15.41,53.73-6.03,6.26,3.07,12.22,6.77,18.13,10.48,1.11.7,1.33,2.82,1.95,4.28-1.62.1-3.58.85-4.81.2-6.05-3.14-11.77-6.93-17.85-9.99-16-8.06-31.34-6.26-45.6,4.19-5.35,3.92-10.11,8.65-15.01,13.14-.81.74-1.41,2.24-1.32,3.33.98,12.93,2.12,25.84,3.21,38.76.04.5.08,1,.06,1.5-.43,8.67.96,15.87,11.61,17.54,1.97.31,3.98,3.6,5,5.94,1.31,3,1.82,6.39,2.34,9.67,1.96,12.25-5.87,21.97-18.22,22.9-1.12.08-2.24.85-3.25,1.48-.52.33-.75,1.08-1.17,1.59-9.77,11.84-14.91,10.92-24.26.27-1.72-1.96-3.01-3.14-5.94-3.31-9.4-.56-17.79-10.48-17.27-19.83.11-1.98.77-3.93.87-5.91.49-9.27,5.35-14.4,14.38-16.24,1.25-.26,2.74-2.92,2.87-4.57,1.13-14.11,1.98-28.25,2.91-42.37.02-.33-.04-.71.09-.99,3.55-7.29-.65-11.64-5.9-15.58-4.92-3.69-9.63-7.72-14.84-10.94-11.3-6.98-23.39-7.44-35.42-2.27-6.69,2.88-12.92,6.84-19.35,10.34-1.31.71-2.49,1.93-3.87,2.19-1.19.22-2.78-.33-3.78-1.08-.36-.27.08-2.66.81-3.18,25.58-18.64,48.26-24.59,72.97-5.43,4.98,3.86,9.58,8.2,14.62,12.54ZM154.44,331.67c-4.23,2.55-9.06,3.79-10.27,6.59-1.79,4.16-1.38,9.45-1.11,14.22.09,1.53,2.77,4.22,4.13,4.14,6.61-.41,10.64,2.98,13.94,7.96,1.47,2.22,2.77,4.56,4.42,6.64,4.64,5.82,8.8,5.84,13.36.04,2.05-2.61,3.3-6.02,5.74-8.1,3.27-2.78,7.44-6.6,11.05-6.41,5.64.29,5.67-2.22,5.7-5.9.02-2.16-.17-4.32-.31-6.48-.56-8.52-2.56-10.35-11.73-10.71-.09,1.48.14,3.09-.36,4.42-.43,1.13-1.69,1.95-2.59,2.91-.8-.91-1.91-1.69-2.3-2.75-.44-1.19-.23-2.63-.3-3.96-.94-17.11-1.94-34.22-2.8-51.33-.28-5.49-2.67-9.8-6.36-13.67-2-2.1-3.64-1.79-5.45.12-4.1,4.3-5.99,9.44-6.3,15.32-.89,16.78-1.88,33.56-2.83,50.33-.08,1.33.18,2.82-.35,3.93-.45.93-1.76,1.81-2.8,1.97-.6.09-1.85-1.22-2.04-2.07-.39-1.75-.27-3.61-.45-7.19Z"/>
    <path d="M188.43,435c-6.68-.68-13.35-1.52-20.04-1.96-2.23-.15-4.75.26-6.76,1.21-5.01,2.35-9.73,1.69-14.41-.58-10.17-4.94-16.09-13.6-20.44-23.6-1.25-2.88-.6-5.17,2.01-6.92,6.49-4.35,12.98-8.71,19.46-13.08,6.55-4.41,13.12-4.32,19.57.1,2.75,1.88,4.98,2.27,7.98.08,6.23-4.55,13.01-4.92,19.6-.65,6.83,4.43,13.6,8.98,20.12,13.85,1.37,1.02,2.4,3.8,2.12,5.52-1.75,10.61-15.71,24.5-26.28,26.59-.97.19-1.98.23-2.97.33.02-.3.04-.59.06-.89ZM131.18,408.97c4.45,9.11,10.17,14.89,17.74,18.93,3.79,2.02,7.27,2.19,11.31.17,7.03-3.5,15.01-3.69,21.76-.67,6.39,2.86,11.11,1.83,16.18-1.6,5.96-4.03,10.14-9.5,14.27-16.91-12,0-22.54-.75-32.89.32-5.04.52-9.36,1.07-14.68.25-10.65-1.66-21.75-.49-33.69-.49ZM136.23,403.97c.89.6,1.02.76,1.14.76,11.36.05,22.85-2.87,34.02,1.62.61.25,1.55-.34,2.34-.5,3.04-.6,6.08-1.61,9.14-1.7,8.21-.24,16.43-.08,25.72-.08-4.68-3.18-8.67-5.73-12.49-8.53-6.75-4.95-13.52-5.37-20.1,0-3.07,2.5-5.3,1.9-8.26-.22-4.61-3.31-9.75-5.45-15.29-1.98-5.32,3.33-10.51,6.88-16.22,10.64Z"/>
    <path d="M269.74,272.41c-11.9,7.67-22.69,17.49-36.95,20.77-10.88,2.5-20.57-1.73-29.35-8.04-2.14-1.54-2.25-3.41-.32-5.46,5.96-6.33,13.05-10.32,21.91-10.14,13.95.3,27.89.84,41.83,1.29.78.03,1.56.16,2.34.24.18.45.36.89.54,1.34ZM209.23,282.02c11.83,8.88,29.88,7.58,39.46-3.04-13.52-.47-26.88-7.33-39.46,3.04Z"/>
    <path d="M75.37,271.56c14.77-.69,29.54-1.48,44.32-2.01,8.96-.32,15.9,4.02,21.8,10.35,2.41,2.59.65,4.3-1.35,5.65-11.36,7.64-23.55,11.68-36.54,4.91-10.05-5.23-19.44-11.72-29.12-17.65.3-.41.6-.83.9-1.24ZM95.71,279.67c12.47,10.2,27.88,11.04,38.82,2.47-7.17-8.15-17.07-6.53-38.82-2.47Z"/>
    <path d="M209.12,452.04c-3.5,11.03-12.48,18.23-23.73,18.55-8.98.25-17.98.25-26.96.04-11.26-.26-20.08-7.67-23.03-18.59h73.72ZM141.88,456.66c1.89,5.83,7.18,10.14,13.41,10.28,11.12.26,22.24.22,33.36.01,6.88-.13,10.71-4.89,14.57-10.29h-61.35Z"/>
  </g>
</svg>