<?xml version="1.0" encoding="UTF-8"?>
<svg id="Ebene_2" xmlns="http://www.w3.org/2000/svg" viewBox="0 0 287.94 585.78">
  <g id="Ebene_3">
    <path d="M252.29,258.31c5.57,0,11.11-.84,16.28.17,11.21,2.19,18.74,11.86,19.26,24.93.71,17.81-2.16,35.21-8.86,51.79-4.37,10.82-12.73,18.14-22.84,23.57-2.48,1.33-5.05,2.5-7.88,3.89,2.45,8.64,5.12,17.15,7.25,25.8,5.42,22.03,10.08,44.19,8.67,67.1-1.67,27.12-13.51,49.75-31.04,69.87-17.6,20.19-39.8,34.21-62.85,47.11-7.7,4.31-15.47,8.49-23.34,12.47-1.52.77-4.07,1.11-5.44.37-24.25-13.23-49.17-25.48-70.24-43.76-21.4-18.57-38.19-40.37-45.56-68.35-5-18.98-3.69-38.09.03-56.98,3.56-18.07,8.24-35.92,12.6-54.62.55.7.4.31.15.21-21.74-8.22-32.79-24.89-36.05-47.03-1.62-10.96-3.06-22.25-2.17-33.19,1.51-18.72,15.56-27.26,33.74-22.12.58.16,1.19.24,2.28.45-2.28-9.32-4.91-18.05-6.49-26.96-6.16-34.73-13.3-69.31-15.05-104.69-.49-9.92,1.49-19.26,4.88-28.33C34.85,59.24,61.92,30.05,103.5,15.38c3.09-1.09,4.4-2.61,3.88-5.75-.53-3.2,1-4.34,4.06-4.8,7.08-1.06,14.16-2.2,21.13-3.79,11.47-2.62,22.5.33,33.64,2.1,1.97.31,3.93.7,5.91,1.01,4.89.76,10.47.67,8.83,8.47-.14.65,2.06,2.22,3.41,2.7,42.63,15.09,69.22,45.64,84.7,87.17,5.89,15.81,4.54,31.87,2.53,47.88-4.54,36.16-10.13,72.17-19.31,107.51-.11.43.03.92,0,.42ZM244.11,268.08c-2.16,1.22-3.15,1.76-4.12,2.33-7.91,4.61-15.75,9.34-23.74,13.82-13.87,7.79-26.94,4.82-39.5-3.33-3.17-2.06-3.67-4.18-.61-7.15,6.71-6.53,14.39-9.97,23.88-9.1,4.81.44,9.64.78,14.47.84,9.76.13,19.52.04,29.41.04,0-2.13.17-3.79-.03-5.42-1.42-11.9-3.96-23.79-4.07-35.7-.1-11.63-5.81-16.35-15.74-19.85-12.71-4.49-25.04-7.79-38.9-6.13-27.02,3.24-54.18,2.93-81.32.49-7.53-.68-15.49-1.23-22.71.46-9.79,2.29-19.1,6.69-28.5,10.48-1.47.59-3.11,2.67-3.3,4.23-1.92,15.19-3.56,30.42-5.22,45.65-.21,1.9-.03,3.83-.03,6.59,14.92-.54,29.22-.78,43.47-1.68,9.42-.6,16.78,2.84,23.41,9.05,3.15,2.95,2.49,4.98-.71,7.05-13.07,8.48-26.56,11.32-40.87,3.04-7.06-4.08-14.08-8.24-21.12-12.37-1.21-.71-2.43-1.39-4.89-2.81,1.85,19.99,3.51,38.71,5.44,57.4.17,1.69,1.79,3.49,3.18,4.76,6.88,6.3,13.99,12.35,20.8,18.72,1.51,1.41,3.32,4.03,2.96,5.66-1.52,6.97-3.68,13.82-5.92,20.6-.35,1.07-2.33,1.6-3.56,2.38-.43-1.33-1.48-2.8-1.2-3.96,1.33-5.49,3.12-10.87,4.53-16.34.37-1.45.62-3.78-.18-4.56-6.06-5.86-12.39-11.43-18.97-17.39-1.03,17.08,16.51,75.3,25.53,85.26.29-1.43.61-2.72.81-4.02,2.12-14.49,4.38-28.97,6.24-43.49.73-5.7,3.06-8.83,8.96-10.1,7.05-1.53,13.87-4.14,22.21-6.72-3.04-1.86-4.84-3.15-6.8-4.12-6.57-3.26-6.78-4.68-1.6-10.06,2.3-2.39,5.12-4.71,6.32-7.63,2.23-5.44,6.31-6.95,11.38-7.02,3.47-.05,4.48-1.5,4.57-4.85.25-9.66-.06-19.45,1.52-28.92,2.25-13.57-3.21-24.39-10.24-34.79-10.11-14.96-26.33-20.8-43.73-15.98-5.58,1.55-10.82,4.25-16.34,6.06-1.82.6-4.02.03-6.05,0,1.23-1.66,2.1-4.05,3.75-4.85,5.07-2.47,10.29-4.8,15.7-6.34,20.62-5.88,39.91,1.14,52.16,18.78,2.56,3.68,4.56,7.74,7.01,11.5.83,1.27,2.21,3.02,3.41,3.08,5.81.29,11.96,1.15,17.36-.4,2.86-.82,4.44-6.12,6.6-9.4.64-.97,1.28-1.95,1.95-2.9,18-26.11,45.43-28.06,70.92-13.97,1.23.68,1.58,2.98,2.34,4.52-1.59.09-3.35.67-4.73.18-4.54-1.6-8.86-3.86-13.42-5.39-19.88-6.65-38.66-.04-49.95,17.62-2.59,4.05-4.91,8.34-6.76,12.78-1.34,3.22-2.46,6.87-2.37,10.3.31,12.15,1.54,24.28,1.69,36.43.07,5.5,2.03,7.2,7.15,7.34,2.39.07,5.35,1.01,6.97,2.64,3.84,3.86,6.98,8.41,10.52,12.58,3.17,3.74,2.99,5.29-1.27,7.72-2.48,1.42-4.98,2.81-7.47,4.21.08.46.15.91.23,1.37,6.58,2.13,13.03,4.93,19.78,6.21,6.83,1.3,9.49,5.01,10.3,11.36,1.53,12.05,3.33,24.07,5.03,36.1.44,3.13.94,6.25,1.41,9.38,16.33-26.12,21.15-55.33,26.13-84.6-6.72,5.46-13.04,11.08-19.12,16.94-.85.82-1.03,2.97-.68,4.29,1.48,5.62,3.47,11.12,4.82,16.77.34,1.43-.96,3.25-1.5,4.9-1.2-1.1-3.04-2-3.48-3.35-2.07-6.31-3.98-12.71-5.43-19.18-.37-1.66.65-4.22,1.9-5.55,3.41-3.63,6.96-7.29,11.03-10.12,10.72-7.47,15.76-17.1,15.74-30.48-.03-13.58,1.97-27.16,3.17-41.86ZM27.52,192.53c2.83-1.66,4.9-2.95,7.04-4.11,15.98-8.59,31.63-17.89,48.1-25.4,7.76-3.54,12.29-7.46,12.03-15.95-.18-5.81,3.19-7.98,8.2-9.36,27.44-7.55,54.82-7.84,82.29-.11,5.05,1.42,8.4,3.26,8.21,9.21-.09,2.93.69,5.97,1.56,8.81.45,1.46,1.7,3.09,3.04,3.8,19.07,10.16,38.23,20.18,57.35,30.25,1.55.82,3.03,1.76,5.15,3,.69-4.51.94-8.33,1.91-11.96,1.08-4.01-.12-6.87-2.65-9.93-34.81-42.18-102.81-72.32-170.41-44.01-23.57,9.87-44.28,23.72-60.73,43.47-1.67,2.01-3.21,4.89-3.2,7.36.02,4.6,1.22,9.19,2.1,14.91ZM191.35,447.32c2.05-2.69,3.54-5.4,5.72-7.32,3.77-3.34,4.31-6.57,2.43-11.37-4.79-12.23-8.92-24.71-13.34-37.09-3.63-10.18-12.37-13.9-22.28-9.31-3.61,1.67-6.93,3.96-10.47,5.81-5.83,3.06-6.25,3.95-4.44,10.93,10.77.4,21.72-.19,32.29,3.35-1.67,1.23-3.32,1.6-4.98,1.6-7.83,0-15.67.02-23.49-.26-3.38-.12-5.2.83-5.88,4.36-.42,2.16-1.81,4.14-2.76,6.2-.51-.12-1.01-.24-1.51-.35-.54-1.67-1.42-3.31-1.56-5.02-.33-4.24-2.42-5.46-6.53-5.25-7.82.4-15.66.37-23.49.36-1.6,0-3.2-.71-4.8-1.09l.26-2.01c5.39-.48,10.76-1.15,16.16-1.38,5.59-.24,11.19-.05,17.9-.05-.93-3.72-.74-7.28-2.29-8.35-5.28-3.69-10.97-6.96-16.88-9.54-7.86-3.44-16.79-.14-19.33,6.92-5.29,14.71-10.27,29.54-15.26,44.36-.41,1.21-.44,3.22.29,4.02,3.08,3.38,6.5,6.44,9.97,9.78,15.75-32.65,67.36-42.24,94.25.72ZM195.14,191.74c-.12-1.85-.12-3.32-.33-4.77-1.83-12.52-4-24.99-5.39-37.56-.51-4.64-2.33-6.5-6.56-7.8-23.41-7.19-47.01-6.66-70.61-1.72-12.68,2.65-12.58,3.11-14.37,15.86-.09.66-.26,1.31-.36,1.96-1.74,11.27-3.47,22.55-5.25,34.08,34.48,4.07,68.35,3.95,102.88-.07ZM184.38,558.16c10.48-6.14,20.86-12.31,25.33-25.09,3.11-8.89,8.63-16.96,8.92-26.79.88-29.8,1.73-59.6,2.57-89.4.01-.36-.35-.74-.71-1.44-.66,1.2-1.14,2.04-1.6,2.89-7.78,14.37-17.38,27.16-30.94,36.71-1.35.95-2,3.64-2.07,5.55-.62,16.98-1.2,33.96-1.46,50.95-.23,15.45-.05,30.9-.05,46.63ZM103.81,558.75c.18-1.57.33-2.19.32-2.81-.75-32.15-1.46-64.29-2.39-96.44-.05-1.76-1.57-3.99-3.07-5.1-11.83-8.8-21.29-19.57-28.14-32.63-1.04-1.98-2.18-3.9-3.28-5.85-.97,1.22-1,2.13-.96,3.04,1.18,30.46,1.97,60.95,3.73,91.38.75,12.9,8.63,23.56,14.29,34.81.28.56.91.98,1.45,1.35,5.76,3.93,11.54,7.83,18.06,12.25ZM143.37,542.3c1.21-2.06,2.08-3.46,2.88-4.9,10.33-18.63,20.38-37.43,31.1-55.83,4.16-7.14,2.48-14.18,2.84-21.68-24.8,9.83-48.89,9.57-73.03-.49-.57,10.19-.87,19.45,5.43,28.07,5.16,7.07,8.8,15.27,13.09,22.97,5.81,10.43,11.6,20.88,17.7,31.85ZM186.6,449.62c-1.31-2.34-2.36-4.38-3.56-6.33-17.34-28.14-62.37-27.3-78.22,1.45-3.08,5.58-3.02,5.71,2.52,8.52,16.83,8.52,34.62,9.97,52.95,6.98,9.41-1.54,18.18-4.79,26.31-10.62ZM119.43,508.63c-.44.1-.89.2-1.33.3,0,18.77-.05,37.55.12,56.32.01,1.24,1.45,2.9,2.66,3.61,6.46,3.78,12.96,7.53,19.69,10.8,1.87.91,4.92.93,6.79.03,6.59-3.17,12.99-6.76,19.24-10.56,1.45-.89,2.81-3.27,2.82-4.98.14-17.66,0-35.31-.09-52.97,0-1.2-.25-2.39-.5-4.6-8.57,15.2-16.58,29.42-25.37,45.01-8.53-15.25-16.28-29.11-24.03-42.97ZM111.05,9.99c3.11,27.7,6.13,54.7,9.19,81.95,7.66-.66,14.55-1.26,21.31-1.85V5.17c-10.34,1.63-20.11,3.18-30.49,4.82ZM147.22,5.05v85.06c6.97.62,13.85,1.23,21.25,1.89,2.93-27.61,5.81-54.78,8.71-82.1-10.33-1.67-19.82-3.2-29.96-4.84ZM108.96,346.34c3.52,3.85,6.29,8.02,10.08,10.78,7.48,5.43,15.51,10.12,23.41,14.95.87.53,2.72.37,3.63-.23,7.49-4.91,15.06-9.74,22.19-15.13,3.92-2.96,7.04-6.97,10.42-10.39-2.5-3.34-5.39-7.34-8.43-11.23-2.38-3.04-8.53-2.42-10.56.77-.57.9-2,1.65-3.06,1.68-.63.02-1.78-1.45-1.87-2.33-.43-4.29-.37-8.65-.95-12.91-.17-1.28-1.8-3.29-2.86-3.36-5.6-.34-11.23-.16-17.17-.16-.24,1.9-.5,3.35-.58,4.8-.19,3.49-.08,7.01-.54,10.45-.18,1.32-1.6,2.46-2.45,3.69-1-1-2.05-1.97-2.98-3.03-.39-.44-.54-1.1-1.02-2.16-2.96.7-6.66.49-8.45,2.24-3.71,3.62-6.4,8.29-8.81,11.58ZM71.06,533.56c-3.66-11.92-8.1-24.4-11.32-37.19-7.92-31.5-9.85-63.44-4.43-95.55,1.27-7.52,2.9-14.59-2.36-21.99-2.57,10.74-5.17,21.03-7.48,31.38-5.43,24.31-7.24,48.76-1.34,73.23,4.64,19.27,10.87,37.84,26.93,50.12ZM215.14,534.29c.47.32.94.64,1.41.96,5.35-6.87,11.82-13.15,15.8-20.73,7.85-14.97,12.04-31.29,13.73-48.18,2.92-29.09-3.78-56.89-11.28-84.58-.16-.6-.32-1.2-.49-1.84-4.41,7.92-2.7,14.85-1.7,22.21,6.06,44.41,1.07,87.57-16.36,129.08-.42,1.01-.75,2.06-1.12,3.09ZM91.88,165.16c-.88-.2-1.09-.32-1.2-.26-19.96,10.94-39.93,21.86-59.8,32.96-1.04.58-1.83,2.77-1.68,4.08.49,4.05,1.49,8.04,2.33,12.26.95-.28,1.62-.36,2.19-.65,16.4-8.51,32.92-16.71,51.17-20.67,1-.22,2.18-1.85,2.41-3,1.64-8.12,3.05-16.29,4.58-24.72ZM195.79,163.46c1.62,9.97,2.84,18.31,4.46,26.57.25,1.25,2.21,2.79,3.61,3.09,15.89,3.46,30.53,10.09,44.96,17.31,2.48,1.24,5.02,2.35,7.99,3.73.66-4,.95-7.48,1.85-10.79.79-2.92.11-4.51-2.52-6.04-8.05-4.66-15.8-9.84-23.91-14.37-11.56-6.46-23.35-12.53-36.43-19.5ZM47.98,355.5c-.59,1.22-.87,1.77-1.12,2.33-9.44,21.14-14.22,43.52-17.86,66.24-3.02,18.86-2.95,37.49,4,55.57,2.62,6.81,5.94,13.34,8.94,19.99.4-.17.81-.35,1.21-.52-.31-1.25-.58-2.52-.95-3.76-5.83-19.9-8.28-40.28-5.09-60.72,3.09-19.82,7.67-39.43,12.28-58.97,1.61-6.81,1.65-12.97-1.42-20.15ZM107.88,18.09c-5.02,1.92-9.3,3.67-13.66,5.18-2.71.94-3.35,2.28-2.76,5.21,2.72,13.51,5.1,27.09,7.63,40.63,1.61,8.59,3.28,17.17,5,26.11,4.34-.96,8-1.78,11.96-2.65-2.72-24.83-5.4-49.23-8.17-74.48ZM180.5,18.84c-.18,1.31-.37,2.44-.49,3.58-2.08,20.16-4.1,40.32-6.26,60.47-1.29,12.07-2.77,9.64,9.27,12.03.28.06.61-.17,1.21-.35.27-1.11.65-2.36.88-3.63,3.14-16.98,6.12-33.98,9.41-50.93,3.15-16.25,3.28-16.23-12.49-21.26-.29-.09-.64.02-1.54.08ZM239.6,355.79c-4.23,8.5-2.16,16.26-.37,24.34,4.17,18.81,8.7,37.63,11.17,56.69,2.78,21.5.39,42.96-6.45,63.78,6.13-9.46,10.4-19.64,13.21-30.47,4.47-17.18,2.9-34.36.02-51.53-3.59-21.36-8.58-42.33-17.58-62.81ZM87.06,26.52c-4.59,2.98-8.56,5.67-12.66,8.16-2.53,1.53-3.09,3.25-2.24,6.17,4.44,15.3,8.63,30.67,12.95,46,1.24,4.38,2.63,8.72,4,13.24,3.88-1.43,7.1-2.61,10.6-3.9-4.21-23.18-8.37-46.12-12.64-69.67ZM201.3,26.8c-4.25,23.11-8.3,44.98-12.19,66.87-.19,1.05.7,2.97,1.61,3.4,2.74,1.3,5.74,2.07,8.74,3.08,5.61-20.37,11.06-40.03,16.36-59.73.35-1.3,0-3.6-.9-4.29-4.17-3.2-8.65-5.99-13.61-9.33ZM138.65,385.81c2.11-9.24,2.02-9.07-5.17-13.15-4.75-2.7-9.07-6.17-13.82-8.86-1.86-1.06-4.61-1.72-6.59-1.19-6.72,1.81-13.25,4.31-19.9,6.37-3.3,1.02-4.75,3.06-5.17,6.43-1.85,14.67-3.9,29.32-5.77,43.99-.29,2.26-.04,4.59-.04,6.89,5.08-12.7,9.43-25.39,13.99-38.01,3.46-9.59,8.62-13.65,18.6-12.79,5.38.46,10.63,3.25,15.77,5.4,2.84,1.18,5.33,3.21,8.1,4.94ZM149.37,384.87c4.68-2.54,9.16-5.41,13.96-7.49,12.24-5.32,23.34-.62,27.91,11.65,3.08,8.25,5.89,16.6,8.85,24.89,1.4,3.92,2.88,7.82,4.32,11.72.77-.86.95-1.52.87-2.15-2.1-16.49-4.09-32.99-6.51-49.43-.29-1.96-2.61-4.36-4.58-5.2-6.25-2.67-12.72-4.91-19.24-6.84-1.67-.49-4.13.29-5.74,1.27-5.39,3.27-10.44,7.1-15.85,10.33-6.06,3.62-6.17,3.44-4,11.24ZM215.03,106.77c5.83-17.69,11.61-35.15,17.29-52.65.3-.92.14-2.49-.46-3.12-3.51-3.64-7.22-7.09-11.36-11.08-5.72,21.19-11.16,41.33-16.66,61.71,3.78,1.74,7.22,3.32,11.18,5.14ZM84.53,101.35c-5.68-20.4-11.28-40.53-16.89-60.65-.6-.31-1.21-.63-1.81-.94-2.92,3.4-6.02,6.67-8.66,10.27-.96,1.31-1.55,3.61-1.11,5.1,2.23,7.47,4.83,14.84,7.34,22.23,3.24,9.55,6.52,19.1,9.96,29.13,3.99-1.83,7.4-3.4,11.18-5.13ZM245.2,328.68c9.09,2.61,19.32-1.11,23.01-10.56,4.99-12.76,8.5-26.17,11.63-39.53,1.56-6.65-3.46-12.31-10.1-13.91-10.68-2.57-20.84,4.98-21.2,15.77-.06,1.83-.37,3.7-.1,5.48.2,1.36,1.13,2.6,1.74,3.9.92-1.24,2.12-2.37,2.71-3.75,1.73-4.04,2.45-8.75,4.96-12.16,4.06-5.5,12.09-4.56,14.6,1.79,1.52,3.86,2,9.11.63,12.91-2.38,6.62-6.23,12.8-10.07,18.78-3.58,5.58-7.98,10.59-16.33,7.41-.55,5.14-1.02,9.55-1.49,13.89ZM40.8,314.83c-4.85,1.45-9.17,1.51-11.86-2.48-4.89-7.26-9.73-14.62-13.77-22.37-1.54-2.96-1.39-7.15-1.03-10.67.48-4.65,3.34-8.04,8.2-8.81,4.55-.73,7.85,1.8,9.66,5.6,1.54,3.23,1.97,6.97,3.16,10.39.47,1.35,1.65,2.45,2.51,3.67.43-.28.85-.55,1.28-.83,0-4.8.1-9.6-.07-14.4-.04-1.24-.67-2.61-1.42-3.64-4.21-5.82-15.43-8.82-21.75-5.93-7.18,3.28-9.94,9.9-7.47,18.94,2.45,8.97,4.79,18.03,8.09,26.71,1.89,4.98,4.99,9.85,8.65,13.72,4.41,4.67,10.44,5.96,17.17,3.89-.45-4.6-.86-8.86-1.35-13.8ZM51.61,57.29c-9.35,6.6-11.37,14.2-5.48,23.62,1.73,2.77,2.58,6.1,3.85,9.16,3.27,7.92,6.56,15.83,10.01,24.16,3.4-2.11,6.29-3.9,9.22-5.71-5.93-17.26-11.73-34.14-17.6-51.23ZM236.65,56.52c-6.09,18.27-11.74,35.23-17.5,52.49,3.17,1.76,6.14,3.4,9.49,5.26,5.76-14.39,11.34-28.23,16.78-42.12.48-1.22.61-3.17-.04-4.15-2.46-3.66-5.32-7.06-8.73-11.48ZM71.92,128.77c-3.86-3.53-7.11-6.5-11.29-10.32-10.95,10.09-21.45,19.95-32.18,29.57-5.44,4.88-7.41,10.22-3.52,17.36,13.11-14.94,28.77-26.74,46.99-36.61ZM216.63,128.19c8.74,5.9,17.33,11.01,25.1,17.15,7.74,6.11,14.67,13.25,22.79,20.71,0-4.55,1.58-9.58-.26-11.97-10.62-13.71-23.39-25.28-38.43-34.54-3.16,2.97-6.17,5.79-9.21,8.65ZM6.46,305.14c2.78,28.15,14.2,44.74,34.91,51.24,3.66-6.63,6.38-13.37,2.67-20.97-18.73,2.08-25.79-3.61-37.58-30.27ZM246.7,356.5c19.76-7.31,33.75-27.23,32.91-46.94-6.16,17.08-16.08,28.66-35.78,26.24-2.85,8.21-2.17,12.99,2.87,20.7ZM37.44,75.26c-2.3,3.86-3.75,6.66-5.55,9.21-2.3,3.27-2.4,6.14.02,9.52,2.99,4.19,5.41,8.77,8.17,13.13,2.98,4.71,6.06,9.35,9.25,14.25,2.66-2.09,4.71-3.69,6.83-5.36-6.22-13.54-12.23-26.64-18.72-40.76ZM179.94,488.61c-.49-.14-.99-.29-1.48-.43-1.99,5.34-5.5,10.62-5.69,16.02-.66,18.59-.16,37.23-.08,55.85,0,1.45.19,2.91.28,4.35,4.15-.03,5.3-1.98,5.39-5.68.38-16.62,1.09-33.23,1.55-49.85.19-6.75.03-13.51.03-20.27ZM250.74,75.79c-6.45,14.35-12.41,27.59-18.38,40.88,2.54,1.93,4.61,3.5,7.18,5.46,6.16-10.64,12.08-20.82,17.92-31.05.43-.75.64-2.06.27-2.76-2.04-3.92-4.28-7.74-6.98-12.53ZM112.58,564.77c.62-.35,1.24-.71,1.86-1.06,0-18.79-.58-37.6.27-56.35.36-8.01-3.36-13.32-7.18-19.89-.26,1.16-.45,1.6-.44,2.03.64,23.29,1.22,46.57,2.09,69.85.07,1.85,2.21,3.62,3.39,5.42ZM26.51,95.43c-1.98,5.12-3.69,9.25-5.15,13.46-.4,1.15-.58,2.9.02,3.8,4.53,6.85,9.28,13.55,14.03,20.39,3.55-3.2,6.62-5.97,9.86-8.9-6.16-9.44-12.21-18.72-18.76-28.76ZM252.96,133.12c4.59-6.93,9-13.54,13.35-20.19.42-.64.8-1.67.58-2.3-1.64-4.68-3.44-9.31-5.58-15.01-6.47,10.46-12.2,19.73-17.95,29.02,3.2,2.83,6.05,5.33,9.6,8.47ZM151.33,277.27c-4.76,0-9.02-.1-13.27.08-.86.04-2.37,1.15-2.38,1.79-.18,6.35-.11,12.71-.11,19.12h16.78c-.34-7.06-.66-13.74-1.01-21ZM60.88,401.2c-.51,0-1.02,0-1.53,0-4.46,29.95-3.16,59.65,4.63,89.07l-3.1-89.07ZM223.97,487.03c6.94-28.31,9.12-56.64,4.39-85.19-.5-.02-1-.03-1.5-.05-.96,28.41-1.92,56.83-2.89,85.24ZM115.94,113.21c-1.28-5.11-2.43-9.68-3.65-14.55-4.46,1.17-8.32,2.08-12.13,3.2-3.75,1.11-7.45,2.42-11.68,3.81,2.69,3.82,4.84,7.17,7.33,10.23.72.89,2.55,1.56,3.66,1.33,5.34-1.11,10.61-2.56,16.46-4.03ZM65.06,274.24c13.52,10.61,28.99,11.48,40.14,2.56-12.94-10.4-26.77-3.01-40.14-2.56ZM39.87,296.87c-2.92-.49-5.79-1.56-8.53-1.29-3.58.35-3.59-.93-2.95-3.64.56-2.35,1.23-4.86.94-7.19-.7-5.68-3.98-9.69-6.78-9.06-3.31.74-5.33,5.99-2.73,11.28,3.69,7.53,8.45,14.57,13.25,21.47.81,1.16,4.18.93,6.24.59.68-.11,1.36-2.62,1.35-4.02-.02-2.8-.52-5.6-.79-8.13ZM221.1,274.33c-13.15-.94-26.72-7.82-39.43,2.67,11.67,8.69,26.47,7.79,39.43-2.67ZM170.55,97.77c-7.98-.8-15.29-1.53-23-2.31,0,4.69-.14,8.63.11,12.55.06.89,1.42,2.33,2.31,2.42,5.55.62,11.14.93,17.07,1.37,1.12-4.48,2.19-8.76,3.52-14.04ZM140.89,95.36c-7.91.83-15.34,1.61-23.09,2.42,1.38,5.32,2.49,9.6,3.68,14.18,2.77-.3,5.24-.47,7.68-.86,3.92-.64,9.58-.16,11.27-2.5,1.97-2.72.46-7.95.46-13.24ZM198.44,105.02c-6.37-1.74-13.01-3.66-19.74-5.27-.95-.23-2.98.89-3.29,1.79-1.25,3.71-2.02,7.59-3.03,11.64,2.61.64,4.68,1.16,6.75,1.66q12.78,3.09,19.41-8.54c.06-.11-.02-.3-.11-1.29ZM248.04,297.05c-.26,2.27-.83,5.23-.83,8.19,0,1.31.92,3.54,1.8,3.74,1.86.43,5.04.55,5.78-.52,4.62-6.66,9.06-13.5,12.81-20.68,1.3-2.49,1.05-6.24.42-9.17-.79-3.65-4.01-4.25-6.25-1.32-2.89,3.79-4.75,8.02-2.72,12.98.59,1.45.92,3,1.4,4.64-4.4.76-8.17,1.41-12.4,2.14ZM66.79,116.02c3.61,3.33,6.44,6.13,9.51,8.65.78.64,2.47.81,3.45.44,3.98-1.51,7.84-3.32,12.19-5.21-2.95-4.22-5.67-8.11-8.6-12.3-5.43,2.76-10.57,5.38-16.56,8.43ZM196.65,119.91c4.18,1.87,7.59,3.59,11.16,4.88,1.26.46,3.39.42,4.28-.36,2.81-2.45,5.21-5.36,8.19-8.54-5.28-2.68-10.49-5.33-15.9-8.08-2.71,4.23-5.09,7.96-7.74,12.1ZM134.25,314.08h19c-.2-3.44-.37-6.32-.54-9.14h-18.46v9.14ZM20.65,148.45c3.85-4.09,6.8-7.13,9.61-10.3.52-.59.89-2.02.55-2.54-3.61-5.38-7.38-10.64-11.1-15.94-.47.2-.93.4-1.4.59.74,8.95,1.49,17.89,2.34,28.19ZM256.57,136.66c3.5,3.83,6.74,7.36,10.89,11.9.8-10.46,1.49-19.54,2.18-28.62-.43-.1-.85-.2-1.28-.29-3.9,5.63-7.81,11.26-11.79,17.01ZM248.09,253.39c.37.09.73.19,1.1.28.83-3.97,2.56-8,2.31-11.9-.48-7.56-2.3-15.03-3.11-22.58-.36-3.39-1.62-5.05-5.19-5.44,1.65,13.39,3.27,26.52,4.9,39.64ZM45.1,213.5c-3.8.42-5.05,2.13-5.22,5.56-.34,6.79-.27,13.81-2.08,20.25-1.6,5.72.08,10.21,2.24,15.15,1.67-13.55,3.34-27.1,5.05-40.96ZM38.16,216.79c-2.36,1.07-4.17,1.9-5.95,2.7,1.08,5.67,2.05,10.8,3.03,15.93.2-.02.41-.03.61-.05.74-5.95,1.48-11.89,2.31-18.58ZM252.36,233.65c4.34-8.59,3.76-14.65-1.77-16.35.59,5.48,1.17,10.8,1.77,16.35Z"/>
    <path d="M135.94,254.72c-.43-1.32-1.51-2.81-1.2-3.93,2.02-7.37,4.27-14.68,6.63-21.95.34-1.06,1.68-1.79,2.56-2.68.86.92,2.13,1.69,2.5,2.78,2.48,7.23,4.86,14.51,7.01,21.84.29,1-.83,2.41-1.3,3.63-.88-.81-2.19-1.46-2.56-2.46-1.92-5.09-3.6-10.27-5.75-16.55-2.27,7.13-4.18,13.12-6.08,19.12-.61.07-1.21.14-1.82.21Z"/>
    <path d="M146.82,147.89c6.64,1.3,13.49,1.95,19.86,4.05,9.16,3.02,11.56,11.8,5.1,18.96-3.3,3.66-7.95,6.76-12.59,8.42-11.84,4.24-23.87,3.67-35.46-1.47-2.69-1.19-5.3-2.84-7.52-4.78-7.97-6.98-7.04-13.92,2.33-18.8,6.83-3.55,16.55-5.45,28.28-6.38ZM146.64,175.72c2.7-.49,7.27-.81,11.45-2.24,3.33-1.14,6.75-3.13,9.15-5.66,4.52-4.77,3.31-9.15-2.95-10.84-13.88-3.74-27.74-3.28-41.15,2.06-6.66,2.65-6.84,5.82-1.02,10.18,6.73,5.05,14.7,5.83,24.51,6.51Z"/>
    <path d="M167.42,349.3c-.9,1.22-1.53,3.01-2.73,3.56-6.19,2.8-12.52,5.3-18.82,7.87-.6.25-1.41.57-1.93.37-7.23-2.85-14.45-5.72-21.59-8.79-.64-.28-.7-1.92-1.03-2.93,1.02-.22,2.17-.88,3.02-.6,3.31,1.09,6.62,2.25,9.73,3.79,6.57,3.27,12.88,3.29,19.48-.08,3.92-2,8.24-3.19,12.38-4.75.49.52.98,1.04,1.47,1.56Z"/>
  </g>
</svg>