<?xml version="1.0" encoding="UTF-8"?>
<svg id="Ebene_2" xmlns="http://www.w3.org/2000/svg" viewBox="0 0 294.46 605.19">
  <g id="Ebene_4">
    <path d="M267.91,276.97c1.89.54,3.31.96,4.73,1.35,8.17,2.27,12.51,7.72,13.46,16.07,1.12,9.85-.78,19.27-4.31,28.36-1.2,3.09-.72,4.93,1.83,6.73,1.49,1.05,2.74,2.42,4.08,3.67,9.01,8.4,8.66,6.74,1.02,16.42-4.41,5.59-8.99,11.05-14.31,17.56-3.46-6.84-6.44-12.71-9.42-18.58-.61.14-1.22.27-1.83.41,0,1.97-.54,4.13.09,5.88,4.4,12.32,9.06,24.56,13.57,36.84.55,1.5.98,3.15.97,4.74-.22,57.65-.5,115.3-.83,172.95,0,1.54-.72,3.08-1.11,4.61-1.66-.53-3.62-.65-4.92-1.65-12.82-9.79-25.54-19.71-38.28-29.62-1.04-.81-1.97-1.74-3.38-3-5.02,6.16-10.12,12.01-14.73,18.23-2.69,3.63-5.44,4.81-9.71,3.11-3.82-1.52-7.84-2.54-12.09-3.88-.61,3.48-1,6.57-1.72,9.58-2.8,11.82-11.05,18.29-23.21,18.84-2.22.1-5.03,1.12-6.45,2.71-3.86,4.32-7.19,9.13-10.62,13.83-2.93,4.02-4.64,4.1-7.46.08-2.01-2.86-4.02-5.72-5.96-8.63-3.58-5.36-7.79-8.51-14.99-8.62-9.97-.15-17.65-8.66-19.25-19.21-.37-2.44-.66-4.89-1.06-7.98-4.29,1.58-8.25,2.75-11.94,4.48-4.17,1.96-6.94,1.26-9.73-2.57-4.8-6.58-10.12-12.78-15.24-19.12-.09-.11-.31-.12-.37-.14-8.5,6.99-16.83,14.11-25.46,20.85-5.37,4.19-11.14,7.89-16.83,11.65-4.04,2.67-5.49,1.96-5.51-2.63-.29-57.98-.55-115.97-.75-173.95,0-1.57.35-3.35,1.13-4.68,6.71-11.43,11.79-23.48,14.11-36.57.35-1.95-.45-4.11-.72-6.17-.58-.07-1.16-.13-1.74-.2-2.92,5.82-5.84,11.63-9.28,18.48-6.95-8.54-13.34-16.17-19.37-24.07-.73-.96-.12-3.94.89-5.07,3.54-3.95,9.54-6.95,10.77-11.37,1.21-4.34-2.6-9.93-3.59-15.08-.87-4.55-1.26-9.26-1.18-13.89.18-10.56,4.56-16.21,14.54-19.61,1.39-.47,2.77-.95,4.35-1.49-4.68-21.24-6.68-42.57-5.93-64.12,1.26-35.79,5.71-71.09,19.05-104.61,3.96-9.95,9.99-19.1,15.41-28.42,1.63-2.81,3.96-5.86,6.75-7.23,6.4-3.16,7.87-9.3,10.86-14.72,5.7-10.33,11.74-20.47,17.89-30.54,2.99-4.89,7.64-7.56,13.35-8.84,8.59-1.93,17.11-4.23,25.55-6.75,2.35-.7,4.39-2.64,6.41-4.21,1.56-1.22,2.75-2.92,4.32-4.12,6.45-4.88,12.88-3.96,16.94,2.98,2.17,3.7,4.99,5.46,8.91,6.34,8.28,1.84,16.48,4.07,24.8,5.68,5.44,1.05,9.84,3.48,12.62,8.1,7.71,12.8,15.16,25.77,22.71,38.67.74,1.26,1.17,2.98,2.27,3.69,9.48,6.14,15.03,15.44,20.13,25.01,11.42,21.4,17.58,44.55,21.39,68.29,5.61,34.9,6.73,69.92.45,104.92-.59,3.26-1.32,6.5-2.09,10.23ZM121.19,340.15l1.55,1.05c1.77-1.93,4.86-3.72,5.1-5.83,1.44-12.4,2.28-24.87,3.14-37.33.11-1.64-.38-3.69-1.36-4.96-3.36-4.34-7.01-8.46-10.64-12.58-7.35-8.35-15.77-15.26-26.1-19.7-4.87-2.1-9.52-2.4-14.42-.02-5.39,2.61-10.9,5-16.48,7.16-1.28.5-3.07-.33-4.63-.55.88-1.33,1.47-3.25,2.71-3.89,4.43-2.29,9.25-3.85,13.61-6.25,8.66-4.76,17.33-4.37,25.05,1.01,9.22,6.43,17.73,13.9,26.4,21.1,4.34,3.6,8.04,8.04,12.59,11.31,6.05,4.35,10.76,3.96,16.3-1,5.33-4.77,10.12-10.13,15.28-15.09,8.72-8.38,18.2-15.76,29.91-19.39,3.64-1.13,8.13-1.86,11.59-.76,7.88,2.52,15.41,6.21,22.97,9.66,1.08.49,1.55,2.33,2.3,3.55-1.55.18-3.32.94-4.6.44-5.12-1.97-10.22-4.08-15.08-6.62-6.99-3.66-13.61-3.03-20.55.2-12.87,5.99-22.54,15.84-31.99,25.96-.91.98-.96,3.1-.84,4.65,1.01,13.95,2.22,27.89,3.19,41.85.29,4.22,2.36,5.85,6.3,5.72.17-.36.39-.64.43-.95.1-.66.17-1.33.15-1.99-.29-11.15,3.41-19.5,15.23-22.58,1.93-.5,3.53-2.27,5.71-3.74-5.82-3-10.58-5.3-15.19-7.89-2.36-1.33-3.99-3.42-1.65-6.11,7.86-9.03,16.77-15.17,29.82-13.94,10.89,1.03,21.93.6,32.9.44,1.74-.03,4.81-1.92,4.95-3.21,1.4-12.56,2.36-25.17,3.25-37.78.08-1.15-1.04-2.52-1.87-3.57-1.13-1.41-2.41-2.76-3.82-3.87-1.8-1.41-3.7-3.46-5.74-3.69-18.36-2.12-36.76-3.87-55.13-5.84-2.04-.22-4.03-1.08-6.01-1.73-2.08-.68-4.11-2.07-6.19-2.11-11.49-.25-23-.41-34.49-.14-5.89.14-12.34-2.14-17.47,3.01-.47.47-1.6.3-2.42.38-15.08,1.53-30.16,2.98-45.23,4.62-7.69.83-15.84.18-20.96,8.4-1.31,2.11-2.85,3.59-2.68,6.26.75,11.78,1.45,23.57,2.06,35.37.16,3.08,1.4,4.46,4.57,4.4,10.3-.21,20.77.78,30.88-.69,13.59-1.98,23.13,3.74,31.82,12.79,2.62,2.73,2.35,5.08-.81,6.88-3.46,1.97-7.09,3.64-10.65,5.43-1.39.69-2.8,1.34-4.2,2.01-.05.54-.11,1.07-.16,1.61,2.74,1.24,5.39,2.79,8.25,3.66,7.98,2.43,12.21,7.66,12.76,15.94.2,2.98.39,5.95.58,8.93ZM112.64,367.44c-8.02,4.99-14.98,9.51-22.14,13.69-3.08,1.8-3.75,3.69-3.09,7.25,4.04,21.9,8.42,43.78,11.26,65.85,1.26,9.77,4.53,15.2,14.05,18.43,10.71,3.64,20.95,8.38,32.54,8.69,13.46.35,25.19-4.87,37.1-10.27,6.93-3.14,11.99-6.38,11.1-14.98-.26-2.55.72-5.24,1.17-7.86,3.45-20.49,6.94-40.98,10.29-61.49.26-1.62.22-4.32-.72-4.94-6.88-4.51-14.02-8.61-20.49-12.48-2.18,3.99-3.41,7.74-5.83,10.41-7.25,8.01-16.47,13.34-26.16,17.95-3.54,1.68-6.62,1.44-9.87-.59-4.37-2.73-9.13-4.91-13.24-7.97-7.2-5.34-15.95-9.66-15.97-21.69ZM84.01,377.86c8.37-4.82,16.33-9.61,24.51-14,2.95-1.58,3.84-3.41,3.77-6.65-.08-3.91-.47-8.44,1.26-11.63,5.37-9.91,1.75-21.55-8.69-25.44-4.34-1.62-8.96-2.87-10.67-8.1-.24-.75-1.72-1.53-2.63-1.55-8.98-.16-16.14-4.41-23.07-9.6-6.12-4.59-12.59-8.71-19.78-13.63,1.01,13.64,1.89,26.08,2.89,38.51.36,4.45-.19,9.53,1.78,13.19,7.93,14.72,18.73,27.34,30.64,38.91ZM199.82,310.56c-2.86,6.05-3.35,6.16-11.72,10.15-3.1,1.48-7.26,3.8-8,6.53-1.62,5.97-4.86,12.69,1.34,18.52,1.1,1.03,1.2,3.4,1.3,5.18.2,3.48-.25,7.03.2,10.47.23,1.78,1.42,4.04,2.87,4.95,5.79,3.59,11.92,6.62,17.79,10.07,2.83,1.66,4.91,1.84,7.26-.91,6.92-8.08,14.18-15.87,21.07-23.97,5.32-6.25,8.27-13.49,8.35-21.91.04-4.63,1.01-9.25,1.45-13.89.86-9.04,1.64-18.1,2.49-27.57-15.55,7.1-25.81,23.2-44.41,22.39ZM115.93,80.58c-7.23,2.24-14.4,4.25-21.4,6.75-2.08.74-4.54,2.48-5.36,4.39-5.77,13.39-11.74,26.75-16.48,40.51-3.84,11.14-4.44,22.97-3.44,35.36,16.16-4.56,31.82-8.89,47.38-13.54,1.23-.37,2.46-2.89,2.57-4.48,1.13-17.26,1.49-34.59,3.27-51.78.79-7.62-2.11-12.55-6.53-17.22ZM123.69,164.46c16.63-9.61,32.24-12.49,47.58,2.15,0-2.54.05-3.47,0-4.4-1.4-21.77-2.78-43.55-4.24-65.32-.72-10.71-8.07-17.88-18.83-18.56-10.32-.66-19.64,7.47-20.4,17.76-.44,5.98-1.02,11.95-1.36,17.93-.94,16.28-1.78,32.57-2.74,50.44ZM224.58,167.32c0-7.27.62-14.11-.12-20.81-2.11-19.32-9.77-36.82-18.6-53.89-1.59-3.07-3.52-4.7-6.94-5.55-6.88-1.71-13.6-4.03-20.86-6.25-1.78,4.29-6.9,7.25-6.21,14.14,1.86,18.53,2.67,37.17,4.17,55.74.12,1.52,2.03,3.7,3.54,4.18,7.44,2.36,15.02,4.25,22.56,6.31,7.49,2.05,14.97,4.1,22.45,6.14ZM230.21,535.09c15.62-40.23,32.96-162.67,26.82-181.15-3.95.24-7.84.47-11.51.7-1.52,10.58-2.72,20.83-4.52,30.97-2.67,15.04-5.07,30.22-13.49,43.53-.71,1.12-.61,2.88-.59,4.33.38,22.31.64,44.61,1.28,66.91.33,11.58,1.32,23.14,2.01,34.71ZM62.11,535.54c.47,0,.94-.01,1.41-.02.82-13.73,2.21-27.46,2.34-41.19.2-21.32-.45-42.64-.78-63.96-.02-1.14.02-2.46-.52-3.38-7.57-13.12-10.03-27.75-12.54-42.34-1.72-9.94-2.94-19.97-4.41-30.13h-10.8c-.17,61.7,7.47,122.07,25.3,181.02ZM136.08,298.55c-.74,10.3-1.53,21.07-2.29,31.84-.52,7.31-.88,14.63-1.6,21.92-.12,1.2-1.7,2.25-2.6,3.37-.8-1.22-2.05-2.35-2.3-3.67-.39-2.06-.1-4.26-.1-6.47-8.98,2.06-9.53,2.67-9.21,11.29.17,4.49.42,8.99,1.02,13.44.27,2.03,1.48,3.94,2.97,7.68,4.68-11.34,10.74-8.31,17.24-4.87,6.18,3.27,12.43,2.44,18.67-.63,8.49-4.19,8.57-4.02,14.58,3.22.17.21.59.21,1.66.54.7-1.88,1.82-3.75,2.03-5.72.52-4.79.75-9.62.86-14.44.17-7.17-2.3-9.69-9.93-10.25,0,2.51.13,5.01-.08,7.48-.06.71-1.13,1.9-1.69,1.87-.94-.04-2.35-.66-2.66-1.42-.56-1.32-.48-2.92-.59-4.41-1.36-17.75-2.71-35.49-3.98-52.08-7.29.43-14.23.85-21.99,1.31ZM267.84,179.79c-3.32-26.39-9.12-50.98-18.98-74.61-2.68-6.42-6.06-10.19-13.54-10.73-8.15-.59-16.19-2.7-24.38-4.17,0,.66-.06.85,0,.98,12.28,23.47,20.49,47.95,19.16,74.92-.05,1.06,1.15,2.9,2.13,3.19,11.56,3.52,23.19,6.83,35.6,10.41ZM26.55,179.88c11.36-3.27,21.63-6.47,32.03-9.11,4.25-1.08,5.85-2.76,5.67-7.34-.73-18.05,2.91-35.37,9.83-52,2.91-6.99,6.12-13.85,9.42-21.27-10.13,1.91-19.69,3.85-29.31,5.44-3.48.57-5.5,2.07-7.02,5.27-8.01,16.79-12.7,34.58-16.21,52.72-1.63,8.41-2.85,16.91-4.41,26.3ZM172.52,520.48c-8.41,12.27-16.51,24.09-25.22,36.8-8.81-12.6-17.07-24.41-25.22-36.06,0,15.76-.21,31.21.11,46.65.11,5.32,2.36,10.49,7.84,12.32,5.55,1.85,8.83,5.67,11.73,10.21,1.66,2.6,3.22,5.28,5.22,8.59,1.49-2.4,2.64-4.16,3.71-5.97,3.31-5.63,6.85-10.67,13.49-13.34,2.87-1.15,5.18-5.07,6.53-8.25,1.38-3.25,1.69-7.12,1.74-10.74.19-13.2.07-26.41.07-40.21ZM191.46,472.76c-14.65,7.42-28.62,14.08-44.56,14.06-16.02-.02-30.2-6.7-45.03-13.62,1.12,12.04,2.14,23.05,3.17,34.13,28.16,3.92,55.9,3.83,83.68-.22.91-11.37,1.77-22.28,2.73-34.35ZM241.22,353.63l-1.92-.64c-1.04,1.22-2.05,2.47-3.14,3.64-7.33,7.96-14.75,15.82-21.94,23.9-1.66,1.86-3.21,4.27-3.68,6.65-2.66,13.38-5.08,26.82-7.37,40.27-1.35,7.92-2.3,15.9-3.6,25.05,1.74-1.32,2.37-1.77,2.98-2.27,15.99-12.93,26.61-29.26,30.5-49.55,3-15.63,5.47-31.37,8.17-47.05ZM93.26,452.41c-.3-2.84-.37-4.32-.62-5.77-2.84-16.21-6-32.37-8.48-48.64-1.5-9.87-4.6-18.32-12.83-24.75-4.26-3.33-7.43-8.05-11.01-12.22-2.32-2.69-4.48-5.51-6.72-8.28-.72,3.14-.67,5.93-.29,8.67,1.19,8.57,2.23,17.17,3.84,25.66,2.75,14.55,5.66,29.14,13.9,41.86,5.7,8.81,12.4,16.74,22.21,23.46ZM30.42,379.1c-8.6,9.6-9.83,20.17-9.68,31.69.63,50.94.67,101.9.95,152.85,0,1.24.24,2.47.45,4.48,4.49-3.14,8.33-6,12.34-8.57,2.22-1.42,2.15-2.89,1.84-5.35-2.58-20.11-6.16-40.21-6.91-60.41-1.13-30.42-.28-60.91-.11-91.37.04-7.61.72-15.22,1.13-23.34ZM263.34,375.4c.73,20,1.55,38.62,2.07,57.25,1.14,40.84.22,81.57-7.91,121.82-.23,1.14-.19,3.02.5,3.56,4.38,3.39,8.98,6.5,14.21,10.19,0-2.43,0-3.75,0-5.06.28-51.79.14-103.58,1.14-155.36.23-11.99-4.29-21.35-10.01-32.4ZM162.29,16.16c4.56,11.12,9.4,21.39,12.92,32.09,2.5,7.6,5.85,11.5,14.54,11.89,10.01.45,19.91,3.08,30.43,4.85-6.6-13.99-13.38-27.41-23.17-39.04-1.01-1.2-2.62-2.22-4.13-2.6-9.96-2.46-19.97-4.72-30.59-7.19ZM74.19,65.28c1.67-.21,2.78-.29,3.87-.49,8.5-1.52,16.95-3.98,25.5-4.36,9-.39,13.09-3.91,15.38-12.62,2.84-10.8,7.57-21.11,11.6-31.93-10.06,2.58-19.85,4.99-29.56,7.69-1.79.5-3.62,1.85-4.83,3.31-9.44,11.35-15.66,24.55-21.95,38.4ZM118.09,172.88c-17.11,5.29-33.54,10.36-50.63,15.64,5.89,11.58,11.42,22.46,16.98,33.39,9.11-.89,18.36-1.92,27.63-2.64,2.83-.22,3.6-1.34,3.7-4,.36-9.98.89-19.95,1.41-29.92.21-3.93.56-7.86.9-12.48ZM177.28,173.07c.93,15.98,1.8,30.99,2.69,46.24,10.46,1.01,20.48,1.97,30.17,2.91,5.66-11.26,11.12-22.12,16.91-33.66-16.89-5.26-32.83-10.21-49.77-15.48ZM136.44,15.29c-5.76,14.58-11.2,28.37-16.74,42.38h55.03c-3.25-8.06-6.38-15.79-9.73-24.09-4.92,4.59-8.05,2.29-11.38-1.25-5.22-5.55-10.81-10.76-17.19-17.04ZM41.11,555.06c5.29-4.58,9.69-8.57,14.3-12.31,2.59-2.1,2.84-4.18,1.9-7.33-8.17-27.43-14.81-55.21-18.73-83.6-1.5-10.84-2.74-21.71-4.09-32.57-1.05,45.06-1.06,90.05,6.62,135.8ZM259.93,421.35c-2.29,15.41-3.65,29.88-6.7,43.99-5.06,23.39-11.22,46.53-16.84,69.8-.4,1.66-.99,4.29-.17,5.08,5.04,4.83,10.47,9.26,16.49,14.44,7.49-44.84,8.01-88.56,7.22-133.3ZM169.86,84.36c2.29-3.3,4.88-6.35,6.69-9.81,2.64-5.03.35-11.26-3.91-11.29-16.94-.12-33.88-.14-50.81.11-1.41.02-3.56,2.1-4.03,3.64-2.34,7.64,2.67,12.24,7.27,17.08,15.94-15.35,30.35-13.74,44.79.27ZM149.91,174.75l-.72.87c5.89,9.94,11.83,19.86,17.63,29.86.91,1.58,1.22,3.51,1.8,5.28-1.7.49-3.39,1.37-5.09,1.39-11,.12-22,.09-33,0-1.72-.01-3.43-.58-5.8-1.02,7.07-12.55,13.79-24.46,20.5-36.36-7.5,3.34-14.43,7.45-21.25,11.73-.82.51-1.45,1.91-1.52,2.94-.57,8.42-.99,16.86-1.48,25.65h53.2c-1.01-12.81,3.35-27.35-13.78-33.3-1.05-.37-1.86-1.38-2.83-2.03-2.54-1.69-5.1-3.34-7.66-5.01ZM250.66,308.11c.46-.11.92-.22,1.38-.33.35-2.09.43-4.26,1.11-6.23,1.12-3.25,2.11-6.75,4.09-9.46,4.23-5.76,10.84-5.33,14.94.55,3.17,4.54,3.38,9.74.91,14.24-4.13,7.52-8.81,14.81-13.97,21.66-1.96,2.59-5.88,3.71-8.92,5.48-.79.46-2.31.77-2.35,1.25-.32,3.73-.37,7.49-.5,11.25,3.53-.72,7.07-1.42,10.58-2.19.42-.09.77-.62,1.11-.98,10.28-11.17,18.07-23.85,22.48-38.39.98-3.23.79-6.94.55-10.39-.44-6.1-4.41-10.65-10.3-12.04-8.09-1.91-14.59,1.75-20.66,6.44-.67.51-1.02,1.72-1.11,2.64-.39,4.31-.77,8.64-.85,12.96-.02,1.18.98,2.37,1.52,3.56ZM42.64,308.72l1.73-.8c-.36-5.42-.56-10.85-1.17-16.24-.17-1.45-1.28-3.43-2.5-4.01-4.59-2.15-9.27-4.73-14.17-5.47-7.22-1.1-12.72,3.52-14.72,10.64-2.01,7.18-.65,14.15,2.86,20.26,5.87,10.21,12.55,19.96,18.92,29.87,3.13,4.86,7.67,5.03,12.91,3.85-.16-3.05-.45-5.86-.42-8.66.04-3.21-1.3-4-4.48-4.3-2.82-.27-6.19-1.6-8.06-3.62-3.58-3.88-6.75-8.33-9.19-13.02-2.5-4.8-4.5-10.02-5.64-15.3-1.32-6.07,3.18-12.45,8.45-13.51,5.12-1.03,9.71,2.71,11.41,9.48.57,2.25.52,4.68,1.24,6.86.49,1.47,1.84,2.65,2.8,3.96ZM181.08,63.16c.21,3.88.79,6.26.36,8.43-.92,4.65,1.36,6.1,5.36,6.96,9.41,2.03,18.72,4.54,28.14,6.47,8.15,1.67,16.42,2.79,26.1,4.4-6.01-7.19-9.23-15.37-17.67-17.44-13.67-3.35-27.56-5.81-42.28-8.83ZM113.18,64.18c-15.28,1.6-30.1,3.64-44.18,8.89-7.46,2.79-10.85,9.96-14.85,16.45,15.98-2.84,31.59-6.07,47.08-9.78,11.51-2.75,11.44-3.03,11.95-15.56ZM120.47,580.72c-.98-4.29-2.36-7.79-2.48-11.33-.5-14.79-.73-29.6-.84-44.41-.08-10.96.07-10.96-10.78-12.47-.27-.04-.58.2-1.23.45.49,15.16.92,30.44,1.53,45.71.13,3.3.53,6.68,1.43,9.85,1.73,6.16,5.85,10.16,12.38,12.21ZM176.86,513.75c0,14.19.35,27.84-.13,41.46-.29,8.31-1.86,16.57-2.83,24.63,5.58-.42,11.62-5.93,12.07-13.61,1.02-17.6,1.37-35.23,1.97-52.85,0-.25-.35-.52-.63-.91-3.2.39-6.47.79-10.44,1.27ZM125.81,514.57c7.29,10.8,14.1,20.9,21.35,31.63,7.19-10.9,13.89-21.06,20.86-31.63h-42.21ZM71.04,492.44c-.72,12.53-1.45,25.08-2.19,37.9,11.12,2.21,21.81,4.34,33.23,6.62-.31-5.95-.57-11.05-.84-16.17-1.78.34-3.39,1.12-4.77.83-5.52-1.18-11.05-2.45-16.39-4.24-1.39-.47-2.95-2.95-2.97-4.52-.05-4.47.7-8.94,1.06-13.41.55-6.77.35-6.94-7.14-7ZM99.46,493.15c-.83-7.2-1.56-13.76-2.4-20.3-.09-.68-.74-1.51-1.37-1.85-7.83-4.27-16.11-6.71-24.81-6.27,0,6.8-.11,13.25.12,19.7.04,1.01,1.46,2.6,2.5,2.85,8.35,2.04,16.77,3.83,25.96,5.88ZM222.93,464.71c-9.5-.28-17.38,2.7-25.16,6.01-.75.32-1.56,1.42-1.64,2.22-.72,7.01-1.27,14.03-1.92,21.49,9.23-3.69,17.85-7.05,26.38-10.65,1.05-.44,2.19-2.08,2.24-3.22.24-5.11.11-10.23.11-15.86ZM216.75,491.02c.77,6.53,1.38,12.8,2.29,19.02.46,3.17-.41,4.94-3.58,5.9-5.72,1.74-11.32,3.88-17.04,5.59-1.65.49-3.57.08-5.45.08v14.02c10.9-2.6,21.32-5.09,31.72-7.57-.65-13.21-1.26-25.87-1.9-38.92-2.32.72-4.02,1.25-6.03,1.88ZM62.84,190.07c-10.97,3.32-20.73,6.77-29.2,13.09-2.78,2.08-4.85,5.15-1.53,7.86,5.67,4.62,11.93,8.52,18.25,12.93,4.3-11.68,8.23-22.33,12.48-33.87ZM244.18,223.85c6.17-4.35,11.88-8.29,17.49-12.37,2.89-2.1,2.99-4.43.22-6.95-8.44-7.7-19.04-10.6-30.57-14.69,4.56,12.07,8.63,22.84,12.86,34.01ZM224.39,182.95c0-3.03.24-5.53-.1-7.94-.16-1.13-1.24-2.75-2.24-3.06-14.91-4.61-29.87-9.04-45.27-13.64,0,1.91.18,3.23-.03,4.48-.82,4.8,1.46,6.66,5.96,7.66,5.99,1.33,11.81,3.45,17.7,5.23,7.9,2.39,15.8,4.78,23.98,7.26ZM230.28,174.38c-1.51,9.56-1.28,9.84,7.22,12.82,11.83,4.15,24.11,7.56,32.28,18.74-.32-5.88-.44-11.37-1.03-16.8-.16-1.42-1.52-3.5-2.78-3.9-11.83-3.79-23.75-7.28-35.69-10.87ZM70.08,182.42c14.21-4.22,27.88-8.23,41.51-12.32,7.4-2.22,8.11-3.57,6.52-11.93-7.95,2.34-15.89,4.65-23.81,7.03-8.06,2.42-16.11,4.91-24.23,7.38v9.85ZM24.79,205.18c4.65-3.68,8.85-7.97,13.88-10.75,6.04-3.33,12.75-5.51,19.26-7.92,6.98-2.58,7.86-4.01,6.1-12.03-10.64,3.18-21.21,6.52-31.89,9.44-4.37,1.2-6.85,2.95-6.63,7.98.2,4.6-.47,9.24-.72,13.27ZM67.31,534.19c.88,2.38,1.05,3.91,1.87,4.9,4.77,5.76,9.61,11.47,14.63,17.01.76.84,2.81,1.27,3.93.9,4.25-1.4,8.72-2.68,12.36-5.12,1.59-1.07,1.73-4.8,1.85-7.35.05-1.08-1.47-2.99-2.57-3.25-10.16-2.41-20.38-4.54-32.07-7.08ZM225.74,534.09l-1.44-1.08c-9.68,2.23-19.38,4.33-28.99,6.83-1.23.32-2.75,2.8-2.66,4.18.19,2.78-2.16,6.62,2.26,8.17,3.6,1.26,7.25,2.49,10.97,3.23,1.39.27,3.53-.46,4.52-1.51,4.44-4.71,8.68-9.62,12.79-14.62,1.19-1.45,1.72-3.44,2.55-5.19ZM123.56,180.15c3.42-1.92,6.88-3.52,9.96-5.67,9.21-6.44,17.75-6.88,26.41,1.3,3.18,3.01,7.6,4.71,11.67,7.13,1.46-7.09.22-11.79-6.31-13.96-1.68-.56-3.19-1.78-4.65-2.86-6.63-4.91-13.75-5.31-21.25-2.43-3.1,1.19-6.23,2.31-9.28,3.62-7.26,3.13-7.62,3.88-6.55,12.87ZM253.47,240.81c-2.77,19.01.54,29.95,10.61,33.22,1.34-8.94,2.72-17.72,3.87-26.53.12-.89-1.01-2.54-1.91-2.86-4.02-1.44-8.16-2.53-12.57-3.84ZM40.56,240.92c-5,1.57-9.68,3.03-14.97,4.69,1.66,9.87,3.26,19.36,4.88,28.98,9.65-3.01,13.06-16.49,10.09-33.67ZM183.73,298.58c10.66,7.32,33.19,3.77,40.21-6.39-5.89-.89-11.64-1.59-17.31-2.66-9.6-1.81-16.51,2.66-22.9,9.05ZM68.99,292.27c10.56,10.7,29.91,13.65,39.95,6.66-10.98-14.9-25.48-8.59-39.95-6.66ZM196.33,517.94c6.14-2.17,11.27-3.93,16.34-5.85.76-.29,1.78-1.42,1.71-2.07-.57-5.65-1.36-11.28-2.15-17.38-5.94,2.47-11.04,4.43-15.96,6.77-1.17.55-2.57,2.45-2.45,3.58.51,4.83,1.55,9.61,2.5,14.95ZM129.62,374.81c-2.73,3.49-2.42,5.65,1.37,7.77,3.58,2,6.9,4.62,9.95,7.4,4.04,3.68,7.85,3.6,12.05.5,3.74-2.76,7.37-5.76,11.43-7.97,4.24-2.3,4.1-4.47.94-7.74-11.91,7.67-23.89,7.11-35.73.04ZM44.93,316.01c-2.88-.98-4.76-1.67-6.68-2.23-.86-.25-1.84-.48-2.68-.31-3.44.67-3.41-1.01-3.05-3.69.48-3.56,1-7.29.38-10.74-.39-2.13-2.82-5.42-4.43-5.48-3.41-.12-5.35,3.25-4.55,6.36,1.41,5.51,3.41,10.93,5.78,16.1,1.35,2.94,4.38,5.1,5.83,8.02,2.41,4.87,5.85,4.99,10.2,3.53-.3-4.36-.59-8.47-.8-11.55ZM100.62,498.66c-6.37-1.42-11.64-2.59-16.92-3.77-3.84,18.31-3.04,19.67,12.44,22.07.14.02.3-.1,1.43-.5.93-5.43,1.95-11.36,3.05-17.8ZM247.19,328.9c2.84-.95,5.55-.99,6.56-2.33,5.58-7.37,12.84-13.79,14.78-23.38.5-2.47.39-5.38-.44-7.72-1.15-3.23-3.67-3.85-6.02-.84-3.08,3.94-4.9,8.16-3.15,13.41.5,1.5.03,4.72-.78,5.02-3.02,1.12-6.38,1.34-10.05,1.98-.26,3.96-.55,8.35-.92,13.86ZM55.27,225.53c8.44-1.05,16.06-2,24.34-3.03-4.73-8.78-9.11-16.88-13.89-25.76-3.66,10.09-6.91,19.05-10.45,28.79ZM215.2,222.76c8.43,1,15.9,1.89,24.23,2.88-3.77-9.72-7.21-18.61-10.97-28.31-4.59,8.79-8.7,16.67-13.26,25.43ZM161.28,207.08c-4.9-8.41-9.37-16.08-14.23-24.4-4.76,8.52-9.09,16.25-13.65,24.4h27.88ZM160.62,29.92c.44-.39.88-.79,1.32-1.18-2.67-6.21-5.05-12.57-8.13-18.57-1.24-2.41-4.07-5.7-6.06-5.62-3.06.12-6.03,2.8-9.66,4.73,8.29,7.59,15.41,14.11,22.54,20.64ZM277.66,332.61c-8.55,9-8.64,12.08-.68,19.78,3.37-3.77,6.73-7.54,10.29-11.52-3.38-2.91-6.36-5.47-9.61-8.26ZM5.44,341.82c3.87,3.3,7.25,6.2,10.63,9.09.59.51,1.2,1,1.81,1.51,6.37-9.1,6.23-10.47-1.9-19.71-2.98,2.57-5.95,5.14-10.55,9.11ZM197.46,464.76c8.37-1.83,16.51-3.61,24.81-5.43v-6.01c-12.32-1.41-21.67,3.02-24.81,11.44ZM42.97,234.45c-6.42-4.13-11.79-7.58-18.33-11.8.42,6.65.73,11.65,1.08,17.14,5.82-1.8,10.72-3.32,17.25-5.34ZM70.13,454.44v4.69c8.6,1.78,16.86,3.49,24.77,5.14-4.55-8.87-13.49-12.6-24.77-9.82ZM268.45,239.46c.32-5.57.6-10.39.96-16.65-6.05,4-10.96,7.25-15.87,10.5.16.53.33,1.06.49,1.59,4.49,1.42,8.98,2.84,14.43,4.56ZM248.38,232.53c6.12-3.91,11.04-7.32,16.21-10.29,5.77-3.32,6.44-4.53,4.76-10.5-2.45,2.05-4.99,4.4-7.76,6.44-4.02,2.94-8.21,5.64-12.31,8.47-3.52,2.42-3.16,4.6-.9,5.89ZM24.94,211.66c-1.6,6.46-.92,7.48,5.27,10.86,5.27,2.87,10.16,6.43,15.65,9.97,3.33-2.19,3.42-2.9-.63-5.81-2.96-2.13-6.19-3.88-9.11-6.06-3.95-2.95-7.71-6.15-11.19-8.95ZM70.13,448.9h10.06c-3.58-3.82-6.45-6.88-10.06-10.73v10.73ZM212.81,448.96c3.75-.28,6.41-.48,8.97-.67v-8.95c-3.12,3.35-5.65,6.06-8.97,9.63ZM251.31,281.58c2.25-1.03,3.9-1.78,5.89-2.69-2.13-1.88-3.78-3.35-5.89-5.22v7.91Z"/>
    <path d="M146.55,254.75c-1.2,4.76-2.27,9.56-3.7,14.25-.38,1.25-1.91,2.14-2.92,3.19-.61-1.48-1.99-3.14-1.7-4.41,1.73-7.43,3.76-14.79,5.93-22.1.35-1.17,1.87-2.7,2.9-2.74,1.01-.04,2.69,1.43,3.04,2.56,2.39,7.76,4.6,15.59,6.6,23.46.24.94-1.19,2.31-1.84,3.48-1-.8-2.59-1.41-2.92-2.42-1.61-5.03-2.88-10.17-4.27-15.28-.37,0-.75.01-1.12.02Z"/>
    <path d="M169.77,421.9c-3.16,0-6.38-.39-9.47.1-3.44.54-7.13,1.28-10.02,3.05-2.84,1.74-4.76,2.26-7.44.09-3.79-3.06-8.09-4-13.08-3.26-6.9,1.02-13.9,1.62-20.87,1.76-2.39.05-4.82-1.82-7.23-2.81,1.23-2.1,1.96-4.88,3.77-6.18,7.28-5.25,14.75-10.27,22.47-14.84,2.01-1.19,5.19-.49,7.84-.46.75,0,1.58.56,2.23,1.06,5.39,4.15,10.66,4.26,16.26.17,5.26-3.85,10.14-3.39,15.01,1.47,4.81,4.81,10.43,8.8,15.44,13.42,1.23,1.14,2.47,3.78,1.95,4.92-.58,1.27-3.15,2.18-4.9,2.25-3.97.15-7.97-.3-11.96-.51,0-.07,0-.15,0-.22ZM109.64,417.58l.31.82c5.39-.56,10.77-1.18,16.16-1.67,5.92-.53,11.78-1.59,17.52,1.68,1.62.92,4.55-.36,6.85-.77,3-.54,5.95-1.6,8.96-1.75,5.72-.28,11.47-.08,17.19-.08-.04-.16,0-.56-.18-.71-3.66-3.15-7.51-6.09-10.97-9.45-2.57-2.49-5.06-3.17-7.91-1.01-7.57,5.75-15.01,5.49-22.66.08-1.12-.79-3.47-1.19-4.51-.56-7.04,4.28-13.87,8.89-20.77,13.4Z"/>
    <path d="M146.04,447.17c-6.81,0-13.63.17-20.42-.14-1.44-.06-2.81-1.86-4.21-2.87,1.44-.76,2.89-2.22,4.31-2.19,13.46.29,26.92.75,40.36,1.44,1.44.07,2.79,1.92,4.17,2.94-1.43.81-2.83,2.26-4.29,2.32-6.63.25-13.28.11-19.93.11,0-.54,0-1.08,0-1.63Z"/>
    <path d="M127.93,486.57c2.03.35,4.11.56,6.04,1.22.22.08-.37,2.57-.59,3.94-2.04-.7-4.09-1.39-6.13-2.09.23-1.02.45-2.05.68-3.07Z"/>
    <path d="M161.78,485.97c1.98.31,3.97.62,5.95.92.19.55.37,1.09.56,1.64-1.86,1.02-3.72,2.03-5.57,3.05-.76-1.48-1.53-2.95-2.29-4.43.45-.4.9-.79,1.36-1.19Z"/>
    <path d="M186.5,482.03c-2.47,1.37-3.78,2.67-5.05,2.63-1.07-.03-2.11-1.6-3.16-2.48,1.21-.91,2.33-2.31,3.67-2.58.97-.19,2.24,1.13,4.54,2.43Z"/>
    <path d="M144.09,495.94c1.1-1.22,2.37-3.56,3.28-3.43,1.58.23,2.94,1.98,4.39,3.1-.14.44-.27.87-.41,1.31-2.13.13-4.26.26-6.38.39-.29-.46-.59-.92-.88-1.38Z"/>
    <path d="M113.59,486.62c-.78-.82-2.37-2.11-2.21-2.39.72-1.24,1.82-2.81,3.01-3.04.93-.18,3.05,1.37,3.13,2.29.13,1.43-1.02,2.98-1.62,4.48l-2.31-1.34Z"/>
    <path d="M92.72,207.42c-1.39,1.7-2.8,3.41-4.21,5.12-.55-.24-1.09-.49-1.64-.73.85-6.19,1.7-12.37,2.56-18.56.69-.18,1.39-.36,2.08-.53,2.27,4.5,4.54,9,6.94,13.74,1.89-5.22,3.7-10.21,5.51-15.19.68-.03,1.37-.05,2.05-.08,1.76,6.09,3.52,12.18,5.28,18.27-.59.38-1.18.77-1.77,1.15-1.56-1.64-3.11-3.28-4.95-5.22-1,3.32-1.85,6.59-3.03,9.73-.41,1.08-1.6,2.49-2.54,2.57-.91.08-2.33-1.16-2.85-2.16-1.35-2.63-2.34-5.45-3.43-8.1Z"/>
    <path d="M191.21,205.71c-1.71,1.96-3,3.43-4.29,4.91-.43-.22-.87-.44-1.3-.67-.27-6.49,1.75-12.47,4.28-18.34.55-.12,1.09-.24,1.64-.35,1.87,4.94,3.73,9.88,5.76,15.25,2.2-4.75,4.24-9.17,6.28-13.59.75.07,1.5.14,2.26.2.95,6.16,1.9,12.32,2.85,18.48-.82.59-1.64,1.18-2.46,1.77-1.12-1.79-2.23-3.59-3.54-5.69-1.1,2.78-1.97,5.4-3.18,7.85-.51,1.04-1.75,2.43-2.62,2.4-.95-.03-2.31-1.34-2.71-2.39-1.15-3.06-1.92-6.27-2.96-9.84Z"/>
    <path d="M67.04,210.88c.55,1.18,1.39,2.31,1.56,3.54.17,1.31-.21,2.74-.6,4.03-.05.15-2.34.07-2.53-.37-.53-1.18-.66-2.63-.61-3.96.03-.92.61-1.82.95-2.72.42-.17.83-.35,1.25-.52Z"/>
    <path d="M229.21,211.35c0,2.33.06,4.66-.13,6.97-.01.15-1.93.15-2.95.22l.32-7.24c.92.02,1.84.04,2.77.06Z"/>
    <path d="M153.45,204.09h-13.05c-.29-.45-.58-.9-.87-1.36,2.91-1.99,5.62-4.87,8.81-5.57,1.54-.34,3.99,3.43,6.02,5.35l-.92,1.58Z"/>
  </g>
</svg>