<?xml version="1.0" encoding="UTF-8"?>
<svg id="Ebene_2" xmlns="http://www.w3.org/2000/svg" viewBox="0 0 483.17 193.26">
  <g id="Ebene_7">
    <g>
      <path d="M75.01,0c1.09,3.5,2.19,7,3.33,10.67,4.18-2.39,8.25-4.73,12.29-7.04,4.11,3.62,6.52,14.55,5.49,24.89h-17.89c-.78-3.12-1.47-6.37-2.41-9.55-1.11-3.73-1.25-7.72-3.06-11.27-.2-.4-.09-1.02.03-1.5C73.32,4.12,73.89,2.06,74.44,0c.19,0,.38,0,.57,0ZM87.42,15.16c-1.01.39-2.88.82-4.41,1.79-2.87,1.8-2.12,4.14.15,5.87.44.33,1.03.51,1.58.65,2.51.67,6.56-.89,8.01-3.08.17-.26.31-.62.29-.92-.17-2.25-2.51-4.33-5.61-4.31Z"/>
      <path d="M409.39,0c.05.07.11.22.15.21,2.39-.07,2.8,1.73,3.63,3.43,1.46,3,1.02,5.65-.24,8.59-1.73,4.02-3.06,8.22-4.55,12.35-.06.18-.18.39-.14.55.12.43.31.85.48,1.27.33-.24.83-.41.97-.73,1.46-3.42,2.9-6.86,4.26-10.32.96-2.44,1.83-4.92,2.63-7.42.16-.49-.09-1.21-.34-1.73-.78-1.62-1.64-3.2-2.5-4.85,2.9-.47,3.73.07,4.55,2.57.74,2.26.81,4.48-.01,6.73-2.14,5.87-4.25,11.75-6.41,17.62-.12.31-.56.7-.86.71-1.8.07-3.61.03-5.63.03,1.14-4.75,2.19-9.29,3.32-13.82.61-2.45,1.35-4.87,2.02-7.3.07-.27.18-.59.1-.83-.74-2.36-1.51-4.71-2.27-7.06.29,0,.57,0,.86,0Z"/>
      <path d="M73.01,0c-.74,2.16-1.5,4.32-2.18,6.5-.11.36.05.83.16,1.24,1.73,6.84,3.46,13.68,5.29,20.89-2.08,0-3.91.03-5.75-.04-.29-.01-.7-.44-.82-.76-2.18-5.91-4.3-11.84-6.5-17.74-.81-2.18-.62-4.32,0-6.46.11-.38.37-.82.69-1,1.13-.67,2.33-1.24,3.5-1.85.14.12.27.23.41.35-.86,1.53-1.76,3.05-2.58,4.61-.21.4-.39.99-.25,1.37,2.22,6,4.48,11.98,6.77,17.95.13.33.63.51.95.75.14-.47.52-1.02.4-1.4-1.37-4.12-2.64-8.28-4.31-12.28-1.27-3.05-1.94-5.86-.33-9.01C69.15,1.75,69.53.33,71.28,0,71.86,0,72.43,0,73.01,0Z"/>
      <path d="M247.08,0c2.12,3.63,2.09,7.6,1.58,11.54-.37,2.85-1.23,5.64-1.94,8.44-.07.26-.6.57-.92.57-3.62.06-7.25.09-10.87.05-.35,0-.87-.45-1.02-.81-1.55-3.91-1.86-8.04-2.04-12.19-.13-2.81.52-5.38,2.3-7.61h12.9ZM246.33,17.98c0-1.89,0-3.49,0-5.1,0-.56-.25-1.3.02-1.65,1.33-1.79,1.1-3.79,1.02-5.78-.07-1.65-.92-2.8-2.46-3.35-2.93-1.04-5.92-1.06-8.82.01-.84.31-1.9,1.2-2.04,1.96-.32,1.79-.67,3.89-.02,5.45.76,1.8.62,3.46.66,5.21.02.72.06,1.43.05,2.15-.01.75.23,1.12,1.07,1.11,3.43-.03,6.85-.01,10.53-.01Z"/>
      <path d="M155.71,193.26H.4c-.45-1.77-.53-3.47-.2-5.31.61-3.47.94-6.99,1.34-10.49.18-1.6.26-3.21.39-4.96,50.91-.5,101.75.41,152.6-.42.39,6.95.77,13.98,1.17,21.18ZM97.43,185.87c0,.09,0,.19,0,.28,3.1,0,6.21.11,9.3-.05,1.16-.06,2.46-.51,3.4-1.19,1.99-1.46,1.51-3.77-.71-4.86-1.48-.73-2.97-.4-4.46-.46-6.34-.28-12.67-.53-19.01-.7-.71-.02-1.7.29-2.08.8-1.01,1.35-1.24,2.94-.64,4.61.38,1.07.97,1.62,2.19,1.6,4-.06,8.01-.02,12.01-.02ZM58.23,186.39c0-.16,0-.32,0-.48,3.58,0,7.15.02,10.73-.02.48,0,1.15-.15,1.4-.48,1.1-1.46,1.06-3.06.36-4.73-.63-1.5-1.69-1.77-3.2-1.7-6.95.32-13.91.55-20.86.8-1.47.05-3.21,1.14-3.52,2.25-.4,1.43.18,2.75,1.95,3.54,1.13.51,2.46.75,3.71.79,3.15.11,6.3.04,9.45.04ZM143.55,186.02c0,.06,0,.11,0,.17.57-.04,1.19.06,1.7-.15.51-.21,1.13-.62,1.31-1.09.64-1.63-.42-4.18-2.07-4.66-2-.59-4.07-1.16-6.13-1.24-3.85-.14-7.71.07-11.57.14-2.42.04-4.43,2.05-4.49,4.47-.04,1.65.64,2.39,2.27,2.42.9.01,1.81-.06,2.71-.07,5.42,0,10.84,0,16.27,0ZM7.57,186.7c.83,0,1.63.03,2.43-.01.42-.02.83-.27,1.24-.27,2.96-.02,5.91,0,8.87,0,3.23,0,6.45.01,9.67-.05.88-.02,1.89-.06,2.19-1.2.76-2.9-1.52-5.64-4.55-5.65-3.43,0-6.86-.3-10.29-.17-2.25.08-4.52.53-6.71,1.09-1.54.4-2.17,2.07-1.72,3.64,1.42-.19,1.44-2.88,3.56-2.01-.17.42-.37.75-.43,1.11-.06.34.03.71.06,1.07-3.87.15-3.99.22-4.34,2.46ZM36.08,180.98c.52,1.65.9,2.94,1.35,4.19.17.48.54.89.82,1.33.52-.44,1.23-.79,1.53-1.35.47-.87.7-1.89.98-2.86.09-.33.17-.84,0-1.05-.89-1.07-1.86-2.07-2.84-3.14-.72,1.13-1.38,2.17-1.83,2.88ZM113.56,181.49c1.3,1.21.3,4.24,2.89,4.69.64-1.66,1.22-3.19,1.93-5.03-.67-.91-1.61-2.16-2.38-3.2-.89,1.3-1.6,2.32-2.44,3.54ZM76.84,183.96c1.07-.75,1.99-1.62,1.7-2.91-.15-.66-.97-1.57-1.56-1.62-.55-.05-1.53.77-1.72,1.39-.4,1.33.55,2.26,1.57,3.14ZM77.27,186.56c.29-.34.77-.64.84-1.01.17-.9-.37-1.53-1.25-1.44-.42.04-1,.62-1.12,1.07-.26.98.48,1.17,1.53,1.39Z"/>
      <path d="M327.9,193.22c.62-6.91,1.23-13.67,1.88-20.79h149.81c1,6.77,3.08,13.57,3.58,20.79h-155.26ZM386.12,186.42c0-.15,0-.29,0-.44,3.67,0,7.35.02,11.02-.02.53,0,1.18-.19,1.55-.54,1-.95,1.03-3.26.31-4.87-.67-1.52-1.83-1.63-3.29-1.55-6.67.34-13.34.57-20.02.87-.96.04-1.92.22-2.85.46-1.05.27-1.73,1-1.85,2.12-.12,1.2.28,2.27,1.35,2.79,1.13.54,2.38,1.08,3.61,1.13,3.38.15,6.78.05,10.16.05ZM424.42,186.06c0,.08,0,.17,0,.25,3.25,0,6.5-.01,9.75,0,1.62,0,3.15-.26,4.38-1.43,1.24-1.18,1.35-2.98.07-3.88-.86-.6-1.97-1.13-3-1.18-6.82-.29-13.65-.43-20.48-.63-2.68-.08-4.36,2.11-3.65,4.78.36,1.34,1.05,2.14,2.61,2.1,3.44-.07,6.88-.02,10.32-.02ZM458.88,179.42s0,0,0,0c-1.38,0-2.76-.01-4.15,0-2.87.03-4.99,2.69-4.24,5.46.14.52.9,1.11,1.45,1.21,1.01.19,2.09.02,3.13.04,3.91.07,7.81.18,11.72.23.74,0,1.48-.22,2.22-.24,1.4-.04,2.81.04,4.21-.03.33-.02.78-.39.93-.71.75-1.59-.26-4.34-1.87-4.89-1.43-.49-2.93-.96-4.42-1.04-2.99-.16-5.99-.05-8.99-.05ZM339.83,184.39c-.75,0-1.6-.16-2.34.05-.63.18-1.21.74-1.66,1.26-.19.21-.07,1.09.01,1.1.67.11,1.37.16,2.06.11.51-.04,1-.38,1.51-.39,2.75-.05,5.51-.04,8.26-.05,3.49-.01,6.98-.03,10.46-.05,1.17,0,1.66-.59,1.76-1.77.19-2.31-1.52-5.3-4.85-5.08-2.74.18-5.51.09-8.26-.03-2.73-.12-5.43-.16-8.02.89-1.73.7-2.34,1.69-2.18,4,.63-.62,1.24-1.01,1.54-1.56.56-1.04,1.25-1.07,2.07-.71-.13.8-.24,1.48-.36,2.23ZM365.94,178.02c-.73,1.26-1.41,2.44-1.84,3.18.66,2.05,1.2,3.71,1.82,5.62.66-.43,1.53-.69,1.8-1.24.56-1.15.8-2.45,1.14-3.7.04-.16-.02-.4-.12-.53-.9-1.09-1.81-2.16-2.8-3.32ZM444.29,186.26c.71-1.63,1.36-3.15,2.11-4.89-.74-1.02-1.69-2.35-2.65-3.68-.2.03-.39.06-.59.1.51,1.76-.4,2.72-1.87,3.39,1.52,1.56.5,4.38,3,5.08ZM407.65,181.75c-.28-1.16-1.58-2.59-2.26-2.25-.68.34-1.34,1.15-1.55,1.88-.25.88,1.23,2.68,1.74,2.37.8-.48,1.4-1.32,2.08-2ZM405.09,186.6c1.06-.22,1.97-.17,1.67-1.34-.11-.44-.63-1.03-1.05-1.1-.91-.16-1.42.5-1.37,1.36.02.37.48.72.74,1.08Z"/>
      <path d="M311.72,163.49c.5,1.33.99,2.36,1.27,3.45.13.51.08,1.29-.23,1.64-1.26,1.45-1.37,2.88-.44,4.54.22.39.04,1.12-.19,1.6-.28.59-.86,1.03-1.16,1.62-.22.44-.29,1.01-.25,1.51.04.6.42,1.2.37,1.78-.22,2.33-.42,2.48-2.81,2.45-36.74-.39-73.47-.77-110.21-1.16-8.41-.09-16.82-.19-25.22-.29-1.63-.02-2.29-.95-1.47-2.33.69-1.18.52-2.05-.35-2.91-1.1-1.09-1.31-2.23-.27-3.48.93-1.12.23-2.08-.38-2.96-.68-.97-.82-1.72-.02-2.79.46-.61.32-1.68.47-2.67h140.89ZM183.61,175.58c.1-.45.17-.83.28-1.19,1.23-4.02,2.6-4.8,6.67-4.13,2.09.35,3.45,1.43,3.92,3.42.39,1.65,1.3,2.14,2.85,1.86.37-.07.76-.07,1.14-.04.94.08,1.45-.41,1.93-1.17,1.16-1.87.38-3.77.41-5.77-.7,0-1.22,0-1.74,0-5.72.01-11.44.03-17.17.03-2.67,0-2.67-.03-3.11,2.68-.48,2.97,1.08,4.7,4.01,4.43.24-.02.47-.07.81-.13ZM258.32,170.06v.07c-3.05,0-6.1-.02-9.15.03-.43,0-1.11.29-1.22.6-.33.93-.68,1.98-.54,2.91.16,1.12.08,2.68,1.55,3.06,2.31.6,3.1.01,3.59-2.29.39-1.83,1.02-2.46,2.91-2.5,1.23-.03,2.46.17,3.68.36,1.97.3,3.3,1.36,3.83,3.36.1.38.34.87.65,1.01,2.42,1.1,5.42-.79,5.51-3.45.01-.47-.18-.94-.16-1.41.06-1.49-.73-1.79-2.05-1.76-2.86.08-5.72.02-8.58.02ZM233.02,169.71c-1.59,0-2.97-.01-4.34,0-4.91.04-9.83.07-14.74.17-.48,0-1.24.4-1.36.78-.5,1.53-.49,3.06.33,4.56.72,1.31,1.84.59,2.8.7.88.1,1.09-.49,1.26-1.2.68-2.89,1.26-3.35,4.22-3.23,1.04.04,2.08.24,3.1.48,1.33.31,2.36,1.09,2.77,2.44.35,1.18,1.07,1.57,2.23,1.37.42-.07.86-.05,1.28-.09,1.77-.17,2.8-1.25,2.79-3.06,0-.89-.19-1.79-.32-2.92ZM302.73,169.87c-6.23,0-12.32,0-18.42.02-.29,0-.78.31-.83.55-.29,1.37-.69,2.68-.1,4.18.65,1.63,1.83,1.13,2.94,1.2,1.21.08.91-.94,1.21-1.55.44-.89.79-2.12,1.54-2.51,2.82-1.47,6.83.23,8.14,3.13.19.41.83.74,1.32.87.53.14,1.13-.04,1.71-.03,1.97.03,2.38-.93,2.73-2.94.16-.89-.15-1.87-.26-2.9ZM193.93,175.75c-.84-2.1-.94-4.15-3.31-4.71-2.42-.57-5.25,1.43-5.36,3.93-.01.25.45.73.7.74,2.56.06,5.13.03,7.97.03ZM261.93,176.75c-.35-3.01-2.07-4.15-5.62-3.86-1.79.14-2.71,1.47-2.63,3.86h8.25ZM238.92,176.35c1.14,0,1.95.06,2.74-.03.27-.03.71-.41.72-.64.05-2.21.03-4.43.03-6.71-1.35,0-2.9-.5-3.77,1.11,1.11,2.01,2.18,3.92.27,6.28ZM226.23,175.79c-.43-3.15-3.14-3.61-5.51-3.39-1.54.14-2.45,1.52-2.39,3.39h7.9ZM278.99,169.84c-1.67-.23-3.18-.42-4.26,1.09,1.21,1.73,1.18,3.6-.19,5.53h3.7c.24-2.16.49-4.31.75-6.62ZM296.25,175.75c-.63-2.67-2.35-3.77-5.09-3.42-1.63.2-2.49,1.43-2.4,3.42h7.49ZM208.09,175.98c.2-2.34.4-4.65.6-6.94-1.74-.31-3.16-.34-3.86,1.46,1.07,1.73,1.04,3.62-.27,5.26,1.17.07,2.24.14,3.53.22Z"/>
      <path d="M440.15,44.76c3.12.52,6.24,1.11,9.38,1.53,1.36.18,2.76.05,4.15,0,4.84-.16,8.29,2.4,11.19,5.87.72.87.96,2.14,1.42,3.23l-.24.35c-.67-.21-1.35-.4-2.02-.64-.49-.17-.95-.51-1.45-.58-.39-.06-.82.17-1.24.27.21.46.3,1.19.64,1.35,1.34.61,2.76,1.03,4.36,1.6-.17,1.63-.15,3.33-.62,4.88-.19.62-1.44.95-2.25,1.34-.71.34-1.12-.07-1.43-.71-.71-1.47-1.39-2.96-2.24-4.34-.26-.43-1.12-.84-1.57-.72-.93.25-.76.98-.32,1.71.83,1.37,1.59,2.78,2.55,4.48-1.33-.1-2.74.2-3.2-.33-1.16-1.33-2.06-2.96-2.73-4.61-.51-1.24-.42-1.45-2.1-1.45.02,2.33,1.2,4.17,2.54,6.23-1.32,0-2.43.03-3.54-.03-.24-.01-.56-.32-.68-.58-.86-1.8-1.67-3.62-2.53-5.43-.18-.38-.39-.83-.72-1.02-.36-.21-.87-.16-1.31-.22-.05.47-.28,1.01-.13,1.41.51,1.37,1.14,2.69,1.81,4.2-1.31-.12-2.45-.17-3.56-.36-.32-.06-.66-.49-.83-.83-.77-1.53-1.49-3.1-2.22-4.65q-.54-1.14-2.15-1.11c.79,2.13,1.56,4.19,2.35,6.32-1.07,0-2.19.07-3.31-.04-.32-.03-.73-.54-.87-.91-.74-2.02-1.4-4.06-2.08-6.09-.36-1.07-.97-1.61-2.31-1.05.77,2.63,1.54,5.26,2.34,8.02h-3.18c-1.33-5.09-2.68-10.3-4.04-15.5-.4-1.52-.77-3.05-1.25-4.55-.66-2.02-2.02-3.4-4.17-3.67-2.93-.38-5.88-.59-8.82-.86-.47-.04-.94,0-1.66,0,.83-3.31,1.59-6.49,2.43-9.65,1.94-7.34,3.88-14.67,7.15-21.57.39-.82.86-1.27,1.75-1.44,1.82-.34,3.62-.78,5.48-1.18.57,1.36,1.2,2.61,1.58,3.92.2.71.15,1.6-.1,2.3-.94,2.59-2.02,5.14-3.12,7.89.98.3,1.85.56,2.85.87.98-3.28,1.95-6.42,2.84-9.58.09-.31-.15-.76-.33-1.1-.75-1.42-1.53-2.82-2.49-4.58,1.43.1,2.45.15,3.45.27.22.03.52.27.6.49,1.01,2.53,1.98,5.04,1.1,7.87-.57,1.82-.93,3.7-1.36,5.56-.1.44-.15.89-.22,1.34.11.05.23.1.34.15.53-.88,1.05-1.75,1.58-2.63.86-1.43,1.74-2.85,2.58-4.3.85-1.47.74-2.82-.32-4.24-.89-1.2-1.48-2.61-2.25-4,2.02-.4,3.16.08,4.15,1.8,1.8,3.09,2.16,5.98.36,9.17-.87,1.55-1.35,3.31-2.01,4.97l.35.31c.68-.36,1.45-.63,2.03-1.11,1.33-1.08,2.53-2.33,3.86-3.41,2.07-1.67,4.08-3.51,6.37-4.82,3.7-2.12,8.52-.57,10.7,3.12,1.62,2.73.24,8.23-2.61,10.18-.94.64-1.99,1.13-3.04,1.59-2.71,1.19-5.48,2.24-8.15,3.51-3.27,1.56-6.76,1.98-10.29,2.2-.88.05-1.8-.52-2.71-.73-.53-.13-1.24-.36-1.59-.12-.49.33-.79,1.03-.97,1.63-.04.13.74.64,1.2.76,7.94,2.07,15.3.73,22.18-3.73,2.51-1.63,5.14-3.15,7.86-4.37,3.18-1.42,6.43.36,7.39,3.72,1.4,4.9-.6,9.07-5.5,10.42-6.02,1.66-12.14,2.91-18.24,4.27-2.26.5-4.57.81-6.85,1.21,0,.19-.02.38-.02.57ZM434.94,40.22c2.17,1.59,4.53,1.85,6.99,1.39.8-.15,1.61-.19,2.41-.32,4.83-.77,9.59-1.82,13.8-4.41,1.1-.68,2.11-1.85,2.64-3.02.86-1.9-.59-3.53-2.63-3.21-.74.12-1.48.37-2.19.62-2.42.87-4.84,1.73-7.24,2.66-4.44,1.72-8.98,2.03-13.65,1.22-1.29-.22-2.65-.15-3.95-.03-.34.03-.61.78-.92,1.2.53.28,1.03.71,1.59.81.78.13,1.63-.14,2.4.02,4.45.9,8.85.62,13.17-.63,3.16-.92,6.26-2.04,9.4-3.03.74-.23,1.53-.31,2.3-.45.1.22.2.45.3.67-.88.65-1.67,1.56-2.65,1.91-4.81,1.68-9.65,3.29-14.53,4.73-1.85.54-3.85.73-5.78-.09-.41-.18-.97-.03-1.46-.03ZM456.89,53.21c-.08.26-.17.52-.25.78-9.61.53-18.4-2.37-26.89-6.74.51.62,1.08,1.14,1.72,1.55,4.22,2.68,8.74,4.64,13.64,5.72,3.74.83,7.48,1.64,11.32.82.91-.19,1.85-.55,2.59-1.09,1.17-.85,1.08-1.9-.16-2.62-.72-.42-1.58-.75-2.4-.85-4.56-.52-9.01-1.52-13.38-2.88-4.37-1.36-8.2-3.58-11.29-7.01-.53-.59-1.04-1.56-1.9-.83-.27.23.08,1.49.46,2.08.56.87,1.29,1.71,2.13,2.3,2.07,1.43,4.14,2.95,6.41,3.99,4.93,2.25,10.2,3.4,15.59,4.01.83.09,1.62.5,2.42.77ZM435.14,27.52c.04.25.08.51.13.76.66.14,1.33.41,1.99.41,5.17,0,9.81-1.81,14.19-4.36.74-.43,1.33-1.25,1.76-2.01.78-1.39.35-2.7-1.03-4.1-1.03-1.06-2.06-.86-3.25-.3-2.89,1.37-5.81,2.67-8.73,3.96-.87.39-1.82.6-2.67,1.02-.34.17-.51.69-.76,1.06.36.15.72.46,1.07.43.85-.05,1.74-.13,2.53-.42,2.76-1.04,5.47-2.22,8.24-3.24.8-.29,1.74-.22,2.61-.32-.56.76-.95,1.81-1.7,2.23-3.84,2.14-7.76,4.14-12.35,4.11-.67,0-1.35.51-2.03.79ZM417.94,34.6c.93-2.76,1.77-5.49,2.78-8.15,2.12-5.62,4.34-11.2,6.5-16.8.23-.59.87-1.3-.18-1.81-.99-.48-1.62-.15-2.02.83-.19.49-.45.94-.69,1.41-3.17,6.36-4.74,13.27-6.97,19.95-.49,1.47-.9,2.97-1.37,4.56h1.95ZM422.16,27.47c2.48,1.05,4.77,1.99,7.03,2.99.82.36,1.47.17,1.81-.56.67-1.46,1.38-2.94,1.78-4.48.38-1.46-.65-3.38-1.96-3.96-1.86-.82-3.78-1.51-5.77-2.29-.29.83-.53,1.53-.81,2.34,1.8.69,3.51,1.27,5.15,2.01.48.22,1.08.96,1.04,1.4-.09.99-.56,1.95-.92,3.06-2.31-.96-4.39-1.83-6.54-2.73-.27.73-.51,1.39-.81,2.22ZM421.23,35.39c.26-.52.43-.8.55-1.1q.82-1.91,2.61-.96c2.1,1.11,2.07,1.1,1.24,3.66-.13.39.12.9.2,1.36.49-.16,1.22-.18,1.41-.51.57-.97,1.07-2.04,1.29-3.13.11-.52-.32-1.48-.78-1.74-1.69-.94-3.49-1.69-5.27-2.48-.22-.1-.73-.07-.78.04-.52,1.26-1.02,2.53-1.4,3.84-.06.21.52.59.91,1.01Z"/>
      <path d="M26.54,63.74c.78-1.71,1.47-3.16,2.08-4.64.16-.39.21-.98.02-1.31-.13-.23-.86-.36-1.13-.2-.33.19-.46.72-.67,1.11-.89,1.59-1.61,3.33-2.76,4.71-.43.52-1.86.21-3.26.31,1.03-1.69,1.87-3.04,2.66-4.42.2-.35.38-.89.25-1.21-.13-.3-.74-.67-1.02-.59-.44.12-.89.53-1.13.93-.76,1.29-1.48,2.62-2.12,3.98-.37.79-.87.94-1.6.69-.87-.29-2.03-.23-2.21-1.46-.22-1.5-.32-3.02-.47-4.6,1.43-.49,2.72-.93,4.01-1.39.68-.24,1.49-.46,1.13-1.45-.4-1.1-1.1-.32-1.64-.13-1.01.35-2,.77-3.17,1.23.15-2.67,1.29-4.56,3.13-5.81,2.07-1.41,4.28-2.8,6.64-3.51,1.87-.57,4.06-.1,6.11-.08,3.45.03,6.77-.68,10.05-2.02-.47-.1-.94-.22-1.42-.3-8.07-1.25-16.09-2.78-23.88-5.26-5.06-1.61-7.22-5.89-5.61-10.77,1.04-3.16,4.23-4.77,7.32-3.49,1.93.8,3.7,1.97,5.57,2.91,3.48,1.77,6.87,3.79,10.51,5.16,4.65,1.75,9.51,1.17,14.27.07.66-.15,1.59-.36,1.17-1.38-.34-.82-1.06-1.58-2.01-1.09-3.52,1.8-7.1.96-10.42-.15-4.55-1.53-8.94-3.6-13.29-5.66-3.24-1.53-5.08-6.24-4.09-9.69.95-3.31,5.98-5.92,9.48-4.88,3.07.91,5.4,2.98,7.69,5.09,1.54,1.42,3.1,2.83,4.71,4.17.51.42,1.22.61,1.83.91l.3-.26c-.43-1.18-.83-2.38-1.31-3.54-.45-1.1-.96-2.19-1.49-3.25-.85-1.71-.8-3.41.04-5.09.38-.77.88-1.5,1.16-2.3.65-1.82,1.9-2.33,3.97-1.82-.69,1.23-1.22,2.5-2.04,3.55-1.19,1.53-1.32,3-.36,4.63,1.3,2.19,2.61,4.38,3.92,6.57.13-.05.26-.11.39-.16-.25-1.13-.51-2.26-.75-3.4-.28-1.31-.46-2.64-.82-3.92-.71-2.55.16-4.79,1.21-7.01.14-.3.61-.57.97-.63.84-.13,1.7-.13,2.81-.2-.69,1.39-1.12,2.81-2,3.85-.76.89-.72,1.52-.4,2.48.93,2.85,1.77,5.73,2.69,8.75.92-.24,1.72-.45,2.73-.71-.87-2.28-1.44-4.58-2.58-6.57-1.51-2.63-.42-4.75.71-6.96.13-.26.69-.49.99-.44,1.78.33,3.56.7,5.31,1.19.44.12.87.67,1.08,1.13,3.23,7.01,5.18,14.45,7.2,21.87.77,2.81,1.46,5.63,2.18,8.45.08.31.08.63.12.97-2.79.14-5.51.23-8.21.43-3.49.26-5.51,2.25-6.44,5.56-1.49,5.33-3.07,10.63-4.59,15.96-.81,2.84-.79,2.85-3.91,2.62.74-2.52,1.47-5.04,2.22-7.58-1.1-.59-1.74-.24-2.1.73-.7,1.87-1.42,3.74-2.01,5.65-.27.88-.66,1.26-1.59,1.18-.84-.07-1.7-.02-2.6-.02.68-1.94,1.34-3.86,2.02-5.8-.93-.41-1.54-.24-1.94.64-.47,1.04-1.14,2.02-1.44,3.11-.48,1.73-1.55,2.43-3.26,2.45-.65,0-1.31.17-2.14.28.64-1.43,1.25-2.7,1.77-4,.15-.38.05-.85.06-1.28-.49.02-1-.04-1.45.1-.26.08-.49.45-.63.74-.85,1.76-1.73,3.5-2.46,5.31-.29.71-.59.99-1.32.95-.86-.05-1.71-.01-2.71-.01ZM22.01,33.07c.14-.24.29-.48.43-.71,1.6.54,3.2,1.05,4.78,1.61,4.59,1.63,9.23,3.19,14.15,3.27,2.89.05,5.78-.26,8.67-.5.43-.04,1.04-.5,1.15-.89.08-.3-.41-.93-.8-1.13-.46-.25-1.09-.31-1.63-.27-2.8.2-5.61.75-8.39.64-4.86-.19-9.39-1.86-13.84-3.77-1.29-.56-2.7-.88-4.09-1.18-.98-.21-1.6.4-1.94,1.31-.57,1.51.2,3.56,1.97,4.62,1.46.88,2.99,1.79,4.61,2.24,3.94,1.1,7.94,1.97,11.93,2.88,2.7.62,5.29.28,7.67-1.28-.65-.06-1.29.04-1.92.12-1.03.13-2.11.48-3.1.32-6.2-.97-12.17-2.76-17.78-5.59-.73-.37-1.26-1.12-1.88-1.7ZM25.07,53.46c-.08-.26-.15-.51-.23-.77.78-.26,1.55-.61,2.35-.76,2.95-.53,5.97-.81,8.87-1.53,4.93-1.22,9.74-2.84,13.54-6.47.85-.82,1.62-1.76,2.26-2.75.22-.35-.06-1.02-.11-1.54-.48.17-1.07.22-1.43.54-1.48,1.27-2.76,2.81-4.35,3.9-5.38,3.7-11.65,4.81-17.94,5.82-1.5.24-3.03.42-4.47.85-.61.19-1.41.94-1.46,1.49-.05.57.63,1.32,1.17,1.77.48.4,1.2.65,1.84.71,1.87.18,3.78.45,5.64.31,7.17-.53,13.82-2.71,19.81-6.77.51-.35.95-.8,1.42-1.2-8.56,4.26-17.33,7.05-26.9,6.39ZM46.26,27.64c.06-.2.12-.4.17-.6-.62-.24-1.23-.68-1.85-.69-4.81-.04-9-1.97-13.01-4.35-.68-.4-.99-1.42-1.47-2.16.84.1,1.73.05,2.5.33,3,1.09,5.93,2.36,8.94,3.4,1,.35,2.16.22,3.24.31.07-.21.14-.42.21-.63-.57-.4-1.11-.9-1.73-1.18-.95-.43-2-.64-2.95-1.06-2.75-1.21-5.45-2.54-8.22-3.68-.68-.28-1.73-.28-2.37.06-2.63,1.4-2.53,4.78.21,6.49,3.31,2.07,6.92,3.48,10.77,4.1,1.83.29,3.78.69,5.56-.34ZM53.82,7.46c.24.64.49,1.3.73,1.96,2.87,7.74,5.79,15.46,8.54,23.24.51,1.43,1.08,1.76,2.44,1.32-.19-.66-.36-1.25-.54-1.84-2.56-8.04-4.59-16.26-8.37-23.88-.83-1.67-.96-1.74-2.81-.8ZM58.63,24.66c-2.26.92-4.37,1.78-6.52,2.66-.26-.55-.46-.93-.62-1.31-.95-2.31-.78-2.71,1.58-3.55,1.33-.47,2.67-.9,4.1-1.38-.28-.89-.5-1.64-.76-2.46-1.91.73-3.64,1.37-5.37,2.05-1.31.51-2.07,1.48-2.26,2.89-.32,2.3.72,4.19,1.92,5.97.21.31,1.11.44,1.54.27,2.34-.91,4.64-1.95,7-2.96-.22-.79-.4-1.42-.61-2.17ZM59.59,29.61c-1.39.54-2.69.98-3.93,1.55-3.55,1.64-3.79,1.87-1.8,5.82.21.42,1.02.55,1.55.81.02-.53.22-1.13.04-1.58-.8-2.11-.84-2.09,1.06-3.16.25-.14.5-.28.75-.41,1.55-.82,1.64-.78,2.17.83.13.39.28.76.42,1.14,1.29-.45,1.4-.55,1.09-1.49-.36-1.12-.85-2.2-1.36-3.51Z"/>
      <path d="M154.76,67.25c2.27-.57,4.39-1.1,6.53-1.64-.08-.11-.12-.21-.19-.25q-2.81-1.25-2.71-4.32c.14-4.63.34-9.27.37-13.9,0-1.66.63-2.43,2.21-2.65,1.64-.23,3.27-.56,5.05-.86-.55-.71-1.08-1.3-1.49-1.96-.67-1.07-.34-1.7.89-1.58,6.13.62,12.25,1.27,18.37,1.98,1.47.17,2.6,3.02,1.92,4.54q-1.21,2.71,1.4,4.15c1.81.99,2.96,2.51,3.61,4.45.16.48.33.95.66,1.37.3-1.66-.16-3.16-1.26-4.36-1.05-1.15-2.29-2.12-3.65-3.36,4.08-.7,6.47,2.67,7.24,9.61-.74.06-1.48.11-2.21.17-.84.07-1.24-.28-1.54-1.11-.43-1.2-1.04-2.35-1.7-3.44-.3-.5-.85-1.05-1.38-1.17-.76-.17-1.6.02-2.41.06.04.76-.14,1.62.16,2.25,1.17,2.42,1.09,2.78-1.39,3.78-.66.27-1.4.39-2.01.74-4.97,2.86-9.37.19-13.85-1.45-.38-.14-.66-.94-.73-1.46-.24-1.8-.32-3.61-.56-5.41-.06-.44-.49-.83-.76-1.24-.39.36-1.04.66-1.13,1.09-.54,2.56-1.01,5.14-1.4,7.73-.31,2.07-.48,4.16-.74,6.41,10.51-2.17,20.86-5.34,31.86-5.58.16.71.3,1.34.44,1.97.14.6.29,1.2.46,1.91-1.7-.34-3.35-.93-5.01-.94-2.75-.03-5.52.22-8.26.54-2.03.23-3.29,1.79-3.79,3.53-.66,2.31-.8,4.77-1.17,7.17.18.04.36.09.55.13.17-.3.36-.59.52-.9,1.39-2.66,2.75-5.34,4.21-7.97.26-.47.87-.99,1.37-1.04,3.62-.35,7.25-.46,10.83.33.3.07.58.2.83.6-.59,0-1.19,0-1.78,0-1.58-.02-3.16-.12-4.73-.05-3.72.18-6.38,2.48-7.17,6.09-.38,1.71.42,2.84,2.17,2.87,3.71.05,7.41.02,11.2.02-.59-3.06-2.69-5.22-5.27-5.65-.45-.07-.95.17-1.42.27.24.48.46.98.73,1.44.08.14.36.15.49.28.32.35.93.9.84,1.06-.26.49-.74,1.05-1.24,1.19-1.17.33-3.31-1.34-3.77-2.78-.35-1.11.34-2.11,1.9-2.78,3.92-1.67,7.58-.03,8.89,3.99,1.08,3.3.85,6.62-.05,9.89-1.67,6.06-3.45,12.1-5.25,18.39-.14-.16-.04.02.11.11,3.91,2.19,4.8,5.72,4.29,9.81-.52,4.08-2.22,7.7-4.79,10.87-3.16,3.9-8.2,3.18-10.61-1.33,1.27.33,2.62.91,3.99,1,3.42.22,5.69-1.28,6.84-4.49,1.13-3.14,1.57-6.4.93-9.73-.55-2.82-2-4.62-4.97-5.4-3.33-.88-6.45-.38-9.57.58-3.01.93-6.04,1.85-8.89,3.17-1.94.9-3.88,2.2-5.27,3.8-3.3,3.79-6.29,7.85-7.03,13.07-.41,2.89-.19,5.73.82,8.47,1.46,3.94,5.36,6.12,9.94,5.53,1.74-.22,3.46-.62,5.25-.95-2.33,3.78-8.05,5.08-12.36,2.82-4.54-2.39-6.27-6.52-6.66-11.32-.64-7.89,2.08-14.61,7.5-20.51-.3.06-.52.09-.95.17.56-7.76,2.33-15.26,3.76-23.03,4.87.16,9.7.33,14.61.49-.56,5.29-1.09,10.34-1.63,15.55,1.03-.22,1.94-.31,2.75-.63.33-.13.64-.75.66-1.16.22-5.25.38-10.5.56-15.75,0-.24.03-.47.05-.74,4.65-1.87,9.02-.21,13.5.99.15-.38.28-.73.43-1.06.63-1.41.01-2.04-1.28-2.72-3.42-1.82-6.97-1.18-10.53-.91-7.18.55-14.36,1.06-21.53,1.67-1.26.11-1.76-.34-2.15-1.44-1.07-3-2.25-5.96-3.43-9.06ZM182.49,46.86c-.96.24-1.45.38-1.94.48-.97.21-1.96.57-2.92.52-.49-.03-1.05-.77-1.36-1.31-.13-.22.21-.96.52-1.12.7-.36,1.24-.04,1.57.72.12.27.65.61.83.54.33-.15.81-.64.75-.87-.19-.73-.42-1.72-.96-2.02-.66-.37-1.77-.41-2.47-.11-.87.38-1.46.71-2.24-.08-.3-.31-.9-.6-1.28-.51-.74.16-1.55.46-2.08.97-.32.3-.33,1.18-.15,1.68.29.79.81,1.2,1.5.16.25-.38.91-.76,1.3-.68.43.08,1.13.93,1.07,1.02-.4.62-.94,1.52-1.51,1.58-.99.1-2.06-.27-3.05-.59-1.04-.34-1.46.06-1.54,1.01-.06.81-.05,1.62-.04,2.43.11,6.39,1.94,8.06,8.32,7.56.14-.01.29,0,.43-.03,1.87-.43,3.88-1.08,4.34-3.04.61-2.59.61-5.33.9-8.3ZM160.41,73.31c.06.12.12.24.18.36,3.31-.38,6.61-.82,9.92-1.12,1.38-.13,2.25-.58,2.73-1.96.55-1.62,1.32-3.16,2-4.73-.13-.1-.26-.21-.39-.31-5.16,1.96-10.66,3.26-14.44,7.77ZM191.86,84.1c-3.1-.8-6-1.55-9.16-2.36.76,4.22,1.46,8.08,2.23,12.37,2.42-3.49,4.58-6.61,6.93-10ZM170.43,99.72c.17.13.33.25.5.38.7-.58,1.89-1.06,2.03-1.75.71-3.59,1.17-7.23,1.69-10.85.14-.98.11-2.04-1.13-2.27-1.26-.24-1.72.76-2.12,1.71-.11.26-.17.55-.19.83-.26,3.98-.52,7.97-.77,11.95ZM162.63,103.42c.81-.24,1.63-.55,1.64-1.96,0-1.11.43-2.23.72-3.34.92-3.49,1.91-6.97,2.73-10.48.14-.59-.28-1.7-.77-1.97-.91-.5-1.56.31-1.94,1.14-.22.47-.42.97-.5,1.48-.42,2.68-.84,5.35-1.17,8.04-.29,2.33-.46,4.68-.69,7.09ZM166.49,45.82c-2.89-.69-5.59.99-5.91,3.64-.47,3.77-.64,7.58-.91,11.38-.02.28.13.58.2.87.39-.98.47-1.95.6-2.91.38-2.83.72-5.66,1.2-8.47.28-1.64,1.29-2.83,2.87-3.49.67-.28,1.3-.67,1.95-1.01Z"/>
      <path d="M316.88,192.32c-50.51-.58-100.79-1.16-151.16-1.74.09-.96,0-1.72.25-2.35.38-.97.1-1.71-.34-2.55-.71-1.36-.02-2.88,1.51-3.28.88-.23,1.83-.3,2.74-.3,5.91.03,11.81.09,17.72.15,3.55.04,7.1.1,10.65.14,5.32.06,10.64.1,15.96.15,2.85.03,5.7.07,8.55.09,5,.03,9.99.07,14.99.07,4.07,0,8.14-.05,12.22-.05,5.74,0,11.48.04,17.22.05,7.96.01,15.92,0,23.88.03,3.9.02,7.8.16,11.7.18,4.05.03,8.09,0,12.14-.03,1.45-.01,1.81,1.24,2.38,2.1.26.4.08,1.41-.27,1.84-.95,1.19-1.37,2.32-.57,3.74.22.39.23.91.42,1.74Z"/>
      <path d="M149.57,170.93c-3.83,0-7.53-.03-11.22,0-2.54.03-5.08.17-7.62.21-2.94.05-5.88.07-8.82.02-.32,0-.78-.46-.92-.81-4.27-10.87-8.51-21.76-12.73-32.65-.35-.9-.91-1.33-1.85-1.54-2.53-.57-4.77.31-7.1,1.07-2.4.78-3.82,2.11-3.78,4.78.02,1.17-.21,2.35-.32,3.48-2.91,0-5.71-.03-8.52,0-4.16.05-8.31.16-12.47.18-.54,0-1.3-.24-1.57-.63-3.18-4.52-6.29-9.1-9.48-13.77,9.79-.47,19.47-.98,29.15-1.38,6.06-.26,12.12-.49,18.18-.5,4.47-.01,7.61,2.07,9.32,6.43,2.51,6.44,5.22,12.82,7.99,19.16,1.03,2.35,2.48,4.51,3.7,6.78.6,1.1,1.39,1.3,2.6,1.03,3.12-.69,6.25-1.36,9.41-1.77,3.85-.5,5.5.83,6.02,4.71.22,1.63.04,3.32.04,5.19Z"/>
      <path d="M360.71,171.43c-4.32,0-8.67-.02-13.01,0-4.54.02-9.08.06-13.62.16-1.16.03-1.7-.29-1.56-1.51.21-1.83.17-3.73.63-5.49.57-2.16,1.71-2.97,3.92-2.75,3.26.32,6.51.87,9.73,1.52,2.71.55,2.89.77,4.11-1.79,3.14-6.58,6.11-13.25,9.1-19.9.92-2.04,1.67-4.16,2.53-6.23,1.78-4.3,5.06-6.38,9.67-6.17,9.45.41,18.9.9,28.34,1.39,5.39.28,10.78.63,16.17.95.28.02.57.07,1.02.13-.16.39-.25.74-.43,1.03-2.5,4.01-5.02,8.01-7.51,12.02-.53.86-1.14,1.16-2.21,1.15-6.48-.07-12.96-.03-19.44-.02-.57,0-1.13,0-2.02,0,0-1.85-.03-3.66.01-5.46.03-1.15-.43-1.86-1.48-2.34-2.81-1.29-5.64-2.33-8.83-1.87-1.19.17-1.93.66-2.38,1.88-2.25,6.14-4.55,12.25-6.89,18.35-1.9,4.94-3.87,9.85-5.88,14.95Z"/>
      <path d="M320.49,65.96c2.12.67,4.25,1.33,6.48,2.04-.09.31-.15.66-.28.99-1.09,2.75-2.26,5.47-3.27,8.25-.41,1.12-.96,1.39-2.11,1.27-8.83-.9-17.67-1.71-26.5-2.6-2.53-.26-4.64.85-6.78,1.89-.29.14-.53.77-.48,1.14.09.69.4,1.35.61,1.98,2.4-.53,4.7-1.18,7.04-1.49,1.67-.22,3.4,0,5.1.09,1.02.05,1.38.6,1.44,1.68.27,5.38.63,10.76.97,16.22,1.06.21,2.02.4,3.18.63-.54-5.08-1.07-10.04-1.63-15.25,4.81-.22,9.55-.44,14.59-.67,1.42,7.45,2.83,14.82,4.28,22.44-1.01-.23-1.58-.36-2.16-.49-.05.07-.11.15-.16.22.39.34.82.65,1.18,1.02,6.71,7.21,9.56,15.57,7.01,25.28-1.46,5.58-6.08,8.66-11.58,8.2-2.88-.24-5.04-1.82-7.19-4.19,1.44.34,2.54.72,3.67.85,1.78.2,3.64.56,5.37.29,4.05-.62,6.49-3.4,7.21-7.66.76-4.53.19-8.88-2.15-12.87-1.35-2.3-2.89-4.49-4.46-6.66-1.37-1.89-3.22-3.22-5.35-4.21-4.26-1.97-8.64-3.55-13.27-4.41-2.7-.5-5.26.04-7.68,1.11-1.8.79-2.49,2.6-2.87,4.41-.74,3.56-.25,7.06,1.13,10.37,1.75,4.18,5.63,5.6,9.8,3.77.38-.17.77-.33,1.2-.52-.72,2.23-2.14,3.61-4.06,3.99-2.63.51-4.87-.29-6.55-2.32-2.4-2.9-4.16-6.19-4.93-9.9-.29-1.39-.39-2.84-.34-4.26.09-2.78,1.16-5.09,3.62-6.61.31-.19.58-.47.85-.71-2.5-6.52-4.89-13.01-6.09-19.86-.56-3.2-.68-6.38.84-9.39,1.62-3.22,5.82-4.45,8.97-2.68,1.42.8,1.9,1.84,1.41,3.04-.66,1.59-2.53,2.93-3.74,2.55-.49-.15-1.12-.59-1.22-1-.09-.35.47-.89.8-1.3.5-.61,1.63-1.49,1.51-1.71-.63-1.13-1.68-.39-2.51-.13-2.48.77-3.86,2.63-4.77,5.2,4.36,0,8.58.07,12.8-.05,1.12-.03,1.19-1.26,1.13-2.16-.2-2.86-3.06-6.05-5.91-6.4-1.88-.23-3.8-.12-5.71-.12-.89,0-1.77.11-2.66.17-.04-.12-.07-.24-.11-.36.48-.19.95-.53,1.44-.55,3.61-.15,7.23-.28,10.84-.3.45,0,1.05.63,1.32,1.11,1.5,2.66,2.92,5.36,4.36,8.06.17.32.33.63.78.91,0-.48.05-.98,0-1.45-.22-1.65-.44-3.31-.75-4.95-.48-2.63-2.41-4.38-5.03-4.75-4.04-.56-8.07-.87-12.27.69.35-1.27.51-2.3.94-3.2.18-.37.97-.69,1.43-.63,4.96.64,9.95,1.16,14.86,2.11,5.1.98,10.12,2.4,15.17,3.62.41.1.84.16,1.26.24,0,0-.04-.03-.04-.03ZM298.88,81.98c-3.37.85-6.39,1.61-9.63,2.43,2.47,3.3,4.77,6.38,7.34,9.81.8-4.27,1.52-8.08,2.3-12.23ZM306.68,66.11c.88,1.83,1.72,3.68,2.68,5.47.19.35.83.57,1.29.65,1.41.23,2.83.34,4.24.53,2.03.27,4.05.57,6.48.92-3.86-5.07-9.33-6.13-14.69-7.58ZM320.13,103.8c-.71-1.08-1.42-1.96-1.47-3.38-.08-2.71-.4-5.42-.8-8.1-.27-1.78-.81-3.52-1.32-5.25-.28-.97-.97-1.6-2.05-1.28-1.02.3-1.01,1.21-.83,2.02.25,1.16.65,2.29.96,3.44.93,3.49,1.85,6.98,2.78,10.47.05.2.09.48.23.57.82.53,1.66,1.02,2.5,1.52ZM311.22,99.43c-.16-2.99-.28-5.99-.49-8.98-.08-1.13-.26-2.27-.54-3.37-.24-.93-.73-1.93-1.92-1.74-1.21.2-1.22,1.3-1.21,2.28,0,.38.07.76.13,1.14.47,2.77.94,5.54,1.42,8.31.36,2.08.38,2.1,2.6,2.36Z"/>
      <path d="M427.84,149.24c-4.4-3.13-8.67-6.16-13.16-9.35,4.63-7.2,9.24-14.37,13.71-21.33-.48-.81-1.09-1.46-1.28-2.22-1.93-7.67-3.77-15.37-5.71-23.04-.33-1.31.2-2.07,1.29-2.21,1.86-.24,3.84-.59,5.62-.19,3.38.75,6.66,1.98,9.96,3.07.29.1.56.61.63.97,1.78,8.64,3.57,17.28,5.23,25.94.23,1.18.08,2.67-.47,3.72-4.52,8.64-9.7,16.87-15.83,24.64Z"/>
      <path d="M310.78,138.26c-.35,2.37-.67,4.3-.9,6.24-.11.92-.69.86-1.33.85-6.6-.04-13.19-.07-19.79-.09-19.36-.08-38.71-.15-58.07-.22-18.73-.07-37.47-.13-56.2-.19-.19,0-.38-.04-.75-.07-.18-2.2-.37-4.41-.54-6.52h137.58Z"/>
      <path d="M66.45,139.62c-3.91,3.24-7.8,6.45-11.82,9.78-1.78-2.18-3.65-4.22-5.25-6.46-4.03-5.62-7.92-11.35-11.92-17-1.08-1.53-1.22-3.07-.84-4.86,1.88-8.81,3.7-17.64,5.49-26.47.2-.97.6-1.49,1.56-1.73,2.59-.65,5.15-1.41,7.74-2.06,1.93-.49,3.81-.09,5.58.69.36.16.78.88.71,1.24-1.69,8.12-3.44,16.22-5.2,24.32-.08.36-.18.91-.41,1-1.65.64-.87,1.46-.24,2.28,4.75,6.23,9.5,12.45,14.25,18.68.11.14.19.32.33.57Z"/>
      <path d="M32.77,91.48c1.67-2.65,3.19-5.4,5.03-7.91,2.8-3.81,5.78-7.48,8.77-11.15,3.7-4.54,6.73-9.49,9.3-14.88.78.55,1.4,1.2,2.16,1.47,1.68.6,3.4,1.16,5.16,1.46,1.53.26,1.83.49,1.67,2.03-.23,2.23-.48,4.47-.49,6.7-.01,3.67,1.72,6.38,5,8.06,1.15.59,2.32,1.12,3.47,1.69,3.45,1.71,5.69,4.35,6.55,8.19,1.04,4.64,1.7,9.29,1.07,14.05-.54,4.07-2,5.47-6.1,5.78-.8.06-1.61.13-2.63.22v10.73h-16.37c1.47-5.44,3.02-11.18,4.57-16.94.14.03.33.02.4.1,2.12,2.52,4.98,3.15,8.08,3.3,1.81.09,3.61.31,5.42.5.8.08,1.28-.14,1.32-1.04.15-3.57.45-7.14.45-10.71,0-2.39-1.33-4.05-3.77-4.57-1.63-.34-3.28-.62-4.93-.8-.75-.08-1.11-.34-1.5-1.01-1.2-2.05-2.36-4.19-3.91-5.96-1.53-1.74-3.9-2.54-6.12-2.12-3.77.71-7.48,1.82-11.13,3.01-.84.27-1.66,1.45-1.96,2.38-.64,1.99-.91,4.09-1.41,6.13-.1.42-.49,1.05-.8,1.08-2.3.28-4.62.44-6.93.63-.12-.14-.23-.29-.35-.43Z"/>
      <path d="M416.82,60.7c3.14-.19,6.08-.86,8.6-2.96.2.31.35.49.44.69,4.11,8.52,10.03,15.75,16.05,22.95,2.35,2.81,4.33,5.92,6.47,8.9.26.37.4.83.75,1.56-2.75-.14-5.25-.24-7.74-.45-.27-.02-.63-.62-.71-1-.53-2.28-.93-4.58-1.48-6.85-.52-2.14-1.79-3.74-4.01-4.24-3.1-.71-6.21-1.53-9.36-1.83-3.78-.36-6.89,1.2-8.97,4.51-.66,1.05-1.5,2.05-1.89,3.19-.52,1.54-1.52,1.86-2.94,2.06-1.44.21-2.86.71-4.25,1.2-2.15.76-3.26,2.44-3.18,4.62.14,3.76.5,7.52.87,11.27.03.32.77.87,1.13.83,3.12-.36,6.28-.63,9.33-1.35,1.63-.38,3.06-1.59,4.67-2.47,1.52,5.43,3.09,11.07,4.69,16.8h-16.14v-10.77c-1.59-.24-2.95-.45-4.31-.64-2.28-.32-3.69-1.67-3.99-3.87-.35-2.59-.7-5.24-.51-7.82.23-3.16.94-6.31,1.6-9.42.55-2.59,2.24-4.4,4.55-5.6,1.56-.81,3.19-1.51,4.83-2.17,4.17-1.68,6.21-4.79,6.09-9.24-.07-2.56-.37-5.12-.58-7.9Z"/>
      <path d="M241.74,154.45c-.87,3.91-3.45,5.89-6.98,6.73-3.77.9-7.58.95-11.34-.04-1.04-.27-2.12-.71-2.98-1.35-5.65-4.18-4.46-9.3,1.13-12.88,4.94-3.16,13.52-1.67,17.45,2.66,1.06,1.17,1.79,2.65,2.68,3.98-.1.1.04.03.07-.07,1.25-5.27,4.91-7.49,9.23-7.76,2.64-.16,5.37-.15,7.95.33,3.94.73,6.56,3.31,8.04,7.04.66,1.67.38,3.17-.66,4.58-1.71,2.34-4.13,3.5-6.89,3.98-3.38.6-6.77.53-10.1-.31-3.66-.91-6.32-3.06-7.59-6.89ZM253.45,159.32c.91-1.18,1.49-2.09,2.22-2.86,1.67-1.76,1.98-3.58.69-5.71-.59-.97-.91-2.1-1.5-3.54-1.41,2.06-2.57,3.73-3.69,5.41-.11.17-.15.49-.08.68.72,1.89,1.47,3.76,2.37,6.03ZM228.1,158.61c.65-.86,1.01-1.48,1.51-1.96,2.2-2.13,2.35-4.42.68-6.93-.39-.59-.66-1.27-1.11-2.17-1.28,1.82-2.35,3.32-3.39,4.85-.13.19-.15.57-.05.79.72,1.7,1.48,3.39,2.37,5.42Z"/>
      <path d="M261.89,108.74c2.03.47,2.89,1.35,2.66,3.25-.72,6-1.57,11.98-2.37,17.96,0,.05-.03.09-.04.14-.27,1.15-.17,2.73-.9,3.32-.74.61-2.28.3-3.47.3-12.18-.04-24.36-.11-36.54-.13-1.1,0-1.59-.3-1.74-1.48-.83-6.67-1.74-13.32-2.61-19.98-.06-.45-.08-1.01.13-1.38.23-.4.75-.63,1.14-.94.26.34.71.66.77,1.03.43,2.93.77,5.87,1.19,8.79.25,1.75.58,3.48.92,5.21.33,1.68,1.35,2.88,3.07,2.92,4.51.1,9.03.04,13.54-.03.34,0,.93-.68.95-1.07.07-1.52.09-3.08-.17-4.57-.1-.61-.94-1.11-1.47-1.64-.08-.08-.28-.04-.42-.06-1.11-.17-2.63.03-3.22-.61-.62-.67-.42-2.17-.44-3.3-.05-2.81-.02-5.63-.02-8.67,2.32-.17,4.78-.41,7.23-.53,2.05-.1,4.1-.12,6.15-.08.37,0,1.02.44,1.05.72.31,3.8.54,7.61.8,11.54-1.47.15-2.73.3-4,.39-1.11.08-1.63.59-1.61,1.73.04,1.79-.02,3.59.07,5.38.01.31.51.85.8.86,4.24.15,8.49.29,12.74.32,2.68.02,3.89-1.03,4.2-3.69.61-5.21,1.09-10.44,1.63-15.72Z"/>
      <path d="M363.32,171.3c.31-1.12.52-2.09.86-3.01,3.59-9.95,7.19-19.9,10.86-29.82.17-.45.96-.98,1.44-.96,2.98.1,5.69,1.16,8.16,2.76.42.27.64,1.12.65,1.7.14,6.21.2,12.41.31,18.62.06,3.1.12,6.21.3,9.31.08,1.32-.37,1.63-1.61,1.58-3.54-.14-7.09-.19-10.64-.2-3.06-.01-6.13.07-9.19.11-.28,0-.57-.04-1.13-.08Z"/>
      <path d="M118.73,171.09h-22.26c0-1.18-.01-2.31,0-3.44.11-8.41.26-16.81.29-25.22,0-1.59.57-2.55,2.02-3.02,2.16-.71,4.33-1.41,6.51-2.04.85-.24,1.34.15,1.67,1.06,3.63,10,7.31,19.97,10.97,29.96.31.84.52,1.72.8,2.7Z"/>
      <path d="M27.56,132.04c-.08-.62-.14-1.04-.19-1.42h-13.15c-.1-1.21-.2-2.43-.33-3.96,2.3-.15,4.5-.32,6.71-.44,1.91-.1,3.82-.1,5.72-.23.36-.02.7-.44,1.05-.67-.38-.18-.76-.53-1.13-.52-3.44.03-6.88.12-10.32.18-.61.01-1.22,0-1.92,0v-3.89c3.61,0,7.17-.02,10.73.01.83,0,1.33-.12.92-1.32h-11.53v-4.86c3.06,0,5.95-.01,8.85,0,1.15,0,2.29.11,3.44.1.84-.01,1.16.27,1.19,1.15.08,2.48.25,4.96.43,7.44.05.64.31,1.26.47,1.9.07.27.29.68.19.8-1.49,1.63-.29,3.35-.11,4.97.67,5.97,1.5,11.93,2.3,17.89.36,2.69.78,5.37,1.21,8.33h-15.86c-.11-1.75-.23-3.67-.36-5.86h11.68c.05-.65.07-1.04.11-1.57h-11.91c-.12-1.75-.24-3.38-.36-5.18,4.15-.19,8.15-.36,12.24-.55v-1.21h-12.31c-.09-1.35-.19-2.85-.32-4.76h13.23c-.11-.87-.16-1.31-.22-1.72h-13.07c-.06-1.26-.12-2.57-.2-4.1,4.33-.17,8.53-.33,12.84-.5Z"/>
      <path d="M394.57,57.61c3.17-1.51,6.13-2.92,9.09-4.32.25-.12.53-.22.81-.26,4.18-.51,9.22,3.01,9.91,7.13.49,2.9.88,5.87.79,8.79-.12,4.06-2.71,6.6-6.51,7.3-5.24.96-10.56,1.51-15.87,1.99-1.7.15-3.48-.42-5.21-.77-.4-.08-.97-.57-1.03-.95-.32-2.02-.5-4.06-.75-6.26,3.97-.89,7.89-1.76,11.85-2.65-.2-3.59-.96-6.89-3.09-10.01Z"/>
      <path d="M454.43,144.49h11.67c-.1,1.91-.18,3.52-.27,5.33h-11.63c-.03.61-.05,1.01-.08,1.61h11.54c-.15,2.13-.28,4.05-.42,6.01h-14.89c.25-2.37.49-4.62.73-6.87.73-6.83,1.46-13.67,2.2-20.5.09-.81.28-1.61.26-2.41,0-.44-.35-.88-.65-1.58.26-1.08.73-2.53.92-4.01.29-2.31.4-4.65.59-7.19h13.02v4.67c-1.09,0-2.26-.01-3.43,0-2.44.03-4.87.09-7.31.11-.83,0-1.32.22-.94,1.43h11.78v3.64c-1.16,0-2.29,0-3.42,0-2.91-.01-5.83-.06-8.74-.02-.5,0-1,.38-1.5.58l.15.52c4.41.2,8.82.4,13.46.6-.06,1.35-.12,2.6-.19,4.04-.92,0-1.77,0-2.61,0-3.15-.02-6.31-.02-9.46-.06-.96-.01-1.48.26-1.24,1.47,4.19.15,8.41.31,12.67.47v4.07h-13.56c-.09.57-.15.98-.27,1.75h13.71c-.12,1.82-.22,3.28-.32,4.72-3.5,0-6.92.04-10.34-.02-1.33-.02-1.32-.11-1.43,1.62Z"/>
      <path d="M96.21,70.29c-.08,1.91-.09,3.68-.29,5.43-.05.44-.72,1.06-1.18,1.14-2.43.41-4.91,1.03-7.33.89-4.56-.27-9.13-.85-13.64-1.6-4.85-.81-7.53-4.16-7.31-9.08.12-2.7.63-5.4,1.17-8.06.44-2.14,1.84-3.66,3.93-4.41,1.52-.54,3.09-.99,4.66-1.37.55-.13,1.26-.07,1.78.17,2.7,1.21,5.36,2.51,8.04,3.76.95.44,1.3.99.65,1.99-1.45,2.2-1.99,4.68-2.38,7.26-.16,1.09.2,1.32,1.08,1.51,3.59.76,7.16,1.56,10.83,2.37Z"/>
      <path d="M450.77,145.41c-.73,5.16-1.42,10.35-2.21,15.53-.46,3.02-1.1,6-1.58,9.02-.16,1-.52,1.33-1.57,1.3-3.5-.08-7-.03-10.51-.03-4.2,0-8.41,0-12.73,0v-11.63c.45-.04.91-.11,1.37-.13,4.1-.11,8.21-.26,12.31-.28,1.03,0,1.49-.34,1.62-1.3.49-3.63,1.06-7.26,1.43-10.91.12-1.23.45-1.64,1.69-1.61,3.23.08,6.47.03,10.18.03Z"/>
      <path d="M31.81,145.14c3.51.16,6.94.33,10.37.47,1.13.05.89.9.99,1.55.58,3.67,1.17,7.33,1.71,11.01.14.99.55,1.32,1.58,1.31,4.48-.06,8.97-.03,13.63-.03v11.97c-1.23-.15-2.57-.41-3.92-.44-1.74-.03-3.49.18-5.23.18-3.21,0-6.41-.12-9.62-.14-1.56-.01-3.13.13-4.69.09-.43-.01-1.17-.41-1.21-.71-1.29-8.2-2.5-16.4-3.73-24.61-.02-.13.05-.27.12-.65Z"/>
      <path d="M305.31,115.3c-.53.46-1.06.9-1.58,1.37-2.17,1.97-4.65,2.35-7.32,1.31-2.51-.98-3.67-3.07-3.71-5.63-.03-2.41.24-4.83.53-7.23.2-1.6,1.34-2.48,2.9-2.76,5.16-.93,9.96.37,14.84,1.97,5.95,1.95,14.29,13.46,13.87,19.27-.09,1.28-.07,2.59-.31,3.84-.83,4.47-3.85,6.85-8.42,6.64-1.33-.06-2.67-.24-3.96-.55-7.96-1.9-11.23-8.73-7.81-16.2.31-.69.62-1.38.93-2.07,1.34-1.31,2.77-2.43,4.79-1.58,5,2.12,8.18,5.83,9.38,11.13.4,1.75-.52,3.33-2.1,4.17-3.13,1.65-8.74-.32-10.14-3.56-.56-1.3-.44-2.52.41-3.65.77-1.03,1.94-1.52,3.03-.99.94.45,1.94,1.33,2.31,2.26.45,1.14-.99,1.25-1.69,1.7-.74.47-.64,1.02.03,1.27.78.29,1.67.44,2.5.4,1.86-.08,2.72-1.38,2.14-3.15-.65-2-1.93-3.51-3.76-4.51-2.04-1.11-4.28-.7-5.88,1.01-1.64,1.75-2.01,3.98-1,6.24,1.78,3.97,5.2,5.58,9.2,6.17,3.92.58,6.54-1.63,6.91-5.61.3-3.21-.41-6.27-1.52-9.25-2.82-7.52-9.93-12.69-17.43-12.7-4.92,0-8.33,5.54-6.13,9.95.85,1.7,2.59,2.53,4.42,2.11,1.34-.31,2.75-2.3,2.65-3.89-.07-1.09-.46-2.15-1.65-2.42-1.12-.25-1.53.7-1.97,1.52-.31.58-.41,1.54-1.46,1.13-.95-.37-1.49-1.09-1.24-2.13.21-.87.49-1.76.9-2.56,1.11-2.16,2.86-2.53,4.86-1.1,2.86,2.05,3.73,4.87,2.48,8.04Z"/>
      <path d="M157.24,123.28c-.07-3.65,1.25-6.84,3.39-9.7,1.54-2.06,3.23-4.03,4.94-5.95,2.37-2.67,5.71-3.55,8.93-4.55,3.31-1.03,6.71-1.43,10.19-1.01,2.7.32,3.79,1.02,4.18,3.67.36,2.47.51,5.06.19,7.52-.48,3.75-4.78,6.04-8.2,4.4-1.6-.77-2.86-2.28-4.18-3.55-.32-.3-.44-.98-.4-1.47.18-2.6,1.34-4.67,3.64-5.96,1.57-.89,2.9-.56,3.8.99.54.93,1.02,2,1.12,3.05.06.59-.7,1.27-1.09,1.9-.44-.33-.98-.59-1.29-1.01-.59-.79-.96-1.97-2.25-1.45-1.18.47-1.44,1.59-1.31,2.76.23,2.12,1.5,3.44,3.32,3.51,2.01.07,3.69-1.37,4.07-3.5.92-5.13-2.9-9.12-8.04-8.4-10.24,1.44-17.14,8.94-17.58,19.13-.03.81,0,1.63.1,2.43.42,3.46,2.64,5.45,6.11,5.26,3.73-.21,6.99-1.52,9.17-4.78,1-1.49,1.42-3.12.91-4.9-1.11-3.89-5.2-5.27-8.21-2.58-1.11,1-1.94,2.45-2.54,3.85-.59,1.39.32,2.51,1.86,2.69.56.06,1.17.11,1.71-.03.5-.14.91-.55,1.37-.84-.34-.34-.63-.77-1.03-1.01-1.2-.74-1.35-1.46-.36-2.48.92-.95,2.02-1.47,3.36-.91,1.23.51,2.05,1.92,1.87,3.26-.07.51-.24,1.03-.48,1.48-1.4,2.56-5.66,4.26-8.49,3.42-2.62-.78-3.96-3.16-3-5.71,1.46-3.88,3.95-6.97,7.66-8.93,2.61-1.38,4.85-.69,6.31,1.89,1.71,3.01,2.46,6.18,1.4,9.62-1.6,5.19-5.58,7.11-10.51,7.64-1.41.15-2.89.16-4.27-.12-3.62-.73-5.86-3.61-6.24-7.76-.06-.62-.06-1.24-.09-1.86Z"/>
      <path d="M385.31,28.97c.21-5.98-.36-11.78,1.44-17.39.85-2.66,2.25-5.01,4.01-7.28,4.22,2.3,8.32,4.53,12.63,6.89,1.14-3.59,2.27-7.15,3.4-10.7.14-.01.27-.02.41-.04.26,1.05.4,2.15.8,3.15,1.13,2.79.69,5.32-.51,8.05-.96,2.18-1.1,4.7-1.66,7.06-.73,3.09-1.52,6.18-2.27,9.27-.07.31-.06.64-.08.99h-18.17ZM395.44,24.22c.76-.31,2.05-.6,3.07-1.29,2.13-1.42,2.21-3.65.23-5.26-1.67-1.36-3.68-2.08-5.84-1.92-2.85.21-3.51,1.47-4.42,3.96-.13.35.07,1,.35,1.29,1.66,1.73,3.65,2.88,6.6,3.23Z"/>
      <path d="M279.2,134.75c-5.02-.29-9.91-.57-15.03-.87.31-2.09.61-3.86.82-5.64.59-5.11,1.18-10.22,1.69-15.34.18-1.82-.15-3.53-2.02-4.56.06-.13.13-.25.19-.38,4.06.66,8.11,1.3,12.17,1.98.99.16,1.95.44,2.94.62.9.16,1.28.59,1.2,1.55-.44,5.37-.81,10.75-1.25,16.12-.17,2.08-.45,4.15-.71,6.53Z"/>
      <path d="M216.21,109.06c-2.09,1.56-1.41,3.71-1.2,5.52.69,6,1.63,11.97,2.47,17.95.04.28.04.57.08,1.17-4.87.24-9.69.48-14.64.72-.27-2.26-.56-4.23-.73-6.21-.45-5.08-.83-10.17-1.28-15.26-.1-1.14.31-1.62,1.42-1.81,3.94-.66,7.87-1.41,11.82-2.08.67-.11,1.38-.02,2.07-.02Z"/>
      <path d="M173.66,23.21v4.18c-3.09-.88-6.21-.41-8.94-2.11-2.87-1.79-5.88-3.38-8.71-5.22-2.8-1.82-4.24-3.31-.8-6.75,2.27-2.26,5.09-3.38,7.97-4.33,6.52-2.16,13.17-3.91,19.99-4.81,4-.53,8.02-.81,12.28-1.22,0,4.63.13,8.87-.05,13.1-.1,2.38-1.75,3.97-3.98,4.56-2.2.58-4.49.82-6.75,1.14-3.68.53-7.36,1.01-11.04,1.52.51-1.73-1.45-2.03-1.99-3.39.72-.24,1.35-.58,2.02-.67,1.89-.24,3.8-.36,5.7-.55,2.98-.29,5.98-.5,8.95-.93,2.93-.42,4.21-2.57,3.48-5.44-.72-2.82-2.52-4.07-5.79-3.85-2.43.17-4.84.51-7.26.75-6.03.58-11.85,1.97-17.34,4.57-1.05.5-2.13,1.2-2.83,2.09-.49.62-.76,1.94-.42,2.57.63,1.16,1.6,2.4,2.74,2.97,2.45,1.23,5.11,2.06,7.68,3.05,1.98.77,3.72.53,5.1-1.23Z"/>
      <path d="M307.74,23.87c-4.8-1.61-9.84-1.76-14.8-2.36-1.12-.14-2.25-.48-3.29-.92-2.34-.99-3.84-2.76-3.91-5.35-.11-3.85-.03-7.71-.03-11.83,3.34.24,6.47.34,9.58.71,7.53.89,14.86,2.75,22.05,5.12,3.53,1.16,6.96,2.56,9.46,5.56,1.67,2,1.8,3.47-.32,4.95-2.68,1.88-5.7,3.28-8.41,5.13-2.77,1.9-5.9,1.93-9,2.28-.32.04-.66-.03-1.21-.06v-3.11c.97.53,1.74,1.63,3.06,1.19,3.11-1.03,6.26-1.98,9.29-3.2,1.01-.41,1.82-1.49,2.55-2.4,1.03-1.31.94-2.54-.29-3.67-.79-.73-1.76-1.31-2.73-1.8-6.3-3.13-13.09-4.31-20.01-4.92-2.27-.2-4.57-.44-6.82-.24-2.21.2-3.39,2.03-3.6,4.68-.14,1.74.96,3.37,2.85,4,1.08.36,2.21.62,3.33.74,3.98.41,7.98.7,11.97,1.11.77.08,1.51.5,2.57.86-1.35,1.14-2.86,1.75-2.26,3.52Z"/>
      <path d="M320.53,65.99c-.49-3.3-.93-6.61-1.49-9.9-.27-1.59-.7-3.16-1.18-4.7-.12-.39-.71-.63-1.08-.94-.23.38-.61.75-.65,1.16-.17,1.75-.34,3.51-.32,5.26.02,1.23-.28,1.93-1.56,2.27-2.54.66-5.02,1.54-7.56,2.15-.9.22-1.98.1-2.88-.18-1.86-.58-3.69-1.31-5.48-2.09-1.66-.72-1.78-1.24-1.09-2.87.43-1,1.01-2.08-.03-3.02-.7-.63-2.42-.14-3.26,1.01-.66.91-1.24,1.94-1.57,3.01-.39,1.26-.99,1.86-2.34,1.69-.6-.08-1.22-.01-1.83-.01.26-6.52,2.71-10.21,6.8-10.03-2.07,2.41-4.98,4.25-4.69,7.95.28-.06.43-.07.44-.11.69-2.92,2.29-5.05,5.09-6.32,1.42-.64,1.57-1.87.68-3.22-1.37-2.08-.32-4.75,2.12-5.05,5.64-.7,11.29-1.29,16.94-1.88.51-.05,1.05.19,1.58.3-.14.62-.18,1.27-.44,1.84-.25.54-.71.97-1.12,1.5,2.04.33,3.96.66,5.89.95,1.21.18,1.78.77,1.82,2.07.18,5.59.44,11.17.7,16.75.04.81-.21,1.24-.97,1.47-.87.26-1.71.61-2.56.91,0,0,.04.03.04.03ZM310.52,46.63c1.06-.75,1.39-1.52.73-2.53-.69-1.05-2.13-1.5-3.14-.73-1.08.83-1.88.79-3.04.16-1.61-.87-3.5.36-3.27,1.99.05.35.37.78.69.94.2.1.76-.15.91-.4.76-1.22,1.53-.96,2.41-.22q-1.16,2.3-3.52,1.77c-.51-.11-1.04-.18-1.53-.35-1.16-.42-1.52.18-1.47,1.17.12,2.09.2,4.2.51,6.26.11.75.69,1.6,1.3,2.08,2.77,2.12,5.91,2.21,9.11,1.2,1.54-.49,2.69-1.62,2.91-3.25.28-2.06.4-4.17.37-6.25-.02-1.42-.52-1.62-1.87-1.17-.86.28-1.72.78-2.57.76-.58-.01-1.34-.65-1.64-1.21-.16-.3.36-1.18.79-1.53.71-.57,1.32-.17,1.71.6.12.24.34.42.6.73ZM315.71,46.04c.42.25.82.55,1.28.73,1.98.79,3.19,2.22,3.58,4.3.39,2.06.75,4.12,1.07,6.19.24,1.59.39,3.2.57,4.8.12,0,.25-.02.37-.03,0-1.12.09-2.25-.02-3.35-.28-2.99-.49-5.99-1.01-8.94-.48-2.7-3.05-4.35-5.83-3.7Z"/>
      <path d="M201.83,161.94c-3.38-.05-6.38-.38-9.24-1.66-2.87-1.29-4.86-3.49-6.53-6.03-.23-.35-.12-1.09.1-1.52,1.96-3.81,5-6.12,9.31-6.81,4.39-.7,8.73-.77,13.07.3,3.01.74,5.17,2.57,6.66,5.23,1.28,2.28,1.08,4.07-.68,6.02-2.47,2.76-5.73,3.85-9.28,4.24-1.23.14-2.48.17-3.41.23ZM201.19,160.15c.69-.79,1.13-1.21,1.48-1.7,1.08-1.51,2.08-3.08,3.2-4.55.5-.66.46-1.12,0-1.75-1.26-1.73-2.46-3.5-3.67-5.27-.21-.31-.32-.69-.47-1.04-1.3,1.36-1.96,2.55-2.88,3.48-1.71,1.72-1.73,3.36-.45,5.35,1.04,1.61,1.76,3.44,2.78,5.49Z"/>
      <path d="M282.26,145.79c1.95.17,3.91.28,5.84.54,4.77.64,8.06,3.48,10.56,7.38.2.31.09,1-.11,1.38-1.88,3.44-4.86,5.48-8.62,6.32-4.83,1.08-9.68,1.08-14.46-.28-2.85-.81-5.23-2.31-6.72-4.98-1-1.8-.93-3.54.19-5.27,2.33-3.58,5.94-4.58,9.88-4.87,1.14-.08,2.29-.01,3.44-.01,0-.07,0-.14,0-.2ZM287.93,153.25c-1.6-2.28-3.18-4.52-4.87-6.92-1.07,1.4-2.01,2.6-2.92,3.81-.88,1.18-2.33,2.34-2.43,3.6-.1,1.25,1.14,2.62,1.83,3.93.59,1.12,1.22,2.21,2,3.62,2.25-2.83,4.28-5.39,6.4-8.04Z"/>
      <path d="M392.45,171.04c-.01-2.5-.23-5.08,1.07-7.44.2-.37.86-.63,1.33-.67,4.27-.34,8.55-.55,12.82-.92,3.63-.31,7.11-1.3,10.45-2.78,1.38-.61,2.47.04,2.48,1.53.03,3.33,0,6.65,0,10.27h-28.16Z"/>
      <path d="M61.6,170.94c0-3.45-.02-6.98.01-10.51,0-1.15.88-1.78,1.89-1.36,5.72,2.37,11.69,3.32,17.85,3.35,2.04,0,4.09.3,6.13.5.33.03.84.21.91.44.72,2.34,1.63,4.66,1.48,7.18,0,.04-.05.08-.27.4h-28Z"/>
      <path d="M446.79,97.9c1.68,8.25,1.27,16.31-2.2,24.13-1.18-9.38-2.36-18.76-3.56-28.31,2.42.23,4.63.49,6.86.63,2.89.18,2.86.14,3.61,2.93,1.75,6.51,1.68,13.14,1.34,19.79-.14,2.86-.49,5.71-.7,8.57-.07.96-.48,1.31-1.45,1.29-2.05-.06-4.1-.02-6.43-.02.91-1.93,1.76-3.61,2.49-5.33,2.84-6.75,3.99-13.72,2.51-20.98-.15-.73-.43-1.47-.81-2.11-.23-.38-.78-.56-1.18-.83-.16.08-.31.16-.47.24Z"/>
      <path d="M377.34,57.76c.19-1.72.08-3.21.55-4.48,1.57-4.24,3.34-8.41,5.1-12.58.17-.39.8-.72,1.27-.82.73-.16,1.51-.1,2.46-.15-.2.32-.31.53-.45.72-1.52,2.05-1.71,4.19-.42,6.42,1.04,1.79,3.3,2.74,5.75,2.33,3.1-.53,6.18-1.19,9.29-1.69,1.98-.32,3.98-.43,5.97-.67.76-.09.97.23,1.08.93.2,1.26.53,2.49.77,3.56-5.9,1.89-11.94,3.83-18.21,5.84.45-.73.87-1.24,1.09-1.81.68-1.82-.24-4.25-2.17-4.87-1.82-.58-3.81-.82-5.73-.86-.88-.02-1.77.81-2.57,1.45,2.52-1.25,4.88-.48,7.18.46,1.45.59,2.32,4.07,1.4,5.29-.16.22-.57.34-.87.36-3.66.2-7.33.37-11.49.57Z"/>
      <path d="M95.59,40.26c2.05-.47,3.1.4,3.79,2.27,1.35,3.66,2.9,7.25,4.37,10.88.18.44.32.9.45,1.36.82,3.02.47,3.45-2.62,3.26-2.43-.15-4.86-.29-7.29-.41-1.12-.05-2-.18-2.16-1.65-.23-2.11-.11-2.94,1.39-3.43,1.74-.56,3.58-.84,5.51-1.27-.45-.22-.99-.71-1.51-.68-1.61.07-3.24.21-4.81.57-2.28.52-3.72,3.19-1.01,6.3-1.03-.2-1.83-.22-2.5-.51-5.48-2.4-11.13-4.22-16.77-5.25.5-1.55.98-3.02,1.55-4.75,2.26.34,4.7.67,7.12,1.08,3.05.52,6.09,1.13,9.14,1.68,2.29.41,4.44.23,5.82-1.96,1.44-2.28,1.4-4.59-.18-6.83-.11-.16-.2-.32-.29-.49-.02-.03.01-.09.03-.17Z"/>
      <path d="M36.32,126.82h-6.68c-.12-1.45-.29-2.96-.37-4.48-.38-7.11-.75-14.23.46-21.29.32-1.87.94-3.69,1.48-5.52.11-.36.45-.88.73-.92,2.78-.36,5.57-.63,8.65-.96-1.53,9.36-3.03,18.55-4.53,27.74-.18.01-.36.03-.54.04-.6-2.82-1.29-5.62-1.78-8.45-.8-4.64-.09-9.23.61-13.81.06-.41-.1-.85-.16-1.28-.42.25-1.11.42-1.22.76-.6,1.99-1.36,4.01-1.5,6.05-.52,7.43.77,14.55,4.37,21.16.13.25.25.5.47.96Z"/>
      <path d="M98.48,36c.05.96.09,1.61.14,2.5-8.76-.55-17.24.62-25.72,2.38-.83-3.54-1.61-6.9-2.42-10.38,9.24-.25,18.47-.5,27.89-.76v5.29c-2.57.12-5.21.24-7.85.36,0,.2.01.41.02.61h7.95ZM86.48,34.76c-.15-.94-.54-1.71-1.63-1.81-.91-.08-1.77.93-1.73,2.02.04,1.04.65,1.53,1.65,1.52,1.11,0,1.57-.7,1.7-1.73ZM98.05,33.44c-.56-1.1-1.52-1.27-5-.98-.47.04-.92.37-1.38.56.06.14.12.28.17.42h6.21Z"/>
      <path d="M415.51,58.5c-.33-1.87-.68-3.63-.95-5.41-.23-1.52.74-2.98,2.24-3.38,1.05-.28,2.13-.49,3.19-.73-1.48-3.67-4.75-4.22-7.13-1.14-.6.78-.95,1.76-1.51,2.58-.29.42-.78.7-1.18,1.04-.17-.08-.34-.16-.52-.24-.15-2.36-.54-4.74-.34-7.07.09-1.02,1.26-2.06,2.15-2.86,3.28-2.94,9.28-3.17,12.77-.44.85.66,1.59,1.72,1.93,2.74,2.4,7.17-2.99,14.69-10.66,14.91Z"/>
      <path d="M411.06,30.92c-.8,3.46-1.59,6.86-2.38,10.24-3.6-.64-6.99-1.48-10.44-1.8-4.27-.4-8.57-.41-12.86-.54-1.84-.06-1.84,0-1.68-2.25h7.34c0-.23,0-.46.01-.69-2.54-.13-5.07-.26-7.81-.4-.21-1.68-.43-3.4-.67-5.32,9.59.26,18.97.51,28.48.77ZM395.29,35.18c-.02,1.17.45,1.82,1.5,1.81.98-.01,1.6-.59,1.67-1.59.07-1.02-.8-2.03-1.65-1.95-1.11.11-1.49.87-1.52,1.73ZM389.79,33.98c.07-.16.13-.31.2-.47-.33-.23-.67-.65-1-.65-1.57-.03-3.13.03-4.7.12-.23.01-.43.36-.65.55.25.15.5.43.75.43,1.8.04,3.6.02,5.4.02Z"/>
      <path d="M61.51,48.68c1.45.44,2.66.71,3.8,1.16,1.36.53,1.93,1.64,1.72,3.09-.26,1.78-.56,3.56-.85,5.37-4.49.42-9.6-3.6-10.63-8.49-.21-1.02-.32-2.08-.34-3.12-.11-4.21,1.45-6.25,5.5-7.34,4.48-1.21,8.31-.29,11.3,3.41.22.27.49.65.46.96-.18,2.18-.41,4.36-.7,6.53-.05.39-.48.74-.73,1.1-.35-.33-.78-.6-1.04-.98-.74-1.1-1.26-2.38-2.13-3.36-1.53-1.73-2.97-1.72-4.7-.16-.59.53-1.07,1.18-1.67,1.84Z"/>
      <path d="M276.25.42c.38,3.24.79,6.37,1.11,9.5.45,4.41.91,8.82,1.23,13.24.2,2.79-.34,3.18-3.07,3.04-3.83-.2-7.67-.34-11.49-.51V1.49c1.4-.1,2.57-.19,4.01-.29,0,.62,0,1.17,0,1.71.08,6.16.19,12.32.22,18.48,0,1.05.38,1.48,1.35,1.54.1,0,.19.02.28.03,4.59.65,5.73-.44,5.21-5.1-.53-4.74-1.17-9.47-1.66-14.21-.27-2.65.04-2.91,2.81-3.23Z"/>
      <path d="M410.34,158.67c-4.63,1.58-9.36,2.07-14.11,2.4-.27.02-.73-.28-.82-.53-1.43-4.13-2.8-8.27-4.28-12.66,2.61-.37,4.9-.8,7.2-.98,2.08-.16,4.18-.12,6.26.01.63.04,1.57.56,1.78,1.09,1.4,3.48,2.64,7.03,3.97,10.67Z"/>
      <path d="M213.04,1.55h4.02c.19,8.12.38,16.16.57,24.4-1.79,0-3.47.01-5.16,0-2.62-.03-5.25-.11-7.87-.1-1.17,0-1.63-.59-1.73-1.64-.03-.33-.04-.67-.01-1,.65-7.49,1.31-14.98,1.98-22.62.91.21,1.85.44,3.11.73-.3,3.15-.59,6.26-.89,9.38-.28,2.9-.65,5.79-.83,8.69-.17,2.91,1.08,3.99,4.01,3.71,2.82-.28,2.8-.28,2.8-3.07,0-6.11,0-12.22,0-18.47Z"/>
      <path d="M90.66,148.05c-1.39,4.14-2.68,8.03-4.03,11.9-.14.39-.66.94-.98.93-4.77-.15-9.48-.75-14.19-2.26.76-1.88,1.51-3.67,2.21-5.48.56-1.47,1.15-2.94,1.55-4.45.36-1.38,1.27-1.9,2.51-1.83,3.38.18,6.75.43,10.13.7.84.07,1.67.29,2.8.5Z"/>
      <path d="M32.34,159.53c.65,3.67,1.35,7.55,2.07,11.62-1.61,0-3.07.02-4.53,0-3.58-.06-7.16-.18-10.74-.19-1.47,0-2.2-.46-2.12-2.06.06-1.08-.17-2.17-.29-3.6h11.46c.05-.24.1-.47.16-.71-.44-.18-.87-.53-1.31-.52-2.91.02-5.82.11-8.74.17-.47.01-.95,0-1.57,0-.15-1.46-.3-2.91-.49-4.71h16.1Z"/>
      <path d="M410.77,95.48q2.33-.24,2.14-2.05c-.03-.24-.04-.48-.06-.71-.14-1.83-.4-2.1-1.96-2.11-1.65-.02-2.79.81-2.69,2.27.13,1.74.52,3.48.94,5.18.09.37.81.81,1.25.83,1.33.05,2.67-.13,4-.15,1.39-.02,1.99-.85,2.12-2.05.16-1.37.26-2.76.22-4.14-.1-2.95.71-5.66,1.91-8.29.58-1.28,1.56-1.99,2.96-2.18,4.19-.58,8.29.05,12.36.91.51.11,1.15.5,1.36.94,1.05,2.21,1.98,4.48,2.73,6.87-2.03-1.02-2.38-3.85-5.07-4.17-.07.86-.13,1.72-.22,2.88-1.37-.9-.59-2.24-1.16-3.21-.43-.05-.93-.11-1.52-.18-.03.64.01,1.17-.11,1.66-.09.38-.4.71-.61,1.06-.24-.36-.58-.69-.68-1.09-.15-.53-.12-1.12-.16-1.64-2.07-.55-2.05-.54-2.23,1.45-.03.38-.37.73-.56,1.1-.26-.36-.63-.68-.76-1.08-.15-.48-.09-1.03-.13-1.72-.65.04-1.23.07-1.83.11-.05,1.03-.09,1.94-.14,2.85-.14.02-.27.04-.41.06-.13-.41-.29-.82-.38-1.24-.09-.42-.11-.85-.16-1.27-1.88.26-3.39,2.82-3.03,5.12.1.66.18,1.33.38,1.97.87,2.83-.26,5.06-2.38,6.67-1.04.79-2.63.89-4,1.21-1.44.34-2.91.54-4.34.87-.78.18-1.1-.13-1.13-.83-.13-2.86-.41-5.72-.3-8.57.11-3,3.57-5.12,6.42-4.12.29.1.62.5.68.81.34,2.02.62,4.05.89,6.08.03.22-.05.64-.14.66-.97.17-1.95.37-2.93.36-.34,0-.67-.57-1.27-1.13Z"/>
      <path d="M69.28,95.3c-.1,1.83-1.29,1.31-2.14,1.32-.8.01-1.56-.16-1.55-1.24.03-1.62.04-3.25.08-4.87.02-.93.47-1.42,1.45-1.29.85.11,1.72.16,2.55.35,2.14.49,3.4,1.82,3.5,4.14.1,2.47-.1,4.96-.28,7.43-.02.3-.75.81-1.12.78-2.09-.19-4.17-.48-6.24-.8-2.2-.34-4.84-3.69-4.9-6.07-.04-1.76-.03-3.54-.31-5.27-.22-1.36-.66-2.8-2.41-3.29-.16.85-.3,1.58-.44,2.3-.13,0-.25,0-.38,0-.11-.75-.22-1.51-.35-2.4h-1.44c-.08.89-.17,1.77-.29,3.04-1.29-1.17-.41-3.97-3.03-2.89-.25.9-.51,1.82-.77,2.74-.17-.04-.34-.08-.5-.12-.12-.83-.24-1.65-.36-2.48-1.2-.29-1.8.04-1.74,1.31.02.51-.16,1.03-.25,1.54-.15,0-.3,0-.45,0-.15-.88-.29-1.76-.44-2.66-2.6.28-2.45,3.54-5.04,4.24.63-2.17,1.1-4.1,1.77-5.96.18-.51.91-1.09,1.45-1.16,4-.55,8.02-.98,12.04-1.44,1.38-.16,2.25.65,2.9,1.72,1.64,2.69,2.62,5.6,2.93,8.75.14,1.38.38,2.74.57,4.11.13.96.73,1.41,1.65,1.49,1.29.1,2.58.15,3.86.28.96.09,1.59-.25,1.78-1.22.28-1.4.64-2.79.74-4.21.11-1.53-.91-2.35-2.58-2.35-1.42,0-1.96.69-2.02,2.33-.05,1.26.23,2.08,1.76,1.82Z"/>
      <path d="M454.22,165.29h10.32c-.14,1.97-.25,3.7-.39,5.68h-16.13c.72-3.77,1.46-7.59,2.23-11.61h14.78c-.12,1.64-.23,3.08-.36,4.8-1.36,0-2.67,0-3.99,0-1.82,0-3.63-.01-5.45.04-.4.01-.78.28-1.18.44.06.22.11.44.17.65Z"/>
      <path d="M433.73,144.34c1.71-2.77,3.41-5.04,4.59-7.55,1.63-3.48,3.86-5.2,7.86-4.34,1.57.34,3.28.06,4.97.06-.18,3.52-.32,6.7-.56,9.88-.03.36-.55.97-.87.99-5.18.36-10.36.64-15.99.96Z"/>
      <path d="M247.97,25.49v-4.87c.78.17,1.45.33,2.13.46,1.64.31,3.26.71,4.92.89,2.13.23,3.04-.46,3.36-2.53.48-3.16.94-6.33,1.25-9.51.23-2.32-.87-3.38-3.19-3.33-1.9.04-3.81.17-5.81.27-.13-1.47-.25-2.91-.38-4.42,3.83-.23,7.59-.45,11.57-.69v23.73h-13.84Z"/>
      <path d="M47.66,144.07c-5.36-.17-10.72-.34-16.28-.51-.35-3.61-.68-7.1-1.03-10.73.51-.1.95-.23,1.41-.26,2.28-.14,4.57-.28,6.86-.35.44-.01,1.05.22,1.29.55,2.62,3.58,5.18,7.21,7.75,10.83.04.06,0,.17,0,.47Z"/>
      <path d="M452.51,94.09c1.15,0,2.57.01,3.98,0,2.29-.02,4.59.02,6.88-.12,1.38-.09,2.16.3,2.3,1.74.05.45.22.89.37,1.47-3.69.12-7.22.21-10.74.37-.46.02-1.26.37-1.28.61-.07,1.03.81.66,1.35.66,3.15-.02,6.31,0,9.46-.14,1.32-.05,1.95.34,1.97,1.69,0,.56.16,1.11.28,1.85-1.2.06-2.28.13-3.36.17-2.29.08-4.58.12-6.87.26-.41.02-.79.45-1.18.69.07.17.14.35.21.52h11.51v3.5h-12.94c-.62-4.26-1.25-8.61-1.93-13.26Z"/>
      <path d="M230.35,6.39c-1.74,0-3.4-.04-5.06,0-2.98.09-3.91,1.08-3.51,4.02.42,3.16,1.04,6.3,1.56,9.45.2,1.22.92,1.93,2.14,1.84,1.6-.12,3.2-.37,4.79-.62.74-.12,1.47-.36,2.35-.59v4.5c-4.3.3-8.63.59-13.02.89V1.79c3.37.21,6.63.4,9.9.62,1.02.07,1.41.6,1.17,1.64-.17.73-.21,1.5-.33,2.33Z"/>
      <path d="M16.12,97.48c1.17-3.87.57-3.25,3.89-3.2,3.24.04,6.48.18,9.55.26-.74,4.37-1.46,8.62-2.19,12.99h-12.67c-.12-.19-.21-.26-.21-.33.1-4.08-.39-3.29,3.32-3.39,2.47-.06,4.95-.01,7.38-.01.43-1.19-.08-1.39-.98-1.38-3,.03-6.01,0-8.95,0-.1-.25-.17-.33-.16-.41q.35-3.14,3.45-3.11c2.34.03,4.68.06,7.02.12.9.02,1.23-.3.86-1.56h-10.3Z"/>
      <path d="M230.41,124.53c-1.48-.22-2.91-1-3.74-2.52-2.02-3.68-2.73-7.61-1.74-11.75.42-1.74,1.37-3.25,2.99-4.03,6.01-2.89,12.3-4.34,19-3.28.23.04.47.1.7.16,6.38,1.94,8.86,4.83,7.9,13.21-.22,1.9-1.04,3.76-1.77,5.57-.56,1.4-1.46,1.71-3.28,1.38,2.19-.66,2.72-2.28,2.76-4.02.06-3.14-.05-6.29-.13-9.43-.01-.4-.18-.92-.46-1.17-1.87-1.67-3.63-3.62-6.47-3.4-4.52.34-9.08.5-13.54,1.22-3.25.53-4.83,2.05-5.24,5.06-.44,3.24-.32,6.51.92,9.59.49,1.22,1.4,2.28,2.1,3.4Z"/>
      <path d="M248.01,101.66c1.49.29,3.14.27,4.44.93,2.41,1.23,4.62,2.85,6.92,4.31,1.18.75.43,1.97.46,2.84.13,4.24.03,8.49-.15,12.74-.13,2.95-1.33,4.18-4.3,4.23-3.7.06-7.41-.18-11.36-.29.11-1.62.13-2.9.32-4.14.05-.31.6-.7.98-.78,1.17-.23,2.36-.37,3.55-.45.85-.06,1.17-.4,1.12-1.25-.2-3.56-.36-7.13-.54-10.69-.02-.32-.05-.65-.07-.97.12-.07.24-.15.36-.22.57.81,1.35,1.54,1.67,2.44,1.12,3.2.97,6.49.2,9.73-.4,1.69-1.93,2.07-3.38,2.5-.54.16-1.02.53-1.52.81.47.48.86,1.15,1.44,1.41,3.62,1.59,7.23-.17,8.16-3.97.81-3.3,1.32-6.63.95-10.07-.3-2.75-1.58-4.8-3.91-6.14-1.71-.98-3.56-1.72-5.35-2.57l.03-.37Z"/>
      <path d="M30.06,88.6c-3.31-.23-6.58-.46-10.1-.71.7-1.2,1.21-2.39,2.02-3.34.34-.4,1.29-.42,1.95-.39,2.72.11,5.43.31,8.15.46.68.04,1.42.1,1.26-1.18-3.25-.28-6.55-.56-9.88-.85.81-2,2.02-2.92,4.21-2.62,3.25.45,6.54.67,10.04,1.01-.6.76-1.19,1.37-1.6,2.07-1.68,2.88-3.35,5.77-4.91,8.71-.46.87-.9,1.3-1.93,1.23-3.18-.24-6.37-.39-9.55-.55-.56-.03-1.12.05-1.7.07.54-2.73.7-2.88,3.28-2.78,2.48.09,4.96.17,7.44.34,1.02.07,1.42-.28,1.33-1.48Z"/>
      <path d="M232.06,102.22c-.95.46-1.6.84-2.3,1.11-5.03,1.94-6.8,6-7.02,10.97-.14,3.23.63,6.26,2.81,8.8,1.64,1.91,3.72,2.64,6.16,2.22.71-.12,1.36-.61,2.37-1.09-4.76-1.59-5.25-5.35-5.46-8.95-.13-2.2-.3-4.83,2.37-6.43,0,1.76.01,3.31,0,4.86-.02,1.77-.02,3.54-.12,5.3-.06,1.15.43,1.8,1.47,2.13.32.1.64.21.96.29,3.51.87,3.59.99,3.34,4.89-.57.08-1.17.24-1.77.24-3.19,0-6.39.07-9.57-.08-2.14-.1-3.08-.87-3.41-3-.52-3.34-.75-6.72-1.09-10.08-.15-1.5-.29-3.01-.36-4.52-.02-.4.15-.95.44-1.21,1.49-1.35,3.04-2.62,4.57-3.92,1.83-1.55,3.92-2.11,6.6-1.54Z"/>
      <path d="M444.1,81.33c3.31-.26,6.25-.5,9.18-.73.24-.02.49.02.71-.05,2.03-.63,3.25.36,4.25,2.29-2.94.26-5.79.52-8.7.78-.17.92.12,1.36,1.09,1.29,2.24-.16,4.49-.19,6.71-.49,1.72-.23,2.98.08,3.71,1.77.2.46.56.85.97,1.48-3.5.19-6.75.37-10.16.56.08.57.14,1.01.16,1.18,2.97,0,5.78.02,8.59,0,2.53-.02,2.53-.04,3.62,2.81-4.17.14-8.24.3-12.3.38-.32,0-.79-.46-.96-.81-1.77-3.66-3.61-7.26-6.87-10.44Z"/>
      <path d="M254.17,100.75c4.13.19,8.26.3,12.37.61,2.37.18,4.73.59,7.06,1.08,4.88,1.02,8.32,4.19,11.46,7.85-.15.13-.23.25-.27.24-7.23-2.2-14.6-3.56-22.16-3.84-.28-.01-.62,0-.83-.14-2.59-1.75-5.17-3.54-7.74-5.31.04-.16.08-.32.11-.48ZM276.28,104.45c-5.17-.75-10.28-1.97-15.56-1.45,4.64,1.09,9.3,1.98,13.95,2.94,1.26.26,1.65-.22,1.6-1.5Z"/>
      <path d="M175.92,39.15c-4.87-.77-10.14-1.59-15.4-2.48-.33-.06-.79-.63-.82-.99-.26-3.03.18-5.91,2.38-8.22.31-.32.95-.57,1.37-.5,3.29.57,6.56,1.22,9.7,1.83,0,1.95-.37,3.98.11,5.78.46,1.71,1.81,3.18,2.66,4.58ZM164.02,32.73c1.84.56,3.72,1.14,5.67,1.74.56-1.66,1.06-3.17,1.57-4.68-5.42-1.67-5.59-1.6-7.22,2.62-.02.04,0,.09-.02.31Z"/>
      <path d="M303.85,39.16c4.77-2.17,4.89-5.83,3.28-10.06,3.19-.49,6.14-.96,9.09-1.38.99-.14,2.47-.59,2.9-.13,1.26,1.34,2.75,2.72,2.78,4.84,0,.48.02.95.03,1.43q.07,2.94-2.77,3.36c-4.99.74-9.98,1.48-14.97,2.21l-.35-.27ZM308.68,29.93c.81,1.61,1.51,3.05,2.28,4.46.11.2.58.37.8.3,1.94-.59,3.87-1.24,5.96-1.92-.76-1.24-1.38-2.35-2.11-3.39-.18-.25-.74-.39-1.1-.34-1.84.24-3.67.55-5.84.89Z"/>
      <path d="M224.54,101.81c-2.14,1.99-3.97,3.7-5.84,5.39-.22.2-.6.35-.9.33-4.64-.16-9.1.95-13.58,1.91-2.22.47-4.44.99-6.98,1.56,2.13-3.13,4.38-5.67,7.8-6.92,6.18-2.25,12.57-2.58,19.5-2.27ZM205.04,105.17c-.2,1.53.28,1.96,1.42,1.7,4.21-.95,8.43-1.9,12.64-2.86.03,0,.02-.14.08-.58-4.77.59-9.45,1.16-14.14,1.74Z"/>
      <path d="M287.98,50.31c2.08-2.49,5.13-4.53,4.13-8.45-1.07,1.95-1.52,4.28-3.57,5.68.54-3.73.95-7.4,1.67-11.01.22-1.09,1.09-2.33,2.02-2.94,1.74-1.14,3.68-2.03,5.65-2.69.94-.31,2.21-.07,3.19.3,1.38.52,1.57,3.01.27,3.86-1.25.81-2.72,1.34-4.14,1.85-1.27.45-1.82,1.1-1.98,2.55-.47,4.26-1.61,8.28-5.72,10.64-.38.22-.8.36-1.2.54-.11-.1-.22-.21-.34-.31ZM291.78,39.23c.2.06.41.13.61.19.15-2.01,1.46-2.98,2.98-3.73.98-.48,2.02-.83,3.01-1.28.53-.24,1.01-.56,1.72-.95-.35-.23-.46-.35-.58-.38-2.27-.55-7.01,1.94-7.72,4.13-.2.62-.03,1.35-.03,2.03Z"/>
      <path d="M192.15,47.93c-.88-1.74-1.75-3.47-2.69-5.34q-.39,1.37,3.64,7.46c-.61-.35-.9-.5-1.16-.67-3.39-2.35-4.87-5.8-5.33-9.73-.22-1.83-1.12-2.63-2.81-3.04-1.28-.31-2.52-.85-3.7-1.46-.98-.51-1.35-1.43-1.02-2.56.3-1.04.95-1.54,2.04-1.69,3.37-.47,6.03,1.16,8.46,3.06.78.61,1.04,2.09,1.23,3.22.58,3.52,1.01,7.06,1.5,10.59-.05.05-.11.1-.16.15ZM181.53,32.91c-.08.19-.17.38-.25.56.69.33,1.36.68,2.06.98,2.4,1.01,4.95,1.83,5.85,4.71.01.03.16.02.25.03.44-1.2.28-2.32-.7-3.35-1.97-2.06-4.47-2.82-7.2-2.93Z"/>
      <path d="M73.84,44.2c.44-.55.69-1.2,1.12-1.35,5.62-1.96,11.34-3.38,17.37-2.96,2,.14,2.66.69,3.21,2.79.42,1.61-.14,3.19-1.57,3.93-.63.32-1.48.47-2.18.37-5.8-.85-11.6-1.78-17.95-2.77ZM91.12,45.29c-.23-.04-.14-.01-.05,0,2.03.02,3.34-.63,3.4-1.68.07-1.19-1.17-2.14-3.25-2.06-3.29.12-6.56.47-9.84.77-.38.04-.73.43-1.09.66.36.26.68.68,1.08.76,2.09.46,4.2.84,6.41,1.28-1.06-1.83-.65-2.69,1.2-2.8.43-.02.93-.13,1.27.05.62.31,1.43.7,1.61,1.24.16.46-.46,1.18-.74,1.8Z"/>
      <path d="M184.87,40.79c-.42.02-.86.14-1.26.04-1.9-.47-3.82-.86-5.65-1.52-2.87-1.03-4.62-6.28-3.23-9.29,1.07-2.32,2.78-3.82,5.32-4.34,3.56-.74,6.99-.88,9.58,1.34.07,1.47.12,2.51.17,3.53-1.34-.57-2.65-1.3-4.06-1.66-1.41-.36-2.92-.53-4.36-.45-2.41.14-4.47,2.11-4.97,4.67-.41,2.12.81,3.6,2.49,4.58,1.47.85,3.11,1.4,4.68,2.09.45.2.9.39,1.35.58l-.08.42Z"/>
      <path d="M290.72,27.92c1.73-1.69,3.92-2.29,6.24-2.34,1.45-.03,2.94.23,4.37.53,2.99.63,5.52,3.51,5.75,6.37.22,2.74-1.88,6.03-4.68,7.06-1.93.71-3.96,1.18-5.94,1.76-.08-.17-.15-.35-.23-.52.43-.25.84-.53,1.29-.73,1.48-.66,3.03-1.18,4.43-1.97,2.26-1.27,3.27-3.13,2.87-4.81-.63-2.64-2.7-4.42-5.35-4.61-3.22-.23-5.96.98-8.67,3.04.12-.82.25-1.44.3-2.06.05-.54,0-1.08,0-1.62-.13-.04-.26-.07-.4-.11Z"/>
      <path d="M248.96,18.87c.36-2.12.63-4.04,1.05-5.93.08-.36.73-.79,1.17-.85,1.39-.19,2.81-.21,4.23-.5-1.52-1.3-3.35-.33-5.05-.74v-1.87c2.09-.15,4.16-.33,6.23-.45,1.07-.06,1.09.77,1.01,1.49-.26,2.28-.48,4.56-.89,6.81-.71,3.96.16,3.38-4.2,2.84-1.21-.15-2.4-.54-3.55-.81Z"/>
      <path d="M207.68,96.66c.35,1.86.67,3.57,1.04,5.57-4.42.63-8.72,1.24-13.21,1.88.28-1.9.48-3.59.8-5.25.06-.34.54-.8.88-.85,3.43-.49,6.88-.9,10.49-1.36Z"/>
      <path d="M232.25,18.68c-1.98.42-3.82.87-5.68,1.16-.36.06-1.12-.44-1.19-.78-.58-3.13-1.06-6.28-1.56-9.43-.15-.95.33-1.31,1.22-1.27,1.75.08,3.51.15,5.35.24.11.69.2,1.27.31,1.97-1.37.07-2.61.08-3.83.22-.37.04-.7.45-1.05.68.37.15.75.46,1.1.43,3.63-.26,3.62-.27,4.41,3.26.24,1.06.54,2.11.91,3.52Z"/>
      <path d="M285.19,98.14c.37,2.07.72,4.03,1.08,6.07-4.76.04-9.01-2.07-13.68-3,.2-1.15.35-2.37.67-3.54.07-.24.75-.48,1.13-.45,3.55.27,7.1.59,10.81.91Z"/>
      <path d="M390.38,46.16c-1.52.08-2.83-.47-3.56-1.85-.76-1.44-.18-2.82.68-4.01.26-.36.99-.55,1.5-.53,4.67.09,9.36.12,13.82,1.87,1.33.52,2.71.9,4.05,1.4.24.09.39.44.58.67-.24.16-.48.44-.74.47-5.44.68-10.89,1.33-16.33,1.98ZM394.38,44.16c3.03.21,6.33-.61,7.02-1.99-1.79-.26-3.51-.61-5.24-.75-2.22-.18-4.47-.3-6.69-.23-1.21.04-2.4,1.45-1.95,2.15.4.64,1.4.9,1.96,1.22.22-.98.24-2.08.54-2.17,1.09-.31,2.31-.46,3.42-.28.4.07.61,1.25.96,2.04Z"/>
      <path d="M273.65,95.51c.37-2.01.71-3.81,1.07-5.78,2.16.24,4.23.44,6.3.71,3.06.4,3.06.42,3.53,3.5.11.75.21,1.5.33,2.44-3.72-.29-7.35-.57-11.24-.87Z"/>
      <path d="M283.33,134.8c-.56-.05-1.01-.09-1.58-.14.69-7.74,1.49-15.36,1.14-23.13-.07.04.01-.05.08-.04,2.92.54,2.7-.07,2.82,3.12.26,6.82-.91,13.48-2.47,20.19Z"/>
      <path d="M191.84,120.19c.36.28.86.48,1.04.85,1.79,3.48,2.74,8.18-1.96,10.88-2.62,1.5-5.27,2.72-8.34,2.64-3.22-.08-5.09-2.76-4.09-5.85.44-1.35,1.01-2.67,2.66-3.56-.42,1.14-.82,1.98-1.05,2.87-.71,2.7.48,4.2,3.22,3.79,2.06-.31,4.14-.79,6.06-1.59,3.24-1.36,4.2-3.74,3.21-7.12-.27-.91-.65-1.78-.98-2.66.08-.08.16-.17.23-.25Z"/>
      <path d="M198.98,112.23c.48,7.24.97,14.5,1.47,21.91-.47.07-1.09.16-1.96.28-.41-2.25-.88-4.41-1.19-6.6-.62-4.29-.77-8.61-.49-12.95.11-1.65.65-2.58,2.18-2.64Z"/>
      <path d="M385.21,66.78c.95-.43,1.9-.86,2.86-1.29.48-.21,1.03-.34,1.43-.65.39-.31.62-.81.92-1.23-.42-.29-.82-.79-1.26-.83-1.28-.1-2.6-.16-3.85.04-1.41.23-2.1-.1-2.06-1.59,0-.27-.08-.55-.15-.99,1.8-.25,3.54-.49,5.28-.74,1.69-.24,3.38-.5,5.14-.76,1,1.73,1.24,3.65,1.27,5.62,0,.26-.24.69-.46.75-2.94.84-5.9,1.62-8.86,2.42-.08-.25-.17-.5-.25-.75Z"/>
      <path d="M300.55,126.29c1.71.97,2.77,3.98,2.14,6.21-.56,1.97-1.98,3-4.37,2.88-3.89-.19-7.21-1.84-9.84-4.63-.82-.87-1.31-2.42-1.27-3.63.05-1.66.7-3.32,1.22-4.94.17-.52.76-.9,1.4-1.12-.41,1.44-.9,2.86-1.22,4.31-.4,1.87.31,3.4,1.8,4.52,2.53,1.9,5.51,2.57,8.58,2.8,1.43.11,2.35-.82,2.27-2.33-.07-1.38-.47-2.75-.71-4.07Z"/>
      <path d="M197.37,90.67c2.75-.38,5.42-.76,8.11-1.09.26-.03.77.27.82.5.36,1.51.63,3.05.96,4.77-3.6.49-7.05.97-10.64,1.46.27-2.02.5-3.79.74-5.64Z"/>
      <path d="M27.5,113.19h-13.13v-3.91h13.13v3.91Z"/>
      <path d="M270.26,1.43h1.3c.13,2.1.2,4.15.4,6.19.32,3.37.75,6.73,1.07,10.1.08.88.09,1.83-.15,2.67-.36,1.28-1.51,1.79-2.74,1.3-.3-.12-.64-.61-.64-.92.17-6.35.38-12.7.59-19.04,0-.08.09-.17.16-.3Z"/>
      <path d="M209.61,1.51c.52-.03.94-.05,1.51-.08.11,1.86.24,3.65.31,5.44.17,4.38.35,8.76.45,13.14.01.56-.44,1.61-.61,1.6-.82-.06-1.87-.19-2.37-.72-.49-.53-.61-1.59-.55-2.39.26-3.56.67-7.11.95-10.67.17-2.08.2-4.17.3-6.32Z"/>
      <path d="M98.57,60.75c-.23.79-.4,1.38-.59,2.02-1.84,0-3.64-.07-5.42.05-.46.03-.88.64-1.32.98.31.39.53.96.93,1.15,1.16.53,2.4.9,3.6,1.34.42.15.82.35,1.57.66-.59.24-.85.45-1.04.4-2.72-.65-5.44-1.34-8.16-2.02-1.12-.28-1.55-.98-1.35-2.11.13-.75.15-1.53.36-2.25.54-1.86,1.16-2.06,3.03-1.66,2.37.5,4.79.77,7.18,1.15.36.06.71.17,1.22.29Z"/>
      <path d="M467.31,109.22v3.8h-12.96v-3.8h12.96Z"/>
      <path d="M272.04,34.58v-5.81h8.72c0,1.8.04,3.45-.04,5.09-.01.25-.6.67-.94.68-2.52.06-5.05.03-7.74.03Z"/>
      <path d="M46.88,70.31c-1.36,1.66-2.57,3.17-3.83,4.64-.2.24-.68.43-.98.38-3.39-.62-6.77-1.29-10.3-1.98.84-.93,1.46-1.89,2.33-2.48.63-.43,1.59-.46,2.41-.49,2.31-.07,4.62-.05,6.93-.07,1.04,0,2.09,0,3.44,0Z"/>
      <path d="M200,28.48h7.51v6.44h-7.16c-.12-2.13-.23-4.2-.35-6.44Z"/>
      <path d="M198.37,34.86c-1.85.09-3.55.2-5.26.21-.26,0-.7-.45-.76-.75-.33-1.87-.62-3.75-.81-5.64-.04-.35.4-1.03.68-1.07,1.45-.18,2.92-.29,4.38-.24.93.03,1.44.55,1.42,1.7-.04,1.83.2,3.67.35,5.79Z"/>
      <path d="M239.94,34.62h-6.32c.17-2.53.32-4.98.49-7.55h5.48c.11,2.46.23,4.92.35,7.55Z"/>
      <path d="M440.27,76.94c3.31-.61,6.52-1.25,9.75-1.75.6-.09,1.37.22,1.91.58,1.06.72,2,1.6,2.99,2.42-.12.18-.24.37-.36.55-2.52.32-5.04.65-7.56.97-.28.04-.59-.01-.85.08-2.89,1.09-4.35-.79-5.88-2.85Z"/>
      <path d="M412.72,143.32c.48-.81.79-1.34,1.09-1.84,4.25,3.08,8.47,6.15,12.79,9.28-.69.89-1.37,1.77-2.23,2.89-3.96-3.51-7.8-6.92-11.65-10.33Z"/>
      <path d="M58.21,153.77c-1.05-1.23-1.78-2.09-2.54-2.98,3.99-3.23,7.89-6.39,11.94-9.67.32.42.73.96,1.55,2.04-3.6,3.49-7.19,6.96-10.95,10.61Z"/>
      <path d="M41.43,76.72c-.86,1.05-1.57,1.92-2.3,2.76-.13.15-.43.25-.63.23-3.76-.4-7.53-.83-11.71-1.3,1.19-1.29,2.03-2.25,2.93-3.14.23-.23.69-.42,1-.37,3.51.57,7.01,1.18,10.71,1.82Z"/>
      <path d="M283.81,89.09c-3.03-.31-5.81-.6-8.77-.9.33-1.86.64-3.57.97-5.41,2.21.16,4.29.29,6.37.49.28.03.71.39.76.65.27,1.63.44,3.28.67,5.17Z"/>
      <path d="M288.49,35.76c-2.07-.2-3.81-.37-5.68-.56,0-1.94.01-3.87,0-5.79,0-1.1.81-1.26,1.56-1.22,1.41.07,2.83.26,4.22.51.31.06.79.64.76.93-.21,2.02-.54,4.02-.85,6.13Z"/>
      <path d="M434.79,70.93c3.37.17,6.36.35,9.35.45.79.03,1.58-.22,2.37-.29.28-.02.66.03.85.21.72.67,1.37,1.41,2.19,2.27-3.48.7-6.81,1.39-10.16,2.02-.33.06-.84-.2-1.08-.47-1.13-1.27-2.2-2.59-3.53-4.18Z"/>
      <path d="M215.96,34.83h-6.63v-6.16h6.63v6.16Z"/>
      <path d="M225.42,28.59h6.92c-.09,1.91-.19,3.92-.29,6.06h-6.63v-6.06Z"/>
      <path d="M205.85,87.83c-2.76.37-5.35.72-8.22,1.11.24-1.89.43-3.66.72-5.41.03-.21.57-.44.89-.48,1.61-.18,3.22-.35,4.83-.4.35-.01.96.43,1.04.76.32,1.38.49,2.79.75,4.4Z"/>
      <path d="M241.27,26.84c1.7-.08,3.24-.14,4.92-.22.36,2.61.7,5.09,1.06,7.75h-5.61c-.12-2.37-.25-4.86-.38-7.53Z"/>
      <path d="M217.7,34.71v-5.94h6v5.94h-6Z"/>
      <path d="M423.37,154.65c-.77.98-1.43,1.84-2.25,2.89-4.13-3.59-8-7.27-9.29-12.9,3.25,3.98,7.08,7.27,11.54,10.02Z"/>
      <path d="M263.99,34.24v-5.61h6.27v5.61h-6.27Z"/>
      <path d="M256,28.53h6.16v5.62h-6.16v-5.62Z"/>
      <path d="M61.17,157.36c-.8-1.01-1.5-1.9-2.06-2.61,3.61-3.46,7.16-6.85,10.91-10.43-1.64,5.37-5.04,9.26-8.84,13.04Z"/>
      <path d="M248.03,27.89c2.14.19,4.08.35,6.12.53v5.81h-5.21c-.29-2.03-.6-4.12-.92-6.34Z"/>
      <path d="M282.82,81.69c-2.25-.2-4.33-.39-6.55-.59.3-1.8.59-3.51.89-5.27,1.59.18,3.01.28,4.41.53.38.07.91.57.96.93.18,1.4.2,2.83.29,4.4Z"/>
      <path d="M58.57,157.97h-12.52c-.04-.81-.08-1.59-.14-2.65,3.45,0,6.88-.16,10.27.1.92.07,1.74,1.4,2.61,2.15-.08.13-.15.27-.23.4Z"/>
      <path d="M283.69,68.23c-1.82-.25-3.5-.48-5.42-.75.25-1.72.48-3.39.77-5.38,1.72.26,3.43.49,5.13.8.16.03.34.62.3.92-.2,1.41-.48,2.8-.77,4.41Z"/>
      <path d="M204,75.72c.24,1.77.45,3.36.68,5.14-2.05.2-4,.39-5.98.58,0-1.62-.04-3.09.03-4.54.02-.29.45-.76.74-.8,1.45-.19,2.92-.26,4.53-.38Z"/>
      <path d="M392.41,159.08c.41,1.07.29,1.76-.18,2.68-.68,1.35-1.09,2.93-1.23,4.45-.22,2.5-.16,2.58-2.82,2.31,0-2.44-.02-4.9.03-7.35,0-.22.38-.51.65-.63,1.13-.5,2.28-.95,3.54-1.46Z"/>
      <path d="M285.77,56.12c-.33,1.88-.62,3.51-.91,5.2-1.85-.25-3.59-.49-5.5-.75.25-1.65.5-3.22.76-4.97,1.86.17,3.68.34,5.65.52Z"/>
      <path d="M438.4,145.93c-.12,1.36-.23,2.63-.34,3.91h-8.25c1-1.35,1.82-2.49,2.68-3.6.12-.16.4-.29.61-.29,1.7-.02,3.4-.01,5.31-.01Z"/>
      <path d="M426.54,154.24c.99-2.31,2.38-3.08,4.54-2.88,2.16.2,4.35.04,6.7.04-.28,1.3-.46,2.17-.6,2.84h-10.65Z"/>
      <path d="M202.68,67.3c-1.5.17-2.77.38-4.04.43-.37.01-1.03-.39-1.1-.7-.34-1.46-.52-2.96-.78-4.62,1.81-.15,3.44-.29,5.16-.44.26,1.83.49,3.49.75,5.34Z"/>
      <path d="M193.54,42.86c1.72-.11,3.28-.27,4.84-.27.33,0,.87.53.95.89.25,1.2.33,2.43.51,3.86-1.85.18-3.61.35-5.48.53-.27-1.68-.52-3.25-.81-5.02Z"/>
      <path d="M93.9,168.28c-2.35.18-2.23.15-2.67-1.76-.43-1.87-1.19-3.67-1.7-5.53-.17-.62-.03-1.33-.03-2.13.73.34,1.18.67,1.68.75,2.39.38,2.99,1.84,2.75,4.05-.16,1.5-.03,3.03-.03,4.62Z"/>
      <path d="M44.34,151.5c2.89-.14,5.66-.5,8.39-.28,1.04.08,1.97,1.5,2.94,2.31-.07.17-.15.34-.22.51h-10.54c-.14-.61-.34-1.51-.57-2.54Z"/>
      <path d="M52.18,149.51c-2.66.12-5.02.27-7.39.31-.3,0-.82-.48-.87-.8-.17-.97-.16-1.98-.24-3.18,1.86,0,3.63-.19,5.32.09.7.11,1.26,1.2,1.85,1.87.41.46.76.97,1.34,1.71Z"/>
      <path d="M278.01,69.1c1.87.23,3.5.43,5.3.66-.21,1.68-.41,3.3-.62,5.06-1.76-.21-3.38-.41-5.19-.63.17-1.7.34-3.34.51-5.08Z"/>
      <path d="M287.43,43.3c-.28,1.75-.53,3.29-.8,4.97-1.75-.14-3.43-.27-5.31-.42.23-1.69.44-3.25.67-4.97,1.9.15,3.64.28,5.44.42Z"/>
      <path d="M65.09,120.06h7.33c-.22,1.15-.43,2.29-.65,3.46-2.23.12-4.4.24-6.69.36v-3.82Z"/>
      <path d="M200.01,48.97c.22,1.66.42,3.2.64,4.86-1.75.19-3.39.36-5.2.55-.28-1.66-.56-3.27-.86-4.99,1.84-.14,3.58-.28,5.42-.42Z"/>
      <path d="M65.22,156.59c3.43-2.91,5.8-6.16,6.83-10.44.52.32.9.55,1.29.79-1.32,3.71-2.6,7.32-3.94,11.1-1.39-.48-2.65-.92-4.18-1.45Z"/>
      <path d="M195.65,55.92c1.66-.16,3.12-.33,4.58-.41.26-.01.75.31.78.54.24,1.39.39,2.81.58,4.33-1.78.15-3.38.29-5.09.44-.28-1.62-.55-3.15-.85-4.89Z"/>
      <path d="M198.44,36.37c.2,1.59.36,2.95.55,4.49-1.75.14-3.38.3-5.02.35-.24,0-.66-.48-.72-.79-.22-1.16-.32-2.35-.49-3.7,1.86-.11,3.69-.23,5.68-.35Z"/>
      <path d="M198.67,74.56c-.22-1.75-.41-3.3-.63-5.06,1.65-.17,3.27-.34,5.09-.53.22,1.72.42,3.29.64,4.98-1.77.21-3.36.4-5.1.61Z"/>
      <path d="M281.01,49.47c1.82.12,3.56.23,5.43.35-.18,1.65-.33,3.13-.51,4.79-1.93-.18-3.74-.34-5.62-.52.24-1.55.45-2.95.7-4.62Z"/>
      <path d="M234.31,24.44v-1.85h11.86v1.85h-11.86Z"/>
      <path d="M409.78,146.67c1.13,4.01,3.55,7.12,6.91,9.94-1.5.54-2.76.99-4.18,1.5-.63-1.73-1.21-3.32-1.78-4.91-.62-1.75-1.28-3.48-1.83-5.25-.12-.39.17-.91.27-1.37.2.03.4.07.61.1Z"/>
      <path d="M279.57,21.58c2.2-.17,4-.37,5.29,1.52.52.76.6,1.24.29,2.14-.46,1.35-1.23,1.57-2.45,1.4-1.12-.16-2.26-.17-3.13-.23v-4.83Z"/>
      <path d="M436.18,155.52v2.23h-12.5c1-1.99,1.69-2.32,3.94-2.25,2.8.08,5.6.02,8.56.02Z"/>
      <path d="M309.29,146.68c.13,1.9-.37,2.86-2.14,3.28-1.72.4-3.32,1.29-5.36,2.12.81-2.1,1.48-3.88,2.21-5.64.07-.16.5-.26.76-.23,1.5.13,3,.31,4.54.48Z"/>
      <path d="M38.26,62.44h4.91c.19,1.56.39,3.18.6,4.95-1.44.15-2.74.29-4.23.46-.42-1.78-.83-3.5-1.28-5.41Z"/>
      <path d="M174.91,158.56c3.14.65,4.7-1.91,7.07-3.45-.37,2.32-.67,4.27-1.01,6.42-1.68,0-3.42.03-5.16-.04-.25-.01-.61-.5-.69-.82-.15-.59-.13-1.22-.21-2.11Z"/>
      <path d="M282.11,41.23c.21-1.56.39-2.86.59-4.36,1.83.14,3.6.28,5.51.43-.2,1.49-.38,2.83-.58,4.36-1.85-.14-3.62-.28-5.53-.42Z"/>
      <path d="M279.04,8.74c1.33.15,2.57.17,3.74.45,1.66.39,2.34,1.66,1.78,3.26-.15.44-.7.97-1.13,1.04-1.11.18-2.27.18-3.4.11-.28-.02-.71-.55-.75-.88-.15-1.22-.17-2.45-.25-3.97Z"/>
      <path d="M416.2,120.27v3.39h-6.48c-.26-1.18-.49-2.23-.75-3.39h7.22Z"/>
      <path d="M174.08,145.68c1.23,0,2.54-.04,3.86.03.29.01.67.32.83.6.87,1.56,1.68,3.14,2.6,4.88-1.69-.56-3.23-1.13-4.81-1.58-2.72-.77-2.73-.74-2.62-3.62,0-.04.04-.08.14-.3Z"/>
      <path d="M443.58,63.11c-.42,1.65-.77,3.16-1.21,4.65-.07.24-.53.53-.8.53-1.13-.03-2.26-.17-3.54-.28.19-1.68.36-3.27.54-4.9h5.01Z"/>
      <path d="M436.64,67.93c-.84,0-1.55.05-2.26-.02-.33-.03-.77-.22-.92-.48-.82-1.5-1.57-3.03-2.38-4.64h6.28c-.25,1.78-.48,3.38-.72,5.14Z"/>
      <path d="M174.71,156.92c-.19-2.07-.37-3.98-.59-6.25,2.38.88,4.46,1.65,6.82,2.52-1.81,2.02-3.72,3.08-6.23,3.73Z"/>
      <path d="M201.44,21.28v4.83c-1.09.06-2.4.32-3.64.12-.59-.1-1.14-1.01-1.51-1.67-.18-.32-.02-1.01.23-1.35,1.63-2.25,1.75-2.27,4.92-1.93Z"/>
      <path d="M45.18,67.28c-.28-1.78-.53-3.32-.79-4.97,2.05-.13,4.03-.26,6.29-.4-.9,1.72-1.51,3.4-2.58,4.71-.49.6-1.87.45-2.91.66Z"/>
      <path d="M202.02,2.86v4.34c-2.56.56-4.31.02-5.14-1.78-.26-.56-.09-1.48.21-2.07.18-.37.96-.6,1.48-.62,1.17-.04,2.34.08,3.45.14Z"/>
      <path d="M278.98,7.29c-.12-1.38-.23-2.74-.38-4.46,1.6,0,3.1-.05,4.6.02.98.05,1.49,1.87.87,2.76-1.23,1.74-2.91,2.15-5.08,1.68Z"/>
      <path d="M279.75,19.98c-.12-1.63-.23-3.19-.34-4.8h4.83c.95,3.51-.45,4.99-4.49,4.8Z"/>
      <path d="M197.05,14.89h4.46v4.66c-3.86.75-5.08-.49-4.46-4.66Z"/>
      <path d="M63.71,120.36v3.76c-1.55,0-3.07.07-4.57-.05-.38-.03-.92-.59-1.04-1-.25-.85-.26-1.76-.38-2.71h5.99Z"/>
      <path d="M423.61,120.46s.06.1.04.18c-.24,1.05-.27,2.84-.78,2.99-1.67.49-3.52.38-5.36.51v-3.69h6.1Z"/>
      <path d="M38.18,67.96c-.16.14-.19.19-.23.2q-3.06.58-3.94-2.39c-.25-.86-.53-1.71-.83-2.71,1.25-.18,2.45-.36,3.8-.56.42,1.9.82,3.72,1.2,5.46Z"/>
      <path d="M201.88,8.98c-.07,1.45-.13,2.82-.2,4.26-1.49,0-2.91.07-4.32-.02-.85-.06-1.15-1.32-.62-2.32,1.07-2.02,2.16-2.44,5.14-1.92Z"/>
      <path d="M184.69,155.64c1.97,2.3,3.69,4.3,5.08,5.92h-5.83c.24-1.88.47-3.68.76-5.92Z"/>
      <path d="M416.19,128.35h-5.64c-.2-1-.42-2.13-.68-3.46,1.95.09,3.7.12,5.43.29.33.03.77.58.86.96.14.63.04,1.31.04,2.2Z"/>
      <path d="M71.41,125.11c-.29,1.38-.51,2.48-.76,3.67-1.38,0-2.67-.08-3.94.02-1.34.11-1.58-.55-1.61-1.69-.03-1.13.19-1.8,1.52-1.78,1.52.02,3.03-.13,4.79-.23Z"/>
      <path d="M387.99,158.5c.37-3.56.71-6.85,1.06-10.14.12-.01.23-.02.35-.03.21.85.4,1.7.62,2.54.47,1.75.93,3.5,1.47,5.23.23.73.19,1.16-.63,1.4-.91.26-1.78.62-2.88,1Z"/>
      <path d="M94,158.39c-1.34-.49-2.49-.91-3.75-1.36.81-2.99,1.59-5.89,2.38-8.8.1,0,.2,0,.3-.01.35,3.33.7,6.66,1.07,10.17Z"/>
      <path d="M182,145.71h7c-1.35,1.78-2.68,3.51-4.25,5.58-.94-1.91-1.78-3.61-2.75-5.58Z"/>
      <path d="M299.22,156.34c.15,2.09.28,3.94.43,5.91h-5.94c1.69-1.81,3.53-3.78,5.51-5.91Z"/>
      <path d="M302.39,156.07c1.57,1.24,3.03,2.18,4.19,3.41.4.42.14,1.54.02,2.32-.04.23-.61.5-.96.53-2.86.25-3.08.07-3.24-2.79-.06-1.08-.01-2.16-.01-3.46Z"/>
      <path d="M73.01,123.63c.24-1.01.44-2.02.74-3,.08-.27.48-.6.75-.62,1.22-.07,2.44-.03,3.69-.03-.67,3.8-1.44,4.33-5.18,3.65Z"/>
      <path d="M443.6,68.84c.44-1.93.82-3.63,1.23-5.45,1.09.16,2.1.3,3.22.47-.4,1.53-.72,2.91-1.16,4.25-.11.32-.62.64-.99.7-.69.11-1.41.03-2.3.03Z"/>
      <path d="M272.14,146.06c-1.75,1.56-3.24,2.88-4.67,4.15-.58-1.06-1.4-2.56-2.27-4.15h6.94Z"/>
      <path d="M220.28,145.93c-1.33,1.46-2.6,2.86-3.88,4.27-1.05-1.36-2.1-2.73-3.28-4.27h7.16Z"/>
      <path d="M308.59,151.86c-.33,1.67-.66,3.34-1.05,5.29-1.5-1.13-2.84-2.13-4.17-3.14-.01-.18-.03-.37-.04-.55,1.65-.68,3.31-1.35,4.96-2.03.1.14.2.28.31.42Z"/>
      <path d="M238.79,145.94h6.59c-1.37,1.58-2.62,3.02-3.86,4.43-.88-1.43-1.75-2.83-2.74-4.43Z"/>
      <path d="M408.22,123.58h-3.87c-.36-1.07-.72-2.16-1.13-3.42,1.33,0,2.47-.05,3.59.03.3.02.73.39.82.68.27.85.39,1.74.58,2.7Z"/>
      <path d="M295.58,146.01h5.51c-.69,1.69-1.31,3.22-2.04,4.99-1.23-1.77-2.31-3.32-3.47-4.99Z"/>
      <path d="M212.41,161.6c1.44-1.22,2.81-2.37,4.18-3.51.89,1.12,1.85,2.31,2.81,3.51h-6.99Z"/>
      <path d="M404.88,125.06c.18-.03.37-.08.55-.09,3.26-.21,3.62.15,3.6,3.54-3.05.62-3.7.08-4.15-3.46Z"/>
      <path d="M451.65,130.44h-9.14c.17-1.32.72-1.74,2-1.59,1.93.23,3.89.19,5.83.31.72.04,1.48.14,1.31,1.28Z"/>
      <path d="M268,158.7c.98,1.1,2,2.24,3.1,3.46h-6.77c1.21-1.14,2.45-2.31,3.67-3.46Z"/>
      <path d="M75.93,125.18c-.22,1.02-.4,2.03-.67,3.02-.06.23-.44.5-.69.52-.84.06-1.68.02-2.6.02.21-1.25.39-2.36.59-3.56h3.38Z"/>
      <path d="M38.06,130.31c-.17.03-.34.09-.52.1-2.42.12-4.83.23-7.28.35-.47-1.02-.22-1.46.85-1.49,1.71-.05,3.42-.24,5.12-.21.67,0,1.34.44,2,.67-.06.19-.12.39-.18.58Z"/>
      <path d="M242.28,158.06c.93,1.48,1.75,2.79,2.67,4.26h-5.24c.87-1.44,1.66-2.76,2.57-4.26Z"/>
      <path d="M417.44,128.17v-2.68h4.31c-.82,2.63-1.08,2.8-4.31,2.68Z"/>
      <path d="M301.44,155.33c.17,2.66.3,4.77.44,6.95h-1.74c0-1.85-.06-3.69.05-5.52.03-.41.67-.79,1.25-1.43Z"/>
      <path d="M59.55,125.87h4.23c.08.89.16,1.67.23,2.44-2.48,1.02-3.44-.66-4.46-2.44Z"/>
      <path d="M179.57,145.79c1.23-.36,1.87-.04,2.23,1.22.41,1.43,1.14,2.76,1.76,4.21-1.48-.17-2.33-1.36-3.99-5.43Z"/>
      <path d="M183.94,155.69c-.24,1.74-.44,3.48-.76,5.2-.07.35-.59.62-.91.93-.17-.1-.33-.19-.5-.29.28-1.8.52-3.61.89-5.4.07-.32.65-.54.99-.81.1.12.19.24.29.36Z"/>
      <path d="M299.87,151.17c.63-1.58,1.2-3.17,1.91-4.69.15-.31.82-.38,1.45-.64-.63,3.33-2.07,5.59-3.36,5.33Z"/>
      <path d="M388.15,171.16v-1.37c.77.09,1.45.17,2.13.25.29,1.45-.1,1.66-2.13,1.12Z"/>
      <path d="M93.85,171.13h-2.15c.09-.52.17-.95.26-1.47.85.19,2.17-.48,1.89,1.47Z"/>
      <path d="M294.73,11.31c6.98.93,13.96,1.85,20.94,2.78.47.06.94.18,1.39.33,1.4.47,2.93.8,3.26,2.6.31,1.73-.62,2.96-1.83,3.95-2.08,1.69-4.63,2.16-7.19,2.52-.26.04-.56-.23-.84-.35.15-.27.29-.54.46-.79.58-.87,1.86-2.12,1.63-2.52-.61-1.05-1.75-2.23-2.87-2.48-3.11-.67-6.31-.92-9.48-1.29-1.98-.23-3.98-.33-5.97-.55-1.17-.13-2.38-.36-2.3-1.94.07-1.41,1.01-2.04,2.79-2.27Z"/>
      <path d="M244.79,10.55c.18,2.02.34,3.7.5,5.54h-9.65c.24-1.56.47-3.02.67-4.47.05-.37.1-.85-.08-1.12-.94-1.37-1.26-5.07-.38-6.38.29-.43.84-.77,1.34-.95,2.08-.77,4.21-.76,6.31-.14.56.16,1.16.52,1.52.97,1.14,1.43.81,5.46-.24,6.57ZM240.77,7.88c1.35-.07,2.33-.12,3.31-.17-.19-1.38-.19-1.39-1.33-1.39-1.53,0-3.06.05-4.58,0-1.06-.03-1.34.4-1.06,1.51h2.96c-.74,1.83-1.38,3.42-2.05,5.11h4.98c-.77-1.74-1.44-3.27-2.23-5.05Z"/>
      <path d="M93.3,184.01c-.43-.64-1.21-1.28-1.2-1.9.01-.58.87-1.15,1.35-1.72.51.69,1.2,1.33,1.45,2.1.12.36-.63,1-.98,1.51-.21,0-.42,0-.63,0Z"/>
      <path d="M99.69,180.24c1.52,1.1,1.84,1.94.92,2.79-.43.39-1.31.29-1.98.41-.05-.63-.27-1.32-.09-1.87.17-.52.76-.89,1.16-1.32Z"/>
      <path d="M85.8,184.75c-.32-.76-.79-1.5-.91-2.29-.07-.46.34-1.03.65-1.48.09-.13.71-.1.83.05.4.48.97,1.08.93,1.6-.05.73-.59,1.42-.92,2.12-.19,0-.38,0-.57,0Z"/>
      <path d="M105.81,182.94c-.8.72-1.45,1.52-1.63,1.43-.58-.31-1.09-.89-1.4-1.48-.08-.14.71-1.06,1.07-1.04.54.02,1.06.56,1.95,1.1Z"/>
      <path d="M107.55,184.36c-.54-.96-1.12-1.53-1.09-2.07.03-.45.77-.86,1.19-1.29.41.5,1.07.97,1.14,1.51.05.44-.61.97-1.23,1.85Z"/>
      <path d="M89.26,180.83c.54.79,1.16,1.3,1.15,1.8,0,.38-.8.74-1.24,1.12-.35-.46-.91-.88-.97-1.38-.05-.37.54-.83,1.07-1.54Z"/>
      <path d="M62.51,182.45c-.89.69-1.41,1.37-2.04,1.48-.36.06-1.31-.9-1.24-1.23.18-.77.82-1.44,1.27-2.15.57.54,1.13,1.07,2,1.9Z"/>
      <path d="M54.53,180.39c.48.86,1.01,1.71,1.37,2.62.04.11-.92.91-1.25.81-.6-.18-1.44-.74-1.49-1.23-.08-.69.47-1.44.74-2.17.21-.01.42-.02.63-.03Z"/>
      <path d="M68.58,184.88c-1.77-1.5-2.01-2.45-1.22-3.39.25-.3.82-.72.96-.63.4.25.94.76.91,1.12-.07.98-.42,1.94-.65,2.9Z"/>
      <path d="M48.36,182.9c-.75.51-1.38,1.19-1.64,1.07-.53-.24-1.11-.88-1.2-1.43-.06-.33.88-1.23,1.14-1.15.57.18.98.83,1.7,1.51Z"/>
      <path d="M52.08,183.13c-.89.71-1.43,1.14-1.98,1.57-.34-.49-.98-1-.95-1.47.03-.43.71-1.05,1.2-1.15.37-.08.89.51,1.72,1.06Z"/>
      <path d="M66.62,182.6c-.83.62-1.39,1.33-1.78,1.25-.45-.09-.91-.85-1.06-1.4-.06-.2.74-.9,1.14-.91.46,0,.91.53,1.7,1.05Z"/>
      <path d="M126.66,181.5c-.21.67-.34,1.38-.65,2-.19.37-.64.61-.98.91-.34-.4-.9-.77-.97-1.21-.18-1.21,1.1-2.02,2.59-1.7Z"/>
      <path d="M142.98,181.99c1.57-.22,2.63.6,2.4,1.78-.05.27-.35.68-.54.68-.3,0-.7-.22-.88-.47-.21-.28-.17-.72-.33-1.06-.15-.32-.41-.59-.65-.93Z"/>
      <path d="M130.18,182.52c-.53.72-.94,1.28-1.36,1.85-.24-.32-.73-.73-.66-.94.24-.7-.24-1.9,1.07-1.93.25,0,.51.53.95,1.03Z"/>
      <path d="M132.78,181.56c.06.98.13,1.96.2,3.07-1.14-.48-1.25-1.13-.74-3.01.18-.02.36-.04.54-.06Z"/>
      <path d="M27.74,181.65c1.64-.24,2.53.29,2.67,1.67.03.33-.27.99-.41.99-.42,0-.95-.16-1.22-.45-.43-.48-.7-1.1-1.01-1.68-.08-.14-.03-.35-.04-.53Z"/>
      <path d="M24.6,181.7c.34.27.82.47.97.82.21.48.2,1.07.18,1.61,0,.12-.47.34-.68.3-.2-.04-.46-.33-.51-.55-.14-.63-.19-1.28-.28-1.92.1-.09.21-.17.31-.26Z"/>
      <path d="M21.65,181.8c.12.23.28.42.3.62.06.56.07,1.12.1,1.68-.3-.14-.75-.19-.88-.42-.38-.67-.57-1.4.48-1.88Z"/>
      <path d="M390.74,182.44c-.86.68-1.37,1.37-2,1.5-.75.16-1.67-.36-1.41-1.29.22-.8.94-1.47,1.44-2.2.56.56,1.11,1.13,1.97,1.99Z"/>
      <path d="M382.59,180.44c.44.87.93,1.71,1.24,2.62.04.12-.94.87-1.26.77-.58-.19-1.39-.76-1.45-1.25-.07-.67.47-1.41.75-2.12.24,0,.48-.02.72-.03Z"/>
      <path d="M396.28,184.77c-.45-1.03-1.5-1.94-.56-3.26.22-.31.73-.75.94-.67.38.15.92.64.9.96-.06,1.02-.35,2.02-.55,3.03-.25-.02-.49-.04-.74-.06Z"/>
      <path d="M376.42,182.78c-.77.61-1.34,1.35-1.67,1.26-.54-.15-1.2-.81-1.3-1.34-.06-.38.75-1.29,1.14-1.27.53.03,1.02.71,1.83,1.35Z"/>
      <path d="M378.27,181.51c.6.74,1.32,1.3,1.23,1.57-.22.63-.84,1.11-1.3,1.65-.38-.47-1.03-.93-1.05-1.42-.02-.48.58-1,1.12-1.81Z"/>
      <path d="M393.27,184.47c-.58-.78-1.23-1.28-1.23-1.77,0-.41.73-1.06,1.22-1.14.34-.06,1.15.69,1.14,1.05-.02.53-.59,1.04-1.13,1.87Z"/>
      <path d="M422.22,180.43c.42.82.98,1.62,1.16,2.49.06.27-.92,1.07-1.43,1.08-.99.01-1.52-.85-1.37-1.77.1-.64.66-1.2,1.02-1.8.2,0,.41,0,.61,0Z"/>
      <path d="M429.97,182.41c-.91.68-1.48,1.3-2.18,1.53-.25.08-1.24-.95-1.15-1.17.31-.76.95-1.4,1.46-2.08.52.48,1.04.95,1.87,1.72Z"/>
      <path d="M414.3,185.11c-.36-.81-.86-1.6-1.03-2.45-.08-.43.37-1.02.71-1.44.1-.12.79,0,.94.21.32.45.69,1.05.64,1.55-.07.7-.51,1.35-.79,2.03l-.48.09Z"/>
      <path d="M435.66,184.53c-.52-.94-1.07-1.49-1.02-1.98.04-.47.7-.89,1.09-1.34.42.49,1.09.95,1.16,1.49.06.43-.61.97-1.23,1.83Z"/>
      <path d="M432.01,184.89c-.36-.58-.9-1.14-1-1.77-.05-.31.87-1.14,1.07-1.05.54.23,1.19.76,1.31,1.28.09.42-.52,1-.82,1.52-.18,0-.37.02-.55.02Z"/>
      <path d="M419.47,182.71c-.84.66-1.36,1.36-1.76,1.31-.47-.07-.98-.75-1.2-1.28-.08-.18.64-1,.99-1,.52,0,1.04.48,1.97.97Z"/>
      <path d="M454.64,181.64c-.35,1.02-.68,1.94-1.02,2.91-.9.13-1.6-.09-1.64-1.16-.04-1.17,1.01-1.88,2.66-1.76Z"/>
      <path d="M470.83,182.24c1.53-.17,2.33.38,2.25,1.57-.02.31-.3.6-.47.9-.3-.18-.68-.29-.89-.55-.22-.28-.26-.7-.41-1.04-.13-.3-.31-.57-.48-.88Z"/>
      <path d="M456,184.28c.12-.75.16-1.43.36-2.05.08-.24.51-.47.8-.49.15-.01.47.41.5.66.14,1.38-.41,2.05-1.66,1.88Z"/>
      <path d="M460.51,181.88v2.83c-.15,0-.3,0-.45,0-.51-.95-.37-1.91-.02-2.87.16.01.32.02.47.03Z"/>
      <path d="M355.5,181.84c1.54-.51,2.97.48,2.86,1.9-.02.29-.34.69-.61.78-.28.1-.86,0-.99-.2-.49-.78-.85-1.64-1.26-2.48Z"/>
      <path d="M352.13,181.69c1.42.43,1.67,1.26,1.58,2.23-.02.22-.39.49-.66.58-.12.04-.48-.29-.54-.5-.17-.67-.24-1.36-.39-2.32Z"/>
      <path d="M349.66,181.98c.22.53.49,1.05.62,1.6.04.19-.31.46-.48.69-.31-.46-.7-.9-.9-1.4-.09-.22.22-.59.35-.89.14,0,.27,0,.41,0Z"/>
      <path d="M343.71,182.2c-.11.63-.21,1.26-.32,1.89-.23-.08-.66-.18-.66-.25.04-.61.17-1.21.26-1.81.24.06.48.11.71.17Z"/>
      <path d="M199.43,171.17c-.02,1.02-1.21,2.63-1.87,2.33-.84-.39-1.77-1.12-2.09-1.93-.33-.83,1.23-2.38,2.04-2.37.93.02,1.93,1.04,1.91,1.97Z"/>
      <path d="M182.05,170.3c.94.07,1.41.55,1.4,1.48,0,1.07-.81,2.12-1.63,2.01-1.13-.15-1.2-1.12-1.25-1.96-.06-.97.52-1.48,1.48-1.53Z"/>
      <path d="M267.56,172.21c0,1.16-1.16,2.71-1.94,2.38-.76-.32-1.63-1.07-1.84-1.8-.29-1.01.9-2.41,1.69-2.44,1.12-.05,2.09.81,2.09,1.87Z"/>
      <path d="M248.2,173.46c.92-.75,1.5-1.58,2.01-1.54.59.05,1.64.99,1.56,1.32-.18.73-.93,1.32-1.46,1.97-.59-.49-1.17-.98-2.11-1.75Z"/>
      <path d="M231.87,171.78c.03,1.03-.89,2.25-1.76,2.31-.84.06-1.98-.91-2-1.7-.02-.99.93-2.33,1.68-2.37,1.02-.06,2.04.81,2.07,1.76Z"/>
      <path d="M213,172.78c.9-.62,1.48-1.34,1.98-1.28.56.06,1.32.72,1.5,1.28.27.85-.85,2.09-1.53,1.81-.63-.27-1.08-.97-1.95-1.8Z"/>
      <path d="M301.72,171.73c0,1.16-1.02,2.59-1.75,2.32-.71-.27-1.53-.99-1.74-1.68-.3-.97.86-2.38,1.62-2.29,1.02.11,1.81.57,1.88,1.66Z"/>
      <path d="M283.71,172.75c.85-.64,1.42-1.4,1.88-1.33.57.08,1.56,1.03,1.47,1.26-.28.73-.98,1.3-1.51,1.93-.51-.51-1.01-1.02-1.84-1.86Z"/>
      <path d="M169.43,47.97c4.02,1.3,7.95,1.53,12.13.04-.16,2.06-.19,3.91-.47,5.72-.22,1.43-1.32,2.49-2.64,2.72-1.94.34-3.98.46-5.93.24-1.72-.19-2.91-1.49-3.06-3.31-.14-1.7-.03-3.41-.03-5.42ZM175.59,50.93c-1.09.15-2.02.15-2.85.44-.46.16-.76.78-1.13,1.19.49.25,1.02.74,1.48.69,1.5-.17,2.95-.34,4.44.13.38.12.92-.3,1.38-.47-.29-.49-.46-1.23-.89-1.43-.79-.36-1.72-.41-2.44-.55ZM178.22,55.4c0-.22-.02-.44-.02-.66-1.81-.9-3.7-.57-5.58-.2-.14.03-.3.37-.29.56.01.18.24.49.37.48,1.84-.04,3.68-.12,5.52-.19Z"/>
      <path d="M171.07,22.76c-.48.24-.66.42-.81.39-3.02-.51-6.08-.95-8.23-3.47-1.95-2.29-1.33-4.76,1.59-5.45,3.52-.83,7.12-1.4,10.71-1.83,4.11-.49,8.26-.7,12.39-1.05,1.03-.09,1.89.08,2.37,1.14.64,1.43.14,2.5-1.42,2.72-1.83.25-3.67.36-5.51.54-3.13.29-6.27.56-9.4.9-1.36.15-2.53.7-3.4,1.87-.89,1.21-.9,1.85.24,2.88.44.4.87.8,1.47,1.36Z"/>
      <path d="M300.05,47.96c4.28,1.32,8.38,1.68,12.76-.09-.12,2.12-.11,4.05-.38,5.94-.23,1.61-1.42,2.72-2.97,2.9-1.91.22-3.9.25-5.8-.02-1.95-.28-3.11-1.92-3.29-3.96-.13-1.51-.21-3.02-.33-4.76ZM306.02,50.94s-.01.07-.02.11c-.62,0-1.25-.05-1.86.01-.89.09-1.65.5-1.55,1.5.09.99.95.89,1.68.81,1.57-.17,3.07-1,4.73-.37.29.11.78-.28,1.18-.44-.3-.37-.55-.97-.93-1.08-1.04-.29-2.15-.38-3.23-.55ZM303.29,55.7c2.2-.16,4.27.3,6.49-.55-2.05-1.44-5.85-1.15-6.49.55Z"/>
    </g>
  </g>
</svg>