<?xml version="1.0" encoding="UTF-8"?>
<svg id="Ebene_2" xmlns="http://www.w3.org/2000/svg" xmlns:xlink="http://www.w3.org/1999/xlink" viewBox="0 0 484.41 257.42">
  <defs>
    <style>
      .cls-1 {
        fill: none;
      }

      .cls-2 {
        clip-path: url(#clippath);
      }
    </style>
    <clipPath id="clippath">
      <rect class="cls-1" x="211.62" y="75" width="54.59" height="33.64"/>
    </clipPath>
  </defs>
  <g id="Ebene_7">
    <g>
      <path d="M250.81,257.42c1.18-2.82,3.16-4.1,6.33-3.72,1.57.19,3.22-.18,5.19-.33-.78,1.54-1.41,2.79-2.04,4.04h-9.48Z"/>
      <path d="M226.74,257.42c.48-.96.89-1.95,1.46-2.85.24-.37.81-.6,1.28-.73.38-.11.84.06,1.25,0,2.94-.41,4.96.66,5.85,3.58h-9.84Z"/>
      <path d="M241.33,257.42c.18-.51.37-1.01.55-1.52.48-1.32,1.22-2,2.82-1.84,2.15.21,4.34.05,6.8.05-.8,1.23-1.48,2.27-2.15,3.31h-8.02Z"/>
      <path d="M220.18,257.42c-.64-1.28-1.28-2.56-2.01-4.04,3.08.16,5.95.31,9.04.47-.7,1.3-1.31,2.44-1.92,3.57h-5.1Z"/>
      <path d="M211.07,257.42c.53-1.06,1.01-2.15,1.6-3.18.86-1.52,3.69-1.63,4.66-.14.68,1.05,1.18,2.21,1.77,3.33h-8.02Z"/>
      <path d="M208.15,257.42c.22-.81.47-1.61.65-2.43.57-2.53.57-2.53,3.35-2.03-.74,1.51-1.46,2.98-2.17,4.45h-1.82Z"/>
      <path d="M238.05,257.42c-.59-1.02-1.18-2.03-1.88-3.24h4.95c-.42,1.09-.83,2.16-1.24,3.24h-1.82Z"/>
      <path d="M261.38,257.42c.41-.86.82-1.72,1.45-3.02.72,1.19,1.28,2.1,1.83,3.02h-3.28Z"/>
      <path d="M227.23,142.89c9.58,1.85,19.07,2.12,28.54-.11,0-.26.01-.51.02-.77-.67,0-1.35-.1-2,.02-7.85,1.39-15.7,1.48-23.57.2-.47-.08-.94-.22-1.24-.3.62-9.95,1.23-19.79,1.84-29.75h4.74c1.22,1.11-.71,3.59,2.13,3.99v-3.68h4.39c.06.85.03,1.69.22,2.48.11.45.58.82.89,1.22.24-.4.63-.78.69-1.21.11-.76.03-1.55.03-2.45h3.7c1.16.92-.98,3.48,1.96,3.83v-4.13c17.17.16,34.12-2.36,51.44-1.46-3.15,8.65-6.04,17.01-7.03,26.11-1.32-.28-2.59-.55-4.16-.88-2.43,5.69-4.87,11.42-7.44,17.44-1.12-1.03-2.33-1.93-3.24-3.07-.82-1.03-1.59-1.37-3.23-.49,1.74,1.73,3.4,3.34,5,5,.35.36.81,1.09.67,1.36-.23.45-.91.93-1.4.93-22.6.14-45.19.24-67.79.3-2.06,0-4.12-.34-6.18-.35-1.37,0-1.78-.57-2.11-1.85-1.68-6.5-3.51-12.97-5.32-19.57-1.8.43-3.12.74-4.7,1.12-.04-9.16-2.98-17.47-6.62-25.8,14.1-1.61,27.88.86,42.15.94-.79,10.36-1.57,20.5-2.36,30.93ZM252.26,112.74c-.22.03-.45.06-.67.09-.27,8.35.68,16.62,1.98,25.05h-20.38v-2.79c5.51.26,10.86.51,16.22.76.01-.33.03-.66.04-.98-5.36-.2-10.72-.41-16.25-.62.05-.79.09-1.4.14-2.08.75,0,1.29-.01,1.83,0,4.13.11,8.26.26,12.38.31.57,0,1.63-.43,1.66-.74.27-3.11.38-6.24.54-9.51-6.22-.21-12.18-.41-18.1-.6v18.5c.48-.14,1.24-.21,1.26-.38.19-1.46,1.24-1.05,2.08-1.02,3.52.13,7.04.34,10.56.42,3.08.07,6.16.01,9.13.01-.83-9.1-1.63-17.76-2.42-26.43ZM281.15,131c-.11-.09-.22-.18-.33-.27-.71.65-1.41,1.31-2.14,1.95-.73.64-1.45,1.29-2.21,1.9-12.83,10.5-27.87,12.85-43.75,11.4-10.44-.95-18.63-6.5-25.6-14.03-.41-.45-.84-.88-1.32-1.39-.13.31-.18.37-.17.41.05.17.09.35.19.49,5.33,6.87,11.74,12.36,20.25,14.76,3.16.89,6.54,1.01,9.84,1.33,17.26,1.7,32.31-2.95,44.53-15.62.26-.27.46-.62.69-.93ZM257.2,157.37c.37-.88.6-1.41.8-1.89-2.71-2.01-5.31-3.97-7.96-5.83-.37-.26-1.07-.04-1.62-.04-.07.23-.15.46-.22.69,2.92,2.29,5.84,4.58,9.01,7.06ZM271.42,155.18c-.59-.45-1.12-.83-1.62-1.24-1.5-1.22-3.12-2.33-4.43-3.72-.91-.97-1.62-.9-2.7-.48,1.72,3.36,4.8,5.02,7.59,7.08.39-.56.73-1.04,1.16-1.64ZM264.58,155.28c-2.02-1.67-4.05-3.13-5.79-4.87-.92-.92-1.6-1.3-2.82-.6,1.66,3.25,4.74,4.91,7.57,7.07.38-.58.72-1.11,1.04-1.6ZM277.95,155.16c-1.96-1.67-3.88-3.06-5.47-4.75-.96-1.02-1.69-1.31-3.36-.39,2.57,2.36,4.97,4.56,7.45,6.84.6-.74.97-1.2,1.38-1.7ZM251.25,155.47c-3.03-1.93-5.88-3.77-8.77-5.53-.35-.22-.96-.03-1.44-.03-.05.24-.09.49-.14.73,3.12,2.15,6.24,4.31,9.48,6.54.31-.6.55-1.07.87-1.71ZM231.61,118.44c-.01.24-.02.49-.03.73,6.26.29,12.52.59,18.78.88.01-.34.03-.67.04-1.01-6.25-.51-12.52-.6-18.79-.61ZM235.54,140.79c5.29.86,10.52.83,15.74.56,0-.19,0-.37,0-.56h-15.74Z"/>
      <path d="M56.9,135.12c-2.85.97-4.8,1.78-6.82,2.3-5.87,1.5-11.73,3.08-17.66,4.26-7.08,1.4-14.24,2.42-21.37,3.6-.6.1-1.23.28-1.8.17-.7-.13-1.35-.52-2.02-.8.42-.61.71-1.54,1.28-1.78,3.28-1.4,6.62-2.67,9.97-3.91,1.53-.57,3.12-.95,5.18-1.57-.65-.19-.82-.28-1-.29-6.17-.48-12.34-.93-18.5-1.46-1.09-.09-2.68-.08-2.66-1.58.02-1.63,1.55-1.74,2.88-1.78,6.01-.2,12.01-.37,18.01-.67,1.31-.06,2.6-.59,3.9-.91-.03-.18-.07-.36-.1-.54-2.75-.35-5.52-.58-8.24-1.09-4.94-.94-9.87-1.97-14.77-3.13-1.26-.3-3.47-.32-3.15-2.24.28-1.66,2.3-1.31,3.6-1.17,7.97.84,15.92,1.79,23.88,2.7.17.02.35,0,.94,0-.7-.39-1.06-.65-1.46-.8-5.7-2.22-11.43-4.39-17.11-6.69-1.07-.43-2.82-1.58-2.72-2.07.35-1.62,2.08-1.3,3.36-1.26,5,.14,9.86.98,14.68,2.44,4.28,1.3,8.7,2.16,13.09,3.05,1.27.26,2.67.05,3.97-.17,1.27-.21,1.53-1.11.49-1.88-1.4-1.03-3-1.78-4.46-2.75-1.54-1.02-3.08-2.07-4.44-3.3-.43-.39-.61-1.72-.3-2.07.44-.5,1.48-.72,2.22-.65.8.08,1.56.61,2.32.98,2.94,1.42,5.8,3.05,8.83,4.25,3.73,1.47,7.09,3.35,9.59,6.55.23.3.35.76.35,1.14.02,4.6.02,9.2.02,13.14Z"/>
      <path d="M224.65,213.04c3.37,0,6.58-.04,9.79.06.37.01.94.8,1.03,1.3.7,3.94,1.3,7.9,1.94,11.86.11.69.27,1.38.41,2.06l.74-.09c-.55-4.9-1.09-9.8-1.66-14.87h7.66c-.21,4.53-.41,9.07-.62,13.62.22.01.43.03.65.04.24-2.64.47-5.27.73-7.91.15-1.57.26-3.16.59-4.69.11-.5.84-1.19,1.31-1.22,2.42-.12,4.85-.06,7.23-.06-1.22,4.69-2.45,9.44-3.69,14.19.23.07.46.13.69.2.17-.58.32-1.16.5-1.73,1.27-3.85,2.53-7.72,3.86-11.55.18-.53.77-1.25,1.22-1.29,3.43-.32,6.88-.5,10.53-.73-.68,3.27-1.42,6.37-1.93,9.52-.39,2.39-.79,4.85-.6,7.23.29,3.51-.75,3.38-3.29,4.15.1.27.17.55.31.8.15.26.37.47.58.74.94-.56,1.85-1.11,2.95-1.76.28.9.5,1.62.84,2.73-18.41.73-36.56,1.46-54.89.48.08-1.38.15-2.5.24-3.98,1.28.82,2.26,1.52,3.31,2.08.37.2.91.07,1.38.09-.2-.43-.38-.87-.6-1.29-.05-.09-.2-.14-.31-.17-3.24-1.07-3.87-3.3-3.64-6.54.35-4.83.09-9.7.09-14.77,2.48.24,5.22.71,7.97.72,2.31.01,3.38,1.01,4.18,3.05,1.6,4.06,3.45,8.02,5.21,12.01.11.25.31.47.62.63-.81-5.31-3.15-10.08-5.33-14.92ZM229.5,235.35c.27-.31.54-.61.81-.92-1.42-2.09-4.3-2.63-5.74-4.74-.22-.33-1.08-.22-1.64-.31-.09.22-.19.44-.28.66,2.29,1.77,4.57,3.54,6.86,5.31ZM215.82,229.2l-.23.81c2.04,1.38,4.05,2.8,6.13,4.12.4.25,1.02.15,1.54.22-.28-.49-.43-1.15-.85-1.45-1.61-1.17-3.28-2.26-4.97-3.3-.45-.28-1.07-.27-1.62-.4ZM262.54,230.33l-.16-.8c-.62.08-1.35-.02-1.84.28-1.94,1.17-3.8,2.45-5.85,3.81.12.23.35.65.6,1.12,2.54-1.54,4.89-2.97,7.24-4.4ZM242.54,230.18c-1.41-.82-2.02-.48-8.42,4.53.48.2,1.05.36,1.44.17.81-.39,1.53-.96,2.28-1.47,1.52-1.04,3.04-2.09,4.69-3.22ZM248.99,234.9c2.03-1.37,3.95-2.61,5.79-3.95.36-.26.43-.9.64-1.37-.46.11-1,.1-1.37.34-1.9,1.21-3.75,2.49-5.78,3.84.16.25.42.66.73,1.14ZM242.6,235.02c2.03-1.41,3.93-2.68,5.75-4.04.3-.23.31-.85.45-1.29-.44.09-.97.05-1.32.28-1.88,1.2-3.72,2.46-5.72,3.8.1.15.45.67.84,1.25ZM230.49,232.38c2.09.61,2.91-1.07,4.07-2.17-2.05-.62-2.65,1.54-4.07,2.17Z"/>
      <path d="M457.72,130.77c1.25.29,2.5.77,3.76.84,5.58.3,11.16.49,16.74.71.85.03,1.79-.17,2.52.13.74.3,1.28,1.09,1.92,1.66-.61.48-1.17,1.3-1.84,1.4-3.54.51-7.11.91-10.68,1.21-3.06.26-6.13.33-9.27.77,1.53.48,3.07.92,4.59,1.44,2.7.92,5.4,1.84,8.06,2.85.95.36,1.87.9,2.68,1.52.41.31.54.98.8,1.49-.51.25-1.04.73-1.53.69-1.93-.14-3.87-.36-5.77-.71-9.92-1.8-19.85-3.53-29.72-5.53-2.94-.59-5.69-2.08-8.59-2.89-1.58-.44-3.3-.34-5.16-.49,0-.41-.02-.93,0-1.45.17-3.15.7-6.34.43-9.45-.3-3.47,1.6-5.44,3.89-7.2,1.66-1.28,3.63-2.19,5.53-3.13,3.47-1.72,6.99-3.35,10.49-5.01,1.33-.63,2.93-1.48,3.96-.02,1.02,1.45-.45,2.59-1.47,3.46-.9.77-2.06,1.25-3.1,1.85-1.41.82-2.87,1.58-4.21,2.5-.48.33-.71,1.04-1.05,1.58.62.31,1.25.88,1.86.87,2.3-.04,4.64-.02,6.88-.48,3.8-.79,7.48-2.12,11.28-2.89,4.39-.89,8.83-1.5,13.28-2.01,1-.11,2.11.72,3.18,1.11-.86.65-1.62,1.53-2.59,1.93-5.73,2.33-11.51,4.55-17.27,6.81-.49.19-.95.45-1.35.9,3.86-.47,7.72-.98,11.59-1.42,4.04-.46,8.09-.87,12.14-1.28.72-.07,1.51-.19,2.17.02.9.29,1.7.87,2.55,1.32-.65.55-1.23,1.42-1.97,1.6-5.3,1.28-10.62,2.51-15.97,3.58-2.84.57-5.76.77-8.64,1.13-.04.2-.07.39-.11.59ZM437.52,128.14c.04-1.89-2.53-4.25-4.69-4.31-1.88-.05-3.92,2.37-3.97,4.7-.05,2.4,1.94,4.62,4.18,4.67,1.84.04,4.43-2.88,4.48-5.05Z"/>
      <path d="M280.6,159.16c-1.9,5.77-3.78,11.32-5.55,16.92-1.36,4.28-1.29,4.29-5.79,4.37-4.97.09-9.95.19-14.92.28-.65.01-1.3,0-1.91,0v-20.41c9.43-.39,18.73-.77,28.17-1.16Z"/>
      <path d="M227.71,160.45h22.16v20.25h-4.79c0-3.42-.07-6.79.03-10.16.05-1.89-.78-2.32-2.79-1.82.41,3.98.81,7.98,1.22,11.99h-8.88v-11.03c-.86-.13-1.57-.24-2.75-.42.43,3.91.84,7.61,1.25,11.33h-5.44v-20.14Z"/>
      <path d="M204.82,159.35c7.12.4,13.94.77,20.73,1.15v20.07c-5.79-.29-11.33-.58-17.02-.87-1.24-6.83-2.47-13.55-3.71-20.35Z"/>
      <path d="M252.26,196.64c-4.8,3.96-9.37,7.72-13.8,11.37-4.77-4.04-9.58-8.1-14.5-12.27,1.16-.88,2.43-1.88,3.74-2.83,3.29-2.39,6.58-4.78,9.93-7.1.42-.29,1.36-.43,1.67-.17,4.38,3.63,8.68,7.34,12.97,11ZM242.69,197.32c.62-.31,1.25-.62,2.18-1.09-1.98-1.58-3.7-2.99-5.48-4.32-.25-.19-.84-.21-1.12-.05-1.96,1.16-3.87,2.38-5.89,3.65,2.16,1.88,4.1,3.59,6.13,5.36,1.4-1.19,2.82-2.4,4.24-3.6,0,0-.06.06-.06.06Z"/>
      <path d="M210.28,247.5c.37-3.47.72-6.76,1.05-9.84h27.89c1.49,3.37,1.21,6.56.77,9.74-.06.4-.85,1.02-1.29,1.01-8.36-.2-16.71-.48-25.07-.75-1.02-.03-2.05-.09-3.36-.15ZM235.32,239.2c-1.95,2.46-1.39,7.4.66,8.33-.21-2.66-.43-5.47-.66-8.33ZM225.97,239.42v8.07c1.74-1.86,1.39-6.98,0-8.07ZM229.23,239.74c-.11,0-.23.01-.34.02v7.66c.15,0,.3,0,.45,0v-3.61h3.6c0-.17-.01-.33-.02-.5-1.16-.05-2.32-.1-3.69-.16v-3.4ZM222.49,239.57c-1.77,3.35-1.63,7.13,0,7.86v-7.86ZM211.99,239.24c1.64,2.74,1.63,5.23.59,7.79,2.48-2.68,2.32-5.51-.59-7.79ZM215.95,238.85c-.09.01-.19.02-.28.03v8.07c.09,0,.19-.02.28-.03v-8.07ZM219.69,239.79c-.22-.06-.44-.12-.66-.18.42,1.9.28,3.45-1.86,3.98.9.1,1.79.2,2.52.28v-4.08Z"/>
      <path d="M192.5,137.25c-4.25.52-8.39,1.02-12.65,1.53-1.94-8.91-3.82-17.57-5.7-26.22,1.93-.93,3.26-.22,3.89,1.47,1.05,2.83,1.86,5.75,2.76,8.63.43,1.39.68,2.86,1.34,4.13.38.73,1.45,1.62,2.11,1.55.7-.08,1.73-1.15,1.83-1.9.25-1.89.46-3.94-.03-5.73-.75-2.71-2.11-5.26-3.22-7.87-.18-.42-.45-.8-.83-1.46,1.3-.11,2.36-.26,3.43-.24.36,0,.9.41,1.02.75,2.58,7.32,5.32,14.61,6.06,22.43.08.84.01,1.69.01,2.92ZM183.09,135.01c.75-.2,1.87-.34,2.81-.82.61-.31,1.34-1.14,1.31-1.7-.03-.57-.82-1.37-1.45-1.59-.99-.35-2.13-.43-3.2-.37-1.94.1-3.5,1.32-3.27,2.49.38,1.92,2.05,1.73,3.8,1.99Z"/>
      <path d="M87.76,118.41c5.78-.42,10.96-.8,16.14-1.18.11.18.21.36.32.54-1.74,1.64-3.58,3.19-5.19,4.95-2.89,3.14-2.93,3.86-.67,7.45,1.8,2.86,3.74,5.65,5.79,8.72-1.23,0-2.23.04-3.22,0-3.34-.15-6.68-.27-10.01-.54-.58-.05-1.53-.71-1.58-1.16-.6-6.15-1.07-12.31-1.59-18.78Z"/>
      <path d="M113.92,116.77c-2.27,7.55-2.23,14.92-.3,22.23-2.49,0-4.84.04-7.19-.04-.35-.01-.79-.5-1.02-.87-1.94-3.23-3.8-6.5-5.77-9.7-.73-1.19-.8-2.19.11-3.3,2.01-2.43,3.96-4.92,5.97-7.35.24-.29.68-.57,1.05-.6,2.29-.16,4.58-.24,7.14-.36Z"/>
      <path d="M315.28,112.77c-2.45,8.63-4.87,17.15-7.36,25.94-3.99-.45-7.94-.89-12.17-1.36.42-2.22.68-4.2,1.19-6.11,1.62-6.03,3.38-12.03,4.98-18.07.43-1.64,1.11-2.43,2.87-1.95.68.19,1.4.21,2.09.3-1.19,2.34-2.56,4.45-3.36,6.76-.76,2.2-.99,4.59-1.3,6.92-.1.73.17,1.58.51,2.27.78,1.57,2.28,1.78,3.34.39.72-.94,1.23-2.09,1.61-3.22.84-2.53,1.48-5.13,2.3-7.67.33-1.03.84-2.02,1.39-2.96,1.13-1.92,1.39-1.97,3.92-1.25ZM304.82,136.2c1.22-.27,2.02-.33,2.72-.62,1.45-.61,1.62-1.94.45-3.01-1.38-1.27-4.96-1.54-6.51-.48-1.07.74-1.31,1.76-.22,2.5,1.15.77,2.55,1.18,3.55,1.62Z"/>
      <path d="M265.59,237.78c-3.07,2.29-3.48,6.53-.95,10.46h-24.01c1.08-3.4,1.44-6.8-.41-10.26h14.2c.23,3.19.46,6.44.7,9.71,1.34-1.61,1.24-5.62-.23-9.7,3.8-.27,7.57-.57,11.35-.76.31-.02.93.67.94,1.04.11,2.89.14,5.79.09,8.68,0,.33-.63.91-.98.92-.38.01-1.1-.48-1.12-.79-.15-2.5-.21-5-.2-7.5,0-.55.36-1.11.6-1.8ZM257.7,247.68s.1,0,.15,0c.12-1.23.23-2.46.35-3.65,1.26-.12,2.35-.23,3.44-.33-.01-.19-.03-.39-.04-.58-1.04-.05-2.08-.09-3.33-.15v-4.09c-.19,0-.37,0-.56,0v8.81ZM250.92,247.73c-.27-1.33-.71-2.71-.8-4.11-.1-1.48.13-2.98.21-4.44-2.41,2.57-2.06,7.14.59,8.55ZM243.73,243.39c-.12-1.76-.23-3.23-.33-4.69-.15.02-.29.04-.44.06v9.14c.15,0,.3.02.45.02.11-1.31.22-2.63.34-4.12h3.94c0-.14,0-.27-.01-.41h-3.95ZM261.74,245.79h-2.45c-.09.17-.19.33-.28.5.6.46,1.21.92,1.97,1.5.33-.86.51-1.34.76-2ZM245.14,246.25c.36.54.56,1.07.95,1.35.26.19,1,.18,1.13-.02.25-.35.2-.91.29-1.45-.69-.03-1.11-.07-1.53-.07-.17,0-.34.07-.85.19Z"/>
      <path d="M380.83,138.96c2.25-4.08,4.2-7.79,6.33-11.39.96-1.61.62-2.68-.66-3.76-2.39-2.02-4.77-4.07-7.59-6.49,5.48.4,10.45.77,15.39,1.14v19.91c-4.55.2-8.81.38-13.47.58Z"/>
      <path d="M145.93,139.33h-12.46c-.05-.69-.15-1.34-.13-1.99.16-6.48.37-12.96.48-19.45.03-1.66.59-2.3,2.34-2.3,3.01,0,6.01-.29,8.86-.45.31,8.15.61,16.11.91,24.19ZM143.73,137.99c-2.45-6.68-2.38-13.16-1.4-19.75-2.02.19-3.63.34-5.17.49-.1.28-.18.4-.17.5.87,5.68,2.05,11.33,1.63,17.13-.02.31.46.87.79.95,1.22.28,2.47.41,4.32.68Z"/>
      <path d="M341.39,115.18c3.23.2,6.66.4,10.49.64-.7,7.91-1.38,15.66-2.08,23.5h-11.85c1.14-7.99,2.26-15.89,3.44-24.13ZM345.03,118.9c-1.05,6.55-2.07,12.9-3.12,19.42,1.83-.33,3.64-.66,5.45-.99v-17.69c-.62-.2-1.58-.5-2.33-.74Z"/>
      <path d="M363.68,139.23c.54-7.5,1.08-14.91,1.63-22.62,2.29.12,4.85.25,7.92.41,0,3.78.12,7.46-.04,11.12-.14,3.27-.56,6.52-.93,9.77-.05.47-.55,1.25-.87,1.26-2.65.1-5.3.06-7.71.06Z"/>
      <path d="M273.72,183.27c-.78,1.01-1.16,1.95-1.86,2.34-5.77,3.21-11.59,6.32-17.42,9.47-4.24-3.36-8.61-6.82-12.95-10.27,10.45-.5,20.97-1,32.23-1.54ZM249.08,188.91c.01.26.03.53.05.79,4.32,0,8.64,0,12.96,0,1.42,0,1.27-.86.98-2.1-4.72.44-9.36.87-13.99,1.31Z"/>
      <path d="M373.48,138.97c2.09-7.14,2.75-14.31,1.17-21.64,1.67-.35,2.93-.15,4.12,1.02,1.99,1.96,4.11,3.79,6.21,5.63,1.18,1.03,1.41,2.09.63,3.52-1.92,3.52-3.71,7.11-5.59,10.64-.19.36-.67.77-1.03.79-1.74.08-3.49.04-5.5.04Z"/>
      <path d="M121.25,139.3c-1.73,0-3.48.08-5.22-.05-.45-.03-1.14-.67-1.23-1.13-1.37-6.68-1.4-13.36.13-20.03.24-1.05.72-1.52,1.85-1.52,1.69,0,3.37-.15,5.11-.23-.21,7.66-.43,15.2-.64,22.96Z"/>
      <path d="M412.91,119.94c2.64.18,5.36.32,8.05.6.37.04.97.76.96,1.15-.13,4.89-.35,9.78-.55,14.79-3.55.27-6.72.51-9.78.74.44-5.81.87-11.4,1.32-17.28Z"/>
      <path d="M236.61,209.76c-8.33-.31-16.66-.62-25.21-.93,0-1.12-.01-1.96,0-2.8.03-1.36,1.07-2.13,2.38-1.8,4.62,1.14,9.25.66,13.97.21.03-.66.06-1.19.1-2.11-4.67.29-9.2.58-13.98.87,2.81-2.09,5.51-4.1,8.45-6.29,4.83,4.1,9.66,8.21,14.5,12.31-.07.18-.14.36-.21.55Z"/>
      <path d="M148.73,115.99c1.54,1.24,3.02,2.56,4.64,3.69,4.02,2.8,8.1,5.51,12.59,8.55-1.48,1.36-2.85,2.69-4.28,3.94-2.14,1.88-4.44,3.58-6.46,5.59-1.79,1.78-3.79,1.81-5.96,1.49-.76-1.42-.08-2.38.92-3.23l-.07.07c3.46-1.68,6.27-4.19,9.1-6.9-2.88-1.85-5.48-3.76-8.29-5.26-2.54-1.35-3.39-3.24-2.87-5.9.13-.68.48-1.31.73-1.97,0,0-.06-.06-.06-.06Z"/>
      <path d="M170.17,139.06c-.22-1.41-.41-2.59-.62-3.93,2.08-.31,4.05-.6,6.28-.93-.32-1.66-.63-3.21-.96-4.92-2.08.37-3.97.72-5.95,1.07-1.61-5.63-3.21-11.2-4.84-16.89,2.91-.31,5.84-.62,9.11-.97,1.8,8.73,3.58,17.37,5.35,25.94-3.15,1.66-2.17-1.94-3.94-2.68.19,1.26.33,2.15.46,3.02-2.51,1.22-1.56-2.1-3.35-2.29.06.88.11,1.65.17,2.57h-1.72ZM173.76,127.76c.26-.05.52-.1.78-.15-.91-4.37-1.8-8.75-2.76-13.11-.09-.42-.63-.73-.96-1.1-.21.45-.65.91-.61,1.33.48,4.54,1.96,8.8,3.54,13.02ZM170.52,127.64c.17-.02.35-.04.52-.06-.77-4.02-1.5-8.05-2.37-12.04-.11-.52-.97-.88-1.48-1.31-.21.17-.42.35-.62.52,1.32,4.3,2.63,8.6,3.95,12.9Z"/>
      <path d="M216.32,189.23h13.16c-2.59,1.94-4.9,3.66-7.23,5.4-4.04-2.8-8.13-5.51-12.05-8.43-.75-.56-.86-1.96-1.39-3.25,9.41.53,18.37,1.04,27.6,1.56-2.14,1.43-4.12,2.75-5.71,3.82-.93-.43-1.6-1.02-2.22-.97-4.07.29-8.14.71-12.21,1.09.02.27.03.53.05.8Z"/>
      <path d="M272.32,187.23c-1.28,6.98-2.48,13.5-3.76,20.49-4.08-3.53-7.9-6.84-12.01-10.4,5.33-3.41,10.4-6.65,15.78-10.1Z"/>
      <path d="M69.68,119.95c.38,5.8.73,11.35,1.11,17.19-2.56-.22-5.3-.43-8.04-.74-.27-.03-.68-.69-.68-1.07-.1-4.61-.16-9.22-.13-13.83,0-.37.67-1,1.08-1.05,2.22-.25,4.46-.36,6.66-.51Z"/>
      <path d="M410.54,119.71c0,1.87.08,3.62-.02,5.35-.2,3.64-.51,7.27-.72,10.9-.06,1.03-.39,1.5-1.5,1.54-2.36.08-4.71.31-7.21.49v-3.43c2.05.72,3.96,1.39,6.12,2.15.45-3.06.89-6.01,1.4-9.45-2.49,1.95-4.68,3.67-6.96,5.46v-13.71c3.06.24,5.87.46,8.88.69Z"/>
      <path d="M239.9,209.39c4.03-2.94,7.87-5.77,11.74-8.55,2.79-2.01,2.76-1.92,5.41.21,3.43,2.75,6.95,5.4,10.77,8.34h-27.92ZM246.59,206.3c4.66,1.14,9.3.88,14.09.36-.06-.72-.11-1.22-.16-1.82-4.78.14-9.44-.19-13.93,1.46Z"/>
      <path d="M71.53,119.84c3.1-.28,5.75-.51,8.58-.77.06.68.1,1.25.16,1.94h-5.96c-.15,2.63-.3,5.21-.45,7.75,1.99-1.92,3.95-3.8,6.31-6.08.42,5.41.78,10.2,1.16,15.18-2.69-.18-5.22-.31-7.74-.58-.38-.04-.93-.77-.97-1.22-.41-5.32-.74-10.64-1.1-16.23Z"/>
      <path d="M353.48,116.08h2.43v7.92c2.21.18,4.36.35,6.77.55-.19,2.41-.37,4.8-.58,7.41h-6.67c-.22,2.56-.43,4.9-.64,7.32h-3.13c.61-7.76,1.21-15.41,1.82-23.2Z"/>
      <path d="M129.32,115.99h3.24v23.31h-3.12c-.17-2.46-.35-4.97-.54-7.66h-5.51v-6.11c1.24-.12,2.37-.33,3.49-.31,1.9.04,2.69-.61,2.48-2.66-.22-2.09-.05-4.22-.05-6.58Z"/>
      <path d="M337.5,115.99c.2.3.55.59.58.9.31,3.02-.53,5.31-3.64,6.6-2.83,1.18-5.48,2.78-8.37,4.28,2.6,3.13,5.2,6.18,8.69,8.31l-.06-.06c.19.91.37,1.82.56,2.74-.25.17-.49.33-.74.5-4.71-3.76-9.42-7.52-14.07-11.23,5.39-3.64,10.39-7.01,15.37-10.41.58-.39,1.01-1,1.51-1.51.06-.05.12-.09.19-.13Z"/>
      <path d="M337.5,115.99c-.07.04-.13.08-.19.13-4.99,3.1-9.97,6.21-14.97,9.31-.49.3-1.04.51-1.79.86,1.03-4.32,2-8.36,3.02-12.63,4.79.42,9.6.84,14.65,1.29-.3.44-.51.74-.72,1.04Z"/>
      <path d="M316.5,112.8c1.67.2,3.33.4,5.21.63-.75,3.13-1.38,6.08-2.17,8.99-1.38,5.09-2.87,10.15-4.3,15.23-.31,1.1-.79,1.77-2.16,1.08,1.43-4.88,2.88-9.75,4.29-14.64.86-2.97,1.69-5.95,2.48-8.94.14-.53.02-1.14.02-1.71-.24-.02-.48-.03-.73-.05-.19.54-.41,1.07-.57,1.61-2.22,7.44-4.46,14.87-6.63,22.33-.37,1.28-.88,1.93-2.27,1.23,2.27-8.56,4.53-17.09,6.83-25.76Z"/>
      <path d="M148.79,116.05c-.13-.32-.26-.64-.47-1.17,4.66-.41,9.21-.8,13.94-1.22,1.3,4.31,2.57,8.51,3.97,13.16-.82-.39-1.24-.54-1.6-.77-4.93-3.2-9.85-6.41-14.78-9.6-.33-.21-.74-.31-1.11-.45,0,0,.06.06.06.06Z"/>
      <path d="M267.05,249.78c-.56.39-1.1,1.06-1.7,1.11-4.05.38-8.1.84-12.16.89-13.85.2-27.7.03-41.5-1.3-1.74-.17-1.74-.16-1.56-1.85,18.81,1.32,37.63,2.09,56.48.62.15.17.3.34.45.52Z"/>
      <path d="M333.26,139.21h-16.52c1.07-3.62,2.08-7.01,3.1-10.44,4.49,3.49,8.94,6.96,13.42,10.44Z"/>
      <path d="M220.75,195.78c-3.19,2.63-6.24,5.14-9.42,7.76-.5-5.44-.97-10.64-1.48-16.2,3.75,2.91,7.26,5.62,10.9,8.43Z"/>
      <path d="M166.63,128.79c.67,3.52,1.3,6.83,1.98,10.37h-13.58c3.81-3.41,7.57-6.77,11.6-10.37Z"/>
      <path d="M150.18,136.02c-.44.12-.89.24-1.57.42-.25-4.6-.5-9.07-.77-14.09,3.54,2.47,6.66,4.64,10.04,7-2.63,2.29-5.2,4.51-7.76,6.74,0,0,.07-.07.07-.07Z"/>
      <path d="M334.75,136.09c-1.91-2.01-3.83-4.01-5.71-6.05-.6-.65-1.07-1.42-1.59-2.13,3.39-1.9,6.64-3.73,10.34-5.81-.75,4.68-1.41,8.95-2.15,13.21-.05.28-.63.48-.96.71,0,0,.07.07.07.07Z"/>
      <path d="M81.33,118.96c1.07-.05,1.84-.09,2.7-.13.31,6.43.62,12.76.94,19.28-.86-.07-1.62-.12-2.71-.21-.31-6.24-.61-12.45-.93-18.93Z"/>
      <path d="M400.07,138.07h-2.1c.29-6.36.57-12.68.86-19.09h2.4c-.39,6.39-.77,12.65-1.17,19.09Z"/>
      <path d="M362.84,121.95h-5.8v-5.57c1.74,0,3.41-.05,5.07.05.27.02.67.75.7,1.17.09,1.38.03,2.76.03,4.35Z"/>
      <path d="M123.7,123.1v-6.78c1.59-.12,3-.22,4.53-.34v6.72c-1.55.14-2.98.26-4.53.4Z"/>
      <path d="M395.75,118.62c.47.05.99.1,1.71.16,0,.66.03,1.25,0,1.82-.34,5.44-.67,10.89-1.08,16.33-.04.49-.56.94-1.18,1.13.19-6.44.37-12.89.56-19.44Z"/>
      <path d="M423.48,120.73c.46.03.93.05,1.39.08v15.44c-.88.04-1.57.08-2.3.11.3-5.21.6-10.31.91-15.63Z"/>
      <path d="M87.39,138.12h-1.57c-.19-6.46-.38-12.86-.57-19.37.59-.08,1.1-.15,1.5-.2.22,6.54.43,12.99.65,19.57Z"/>
      <path d="M60.1,136.32c-.72-.06-1.42-.12-2.08-.18v-15.3h2.08v15.49Z"/>
      <path d="M361.86,134.38c-.16,1.71-.3,3.26-.46,4.89h-5.18v-5.2c1.96.11,3.73.21,5.64.32Z"/>
      <path d="M123.26,133.98h4.83c.09,1.71.19,3.43.29,5.29h-5.11v-5.29Z"/>
      <path d="M173.62,132.49c-3.62,1.05-4.22.97-4.42-.56,3.39-1.09,4.14-1,4.42.56Z"/>
      <path d="M263.08,253.18c1.29-.1,2.05-.15,3.05-.23-.18,1.02-.34,1.92-.59,3.35-.91-1.15-1.55-1.96-2.47-3.13Z"/>
      <path d="M248.01,123.44c-.14,2.67-.26,5.14-.39,7.62h-14.3v-8.28c4.7.21,9.61.43,14.69.66Z"/>
      <path d="M435.39,129.01c0,1.48-1.04,2.5-2.52,2.5-1.56,0-2.81-1.24-2.74-2.77.07-1.54.99-2.29,2.46-2.36,1.64-.08,2.81,1.04,2.81,2.64ZM434.69,129.44l.11-.72c-.68-.52-1.3-1.27-2.07-1.46-.42-.1-1.08.75-1.63,1.17.7.57,1.33,1.27,2.12,1.65.31.15.96-.42,1.46-.66Z"/>
      <path d="M242.75,197.26c-.77.34-1.56.64-2.29,1.04-.68.37-1.3.84-1.86,1.21-1.66-1.17-3.26-2.29-4.93-3.47.37-.31.63-.56.92-.77,5.14-3.74,3.32-3.41,7.95.48.29.24.11,1.03.15,1.56,0,0,.06-.05.06-.05Z"/>
    </g>
    <path d="M245.96.42c.04.11.06.3.13.31,2.97.64,2.92,2.99,3.42,5.35.88,4.15-.48,7.3-2.94,10.53-3.38,4.44-6.3,9.22-9.42,13.85-.14.2-.35.42-.34.63.01.57.13,1.14.2,1.72.48-.19,1.15-.25,1.42-.6,2.85-3.78,5.69-7.58,8.43-11.43,1.93-2.72,3.77-5.51,5.53-8.35.35-.56.26-1.52.11-2.24-.46-2.24-1.04-4.46-1.59-6.76,3.73.31,4.58,1.23,4.83,4.57.22,3.03-.38,5.78-2.08,8.31-4.44,6.59-8.86,13.21-13.33,19.79-.24.35-.91.7-1.29.62-2.25-.47-4.47-1.07-6.97-1.69,2.86-5.52,5.56-10.8,8.35-16.05,1.51-2.84,3.16-5.6,4.74-8.4.17-.31.4-.67.38-1-.18-3.14-.42-6.28-.64-9.42.35.09.71.18,1.06.26Z"/>
    <path d="M270.19,65.15c3.7,1.6,7.36,3.28,11.11,4.77,1.62.64,3.4.91,5.12,1.28,6.03,1.29,9.5,5.52,12.01,10.69.63,1.29.53,2.94.77,4.43l-.4.35c-.77-.47-1.55-.91-2.3-1.41-.55-.37-1.02-.92-1.61-1.16-.46-.19-1.07-.04-1.61-.05.11.64,0,1.56.38,1.86,1.46,1.16,3.09,2.12,4.89,3.32-.71,1.96-1.21,4.07-2.27,5.84-.42.71-2.07.73-3.19.96-.99.2-1.37-.43-1.55-1.31-.43-2.03-.8-4.08-1.43-6.05-.19-.61-1.13-1.39-1.71-1.38-1.23.02-1.24.97-.92,2.01.61,1.95,1.11,3.93,1.78,6.32-1.61-.53-3.44-.59-3.85-1.38-1.02-2-1.63-4.29-1.95-6.53-.24-1.69-.08-1.92-2.15-2.43-.69,2.88.2,5.52,1.22,8.48-1.63-.4-3.01-.7-4.36-1.12-.29-.09-.59-.57-.66-.92-.51-2.49-.95-4.99-1.45-7.48-.1-.52-.23-1.14-.58-1.49-.37-.37-1.02-.46-1.55-.68-.21.57-.66,1.16-.6,1.7.2,1.85.59,3.67.94,5.75-1.58-.55-2.97-.96-4.28-1.54-.38-.17-.66-.81-.76-1.28-.48-2.13-.88-4.28-1.31-6.42q-.31-1.58-2.32-2.03c.32,2.88.64,5.66.96,8.52-1.32-.33-2.73-.59-4.07-1.07-.39-.14-.74-.89-.79-1.39-.29-2.72-.48-5.44-.7-8.16-.11-1.43-.71-2.29-2.53-2,.14,3.49.28,6.97.43,10.62l-3.93-.98c-.07-6.7-.14-13.54-.22-20.38-.02-2-.01-4.01-.15-6-.19-2.7-1.46-4.82-4.02-5.82-3.5-1.37-7.08-2.54-10.63-3.78-.57-.2-1.16-.3-2.05-.52,2.04-3.83,3.96-7.53,5.96-11.18,4.65-8.47,9.31-16.92,15.46-24.44.73-.9,1.45-1.31,2.6-1.24,2.35.13,4.71.15,7.13.22.28,1.86.68,3.59.74,5.33.03.93-.3,2.03-.83,2.81-1.96,2.91-4.07,5.73-6.28,8.79,1.11.67,2.11,1.26,3.25,1.95,2.22-3.75,4.38-7.33,6.46-10.95.21-.36.04-.99-.07-1.46-.49-1.98-1.02-3.96-1.66-6.42,1.74.57,2.97.93,4.18,1.39.27.1.55.5.59.79.47,3.43.9,6.84-1.06,10.06-1.26,2.07-2.28,4.29-3.39,6.45-.26.51-.46,1.05-.68,1.58.12.1.25.19.37.29.92-.92,1.84-1.84,2.76-2.76,1.5-1.5,3.03-2.99,4.51-4.51,1.51-1.56,1.78-3.26.91-5.34-.73-1.75-1.03-3.68-1.54-5.63,2.62.13,3.87,1.07,4.58,3.49,1.27,4.37.82,8.05-2.37,11.44-1.55,1.64-2.68,3.67-4.01,5.52l.34.49c.96-.24,1.98-.33,2.85-.74,1.98-.93,3.84-2.1,5.82-3.02,3.08-1.43,6.11-3.08,9.35-3.99,5.23-1.48,10.69,1.92,12.26,7.14,1.16,3.87-2.23,10.23-6.36,11.76-1.35.5-2.81.78-4.24,1.03-3.71.64-7.46,1.08-11.15,1.83-4.52.92-8.96.37-13.38-.45-1.11-.21-2.06-1.19-3.12-1.74-.61-.32-1.43-.82-1.92-.64-.7.26-1.29,1.03-1.7,1.71-.09.14.72,1.02,1.25,1.31,9.17,5,18.67,5.61,28.53,2.21,3.6-1.24,7.31-2.31,11.06-2.98,4.36-.78,7.83,2.42,7.98,6.86.22,6.47-3.53,11.01-9.99,11.18-7.94.2-15.89-.14-23.84-.34-2.95-.07-5.89-.4-8.84-.61-.07.23-.14.47-.21.7ZM265.15,57.94c2.19,2.64,5.02,3.67,8.21,3.87,1.03.06,2.05.26,3.08.34,6.2.53,12.4.7,18.4-1.21,1.57-.5,3.17-1.63,4.19-2.92,1.65-2.08.36-4.54-2.26-4.77-.96-.08-1.94,0-2.9.1-3.25.33-6.51.65-9.75,1.06-6.01.75-11.71-.25-17.23-2.7-1.52-.67-3.22-1-4.87-1.25-.43-.06-1,.77-1.5,1.2.57.51,1.05,1.2,1.72,1.49.92.4,2.05.33,2.95.76,5.22,2.49,10.73,3.49,16.46,3.27,4.18-.16,8.36-.59,12.54-.85.99-.06,1.99.09,2.98.15.05.31.11.61.16.92-1.29.53-2.54,1.42-3.86,1.54-6.46.59-12.93,1.1-19.4,1.38-2.45.1-4.98-.29-7.11-1.89-.46-.34-1.19-.33-1.79-.48ZM288.26,80.73c-.18.29-.37.59-.55.88-12.03-2.3-21.99-8.58-31.14-16.59.44.92.98,1.74,1.65,2.44,4.38,4.61,9.36,8.42,15.08,11.26,4.37,2.17,8.73,4.33,13.73,4.49,1.18.04,2.46-.11,3.54-.55,1.71-.69,1.92-2.01.6-3.28-.77-.74-1.71-1.42-2.7-1.79-5.47-2.04-10.66-4.65-15.64-7.68-4.98-3.03-9.03-6.95-11.78-12.13-.48-.89-.81-2.24-2.09-1.6-.4.2-.36,1.86-.08,2.7.42,1.24,1.06,2.51,1.92,3.49,2.12,2.4,4.2,4.92,6.69,6.9,5.4,4.3,11.55,7.34,18.02,9.75.99.37,1.84,1.12,2.76,1.69ZM269.3,42.32c-.03.33-.05.65-.08.98.78.38,1.51.91,2.33,1.12,6.38,1.6,12.67.78,18.87-1.02,1.04-.3,2.03-1.13,2.79-1.94,1.39-1.47,1.26-3.22,0-5.38-.95-1.62-2.28-1.7-3.92-1.37-3.99.8-8,1.51-12,2.21-1.19.21-2.43.18-3.6.44-.48.11-.85.7-1.26,1.07.39.3.75.79,1.18.86,1.07.19,2.19.37,3.25.25,3.73-.43,7.44-1.06,11.18-1.46,1.08-.12,2.21.26,3.32.41-.92.77-1.73,1.94-2.79,2.23-5.4,1.46-10.85,2.72-16.52,1.27-.83-.21-1.83.22-2.75.35ZM245.88,45.78c2-3.12,3.88-6.23,5.94-9.22,4.35-6.28,8.81-12.49,13.19-18.75.46-.66,1.48-1.34.33-2.29-1.08-.89-1.96-.68-2.75.41-.39.54-.85,1.03-1.28,1.53-5.87,6.87-9.94,14.93-14.74,22.5-1.06,1.67-2.02,3.39-3.1,5.21l2.4.6ZM253.28,38.27c2.74,2.06,5.28,3.92,7.77,5.85.9.7,1.76.67,2.4-.13,1.28-1.6,2.6-3.2,3.57-4.99.91-1.68.23-4.38-1.21-5.49-2.04-1.59-4.2-3.03-6.42-4.6-.61.94-1.13,1.73-1.72,2.64,2.01,1.4,3.95,2.64,5.74,4.07.53.42,1.04,1.52.85,2.06-.42,1.2-1.29,2.24-2.07,3.5-2.55-1.9-4.86-3.61-7.24-5.38-.56.82-1.05,1.56-1.68,2.49ZM249.7,47.76c.48-.56.77-.86,1.02-1.18q1.6-2.11,3.52-.39c2.25,2.02,2.22,2,.41,4.9-.28.44-.12,1.15-.17,1.74.65-.05,1.56.16,1.9-.19,1-1.03,1.95-2.19,2.56-3.47.29-.61.06-1.92-.43-2.38-1.8-1.69-3.79-3.16-5.74-4.68-.24-.19-.88-.31-.97-.19-1.03,1.4-2.04,2.81-2.91,4.31-.14.23.46.89.81,1.53Z"/>
    <path d="M209.94,67.01c4.37-.89,8.46-1.72,12.56-2.55.35-.07.73-.11,1.08-.07,5.32.66,10.47,6.55,10.05,11.86-.29,3.73-.72,7.52-1.73,11.1-1.4,4.97-5.38,7.32-10.29,7.02-6.76-.42-13.51-1.39-20.21-2.42-2.15-.33-4.17-1.59-6.19-2.55-.47-.23-1.02-1.01-.98-1.48.23-2.59.63-5.17,1-7.96,5.18.13,10.28.25,15.44.37.86-4.5.93-8.8-.74-13.31Z"/>
    <path d="M207.31,28.79c2.1-7.32,3.17-14.65,7.13-21.04,1.87-3.02,4.32-5.5,7.19-7.76,4.5,4.13,8.88,8.15,13.48,12.39,2.51-4.09,5-8.13,7.49-12.17.17.03.34.05.51.08,0,1.38-.17,2.78.02,4.14.53,3.8-.78,6.79-3.1,9.79-1.85,2.39-2.81,5.47-4.22,8.21-1.86,3.6-3.77,7.16-5.65,10.75-.19.36-.26.77-.41,1.19-7.45-1.85-14.85-3.7-22.45-5.59ZM221.28,26.04c1.04-.15,2.71-.12,4.19-.65,3.07-1.1,3.86-3.83,1.91-6.43-1.64-2.19-3.9-3.7-6.62-4.17-3.58-.62-4.79.73-6.67,3.53-.26.39-.22,1.25.03,1.7,1.52,2.65,3.62,4.68,7.16,6.02Z"/>
    <path d="M188.62,61.9c.77-2.07,1.08-3.94,2.06-5.37,3.25-4.75,6.71-9.37,10.17-13.97.32-.43,1.2-.64,1.82-.62.95.03,1.9.34,3.08.58-.34.33-.54.56-.77.75-2.5,2.07-3.4,4.65-2.49,7.8.74,2.54,3.23,4.4,6.38,4.64,3.99.3,8,.43,11.99.76,2.54.21,5.05.7,7.58,1.01.97.12,1.13.58,1.05,1.48-.14,1.61-.11,3.24-.14,4.63-7.87.52-15.93,1.06-24.29,1.62.78-.77,1.45-1.26,1.9-1.9,1.4-2.04,1.01-5.32-1.18-6.67-2.07-1.28-4.45-2.19-6.81-2.82-1.08-.29-2.43.46-3.62,1.01,3.5-.77,6.17.91,8.73,2.77,1.61,1.18,1.61,5.74.1,6.97-.27.22-.81.25-1.18.18-4.59-.88-9.17-1.8-14.37-2.83Z"/>
    <path d="M235.54,74.54c.16-2.41.28-4.7.49-6.98.18-1.95,1.84-3.45,3.81-3.49,1.39-.03,2.78.05,4.17.08-.7-4.99-4.57-6.67-8.45-3.61-.99.78-1.72,1.88-2.66,2.72-.48.43-1.18.62-1.78.92-.19-.15-.38-.3-.56-.45.54-2.96.79-6.02,1.75-8.83.42-1.23,2.19-2.16,3.54-2.87,4.95-2.62,12.43-1.06,15.91,3.39.85,1.08,1.44,2.61,1.55,3.98.76,9.59-8.21,17.22-17.75,15.14Z"/>
    <path d="M238.52,39.11c-2.06,4.03-4.08,7.98-6.09,11.92-4.24-1.9-8.18-3.97-12.34-5.43-5.15-1.81-10.46-3.14-15.72-4.62-2.25-.63-2.27-.57-1.38-3.29,3,.75,6.04,1.5,9.07,2.26.08-.28.15-.57.23-.85-3.09-.94-6.19-1.88-9.52-2.9.26-2.14.52-4.33.81-6.78,11.76,3.27,23.27,6.46,34.93,9.7ZM217.73,39.53c-.38,1.44,0,2.39,1.3,2.7,1.21.28,2.16-.23,2.55-1.45.4-1.23-.36-2.75-1.44-2.92-1.41-.21-2.11.61-2.41,1.67ZM211.31,36.35c.13-.17.26-.34.39-.51-.34-.38-.62-1-1.04-1.11-1.92-.52-3.88-.93-5.84-1.3-.28-.05-.64.31-.97.48.26.26.49.68.8.76,2.21.6,4.44,1.13,6.66,1.68Z"/>
    <path d="M208.3,51.58c-1.91-.37-3.35-1.45-3.83-3.38-.5-2.01.65-3.54,2.07-4.74.43-.37,1.39-.37,2.02-.2,5.74,1.55,11.52,3.02,16.49,6.55,1.48,1.05,3.07,1.95,4.57,2.97.27.19.34.67.51,1.01-.35.13-.72.4-1.06.36-6.93-.84-13.85-1.71-20.78-2.58ZM213.85,50.34c3.68,1.19,8.01,1.2,9.28-.3-2.13-.88-4.15-1.83-6.25-2.53-2.69-.9-5.42-1.74-8.2-2.34-1.5-.33-3.41,1.06-3.07,2.06.3.91,1.45,1.54,2.05,2.11.58-1.14.93-2.5,1.33-2.51,1.44-.05,3,.14,4.31.71.47.2.37,1.73.56,2.81Z"/>
    <path d="M195.57,75.45c1.31-.24,2.62-.48,3.92-.71.66-.12,1.37-.1,1.96-.37.57-.26,1.01-.81,1.51-1.23-.43-.49-.77-1.23-1.31-1.41-1.55-.52-3.16-1-4.77-1.14-1.8-.15-2.56-.77-2.05-2.6.09-.33.07-.7.12-1.27,2.3.24,4.52.48,6.75.7,2.16.22,4.33.42,6.58.64.71,2.44.4,4.89-.16,7.33-.07.32-.51.78-.8.79-3.89.13-7.79.19-11.69.27-.03-.33-.05-.67-.08-1Z"/>
    <path d="M268.78,88.87c-1.02,1.91-1.93,3.67-2.93,5.37-.16.28-.81.5-1.15.4-1.39-.39-2.74-.9-4.29-1.43.75-2.02,1.45-3.93,2.17-5.88,2.07.51,4.03,1,6.19,1.54Z"/>
    <path d="M258.73,92.69c-1.04-.26-1.94-.42-2.78-.72-.39-.14-.89-.51-.98-.87-.56-2.1-1.01-4.23-1.52-6.46l7.76,1.93c-.86,2.13-1.63,4.03-2.47,6.12Z"/>
    <path d="M267.05,95.94c1.13-2.25,2.13-4.23,3.19-6.35,1.3.53,2.5,1.02,3.83,1.56-.97,1.77-1.78,3.37-2.74,4.89-.23.36-.96.61-1.44.57-.88-.07-1.75-.39-2.85-.67Z"/>
    <g class="cls-2">
      <path d="M236.08,79.28c-1.32,1.85.89,3.85.53,8.71-.17,2.32-.84,4.11-2.3,7.17-5.66,11.87-9.69,14.46-8.58,17.08.94,2.23,5.97,2.42,15.98,2.7,9.51.26,14.29.35,15.68-1.8,2.27-3.5-3.55-7.44-5.33-18.27-1.71-10.43,1.75-18.67-.89-19.77-.94-.39-1.43.63-4.44,1.8-5.93,2.3-9.16.31-10.65,2.4Z"/>
    </g>
  </g>
</svg>