<?xml version="1.0" encoding="UTF-8"?>
<svg id="Ebene_2" xmlns="http://www.w3.org/2000/svg" viewBox="0 0 158.53 163.79">
  <g id="Ebene_7">
    <g>
      <path d="M91.97,74.28c-4.38,1.63-19.28,1.72-24.62.13.18-1.04.41-2.1.53-3.16.06-.51.03-1.08-.16-1.55-1.65-4.04-2.1-8.25-1.84-12.57,0-.08.05-.16.08-.24,1.17.02,1.18.05,1.28,1.13.04.41.21.81.31,1.22.08,0,.16,0,.24,0,.1-.61.2-1.21.3-1.82.66-.04,1,.18.98.86-.01.47.08.94.13,1.41.08,0,.16,0,.24,0,.1-.65.2-1.29.32-2.02.31.07.6.14.77.19.2.9.38,1.71.56,2.51.1-.01.21-.03.31-.04v-2.4c.5.05.89.1,1.26.13.11.91.23,1.81.34,2.71.12,0,.24,0,.35-.01.09-.83.17-1.66.27-2.58.68.07,1.29.13,1.79.18.17.99.32,1.86.47,2.73.13,0,.26-.01.39-.02.05-.82.1-1.64.16-2.49h1.93c.2.97-.18,2.04.76,3.02v-2.86h1.87c.17.99.33,1.95.49,2.9.13,0,.25-.02.38-.02.07-.94.14-1.88.22-2.89.4-.02.85-.05,1.35-.08.13,1.01.25,1.96.37,2.91h.34c.08-.95.15-1.91.23-2.93.14-.02.33-.05.52-.09.69-.15,1.02.08.97.83-.04.64,0,1.28.1,1.92.81-.84.67-1.84.61-2.8,1.14-.51,1.37-.38,1.38.76,0,.59,0,1.18,0,1.97.86-1.02.64-2.08.71-3.14.28-.05.57-.11,1-.19v2.53l.35.03c.14-.86.28-1.72.44-2.69.2-.06.52-.15.91-.26.09.9.18,1.73.26,2.56.1,0,.21.02.31.02.11-.62.34-1.24.29-1.85-.07-.89.29-1.26,1.26-1.39.1.68.26,1.36.29,2.05.16,3.51-.72,6.83-1.93,10.06-.38,1.02-.5,1.95-.24,2.98.19.77.26,1.57.38,2.34ZM78.88,70.24c.33.43.58.76.83,1.09.18-.32.52-.65.51-.97-.01-.36-.33-.71-.52-1.07-.24.27-.48.55-.82.94ZM79.61,65.96c.66-.41.64-1,.46-1.59-.05-.18-.35-.45-.44-.42-.2.07-.44.28-.5.48-.15.57-.09,1.12.48,1.53Z"/>
      <path d="M73.56,110.11c-.63,1.68-1.26,3.45-1.96,5.2-.28.7-.34,1.24.08,1.97,1.27,2.23,1.63,4.71,1.5,7.24-.1,1.86-.4,3.7-.62,5.56-.06.48-.25.8-.81.93-.42.1-.89.37-1.14.71-.91,1.18-1.74,2.43-2.6,3.65.06.04.13.08.19.13.79-.89,1.56-1.82,2.4-2.66.26-.26.75-.3,1.13-.44.07.4.24.8.2,1.19-.18,1.74-.42,3.47-.65,5.21h-10.09c0-.91-.03-1.68,0-2.44.21-4.53.48-9.06.62-13.6.03-1.03-.34-2.07-.51-3.11-.06-.33-.07-.68-.12-1.18.72.09,1.36.19,2,.25,1.43.13,2.43-1.02,2.1-2.54-1.15,1.05-2.45.75-3.73.46-.2-.04-.5-.29-.5-.45.01-.91-.12-1.9.19-2.72,2-5.34,4.1-10.64,6.16-15.95.03-.08.09-.14.24-.39.03.4.07.62.07.85,0,3.36.04,6.72,0,10.09-.01.77.25,1.08.95,1.2,1.61.27,3.21.57,4.89.87ZM64.45,133.33c1.8-2.56,1.95-7.01.38-8.75.73,2.89.26,5.78-.38,8.75Z"/>
      <path d="M91.81,135.38c-.83-1.22-1.62-2.46-2.5-3.64-.27-.36-.76-.71-1.19-.78-.76-.12-.94-.56-1.06-1.19-.64-3.46-1.07-6.94-.16-10.41.23-.9.74-1.73,1.07-2.61.1-.28.14-.65.04-.93-.62-1.75-1.29-3.49-1.94-5.24-.11-.29-.18-.59-.21-.69,1.96-.51,3.86-1,5.76-1.48.63-.16.82-.51.81-1.17-.04-3.01-.02-6.02.19-9.09.1.24.21.47.3.71,1.84,4.91,3.71,9.81,5.47,14.74.31.87.18,1.91.21,2.87,0,.15-.23.4-.39.44-1.3.34-2.62.8-3.81-.35-.48,1.51.57,2.81,2.02,2.65.59-.07,1.18-.13,1.87-.2-.03.51.04.93-.08,1.28-.84,2.34-.28,4.7-.17,7.06.17,3.73.39,7.45.6,11.28-1,.08-1.94.22-2.87.23-2.18.04-4.37.04-6.55,0-.26,0-.71-.25-.73-.43-.23-1.7-.41-3.42-.56-5.13-.03-.31.15-.63.23-.94.33.12.76.14.99.37.86.88,1.66,1.82,2.48,2.74.06-.03.13-.07.19-.1ZM95.19,124.34c-1.65,1.98-1.55,6.25.12,8.62-.48-2.86-.98-5.66-.12-8.62Z"/>
      <path d="M19.69,71.02c-.41-.87-.96-1.35-2.06-1.11-.79.17-1.67.15-2.46,0-1.01-.2-1.22-1.19-.47-1.99.66.71,1.45.39,2.24.29.76-.1,1.54-.17,2.31-.15.85.02,1.55.32,2.11,1.08.88,1.19,2.15,1.57,3.6,1.23.31-.07.61-.16.96-.25.5,1.4,1,2.79,1.54,4.32-2.02.04-3.27,1.45-4.78,2.38-.81.5-1.75.8-2.69,1.22.04.15.12.36.15.58.12.96.62,1.48,1.62,1.52.74.03,1.24.4,1.55,1.12.56,1.32,1.2,2.6,1.82,3.92-.62.42-1.18.8-1.78,1.21.15.32.31.6.4.89.23.77.7,1.2,1.51,1.29,1.06.12,1.73.69,2.14,1.7.42,1.03,1,2,1.55,3.06-.53.45-1.05.89-1.6,1.37.21.39.36.81.64,1.11.28.3.68.66,1.04.67,1.23.07,2.12.47,2.55,1.71.2.56.56,1.07.88,1.58.39.62.68,1.21.51,2-.07.32.26.89.57,1.09,1.13.7,2.33.9,3.59.23.26-.14.66-.12.95-.04,1.29.38,2.56.84,3.85,1.21.69.2,1.15.51,1.34,1.26.06.26.45.65.67.64.53-.03,1.31.25,1.43-.67.13-.96.69-1.5,1.6-1.77.49-.15.95-.41,1.41-.63.8-.39,1.55-.61,2.52-.32,1.69.5,3.27-1.04,2.97-2.86-.12-.75.05-1.27.5-1.79.08-.09.15-.18.2-.28.53-1.15,1.39-1.54,2.63-1.3,1.21.24,1.16-.94,1.61-1.54.44-.59-.07-.94-.42-1.2-.74-.56-.74-1.11-.21-1.8.28-.36.51-.77.69-1.19.36-.85.97-1.24,1.88-1.4,1.25-.21,1.9-1.97,1.13-2.96-.45-.57-.6-1.06-.18-1.75.61-1,1.15-2.05,1.63-3.13.32-.72.76-.92,1.48-.73.3.08.61.12,1,.19-.08.6-.16,1.18-.24,1.82-.26-.02-.5-.1-.7-.03-.33.11-.66.28-.94.48-.14.1-.2.34-.28.52-.71,1.67-.43,2.11,1.47,2.13-.06.62-.12,1.23-.18,1.77-.46.09-1.14.06-1.22.27-.28.71-.71,1.68-.44,2.25.66,1.39.26,2.42-.47,3.55-.34.53-.66.91-1.32,1.08-1.49.38-2.46,2.05-1.96,3.69.35,1.15.09,1.9-.71,2.63-.19.17-.35.39-.49.6-.42.66-.95.94-1.78.86-1.24-.11-2.27.47-3.16,1.31-.68.64-.94,1.44-.81,2.34.1.7-.18,1.02-.8,1.29-1.31.57-2.58,1.23-3.93,1.89-.31-.37-.58-.73-.88-1.07-1.24-1.4-3.04-1.23-3.9.41-.28.52-.52.57-1.06.45-2.34-.53-4.7-1-7.15-1.51,0-.39-.02-.78,0-1.17.08-1.13-.43-1.94-1.47-2.26-1.25-.39-2.54-.65-3.83-.84-.62-.09-.97-.29-1.23-.85-.57-1.19-1.17-2.36-1.8-3.52-.25-.45-.26-.81.02-1.26.59-.96-.15-2.58-1.26-2.62-1.62-.07-2.43-.81-2.76-2.38-.23-1.11-.73-2.16-1.12-3.26.1-.09.17-.18.26-.24.96-.64,1.11-1.21.54-2.2-.08-.15-.29-.25-.46-.31-.18-.07-.39-.07-.59-.11-1.2-.25-2.05-.79-2.25-2.17-.14-.98-.59-1.91-.84-2.88-.06-.22.07-.68.22-.75.95-.4.87-1.03.52-1.79-.11-.23-.17-.48-.27-.77-.65.24-1.25.53-1.89.67-.27.06-.62-.17-.93-.26.13-.31.18-.79.41-.9.82-.39,1.69-.65,2.59-.98.11.36.19.63.29.95.24-.01.48-.02.48-.02.85-1.59,1.62-3.04,2.4-4.49-.03-.02-.06-.04-.08-.06-.22.2-.43.41-.67.59-.44.34-.9.35-1.34,0-.44-.35-.65-.81-.39-1.36.16-.33.37-.65.59-.94.33-.45.17-.61-.31-.62l.02.02ZM40.02,107.93c.66.07.98-.31,1.1-.87.12-.58-.03-1.16-.63-1.35-.73-.22-1.5-.37-2.26-.4-.68-.03-.97.5-1.05,1.13-.07.62.23.97.83,1.09.67.13,1.34.27,2.01.4ZM24.68,93.56c1.08.02,1.98-.63,1.79-1.15-.25-.69-.51-1.42-.95-1.99-.2-.26-.87-.32-1.26-.22-.32.08-.78.56-.76.82.06.66.31,1.32.58,1.94.13.29.48.48.6.6ZM48.42,107.51c.63-.27,1.1-.43,1.51-.66.79-.46.89-.87.48-1.71-.36-.74-.92-.65-1.52-.38-.34.15-.73.28-.96.54-.25.28-.54.76-.45,1.03.15.44.6.79.94,1.19ZM21.48,81.55c-.38.31-1.1.65-1.08.92.07.76.37,1.54.76,2.2.13.23.82.22,1.23.16.23-.03.62-.45.58-.61-.19-.77-.47-1.52-.77-2.25-.07-.16-.36-.22-.72-.42ZM31.21,100.37c-.38-.6-.7-1.21-1.12-1.75-.17-.21-.6-.43-.81-.35-.4.14-1.08.59-1.04.72.26.78.51,1.75,1.1,2.2.65.48,1.35-.2,1.86-.82ZM62.08,91.56c-.19-.2-.46-.68-.86-.85-.52-.22-1.55.79-1.6,1.52-.05.72.5.99,1.06,1.14.48.13,1.31-.82,1.4-1.81ZM57.76,99.37c-.01-.48-.69-1.06-1.2-1.03-.49.03-1.47,1.12-1.25,1.54.25.46.76.87,1.26,1.07.4.16,1.2-.98,1.19-1.58Z"/>
      <path d="M139.88,77.96c.28.02.56.04.9.06.06-.32.11-.64.19-1.08.9.34,1.78.6,2.58,1.01.23.12.23.67.34,1.02-.3.06-.62.2-.9.15-.49-.11-.96-.34-1.54-.55-.3,1.23-1.04,2.34-.13,3.59.14.19.09.6,0,.87-.36,1.03-.85,2.01-1.15,3.05-.27.98-.78,1.54-1.8,1.61-.63.04-1,.42-1.32.96-.44.74-.54,1.42-.04,2.15.39.56.28,1.07-.06,1.65-.6,1.01-1.07,2.09-1.65,3.12-.14.25-.46.47-.74.58-.51.19-1.25.12-1.55.45-.63.71-.96,1.62-.75,2.64.13.65.25,1.3.3,1.95.02.26-.12.61-.31.79-.94.93-1.89,1.85-2.89,2.71-.27.23-.74.27-1.12.29-.42.02-.86-.15-1.27-.1-1.39.17-2.08,1.02-2.1,2.46-.01.7.2,1.57-.14,2.04-.33.45-1.23.49-1.89.69-1.37.43-2.73.88-4.11,1.26-.29.08-.73,0-.97-.18-1.85-1.41-3.34-1.53-5.3-.3-.45.28-.76.32-1.22,0-1.05-.76-2.12-1.48-3.22-2.15-.52-.32-.65-.69-.63-1.27.03-.74.18-1.44-.4-2.18-.8-1.04-1.68-1.25-2.83-.92-.06.02-.11.03-.17.04-1.27.25-1.26.24-1.81-.92-.42-.88-.82-1.77-1.31-2.61-.39-.67-.52-1.32-.21-2.04.46-1.08.14-2.1-.33-3.06-.12-.24-.6-.46-.88-.43-1.22.16-1.86-.41-2.2-1.5-.07-.24-.18-.49-.33-.7-.82-1.2-.89-2.4-.09-3.66.13-.21.04-.79-.14-.92-1.05-.73-1.26-1.78-1.29-2.93,1.23-.56,1.31-.8.79-2.28q-.46-1.3-1.9-.93c-.13-.6-.27-1.19-.43-1.91.73-.12,1.38-.27,2.05-.33.16-.01.4.2.5.37.67,1.2,1.34,2.41,1.95,3.64.11.22.03.59-.06.86-.12.35-.36.65-.52.98-.52,1.04-.17,1.8.99,1.7,1.39-.12,1.99.58,2.52,1.63.31.61.67,1.22,1.13,1.73.74.83.65,1.57.1,2.44-.27.43-.55,1.02-.47,1.47.27,1.48.51,1.61,1.99,1.27.63-.15.98-.04,1.31.55.85,1.47,1.78,2.88,2.65,4.33.13.22.21.62.1.82-.71,1.33-.73,1.35.45,2.37.09.07.18.14.27.2.07-.01.15,0,.18-.03.72-1.02,1.47-.67,2.31-.14.82.52,1.68,1,2.56,1.41.71.33,1.04.8,1.1,1.56.07.88.92,1.46,1.72,1.19.17-.06.33-.37.38-.58.16-.76.56-1.25,1.28-1.59,1.09-.51,2.11-1.17,3.19-1.7.31-.15.77-.21,1.09-.11,1.98.64,3.68-.71,3.51-2.79-.02-.31.16-.7.37-.96.62-.75,1.29-1.46,1.99-2.15.22-.21.57-.36.88-.4,1.03-.12,2.02-.99,2.13-1.99.02-.16-.13-.36-.24-.5-.34-.42-.7-.83-1.11-1.31.98-1.68,1.94-3.38,2.98-5.03.17-.26.73-.31,1.12-.37.49-.08,1.05.06,1.26-.63.21-.69.4-1.33-.34-1.84-.26-.18-.48-.41-.75-.66,1.02-1.88,1.98-3.69,3-5.48.12-.21.5-.36.78-.38,1.44-.11,1.88-.62,1.73-2.11l-.02.02ZM104.67,102.78c.58-.34,1.26-.53,1.51-.96.18-.31-.12-.98-.34-1.43-.29-.59-.69-1.13-1.08-1.65-.16-.21-.52-.52-.65-.46-.62.25-1.28.53-1.73.99-.19.19.01.88.19,1.28.23.52.55,1.02.93,1.44.28.31.7.49,1.17.8ZM101.65,92.52c-.69-1.09-1.28-2.05-1.9-2.99-.04-.07-.21-.07-.32-.07-.9.02-1.82,1.27-1.47,2.1.26.62.65,1.2,1.05,1.75.39.54.99.46,1.48.22.39-.19.69-.59,1.15-1ZM119.18,108.29c0,.71.54,1.4,1.11,1.25.9-.24,1.81-.55,2.63-.99.77-.42.9-1.33.36-1.81-.81-.73-1.69-.27-2.51,0-.72.24-1.5.51-1.58,1.48,0,.03,0,.06,0,.09ZM139.98,82.68c-.41-.37-.7-.82-1.08-.92-.33-.08-.93.12-1.13.4-.47.67-.8,1.44-1.15,2.19-.25.54-.38,1.11.32,1.46.66.33,1.37.35,1.76-.29.51-.84.82-1.79,1.29-2.84ZM133.4,94.52c.19-.12.6-.27.82-.56.42-.53.75-1.14,1.07-1.74.37-.68.11-1.22-.53-1.57-.65-.36-1.17-.11-1.52.48-.37.61-.71,1.24-1,1.88-.32.7.2,1.47,1.16,1.51ZM113.1,107.82c-.09-.12-.21-.44-.44-.6-.61-.42-1.25-.8-1.91-1.14-.6-.31-1.1-.12-1.45.47-.37.64-.14,1.13.41,1.46.63.38,1.3.72,1.99,1,.7.29,1.4-.25,1.4-1.19ZM130.8,100.97c-.2-.27-.39-.75-.71-.88-.31-.13-.88-.04-1.15.18-.54.45-1,1.02-1.41,1.6-.11.15-.03.66.11.74.47.25,1.14.66,1.48.49.76-.39,1.42-1.05,1.68-2.12Z"/>
      <path d="M109.88,9.02c-.05-1.1-.09-1.98-.14-2.86-.03-.56-.35-.79-.9-.82-.97-.05-1.94-.13-2.96-.2v-.71h52.65c-.14,2.05-.26,4.16-.45,6.27-.02.23-.5.41-.77.62-.08-.06-.17-.13-.25-.19.07-.55.13-1.1.21-1.65.07-.45.18-.9.26-1.35.27-1.53-.04-1.85-1.64-1.81-.59.01-.91.26-1.05.8-.23.95-.53,1.88-.66,2.84-.08.64-.37.83-.92.85-2.75.08-5.51.29-8.26.22-8.24-.2-16.47-.57-24.71-.77-4.39-.11-8.79,0-13.18.01-.39,0-.79,0-1.23,0v-1.25h3.99ZM141.68,6.5s0-.02,0-.04c-1.15.06-2.3.1-3.44.21-.29.03-.7.22-.81.46-.38.8.29,1.76,1.19,1.8,1.75.07,3.5.08,5.24.25.83.08,1.09-.19,1.13-.94.07-1.2-.18-1.7-1-1.73-.77-.03-1.55,0-2.33,0ZM112.94,8.76c1.78,0,3.49.04,5.19-.05.23-.01.55-.72.59-1.12.05-.57.31-1.28-.39-1.71-.05-.03-.11-.03-.17-.03-1.77,0-3.53,0-5.4,0,.06,1,.12,1.93.19,2.91ZM148.25,6.31c0,.87-.04,1.56.03,2.23.02.2.35.51.55.52,1.14.03,2.29.01,3.43-.04.21,0,.58-.2.59-.33.05-.68.03-1.37-.03-2.05-.01-.12-.33-.31-.51-.32-1.31-.03-2.62-.01-4.06-.01ZM132.38,8.84s0,.04,0,.07c.51,0,1.04.05,1.54-.01.91-.11.89-.82.88-1.5,0-.6-.12-1.08-.89-1.07-.86,0-1.72-.05-2.58-.05-.86,0-1.16.47-1.2,1.59-.03.85.41,1.02,1.12.98.37-.03.74,0,1.12,0ZM123.62,8.76v-.05c.46,0,.92.03,1.37,0,.82-.06,1.04-.63,1.02-1.32-.03-.67-.24-1.27-1.08-1.25-.8.01-1.6.03-2.4.09-.92.07-1.25.44-1.21,1.3.03.88.43,1.25,1.36,1.25.31,0,.63,0,.94,0Z"/>
      <path d="M65.71,42.76c-.36.65-.73,1.25-1.02,1.89-.12.25-.19.64-.08.86,1.16,2.36,2.54,4.56,4.59,6.27,1.69,1.41,3.72,1.84,5.81,2.12.11.01.22.04.43.07-.11,1.08-.21,2.15-.33,3.38-1.67-.2-3.31-.41-4.94-.6-4.98-.56-7.68-3.79-9.48-8.08-.13-.3-.26-.6-.48-.86.28,2.91,1.41,5.42,3.8,7.62-.9,0-1.54.03-2.17,0-.58-.04-.92.17-1.26.66-1.2,1.74-2.47,3.43-3.83,5.29-1.88-1.42-3.65-2.76-5.42-4.1.83-1.98,1.61-3.86,3.65-4.89-.96-.29-1.9-.13-2.64.69-.6.66-1,1.51-1.45,2.29-.18.31-.26.66-.41,1.06-.33-.22-.58-.37-.8-.54-.31-.24-.61-.51-.98-.83,2.62-2.52,4.16-5.73,6.13-8.65.19-.29.41-.56.59-.85,1.55-2.56,3.76-3.53,6.72-2.98,1.14.21,2.33.13,3.59.19ZM69.37,53.4c-.78,0-1.35.49-1.34,1.14.01.63.56,1.12,1.26,1.13.72,0,1.36-.53,1.36-1.15,0-.59-.61-1.12-1.29-1.12Z"/>
      <path d="M102.81,61.65c-1.34-1.81-2.69-3.52-3.92-5.31-.46-.68-.93-1-1.73-.89-.33.05-.68,0-1.29,0,2.63-2.12,3.33-4.91,3.81-7.8-.07-.04-.14-.07-.22-.11-.23.44-.45.89-.69,1.32-.7,1.21-1.32,2.49-2.14,3.62-2.08,2.88-5.16,3.97-8.49,4.53-.85.14-1.71.22-2.56.34-.45.07-.7-.08-.75-.56-.1-.91-.23-1.82-.35-2.78.94-.2,1.88-.38,2.81-.61,1.53-.37,2.83-1.16,3.74-2.44,1.28-1.8,2.5-3.64,3.71-5.49.14-.21.11-.6.02-.86-.23-.67-.54-1.31-.87-2.1,1.88,0,3.66.04,5.43-.01,1.69-.04,3.01.61,4.04,1.9.44.56.86,1.16,1.2,1.78,1.76,3.15,3.37,6.41,6.07,9.07-.58.45-1.08.84-1.66,1.29-.9-2.14-1.76-4.23-4.54-4.24.76.76,1.56,1.4,2.17,2.19.61.78,1.03,1.71,1.59,2.68-1.74,1.45-3.48,2.9-5.38,4.48ZM90.6,55.64c.7-.02,1.32-.66,1.29-1.33-.03-.62-.58-1.03-1.35-1.01-.76.02-1.38.53-1.37,1.14.01.63.72,1.22,1.43,1.2Z"/>
      <path d="M91.64,34.99q-1.12.25-1.52-.86c-.16-.43-.32-.86-.48-1.29-.39-1.04-.83-2.04-.54-3.22.14-.58-.27-1-.85-1.06-.6-.06-1.14.08-1.24.95.23-.05.41-.13.58-.11.27.02.54.1.81.16-.08.31-.08.81-.26.9-2.15.99-2.47,3.03-3.02,4.99-.73,2.58-.25,2.25-2.93,2.41-1.94.12-3.9,0-5.85.03-.86.01-1.44-.32-1.71-1.13-.29-.84-.53-1.69-.83-2.52-.53-1.48-.96-3.03-2.74-3.6-.25-.08-.35-.62-.51-.95.37-.12.74-.29,1.12-.35.16-.03.35.16.53.26.04-.71-.2-.98-.99-1.12-.67-.12-1.3.24-1.32.8-.05,1.8-1.38,2.82-2.24,4.13-.19.29-.46.52-.63.82-.5.89-1.24,1-2.05.74,1.43-1.99,2.86-3.98,4.33-6.04-.39.16-.92.25-1.29.54-.45.37-.81.89-1.13,1.39-.73,1.13-1.29,1.41-2.89,1.24,1.62-.96,2.27-2.47,2.96-3.99.62-1.37,1.6-1.77,3.2-1.44.69.14,1.35.42,2.03.63.11-.45.39-.98.34-1.48-.09-.96.55-1.16,1.2-1.34,4.5-1.24,8.93-1.4,13.21.85.42.22.88.39,1.48.65-.44.26-.78.46-1.18.69-.14-.36-.25-.64-.36-.91-.03,0-.06.01-.09.02.06.51.11,1.02.18,1.6.58-.2,1.12-.42,1.69-.57,1.31-.33,2.27.18,2.72,1.44.16.46.26.94.33,1.42.18,1.14.41,2.26,1.37,3.07-1.22.33-1.53.17-1.97-.94-.28-.69-.55-1.38-.88-2.05-.13-.26-.42-.44-.57-.58.34.88.7,1.77,1.01,2.67.35,1.02.65,2.06.98,3.15ZM77.4,27.89c-.09.05-.23.08-.27.16-.4.79.16,1.14.69,1.52.17.12.31.3.46.45-.18.16-.33.36-.53.48-.32.2-.68.35-1.02.52.02.09.04.17.05.26h5.92c.02-.08.04-.16.06-.24-.58-.33-1.16-.65-1.83-1.03.43-.27.8-.47,1.14-.71.78-.57.71-1.2-.11-1.66-.23-.13-.39-.4-.58-.6.27-.13.54-.34.83-.36,1.15-.11,2.3-.17,3.45-.25.02-.08.05-.15.07-.23-.59-.44-1.19-.88-1.78-1.32l-.21.24c.21.31.41.63.65.98h-2.69c-.13-.5-.24-.95-.35-1.4-.12.03-.24.06-.36.09.07,1.01.13,2.03.18,2.75.51.37.83.6,1.14.83-.26.31-.49.64-.77.91-.38.37-.78.74-1.21,1.05-.24.17-.69.38-.84.28-.71-.51-1.4-1.08-1.99-1.72-.19-.2-.08-.68-.1-1.03.33-.07.66-.13.98-.2.41-2.73.38-2.99-.44-3.19v1.7c-1.06-.07-2.02-.14-3.07-.21.32-.47.53-.78.85-1.25-1.04.24-1.74.55-2.12,1.42,1.51.19,2.94.37,4.61.58-.33.49-.56.83-.78,1.16ZM76.16,32.98h7.24c-2.41-.75-4.82-1.08-7.24,0ZM82.66,35.21c-.45-.67-.61-.71-1.36-.68-1.1.05-2.21.06-3.32.02-.63-.02-1.11.1-1.43.66h6.1Z"/>
      <path d="M157.44,157.76c.56-.17.8-.02.82.54.04,1.38.13,2.76.15,4.13.01,1.01-.4,1.37-1.42,1.36-16.83-.25-33.67-.5-50.5-.75-.25,0-.51-.03-.81-.05v-1.33c1.6.11,3.18.21,4.73.32.06-.08.09-.1.09-.12.42-2.07.21-2.33-1.88-2.43-.97-.04-1.94-.13-2.95-.2v-1.12c.42,0,.78,0,1.15,0,8.96-.09,17.93-.12,26.89-.29,6.26-.12,12.51-.42,18.77-.65,1.98-.07,1.98-.08,2.04,1.92.03.95.01,1.9.1,2.84.02.22.34.49.59.59.24.1.57.03.85.02,1.16-.04,1.38-.27,1.38-1.45,0-1.12,0-2.23,0-3.34ZM137.61,162.27c2.24,0,4.44,0,6.64-.02.18,0,.5-.22.5-.35.02-.68,0-1.36-.1-2.03-.03-.17-.41-.4-.63-.4-1.43.02-2.86.12-4.29.14-2.35.04-2.41.1-2.13,2.65ZM116.11,162.19h0c.29,0,.57,0,.86,0,1.94,0,2.03-.11,1.6-2.02-.01-.06-.01-.13-.05-.16-.19-.17-.39-.46-.59-.46-1.23-.05-2.46-.05-3.68,0-.21,0-.57.34-.58.54-.05.68.02,1.38.08,2.07,0,.03.32.05.49.05.63,0,1.26,0,1.89,0ZM135.32,162.44c0-.87.03-1.69-.03-2.51-.01-.16-.38-.42-.59-.42-.97-.03-1.94,0-2.92.03-.18,0-.52.11-.52.18-.07.84-.09,1.69-.09,2.54,0,.06.28.18.43.18,1.22.02,2.45,0,3.72,0ZM124.32,159.43h0c-.23,0-.46,0-.69,0-1.69,0-1.73.05-1.49,1.74,0,.06.02.11.03.17.02.63.33.92.97.91.77,0,1.54.05,2.31.06,1.05.01,1.39-.39,1.39-1.57,0-1.01-.31-1.32-1.32-1.32-.4,0-.8,0-1.2,0ZM148.01,159.43c0,.73-.04,1.42.02,2.1.02.21.28.56.45.57,1.34.05,2.68.03,4.05.03v-2.69h-4.52Z"/>
      <path d="M.99,157.94c.26,1.53.44,2.75.67,3.95.13.69.75.91,1.85.73.73-.12.95-.55.83-1.23-.19-1.01-.37-2.02-.58-3.17,1.67-.11,3.24-.31,4.8-.31,11.4.02,22.81.11,34.21.13,3.91,0,7.81-.11,11.72-.16.31,0,.63,0,1.04,0,.04.46.08.89.12,1.38-1.52,0-2.95,0-4.37,0q-1.26,0-1.31,1.21-.09,2.13,2.06,2.28c1.03.07,2.07.09,3.1.19.27.02.52.24.72.56-18.57-.61-37.08-.21-55.7.15-.06-1.63-.15-3.17-.13-4.71,0-.28.52-.55.98-1ZM18.56,159.08h0c-.92,0-1.84,0-2.76.01-.21,0-.48.05-.6.19-.37.41-.3,2.51.09,2.91.14.14.4.22.6.21,1.83-.1,3.67-.21,5.5-.36.22-.02.56-.25.61-.44.14-.52.2-1.07.2-1.61,0-.58-.27-.95-.96-.92-.89.04-1.78.01-2.67.01ZM40.57,162.33h5.97c-.06-.77-.13-1.48-.15-2.19-.01-.51-.23-.71-.73-.7-.86,0-1.72-.02-2.57-.03-2.55-.04-2.76.19-2.51,2.92ZM24.47,161.95c1.12,0,2.15.04,3.18-.02.4-.03,1.04-.21,1.14-.48.19-.55.12-1.21.09-1.82,0-.11-.3-.3-.46-.3-1.36-.02-2.72-.01-4.18-.01.09,1,.15,1.73.23,2.64ZM8.36,162.61v-.04c.4,0,.8.02,1.2,0,.76-.04,1.08-.5,1.09-1.51,0-.86-.34-1.26-1.16-1.25-.69,0-1.37.06-2.06.11-1.06.08-1.41.44-1.35,1.35.07,1.1.37,1.37,1.5,1.36.26,0,.52,0,.77,0ZM35.92,159.43s0,.05,0,.07c-.52,0-1.03-.02-1.55,0-.77.04-1.13.47-1.09,1.24.05.88.45,1.33,1.24,1.31.77-.02,1.54-.09,2.31-.16.89-.08,1.2-.42,1.17-1.24-.04-.96-.32-1.23-1.32-1.22-.26,0-.52,0-.77,0Z"/>
      <path d="M51.45,10.64c-.28,0-.56.01-.84,0-6.95-.32-13.89-.3-20.84-.08-6.63.21-13.27-.02-19.9-.01-1.6,0-3.21.16-4.8.29-.91.08-1.09-.05-1.03-.95.06-.95.11-1.89.18-2.84.04-.57-.19-.87-.77-.89-.37,0-.75-.03-1.12,0-.73.07-1.13.46-1.15,1.23-.02,1-.05,2.01-.13,3.01-.02.23-.26.44-.4.66-.13-.04-.25-.08-.38-.12,0-1.83-.06-3.66.03-5.48.03-.74.8-.84,1.39-.86,1.09-.04,2.18.02,3.27.03,7.9.09,15.79.25,23.69.24,3.73,0,7.45-.46,11.18-.49,3.93-.03,7.85.19,11.75.3.31,1.22.26,1.29-.79,1.45-.79.13-1.58.27-2.37.4-.46.08-.71.24-.61.8.14.73.21,1.48.25,2.22.03.52.21.7.75.61.71-.11,1.43-.17,2.14-.18.21,0,.42.23.63.35-.04.09-.08.18-.12.27ZM17.61,9.11s0-.05,0-.07c.63,0,1.26.01,1.89,0,2.03-.05,1.87.35,1.82-2.11,0-.2-.38-.57-.59-.57-2.15-.06-4.3-.06-6.45-.09-.59,0-.77.34-.72.82.07.69-.31,1.5.45,2.03.07.05.22-.01.34-.01,1.09,0,2.18,0,3.27,0ZM39.47,9.71c1.16.08,2.18.17,3.21.21,2.62.11,2.68.05,2.49-2.56,0-.03,0-.07,0-.08-.21-.2-.41-.57-.63-.58-1.38-.06-2.75-.07-4.13-.03-.24,0-.62.31-.66.54-.15.78-.18,1.58-.27,2.49ZM5.66,6.01c-.05.36-.08.53-.09.7q-.21,2.21,1.96,2.46c.06,0,.11.02.17.02,2.38.25,2.73-.07,2.64-2.49,0-.03.01-.07,0-.08-.2-.21-.4-.57-.61-.58-1.34-.05-2.68-.03-4.07-.03ZM30.77,9.18c1.06.09,1.99.17,2.93.24.43.03.86.08,1.29.05.2-.01.52-.17.54-.31.14-.73.27-1.48.27-2.23,0-.2-.46-.54-.72-.56-1.11-.09-2.23-.1-3.35-.08-.23,0-.6.27-.64.48-.16.77-.21,1.57-.31,2.41ZM23.57,9.62c.79,0,1.53.02,2.26,0,2.58-.09,2.29.38,2.08-2.44,0-.06.01-.14-.02-.17-.2-.19-.4-.51-.62-.53-1.06-.05-2.12-.03-3.19,0-.18,0-.49.26-.5.41-.05.91-.02,1.82-.02,2.71Z"/>
      <path d="M105.81,65.02c2.5-2.09,4.95-4.14,7.55-6.33.51,1.11.99,2.16,1.51,3.29,3.43-1.06,6.17.51,8.8,2.52,1.54,1.18,3.15,2.28,4.72,3.44.13.1.27.32.25.46-.27,1.92-.57,3.84-.88,5.86-3.18-.8-6.2-1.56-9.22-2.33-1.61-.41-3.21-.84-4.81-1.28-1.31-.36-1.99-1.46-1.74-2.82.08-.42.21-.83.32-1.24-1.27-.16-1.93.62-2.04,2.54-1.87-1.02-3.22-2.5-4.46-4.12ZM117.29,65.98c1.31.51,2.84,1.03,4.3,1.7,1.5.69,2.77,1.71,3.5,3.46.37-2.73-4.42-6.29-7.8-5.16Z"/>
      <path d="M53.44,64.94c-1.22,1.58-2.45,3.03-4.04,3.86-.36-.76-.64-1.54-1.08-2.2-.19-.29-.71-.35-1.18-.45.39,1.25.44,2.42-.08,3.56-.11.24-.35.54-.58.6-4.84,1.28-9.69,2.54-14.69,3.84-.47-2.02-.91-3.91-1.32-5.8-.03-.15.13-.4.27-.51,1.44-1.04,2.91-2.03,4.33-3.08,1.73-1.28,3.37-2.78,5.57-3.11,1.33-.2,2.71-.04,4.12-.04.29-.88.61-1.87,1.01-3.08,2.65,2.22,5.15,4.3,7.66,6.4ZM34.07,71.15c1.78-3.43,4.97-4.27,8.16-5.09-2.83-1.5-8.15,1.71-8.16,5.09Z"/>
      <path d="M156.89,37.92h.95c.08,1.28.2,2.56.22,3.83.16,9.25.31,18.49.43,27.74.03,2.35-.05,4.71-.08,7.06q-.02,1.26-1.39,1.45c.07-1.3.16-2.58.19-3.87.03-1.35-.14-1.49-1.48-1.42q-1.81.1-1.8,1.92c0,1.26,0,2.52,0,3.88-.32.03-.61.06-.98.1-.62-13.48-.37-26.9,0-40.36h1.13v4.78c.77,0,1.51.07,2.23-.04.23-.04.55-.55.56-.85.06-1.37.03-2.75.03-4.22ZM156.77,48.95c.13-2.57.13-2.57-2.28-2.28-.45.05-.69.22-.67.69.05,1.14.04,2.3.16,3.43.03.26.45.55.75.69.23.11.56.02.85.01,1.13-.05,1.16-.07,1.19-1.17.01-.46,0-.92,0-1.37ZM156.74,66.17h-.02c0-.46,0-.92,0-1.38-.01-.81-.5-1.09-1.24-1.1-1.03-.02-1.5.27-1.56,1.05-.07.97-.11,1.95-.1,2.92,0,.24.21.64.38.67.66.11,1.39.26,1.98.07.3-.1.41-.89.55-1.38.07-.27.01-.57.01-.86ZM155.94,55.5c-1.19-.02-1.34.05-1.4,1.14-.06,1.05.01,2.11.05,3.17,0,.16.09.43.17.44.58.1,1.2.28,1.75.16.29-.07.57-.67.64-1.07.15-.84.09-1.72.23-2.56.15-.88-.21-1.22-1.02-1.25-.17,0-.34-.03-.42-.03Z"/>
      <path d="M5.11,78.69h-.77c0-1.49,0-2.95,0-4.41,0-1.16-.03-1.17-1.2-1.24q-2.29-.13-2.28,2.17c0,.97,0,1.95,0,2.92l-.21.15c-.16-.2-.41-.38-.45-.59-.07-.48-.04-.97-.03-1.46,0-7.44-.01-14.88.04-22.31.04-5.14.19-10.28.29-15.42,0-.17.03-.33.05-.55.31-.03.58-.05.98-.09,0,1.09,0,2.14,0,3.19,0,1.15.11,1.28,1.29,1.28,2.03,0,1.77.27,1.77-1.78,0-.86-.03-1.72-.04-2.58,0-.05.04-.1.09-.2h.98c.62,13.65.99,27.28-.48,40.92ZM1.58,46.65c0,1.15-.02,2.18,0,3.2.03,1.64.16,1.75,1.8,1.7.11,0,.27.03.34-.03.26-.23.68-.48.7-.75.09-1.17.06-2.35.09-3.52.01-.51-.22-.75-.72-.73-.71.03-1.42.09-2.21.14ZM4.61,66.74s.01,0,.02,0c-.05-.66-.09-1.31-.15-1.97-.08-.87-.73-.91-1.39-.91-.68,0-1.31.12-1.39.94-.09.97-.12,1.94-.13,2.91,0,.61.31,1.03.94,1.15,1.44.29,2.12-.27,2.1-1.7,0-.14,0-.29,0-.43ZM2.63,60.67c1.48-.05,1.62-.21,1.45-1.65-.09-.74-.2-1.47-.31-2.21-.16-1.06-.42-1.26-1.48-1.15-.26.03-.55.03-.75.15-.24.15-.55.42-.56.65-.03.94.01,1.89.08,2.83.08,1.18.38,1.42,1.57,1.38Z"/>
      <path d="M60.97,142.3c3.3.11,6.56.21,9.92.32-.14,1.36-.29,2.71-.43,4.07-.13,1.23-.27,2.45-.37,3.68-.04.55-.26.84-.82.87-.26.01-.51.07-.77.08-6.31.12-12.62.23-18.94.34-.44,0-.89,0-1.33,0-.02-.07-.03-.14-.05-.21.19-.16.36-.34.56-.47,3.8-2.3,7.59-4.61,11.41-6.87.5-.3.83-.56.74-1.17-.03-.22.04-.45.06-.64Z"/>
      <path d="M88.84,142.58c3.3-.1,6.58-.2,9.98-.3-.27,1.03.5,1.32,1.2,1.74,3.74,2.23,7.46,4.5,11.18,6.76.19.12.36.26.63.47-.22.07-.34.15-.46.15-6.94-.12-13.89-.25-20.83-.35-.68,0-.97-.24-1.02-.92-.21-2.51-.45-5.02-.68-7.55Z"/>
      <path d="M6.05,124.35c-.85.15-1.1-.12-1.07-.86.05-1.32.02-2.64,0-3.96,0-.81-.33-1.02-1.56-1.07-.73-.03-1.13.28-1.19,1.03-.1,1.34-.22,2.69-.33,4.03,0,.11-.04.22-.07.36H.61c-.1-7.74-.19-15.45-.29-23.19h1.73c-.13,1.38-.23,2.69-.39,3.99-.1.82.14,1.18,1.01,1.11.68-.05,1.36-.01,2.09-.01v-4.9h.98c.11,7.84.21,15.66.32,23.46ZM4.8,112.57c.03-2.7.03-2.69-2.29-2.44-.48.05-.65.23-.62.7.07,1.2.08,2.41.18,3.61.02.27.27.75.42.76.67.02,1.36-.03,2-.22.19-.06.26-.66.3-1.03.05-.45.01-.92.01-1.37Z"/>
      <path d="M153.03,100.51h.91v4.73h3.15c-.1-1.6-.21-3.21-.31-4.88.49-.06,1-.13,1.69-.22-.12,7.64-.23,15.22-.35,22.85-.3.03-.5.06-.69.06-.2,0-.4,0-.71,0-.12-1.34-.21-2.68-.39-4-.05-.4-.3-1.06-.54-1.1-.62-.09-1.29.06-1.92.2-.1.02-.14.47-.14.72-.01,1.52,0,3.04,0,4.63-.31.03-.57.06-1.01.1.1-7.72.2-15.37.3-23.08ZM153.87,112h.04c0,.34,0,.69,0,1.03.02,1.25.51,1.72,1.78,1.55.31-.04.78-.46.82-.76.14-1.16.16-2.35.17-3.52,0-.22-.25-.62-.4-.63-.76-.04-1.57-.09-2.28.12-.18.05-.09,1.04-.12,1.6-.01.2,0,.4,0,.6Z"/>
      <path d="M85.86,104.5h3.77c.09-4.3.18-8.55.26-12.8.1-.02.2-.03.3-.05.51,1.87,1.71,3.5,1.68,5.57-.04,3.1-.05,6.2-.03,9.3,0,.71-.16,1.11-.93,1.23-2.03.32-4.04.72-6.11,1.09-1.65-5.63-1.73-11.16-.8-16.79h1.49c.12,4.14.24,8.26.37,12.45Z"/>
      <path d="M157.27,35.59c-.53-.82-.64-1.68-.46-2.59.07-.36.2-.72.25-1.09.17-1.25-.23-1.87-1.22-1.93-.95-.06-1.59.71-1.53,1.85.04.92.14,1.83.16,2.75.01.41-.1.82-.16,1.3-.69-.26-1.18-.45-1.19-1.25-.02-7-.07-14.01-.11-21.01,0-.14.02-.28.04-.48.26-.08.53-.15.93-.27.09.73.18,1.39.25,2.06.07.66.11,1.32.19,1.97.14,1.09.18,1.12,1.29.94.54-.08,1.07-.2,1.72-.32-.1-1.44-.2-2.85-.3-4.27,1.26.21,1.33.29,1.32,1.45-.04,6.4-.1,12.8-.11,19.2,0,.82-.21,1.38-1.07,1.69ZM154.27,21.36c0,1.1-.02,2.16,0,3.21.05,1.76-.39,1.59,1.66,1.64,1.39.04,1.48-.06,1.45-1.41,0-.43-.02-.86-.06-1.29-.25-2.42-.45-2.57-3.05-2.15Z"/>
      <path d="M4.52,17.75v-4.96c.79-.11,1.08.02,1.08.77-.04,6.83-.05,13.67-.06,20.5,0,.79.01.79-1.19,1.19-.44-1.33-.48-2.67-.3-4.04.16-1.23-.7-2-1.89-1.64-.78.24-1.05.79-.89,1.69.16.93.32,1.86.39,2.79.03.43-.14.88-.25,1.43-.82-.56-1.36-1.02-1.35-2.01.06-5.97.06-11.94.1-17.91,0-.43,0-.9.19-1.26.22-.42.63-.74.96-1.1.08.06.15.12.23.18-.07,1.37-.14,2.73-.21,4.23,1.05.05,2.01.09,3.2.14ZM4.28,23.35h0c0-.63.02-1.26-.01-1.89-.01-.19-.19-.53-.27-.52-.88.05-1.76.15-2.63.28-.1.01-.2.33-.21.51-.06,1.11-.11,2.23-.11,3.35,0,.24.23.67.37.68.87.05,1.76.09,2.61-.08.18-.04.19-.95.25-1.46.03-.28,0-.57,0-.86Z"/>
      <path d="M74.71,109.1c-1.94-.24-3.84-.48-5.73-.73-.49-.06-.71-.31-.7-.86.06-3.96-.02-7.93.18-11.89.06-1.29.83-2.54,1.27-3.81.08.02.16.04.25.07v12.2c1.05.05,2.05.09,3.04.14.65.03.55-.46.56-.83.08-2.41.16-4.82.22-7.23.03-1.26,0-2.51,0-3.79h1.65c.75,5.57.82,11.06-.74,16.73Z"/>
      <path d="M74.94,38.13h9.63c.29,1.68.62,3.56.99,5.69-1.7.32-3.37.66-5.05.93-.26.04-.58-.27-.72-.35-.43.14-.84.41-1.21.37-1.3-.14-2.6-.4-3.89-.61-.49-.08-.68-.31-.59-.83.3-1.74.58-3.49.85-5.2ZM79.74,41.59c.44-.76.81-1.42,1.22-2.14h-2.4c.4.73.76,1.37,1.18,2.14Z"/>
      <path d="M84.62,1.31c-.62,1.34-1.18,2.56-1.77,3.84.43.2.8.37,1.16.54-.44,1.16-.87,2.28-1.3,3.4-.21.55-.41,1.08.5,1.16-.69,1.74-1.32,3.42-2.04,5.07-.13.29-.62.43-.94.64-.12-.08-.24-.15-.36-.23.55-4.86,1.09-9.71,1.64-14.57-1.9,4.68-1.89,9.69-2.64,14.65-.09-.2-.22-.4-.25-.61-.42-2.78-.84-5.55-1.21-8.33-.03-.24.17-.63.38-.75.74-.44.76-1.07.62-1.78-.27-1.38-.52-2.76-.81-4.33,2.37.44,4.65.87,7.03,1.31Z"/>
      <path d="M95.72,7.23c-1.13.52-2.09.96-3.15,1.45.18.59.31,1.18.55,1.71.27.6.07.89-.48,1.12-1.11.46-2.21.94-3.36,1.44.08.24.15.47.23.71-.87.46-1.69.93-2.54,1.33-1.02.48-.86,1.53-1.23,2.4-.77-.23-1.55-.46-2.61-.77,1.68-1.88,3.18-3.67,4.8-5.35,1.62-1.67,3.36-3.22,5.03-4.8-1.08.24-4.34,2.31-6.06,4.1-1.71,1.76-3.27,3.67-4.95,5.47,2.28-4.77,5.74-8.61,9.66-12.25,1.36,1.14,2.7,2.25,4.12,3.44Z"/>
      <path d="M139.9,77.94c-1.35-.22-2.57-.74-3.68-1.56-1.29-.96-2.58-1.95-4.49-1.84.42-1.59.81-3.04,1.22-4.56.48.16.9.31,1.32.44,1.48.44,2.81.09,3.69-1.14.69-.96,1.58-1.18,2.59-1.19.83,0,1.65.17,2.48.21.41.02.88.03,1.24-.13.62-.27.8.04.88.52.13.72-.47,1.36-1.39,1.41-.57.03-1.14-.05-1.71-.11-.74-.08-1.48-.23-1.94.62-.11.21-.39.33-.64.53.2.35.44.7.63,1.07.41.83.31,1.45-.26,1.84-.7.48-1.17.1-1.62-.42-.06-.06-.13-.11-.34-.09.55.96,1.03,1.98,1.68,2.87.38.52.55.95.32,1.54,0,0,.02-.02.02-.02Z"/>
      <path d="M1.89,141.8H.75c0-1.62,0-3.22,0-4.81-.02-3.04-.01-6.08-.12-9.12-.03-.98.28-1.42,1.21-1.52.2-.02.39-.06.71-.12-.13,1.47-.2,2.89-.39,4.3-.09.67.11.96.71,1.1.61.14,1.21.32,1.97.51v-5.9c.73.13,1.19.22,1.18,1.04-.05,4.65-.06,9.3-.08,13.95,0,.22-.04.45-.06.72h-1.23c0-1.33,0-2.67,0-4,0-1.27-.09-1.34-1.34-1.44q-1.76-.13-1.65,1.6c.04.6.04,1.2.07,1.81.04.6.1,1.2.16,1.9Z"/>
      <path d="M153.82,131.49c.96-.27,1.69-.44,2.37-.71.19-.07.36-.48.35-.72-.1-1.49-.25-2.97-.38-4.44.11-.04.16-.08.2-.07,1.73.34,1.73.34,1.7,2.13-.08,4.02-.16,8.04-.25,12.06,0,.37-.04.74-.06,1.2-.32.02-.61.04-.98.06.08-1.43.17-2.77.23-4.11.05-.97-.11-1.13-1.08-1.02-2.34.25-1.91.03-1.95,2.07-.02,1,0,2.01,0,3.02,0,.05-.04.11-.09.22-.28.02-.58.04-.99.07-.03-.39-.07-.75-.07-1.11-.03-4.48-.04-8.96-.11-13.45-.01-.76.32-1,1.1-1.18v5.98Z"/>
      <path d="M1.82,97.74c-.52-.07-.99-.12-1.51-.19,0-.85,0-1.62,0-2.39-.04-4.02-.08-8.04-.12-12.06,0-.48-.05-.96.78-.86.12,1.41.29,2.82.35,4.24.03.66.29.95.9.99.68.05,1.36.09,2.16.14-.09-1.92-.17-3.74-.26-5.65.39-.06.74-.11,1.31-.2v15.93c-.15,0-.4.02-.78.05,0-1.44.02-2.84,0-4.24-.01-.65.17-1.49-.9-1.52-1.24-.03-2.13.7-2.1,1.71.04,1.31.12,2.63.18,4.05Z"/>
      <path d="M86.28,48.3c.21,1.25.36,2.36.57,3.45.11.6-.02.94-.68.97-2.69.12-5.38.3-8.07.34-1.59.02-3.18-.19-4.89-.31.12-1.48.22-2.79.33-4.23,4.28.84,8.49.78,12.74-.22ZM77.22,49.84c-.34.85-.42,1.69.02,2.51.38-.84.45-1.68-.02-2.51ZM84.26,52.3c.09,0,.17,0,.26,0v-2.52h-.26v2.52ZM82.13,52.34c.59-.83.49-2.13,0-2.43v2.43ZM75.22,52.31v-2.71c-.56.67-.55,1.93,0,2.71ZM79.54,52.36c.1-.01.21-.02.31-.04.3-1.18.19-2.04-.42-2.41.04.87.07,1.66.11,2.44Z"/>
      <path d="M154.07,87.38c1.01-.07,1.85-.14,2.82-.21.13-1.7.26-3.38.4-5.07.53-.07.89.01.9.62.07,4.74.14,9.47.21,14.21,0,.05-.05.1-.1.21-.36.05-.75.1-1.27.18.05-.64.11-1.23.14-1.82.04-.75.07-1.49.06-2.24-.01-.65.06-1.4-.91-1.46-1.2-.07-2.08.52-2.15,1.45-.09,1.37-.15,2.74-.22,4.18-.31-.03-.55-.05-.78-.07v-15.44c1.19-.19,1.24-.13,1.17.97-.09,1.43-.17,2.86-.27,4.48Z"/>
      <path d="M93.11,18.07c.05.33.08.55.11.82-.38.02-.71.03-1.12.05.03.23.05.43.05.44-1.08.62-2.08,1.19-3.1,1.78-.49-.73-1.06-1.57-1.67-2.47,2.99-1.9,6.39-2.66,9.74-3.55-.02-.09-.04-.19-.06-.28-.93.14-1.86.25-2.78.43-2.51.49-5,1.06-7.15,2.56-.12.08-.34.03-.51.05.04-.18.01-.42.12-.52.93-.79,1.78-1.83,2.86-2.26,2.75-1.11,5.62-1.94,8.62-2.94.33,1.54.6,2.84.88,4.18-2.06.59-4,1.14-6,1.71Z"/>
      <path d="M77.6,15.87c-.15-.25-.33-.48-.43-.74-1.4-3.54-3.65-6.4-6.8-8.55-.25-.17-.52-.31-.85-.39,2.67,3,5.18,6.08,6.99,9.73-1.02.38-1.98.73-3.05,1.13.09-.74.12-1.44.26-2.12.1-.47-.02-.68-.45-.83-.59-.21-1.16-.47-1.86-.76.28-.4.51-.74.79-1.16-.4-.19-.78-.42-1.2-.56-.72-.23-.77-.63-.42-1.22.16-.27.26-.57.39-.87-.53-.34-1.74.03-1.19-1.34-1.42.35-1.71-1.07-2.82-1.48,1.87-1.16,3.56-2.18,5.69-2.34.15,1.96,1.3,3.35,2.46,4.68,1.15,1.31,1.91,2.76,2.25,4.45.15.74.34,1.48.51,2.22-.08.04-.17.08-.25.12Z"/>
      <path d="M71.49,158.21c0,.22,0,.39,0,.56,0,.14-.02.28-.03.54-.72.05-1.43.14-2.13.13-.79,0-1.23.35-1.37,1.11-.13.67-.28,1.34-.43,2.05h3.92c.02.24.03.51.06.87h-13.12c-.04-.31-.08-.64-.13-1.12,1.4,0,2.74,0,4.08,0,1.07,0,1.33-.27,1.32-1.31,0-1.03-.37-1.41-1.39-1.42-1.37-.01-2.74,0-4.16,0-.04-.61-.06-.96-.09-1.41h13.48Z"/>
      <path d="M63.49,13.6c3.01,1.31,5.81,2.88,7.99,5.45-.59.83-1.16,1.64-1.72,2.44-.76-.35-1.45-.68-2.2-1.03.12-.34.25-.72.41-1.16-.4-.02-.71-.04-1.02-.05.26-1.29-1.04-1.87-2.91-1.54-.02-.1-.07-.2-.07-.3q.12-1.68-1.51-2.22c-.46-.15-.93-.28-1.6-.48.94-1.14,1.8-2.19,2.61-3.17,2.73,1.42,5.27,2.74,7.8,4.07.3.16.59.36.85.58.84.72.83,1.11-.01,1.87-2.47-2.29-5.21-4.04-8.63-4.44Z"/>
      <path d="M88.01,158.13v.93c-1.75.1-3.49.19-5.37.29.16,1.09.3,2.1.45,3.13h4.77c.01.19.03.42.05.8h-13.76c-.12-.52.1-.74.68-.7.89.06,1.78.04,2.67.1.57.03.73-.2.76-.75.12-2.42.14-2.42-2.27-2.63-.51-.04-1.02-.06-1.6-.1.02-.37.04-.68.06-1.07h13.55Z"/>
      <path d="M60.45,108.38c1.38-6.28,4.3-12.06,5.35-18.49.94.43,1.86.85,2.86,1.31-.3.74-.61,1.44-.88,2.15-1.74,4.61-3.48,9.21-5.2,13.82-.52,1.4-.49,1.41-2.13,1.21Z"/>
      <path d="M91.38,91.26c.99-.29,1.97-.58,2.8-.83,1.5,5.96,2.99,11.88,4.51,17.92-.45.02-.89.04-1.27.06-2.02-5.72-4.01-11.38-6.04-17.15Z"/>
      <path d="M153.74,151.94c.06,1.13.11,2.12.17,3.15h-1.19c.06-1.21-.05-2.41.22-3.52.51-2.07.32-4.09-.04-6.14-.2-1.16-.1-1.26,1.18-1.61.06,1.38.11,2.75.19,4.11.05.88.54,1.32,1.37,1.32.85,0,1.31-.42,1.24-1.27-.09-1.26-.26-2.51-.39-3.77-.02-.19-.02-.39-.03-.58,1.07-.1,1.57.2,1.59,1.2.06,3.07.03,6.14.01,9.21,0,.18-.21.36-.32.53-.16-.13-.37-.22-.47-.38-.13-.21-.18-.48-.28-.72-.24-.56-.37-1.49-.75-1.61-.74-.22-1.61,0-2.52.06Z"/>
      <path d="M91.04,159.12v-1h11.85c.02.34.04.67.07,1.11-1.16,0-2.24,0-3.32,0-1.12,0-1.25.14-1.28,1.21-.05,1.76-.05,1.75,1.73,1.68.94-.03,1.89,0,2.91,0,.02.25.05.52.09.9h-12.02v-.83c1.12,0,2.21-.03,3.29.01.61.02.79-.2.81-.79.07-2.07,0-2.18-2.07-2.29-.65-.03-1.31,0-2.06,0Z"/>
      <path d="M4.61,144.87c1.09-.05,1.27.45,1.27,1.33-.03,2.93.03,5.86.06,8.79,0,.2,0,.39,0,.65-.44.04-.83.07-1.28.1,0-.81-.02-1.58,0-2.35.02-.52-.15-.81-.7-.85-2.37-.18-1.77-.64-2.76,1.51-.25.54-.53,1.05-.94,1.52.07-1.11.17-2.22.21-3.33.08-2.18.1-4.36.18-6.54.05-1.18.09-1.18,1.47-1.14-.15,1.22-.32,2.44-.43,3.65-.11,1.14.45,1.66,1.56,1.56.84-.08,1.09-.68,1.17-1.37.1-.88.12-1.77.17-2.66.02-.28,0-.57,0-.88Z"/>
      <path d="M84.36,57.39h-8.72c.08-1.12.09-2.13.27-3.1.04-.19.73-.27,1.28-.45v2.55c.09.01.19.03.28.04.58-.63.09-1.51.35-2.28h1.83c.04.7.06,1.38.14,2.05.02.17.23.31.35.46.11-.16.32-.32.33-.49.04-.65.02-1.31.02-2.03h1.71c.07.76.14,1.55.22,2.34.1,0,.21,0,.31,0v-2.48c.45-.02.78-.04,1.19-.06.15,1.15.3,2.24.45,3.46Z"/>
      <path d="M82.21,18.73c-.27.42-.59.49-1.12.44-1.25-.11-2.51-.04-3.85-.04-.12-.24-.27-.53-.42-.83-.03,0-.07.01-.1.02.05.28.1.55.16.85-.47.39-.77.32-1-.27-.15-.38-.41-.71-.61-1.06-.06.03-.13.06-.19.09.15.39.33.77.42,1.16.05.19-.06.42-.1.64-.2-.1-.43-.17-.59-.32-.24-.23-.42-.52-.62-.78-.1.05-.2.09-.31.14.19.41.39.83.61,1.31-.25.15-.52.3-.79.47-.34-.38-.68-.75-1.01-1.12-.07.04-.13.09-.2.13.19.39.38.78.68,1.4-1.33.72-2.69,1.47-4.06,2.21-.02-.06-.04-.11-.06-.17,1.32-1.4,2.54-2.92,3.99-4.16,2.22-1.89,4.97-1.8,7.68-1.58.62.05,1.23.18,1.88.28-.16.46-.28.84-.41,1.21,0,0,.03-.03.03-.03Z"/>
      <path d="M82.47,94.43c-.09,1.2-.19,2.36-.28,3.6-1.65,0-3.27.01-4.89-.02-.13,0-.36-.28-.37-.44-.03-1.02-.02-2.05-.02-3.14h5.56Z"/>
      <path d="M72.01,52.32c-.55-.32-1.09-.58-1.57-.92-.16-.11-.28-.43-.24-.63.53-3.22,1.15-6.42,1.59-9.65.15-1.09.92-1.15,1.51-1.5-.42,4.18-.85,8.36-1.29,12.7Z"/>
      <path d="M75.18,89.08c.07.69.13,1.31.22,2.14-1.33-.15-2.59-.18-3.79-.46-1.6-.39-3.16-.98-4.74-1.48-.95-.3-1.27-.88-.91-1.82.06-.15.06-.33.11-.58,2.87,1.38,5.84,2.16,9.1,2.2Z"/>
      <path d="M85.94,38.47c1.12.37,1.17,1.24,1.36,2.18.6,2.97,1.32,5.91,2.08,8.84.41,1.59.37,1.83-1.2,2.56-.83-2.29-2.33-11.36-2.23-13.59Z"/>
      <path d="M82.89,90.08c-.12.97-.25,1.96-.39,3.07-1.78,0-3.55.01-5.32-.02-.15,0-.39-.32-.41-.5-.1-.85-.13-1.7-.18-2.54h6.31Z"/>
      <path d="M89.99,24.15c-.49.52-.94.99-1.38,1.46-.92-.52-1.84-.97-2.68-1.54-.29-.2-.43-.66-.58-1.03-.18-.44-.29-.9-.43-1.36-.1.02-.19.05-.29.07v1.68c-.96.03-1.22-.42-1.11-1.22.08-.58.21-1.2-.62-1.62v2.48c-.5-.09-.87-.15-1.28-.23.09-.91.16-1.74.24-2.58l-.24-.09c-.13.2-.33.38-.39.59-.11.38-.21.79-.19,1.18.04.94-.44.98-1.18.71-.09-.96-.17-1.94-.27-3,1.92.02,3.7.57,5.25,1.69,1.59,1.14,3.18,2.22,5.15,2.8Z"/>
      <path d="M75.96,20.73c-.63.7-.06,1.63-.39,2.47-.33.08-.74.18-1.17.29.03-.7.06-1.31.09-1.92-.1-.03-.2-.05-.3-.08-.14.45-.34.88-.4,1.34-.07.57-.29.92-.84,1.16-.62.28-1.22.64-1.78,1.03-.48.34-.78.33-1.1-.19-.22-.35-.56-.62-.73-.8,1.36-.76,2.73-1.49,4.06-2.29,1.65-1,3.34-1.88,5.31-2.03.16-.01.33,0,.55,0v2.93c-1.06.34-1.08.31-1.22-.71-.08-.6-.27-1.19-.4-1.78-.12.01-.24.03-.36.04.06.84.11,1.68.17,2.61-.31.06-.62.12-1.01.2-.08-.8-.16-1.52-.23-2.25-.09-.01-.17-.03-.26-.04Z"/>
      <path d="M84.08,90.96c.14-.77.24-1.38.36-2.03,3.13.27,6.02-.48,9.02-1.67,0,.69.07,1.27-.03,1.8-.04.23-.41.52-.67.57-2.19.42-4.39.8-6.58,1.16-.64.11-1.3.1-2.09.16Z"/>
      <path d="M66.81,80.18c1.73.37,3.32.72,5.01,1.08-.3,1.25-.61,2.5-.96,3.96-1.42-.63-2.75-1.2-4.06-1.8-.14-.06-.28-.31-.27-.46.07-.91.18-1.81.28-2.78Z"/>
      <path d="M81.82,107.63h-4.47v-3.7h4.47v3.7Z"/>
      <path d="M88.98,85.45c-.33-1.44-.63-2.73-.95-4.11,1.58-.33,3.08-.65,4.66-.98.09,1.09.19,2.13.23,3.18,0,.18-.23.45-.42.53-1.13.47-2.27.89-3.52,1.37Z"/>
      <path d="M77.19,121.02v-3.19h4.91c.08,1.04.16,2.06.25,3.19h-5.16Z"/>
      <path d="M81.94,116.65h-4.67v-3.33h4.67v3.33Z"/>
      <path d="M82.08,99.32c-.05.98-.05,1.9-.16,2.8-.03.21-.4.53-.62.54-1.11.06-2.23.02-3.34.04-.51,0-.73-.18-.71-.7.03-.88,0-1.76,0-2.67h4.83Z"/>
      <path d="M81.87,108.82v3.34h-4.53v-3.34h4.53Z"/>
      <path d="M90.63,49.79c-1.22-3.18-2.3-6.35-2.44-9.89.76.3,1.42.45,1.64,1.39.43,1.8.89,3.62,1.57,5.33.52,1.31.21,2.21-.77,3.17Z"/>
      <path d="M69.35,50.56c-.83-.96-1.8-1.6-1.97-2.41-.16-.76.49-1.71.85-2.55.61-1.42,1.27-2.82,1.92-4.23.12-.27.32-.5.48-.75.09.03.19.06.28.09-.51,3.21-1.01,6.42-1.55,9.85Z"/>
      <path d="M66.38,84.43c1.94.67,3.81,1.33,5.71,1.96.62.2,1.28.41,1.92.42.95.02,1.17.5,1.07,1.54-1.34-.18-2.7-.28-4.01-.58-1.33-.31-2.6-.86-3.92-1.23-.87-.25-1.17-.7-.86-1.55.07-.18.06-.39.08-.56Z"/>
      <path d="M74.9,76.71c1.28.07,2.47.14,3.69.21v3.74c-1.15-.08-2.23-.14-3.3-.25-.15-.01-.37-.29-.38-.45-.03-1.05-.02-2.11-.02-3.26Z"/>
      <path d="M81.48,80.63v-3.68c1.15-.07,2.27-.15,3.43-.22,0,1.08.03,2.14-.03,3.18,0,.18-.34.47-.55.49-.9.11-1.81.15-2.85.22Z"/>
      <path d="M70.1,79.75c-1.15-.25-2.17-.47-3.24-.7.15-1.22.28-2.35.43-3.62,1,.2,1.95.4,2.99.61-.06,1.21-.12,2.37-.19,3.71Z"/>
      <path d="M79.27,88.97v-7.07h1.79c-.12,2.36-.24,4.69-.37,7.07h-1.42Z"/>
      <path d="M139.93,71.12c1.13-.59,2.26-.61,3.38-.26,1.65.53,3.48.44,5.05,1.27,0,.11.02.22.02.32-.4.14-.81.44-1.19.41-1.67-.15-3.34-.35-4.99-.64-1.57-.27-1.58-.34-2.27-1.11Z"/>
      <path d="M19.66,71c-.47.35-.9.9-1.43,1.01-1.73.37-3.49.63-5.25.84-.51.06-1.06-.21-1.59-.33,0-.1,0-.2-.01-.29.22-.15.43-.37.67-.43,1.81-.41,3.62-.85,5.46-1.13.69-.1,1.44.22,2.16.35,0,0-.02-.02-.02-.02Z"/>
      <path d="M107.45,61.77c-.57-.5-1.15-1-1.72-1.5.84-.91,1.31-.78,3.16,1.01-1.21.99-2.42,1.99-3.68,3.02-.56-.63-1.11-1.23-1.7-1.89,1.1-.55,1.78.06,2.46.64.05-.06.1-.12.15-.18-.55-.47-1.1-.94-1.65-1.41.73-.97,1.09-.92,2.98.31Z"/>
      <path d="M53.53,60.35c-.55.46-1.05.88-1.56,1.3.04.04.07.09.11.13.44-.31.86-.81,1.34-.88.46-.06.98.32,1.55.54-.74.61-1.29,1.07-1.85,1.53.06.07.11.15.17.22.62-.73,1.3-1.27,2.46-.79-.59.67-1.1,1.25-1.66,1.89-1.24-1.03-2.44-2.02-3.63-3.01.89-1.62,1.84-1.9,3.07-.93Z"/>
      <path d="M141.53,74.25v-1.41c2.17.53,4.3,1.05,6.43,1.59.24.06.62.31.61.45-.02.26-.23.67-.44.72-.57.14-1.21.28-1.75.14-1.65-.43-3.26-.99-4.85-1.49Z"/>
      <path d="M66.44,36.96c1.4-2.04,2.64-3.85,3.92-5.72.07.04.27.15.49.26,1.03.5,1.19.9.43,1.77-1.13,1.29-2.36,2.49-3.61,3.66-.2.19-.74.03-1.22.03Z"/>
      <path d="M17.94,72.74c.51,1.09,0,1.58-.9,1.81-1.49.38-2.98.76-4.47,1.11-.24.06-.58.07-.75-.06-.32-.23-.55-.59-.82-.9.3-.15.59-.35.9-.43,1.55-.37,3.12-.7,4.67-1.07.47-.11.92-.31,1.36-.46Z"/>
      <path d="M93.11,85.12c.13.51.36.98-.28,1.27-2.59,1.17-5.32,1.67-8.14,1.69l-.21-.26c.23-.26.45-.73.71-.75,2.65-.24,5.15-1.03,7.64-1.91.05-.02.11-.02.29-.04Z"/>
      <path d="M139.63,75.18c.79-.43,1.54-.62,2.47-.24,1.13.46,2.35.69,3.52,1.06.27.09.55.29.73.51.38.51.24.96-.43.86-1.4-.21-2.81-.48-4.17-.85-.79-.21-1.5-.68-2.25-1.04.04-.1.08-.21.13-.31Z"/>
      <path d="M20.46,75.38c-.26.11-.54.19-.78.33-1.74,1.03-3.63,1.54-5.63,1.66-.3.02-.61-.19-.91-.29.21-.35.36-.9.66-1,1.59-.55,3.21-1.04,4.85-1.42.46-.11,1.02.22,1.53.35.1.12.2.24.29.37Z"/>
      <path d="M78.55,84.93c-.83,0-1.63.03-2.42-.02-.2-.01-.49-.29-.54-.49-.19-.86-.31-1.74-.47-2.71,1.16.06,2.27.12,3.43.18v3.04Z"/>
      <path d="M70.76,91.85c.82.13,1.55.25,2.26.37v4.11c-.81-.08-1.52-.16-2.26-.23v-4.25Z"/>
      <path d="M85,81.71c-.24.99-.45,1.9-.71,2.8-.05.16-.29.37-.45.38-.77.04-1.53.02-2.39.02.08-1.03.16-2,.24-3.02,1.08-.06,2.13-.12,3.3-.18Z"/>
      <path d="M89.8,76.02c.8-.19,1.51-.37,2.33-.57.16,1.2.32,2.34.49,3.55-.91.21-1.72.41-2.61.61-.07-1.22-.14-2.35-.21-3.6Z"/>
      <path d="M88.13,85.61c-.8.15-1.49.29-2.4.46,0-1.39-.06-2.67.02-3.95.07-1.14.98-.43,1.53-.66.29,1.4.55,2.71.85,4.15Z"/>
      <path d="M74.09,85.87c-.79-.17-1.47-.33-2.28-.5.26-1.33.51-2.63.75-3.9.13-.03.18-.06.23-.05,1.28.17,1.29.17,1.3,1.47,0,.94,0,1.88,0,2.98Z"/>
      <path d="M88.62,31.21c.49,1.88.96,3.68,1.43,5.48-1.26.28-1.42.2-1.78-.98-.34-1.14-.71-2.28-1.01-3.43-.04-.17.12-.48.28-.59.27-.19.61-.28,1.08-.48Z"/>
      <path d="M92.51,47.1c-.53-1.94-1.05-3.88-1.6-5.9,2.13.48,2.15,2.4,2.74,3.79.21.5-.56,1.42-.88,2.15-.09-.01-.18-.03-.26-.04Z"/>
      <path d="M78.61,85.66v3.23c-.61,0-1.17.02-1.73-.02-.14-.01-.35-.21-.38-.36-.19-.94-.34-1.89-.51-2.86h2.61Z"/>
      <path d="M90.13,23.5c-1.38-.74-2.77-1.48-4.12-2.2.32-.58.55-.97.77-1.37-.09-.06-.19-.12-.28-.17-.26.34-.51.69-.83,1.11-.3-.18-.61-.35-.98-.57.36-.56.68-1.05,1.01-1.57,2.07,1.01,2.76,3.34,4.61,4.52-.06.08-.11.17-.17.25Z"/>
      <path d="M81.38,89.12v-3.46h2.45c-.23.94-.31,1.91-.73,2.71-.21.4-1.04.47-1.72.74Z"/>
      <path d="M87.18,76.45v3.61c-.47.09-.94.17-1.53.28-.1-1.13-.22-2.19-.28-3.25,0-.14.21-.4.37-.44.44-.11.9-.13,1.44-.19Z"/>
      <path d="M66.41,46.75c-1.07-1.38-1.07-1.4-.23-2.68.34-.53.64-1.1,1.05-1.57.38-.43.88-.76,1.32-1.13.08.08.16.15.23.23-.41.86-.83,1.72-1.22,2.58-.39.84-.76,1.7-1.15,2.58Z"/>
      <path d="M61.06,141.6v-1.95h2.81c-.09.68-.18,1.32-.27,1.95h-2.54Z"/>
      <path d="M57.99,10.23h-4.33v-1.12h4.33v1.12Z"/>
      <path d="M96.11,139.65h2.57c.03.59.06,1.2.09,1.83-.3.03-.52.07-.74.08-2,.12-1.8.48-1.91-1.92Z"/>
      <path d="M131.31,70.68c.08.38.16.77.24,1.16-.07.05-.14.11-.21.16-.5-.23-1.02-.43-1.49-.71-.18-.1-.25-.38-.36-.58.21-.08.41-.21.63-.22.18-.02.38.09.65.1-.83-.43-1.63-.86-.77-2.08.6.37,1.26.73,1.83,1.2.06.05.16,1.04-.5.98Z"/>
      <path d="M86.21,92c.37-.03.79-.07,1.24-.11v3.81c-1.14.28-1.22.24-1.24-.83-.02-.91,0-1.83,0-2.87Z"/>
      <path d="M83.95,44.86c.56-.16,1.05-.3,1.67-.47.18.98.34,1.91.52,2.91-.53.14-1.04.29-1.65.45-.19-.98-.36-1.89-.55-2.89Z"/>
      <path d="M87.91,76.34c.41-.07.85-.14,1.36-.23v3.63c-.44.08-.84.15-1.36.25v-3.65Z"/>
      <path d="M74.07,80.32c-.45-.08-.78-.14-1.15-.21v-3.61c.47.04.91.08,1.46.14-.1,1.22-.2,2.38-.31,3.68Z"/>
      <path d="M80.85,80.61h-1.6c.05-1.2.11-2.36.16-3.58h1.02c.14,1.2.27,2.35.41,3.58Z"/>
      <path d="M70.79,76.12c.55.11.94.19,1.41.28-.06,1.19-.12,2.34-.17,3.49q-1.24.1-1.24-1.01c0-.88,0-1.76,0-2.76Z"/>
      <path d="M88.08,91.86c.31-.04.66-.08,1.07-.13v4.06h-1.07v-3.93Z"/>
      <path d="M77.09,48.06c-.59-.08-1.04-.15-1.57-.23.1-.92.2-1.79.3-2.75.49.07.9.13,1.39.2-.04.91-.08,1.79-.13,2.78Z"/>
      <path d="M83.8,47.83c-.58.03-1,.04-1.49.07-.09-.9-.17-1.77-.26-2.68.45-.1.85-.18,1.36-.29.13.96.26,1.88.4,2.9Z"/>
      <path d="M73.94,44.67c.53.13.93.23,1.39.34-.11.95-.21,1.84-.31,2.79-.45-.06-.83-.12-1.3-.19.07-.96.15-1.89.23-2.95Z"/>
      <path d="M53.52,4.92h4.4c.03.28.06.52.09.76-.13.06-.2.12-.28.12-1.21.01-2.41,0-3.62.04-.68.02-.79-.28-.6-.92Z"/>
      <path d="M112.84,58.01c-.39.32-.72.57-1.01.81-.66-.59-1.28-1.15-1.93-1.74.09-.1.18-.24.3-.34.88-.79.98-.79,1.73.11.3.36.59.74.91,1.16Z"/>
      <path d="M49.07,59.62c.52-.33,1.02-.72,1.58-.96.58-.24,1.09.01,1.42.53-.58.5-1.1,1.01-1.68,1.43-.16.11-.58.04-.76-.1-.27-.21-.42-.56-.63-.86,0,0,.07-.05.07-.05Z"/>
      <path d="M28.15,73.51c-.11-.52-.2-.95-.31-1.45.82-.21,1.57-.41,2.3-.6.58,1.44.58,1.46-.8,1.79-.38.09-.76.17-1.19.27Z"/>
      <path d="M49.45,56.95c-.7.59-1.34,1.13-2.03,1.71-.28-.26-.56-.53-.91-.86.43-.53.81-1.05,1.24-1.52.1-.11.43-.14.58-.07.39.2.75.48,1.11.73Z"/>
      <path d="M77.96,45.3c.47.05.83.09,1.23.13v2.55h-1.23v-2.68Z"/>
      <path d="M129.05,71.51c.47.14.85.25,1.23.36q1.21.37.72,1.75c-.64-.17-1.3-.32-1.93-.54-.14-.05-.28-.34-.27-.51.02-.33.15-.66.25-1.06Z"/>
      <path d="M110.34,60.08c-.39.32-.78.64-1.11.92-.72-.65-1.37-1.23-2.02-1.82.84-.88,1.82-.61,3.14.9Z"/>
      <path d="M87.52,103.22c-.35.02-.68.03-1.09.05v-2.74h1.09v2.69Z"/>
      <path d="M89.06,103.19h-1.07v-2.69h1.07v2.69Z"/>
      <path d="M80.2,45.33h1.07c.04.86.08,1.7.12,2.63-.42.02-.77.04-1.19.07v-2.7Z"/>
      <path d="M49.07,59.62s-.07.05-.07.05c-.32-.17-.77-.27-.91-.53-.1-.2.13-.68.34-.91.76-.8,1.5-.8,2.19-.18-.51.52-1.03,1.05-1.55,1.57Z"/>
      <path d="M27.91,70.64c-.64.09-.51-.41-.53-.74-.01-.23.06-.59.22-.68.51-.29,1.07-.49,1.61-.72q.6,1.04-.61,1.8c-.23.11-.46.23-.68.34Z"/>
      <path d="M111.37,59.17c-.25.23-.51.47-.74.69-.74-.59-1.42-1.12-2.09-1.66.85-.89,1.93-.55,2.83.97Z"/>
      <path d="M87.35,99.44c-.33.07-.6.12-.98.2v-2.91h.98v2.72Z"/>
      <path d="M30.54,73.19q.36,1.21-.71,1.51c-1.06.29-1.32.16-1.59-.89.75-.2,1.5-.4,2.3-.61Z"/>
      <path d="M130.96,73.88c-.06.91-.41,1.2-1.19,1.01-1.24-.29-1.27-.31-1.07-1.57.75.19,1.49.37,2.26.56Z"/>
      <path d="M89.05,99.42c-1.01-.02-1.16-.57-.88-2.72h.88v2.72Z"/>
      <path d="M71.49,100.52v2.51h-.93v-2.51h.93Z"/>
      <path d="M88.56,139.62c.56.05.95.08,1.39.12v1.86h-1.18c-.07-.63-.13-1.24-.21-1.98Z"/>
      <path d="M27.91,70.64c.23-.11.46-.23.68-.34.33-.05.67-.11,1.12-.18.1.28.2.58.32.93-.77.27-1.47.52-2.44.86.13-.54.22-.91.31-1.27Z"/>
      <path d="M71.07,141.62h-1.15v-1.86c.41-.02.77-.04,1.26-.06-.04.67-.07,1.28-.11,1.92Z"/>
      <path d="M72.74,103.06h-.85c0-.62.02-1.21,0-1.8-.04-.73.27-.91,1.02-.65-.05.77-.1,1.56-.16,2.45Z"/>
      <path d="M65.29,141.6h-1.13c.06-.56.06-1.08.18-1.57.04-.17.39-.39.57-.38.2.02.53.28.54.45.02.48-.09.96-.16,1.5Z"/>
      <path d="M94.59,141.6c-.08-.66-.14-1.26-.22-1.92h1.08c.08.6.17,1.24.26,1.92h-1.12Z"/>
      <path d="M66.02,141.61c.05-.67.09-1.26.14-1.89h1.05c-.04.65-.08,1.24-.13,1.89h-1.06Z"/>
      <path d="M90.81,139.77c1.1-.37,1.15.02,1.11,1.84-.27.01-.54.03-.96.05-.05-.65-.1-1.26-.16-1.89Z"/>
      <path d="M84.04,18.23c.43.04.86.09,1.45.15-.44.5-.72.8-.99,1.12-.51.6-.77.56-1.19-.18.25-.36.49-.73.74-1.09Z"/>
      <path d="M84.04,18.23c-.25.36-.49.73-.74,1.09-.56.18-1.11.32-1.1-.59,0,0-.03.03-.03.03.14-.19.31-.36.43-.56.39-.67.92-.67,1.43.03Z"/>
      <path d="M92.65,139.72c1.17-.17,1.32.11,1.03,1.85q-.89.12-1.03-1.85Z"/>
      <path d="M68.04,139.66c.4.03.67.05,1.03.08-.03.35-.05.66-.07.96-.02.28-.04.56-.07.91h-1.02c.04-.61.08-1.22.12-1.94Z"/>
      <path d="M72.27,97.22h.63v2.29c-.83-.09-.86-.18-.63-2.29Z"/>
      <path d="M70.62,97.1c.57-.18.84-.07.79.52-.04.46,0,.92-.06,1.38-.02.14-.21.26-.33.39-.13-.14-.37-.27-.39-.41-.04-.6-.02-1.2-.02-1.87Z"/>
      <path d="M72.16,26.55c-.44-.26-.81-.48-1.34-.79.58-.28,1-.49,1.53-.75-.07.57-.13,1-.19,1.53Z"/>
    </g>
  </g>
</svg>