<?xml version="1.0" encoding="UTF-8"?>
<svg id="Ebene_2" xmlns="http://www.w3.org/2000/svg" viewBox="0 0 150.29 168.44">
  <g id="Ebene_7">
    <g>
      <path d="M49.15,122.14c.09.64-.04,1.57.32,1.84.45.34,1.31.14,1.99.16,4.79.13,9.58.26,14.37.38.55.01,1.1,0,1.72,0v-2.09c-6-.28-12.03-.57-18.15-.86.12-.32.19-.56.3-.78,2.24-4.3,4.49-8.6,6.71-12.91.31-.6.66-.79,1.36-.78,3.29.05,6.58.01,9.86,0,.22,0,.45,0,.53,0-.08,1.42-.25,2.8-.2,4.18.2,6.15.44,12.31.71,18.46.03.77.22,1.55.47,2.29.1.32.52.54.69.7.34-1.36.65-2.58.99-3.93-.73-.53-.82-1.58-.54-2.58.12-.44.75-.96,1.21-1.02.38-.05,1.12.47,1.2.84.18.84.06,1.75.06,2.8,1.11.59,1.95,1.61,1.77,3.22,1.46-.31,1.57-.55,1.79-3.6.78,1.21,2.07.06,3.12.51.05.27.11.61.18,1.01h-2.58v2.32h5.02c-.08-.65-.2-1.28-.21-1.91-.01-.74-.47-1.43.03-2.23.33-.54-.65-1.65-1.35-1.66-1.39-.01-2.79,0-4.19,0-1.09-6.43-1.55-13.07-3.81-19.45.52,0,1.06,0,1.61,0,3.06.02,6.13.02,9.19.07.64,0,.96-.23,1.3-.77.65-1.05,1.45-1.99,2.16-3.01.37-.54.75-1.11.99-1.72.95-2.42,1.84-4.86,2.79-7.28.19-.5.27-.85-.08-1.33-1.44-1.95-2.27-4.14-2.57-6.56-.09-.7.05-1.17.71-1.39,1.07-.36,2.14-.81,3.25-.98,1.66-.26,3.36-.31,5.17-.47.57,2.23,1.03,4.54,1.77,6.74.69,2.04.34,3.66-.88,5.41-1.94,2.81-3.65,5.78-5.43,8.7-.13.22-.12.52-.16.79-.14.87.43,1.92-.69,2.54-.12.07-.08.43-.1.65-.07.68-.1,1.37-.22,2.04-.18,1.01-.46,1.98-1.63,2.59,3.26,6.86,6.5,13.69,9.79,20.62-3.06,0-5.95.02-8.84,0-14.48-.11-28.95-.23-43.43-.33-.72,0-1.13-.16-1.09-.95.06-1.15-.09-2.38.24-3.45.73-2.35,1.71-4.62,2.58-6.92.08.03.16.06.24.09ZM77.12,125h16.49v-1.79c-5.55-.18-11.03-.35-16.49-.53v2.31ZM56.11,131.69h6.35c-.16-1.07-.3-1.96-.42-2.85-.03-.25-.12-.67,0-.75,1.02-.67.27-1.49.33-2.3h-5.51c.08.77.16,1.47.24,2.18h2.55c.06.57.12,1.1.18,1.68-1.31.08-2.5.15-3.72.22v1.82ZM59.76,108.31c-1.59-.89-1.75-.84-2.35.65-.36.91-.74,1.8-1.07,2.72-.83,2.32-1.63,4.64-2.48,7.06.94.26,1.74.48,2.66.74,1.1-3.79,2.17-7.49,3.23-11.17ZM96.61,131.78c0-.58.07-1.02-.02-1.42-.18-.8-.25-1.73-.72-2.34-.48-.61-1.34-1.11-2.11-1.27-1.02-.21-2.11-.05-3.25-.05.04.61.08,1.24.12,1.91.94,0,1.78.06,2.62-.02.86-.07,1.19.29,1.18,1.17-1.54.14-3.08.28-4.69.42.04.69.07,1.28.11,1.97,2.32-.13,4.51-.25,6.77-.38ZM87.23,129.83c-1.33.07-2.6.11-3.85.23-.28.03-.72.26-.77.48-.11.5-.04,1.05-.04,1.46h6.59c-.08-1.19-.12-2.23-.25-3.25-.05-.36-.24-.83-.51-1-1.51-.91-3.17-1.07-4.89-.74,0,.28.02.51,0,.74-.1.95.32,1.26,1.25,1.16.73-.08,1.48-.02,2.27-.02.06.28.12.56.2.95ZM48.96,125.27c.05.84.09,1.38.12,1.94h3.87c.18,1,.39,2.04.56,3.09.22,1.33.2,1.34,1.77,1.17-.08-1.59-.14-3.21-.29-4.81-.02-.25-.44-.63-.71-.67-1.7-.27-3.41-.47-5.33-.72ZM63.43,109.06c-2.8,0-3.19.37-3.11,2.79.02.76.4,1.18,1.05,1.08,1.04-.16,2.08-.43,3.05-.84.91-.38,1.23-1.43.89-2.5-.27-.83-1.04-.4-1.58-.52-.09-.02-.19,0-.29,0ZM87.85,114.37q-1.51.69-1.32,2.14c.15,1.13.28,2.26.47,3.39.26,1.62.55,1.83,2.33,1.73.84-2.69-.78-4.86-1.47-7.25ZM75.81,110.82c.41,2.21.79,4.41,1.24,6.6.06.32.56.84.68.79.5-.18,1.04-.46,1.34-.87.2-.26.09-.83-.02-1.22-.44-1.53-.99-3.03-1.41-4.56-.25-.9-.72-1.14-1.83-.74ZM62.4,117.75s.02.08.04.11c.77-.22,1.59-.36,2.31-.7.77-.36.94-1.26.41-1.61-1.19-.79-2.49-1.28-3.95-1.19-.24.01-.57.07-.7.23-.9,1.14-.22,2.87,1.21,3.1.22.04.45.04.68.06ZM82.81,108.56c-.03.05-.06.1-.09.15-.36.03-.71.06-1.07.1-1.5.16-2.29,1.1-2.09,2.57.03.25.28.58.52.69,1.33.58,2.56.3,3.64-.6.77-.65.4-1.54.2-2.27-.08-.29-.72-.43-1.1-.63ZM81.17,115.47c.03,1.68.7,2.4,2.19,2.17.77-.12,1.56-.48,2.19-.94.82-.59.61-1.82-.35-2.04-1.02-.23-2.1-.19-3.16-.19-.67,0-1.01.37-.87,1ZM68.25,132.54c-.08-.44-.17-.72-.18-1.01-.03-1.05-.5-1.51-1.59-1.37-.34.04-.74-.16-1.08-.32-.68-.31-1.66-.08-2.09.52-.62.85-.31,2.13.55,2.16,1.42.06,2.84.02,4.39.02ZM52.92,130.73c-.07-.59-.09-1.02-.18-1.42-.04-.18-.24-.47-.36-.47-1.52.09-3.05.18-4.55.4-.18.03-.31.8-.34,1.24-.01.14.37.45.56.45,1.58-.03,3.17-.12,4.87-.2ZM66.86,126.29h-2.97c.08.73.16,1.39.24,2.08h2.96c-.08-.72-.15-1.36-.23-2.08ZM89.66,106.9c.91.14,1.29-.27,1.28-1.14,0-.72-.42-1.36-1.02-1.29-.47.06-1.06.74-1.2,1.25-.13.47-.17,1.45.93,1.18Z"/>
      <path d="M77.85,47.01c.85,2.71.92,5.51.94,8.31,0,.15-.08.42-.15.43-.92.12-.62.83-.65,1.35-.06,1.01-.03,2.02-.13,3.03-.08.81.17,1.29.97,1.51.46.13.88.39,1.52.68-4.61,3.29-9.06,6.47-13.59,9.7.38.6.7,1.11,1,1.57.18,0,.27.03.3,0,.95-.88,1.75-.52,2.74.08,4.14,2.53,8.34,4.96,12.51,7.43.47.28.95.56,1.51.88-.94,1.54-.76,3.15-.72,4.87.11,4.41.39,8.85-.63,13.4h-15.44c-.01-.2-.05-.54-.05-.88,0-3.75-.01-7.5.05-11.25.03-1.49-.49-2.57-1.75-3.35-1.63-1-3.24-2.04-4.77-3.02,1.17-3.38,4.34-4.24,7.15-5.63-.37-.66-.68-1.23-1-1.79-1.77-3.04-3.57-6.06-6.35-8.33-.25-.2-.33-.7-.35-1.07-.05-.91-.02-1.82-.02-2.82-.69-.13-1.38-.28-2.08-.39-1.57-.24-1.85-.56-1.84-2.17.01-1.7.04-3.39.05-5.09,0-1.59,0-1.59-1.65-2.12.71-1.18,1.4-2.34,2.1-3.49q1.28-2.08,3.58-1.26c3.48,1.25,3.61,1.52,3.32,5.17-.22,2.7-.31,5.4-.44,8.1-.05.92.42,1.65,1.24,1.9.85.27,1.79.31,2.7.34.29.01.59-.32.84-.47.81,1.93,2.53.62,4.05,1.23-.16-4.91-.3-9.57-.45-14.19-1.14-.28-1.48.02-1.41.97.22,3.22.38,6.44.57,9.66.03.48.05.97.07,1.5h-2.35v-12.57c2.55-.39,5.05-.8,7.56-1.13.76-.1,1.07-.42,1.07-1.14l-.03.03ZM73.83,78.65c-.41-.28-.79-.56-1.33-.93-.77,1.16-1.49,2.27-2.23,3.38-.85-.24-1.73-.5-2.56-.73-.92,1.92.33,2.43,1.65,2.79-.34,1.37-.64,2.63-.96,3.89-.15.59-.23,1.05.59,1.21.76.15,1.19.09,1.42-.77.29-1.12.74-2.2,1.14-3.38,1.07.47,2,.88,2.94,1.29-.71,1.91-1.38,3.7-2.08,5.55.8.28,1.49.52,2.22.77.65-1.68,1.28-3.26,1.93-4.93.74.48,1.35,1.18,1.99,1.2.55.02,1.14-.71,1.8-1.17-1.03-.84-1.86-1.51-2.75-2.24.53-1.03,1.03-2.05,1.58-3.04.7-1.27.69-1.39-.78-2.28-.99,1.33-1.98,2.68-3.01,4.06-.95-.42-1.91-.85-2.95-1.31.47-1.12.91-2.16,1.4-3.34ZM72.93,93.41c-.98,1.35-.91,1.43.15,2.15,2.55,1.74,5.43,1.95,8.48,1.94.03-.62.05-1.21.09-1.99-3.27.48-6.25.19-8.72-2.1ZM66.08,70.51c.12-.09.25-.17.36-.26,2.46-1.97,4.94-3.93,7.38-5.93.68-.56,1.37-.75,2.23-.71,1.43.05,1.57-.17,1.33-1.64h-3.8c-.26.7-.3,1.51-.69,1.76-2.76,1.77-4.95,4.09-6.81,6.79ZM77.43,57.99c-.05-1.9-.16-2.08-1.26-2.05-1.68.04-2.22.6-2.16,2.24.04,1.17.29,1.47,1.2,1.45,1.92-.05,2.27-.3,2.23-1.64ZM73.87,50.45c.1.57.16,1.04.27,1.5.51,2.19.96,2.4,3.09,1.49.03-.01.04-.05.12-.15-.21-1.04-.42-2.15-.67-3.38-.96.18-1.84.35-2.82.54ZM80.79,94.81c1.31-.01,1.9-.64,1.89-2.02-.01-1-.56-1.72-1.32-1.73-1.05-.01-1.93.6-1.92,1.35,0,1.68.42,2.41,1.35,2.4ZM60.37,51.59c1.3.02,2.24-.57,2.24-1.38,0-.99-1.19-1.84-2.6-1.86-.95-.02-1.01.63-1.02,1.32-.02,1.32.41,1.92,1.38,1.93ZM73.84,98.3c0-1.2-.54-1.87-1.51-1.88-.82,0-1.47.61-1.47,1.38.01,1.21.56,2.03,1.36,2.03,1.04,0,1.62-.55,1.62-1.53Z"/>
      <path d="M24.62,76.17c.78,2.51,1.52,4.85,2.24,7.2,6.05,19.57,12.1,39.15,18.15,58.72.1.31.17.63.29.93.35.89-.03,1.39-.84,1.76-1.47.67-2.01.46-2.49-1.1-6.51-21-13.01-41.99-19.51-62.99-.43-1.4-.87-2.8-1.3-4.19-.05-.16-.06-.33-.14-.46-.25-.4-.79-.53-.73-1.22.18-1.99-.36-4.04.64-5.95.64-1.22,3.31-1.5,3.84-.27.87,2.05,2.43,2.39,4.4,2.56,4.77.4,9.52,1,14.28,1.55.26.03.62.36.69.61.31,1.16.58,2.34.77,3.53.06.36-.08.83-.29,1.15-.82,1.22-1.75,2.36-2.54,3.59-.42.65-.79.72-1.5.46-4.9-1.85-9.81-3.66-14.73-5.47-.35-.13-.72-.23-1.23-.39Z"/>
      <path d="M65.95,157.16h-17.32c-.03-.06-.05-.12-.08-.18,3.06-1.82,6.12-3.63,9.24-5.48-.6-2.02-1.22-4.03-1.81-6.04-.74-2.54-1.37-5.09-1.27-7.77.08-2.27.07-2.26,2.26-2.19,2.44.08,4.89.13,7.33.24.28.01.75.24.8.45.45,1.68.85,3.38,1.21,5.09.07.33.06.78-.12,1.05-.9,1.39-.82,2.77-.12,4.2.18.36.18.83.17,1.25-.08,3.09-.19,6.19-.29,9.38Z"/>
      <path d="M87.44,135.97c1.41,0,2.68.03,3.94,0,2.28-.06,4.56-.12,6.83-.24.5-.03.77.04.96.53,1.51,3.85,3.03,7.69,4.56,11.53.05.12.14.27.11.37-.4,1.14.51,1.74,1.04,2.47,1.32,1.82,2.67,3.62,4.01,5.43.19.25.34.53.65,1h-11.63c0-1.42.05-2.94-.03-4.46-.03-.54-.27-1.12-.58-1.57-1.2-1.7-2.45-3.37-3.73-5.02-.25-.33-.68-.53-1.05-.74-.39-.22-.9-.3-1.22-.59-2.58-2.3-4.03-5.12-3.85-8.7Z"/>
      <path d="M150.2,26.26h-5.41v4.68h4.99v7.02c-.98.09-1.98.17-3.14.27v-4.35h-5.06v-10.26c1.66-.1,3.43-.21,5.32-.32V7.96h-7.56v5.19c-3.72.15-7.35.3-11.02.46v-6.89c.95.1,1.82.16,2.67.32.19.04.44.43.46.67.05.94.02,1.88.02,2.95,1.51-.08,2.96-.16,4.53-.24v-5.31h14.2v21.15Z"/>
      <path d="M139.04,164.82h7.78v-9.11c-1.76-.16-3.53-.32-5.32-.48v-2.99c1.77.11,3.41.22,5.13.32v-5.2h-3.86v-2.93h7.21c.01.21.04.52.05.84.04,6.16.14,12.32.06,18.48-.02,1.23-.67,2.47-1.08,3.68-.05.16-.41.3-.63.3-4.1.02-8.21.01-12.45.01-.13-2.65-.26-5.33-.39-8.12h3.2c.1,1.67.2,3.38.31,5.19Z"/>
      <path d="M9.2,25.02c1.4,4.55,2.75,9,4.13,13.44,2.82,9.07,5.63,18.15,8.49,27.21.26.82.09,1.19-.72,1.39-.72.17-1.43.42-2.25.67-.63-2.01-1.25-3.95-1.85-5.9-3.3-10.69-6.58-21.39-9.93-32.07-.46-1.47.03-2.7.56-3.93.17-.39.96-.51,1.58-.81Z"/>
      <path d="M70.54,72.03c1.88-1.34,3.52-2.51,5.46-3.89-.77,1.7.22,2.21,1.19,2.81,2.66,1.64,5.31,3.31,7.91,5.03.87.58,1.67.74,2.49.09.88-.7,1.8-1.4,2.5-2.26,1.1-1.36,2.02-2.85,3.02-4.29,2.73,1.34,4.19,3.44,4.28,6.49.03,1.2.27,2.39.43,3.59.2,1.58-.45,2.37-2.09,2.44-1.24.05-2.48.02-3.71.1-1.91.12-3.71.61-5.21,1.97-.26-1.01-.02-2.14.75-2.81,1.05-.91,2.13-1.85,3.34-2.51,1.33-.73,2.3-1.63,2.88-3.03.46-1.1,1.04-2.16,1.6-3.32-.56-.26-1.05-.49-1.67-.77-.91,1.54-1.81,3.07-2.74,4.59-.2.32-.41.68-.71.89-1.59,1.1-3.22,2.15-5.09,3.39-4.58-2.67-9.49-5.53-14.62-8.52ZM94.87,78.08c.05.92.06,1.86.17,2.79.03.22.43.54.67.55.71.02,1.17-.61,1.04-1.32-.09-.48-.26-.94-.36-1.41-.2-.95-.69-1.15-1.52-.61Z"/>
      <path d="M59.22,71.49c.31.74.65,1.47.92,2.23.07.19-.02.53-.16.69-1.38,1.51-2.79,2.99-4.23,4.52-.14-.21-.28-.44-.45-.7-.08,0-.18,0-.26.03-3.08,1.16-5.23,3.45-7.21,5.95-.42.54-.88,1.05-1.32,1.57-.41.49-.85.49-1.2-.03-.61-.92-1.21-1.85-1.74-2.82-.11-.21.02-.67.19-.88.69-.82,1.5-1.55,2.16-2.39,1.29-1.65,1.76-3.45.82-5.46-.39-.82-.7-1.67-1.1-2.63,3.47-1.9,6.92-3.79,10.56-5.79.88,1.65,1.76,3.3,2.63,4.94-3.24.24-6.31,1.07-9.24,2.75.78,1.13,1.5,2.17,2.21,3.21.92,1.36,1.08,1.39,2.57.42-.38-.89-.77-1.79-1.17-2.7,2.11-.7,4.08-1.34,6.02-1.98v-.93Z"/>
      <path d="M66.56,100.45h-10.02c-.3-1.28-.61-2.54-.88-3.8-.05-.25.04-.58.16-.82,1.56-3.25,3.14-6.49,4.74-9.78-.52-.39-1.08-.81-1.71-1.28.52-.67.98-1.25,1.51-1.93,1.8,1.19,3.6,2.34,5.35,3.57.87.61.86,1.65.86,2.59.03,3.49.03,6.97.03,10.46,0,.29-.03.58-.05.99ZM61.47,88.05c.02,1.83.28,2.17,1.58,2.16,1.52-.02,2.08-.55,2.05-1.94-.03-1.24-.87-1.86-2.47-1.84-.89,0-1.17.4-1.15,1.62ZM57.84,94.57c.04,1.69.15,1.81,1.55,1.77,1.26-.04,2.03-.77,2-1.9-.03-1.17-.6-1.7-1.79-1.66-1.5.05-1.79.35-1.76,1.78ZM60.26,97.44c0,1.23.18,1.54.94,1.44,1.37-.18,2.73-.44,4.21-.69-.11-.58-.21-1.1-.32-1.68-1.69.32-3.27.63-4.83.93Z"/>
      <path d="M26.01,165.26v-5.53c1.13.08,2.1.15,3.13.23v8.42c-7.14-.35-14.22-.69-21.39-1.03v-5.53h-3.33v-3.06h6.47v5.8c5.06.24,10.01.47,15.12.72Z"/>
      <path d="M77.88,46.98c-1.99.17-3.99.34-5.98.53-.84.08-1.68.23-2.52.34-1.48.18-2.26,1.01-2.28,2.51-.04,3.03-.06,6.06-.09,9.09,0,.39,0,.77,0,1.23h-1.54c.1-1.53.2-3.01.3-4.48.13-2.05.28-4.1.38-6.15.06-1.29-.44-1.97-1.66-2.43-1.63-.62-3.27-1.24-5.05-1.92,1.27-2.13,2.51-4.21,3.79-6.36,3.85,1.57,7.27,3.72,10.44,6.45.25-.28.47-.51.66-.75.2-.25.38-.51.59-.8-3.27-2.64-6.23-5.68-10.63-6.4.18-.68.32-1.24.5-1.91,3.36,1.18,6.51,2.67,9.09,5.13,1.76,1.68,3.14,3.65,3.97,5.96,0,0,.03-.03.03-.03ZM62.44,46.29c2.6.98,5.06,1.83,7.96.75-1.15-1.83-2.26-3.6-3.41-5.35-.08-.12-.56-.14-.72-.02-1.63,1.18-2.9,2.66-3.83,4.63Z"/>
      <path d="M34.09,4.96v5.23c1.34-.07,2.55-.13,3.83-.19v-3.34c1.01-.07,2-.14,3.12-.22.1,2.08.19,4.05.28,6.18-3.44.13-6.8.25-10.37.38v-5.17h-5.73v3.98c-1.11-.06-2.1-.11-3.22-.18v-6.67h12.07Z"/>
      <path d="M0,0c.22.76.44,1.51.66,2.27,1.48,5.02,2.98,10.03,4.44,15.05.54,1.87,1.01,3.77,1.44,5.67.11.46.04,1.03-.12,1.48-.88,2.52-1.81,5.02-2.73,7.52-.12.32-.25.63-.48.93C1.51,22.01-.01,11.11,0,0Z"/>
      <path d="M4.1,132.33h4.17v-5.11c-1.23.06-2.39.11-3.67.17v-3.04c2.17-.15,4.43-.3,6.88-.47v11.4h-4.2v4.32c.81.08,1.6.17,2.4.22.51.03.77.19.74.76-.04.68-.01,1.36-.01,2.2-2.16-.11-4.19-.21-6.31-.31v-10.14Z"/>
      <path d="M149.99,125.84h-4.53v7.4h4.5c.02.35.05.65.05.96,0,2.18-.04,4.36,0,6.55.02.8-.27,1.03-1.01,1.01-.71-.02-1.43.06-2.26.09v-5.65h-4.69v-13.26h7.94v2.9Z"/>
      <path d="M11.3,84.51c.11,3.75.22,7.32.33,11.05h-4.32c0,1.56-.02,2.98.03,4.39,0,.17.43.42.7.47.76.14,1.54.2,2.41.3-.06.75-.11,1.45-.18,2.31-2.05-.09-4.08-.18-6.19-.28v-10.03h4.11v-5c-1.27.07-2.42.13-3.67.19v-3.04c2.21-.12,4.43-.23,6.78-.36Z"/>
      <path d="M150.1,90.18h-4.71v5.35h-3.39v-8.21h4.69v-7.01h-3.98c-.05-.98-.09-1.9-.14-2.98h7.53v12.85Z"/>
      <path d="M124.52,163.1h-4.68v3.89c-1.08-.15-2.06-.28-3.11-.42v-6.33h10.84v4.97c1.86.14,3.57.27,5.41.41-.07.92-.13,1.78-.2,2.82-2.73-.15-5.43-.3-8.27-.46v-4.88Z"/>
      <path d="M142.21,42.47h8.07v8.84h-8.07v-8.84Z"/>
      <path d="M142.05,108.18v-8.39h8.11v8.39h-8.11Z"/>
      <path d="M142.23,55.16h8.05v8.28h-8.05v-8.28Z"/>
      <path d="M82.89,56.52c-.19.66-.36,1.28-.55,1.96-.72-.06-1.41-.12-2.08-.18.16-2.25.38-4.42.46-6.6.22-6-2.36-10.6-7.16-14.06-.08-.06-.14-.13-.21-.18,1.11-1.32.41-2.81.42-4.39.9.61,1.75,1.14,2.54,1.75.15.12.21.62.09.79-.3.42-.69.77-1.1,1.09-.83.66-.84.85.15,1.81.68-.85,1.36-1.68,2.14-2.65,3.2,4.08,5.73,8.47,6.39,13.87-.85.17-1.57.36-2.3.45-.61.08-.73.35-.64.92.09.54.18.96.88.84.6-.11,1.2-.17,1.93-.27-.28,1.14-.53,2.14-.81,3.27-.63-.47-1.21-.89-1.78-1.31-.86,1.16-.65,1.51,1.62,2.9Z"/>
      <path d="M79.46,159.85h8.12v8.22h-8.12v-8.22Z"/>
      <path d="M17.55,32.92c-.69-.76-1.35-1.56-2.08-2.29-2.23-2.23-4.5-4.44-6.73-6.67-.22-.22-.38-.54-.45-.84C6.68,16.21,4.07,9.63,1.37,3.08c-.05-.11-.04-.24-.06-.36.09-.04.17-.08.26-.12,5.46,10,10.91,20,16.37,29.99-.13.11-.26.22-.38.33Z"/>
      <path d="M64.07,160.45v7.79h-8.25v-7.79h8.25Z"/>
      <path d="M103.22,12.79V4.72h8.06v8.07h-8.06Z"/>
      <path d="M55.92,12.74v-7.9h8.17v7.9h-8.17Z"/>
      <path d="M4.13,78.5v-7.84h7.49v7.84h-7.49Z"/>
      <path d="M71.98,25.63c1.88.86,3.57,1.51,5.15,2.36,2.24,1.21,1.82.76,1.15,2.91-.24.77-.54,1.52-.87,2.47-3.66-3.23-8.03-3.93-12.72-3.94-.15-1.57-.29-3.07-.46-4.83,2,.22,3.83.39,5.65.65.25.04.6.45.64.72.1.69.02,1.41.07,2.12.02.24.15.62.32.68.21.08.67-.03.75-.2.26-.53.45-1.1.57-1.68.06-.28-.11-.61-.25-1.26Z"/>
      <path d="M11.06,57.21v7.95H3.92v-7.95h7.14Z"/>
      <path d="M4.05,146.52c2.5.11,4.87.21,7.31.32v7.3h-7.31v-7.62Z"/>
      <path d="M4.23,106.75h6.89v7.9h-6.89v-7.9Z"/>
      <path d="M81.48,38.01c1.67-.57,2.51-1.91,3.75-3.49.23.42.41.75.6,1.09,1.01,1.74,2.08,3.44,3.01,5.23.69,1.34.03,2.53-1.48,2.86-.63.14-1.29.14-1.95.2-.25,1.07.22,1.77,1.29,1.55.94-.19,1.81-.73,2.85-1.18.13,1.02.29,2.16.39,3.3.02.18-.19.51-.36.57-1.13.4-2.27.74-3.5,1.13-.59-4.18-2.29-7.83-4.61-11.25Z"/>
      <path d="M150.14,73.41h-8.02v-6.26h8.02v6.26Z"/>
      <path d="M11.28,4.97c2.19-.17,4.25-.33,6.41-.5v7.94h-5.88c-.17-2.37-.34-4.83-.53-7.44Z"/>
      <path d="M79.51,11.74v-6.91h6.77c-.16,2.5-.33,4.95-.49,7.5-2.08-.19-4.07-.38-6.28-.58Z"/>
      <path d="M111.68,142.7c5.82,3.81,11.29,8.06,16.3,12.89-.02.09-.04.18-.06.28-1.41,0-2.82.03-4.23-.03-.3-.01-.62-.32-.89-.54-3.82-3.16-6.86-7.03-10.04-10.79-.44-.52-.85-1.06-1.28-1.6.06-.07.12-.14.19-.22Z"/>
      <path d="M34.62,168.04v-6.88h6.23v6.88h-6.23Z"/>
      <path d="M150.11,117.63h-8.06v-5.24h8.06v5.24Z"/>
      <path d="M37.54,35.22c.81.51,1.66.97,2.43,1.54,3.94,2.92,7.56,6.17,10.74,9.91.67.79,1.24,1.67,1.78,2.56.16.27.07.69.1,1.03-.35-.04-.77.02-1.05-.15-.77-.48-1.54-.99-2.21-1.59-4.29-3.82-8.1-8.1-11.64-12.61-.12-.15-.2-.33-.3-.5.05-.07.11-.13.16-.2Z"/>
      <path d="M121.48,7.61h-4.1v-2.87h7.37c0,.62,0,1.32,0,2.02,0,1.82-.04,3.65-.01,5.47.01.7-.25.91-.91.87-.75-.04-1.49-.01-2.34-.01v-5.48Z"/>
      <path d="M119.16,34.57c-2.03-2.01-4.1-3.97-6.09-6.03-2.72-2.81-5.43-5.62-7.5-8.97-.24-.39-.25-.91-.37-1.37.46.14,1.03.15,1.37.43,1.29,1.04,2.6,2.08,3.73,3.28,3.24,3.45,6.06,7.23,8.53,11.27.23.38.41.78.62,1.17-.1.07-.2.15-.29.22Z"/>
      <path d="M79.3,102.61v2.14h-18.24v-1.72c.42,0,.8.02,1.18,0,3.48-.17,6.96-.34,10.43-.56.38-.02.75-.36,1.12-.55l-.07-.28c1.84.32,3.69.64,5.58.97Z"/>
      <path d="M121.36,135c.27.13.51.21.7.35,4.53,3.2,8.82,6.67,12.55,10.8,1.01,1.11.97,1.15-.01,2.67-.96-.62-2.02-1.13-2.88-1.87-3.98-3.41-7.25-7.46-10.31-11.68-.03-.04-.02-.11-.04-.27Z"/>
      <path d="M75.8,4.36v8.75c-1.05-.12-2.01-.22-3.06-.34v-5.11h-3.99v-2.87c2.31-.14,4.66-.29,7.05-.44Z"/>
      <path d="M53.46,88.77c-.11-.67-.16-1.16-.28-1.63-.45-1.8-.05-3.29,1.23-4.7,1.72-1.9,3.25-3.98,4.88-5.97.34-.42.74-.8,1.19-1.29.3,1.21.57,2.29.89,3.53-2.48,3.16-5.14,6.54-7.9,10.06Z"/>
      <path d="M48.9,7.62h-4.1v-2.93h7.14v8.09c-.95.05-1.94.1-3.04.16v-5.31Z"/>
      <path d="M68.65,160.02h7.1v7.95h-3.1v-5.02h-4v-2.93Z"/>
      <path d="M103.13,168.04v-7.92c.93.13,1.88.24,2.81.44.17.04.36.49.37.76.04,1.26.02,2.52.02,3.88h4.23c.06.99.11,1.89.16,2.84h-7.59Z"/>
      <path d="M99.29,12.76h-3.07v-5.11h-4.08v-2.89h7.16v8Z"/>
      <path d="M51.81,168.13h-3.07v-5.09h-4.03c-.04-.94-.08-1.84-.13-2.92h7.23v8.01Z"/>
      <path d="M136.78,52.09c-4.46-3.6-8.02-7.81-11.47-12.17.22.09.46.15.67.26,4.03,2.16,7.71,4.81,11.03,7.97.74.7.87,1.33.48,2.2-.24.52-.44,1.07-.72,1.75Z"/>
      <path d="M92.07,162.85v-2.87h7.21v7.9h-3.11v-5.02h-4.09Z"/>
      <path d="M87.43,154.9c-5.82-4.08-11.61-8.18-15.56-14.51,2.57.23,14.63,11.48,15.56,14.51Z"/>
      <path d="M3.9,46.15c.24-.03.39-.06.55-.06.81,0,1.62,0,2.58,0v4.83h4.06c.05.98.09,1.9.14,2.89H3.9v-7.65Z"/>
      <path d="M124.49,57.32c.59.32,1.19.61,1.76.97,4.11,2.59,8.02,5.45,11.36,9.02,1.3,1.38,1.31,1.52.36,3.41-4.82-4.15-9.52-8.37-13.68-13.14.07-.08.13-.17.2-.25Z"/>
      <path d="M136.68,97.54c-.48.44-.93.86-1.44,1.33-4.41-3.97-8.09-8.58-11.66-13.39,2.2.29,10.69,8.12,13.11,12.06Z"/>
      <path d="M100.5,60.35c3.92.86,14.24,10.54,15.83,14.76-1.44-.28-14.48-12.4-15.83-14.76Z"/>
      <path d="M87.29,65.55c-.49.36-1.05.64-1.44,1.08-1.32,1.47-2.58,3-3.94,4.6-1.02-.64-2.09-1.3-3.31-2.07,1.15-1.06,2.23-2.06,3.34-3.09-.34-.53-.67-1.04-1.03-1.6.54-.4,1.03-.83,1.59-1.14.21-.12.61-.04.85.08,1.32.69,2.62,1.43,3.92,2.16l.03-.02Z"/>
      <path d="M64.93,34.08v-3.43c2.16.02,4.26.33,6.25,1.18.31.13.6.55.68.89.33,1.31.56,2.65.84,4.01-2.69-.92-5.18-1.77-7.78-2.65Z"/>
      <path d="M87.27,65.57c1.38.84,2.77,1.69,4.1,2.49-1.45,2.25-2.84,4.41-4.3,6.65-1.04-.74-2.14-1.52-3.26-2.31,1.51-1.87,2.98-3.68,4.37-5.4-.36-.58-.63-1.02-.89-1.45,0,0-.02.02-.02.02Z"/>
      <path d="M124.04,101.78c-4.72-3.85-8.9-8.22-12.72-12.93,5.52,3.06,10.34,6.8,12.72,12.93Z"/>
      <path d="M50.35,23.95c4.34,2.78,7.5,6.62,10.54,10.99-.4-.12-.55-.13-.66-.2-3.58-2.5-7.07-5.12-10.02-8.38-1.01-1.11-.99-1.15.13-2.41Z"/>
      <path d="M40.06,94.63c3.4.94,11.83,8.32,13.47,11.73-2.07-.36-11.96-8.93-13.47-11.73Z"/>
      <path d="M24.71,145.33c-3.25-2.27-6.29-4.75-8.86-7.75-.97-1.13-.92-1.26.43-2.2,3.88,2.39,6.39,5.97,8.43,9.95Z"/>
      <path d="M46.27,65.4c-3.38-1.59-11.96-9.14-11.86-11.43,4.98,2.9,8.43,7.16,11.86,11.43Z"/>
      <path d="M90.15,49.96v5.92c-1.72-.11-3.41-.22-5.17-.34.36-1.44.66-2.67.99-3.89.06-.21.27-.46.47-.52,1.16-.4,2.34-.75,3.71-1.17Z"/>
      <path d="M111.29,119.89c-1.19-.76-2.43-1.46-3.55-2.31-1.91-1.45-3.74-3.02-5.62-4.5-.69-.54-.43-1.05-.09-1.6.39-.65.82-.16,1.15.02,3.57,1.9,6.13,4.83,8.32,8.13-.07.08-.14.17-.2.25Z"/>
      <path d="M79.97,29.65c1.38,1.25,2.63,2.37,3.88,3.49.44.4.4.79-.02,1.15-.76.65-1.55,1.28-2.33,1.92-.25.21-.48.44-.33.47-.81-.65-1.65-1.28-2.43-1.97-.16-.14-.26-.51-.2-.72.42-1.36.89-2.71,1.43-4.34Z"/>
      <path d="M91.03,30.48c4.95,2.65,8.83,6.04,11.66,10.86-2.1-.57-10.74-8.62-11.66-10.86Z"/>
      <path d="M39.94,156.63c-.24.11-.49.32-.69.29-.27-.04-.52-.26-.74-.45-2.77-2.24-5.02-4.92-6.73-8.03-.16-.29-.12-.7-.17-1.05.37.09.82.07,1.09.29,2.78,2.31,5.11,5.01,6.92,8.14.11.2.18.42.35.8Z"/>
      <path d="M83.96,58.92c.5-1.92.5-1.91,2.61-1.72,1.16.1,2.32.17,3.57.25,0,1.14.17,2.3-.08,3.36-.11.47-1.03.8-1.63,1.09-.17.08-.55-.13-.78-.29-1.2-.86-2.38-1.74-3.69-2.7Z"/>
      <path d="M115.36,50.61c-3.23-1.43-8.25-7.25-7.82-9.16,3.77,2.15,5.93,5.53,7.82,9.16Z"/>
      <path d="M16.43,106.21c4.09,1.88,6.42,5.41,8.52,9.16-3.42-2.5-6.56-5.27-8.52-9.16Z"/>
      <path d="M19.77,16.75c2.05-.05,8.03,5.93,8.75,8.6-3.39-2.43-6.64-4.8-8.75-8.6Z"/>
      <path d="M116.35,113.95c3.32,1.95,6.39,4.17,8.27,7.67l-.15.28c-.36-.13-.74-.2-1.06-.39-2.34-1.36-4.14-3.32-5.83-5.4-.51-.63-.96-1.29-1.44-1.94.07-.07.14-.14.22-.22Z"/>
      <path d="M29.99,58.61c-3.02-1.09-8.53-6.41-8.19-7.95,3.46,1.97,6.29,4.47,8.19,7.95Z"/>
      <path d="M33.97,19.1c3.5,1.91,6.46,4.33,8.1,8.07-3.55-1.84-6.03-4.76-8.1-8.07Z"/>
      <path d="M69.18,112.65c.01-1.35.61-2.03,1.81-2.03,1.21,0,1.82.63,1.83,1.89,0,1.37-.73,2.12-2.09,2.14-1.07.01-1.56-.62-1.55-2Z"/>
      <path d="M122.17,25.16c-2.94-1.68-5.14-3.95-6.8-6.89,2.41.47,6.4,4.5,6.8,6.89Z"/>
      <path d="M64.11,71.98c.77,1.18,1.5,2.31,2.31,3.56-1.17.51-2.23.97-3.5,1.53-.23-1.23-.48-2.32-.62-3.42-.03-.21.33-.5.56-.7.36-.32.76-.59,1.25-.96Z"/>
      <path d="M132.07,136.83c2.02,1.04,3.87,2.25,5.38,3.95.49.55.45,1.01.03,1.53-.5.61-.9.07-1.23-.18-1.86-1.38-3.04-3.32-4.18-5.3Z"/>
      <path d="M132.76,39.5c1.82.88,3.44,1.88,4.36,3.62.26.49-.02,1.27-.06,1.94-1.83-.4-3.96-3.21-4.3-5.56Z"/>
      <path d="M95.54,24.05c-2.6-1.51-4.32-3.62-5.5-6.35,2.18.46,5.62,4.4,5.5,6.35Z"/>
      <path d="M112.33,135.61c-2.73-1.09-4.86-2.81-6.11-5.5,2.85.94,4.71,2.97,6.11,5.5Z"/>
      <path d="M117.18,63.12c-.37.38-.68.7-.97,1-1.26-.65-3.85-3.72-4.9-5.84,2.34,1.28,4.41,2.59,5.88,4.84Z"/>
      <path d="M77.48,16.55c2.91,1.09,4.98,3,6.48,5.68-1.86-.15-5.89-3.68-6.48-5.68Z"/>
      <path d="M123.17,74.31c2.29.39,5.83,3.58,6.07,5.47-1.73-.22-5.06-3.22-6.07-5.47Z"/>
      <path d="M58.46,66.09c2.3,1.24,3.75,3.27,5.35,5.31-.57.46-1.08.88-1.57,1.28-1.28-2.24-2.53-4.42-3.78-6.59Z"/>
      <path d="M126.25,109.37c2.47,1.44,4.17,3.39,5.36,6.04-2.5-.74-5.17-3.77-5.36-6.04Z"/>
      <path d="M132.65,23.83c-1.58-1.85-3.17-3.69-4.75-5.54.08-.08.17-.16.25-.25,2.16,1,4.12,2.26,5.23,4.48.14.27-.21.79-.34,1.2-.13.03-.26.07-.39.1Z"/>
      <path d="M55.08,43.54c-2.69.44-5.46-1.35-6.43-4.16,2.42,1.07,4.51,2.4,6.43,4.16Z"/>
      <path d="M22.5,32.68c2.61,1.51,4.53,3.63,5.72,6.4-2.62-1.5-4.5-3.66-5.72-6.4Z"/>
      <path d="M72.76,117.91c0,1.1-.64,1.89-1.52,1.91-.94.01-1.52-.7-1.5-1.86.02-1.08.59-1.71,1.56-1.7.96,0,1.46.58,1.46,1.66Z"/>
      <path d="M20.85,125.93c2.57.57,5.04,3.12,5.25,5.33-1.44-.47-4.07-3.12-5.25-5.33Z"/>
      <path d="M21.2,154.7c-1.49-1-2.93-2-3.83-3.57-.38-.67-.41-1.21.5-1.59,1.76,1.27,2.95,2.94,3.32,5.16Z"/>
      <path d="M100.37,96.8c2.41,1.52,4.41,3.44,5.78,5.97-2.54-1.4-4.41-3.44-5.78-5.97Z"/>
      <path d="M73.13,123.25c0,1.01-.37,1.53-1.1,1.53-.78,0-1.28-.74-1.26-1.87.02-.94.47-1.54,1.16-1.51.72.03,1.2.76,1.2,1.85Z"/>
      <path d="M70.52,106.74c.48.2,1.32-.04,1.35.95.02.91-.68,2.03-1.29,2.07-.67.04-1.18-.59-1.22-1.48-.04-.91.4-1.52,1.17-1.54Z"/>
      <path d="M54.66,93.04c-.23-.68-.48-1.28-.63-1.91-.06-.26.01-.67.19-.85.99-.99,2.03-1.93,2.87-2.72-.72,1.62-1.55,3.49-2.43,5.47Z"/>
      <path d="M61.31,50.64c-.4-.04-.8-.09-1.19-.13.04-.25.08-.5.12-.75.39.12.79.25,1.18.37-.04.17-.07.34-.11.51Z"/>
      <path d="M66.07,43.8c.39.73.71,1.32,1.11,2.08-.84-.18-1.51-.32-2.35-.49.42-.54.78-1,1.23-1.59Z"/>
    </g>
  </g>
</svg>