<?xml version="1.0" encoding="UTF-8"?>
<svg id="Ebene_2" xmlns="http://www.w3.org/2000/svg" viewBox="0 0 161.88 161.81">
  <g id="Ebene_7">
    <g>
      <path d="M38.85,96.02c-.04-.45-.08-.83-.12-1.27h-2.98c-.03.45-.06.86-.09,1.41h-3.14v3.25h-2.43c0-1.92-.02-3.83.02-5.74,0-.24.27-.51.47-.72,9.54-9.49,19.11-18.95,28.64-28.45,6.94-6.92,13.84-13.88,20.75-20.83.25-.25.42-.58.66-.93,1.71,1.71,3.22,3.24,4.75,4.76,15.15,15.07,30.3,30.14,45.46,45.19.51.51.74,1,.72,1.72-.05,1.44-.02,2.87-.02,4.38-.32.04-.6.07-1,.11v-2.77h-3.47c-.07-.54-.13-.95-.19-1.38h-2.98c-.04.45-.07.83-.1,1.27h-16.09v-2.96h-2.88v-2.98h-3.16v2.99h-3.32v-2.92h-3.17v-3h-2.98c-.04-.57-.08-1.03-.12-1.56h-2.79c-.03.43-.06.82-.11,1.37h-22.77v3.18h-3.46v3.1h-3.51v2.82h-2.27c-.05-.34-.09-.68-.14-1.08h-2.71c-.04.36-.07.67-.1,1.02h-15.39ZM87.55,65.25c.06-.02.11-.04.17-.07,3.48,3.34,6.96,6.69,10.44,10.03.05-.04.09-.07.14-.11-1.59-3.21-3.18-6.42-4.85-9.8,3.06,1.85,5.91,3.57,8.76,5.3.04-.06.09-.13.13-.19-7.18-7.25-14.36-14.5-21.19-21.4-7.32,7.16-14.61,14.3-21.91,21.44.02.03.05.07.07.1,2.89-1.72,5.78-3.43,8.85-5.26-1.74,3.4-3.38,6.62-5.02,9.84.06.04.13.09.19.13,3.53-3.37,7.06-6.74,10.59-10.11.05.04.11.08.16.11-1.32,4.36-2.64,8.72-3.97,13.08.08.03.16.06.24.09,2.72-4.25,5.45-8.49,8.31-12.95.72,3.42,1.38,6.59,2.05,9.77.05,0,.1.02.16.02.66-3.24,1.33-6.49,2.04-9.97,2.84,4.5,5.54,8.79,8.24,13.07.07-.04.15-.07.22-.11-1.27-4.34-2.55-8.69-3.82-13.03Z"/>
      <path d="M137.65,132.41H23.89V30.37c.24-.01.5-.07.75-.04,3.58.42,7.02-.28,10.42-1.3.54-.16,1.19-.15,1.74-.03,7.39,1.61,14.78,3.25,22.16,4.88.49.11.97.25,1.45.52H27.83v94h105.81V34.43h-32.54c0-.06-.02-.13-.03-.19,2.05-.48,4.1-.97,6.16-1.43,5.93-1.31,11.85-2.64,17.79-3.88.83-.17,1.79-.02,2.63.19,3.06.78,6.15,1.27,9.32,1.02.2-.02.41.02.67.04v102.22Z"/>
      <path d="M34.14,10.11c6.29,3.28,12.58,6.56,18.87,9.85-.02.06-.05.12-.07.19h-7.12c8.16,4.5,16.23,9.11,24.06,14.13-.03.07-.06.15-.1.22-.74-.21-1.48-.41-2.22-.63-7.43-2.27-14.86-4.54-22.28-6.84-.55-.17-1.09-.49-1.53-.86-7.68-6.51-15.34-13.03-23.01-19.56-.11-.09-.23-.18-.52-.39,0,1.38-.02,2.61.02,3.83,0,.2.31.41.51.57,1.73,1.42,3.46,2.82,5.09,4.41-1.84-.74-3.68-1.47-5.66-2.27,0,1.44-.02,2.75.02,4.06,0,.22.27.52.5.64,1.26.69,2.52,1.39,3.82,1.98.49.22,1.12.27,1.66.19,2.82-.45,5.15.43,7.28,2.29,1.54,1.35,3.29,2.46,4.95,3.68-.02.07-.05.15-.07.22-.36-.03-.73-.03-1.08-.1-1.4-.3-2.77-.26-4.15.12-1.58.44-3.18.82-4.79,1.16-.43.09-.96.02-1.36-.16-2.11-.92-4.18-1.93-6.29-2.85-.53-.23-1.14-.36-1.72-.37-6.02-.11-12.04-.18-18.07-.26-.21,0-.41,0-.69,0V.09c.29,0,.6,0,.92,0,5.78.02,11.57.03,17.35.08,2.54.02,5.11.35,7.63.14,1.45-.12,2.39.42,3.42,1.11,3.82,2.58,7.64,5.16,11.46,7.75.17.11.33.24.5.36,0,.08-.02.17-.03.25h-7.26c-.02.11-.04.22-.06.34ZM2.52,2.54v18.64h15.45v-4.33H6.43V6.9h11.52V2.54H2.52ZM18,9.23h-9.27v5.33h9.23v-1.98h-6.82v-2.13h6.86v-1.23ZM35.94,15.11c-.21-.18-.32-.27-.42-.36-3.3-2.95-6.64-5.85-9.87-8.88-1.1-1.04-2.23-.71-3.42-.67,3.57,3.1,7.21,6.07,10.76,9.14.86.74,1.69,1.02,2.95.78Z"/>
      <path d="M91.59,34.3c7.97-5,16.18-9.59,24.43-14.17h-7.09c-.03-.05-.05-.1-.08-.16,6.26-3.23,12.53-6.46,18.79-9.69-.02-.06-.03-.13-.05-.19-2.41-.11-4.82-.22-7.41-.34.28-.24.43-.39.61-.51,4.34-2.83,8.69-5.64,13.01-8.49.55-.36,1.07-.32,1.67-.31,1.62.02,3.23-.07,4.85-.1,7.07-.12,14.14-.22,21.29-.34v23.34c-.37.02-.72.05-1.07.06-5.9.08-11.81.14-17.71.24-.52,0-1.06.15-1.54.35-2.19.88-4.36,1.82-6.55,2.7-.33.13-.76.16-1.11.09-2.22-.47-4.42-1.06-6.66-1.44-.94-.16-1.95.1-2.93.18-.49.04-.97.13-1.52.05.5-.36,1-.74,1.51-1.08,2.28-1.55,4.56-3.09,6.85-4.62.28-.18.68-.35.98-.3,3.33.56,6.31-.32,9.12-2.07.47-.29.67-.56.65-1.11-.04-1.19-.01-2.39-.01-3.69-2.29.98-4.5,1.93-6.7,2.87-.03-.06-.07-.12-.1-.18,1.99-1.61,3.96-3.26,6-4.82.61-.47.91-.93.84-1.71-.07-.8-.01-1.6-.01-2.63-.52.41-.91.7-1.3,1-7.78,6.11-15.33,12.48-22.75,19.03-.34.3-.79.55-1.23.68-7.84,2.45-15.69,4.89-23.54,7.32-.38.12-.77.18-1.15.26-.03-.07-.05-.15-.08-.22ZM143.89,21.15h15.45V2.59h-15.44v4.33h11.53v9.95h-11.54v4.28ZM153.11,9.24h-9.25v1.3h6.79v2.09h-6.81v1.92h9.27v-5.31ZM125.85,15c.04.11.09.22.13.32.67-.17,1.49-.14,1.98-.53,3.79-3.02,7.52-6.13,11.26-9.21.14-.12.26-.27.43-.45q-2.33-.14-3.95,1.27c-1.04.9-2.09,1.8-3.12,2.7-2.25,1.96-4.49,3.93-6.73,5.89Z"/>
      <path d="M80.81,153.6c.33-.52.61-.97.9-1.42,3.26-5.02,6.52-10.05,9.81-15.05.18-.27.63-.43.99-.52,1.97-.47,3.09.56,4.2,2.1,4.78,6.6,9.69,13.1,14.55,19.64.21.28.4.58.67.98h-62.54c.33-.49.59-.91.88-1.31,5.13-6.97,10.25-13.95,15.41-20.9.22-.29.71-.44,1.1-.53,2.23-.49,3.5.51,4.66,2.45,2.82,4.73,5.92,9.29,8.91,13.92.12.19.27.37.47.63ZM75.21,151.75c-2.46-3.98-4.79-7.77-7.18-11.64-4.29,5.38-8.52,10.67-12.78,16.01h50.64c-4.22-5.4-8.35-10.69-12.54-16.04-2.4,3.81-4.7,7.47-7.11,11.3h8.06c-.37-.54-.76-1.03-1.06-1.57-.3-.54-.7-.73-1.31-.69-.67.05-1.34.01-2.18.01,1.24-1.88,2.37-3.61,3.58-5.44,2.28,3.37,4.46,6.59,6.68,9.87h-38.55c2.12-3.23,4.14-6.31,6.25-9.52,1.22,1.96,2.31,3.72,3.5,5.63-1.82.04-3.63-.2-4.01,2.07h8.02Z"/>
      <path d="M30.14,42.26v-5.45h101.33v5.33c-1.67-.08-3.3-.15-4.94-.24-4.93-.27-9.87-.58-14.8-.82-16.56-.82-33.13-.28-49.69-.33-6.58-.02-13.16.5-19.74.82-4.03.19-8.06.46-12.16.69Z"/>
      <path d="M.24,160.93v-25.23c.31-.01.57-.03.84-.04,7.55-.03,15.09-.07,22.64-.08.31,0,.74.24.9.5,2.3,3.75,4.57,7.51,6.83,11.29.13.22.18.66.05.85-2.72,4.05-5.47,8.08-8.24,12.09-.17.24-.56.47-.86.47-7.28.09-14.55.14-21.83.2-.09,0-.17-.03-.32-.06ZM2.61,138.01v20.53h17.53v-3.81c-4.61-.12-9.17-.25-13.86-.38v-16.34h-3.68ZM22.58,158.11c2.26-3.35,4.35-6.49,6.48-9.6.37-.54.34-.91.01-1.43-1.8-2.9-3.58-5.8-5.33-8.73-.28-.48-.62-.54-1.1-.54-4.28.03-8.57.05-12.85.07-.32,0-.64,0-1.1,0v14.29c4.6.1,9.22.2,13.9.3v5.64Z"/>
      <path d="M161.66,135.71v25.27c-.41,0-.76,0-1.11,0-7.04-.08-14.08-.15-21.11-.26-.36,0-.86-.27-1.06-.57-2.62-3.83-5.18-7.69-7.78-11.53-.32-.47-.38-.84-.05-1.37,2.26-3.67,4.47-7.36,6.74-11.03.18-.29.62-.59.95-.59,7.7-.01,15.39.02,23.09.04.09,0,.18.03.34.05ZM141.78,158.48h17.54v-20.45h-3.8v16.31c-4.64.13-9.18.26-13.74.38v3.75ZM139.36,152.47c4.66-.1,9.26-.2,13.8-.3v-14.18c-.23-.06-.32-.1-.4-.1-4.59-.02-9.17-.05-13.76-.03-.27,0-.64.28-.8.53-1.85,2.97-3.68,5.96-5.47,8.97-.15.25-.14.75.01.99,1.99,3.06,4.02,6.1,6.04,9.14.14.21.31.4.57.75v-5.76Z"/>
      <path d="M75.18,34.45c-1.39.33-2.25-.22-3.15-1.05-4.09-3.74-8.32-7.33-12.38-11.1-2.28-2.12-4.3-4.51-6.45-6.76-4.67-4.9-9.35-9.8-14.03-14.7-.19-.19-.36-.4-.62-.68.27-.04.45-.09.63-.09,3.24,0,6.47-.02,9.71.02.33,0,.78.19.97.44,8.2,10.92,16.39,21.86,24.57,32.8.26.35.49.73.76,1.13Z"/>
      <path d="M123.15.04c-2.61,2.75-5.14,5.39-7.64,8.05-4.23,4.49-8.39,9.05-12.71,13.46-2.09,2.13-4.46,3.99-6.7,5.98-2.29,2.02-4.61,4.01-6.84,6.1-.79.74-1.6.94-2.71.74.41-.61.77-1.18,1.17-1.72,7.8-10.43,15.63-20.84,23.38-31.31.76-1.02,1.5-1.36,2.71-1.33,3.05.08,6.1.03,9.34.03Z"/>
      <path d="M.36,74.58c1.91,2.02,3.84,4.02,5.74,6.05,3.09,3.3,6.19,6.6,9.23,9.94.7.77,1.41,1.22,2.47,1.05.38-.06.77,0,1.23,0v16.31c-6.33.21-12.6.41-18.98.62.11-5.65.22-11.17.34-16.83h5.47c.71-3.48-.63-5.48-3.58-4.82v1.47c.92.22,2.58-.31,1.93,1.79H.59v-5.14c1.51,0,2.91-.02,4.31.02.2,0,.42.21.58.37q2.16,2.09,2.16,5.08c0,.35,0,.71,0,1.11h1.49v-2.21c1.43.86,2.11,2.9,4.27,2.1-1.22-1.33-2.42-2.64-3.62-3.95-3.11-3.4-6.28-6.76-9.29-10.25-.5-.57-.35-1.7-.5-2.58l.36-.12ZM2.3,106.31c4.85-.16,9.62-.32,14.44-.48v-11.84H2.71c-.14,4.13-.27,8.19-.4,12.32Z"/>
      <path d="M148.43,91.55c1.16.21,2.09.14,2.76-.85.33-.49.74-.93,1.12-1.39.09.06.18.12.27.18v2.07h1.61c0-1.08-.04-2.16.02-3.22.02-.4.22-.83.43-1.18,1.17-1.94,2.92-2.54,5.09-2.19.41.07.83,0,1.41,0v5.17h-3.57q-.17-1.52,1.98-1.84c.01-.22.04-.45.04-.68,0-.24-.02-.47-.03-.7-1.63-.41-2.63-.08-3.52,1.18-.1.14-.17.32-.17.49-.02.78-.01,1.56-.01,2.34,0,.2,0,.41,0,.74h5.58c.15,5.66.31,11.19.46,16.86-6.37-.21-12.67-.42-19.05-.62v-16.24c.28-.02.55-.09.79-.04,1.4.28,2.3-.39,3.21-1.39,4.65-5.05,9.36-10.03,14.06-15.03.2-.21.42-.4.74-.7.13,1.34.25,2.39-.73,3.42-3.71,3.92-7.31,7.92-10.95,11.9-.5.54-.98,1.1-1.52,1.72ZM145.13,105.82c4.88.17,9.66.33,14.53.5-.16-4.17-.32-8.25-.47-12.32h-14.05v11.83Z"/>
      <path d="M.23,28.53v-2.45c.22-.02.48-.05.73-.05,5.57.05,11.15.12,16.72.16.62,0,.9.12.89.84-.02,6.41,0,12.82,0,19.24,0,.21-.02.41-.03.77H.25v-14.52h11.65v8.75h-6.72v-2.37h4.21v-4H2.68v9.83h13.42v-16.19H.23Z"/>
      <path d="M18.58,111.61v21.06H.23v-2.3h15.92v-16.39H2.69v9.78h6.7v-3.89h-4.17v-2.34c2.12,0,4.21,0,6.3.02.14,0,.41.28.41.44.03,2.72.02,5.44.02,8.23H.32v-14.6h18.26Z"/>
      <path d="M143.37,111.59h18.19v14.62h-11.45v-8.74h6.52v2.33h-4.08v3.96h6.63v-9.77h-13.4v16.34h15.81v2.35h-18.22v-21.09Z"/>
      <path d="M159.21,44.71v-9.82h-6.71v3.93h4.2v2.44h-6.61v-8.77h11.54v14.6h-18.29v-20.9h18.24v2.35h-15.87v16.17h13.5Z"/>
      <path d="M68.17,50.66c-12.63,12.39-25.26,24.78-38.03,37.32-.03-.43-.05-.65-.05-.87,0-2.55-.02-5.1.01-7.64,0-.36.18-.85.45-1.05,12.43-9.29,24.87-18.55,37.32-27.82.05-.04.1-.06.15-.09.05.05.1.1.15.15Z"/>
      <path d="M93.91,50.76c.93.68,1.86,1.34,2.78,2.03,11.41,8.54,22.83,17.09,34.22,25.65.29.22.6.64.6.98.05,2.76.03,5.51-.16,8.43-12.54-12.29-25.09-24.59-37.63-36.88.06-.07.12-.14.18-.21Z"/>
      <path d="M104.95.17c-.76,2.26-20.68,34.1-21.66,34.44.12-.49.19-.92.34-1.32,2.57-7.01,5.15-14.02,7.72-21.03,1.41-3.84,2.8-7.69,4.23-11.52.1-.26.45-.6.69-.6,2.84-.05,5.69-.04,8.54-.04.05,0,.09.05.14.08Z"/>
      <path d="M78.09,34.68c-.27-.3-.59-.57-.8-.9-2.81-4.49-5.62-8.98-8.41-13.49-3.9-6.31-7.78-12.64-11.67-18.96-.22-.35-.42-.72-.68-1.18.31-.03.53-.06.75-.06,2.58,0,5.15.03,7.73,0,.61,0,.9.16,1.11.75,3.91,10.7,7.85,21.39,11.78,32.08.19.52.34,1.05.51,1.57l-.31.19Z"/>
      <path d="M76.43.1h8.4c-.86,11.55-1.8,23.06-3.77,34.55-.83-.69-4.7-30.24-4.63-34.55Z"/>
      <path d="M131.55,63.89c-12.58-6.14-25.01-12.31-37.08-19.23,2.36.74,4.71,1.48,7.07,2.23,9.72,3.08,19.43,6.16,29.15,9.21.66.21.89.48.88,1.17-.05,2.15-.02,4.31-.02,6.63Z"/>
      <path d="M67.08,44.99c-12.26,6.26-24.52,12.53-37.01,18.9,0-2.63-.02-4.93.03-7.23,0-.2.37-.48.63-.57,6.63-2.13,13.27-4.24,19.91-6.34,5.27-1.67,10.55-3.31,15.82-4.97.16-.05.33-.09.5-.13.04.11.08.22.12.33Z"/>
      <path d="M131.79,160.54c-1.71.44-1.69.43-2.68-.89-5.41-7.28-10.82-14.56-16.23-21.84-.23-.31-.44-.63-.71-1.01h7.99c-.5.86-.91,1.57-1.34,2.31.46.74.93,1.49,1.45,2.31.74-1.23,1.5-2.34,2.09-3.54.42-.84.96-1.13,1.83-.98.23.04.47.03.86.05-.28.5-.51.93-.77,1.36-.87,1.46-1.74,2.93-2.64,4.38-.27.43-.34.76.01,1.18.36.43.63.94,1.02,1.54.53-.92,1.02-1.76,1.51-2.6.94-1.63,1.94-3.23,2.81-4.9.42-.81.93-1.16,1.82-1,.29.05.59,0,1.01,0-.15.31-.23.52-.34.71-1.82,2.99-3.64,5.98-5.48,8.96-.28.46-.31.78,0,1.27,2.48,3.96,4.92,7.94,7.36,11.91.15.25.28.51.42.78Z"/>
      <path d="M41.41,141.5c.47-.81.91-1.48,1.26-2.2.09-.18-.02-.51-.13-.72-.3-.57-.65-1.12-1.11-1.88h8.13c-.21.3-.43.64-.67.96-5.58,7.53-11.17,15.05-16.71,22.61-.66.9-1.33.27-2.15.41.2-.39.32-.68.48-.94,2.41-3.89,4.8-7.8,7.25-11.66.47-.74.48-1.24-.01-1.96-1.83-2.66-3.59-5.38-5.37-8.07-.21-.32-.41-.64-.72-1.14.76,0,1.35-.07,1.92.03.29.05.61.32.79.59,1.48,2.25,2.93,4.52,4.38,6.79.17.27.35.54.6.92.27-.47.44-.85.69-1.17.36-.47.36-.87.03-1.37-1.01-1.59-1.98-3.21-2.96-4.82-.17-.28-.33-.55-.55-.92.52-.05.96-.17,1.38-.11.35.05.81.23.98.51.84,1.31,1.61,2.66,2.49,4.15Z"/>
      <path d="M99.63,135.97c.8,0,1.45-.05,2.09.02.24.03.51.28.67.5.59.79,1.17,1.6,1.71,2.42.26.4.52.54,1.03.44,1.08-.22,2.21-.25,3.27-.53,1-.26,1.67-.08,2.11.87.11.24.28.45.48.77-1.76.24-3.43.47-5.24.72.6.82,1.09,1.56,1.66,2.23.16.19.56.3.84.27,1.19-.13,2.39-.25,3.55-.51.88-.2,1.43,0,1.8.81.12.26.31.5.53.84-1.79.25-3.47.49-5.14.72.02.11.01.17.03.22.85,1.93,2.2,2.71,4.29,1.95.41-.15.88-.14,1.33-.21,1.6-.24,1.91-.05,2.53,1.62-1.72.23-3.42.45-5.29.7.66.93,1.21,1.76,1.84,2.54.14.17.53.22.79.19,1.04-.1,2.08-.24,3.12-.39,1.85-.27,1.85-.27,2.84,1.63-1.74.23-3.43.45-5.29.7.87,1.28,1.67,2.48,2.52,3.64.11.16.47.21.71.19,1.22-.11,2.44-.26,3.66-.4q1.85-.22,2.75,1.66c-1.88.21-3.74.42-5.7.64.28.5.51.93.75,1.37-1.58.46-2.11.26-2.99-.99-5.54-7.92-11.1-15.84-16.65-23.75-.17-.24-.32-.48-.58-.87Z"/>
      <path d="M41.51,153.84c0-.15-.01-.18,0-.21.58-1.21,1.32-1.95,2.85-1.48.9.28,1.9.23,2.84.39.63.1,1.07.01,1.42-.59.39-.69.89-1.33,1.43-2.12-1.85-.24-3.55-.46-5.42-.7.38-.59.67-1.13,1.06-1.58.14-.16.54-.18.81-.15,1.43.16,2.85.38,4.27.53.26.03.65-.1.81-.3.51-.61.95-1.29,1.52-2.09-1.81-.24-3.47-.46-5.3-.71.42-.59.75-1.11,1.13-1.58.1-.12.37-.18.55-.15,1.39.17,2.79.34,4.17.58.5.09.78-.02,1.04-.42.44-.67.91-1.31,1.47-2.1-1.82-.23-3.49-.45-5.16-.66.47-1.53.98-1.86,2.45-1.65,1.13.16,2.25.34,3.38.41.33.02.78-.21,1-.47.52-.61.99-1.28,1.38-1.99.37-.66.83-.95,1.59-.83.4.07.83.01,1.38.01-.18.3-.29.5-.41.68-5.72,8.16-11.45,16.31-17.16,24.48-.31.44-.62.67-1.17.61-.44-.05-.9,0-1.51,0,.32-.54.58-.98.91-1.53-1.94-.2-3.79-.4-5.82-.61.43-.61.73-1.15,1.14-1.59.17-.18.59-.2.89-.17,1.43.13,2.86.29,4.28.47.54.07.88-.06,1.19-.53.69-1.08,1.44-2.11,2.25-3.29-1.84-.23-3.55-.44-5.28-.65Z"/>
      <path d="M131.54,74.77c-8.88-6.6-17.58-13.05-26.27-19.5.04-.07.08-.13.12-.2.93.44,1.86.88,2.79,1.33,7.54,3.64,15.08,7.29,22.62,10.92.52.25.76.53.75,1.15-.04,2.03-.02,4.05-.02,6.3Z"/>
      <path d="M30.07,74.63c0-2.32-.02-4.45.02-6.57,0-.27.29-.65.54-.77,8.4-4.07,16.81-8.11,25.22-12.15.18-.09.37-.13.62-.07-8.74,6.48-17.49,12.96-26.41,19.57Z"/>
      <path d="M131.49,45.98v6.68c-9.4-2.93-18.75-5.86-28.11-8.78,0-.03.01-.07.02-.1,9.34.73,18.69,1.46,28.09,2.2Z"/>
      <path d="M104.39,101.22v1.77h-47.22v-1.77h47.22Z"/>
      <path d="M30.12,52.56v-6.55c9.38-.78,18.76-1.56,28.13-2.35,0,.02.02.05.03.07-9.35,2.93-18.71,5.86-28.16,8.82Z"/>
      <path d="M59.46,99.74v-1.92h42.2v1.92h-42.2Z"/>
      <path d="M100.39,124.77v1.81h-38.92v-1.81h38.92Z"/>
      <path d="M19.37,75.97c-1.75,0-3.4.03-5.04-.03-.27-.01-.61-.4-.78-.69-4.13-7.25-8.25-14.51-12.36-21.77-.55-.97-1.38-1.85-.98-3.12,1.51-.32,1.59-.28,2.33,1.02,4.19,7.33,8.38,14.65,12.55,21.99.33.58.68.81,1.35.73.68-.08,1.38.02,2.06-.04.75-.06,1.05.22.94.97-.04.29-.04.59-.06.96Z"/>
      <path d="M98.42,94.57v1.84h-36.27v-1.84h36.27Z"/>
      <path d="M161.85,50.38c-.19.69-.26,1.42-.58,2-4.33,7.66-8.7,15.29-13.03,22.94-.28.49-.57.65-1.12.64-1.55-.04-3.1-.01-4.72-.01v-1.85c1.03,0,2.07-.04,3.1.01.59.03.9-.16,1.19-.68,4.17-7.33,8.39-14.64,12.53-21.99.59-1.05,1.23-1.42,2.63-1.05Z"/>
      <path d="M72.78,136.62c.32-.03.41-.04.5-.04,1.11,0,2.41-.34,3.26.13.85.47,1.26,1.75,1.85,2.68.75,1.18,1.48,2.38,2.29,3.68.72-1.06,1.38-2.03,2.03-3,.25-.37.5-.74.76-1.11,1.86-2.71,1.99-2.77,5.53-2.28-2.73,3.86-5.43,7.66-8.17,11.54-2.7-3.88-5.33-7.67-8.06-11.59Z"/>
      <path d="M64.63,123.22v-1.68h32.33v1.68h-32.33Z"/>
      <path d="M27.33,137.09c.8-.06,1.48-.14,2.15-.14.21,0,.49.21.61.41,1.92,3.17,3.83,6.35,5.71,9.55.12.21.08.63-.05.84-2.46,3.96-5.01,7.88-7.4,11.88-.71,1.19-1.46,1.7-2.9,1.23.16-.27.31-.57.49-.86,2.47-3.92,4.94-7.85,7.43-11.76.3-.47.31-.79.01-1.27-1.74-2.76-3.45-5.53-5.16-8.31-.29-.48-.55-.97-.9-1.58Z"/>
      <path d="M136.51,161.02c-.72,0-1.26.05-1.78-.02-.24-.03-.54-.24-.68-.46-2.68-4.22-5.34-8.44-7.97-12.69-.17-.27-.16-.81,0-1.09,1.74-3,3.55-5.96,5.27-8.97.41-.73.87-.96,1.64-.82.41.07.82.07,1.39.11-1.11,1.86-2.14,3.6-3.19,5.33-.93,1.54-1.85,3.08-2.83,4.58-.31.47-.25.76.02,1.19,2.68,4.21,5.34,8.44,8.12,12.85Z"/>
      <path d="M68.06,119.92c-.03-.61-.05-1.17-.08-1.81h25.55v1.81h-25.46Z"/>
      <path d="M87.23,109.65v-1.76h23.94v1.76h-23.94Z"/>
      <path d="M90.11,113.07v-1.79h23.75v1.79h-23.75Z"/>
      <path d="M65.6,92.87v-1.31c9.96-.12,19.91-.25,29.91-.37v1.68h-29.91Z"/>
      <path d="M47.6,113.07v-1.79h23.68v1.79h-23.68Z"/>
      <path d="M73.91,107.93v1.76h-23.38v-1.76h23.38Z"/>
      <path d="M152.66,49.57c-3.43,5.51-6.77,10.89-10.12,16.28-.08-.03-.16-.07-.24-.1.1-2.02-.35-4.03.94-5.99,2.01-3.07,3.72-6.34,5.61-9.49.2-.33.71-.61,1.1-.66.82-.1,1.67-.03,2.71-.03Z"/>
      <path d="M125.72,124.75v1.8h-22.7v-1.8h22.7Z"/>
      <path d="M35.93,126.59v-1.83h22.61v1.83h-22.61Z"/>
      <path d="M9.13,49.56c1.12,0,2.01-.04,2.9.02.27.02.63.23.77.46,2.18,3.74,4.33,7.51,6.48,11.27.12.2.21.45.21.67.02,1.25,0,2.49,0,3.74l-.25.1c-3.34-5.37-6.69-10.75-10.13-16.27Z"/>
      <path d="M108.01,104.65v1.63h-23.62c-.02-.52-.05-1.05-.07-1.63h23.69Z"/>
      <path d="M77.02,104.7v1.6h-23.78v-1.6h23.78Z"/>
      <path d="M61.59,121.46v1.73h-22.23v-1.73h22.23Z"/>
      <path d="M96.72,119.85v-1.76h22.79v1.76h-22.79Z"/>
      <path d="M64.8,118.08v1.77h-23.23v-1.77h23.23Z"/>
      <path d="M13.28,65.35c-3.07-5.41-6.04-10.64-9.08-16,.78,0,1.41-.04,2.02.02.24.03.55.24.68.45,2.6,4.09,5.18,8.18,7.74,12.3.15.24.15.7.02.96-.38.74-.85,1.43-1.38,2.28Z"/>
      <path d="M44.74,116.41v-1.7h23.08v1.7h-23.08Z"/>
      <path d="M99.95,123.21v-1.68h23.1v1.68h-23.1Z"/>
      <path d="M116.61,114.7v1.7h-22.95v-1.7h22.95Z"/>
      <path d="M148.45,65.3c-.14-.16-.18-.2-.22-.25q-1.51-2.31-.03-4.64c2.21-3.49,4.41-6.98,6.66-10.44.2-.3.67-.51,1.05-.59.49-.1,1.01-.02,1.69-.02-3.07,5.36-6.08,10.6-9.15,15.95Z"/>
      <path d="M90.61,114.7v1.73h-19.71v-1.73h19.71Z"/>
      <path d="M68.96,89.84c.02-.37.04-.78.06-1.29,7.81-.1,15.55-.21,23.36-.31v1.6h-23.42Z"/>
      <path d="M130.94,100.82v1.79h-17.57v-1.79h17.57Z"/>
      <path d="M151.91,78.09c-.38-1.82-1.46-3.47.04-4.97.96,1.67,1.97,3.41,2.93,5.18.11.19,0,.6-.15.82-.56.84-1.37,1.01-2.37.99-2.99-.06-5.98,0-8.98,0-.32,0-.64,0-1.01,0v-2.02h9.54Z"/>
      <path d="M161.7,56.65c0,1.56.02,2.95-.02,4.34,0,.24-.21.49-.35.71-2.16,3.48-4.32,6.95-6.55,10.53-.34-.67-.68-1.28-.96-1.92-.07-.17-.02-.46.08-.64,2.49-4.25,4.99-8.5,7.49-12.75.03-.05.08-.08.31-.27Z"/>
      <path d="M9.85,73.21c1.53,1.47.43,3.14.11,4.85h9.43v1.99c-.33.02-.62.04-.91.04-3.24,0-6.47-.05-9.71,0-1.02.02-1.33-.77-1.87-1.3-.08-.08.06-.43.17-.62.92-1.67,1.86-3.33,2.78-4.97Z"/>
      <path d="M.27,56.69c.38.61.75,1.17,1.09,1.75,2.15,3.65,4.31,7.31,6.42,10.98.18.31.12.83,0,1.21-.17.53-.49,1-.78,1.56-1.48-2.38-2.93-4.7-4.38-7.03-.19-.3-.34-.64-.57-.91-1.85-2.17-2.36-4.68-1.8-7.56Z"/>
      <path d="M50.87,97.61v1.84h-15.21v-1.84h15.21Z"/>
      <path d="M87.96,111.33v1.74h-14.41v-1.74h14.41Z"/>
      <path d="M127.39,97.62v1.52h-16.6v-1.52h16.6Z"/>
      <path d="M48.29,100.93v1.63h-15.99v-1.63h15.99Z"/>
      <path d="M117.31,105.96v-1.75h14.09v1.75h-14.09Z"/>
      <path d="M44.32,105.97h-14.09v-1.75h14.09v1.75Z"/>
      <path d="M9.78,82.07c1,0,1.71-.05,2.41.02.28.03.59.26.79.48,1.25,1.37,2.48,2.75,3.69,4.15.74.85,1.37,1.85,2.8,1.46v1.94c-1.35-.02-2.55,0-3.56-1.26-1.58-1.98-3.41-3.76-5.13-5.63-.28-.3-.54-.62-1-1.16Z"/>
      <path d="M142.37,90.14v-1.96c1.44.44,2.03-.65,2.77-1.46,1.26-1.4,2.5-2.82,3.78-4.2.21-.23.58-.39.89-.42.64-.06,1.3-.02,2.23-.02-.48.56-.76.92-1.07,1.26-1.9,2.07-3.8,4.14-5.73,6.17-.25.26-.69.41-1.07.48-.55.11-1.13.1-1.8.15Z"/>
      <path d="M131.43,107.61v1.75h-11.96v-1.75h11.96Z"/>
      <path d="M30.18,109.37v-1.73h11.8v1.73h-11.8Z"/>
      <path d="M.34,66.95c1.73,2.47,3.47,4.94,5.16,7.44.17.25.09.72,0,1.07-.09.4-.3.77-.52,1.28-.31-.29-.57-.5-.8-.76-1.23-1.39-2.46-2.78-3.68-4.18-.18-.21-.37-.5-.38-.76-.04-1.34-.02-2.68-.02-4.01l.23-.07Z"/>
      <path d="M161.73,67.15c0,1.3,0,2.61,0,3.91,0,.17-.06.37-.17.49-1.51,1.73-3.03,3.44-4.57,5.19q-1.13-1.62-.13-3.04c1.54-2.2,3.08-4.39,4.63-6.59.08.01.17.03.25.04Z"/>
      <path d="M131.42,112.8h-8.58v-1.89c1.12,0,2.22,0,3.32,0,1.41,0,2.82.06,4.22-.04.95-.06,1.25.27,1.1,1.15-.04.23-.04.47-.06.77Z"/>
      <path d="M38.82,111.02v1.77h-8.6v-1.77h8.6Z"/>
      <path d="M87.52,11.26c.2-3.66.4-7.32.6-11.06h2.86c-1.12,3.72-2.22,7.41-3.33,11.1-.04-.01-.09-.02-.13-.03Z"/>
      <path d="M142.22,71.61v-1.95c.33,0,.66-.05.96,0,1.05.22,1.51-.44,1.9-1.22.07-.14.11-.39.03-.48-.7-.85-.27-1.54.29-2.22.17-.2.3-.43.52-.75.55,1.03,1.07,1.96,1.55,2.91.07.14.01.4-.07.56-.19.37-.43.72-.65,1.07q-1.53,2.39-4.53,2.07Z"/>
      <path d="M15.86,64.98c.41.61.81,1.1,1.06,1.66.12.26.03.69-.1.98-.36.82.33,2.01,1.25,2.05.44.02.89,0,1.4,0v2.04c-.92,0-1.84.02-2.76-.02-.19,0-.43-.19-.54-.36-.58-.87-1.15-1.75-1.66-2.66-.13-.24-.17-.64-.06-.88.41-.92.9-1.8,1.41-2.8Z"/>
      <path d="M76.33,109.89v-1.66h8.72v1.66h-8.72Z"/>
      <path d="M73.68,10.26c-1.04-3.32-2.07-6.64-3.14-10.06h2.42c.3,3.34.6,6.68.9,10.03-.06.01-.12.02-.18.04Z"/>
      <path d="M142.41,49.92c1.27-.06,2.45-.11,3.78-.17-1.25,2.19-2.43,4.27-3.61,6.35-.05-.02-.11-.04-.16-.06v-6.11Z"/>
      <path d="M19.13,56.07c-1.18-2.07-2.35-4.15-3.61-6.37,1.35.07,2.53.13,3.76.2v6.09c-.05.03-.1.05-.15.08Z"/>
      <path d="M125.37,116.17v-1.78h6.07v1.78h-6.07Z"/>
      <path d="M142.33,85.91v-3.71h4.47c-.25.3-.46.55-.67.8-.68.79-1.37,1.58-2.04,2.38q-.62.73-1.76.53Z"/>
      <path d="M14.94,82.12c1.48,0,2.75-.02,4.02.02.18,0,.51.32.51.5.05,1.04.02,2.08.02,3.1-.78.45-1.32.26-1.84-.42-.82-1.06-1.73-2.04-2.72-3.2Z"/>
      <path d="M36.18,116.18h-5.97v-1.73h5.97v1.73Z"/>
      <path d="M131.42,117.89v1.84h-3.13v-1.84h3.13Z"/>
      <path d="M104.84,94.21v1.86h-3.16v-1.86h3.16Z"/>
      <path d="M116.39,112.94v-2.02h2.9v2.02h-2.9Z"/>
      <path d="M33.33,117.92v1.8h-3.09v-1.8h3.09Z"/>
      <path d="M107.4,99.49h-2.73v-2.02h2.73v2.02Z"/>
      <path d="M45.09,110.95v2h-2.62v-2h2.62Z"/>
      <path d="M82.2,104.74v1.94h-2.55v-1.94h2.55Z"/>
      <path d="M114.05,106.17h-2.54c-.03-.64-.06-1.25-.09-1.9h2.64v1.9Z"/>
      <path d="M32.98,124.92v1.69h-2.83v-1.69h2.83Z"/>
      <path d="M128.76,124.92h2.7v1.66h-2.7v-1.66Z"/>
      <path d="M53.94,99.53v-1.88h2.25v1.88h-2.25Z"/>
      <path d="M36.18,121.41v1.77h-2.4c-.05-.57-.11-1.15-.17-1.77h2.57Z"/>
      <path d="M122.32,114.53c-.03.58-.05,1.08-.07,1.61h-2.58v-1.61h2.66Z"/>
      <path d="M109.78,102.86h-1.93v-2.04h1.93v2.04Z"/>
      <path d="M123.23,119.8v-2.23h1.62v2.23h-1.62Z"/>
      <path d="M41.77,114.48v1.56h-2.46c-.02-.49-.05-1-.07-1.56h2.53Z"/>
      <path d="M36.64,117.54h1.71v2.26h-1.58c-.04-.71-.08-1.44-.13-2.26Z"/>
      <path d="M47.99,104.42h2.23v1.73h-2.07c-.05-.57-.1-1.12-.16-1.73Z"/>
      <path d="M128.05,121.41c-.04.62-.08,1.17-.11,1.78h-1.86v-1.78h1.98Z"/>
      <path d="M158.41,83.25c.9-.94,1.65-1.72,2.56-2.67v2.67h-2.56Z"/>
      <path d="M44.96,109.35v-1.52h2.25v1.52h-2.25Z"/>
      <path d="M114.2,107.77h2.25v1.52h-2.14c-.03-.45-.07-.93-.11-1.52Z"/>
      <path d="M.86,80.69c.87.93,1.6,1.7,2.47,2.63H.86v-2.63Z"/>
      <path d="M51.62,101.14h1.28v1.92h-1.28v-1.92Z"/>
      <path d="M80.64,138.65c-.33-.75-.6-1.35-.91-2.03h2.27c-.47.69-.87,1.3-1.36,2.03Z"/>
      <path d="M30.12,123.19c0-.55-.03-1.02.02-1.49.01-.14.22-.26.34-.39.13.12.33.23.37.38.24.94.02,1.44-.72,1.51Z"/>
      <path d="M130.85,123.19c0-.5-.02-.99.01-1.49.01-.15.2-.28.31-.42.12.13.33.24.35.39.05.38.07.78,0,1.15-.04.19-.3.33-.46.5-.07-.04-.14-.08-.21-.12Z"/>
      <path d="M10.8,149.95v-10.02c.26-.02.55-.06.83-.06,3.56-.03,7.13-.05,10.69-.1.51,0,.81.14,1.07.59,1.15,1.99,2.33,3.97,3.52,5.94.24.39.26.65-.04,1.02-.66.85-1.24,1.76-1.89,2.62-.17.22-.51.44-.77.43-4.4-.09-8.8-.21-13.2-.33-.05,0-.11-.04-.21-.09ZM24.35,146.47c-.77-1.16-1.61-2.37-2.38-3.61-.32-.52-.67-.73-1.29-.71-2.16.05-4.31.04-6.47.05-.32,0-.63.03-.97.05v5.54c.36.02.68.06,1,.07,2.45.07,4.92.05,7.36.23,1.31.09,2.2-.23,2.75-1.61Z"/>
      <path d="M151.03,139.98v10.23c-1.81,0-3.57-.02-5.33,0-2.61.04-5.21.1-7.81.2-.63.03-1.02-.15-1.29-.69-.09-.19-.23-.35-.35-.52-.51-.8-1.4-1.6-1.42-2.41-.02-.82.82-1.67,1.31-2.49.79-1.34,1.58-2.68,2.42-3.99.15-.23.48-.5.73-.5,3.8,0,7.61.04,11.41.08.08,0,.17.04.33.09ZM148.62,147.89v-5.73c-2.68,0-5.28,0-7.87.01-.18,0-.42.12-.52.27-.94,1.37-1.86,2.77-2.7,4.03.47,1.45,1.41,1.72,2.7,1.59,1.6-.16,3.23-.14,4.84-.17,1.16-.02,2.32,0,3.55,0Z"/>
      <path d="M4.95,96.46h8.56v7.17H5.24c-.09-2.27-.18-4.66-.28-7.17ZM11.09,98.68h-3.73v2.74h3.73v-2.74Z"/>
      <path d="M156.98,96.47c-.11,2.47-.21,4.86-.32,7.36-2.76-.1-5.47-.19-8.25-.29v-7.07h8.57ZM154.57,101.43v-2.77h-3.74v2.77h3.74Z"/>
    </g>
  </g>
</svg>