<?xml version="1.0" encoding="UTF-8"?>
<svg id="Ebene_2" xmlns="http://www.w3.org/2000/svg" viewBox="0 0 173.59 171.53">
  <g id="Ebene_6">
    <g>
      <g>
        <path d="M25.29,78.22c-.18-1.33-1.24-2.11-1.96-3.1-.34-.47-.68-.94-.95-1.44-.1-.19,0-.49.02-.74.25.06.51.09.73.19.19.08.33.25.58.46.23-.26.46-.48.65-.73,7.74-10.35,15.54-20.65,23.18-31.07,4.45-6.08,9.76-11.33,15.12-16.56.68-.66,1.34-1.3,1.52-2.32.05-.28.57-.49.89-.7.09-.06.25.01.36-.02,1.72-.52,3.39-.66,5.09.24.52.27,1.32.02,1.99-.02,1.16-.08,2.23.13,3.21.93h-7.71c.55.24.99.52,1.47.61.43.08.92.02,1.35-.09,1.32-.35,2.57-.35,3.81.33.42.23.97.24,1.56.52-.44.08-.92.33-1.31.22-1.4-.38-2.72-.11-4.05.26-.26.07-.54.13-.81.12-1.74-.02-3.49-.06-5.36-.1-.1,1.13-.19,2.17-.28,3.2,1.44.3,1.46.33.84,1.09,1.46-.35,2.8-.69,4.16-.97.26-.05.57.11.86.17-.2.19-.37.46-.61.57-2.38,1.05-3,2.88-1.73,5.17q1.15,2.07,3.46,1.65c.26-.05.53-.06.8-.08.05.08.1.16.16.24-.32.23-.62.55-.98.67-.87.3-1.22.9-1.37,1.76-.32,1.71-.24,3.33.67,4.87.53.89.94,1.84,1.43,2.83,1.37-.39,2.74-.8,4.12-1.15.28-.07.63.1.94.16-.19.28-.32.68-.59.81-.74.35-1.53.6-2.31.86-1.71.57-2.7,1.83-3.25,3.47-.08.23-.01.63.15.78,1.03.95,2.1,1.85,3.2,2.81,1.57-1.72,3.09-3.39,4.61-5.05,2.35-2.57,4.69-5.15,7.05-7.71.48-.52.82-1.01.72-1.76-.1-.73.17-1.07,1.03-1.09.83-.02,1.67-.3,2.48-.56,1.2-.39,2.36-.53,3.58-.05,1.17.46,2.36.59,3.56.02.24-.12.59-.02,1-.02-.79,1.52-2.17,1.44-3.47,1.73.55.5,1.13.8,1.74.39,1.33-.89,2.74-.59,4.15-.47l.16.26c-.41.26-.8.58-1.24.77-.8.35-1.65.59-2.45.94-.94.42-1.84.55-2.83.13-.32-.14-.82-.2-1.1-.05-.93.49-1.87.47-2.85.29-.45-.08-.91-.15-1.36-.14-1.04.01-1.57.55-1.61,1.58-.01.37,0,.73,0,1.1,0,.39-.1.83.52.84.04,0,.08.29.13.51,1.83-.37,3.7-.74,5.58-1.12.04.12.09.24.13.37-.34.19-.67.4-1.03.56-1.45.64-1.99,1.62-1.64,3.13.12.53.33,1.05.53,1.56.3.76.63,1.51.97,2.3,1.2-.38,2.34-.74,3.47-1.1l.14.3c-.24.15-.46.36-.72.44-1.22.36-1.81,1.16-2.08,2.4-.61,2.75-.58,5.52-.51,8.3,0,.26.12.52.2.84,1.11-.37,2.16-.78,3.23-1.06.52-.14,1.37-.62,1.56.25.19.89-.78.71-1.3.84-1.54.37-1.83.67-2.01,2.26-.32,2.78.51,5.38,1.32,7.97.06.2.16.39.25.59.8,1.94.81,1.96,2.78,1.36.32-.1.65-.41.82-.71.77-1.39,1.47-2.81,2.22-4.21.15-.28.37-.51.71-.96.27,1.27-.29,2.06-.63,2.89-.35.86-.78,1.7-1.18,2.55.18.07.23.1.29.11.4.11.81.22,1.22.32-.34.29-.65.62-1.03.84-.3.18-.69.22-1.08.33,0,.16-.04.32,0,.46,1.22,3.96,2.43,7.93,3.68,11.89.18.57.55,1.09.8,1.64.26.58.62.64,1.17.37.76-.38,1.56-.71,2.36-1,.38-.14.8-.15,1.2-.22.05.09.09.18.14.27-.39.3-.74.67-1.16.89-2.55,1.32-5.08,2.67-7.67,3.89-4.11,1.94-8.27,3.78-12.41,5.66-.27.12-.56.21-.97.36-.42-4.37-.84-8.67-1.25-12.97h-1.04c-.14,4.68-.28,9.3-.43,14.18,2.03-.47,3.89-.9,5.74-1.33.09-.02.21-.06.24-.13.5-1.47,1.97-1.48,3.07-2.02.87-.43,1.8-.74,2.73-1.06.27-.09.6-.01.93.09.58-.42.99-1.49,1.91-.4.37-.42.71-.81,1.2-1.37.19.58.28.84.41,1.22.26-.36.47-.63.67-.9.05.02.1.04.15.06-.06.32-.09.64-.17.94-.45,1.77-.93,3.54-1.37,5.32-.15.59-.42.86-1.08,1-2.89.61-5.77,1.29-8.63,2.01-.62.16-1.13-.12-1.66-.1-1.33.03-2.65.29-3.95.67,1.32-.14,2.65-.29,3.97-.43.07.96.07.96-.81,1.09-.48.07-.97.13-1.45.19q-1.79.2-2.59-1.35c-.03-.05-.04-.12-.07-.17-1.19-1.82-1.57-3.76-1.32-5.96.34-3,.37-6.04.51-9.06.03-.73,0-1.45,0-2.22-.12,0-.23-.01-.34,0-1.59.19-1.6.19-1.9,1.72-.66,3.31-1.31,6.62-1.94,9.94-.1.55-.34.74-.86.64-.32-.06-.64-.11-1.06-.18.09.74.17,1.36.24,1.99.08,0,.15,0,.23,0,.04-.35.06-.71.14-1.05.03-.14.19-.26.28-.39.1.13.26.25.28.39.06.33.07.68.09,1.01h.24c.04-.43.09-.86.13-1.29,1.03-.04.45,1.03,1.05,1.48.08-.47.14-.84.23-1.44.32.18.71.26.83.48,1.15,2.04,2.26,4.1,3.44,6.27.2-.02.61-.06,1.06-.1v1.36c-2.66.13-5.34.38-8.02.36-3.17-.03-6.34-.32-9.52-.44-2.65-.1-5.31-.05-7.97-.18-2.31-.11-4.62-.25-6.91-.57-3.44-.49-6.85-1.19-10.28-1.74-1.28-.21-2.19-.89-2.85-1.94-.44-.69-.94-.95-1.81-.92-6.44.24-12.89.41-19.33.6-.12,0-.24.02-.16.01-.55.74-1.01,1.36-1.51,2.02.16.05.43.06.58.2.17.16.3.44.3.67,0,.15-.27.39-.44.41-.75.11-1.51.15-2.54.24,1.03-1.16,1.92-2.17,2.82-3.18-.08-.1-.15-.2-.23-.3-.44.21-.92.36-1.3.65-2.68,2.02-5.01,4.37-6.95,7.12-1.09,1.55-1.15,1.58,0,3.07,2.58,3.33,5.17,6.66,7.87,9.89.87,1.04,1.21,2.04,1.01,3.31-.08.54-.11,1.01.55,1.26.68.26,1.15.1,1.6-.45.4-.49.85-.96,1.34-1.36,1.5-1.23,3.07-1.47,4.8-.38,1.19.75,2.46,1.35,3.7,2.01,1.26.67,2.54.59,3.8.05.35-.15.61-.53.99-.88.02.21.03.35.05.64.56-.26,1.07-.5,1.59-.73,1-.46,1.96-1.02,2.99-1.35,2.51-.8,4.86.14,7.22.87.14.04.29.11.41.2,1.78,1.2,3.45,1.23,5.32-.03,2.38-1.6,4.94-1.19,7.44-.1.64.28,1.26.63,1.9.91,1.16.51,2.36.58,3.57.18.32-.1.66-.16.96-.31,2.86-1.45,5.7-1.59,8.72-.34,2.07.86,4.27.53,6.35-.34.82-.34,1.64-.66,2.45-1.03,2.17-1,4.28-.79,6.34.28.95.49,1.84,1.08,2.8,1.57,1.52.77,3.09,1.2,4.6.78.87-.24,1.44-.67,1.63-.82,4.06-3.05,8.95-4.8,13.29-7.44,9.2-5.58,17.13-10.4,27.24-11.12,0,0,9.65.83,13.64-1.73.89-.57,1.33-1.39,1.33-1.39.37-.69.49-1.44.42-1.66-.89-2.81-11.9-1.38-19.54-.83-7.52.54-18.4.72-32.1-1.17v.28h3.45c0,.08,0,.16-.01.25-1.56-.19-3.12.72-4.71-.35-.46-.31-1.24-.15-1.87-.2l-.07-.25c.2-.06.5-.14.86-.22,1.84-.42,3.55-.43,5.86-.21,1.94.18,3.37.44,3.85.52,1.02.17,2.6.4,9.25.52,7.75.14,11.63.21,14.76-.1,2.66-.26,4.6-.61,8.63-.83,2.53-.14,4.43-.16,6.65.1,2,.24,3.64.62,4.78.94.46-3.63.42-5.71.27-6.96-.04-.34-.16-1.23.12-2.32.2-.8.58-1.54,1.15-2.3,2.35-3.14,4.86-6.12,7.68-8.84.48-.46,1.03-.85,1.64-1.35-.27-.42-.54-.93-.89-1.37-2.48-3.02-4.99-6.02-7.47-9.04-.66-.8-1.29-1.62-1.92-2.45-.11-.15-.17-.39-.15-.59.1-1.52.19-3.05.36-4.57.03-.3.37-.63.64-.84.58-.46,1.28-.8,1.82-1.3,2.95-2.7,5.86-5.45,8.81-8.16.36-.33.85-.53,1.3-.81.42,1.28-.05,3-.91,3.78-3.6,3.22-6.62,6.91-9.05,10.97,2.26,3.6,5.32,6.3,8.68,8.67,1.06.75,1.56,1.61,1.42,2.91-.17,1.7-.24,3.41-.42,5.1-.04.33-.29.75-.57.93-3.93,2.63-7.54,5.62-10.61,9.24-.06.07-.12.14-.19.2-1.24,1.25-1.26,1.26-.2,2.75,2.44,3.44,4.99,6.8,7.3,10.32,1.52,2.31,2.74,4.82,3.99,7.29.86,1.69.39,3.14-.83,4.6-1.95,2.34-3.67,4.87-5.5,7.31-.77,1.03-1.52,2.07-2.34,3.05-.4.47-.42.85-.07,1.29.58.71,1.16,1.41,1.77,2.09,1.98,2.2,3.98,4.39,5.96,6.59.18.2.35.42.5.65.7,1.1.62,1.32-.29,2.23-3.07,3.07-6.11,6.17-9.14,9.27-2.01,2.05-4.11,4.03-5.95,6.22-1.66,1.98-3.01,4.22-4.51,6.34-.94,1.34-1.18,1.46-2.54.57-3.33-2.17-6.54-4.51-9.01-7.71-.91-1.18-2.53-1.36-3.49-.21-2.04,2.43-3.99,4.93-5.92,7.45-.42.54-.8.7-1.49.75-2.28.15-3.76-.76-5.16-2.6-2.14-2.81-4.63-5.36-7.09-7.91-.98-1.02-2.26-1.74-3.42-2.58-.66-.48-1.33-.43-2.05-.06-2.7,1.38-4.97,3.34-7.09,5.46-1.85,1.85-3.58,3.85-5.27,5.85-.68.8-1.29.98-2.35.83-5.92-.83-10.73-3.87-15.3-7.43-.39-.3-.63-.29-1.03-.06-1.09.62-2.24,1.12-3.3,1.77-1.76,1.09-3.46,2.27-5.18,3.41-1.04.69-2.06,1.41-3.12,2.06-1.05.64-2.04.44-2.93-.38-2.27-2.09-4.56-4.16-6.8-6.28-1.64-1.55-3.22-3.18-4.82-4.77-.16-.16-.3-.34-.5-.58,6.56-.89,12.97-1.42,19.48-.15,7.52,1.47,15.16,1.7,22.82,1.26,2.1-.12,4.22-.02,6.32-.15,1.17-.07,2.32-.4,3.48-.62-.01-.08-.03-.16-.04-.23-1.14.17-2.29.49-3.43.48-2.8-.04-5.6-.18-8.4-.37-5.06-.33-10.11-.71-15.17-1.08-1.94-.14-3.88-.33-5.85-.58,10.58-3.24,18.63-10.02,25.61-18.09-1.48-.74-3-1.41-4.44-2.25-1.55-.9-3.08-1.03-4.73-.4-1.8.68-3.6,1.36-5.42,1.95-2.36.76-4.73.9-7.04-.24-1.92-.94-3.82-.52-5.7.1-1.1.36-2.17.81-3.24,1.25-.93.38-1.78.32-2.59-.28-.68-.51-1.39-.99-2.05-1.53-1.61-1.32-2.89-1.48-4.72-.51-.65.34-1.29.7-1.89,1.12-1.53,1.08-3.18,1.18-4.9.65-1.04-.33-2.07-.74-3.05-1.21-2.29-1.11-4.59-1.18-6.91-.22-1.77.73-3.52,1.53-5.25,2.37-2.31,1.12-4.65,2.04-7.3,1.57-.88-.16-1.68-.44-2.11-1.56,2.42,1.17,4.75,1,7.07.25.95-.3,1.83-.81,2.73-1.26,2.1-1.05,4.14-2.23,6.29-3.15,2.56-1.1,5.12-.67,7.3.92,2.35,1.71,4.52,1.69,6.83.09.42-.29.9-.52,1.36-.74,1.96-.96,3.81-.99,5.46.67.36.36.82.63,1.25.92,1.2.81,2.48.99,3.83.44.9-.37,1.81-.74,2.7-1.13,1.56-.68,3.12-.73,4.55.22,1.76,1.16,3.56,1.18,5.52.65,1.92-.52,3.81-1.04,5.6-1.94.91-.46,1.96-.66,2.97-.85,1.27-.23,2.45.03,3.55.8,1.25.87,2.6,1.57,3.89,2.38.73.46,1.32.42,1.85-.28.14-.19.34-.33.69-.65-2.31.07-3.95-1.16-5.65-2.17-2.66-1.58-5.3-1.6-8.03-.25-1.34.66-2.71,1.26-4.07,1.87-1.14.52-2.32.55-3.47.07-3.43-1.43-6.86-1.52-10.35-.19-1.51.58-2.96.4-4.35-.55-.82-.56-1.75-.99-2.69-1.35-1.68-.64-3.3-.41-4.82.55-.39.24-.78.49-1.17.72-1.43.86-2.88.95-4.34.11-1.75-1-3.65-1.5-5.63-1.79-1.15-.17-2.18.03-3.19.54-1.17.59-2.32,1.24-3.5,1.8-2.32,1.11-4.56,1.22-6.66-.6-.73-.63-1.58-1.16-2.43-1.64-1.6-.91-2.9-.61-4.01.83-.07.1-.14.2-.22.29-1.28,1.62-1.9,1.74-3.73.59-.04.49-.07.92-.11,1.38,1.5.5,2.7.07,3.8-.82.4-.33.77-.7,1.17-1.02.92-.72,2.02-.95,3.01-.41,1.32.72,2.53,1.67,3.74,2.57.25.18.33.59.49.89-.09.07-.19.14-.28.21-.22-.17-.45-.34-.67-.51-.78-.58-1.53-1.22-2.36-1.72-1.69-1.03-2.78-.89-4.37.32-.67.51-1.37,1.01-2.14,1.35-.77.33-1.61.31-2.39-.58.03,7.22-.14,14.23.46,21.24,2.02.37,3.9-.08,5.79-.37,2.05-.32,4.09-.83,6.15-.9,2.15-.08,4.31.22,6.46.44,2.78.29,5.55.67,8.32,1.01-.02.03-.12.2-.27.32-4.26,3.32-8.48,6.71-12.82,9.93-2.06,1.53-1.79,1.75-4.33-.15-.78-.58-1.5-1.27-2.11-2.03-2.98-3.71-6.49-6.86-10.14-9.9-2.97-2.48-5.66-5.3-8.48-7.95-.6-.56-.48-.99.05-1.52,2.07-2.08,4.12-4.17,6.16-6.29.67-.7,1.25-1.5,1.89-2.24.58-.66.53-1.21-.05-1.91-2.31-2.77-4.56-5.58-6.82-8.39-.36-.45-.67-.95-1.02-1.41-1.1-1.4-1.59-2.97-1.55-4.77.05-2.04-.07-4.09-.02-6.14.01-.48.32-1.04.66-1.41,2.44-2.65,4.95-5.24,7.85-7.41.29-.22.54-.5.79-.77.99-1.1.97-1.85-.15-2.79-3.08-2.59-5.23-5.96-7.67-9.08-.82-1.05-1.37-2.12-1.32-3.49.04-1.19-.11-2.38-.05-3.57.03-.5.26-1.1.61-1.44.9-.86,1.93-1.59,2.89-2.38,2.01-1.64,4-3.3,6.02-4.94.56-.45.58-.86.21-1.47-2.23-3.7-4.61-7.28-7.84-10.21-1.03-.94-1.51-2.02-1.37-3.41.07-.75.01-1.51.01-2.45.65.82,1.13,1.56,1.73,2.16,2.9,2.89,5.83,5.73,8.74,8.61.24.24.35.62.53.93.07.12.15.31.26.34.92.19.85.89.83,1.57-.04,1.68-.1,3.36-.08,5.04,0,1-.43,1.66-1.24,2.17-1.59,1.02-3.16,2.08-4.75,3.12-1.72,1.13-3.36,2.34-4.44,4.31,1.53,1.82,3.09,3.69,4.68,5.54.99,1.16,2.02,2.3,3.03,3.44.16.18.32.45.52.5.35.09.73.04,1.09.05-.17-.27-.29-.6-.51-.82-.96-.95-1.94-1.87-3.09-2.97h4.33c-.04.48-.08.85-.12,1.28h-1.75c-.02.08-.05.16-.07.25.55.18,1.11.37,1.58.53.2,3.63.4,7.27.61,11.06h20.25c-.52-1.49-1.22-3.13-1.66-4.83-.44-1.73-.42-3.54-.17-5.31.1-.02.21-.04.31-.06.12.46.25.91.34,1.37.38,1.88.59,3.81,1.15,5.63.7,2.27,2.2,3.82,4.79,4.04-.07-.07-.11-.14-.16-.15-3.38-.72-4.48-3.27-5.01-6.25-.21-1.19-.3-2.39-.45-3.59.08-.03.16-.06.24-.09.2.25.41.48.58.74,1.66,2.43,3.96,4.06,6.6,5.21,6.34,2.75,12.95,4.51,19.83,5.13,5.81.52,11.62.95,17.44,1.41.26.02.52,0,.78,0,.02-.08.04-.17.06-.25-.31-.09-.61-.23-.93-.26-3.04-.26-6.09-.46-9.13-.74-5.74-.52-11.51-.87-17.15-2.19-.51-.12-1.02-.28-1.29-.35,4.31.53,8.83,1.24,13.38,1.6,4.56.36,9.14.39,13.71.56,0-.08.02-.15.03-.23-.18-.04-.35-.11-.53-.11-2.17-.06-4.34-.13-6.5-.16-7.29-.11-14.5-.81-21.56-2.71-2.67-.72-5.33-1.53-7.94-2.44-2.81-.98-5.08-2.72-6.72-5.26-.76-1.17-1.66-2.25-2.54-3.44-2.14,1.54-4.21,3.02-6.28,4.5.03.07.05.15.08.22,2.06-.34,4.12-.68,6.18-1.02.02.11.04.21.06.32-2.02.37-4.04.73-6.07,1.1,0,.07,0,.14,0,.21,2.06.35,4.11.71,6.17,1.06-.02.1-.03.19-.05.29-2.43-.39-4.87-.77-7.3-1.16-.03.08-.05.16-.08.24,2.71,1.29,5.56,2.32,8.18,3.79-.04.08-.07.16-.11.24-.16-.05-.33-.08-.48-.15-2.44-1.12-4.88-2.25-7.33-3.35-.44-.2-.56-.44-.62-.95-.27-2.08-.65-4.15-1.01-6.23-.65-3.85-1.31-7.71-1.97-11.56.07.13.18.24.21.38.62,3.17,1.24,6.34,1.85,9.51.42,2.2.84,4.39,1.27,6.59l.25.04c1.11-2.69,2.24-5.38,3.31-8.09.1-.26-.12-.75-.33-1.02-1.21-1.53-1.86-2.7-3.42-4.18-.77-.73-1.85-1.8-3.1-3.19ZM63.43,94.37c-.05-.17-.14-.34-.15-.52-.19-3.05-.34-6.09-.56-9.14-.21-2.82-.51-5.63-.77-8.49h-1.66c-.33,7.41-.65,14.75-.97,22.13-.59-.16-1.05-.33-1.52-.39-.69-.09-.8-.46-.76-1.07.12-1.55.19-3.11.27-4.67.01-.27.06-.63-.08-.79-.99-1.14-2.03-2.24-3.24-3.57-.9,3.01-1.73,5.75-2.48,8.26-1.18-.26-2.3-.39-3.33-.77-1.05-.38-2.02-1.01-3.1-1.56.19-.47.37-.95.58-1.42,1.08-2.42,2.15-4.85,3.27-7.26.24-.51.18-.8-.25-1.15-2.33-1.9-3.57-4.46-4.28-7.3-.22-.86-.21-1.83-.09-2.71.28-1.99.9-3.9,2.09-5.74-1.23.3-2.31.47-3.31-.34.59-.28,1.18-.49,1.79-.61,1.21-.24,2.43-.43,3.65-.67.17-.03.43-.24.44-.37.03-.94.13-1.91-.05-2.81-.29-1.45-.9-2.85-1.14-4.3-.26-1.59-.39-3.25.46-4.74.36-.64.89-1.18,1.35-1.76-2.44-.13-2.64-.06-3.6,2.15-2.04,4.73-4.03,9.49-6.03,14.25-1.31,3.12-2.49,6.29-3.91,9.36-.88,1.9-2.1,3.64-3.17,5.47,2.83,3.42,5.65,6.84,8.38,10.15.35-.32.67-.83.93-.8.73.08.5.76.51,1.25.01.34.04.67.06,1,.09,0,.18,0,.27.01.12-.53.24-1.07.36-1.61.81-.05.81.42.74,1.01-.04.39.02.79.04,1.19.1,0,.21-.01.31-.02.12-.58.25-1.16.38-1.78,1.52.48-.2,1.97.96,2.6.17-.62.32-1.17.47-1.75.54.09.71.34.58.89-.12.5-.33,1.07.28,1.64.17-.76.3-1.34.45-2.02.35.11.64.21.87.28.18.77-.62,1.48.13,2.34.22-.85.38-1.51.54-2.15.65.14.92.38.61.98-.13.26-.19.59-.17.89.01.18.23.35.45.67.18-.81.3-1.34.43-1.89h.89c-.05.46-.08.88-.13,1.3-.06.47-.16.95.58.85.07-.64.13-1.26.19-1.86.84,0,.97.35.89,1-.05.44-.38,1.05.31,1.38.49-.61-.37-2,1.16-1.89.25.76-.29,1.54.41,2.32.09-.83.15-1.45.21-2.05.86-.11.8.39.83.9.03.45-.3,1.08.56,1.42.04-.77.07-1.4.11-2.1.31.06.56.11.8.16.05.84.1,1.61.15,2.37.12,0,.23-.01.35-.02v-2.24c.75-.17.96.19,1.06.76.08.48.22.96.34,1.43.09-.01.17-.03.26-.04v-1.72c.38.06.64.11.88.15.08.75.15,1.44.23,2.12.1-.01.21-.02.31-.03.07-.61.14-1.23.22-1.91,1.36.22.28,1.48,1.07,1.99.07-.6.13-1.14.2-1.7.3.01.53.03.73.04.17.7-.37,1.58.73,2.1v-1.71c.69-.13.93.12.88.77-.03.4.07.81.12,1.21.08,0,.15-.02.23-.03.08-.78.15-1.57.24-2.42-.55-.05-1.11-.1-1.84-.16,0-1.62,0-3.2,0-4.77.34.16.68.33,1.17.57-.11-.59-.17-.88-.29-1.52-.39.44-.63.71-.86.98ZM58.51,31.38c-.03-.11-.07-.23-.1-.34,1.43-.87,3.23-.56,4.72-1.32-.29-.12-.58-.11-.85-.19-.19-.06-.35-.25-.52-.38.16-.15.29-.37.48-.43.34-.12.71-.14,1.12-.22.09-1.15.18-2.29.29-3.62-.35.28-.55.41-.71.57-1.84,1.83-3.73,3.62-5.52,5.5-3.98,4.19-7.78,8.49-10.64,13.59-6.26,11.18-12.7,22.26-19.07,33.38.36.74.86.91,1.61.47.49-.29,1.04-.53,1.59-.71.9-.29,1.46-.87,1.93-1.69,4.92-8.61,9.86-17.21,14.83-25.8,3.65-6.31,7.07-12.77,11.52-18.58.03-.03,0-.11-.02-.22h-.67ZM155.23,104.28c-.51,3.99-.58,23.81-.08,24.7.22-.24.43-.44.62-.67.89-1.13,1.79-2.24,2.64-3.39,1.85-2.5,3.66-5.03,5.49-7.55.39-.54.51-1.02.05-1.64-1.98-2.63-3.89-5.31-5.87-7.95-.85-1.14-1.79-2.21-2.85-3.5ZM71.44,83.57c-.62.09-1.09.19-1.57.23-.44.03-1.1.38-1.19-.34-.03-.25.61-.6.97-.86.16-.11.41-.11.62-.16,1.03-.25,2.05-.5,3.1-.76-.57-1.32-1.21-2.46-2.58-2.99-1.7-.66-3.39-1.34-5.1-2-.17-.07-.37-.05-.65-.08,1.07,3.98,2.16,7.83,3.15,11.71.99,3.87,1.89,7.77,2.83,11.66-.27,0-.34-.11-.43-.13-.38-.07-.77-.13-1.16-.14-.05,0-.14.28-.16.44-.02.19.04.38.04.57,0,.49,0,.99,0,1.48.1,0,.2,0,.3,0,.09-.61.18-1.22.27-1.84.36.04.63.07.91.09-.13.65-.47,1.28.02,1.83h.3c.08-.55.16-1.1.24-1.65.68-.16.73.23.76.71.03.42.12.84.19,1.26.1,0,.19,0,.29-.01.06-.57.12-1.14.18-1.77.54.06,1.26-.04,1.7.26.38.26.43,1,.62,1.53.06,0,.11.01.17.02.07-.5.13-1,.2-1.49.09-.03.19-.06.28-.09.2.54.4,1.07.6,1.61.09-.03.18-.06.28-.09.05-.56.09-1.13.14-1.77-.81-.08-1.61-.15-2.45-.23.3-1.07.58-2.08.87-3.12-2.15-1.65-4.57-2.99-5.1-5.99-.48-2.76,0-5.33,1.36-7.89ZM77.39,62.12c-3.11.41-3.44.83-3.86,3.31-.03.18-.07.36-.11.54-.74,3.21-1.59,6.39-1.01,9.75.32,1.84.46,3.7,1.77,5.17.21.23.6.49.86.44,2.16-.38,4.31-.81,6.46-1.26.22-.05.52-.27.56-.46.16-.67.22-1.36.32-2.03-1.13-.49-2.65.85-3.32-1.17-.79.77-1.48,1.39-2.12,2.07-.43.45-.81.5-1.22.01-.24-.28-.48-.55-.69-.85-1.28-1.81-1.07-3.74-.4-5.68.26-.76.58-1.49.92-2.34-.47.12-.83.32-1.16.27-.36-.05-.69-.32-1.04-.5.25-.19.48-.42.76-.57.18-.1.41-.09.62-.14,1.38-.31,2.76-.63,4.29-.97-1.4-1.72-1.86-3.56-1.63-5.59ZM92.93,88.82c-2.05-.62-4.08-.82-6.3-.47.4,4.06.79,8.05,1.19,12.05.06,0,.12-.01.19-.02,1.63-3.83,3.26-7.65,4.92-11.56ZM74.57,54.69c-1.05,1.17-2.04,2.24-2.99,3.35-.17.19-.27.57-.2.81.29,1.02.65,2.01,1.03,3.18,1.7-.4,3.34-.78,4.99-1.18.13-.03.29-.15.34-.26.32-.74.6-1.49.95-2.36-.7.08-1.27.15-1.84.22-.02-.05-.03-.11-.05-.16.37-.21.73-.43,1.14-.67-1.13-.99-2.2-1.92-3.36-2.93ZM54.77,40.9c-.98,0-1.48.41-1.9,1.16-1.81,3.24-3.68,6.45-5.62,9.83,2.86-.44,5.54-.86,8.22-1.28.05-.07.09-.14.14-.21-1.74-.97-2.93-2.23-2.82-4.36.1-1.91,1.01-3.48,1.98-5.14ZM74.77,54.48c1.17.99,2.29,1.95,3.44,2.9.14.11.41.17.58.12.72-.21,1.42-.48,2.11-.72q-.88-4.09.65-8.47c-.85-.09-1.46.25-2.02.89-1.52,1.75-3.1,3.44-4.76,5.28ZM86.42,79.11c3.21-.82,6.34-1.62,9.48-2.42-.6-2.57-.6-2.6-3.11-2.72-1.45-.07-2.9-.01-4.7-.01.35.62.62.99.77,1.4.1.29.14.85,0,.93-.8.46-1.67.82-2.58,1.24.04.41.08.92.14,1.58ZM57.39,90.72c.29-4.92.57-9.62.85-14.33-.71-.16-1.06.07-1.17.7-.06.36-.19.7-.29,1.05-.79,2.83-1.59,5.66-2.35,8.5-.06.24,0,.61.15.8.86,1.06,1.77,2.07,2.82,3.28ZM57.98,62.85c-1.12-.3-2.11-.58-3.11-.82-.41-.1-1.08.29-1.08-.55,0-.66.39-.87,1.03-.86.2,0,.41-.29.62-.44-2,.04-4.05,1.13-5.18,2.51-.09.11-.22.25-.22.38-.02,1-.01,2-.01,3.07,2.53-.41,4.9-.79,7.27-1.2.15-.03.33-.27.37-.44.14-.56.23-1.13.32-1.65ZM160.43,139.26c-.06.09-.12.18-.19.27-.48.06-.95.1-1.43.18-1.49.24-2.1,1.1-1.87,2.57.15.94.69,1.3,1.61,1.07.91-.22,1.82-.48,2.74-.64,1.89-.32,2.44-1.52,1.33-3.11-1.13-1.62-2.7-2.7-4.5-3.46-.17-.07-.38-.06-.85-.14,1.17,1.21,2.16,2.23,3.15,3.25ZM71.19,46.67c-.58-1.22-1.11-2.34-1.65-3.48-.11,0-.24,0-.35.03-.98.22-1.96.44-2.94.67q-2.06.49-1.86,2.58c.07.77,1.47,1.86,2.18,1.65,1.52-.45,3.02-.94,4.62-1.45ZM32.34,83.28c1.62-2.55,3.18-5.01,4.73-7.47-.05-.04-.1-.07-.15-.11-2.67,1.16-5.34,2.32-8.11,3.52,1.2,1.38,2.33,2.68,3.52,4.05ZM34.02,159.73c-1.29-.76-2.71-1.34-3.81-2.31-1.09-.95-1.84-2.28-2.75-3.46-1.07,2.08-.98,4.46.21,5.67,1.43,1.47,3.64,1.5,6.35.1ZM77.71,89.88c-2.27.43-4.08,1.44-5.76,2.71-.17.13-.19.81-.02.97,1.1,1.07,2.27,2.08,3.54,3.22.79-2.42,1.49-4.6,2.24-6.9ZM66.54,61.76c-1.14.56-2.2,1.19-3.49,1.08-.19-.02-.39.04-.62.07.05.38.09.7.13,1.07,2.9-.61,5.74-1.21,8.57-1.81-.37-2.23-.37-2.25-2.42-2.64-1.06-.2-2.13-.32-3.02-.45-.93,1.41.82,1.72.84,2.68ZM61.55,35.94c-.88.36-1.55.64-2.21.92-.86.36-1.1.25-1.18-.67-.08-.82-.02-1.65-.02-2.59-1.4,2.21-2.78,4.38-4.28,6.73,2.37-.58,4.53-1.08,6.67-1.64.27-.07.59-.37.67-.63.18-.6.22-1.25.35-2.13ZM52.29,77.51c-1.45-.01-4.96,1.72-5.65,2.79-.12.18-.17.58-.06.72.84,1.05,1.74,2.05,2.73,3.2,1.07-2.41,2.02-4.54,2.98-6.71ZM85.88,155.55c.53,1.84.91,3.58,2.08,4.97.44.51,1.04.96,1.66,1.22.8.34,1.62.25,2.19-.57.92-1.29,1.86-2.57,2.77-3.87.29-.42.51-.88.83-1.44-1.07,1.03-2.07,1.89-2.95,2.86-.6.67-1.28,1-2.1.75-.7-.21-1.46-.52-1.98-1.01-.88-.82-1.59-1.82-2.51-2.91ZM32.71,86.78c-1.08,2.58-2.12,5.07-3.28,7.82,2.16-1.55,4.09-2.94,6.07-4.37-.76-.96-1.45-1.84-2.15-2.72-.19-.23-.39-.45-.65-.73ZM79.23,103.45c-13.21-.08-26.01-2.2-38.23-7.33,12.1,5.83,24.93,7.85,38.23,7.33ZM60.74,154.52c-.13.06-.26.12-.4.18.3,1.57.53,3.16.91,4.71.25,1,1.05,1.53,2.09,1.37,1.2-.19,2.38-.52,3.56-.79,0-.12.01-.24.02-.36-2.95-.63-4.63-2.79-6.19-5.1ZM24.01,73.86c1.12,1.25,2.15,2.4,3.24,3.62,1.17-1.85,2.28-3.61,3.44-5.47-2.23.62-4.35,1.21-6.68,1.85ZM141.4,157.82c.43,1.84,1.04,3.6,2.34,4.98,1.25,1.32,3.21.94,4.28-.9-3.3.34-4.53-2.49-6.62-4.07ZM54.39,48.88c.57.41.95.59,1.18.88.86,1.08,1.9.62,2.92.41.14-.03.32-.21.35-.35.22-1.25.41-2.5.6-3.76l-.23-.23c-1.56.99-3.12,1.97-4.81,3.05ZM81.07,47.5s.08.08.11.12c1.72-.47,3.44-.94,5.15-1.41-.02-.05-.04-.1-.06-.14l-1.51-.29c.01-.1.03-.2.04-.29.56-.09,1.11-.18,1.76-.28v-3.76c-1.92,2.11-3.71,4.08-5.51,6.06ZM92.4,64.08c-.6-1.75-1.25-2.16-2.88-1.89-.57.09-1.15.16-1.71.3-.19.05-.47.27-.47.42-.05.83-.02,1.66-.02,2.66,1.83-.54,3.43-1.01,5.08-1.49ZM70.76,51.46c-.31,2.21-.17,4.13.3,6.22,1.09-1.2,2.05-2.25,3.05-3.35-1.09-.93-2.14-1.83-3.35-2.87ZM78.56,65.95c-.01.13-.02.27-.03.4.66.23.45,1.4,1.47,1.2.86-.17,1.71-.44,2.55-.69.18-.06.45-.21.48-.35.19-.89.32-1.79.47-2.69-.08-.06-.17-.11-.25-.17-1.56.77-3.13,1.54-4.69,2.3ZM16.22,145.44c.03-.09.07-.18.1-.27-.48-.29-.95-.6-1.43-.88-2.06-1.2-2.31-1.72-1.92-4.07,0-.04-.05-.09-.13-.2-.25.23-.49.45-.72.68-1.4,1.42-1.42,1.43-.39,3.14.27.44.65,1,1.08,1.11,1.11.28,2.27.35,3.41.5ZM85.15,52.61c-.07-.06-.15-.13-.22-.19-1.15.54-2.31,1.05-3.44,1.64-.22.11-.47.56-.41.75.18.56.62,1.55.77,1.51.92-.2,2.03-.42,2.59-1.06.54-.62.49-1.75.7-2.66ZM126.27,159.39c-.35.08-.5.09-.64.14-1.39.45-2.55.19-3.52-.98-.5-.6-1.14-1.1-1.73-1.62-.13-.11-.32-.15-.48-.22.6,1.31,1.3,2.49,2.06,3.63.81,1.22,1,1.26,2.42.99,1.02-.19,1.37-1,1.9-1.94ZM92.05,52.88c-.41-.51-.68-1.16-1-1.19-1.11-.11-2.24,0-3.36.03-.08.79-.15,1.59-.22,2.38,0,.05.06.1.14.21,1.39-.45,2.81-.91,4.46-1.44ZM64.25,37.78c1.44-.34,2.78-.66,4.15-.99-1.02-1.82-1.85-2.07-4.15-1.31v2.29ZM104.55,92.25c0-.12,0-.23,0-.35-.31-.06-.66-.23-.94-.15-.55.17-1.07.44-1.58.72-2.94,1.62-5.87,3.26-8.8,4.9-.18.1-.35.24-.52.37l.09.15c3.92-1.88,7.83-3.76,11.75-5.64ZM95,84.44c.08.02.16.05.24.07,1.17-2.3,2.35-4.6,3.52-6.9-.06-.06-.12-.12-.17-.17-.49.27-1.17.43-1.44.84-1.23,1.87-2.01,3.92-2.15,6.17ZM61.34,45.23c-.57.27-1.19.38-1.25.63-.32,1.33-.5,2.69-.73,4.04.11.08.22.15.33.23.42-.29,1.13-.52,1.2-.88.26-1.23.3-2.52.45-4.01ZM62.41,45.98v3.37c.56-.32,1.23-.47,1.41-.85.46-1-.02-1.78-1.41-2.52ZM83.59,66.59c.57-.3,1.21-.43,1.27-.69.2-.85.18-1.75.25-2.62-.1-.05-.21-.11-.31-.16-.27.25-.7.46-.78.76-.21.78-.26,1.6-.43,2.72ZM46.83,103.15c.56.14,1.01.26,1.55.39.15-.54.28-1.01.43-1.52-.55-.19-.99-.35-1.53-.54-.16.58-.29,1.06-.46,1.67ZM68.9,99.43h-1.58c.23.92.43,1.77.64,2.62.07-.03.14-.06.21-.09.23-.8.46-1.61.73-2.53ZM53.37,103.69c-1.47-.61-1.63-.53-1.81.82,1.43.74,1.48.72,1.81-.82ZM43.88,101.62c.59-1.25.54-1.46-.27-1.77-.72-.28-.91.26-1,.7-.21,1.04.74.77,1.27,1.08ZM56.16,106.01c1.56.27,1.74.13,1.71-1.31-.43-.06-.86-.13-1.38-.21-.12.54-.23,1.03-.34,1.52ZM61.06,106.77c.74.1,1.44.5,1.61-.6.08-.5-.06-.72-.58-.79-1.11-.14-.87.7-1.04,1.38ZM89.78,104.59c-.02-.11-.04-.22-.05-.33-1.9.29-3.81.58-5.71.86.02.12.04.23.06.35,1.9-.3,3.81-.59,5.71-.89ZM86.66,62.77c-.48.42-.64,1.58-.41,2.95.72-.21.93-1.74.41-2.95ZM70.38,106.52c-1.22-.38-1.37-.2-1.19,1.4q1.24.21,1.19-1.4ZM65.29,107.37c1.18.35,1.48.06,1.34-1.26-.36-.05-.73-.1-1.17-.16-.07.55-.12.99-.17,1.42ZM72.29,108.11c1.24.07,1.4-.16,1.03-1.38-1.14-.11-1.16-.09-1.03,1.38ZM63.81,44.44c-.53.28-.9.47-1.27.66.35.46.7.92,1.05,1.38.07-.05.15-.1.22-.15v-1.89ZM76.36,108.19c.09.08.17.16.26.24.33-.11.8-.13.96-.36.15-.22.06-.72-.09-.99-.08-.14-.73-.19-.78-.09-.19.36-.24.79-.34,1.19ZM64.72,62.31s-.02-.06-.04-.1h-7.37s0,.06,0,.1h7.4ZM85.14,55.21c.73-.41,1.01-1.92.49-3.02-.15.94-.3,1.88-.49,3.02ZM79.51,107.27c.1.43.12.83.3,1.12.06.1.69.04.79-.11.17-.27.14-.68.19-1.08-.49.03-.78.04-1.28.07ZM62.22,59.08c-1.06-.03-.74.7-.73,1.14,0,.17.39.33.73.59v-1.73ZM66.15,92.14c.07.35.13.63.18.87h1.32c-.09-.36-.17-.65-.25-.98-.38.04-.76.07-1.25.12ZM67.17,97.61h1.44c-.07-.33-.12-.58-.16-.8h-1.34c.02.28.04.52.06.8ZM83.85,77.55c-.18.65-.37,1.3-.57,2.01.94-.14,1.1-.65.57-2.01ZM63.73,60.65c-.04-.49-.04-.88-.12-1.26-.03-.15-.26-.34-.4-.34-.11,0-.33.22-.35.36-.05.38-.02.77-.02,1.19.33.02.56.03.89.05ZM59.89,62.86h-.61c-.08.61-.16,1.16-.23,1.71q.78-.07.84-1.71ZM58.92,60.57c.95.02,1.04-.16.76-1.34-.8.17-.81.19-.76,1.34ZM66.61,101.94c.09-.05.17-.09.26-.14.02-.39.08-.78.02-1.16-.02-.11-.38-.17-.58-.26-.05.35-.15.71-.11,1.05.02.18.27.34.41.5ZM66.5,96.23c-.1-.76-.82-1.15-1.32-.77.03.21.05.45.08.69.41.03.78.05,1.23.08ZM67.28,98.15c.03.26.07.5.1.73h1.38c-.03-.27-.05-.52-.07-.73h-1.4ZM66.97,96.19c.56.04.97.07,1.45.1-.11-.34-.19-.58-.26-.8h-1.19v.7ZM66.56,93.54c.06,1.04.67.82,1.29.74-.02-.29-.04-.54-.06-.81-.43.03-.79.05-1.23.07ZM65.47,90.25c-.05-.34-.09-.65-.13-.92h-.99c.07.34.13.63.19.92h.93ZM65.83,89.09c.06.75.25,1.22,1.14.95-.06-.32-.12-.63-.18-.95h-.96ZM64.49,90.85c.08.32.15.63.22.94.42-.06.74-.11,1.11-.17-.1-.33-.18-.61-.26-.87-.33.03-.64.06-1.07.09ZM51,92.69c-.12.3-.22.57-.32.84.64.24,1.21.41,1.27-.56-.3-.09-.61-.18-.95-.27ZM48.33,90.35c-.43.12-1.17-.85-1.41.28.23.08.4.14.56.2.16.06.33.1.52.16.11-.22.22-.43.33-.65ZM76.14,99.37c-1.15-.38-1.4-.21-1.2.78.06,0,.14.02.17,0,.34-.25.67-.5,1.02-.77ZM65.11,94.69c.1.04.21.08.31.12.23-.33.45-.67.77-1.14h-1.36c.11.4.19.71.28,1.01ZM52.53,80c-.92-.46-.92.31-1.22.73.95.52.88-.36,1.22-.73ZM48.99,88.63c.11-.31.22-.58.32-.86q-.96-.25-1.16.5c.26.11.53.23.84.37ZM65.52,98.22c.06.96.7.66,1.27.67.02-1.18-.84-.48-1.27-.67ZM64.57,59c-.11.02-.22.03-.32.05-.27,1.11-.19,1.45.54,1.67-.08-.62-.15-1.17-.22-1.72ZM64.73,92.15c.06,1.3.69.91,1.16.88.05-.1.09-.2.14-.31-.38-.17-.76-.34-1.3-.58ZM52.1,92.4c.44-.84,0-.96-.63-1.01-.1.25-.18.49-.3.79.31.07.6.14.92.22ZM67.07,90.66c-.38.03-.69.06-1.06.09.16.33.28.6.41.87.32-.06.6-.11.9-.16-.09-.3-.16-.52-.25-.81ZM51.99,89.88c.36.04.63.07.89.1.09-.34.15-.59.22-.88-.24-.06-.49-.13-.77-.2-.11.31-.21.58-.35.97ZM65,80.62c-.32.02-.54.03-.82.04.07.37.14.68.21,1.05.26-.03.48-.06.75-.1-.05-.34-.09-.63-.14-1ZM49.84,83.86c.02.32-.04.62.08.78.13.18.43.23.69.34.15-.31.25-.52.36-.75-.36-.12-.65-.22-1.12-.37ZM64.08,96.59l-.27.24c.02.25.04.5.06.77h.97l.16-.26-.92-.76ZM87.04,52.19c-.09,0-.18-.01-.27-.02-.06.77-.13,1.53-.19,2.3.12,0,.24.02.36.03.04-.77.07-1.54.11-2.3ZM48.88,89.04c-.43-.03-.81-.08-1.18-.07-.04,0-.14.35-.11.37.29.18.6.32.93.49.14-.3.23-.49.37-.78ZM65.21,88.73c.05-.11.11-.23.16-.34-.27-.12-.53-.33-.79-.32-.15,0-.29.37-.54.72.59-.03.88-.04,1.18-.06ZM70.39,99.28c-.12-.82-.84-1.3-1.27-.95.06.21.12.44.22.78.17-.24.26-.35.34-.47.2.18.38.35.72.65ZM50.27,83.29c.29.14.54.26.8.39.15-.31.27-.54.4-.82-.49-.07-1.05-.57-1.2.43ZM68.76,95.45c.23.4-.01,1.16.91.83.02-.53.1-1.08-.91-.83ZM65.65,99.34c-.03.15-.06.29-.08.44.42.07.85.15,1.27.2,0,0,.06-.31.08-.48-.42-.05-.85-.1-1.27-.16ZM46.51,91.82c.49-.01,1.11.89,1.24-.42-.42.2-.98-.71-1.24.42ZM51.61,89.51c.1-.24.21-.48.33-.75-.31-.1-.58-.19-.89-.29-.11.28-.2.52-.3.8.33.09.58.17.86.24ZM63.96,98.08l-.18.42c.32.15.62.32.95.43.05.02.2-.29.3-.44-.36-.14-.72-.27-1.07-.41Z"/>
        <path d="M49.13,6.08c2.91,4.65,7.26,7.68,11.32,11.43-.83,0-1.39.01-1.94,0-7.02-.19-14.05-.51-21.07-.53-5.16-.02-10.32.35-15.47.57-.91.04-1.82.24-2.73.31-.59.04-.78.3-.76.87.05,1.99.06,3.97.08,5.96.06,5.56.12,11.12.17,16.68.04,4.73.1,9.47.06,14.2-.02,2.28-.25,4.57-.39,6.98-.43-.18-.7-.29-1.09-.45.22-.18.39-.26.47-.39.11-.19.26-.46.19-.61-.07-.15-.4-.28-.58-.24-.47.1-.93.27-1.38.46-.75.32-1.49.69-2.28,1.05-.46-.59-.88-1.13-1.35-1.75,1.81-.23,3.52-.45,5.23-.67,0-.1,0-.2,0-.3-1.68-.86-3.6-.45-5.37-.83,0-.1-.02-.21-.03-.31,1.04-.1,2.09-.18,3.13-.3,1.05-.12,2.1-.29,3.13-.43.18-.78-.28-.93-.74-.95-.76-.04-1.53,0-2.29.01-.98.02-1.96.03-2.93.1-.88.07-1.75.23-2.63.35-.02.09-.04.19-.06.28-.34-.46-.73-.88-1-1.38-.1-.19-.01-.58.12-.79,1.12-1.82,2.65-3.26,4.49-4.42-.13.15-.25.32-.39.46-.15.15-.31.28-.64.57,2.17-.07,3.91-.8,5.77-1.54-1.11-1.25-2.36.39-3.49-.46,1.07-.81,1.96-1.78,3.46-1.74v-1.41c-3.54,2.68-7.47,4.68-9.9,8.65-.75-1.01-1.95-1.61-1.94-3.13,0-1.1.42-1.87,1.33-2.42,1.36-.83,2.77-1.57,4.05-2.5,1.34-.99,2.58-2.13,3.81-3.26.91-.84.95-1.92.41-2.95-1.07-2.02-2.16-4.04-3.35-5.98-1.58-2.57-3.27-5.07-4.81-7.45,7.29-7.06,14.61-14.14,22-21.3,2.49,2.23,5.03,4.42,7.47,6.71.68.64,1.28.81,2.02.37,1.32-.81,2.66-1.62,3.89-2.56,1.98-1.52,3.88-3.16,6.08-4.96ZM44.35,12.38c2.18.71,4.28,1.4,6.3,2.06.59-2.38-.98-3.59-2.63-4.75-1.19.87-2.39,1.75-3.67,2.69ZM34.3,13.99c-1.77-1.19-3.5-2.34-5.3-3.55-1.61.76-1.4,2.43-1.42,4.27,1.13-1.13,2.21-.68,3.31-.29,1.18.42,2.28.12,3.41-.44ZM17.23,31.61c.04-.1.08-.21.12-.31-.57-.31-1.14-.62-1.7-.93-1.58-.88-3.52-1.37-3.96-3.53,0-.02-.04-.03-.12-.08-.5.34-1.02.69-1.66,1.13.6.83,1.16,1.62,1.76,2.37.15.18.46.27.71.33.77.17,1.54.29,2.31.45.85.18,1.69.38,2.53.57ZM16.96,27.26c-.61-1.46-2.07-1.79-2.93-2.88-.84.69-1.59,1.3-2.36,1.93,1.67,1.32,3.37,1.42,5.29.94ZM18.01,55.66c-.39-.92-.7-.98-4.05-1.08-2.55-.08-4.18.13-4.51,1.37,2.84-.1,5.67-.19,8.56-.29ZM11.13,53.36l.02.33c.34.11.69.33,1.02.3,1.66-.11,3.32-.27,4.98-.46.28-.03.58-.23.78-.44.16-.17.31-.5.25-.69-.06-.18-.39-.33-.63-.37-.22-.04-.48.06-.72.1-1.53.27-3.06.54-4.58.83-.39.08-.75.27-1.13.4Z"/>
        <path d="M113.95,18.22c4.15-4.09,8.25-8.12,12.25-12.06,3.37,2.23,6.58,4.34,9.78,6.47.57.38,1.11,1.14,1.65,1.13.48,0,.92-.87,1.41-1.33,2.06-1.91,4.13-3.81,6.19-5.71l-.27-.31c.11.05.23.09.31.16,2.24,2.03,4.61,3.94,6.68,6.13,3.28,3.47,7.05,6.3,10.88,9.08,1.58,1.15,3.15,2.31,4.68,3.53,1.05.84,1.06,1.11.22,2.17-.53.67-1.14,1.27-1.73,1.89-2.27,2.43-4.55,4.86-6.82,7.3-.27.29-.46.65-.76,1.07-1.1-1.18-2.01-2.11-2.86-3.11-.21-.25-.23-.67-.28-1.03-.44-3.1.17-6.13.59-9.19.28-2.05.23-4.14.35-6.21.03-.55-.24-.66-.71-.69-1.83-.1-3.66-.31-5.48-.32-7.51-.04-15.03-.13-22.54.02-4.39.09-8.76.63-13.14.96-.11,0-.22.01-.41.02ZM156.67,21.51c.33.36.45.52.6.65.71.62,1.47,1.2,2.13,1.87.26.26.54.85.42,1.08-.23.43-.73.74-1.15,1.05-.12.09-.37-.02-.54.04-.3.11-.58.29-.87.44.2.31.36.66.62.92.15.15.44.19.68.24.72.15.9.61.68,1.22-.24.65-.56,1.28-.86,1.91-.23.49-.48.96-.72,1.45.08.05.17.1.25.16.23-.18.48-.34.67-.55.9-1.03,1.8-2.07,2.67-3.13.35-.43.66-.77,1.3-.5.2.08.58.02.74-.13.74-.67.54-1.81-.39-2.1-.71-.22-.84-.67-1.01-1.31-.19-.72-.52-1.54-1.06-2.02-1.07-.95-2.47-1.23-4.18-1.28ZM125.95,8.61c-.47,1.3-.98,2.65-1.42,4.03-.07.23.08.7.28.83.63.41,1.32.73,2,1.06.71.35,1.19.07.97-.65-.3-.94.22-1.25.84-1.59q2.48,1.77,3.37,1.67c-1.97-1.74-3.91-3.46-6.04-5.35ZM149.64,14.45c.07-.1.14-.2.21-.3-.29-.24-.57-.51-.87-.73-.72-.51-1.48-.96-2.17-1.51-.23-.18-.42-.61-.38-.89.18-1.12.11-1.26-1.06-1.34-.82-.06-1.56.18-1.94.92-.15.28-.04.84.15,1.14.48.71,1.23.62,1.99.49.29-.05.67.03.93.19,1.07.65,2.1,1.36,3.15,2.04Z"/>
        <path d="M40.38,106.8c5.37,1.42,10.5,2.09,15.65,2.67,1.69.19,3.41.11,5.12.23,3.69.25,7.37.51,11.05.82,4.41.37,8.8.08,13.17-.43,4.08-.48,8.13-1.27,12.19-1.94.39-.06.76-.2,1.22-.32.18.43.34.85.54,1.25.16.31.37.58.56.87.23-.23.46-.46.68-.69.4.48.4.68-.25.9-.83.28-1.7.45-2.56.64-4.83,1.03-9.66,2.02-14.48,3.1-2.57.58-5.15.47-7.75.47-8.8-.01-17.6.03-26.4,0-2.38-.01-4.75-.24-7.13-.36-.67-.03-1.06-.29-1.11-1.02-.15-2-.32-3.99-.5-6.17ZM57.25,111.64c-.33-.24-.55-.51-.67-.47-.24.09-.42.33-.62.52.15.15.32.45.43.43.25-.04.47-.25.86-.48ZM94.76,109.39c-.37.41-.62.69-.87.97.15.11.32.33.44.31.55-.1.69-.47.43-1.28ZM92.67,110.57c-.38-.24-.61-.49-.72-.44-.27.1-.48.35-.71.53.15.14.32.43.44.4.28-.05.53-.25,1-.5Z"/>
        <path d="M167.77,146.44c0,6.69,0,13.43,0,20.17,0,.98-.39,1.33-1.34,1.31-5.19-.13-10.37-.25-15.56-.42-1.02-.03-2.03-.23-3.19-.37.3-.39.52-.67.73-.96,1.68-2.28,3.34-4.59,5.06-6.84.62-.82,1.33-1.61,2.1-2.29,4.05-3.56,8.13-7.08,12.21-10.61ZM150.42,166.46c.07.09.14.19.21.28,1.34-.73,2.72-1.41,4.03-2.21,1.6-.98,3.23-1.86,5.07-2.25.84-.18,1.19-.62,1.09-1.47-.21-1.75.46-3.21,1.51-4.56,1.08-1.4,2.09-2.85,3.13-4.29.12-.17.2-.37.29-.56-5.94,4.23-10.15,10.13-15.33,15.05Z"/>
        <path d="M5.7,26.24c.15-5.95.29-11.9.44-17.85.03-1.13.06-2.26.11-3.39.03-.77.31-1.29,1.22-1.24,6.35.31,12.69.61,19.04.92.14,0,.27.05.49.1-1.49,1.81-2.98,3.49-4.34,5.28-2.63,3.48-5.69,6.51-9.07,9.27-2.4,1.97-4.56,4.24-6.82,6.38-.24.22-.49.42-.74.64-.11-.03-.22-.07-.33-.1ZM23.55,6.34c-.05-.07-.1-.15-.14-.22-.47.19-.93.38-1.4.56-3.16,1.19-6.33,2.37-9.5,3.55-1.15.43-1.4.65-.98,1.51.82,1.69.28,3.01-.75,4.38-1.08,1.43-2.02,2.98-2.98,4.49-.23.36-.3.81-.44,1.22.07.05.15.09.22.14,5.79-4.74,10.71-10.35,15.98-15.63Z"/>
        <path d="M148.11,5.09c3.87-.3,7.79-.64,11.71-.91,2.59-.18,5.18-.31,7.77-.4,1.48-.05,1.74.2,1.66,1.7-.25,5.06-.56,10.12-.84,15.18-.06,1.03-.12,2.05-.2,3.38-.56-.43-.96-.65-1.22-.97-2.86-3.45-6.33-6.14-10.04-8.6-1.3-.86-2.36-2.09-3.53-3.16-1.66-1.52-3.26-3.1-4.98-4.55-.62-.53-.78-.93-.32-1.66ZM167.33,19.22c-.23-.32-.43-.66-.68-.96-1.81-2.18-3.06-4.55-2.72-7.51.1-.84-.47-1.22-1.23-1.28-3.46-.31-6.64-1.51-9.73-3.01-.28-.14-.58-.24-.88-.36,4.12,5.5,9.3,9.74,15.23,13.13Z"/>
        <path d="M26.72,166.22c-.25.07-.36.12-.47.13-5.61.33-11.21.67-16.82.99-.55.03-1.1.05-1.65.05-1.17.01-1.47-.24-1.54-1.41-.39-6.68-.41-13.36-.14-20.05,0-.17.03-.35.06-.7,6.56,7.39,14.15,13.53,20.55,20.99ZM8.08,151.15c-.07.04-.14.08-.22.12.55,2.77,1.06,5.54,1.65,8.3.39,1.81.94,2.18,2.75,1.97,1.75-.2,3.42.03,4.98.8,1.64.81,3.24,1.69,4.86,2.53.28.14.57.26.86.39.05-.07.1-.15.15-.22-4.61-5.06-9.97-9.33-15.05-13.89Z"/>
        <path d="M59.53,165.76c-1.57.1-2.97.16-4.36.28-2.43.21-4.86.59-7.29.66-2.13.07-4.27-.18-6.4-.3-2.9-.16-5.79-.34-8.69-.51-.11,0-.22-.02-.5-.05.34-.26.53-.43.74-.58,2.47-1.75,4.93-3.5,7.4-5.24.47-.33.98-.62,1.43-.99,2.25-1.87,4.94-1.88,7.63-1.83.3,0,.65.19.9.39,1.43,1.15,2.88,2.27,4.24,3.5,1.63,1.47,3.17,3.02,4.9,4.68ZM46.61,161.81c1.7-.18,3.29-.34,5.02-.52-.73-1.03-1.38-1.57-2.45-1.28-.31.09-.66.03-1,.05-1.15.05-1.34.24-1.58,1.75Z"/>
        <path d="M119.27,166.1c-7.8-.23-15.6-.45-23.51-.68.17-.2.3-.41.48-.57,1.98-1.72,3.89-3.54,5.98-5.11,1.37-1.03,2.97-1.8,4.57-2.45.82-.33,1.88-.03,2.79-.21,1.22-.24,1.94.33,2.69,1.15,2.34,2.56,4.75,5.07,7.13,7.6-.04.09-.08.17-.12.26ZM112.33,160.03c-.56-.06-.97-.13-1.39-.15-1.27-.06-2.55-.03-3.8-.19-.8-.1-1.34.06-1.72.75,1.89,1.46,5.18,1.32,6.91-.42Z"/>
        <path d="M112.33,17.97c-7.55-.44-15.05-.88-22.55-1.32l-.07-.31c.9-1.07,1.75-2.18,2.71-3.2,1.82-1.94,3.69-3.82,5.54-5.74.85-.89.82-.82,1.72-.07,2.77,2.34,5.6,4.62,8.4,6.93,1.27,1.05,2.53,2.12,3.79,3.18.18.15.32.34.48.51ZM103.23,15.6c-.52-2.71-1.69-4.76-4.05-6.06-.78,1.29-2.21,2.22-2.73,4.03,1.4-.18,2.51-.31,3.62-.46.66-.09,1.14.06,1.54.66.42.62.99,1.13,1.62,1.83Z"/>
        <path d="M163.21,90.33c1.64-1.49,3.09-2.79,4.53-4.1.12.04.23.08.35.13-.75,8.37-.37,16.73.08,25.09-.07.02-.15.04-.22.07-.45-.65-.89-1.31-1.35-1.95-2.88-3.98-5.77-7.95-8.64-11.94-.82-1.14-.75-1.1.19-2.2.61-.71,1.22-.81,2.14-.75,2.17.13,4.36.04,6.63.04-.11-.8-.66-.98-1.17-1.07-1.7-.29-3.41-.53-5.22-.8.52-.48,1.12-1.05,1.74-1.58.07-.06.27.04.41.04,1.11-.02,2.23-.02,3.34-.08.17,0,.32-.29.49-.44-.17-.15-.34-.42-.52-.43-.82-.05-1.64-.02-2.76-.02ZM162.42,97.59s0-.09,0-.14c1.04,0,2.08,0,3.11,0,.19,0,.5-.09.53-.2.06-.24.07-.58-.07-.76-.16-.22-.5-.45-.75-.45-2.03.03-4.07.08-6.09.21-.31.02-.58.49-.87.75.37.2.73.54,1.12.57,1,.08,2.01.03,3.02.03ZM162.78,100.01s0,0,0-.01c.7,0,1.41.06,2.1-.03.25-.03.51-.36.66-.62.05-.08-.18-.49-.34-.53-1.53-.34-3.07-.53-4.59.04-.23.09-.37.41-.55.63.23.17.45.47.7.5.66.07,1.34.02,2.01.02ZM163.02,100.85c-.04-.07-.08-.13-.13-.2-.45.29-.9.59-1.36.88.53.22,1.05.61,1.58.61.4,0,.8-.5,1.2-.77-.4-.17-.8-.35-1.21-.52-.03-.01-.06,0-.09,0Z"/>
        <path d="M107.74,11.85c-2.54-2.12-5.02-4.19-7.64-6.39,8-.49,15.89-.59,24.11.21-2.28,2.09-4.4,4.02-6.43,5.87-1.52-.66-2.95-1.25-4.35-1.88-1.11-.5-2.07-.23-3.01.41-.9.61-1.81,1.2-2.68,1.78Z"/>
        <path d="M91.16,11.93c-1.31-.44-2.51-.87-3.72-1.26-.94-.3-1.79-.17-2.55.52-.84.78-1.72,1.52-2.64,2.32-1.99-2.53-4-5.09-6.14-7.8,6.86-.63,13.54-.59,20.39-.36-1.88,2.32-3.64,4.49-5.33,6.58Z"/>
        <path d="M57.84,13.01c-.22-.13-.49-.22-.67-.4-2.18-2.27-4.35-4.55-6.52-6.83-.06-.06-.09-.15-.2-.32,7.22.11,14.37.21,21.57.32-.1.15-.19.33-.32.48-1.41,1.69-2.85,3.35-4.23,5.06-.54.68-.97.83-1.81.42-1.22-.59-2.56-.95-3.86-1.39-.22-.08-.52-.16-.71-.07-1.31.63-2.54,1.36-3.26,2.71h0Z"/>
        <path d="M89.88,137.4c-.98,1.29-2.07,1.73-3.46,1.49-1.44-.26-2.88-.58-4.33-.75-3.23-.39-6.43-1.26-9.73-.85-.9.11-1.82.25-2.68.54-3.32,1.12-6.61,2.34-9.61,4.22-.68.42-1.33.59-2.16.44-.82-.14-1.7-.04-2.55.05-2.86.28-5.64.12-8.07-1.63-3.91-2.81-8.24-3.16-12.77-2.23-2.89.59-5.74,1.43-8.64,1.98-1.6.3-3.28.29-4.92.31-.58,0-1.19-.25-1.74-.49-.87-.38-1.16-1.12-1.01-2.04.14-.85.41-.96,1.18-.56.86.44,1.72.95,2.64,1.23,1.81.55,3.62.21,5.41-.29,2.7-.75,5.41-1.47,8.12-2.21.58-.16,1.16-.33,1.82-.51.15.62.87.43,1.5.51,3.1.37,6.14.89,8.77,2.83,2.65,1.96,5.69,2.74,8.93,2.03,2.04-.44,4.02-1.19,5.99-1.9,2.47-.89,4.87-1.96,7.35-2.78,2.17-.71,4.43-.52,6.62-.01,4,.93,8.04.99,12.11.7.35-.02.7-.04,1.24-.07Z"/>
        <path d="M159.95,39.33c2.75-3.8,5.47-7.54,8.18-11.29-.28,7.46,1,14.87.21,22.31-2.15-4.21-4.76-8.02-8.39-11.03Z"/>
        <path d="M168.13,57.6c.15,6.52.29,13.05.44,19.57l-.35.09c-.3-.32-.61-.64-.9-.98-2.27-2.56-4.55-5.11-6.79-7.7-.2-.23-.39-.79-.26-.96,2.48-3.39,5.01-6.75,7.54-10.11.11.03.22.05.33.08Z"/>
        <path d="M6.76,28.39c2.32,4.64,4.63,9.28,6.95,13.92.39.77.25,1.28-.48,1.76-1.2.78-2.35,1.65-3.52,2.48-1.07.75-2.14,1.5-3.35,2.35v-20.38c.13-.04.27-.08.4-.12Z"/>
        <path d="M98.58,23.75c.26-.36.47-.69.72-.99,1.11-1.31,2.85-1.11,3.44.48.3.79.69,1.24,1.49,1.51.53.18.95.66,1.43.97.81.52,1.63,1.02,2.48,1.55-.2.72-1.07,1.07-1.99.59-.58-.3-.99-.3-1.57.01-1.36.74-2.29.47-3.4-.85-.87.47-1.71,1.04-2.62,1.39-1.05.41-1.68,0-2.37-1.28-.66.49-1.3,1-1.98,1.45-.9.59-1.83.8-2.82.14-.17-.12-.53,0-.79.07-.87.22-1.73.52-2.61.68-.31.06-.74-.14-.99-.36-.22-.19-.34-.57-.34-.86,0-.13.4-.36.63-.38.86-.09,1.48-.51,1.97-1.19.16-.22.35-.42.55-.61,1.24-1.23,2.01-1.34,3.61-.5.21-1.37.37-2.79,1.97-3.28,1.46-.45,2.34.48,3.19,1.49Z"/>
        <path d="M65.37,16.11c3.18-3.18,6.22-6.23,9.24-9.26,3.17,3.47,6.23,6.82,9.41,10.31-6.2-.35-12.27-.69-18.66-1.05ZM72.52,14.34c1.77.14,3.33.26,4.86.37.29-1.39-.23-2.3-1.48-2.89-.62-.29-1.16-.76-1.89-1.26-.51,1.31-1.02,2.58-1.48,3.77Z"/>
        <path d="M5.49,122.62c.27.23.42.32.53.45,2.32,2.92,4.62,5.85,6.96,8.75.52.64.38,1-.16,1.58-2.1,2.21-4.12,4.5-6.17,6.76-.2.22-.38.46-.6.73-.18-6.09-.36-12.09-.55-18.27Z"/>
        <path d="M168.29,52.48c-2.46,1.67-4.68,3.18-6.91,4.69-.09-.09-.18-.18-.27-.26.65-1.01,1.24-2.06,1.95-3.02.5-.67.54-1.19,0-1.85-2.02-2.48-3.98-5.02-6.03-7.48-.66-.79-1.03-1.55-1.03-2.61,0-1.73-.19-3.47-.3-5.2,4.19,5.23,8.38,10.47,12.58,15.73Z"/>
        <path d="M55.36,115.33c-4.95.64-9.74.73-14.43-.68,8.16.97,16.34-.26,24.73.41-.95.11-1.7.21-2.45.27-.79.06-1.59.08-2.38.1-.78.02-1.55,0-2.33.09,1.66,1.18,3.49,1.33,5.38.95,1.85-.37,3.68-.88,5.53-1.24,1.74-.34,3.39-.29,4.97.82,1.89,1.33,4.13,1.3,6.36,1.14-.75.69-2.3.96-3.57.56-.66-.21-1.37-.42-1.93-.81-2.44-1.7-5.02-1.54-7.72-.79-1.55.43-3.14.74-4.73,1.05-1.14.22-2.32.11-3.25-.59-1.26-.96-2.58-.79-3.92-.45-1.5.38-2.98.87-4.46,1.35-1.77.59-3.45.62-5.1-.38-2.07-1.25-4.16-1.17-6.25,0-.58.33-1.18.64-1.79.92-1.21.55-2.42.6-3.61-.06-1.42-.79-2.75-.69-4.13.2-1.74,1.12-3.63,1.86-5.76,1.87-.47,0-.94.19-1.48.31,1.65,1.41,4.15,1.69,5.7.31,2.06-1.82,4.13-1.76,6.45-.82,1.2.48,1.22.42,4.07-.18-.26.24-.49.54-.79.72-.99.58-2.07.7-3.19.49-.9-.17-1.79-.4-2.69-.54-.93-.15-1.79.01-2.61.56-2.21,1.5-4.54,1.71-6.9.37-1.38-.78-2.78-.73-4.25-.3.14-.74.14-.75,1.11-.92.51-.09,1.03-.15,1.54-.15.51,0,1.03.1,1.57.04-.94-.76-2.33-.67-3.21-1.98.49.1.76.15,1.02.22,1.09.29,2.16.63,3.26.87,1.2.26,2.37.08,3.47-.47.82-.41,1.64-.81,2.47-1.2,1.23-.58,2.49-.71,3.69,0,1.62.97,3.17.82,4.78,0,.94-.49,1.92-.94,2.91-1.33,1.39-.55,2.83-.62,4.16.15,3.3,1.93,6.42.75,9.56-.44.04-.01.05-.1.19-.4Z"/>
        <path d="M50.27,123.13c1.41-.87,2.56-1.65,3.77-2.32,1.11-.61,2.31-.72,3.53-.25,1.02.4,2.06.75,3.08,1.17,2.06.86,3.85.39,5.53-.97.83-.67,1.72-1.28,2.66-1.77,1.49-.79,3.08-.7,4.63-.19,3.04.99,5.68.36,8.28-1.47,1.38-.98,3.12-1.5,4.75-2.05.48-.16,1.15.37,1.75.46,2.05.31,4.09.67,6.15.8,1.7.11,3.41-.03,5.12-.14,1.83-.12,3.64-.38,5.47-.48,1.09-.06,2.21-.05,3.27.17,1.73.35,3.32.18,4.86-.69,1.83-1.03,3.73-1.11,5.83-.75,2.67.46,5.46.56,7.92-.92,2.01-1.21,4.22-1.47,6.45-1.75-1.07.3-2.15.57-3.21.92-.81.27-1.61.57-2.35.98-1.71.93-3.51,1.39-5.45,1.3-1.64-.07-3.28-.29-4.9-.18-1.53.11-3.11.38-4.54.91-1.77.66-3.46.95-5.35.68-1.3-.18-2.66.07-4,.14-2.29.11-4.58.11-6.85.35-2.39.26-4.68,0-6.96-.65-2.97-.84-5.7-.1-8.24,1.4-1.83,1.08-3.55,2.38-5.82,2.45.02.11.04.23.06.34.58-.03,1.21.08,1.72-.13,1.38-.55,2.7-1.25,4.06-1.85,1.61-.71,3.21-1.44,4.86-2.05,1.19-.44,2.41-.17,3.58.26.34.13.69.26,1.01.43,1.26.67,2.51.98,3.93.41.6-.24,1.32-.2,1.98-.21.2,0,.4.25.6.38-.19.1-.37.25-.57.28-.88.09-1.77.22-2.64.19-1.11-.04-2.35.06-3.29-.39-2.91-1.4-5.57-.88-8.2.61-.9.51-1.7,1.21-2.63,1.67-.91.45-1.91.79-2.9,1.02-.49.11-1.08-.07-1.58-.26-1.05-.39-2.06-.88-3.1-1.32-1.67-.7-3.17-.36-4.66.62-1.44.95-2.94,1.85-4.5,2.56-1.66.76-3.24.4-4.67-.82-1.97-1.68-3.66-1.6-5.66.05-.53.44-1.16.77-1.78,1.07-.21.1-.53-.01-.97-.04Z"/>
        <path d="M18.39,145.84c.51.08.9.09,1.24.21.37.13.72.33,1.04.56,2.07,1.48,4.31,1.71,6.72,1.06,1.41-.38,2.86-.63,4.28-.99,2.57-.65,5.08-.38,7.57.41,3.18,1.01,6.31.95,9.38-.44.97-.44,1.99-.79,2.95-1.25,3-1.43,6.17-2.05,9.48-2.12,2.16-.05,4.34-.17,6.48-.48,1.33-.19,2.68-.64,3.89-1.24,2.63-1.3,5.23-1.44,7.92-.19-.54-.05-1.09-.07-1.63-.16-1.61-.29-3.27-.33-4.63.55-3.15,2.04-6.7,2.45-10.25,2.62-5.11.24-9.8,1.86-14.38,3.93-.83.38-1.67.75-2.53,1.05-1.89.68-3.7.57-5.44-.51-3.34-2.07-6.87-2.4-10.64-1.26-1.76.53-3.62.85-5.46,1.05-2.29.24-4.04-1.14-5.83-2.3-.06-.04-.06-.16-.16-.51Z"/>
        <path d="M167.72,140c-2.06-2.69-4.21-5.48-6.32-8.3-.19-.26-.3-.83-.15-1.05,2.15-3.11,4.34-6.18,6.53-9.26.12.03.23.07.35.1-.14,6.23-.27,12.46-.4,18.5Z"/>
        <path d="M121.69,75.44c.49-1.43.9-2.93,2.68-3.04,1.51-.1,2.29.92,2.67,2.12.9.14,1.77.15,2.53.43.86.32,1.2,1.09.85,2.11.75.09,1.43.18,2.12.26-.21.98-.92,1.45-2.09,1.25-.79-.14-1.38-.13-2.04.48-.66.61-1.57.5-2.28-.05-.53-.41-.97-.45-1.57-.17-1.47.68-1.9.54-2.87-.78-.37.3-.72.63-1.11.89-.95.63-1.65.49-2.42-.33-.18-.19-.6-.25-.88-.21-.6.08-1.17.34-1.77.37-.26.01-.53-.38-.8-.58.26-.21.48-.51.78-.6.36-.12.82.02,1.17-.12.44-.19.97-.46,1.18-.85.91-1.7,2.07-2.1,3.87-1.16Z"/>
        <path d="M22.83,39.51c-2.3.64-2.46.61-2.64-.44.44-.08.91-.09,1.31-.27.42-.18.89-.45,1.11-.81.81-1.37,1.87-1.73,3.29-1,.13.07.26.14.4.22.42-2.02,1.37-3.11,2.68-3.14,1.32-.03,2.19.84,2.65,2.6.82.04,1.64-.02,2.42.15.84.18,1.37.78,1.26,1.79.68.04,1.33.09,1.98.13-.16,1.17-1.25,1.84-2.49,1.49-.69-.19-1.15-.15-1.66.4-.61.65-1.51.58-2.44.04-.25-.15-.7-.32-.86-.21-1.33.94-2.39.76-3.12-.63-.79.44-1.44.99-2.19,1.17-1.01.24-1.38-.65-1.67-1.49Z"/>
        <path d="M5.72,79.37c.16-5.34.32-10.56.48-15.97,1,1.12,1.97,1.98,2.66,3.03.87,1.33,2.34,2.05,3.15,3.43.6,1.02,1.38,1.93,2.09,2.88.32.42.26.74-.11,1.11-1.44,1.41-6.1,4.56-8.27,5.51ZM13.21,73.84c-1.28,0-2.39.02-3.5,0-.54-.01-1.1-.23-1.62-.14-.4.07-.74.47-1.1.72.36.23.7.63,1.07.66,1.09.09,2.19.07,3.28.02.74-.04,1.4-.33,1.87-1.26ZM13.21,72.32l.09-.31c-.47-.18-.94-.48-1.42-.51-1.34-.08-2.69-.07-4.03-.05-.21,0-.42.23-.63.36.19.17.37.48.56.49,1.81.04,3.62.02,5.43.02ZM11.56,69.83c-1.01-.95-2.77-.95-3.31,0h3.31Z"/>
        <path d="M46.77,5.27c-2.36,2.07-4.59,4.05-6.85,5.98-.23.2-.8.33-.98.19-2.66-2.04-5.27-4.13-7.9-6.21-.09-.07-.15-.18-.34-.4,5.45-.39,10.73.08,16.08.44Z"/>
        <path d="M42.86,134.37c.59.19,1.02.25,1.38.44.98.55,2.01,1.06,2.89,1.76,3.3,2.63,6.95,3.34,10.93,2.06,1.81-.58,3.58-1.37,5.28-2.23,2.04-1.04,4-2.35,6.35-2.46,1.65-.08,3.37.06,4.98.43,3.88.87,7.68.54,11.51-.26,2.14-.45,4.29-.21,6.46.39-.32.78-.9.67-1.42.67-2.56-.02-5.13-.11-7.69-.06-3.88.08-7.75.24-11.63.38-3.01.11-5.83.84-8.43,2.43-3.36,2.06-7.07,2.78-10.97,2.5-1.91-.14-3.57-1.01-5.05-2.2-1.49-1.2-2.93-2.45-4.6-3.84Z"/>
        <path d="M13.03,99.45c-2.9,1.58-5.19,3.89-6.94,6.85-.15-5.58-.29-11.03-.44-16.56,2.49,3.28,4.9,6.44,7.38,9.71Z"/>
        <path d="M127.33,166.29c2.02-1.93,4.03-3.87,6.08-5.78.17-.16.67-.19.85-.06,2.83,2.06,5.63,4.17,8.44,6.26.06.05.09.13.25.38-5.25-.14-10.36-.27-15.47-.4-.05-.13-.1-.27-.15-.4Z"/>
        <path d="M120.23,119.12c-.55,0-1.12.08-1.65-.01-2.27-.4-4.44.06-6.57.75-1.86.61-3.71,1.24-5.71,1.14-.07,0-.14.07-.42.21,1.53.42,2.87.36,4.2.12,1.34-.24,2.67-.57,4.06-.76-.41.2-.82.4-1.24.58-3.24,1.44-6.62,1.34-9.99.77-3.24-.55-6.32-.28-9.28,1.17-1.59.78-3.15,1.6-4.75,2.35-1.33.63-2.72.63-3.96-.14-2.63-1.62-5.36-1.54-8.21-.79-1.79.47-3.61.9-5.43,1.21-.69.12-1.48-.02-2.16-.23-1.28-.4-2.52-.43-3.77,0-2.46.85-4.92.52-7.39.1,0-.08-.01-.16-.02-.24.31-.03.63-.13.92-.09,2.49.39,4.91.26,7.31-.6.72-.26,1.7-.29,2.4-.02,1.68.64,3.28.48,4.93.05,1.59-.42,3.18-.85,4.77-1.25,1.8-.45,3.59-.39,5.29.36,2.85,1.25,5.58,1.01,8.26-.48.4-.22.84-.38,1.23-.61,3.1-1.91,6.4-2.19,9.87-1.3.7.18,1.44.23,2.17.28.23.01.47-.18.66-.46-3.46-.66-6.92-1.31-10.53-2,.55-.04.99-.07,1.42-.1,2.42-.19,4.71.44,7.04.95,2.74.6,5.46.54,8.09-.55,2.67-1.11,5.42-1.4,8.25-.75.07.02.13.08.2.11,0,.07,0,.14,0,.22Z"/>
        <path d="M68.36,165.68c2.52-1.77,5.04-3.53,7.51-5.26,2.78,1.82,5.5,3.61,8.42,5.52h-15.86c-.02-.09-.04-.17-.06-.26Z"/>
        <path d="M49.09,25.51c-1.28.72-2.53.8-3.83-.1-.32-.22-.98.05-1.48.12-.57.07-1.13.23-1.7.23-.23,0-.46-.32-.68-.49.16-.2.27-.46.48-.59.7-.43,1.42-.83,2.15-1.22.97-.51,1.98-.81,3.11-.4.51-1.33,1.18-2.48,2.82-2.41,1.03.04,1.56.62,2.07,2.21,1.91-.47,2.71,1.4,4.18,1.92-.44,1.05-1.19,1.33-2.26,1.03-.37-.1-.88-.07-1.22.1-1.31.67-2.41.58-3.65-.42Z"/>
        <path d="M146.38,48.77c-1.28.72-2.53.8-3.83-.1-.32-.22-.98.05-1.48.12-.57.07-1.13.23-1.7.23-.23,0-.46-.32-.68-.49.16-.2.27-.46.48-.59.7-.43,1.42-.83,2.15-1.22.97-.51,1.98-.81,3.11-.4.51-1.33,1.18-2.48,2.82-2.41,1.03.04,1.56.62,2.07,2.21,1.91-.47,2.71,1.4,4.18,1.92-.44,1.05-1.19,1.33-2.26,1.03-.37-.1-.88-.07-1.22.1-1.31.67-2.41.58-3.65-.42Z"/>
        <path d="M155.27,79.68v-1.2c1.62.44,3.16.48,4.8-.32-1.39-1.55-3.08-1.05-4.71-1.16-.02-.28-.04-.57-.06-.88,1.06-.06,2.06-.12,3.14-.19-.63-1.33-1.07-1.49-3.07-1.23v-2.99c1.37,1.49,2.69,2.81,3.87,4.25,1.6,1.96,3.08,4.02,4.65,6.01.49.62.44,1.03-.05,1.65-.83,1.08-1.7,1.57-3.16,1.38-1.77-.23-3.59-.05-5.46-.05v-1.4h8.01c-.37-.91-1.63-1.14-7.91-1.52v-1.04h6.58c0-.13.02-.25.03-.38-2.22-.19-4.22-1.56-6.65-.92Z"/>
        <path d="M143.01,5.64c-.96,1.02-1.94,2.01-2.87,3.06-.77.86-1.49,1.78-2.18,2.61-3.31-2.14-6.25-4.04-9.18-5.94h14.13c.03.09.07.18.1.27Z"/>
        <path d="M113.03,56.11c.34-.86,1.02-1.78,2.41-1.66,1.17.1,1.63.93,1.78,2.13,1.11-.41,1.59.42,2.24,1,.62.55,1.34.98,2.02,1.46-.63.63-1.74.77-2.88.1-.77-.45-1.4-.72-2.16-.12-.11.09-.29.14-.43.12-1.41-.15-2.82-.32-4.23-.46-.31-.03-.63.01-.94.05-1.2.16-2.39.41-3.59.46-.37.01-1.03-.5-1.07-.83-.08-.63.6-.55,1.06-.67,1.11-.28,2.19-.65,3.3-.96.76-.21,1.53-.39,2.5-.63Z"/>
        <path d="M17.94,109.41c-.05.39-.08.66-.12.96-1.75.07-3.63-.64-5.22,1.11,1.88.11,3.54.2,5.26.29.04.44.07.8.11,1.35-.81-.11-1.54-.32-2.27-.3-1.45.04-2.9.17-4.35.34-.35.04-.67.37-1.01.56.01.09.03.19.04.28h7.51c.06.52.1.84.14,1.2h-7.24c.1.7.57.79,1.07.82,1.71.11,3.41.23,5.12.34.36.02.72.05,1.12.07v1.05c-2.06,0-4.07,0-6.07-.01-.2,0-.44-.15-.59-.3-.19-.19-.3-.46-.44-.69-.48-.77-1.39-1.57-1.33-2.29.06-.74,1.07-1.4,1.67-2.08.81-.92,1.6-1.85,2.46-2.72.24-.24.71-.36,1.06-.34,1,.05,1.99.21,3.09.34Z"/>
        <path d="M25.55,123c.2,0,.41-.05.59,0,.99.3,1.91.03,2.71-.49,1.7-1.1,3.47-1.22,5.34-.58,1.42.49,2.83.48,4.18-.21.61-.32,1.18-.75,1.7-1.21,1.04-.93,1.98-1.2,3.17-.48,3.61,2.18,7.02,1.21,10.29-.67,2.64-1.52,5.21-1.26,7.66.07,1.59.87,2.94.98,4.45.09.38-.22.79-.41,1.4-.72-1.77,1.98-3.47,2.27-5.66,1.48-1.47-.53-3.05-.82-4.61-1.05-1.35-.19-2.58.38-3.67,1.16-1.74,1.24-3.68,1.69-5.79,1.65-1.3-.02-2.44-.43-3.56-1.03-1.71-.91-2.22-.82-3.49.58-1.53,1.68-3.5,2.03-5.45,1.24-2.35-.95-4.39-.92-6.44.6-.43.31-1.1.42-1.65.4-.43-.01-.85-.36-1.27-.56.04-.1.08-.2.12-.29Z"/>
        <path d="M146.94,67.58c-.99.65-1.97.81-3.03.02-.22-.17-.73.03-1.1.1-.77.14-1.55.62-2.54-.3,2.06-.42,3.23-2.69,5.62-1.74.52-1.09,1.15-2.15,2.6-2.01,1.08.11,1.49.94,1.62,1.59.8.35,1.4.65,2.02.88.46.17.95.27,1.43.4-.24.92-.89,1.24-2,1.09-.35-.05-.81.05-1.1.25-.95.66-1.99.61-3.51-.29Z"/>
        <path d="M10.22,84.84c2.52.98,5.09.05,7.65.42.19,1.18.15,1.26-1.19,1.28-1.49.02-2.99-.05-4.48-.02-.37,0-.73.25-1.23.44-.49-.71-1.08-1.55-1.73-2.48,2.7-2.57,5.4-5.09,8.98-6.66-.12,2.23-.23,4.35-.33,6.32-1.3-.06-2.63-.19-3.95-.17-1.27.02-2.69-.51-3.73.86ZM17.76,82.66c.03-.86-.5-1.21-1.13-1.22-1.15-.02-2.32.03-3.46.19-.45.06-.86.49-1.29.75.04.1.08.19.13.29h5.75ZM14.59,80.46c1.18-.09,2.18-.17,3.32-.26-.79-.96-2.37-.83-3.32.26Z"/>
        <path d="M49.37,145.12c-.71.26-1.4.6-2.13.77-2.25.5-4.34-.29-6.43-.97-2-.65-3.96-1.42-6-1.92-2.77-.68-5.51-.1-8.22.58-.49.12-1,.15-1.53.22.01-.19,0-.28.02-.29,3.72-1.61,7.53-2.78,11.62-1.8,1.61.39,3.15,1.12,4.7,1.76,1.72.71,3.41,1.52,5.32,1.55.84.01,1.69-.12,2.53-.19.04.1.08.2.11.3Z"/>
        <path d="M99.09,106.85c.32-.12.68-.41.94-.34,2.54.7,4.88.16,7.17-.98,1.21-.6,2.4-.63,3.65.11,1.39.82,2.92.6,4.31-.07.9-.43,1.71-.49,2.62-.1,2.01.87,3.98.87,6.01-.08.53-.25,1.42-.13,1.99.15,1.73.83,3.42,1.04,5.31.5.92-.26,2.03,0,3.03.16.62.1,1.18.48,1.79.69.82.29,1.62.28,2.35-.27,1.35-1.01,2.84-1.23,4.42-.67,2.05.72,4.05.83,6.03-.2.12-.06.28-.04.65-.1-.82,1.01-1.78,1.36-2.76,1.36-1.17,0-2.36-.19-3.5-.48-1.52-.39-2.97-.37-4.34.41-1.16.66-2.38.72-3.53.23-1.79-.76-3.56-.73-5.37-.25-1.06.28-2.04.2-3.03-.25-1.36-.62-2.67-.92-4.2-.29-1.39.57-2.95.46-4.39-.15-1.16-.49-2.28-.5-3.45-.03-1.52.61-3.07.52-4.53-.19-1.08-.53-2.09-.48-3.15.04-2.11,1.04-4.29,1.77-6.7,1.35-.24-.04-.48-.07-.72-.12-.17-.04-.34-.1-.51-.15-.03-.09-.06-.19-.09-.28Z"/>
        <path d="M82.79,143.44c-.36.38-.51.67-.73.75-.74.24-1.52.62-2.26.56-3.48-.26-6.82.24-10.04,1.53-2.31.92-4.7.95-7.12.65-2.4-.3-4.7-.02-7.02.79-2.03.7-4.2,1-6.31,1.48-.44.1-.88.22-1.48.15.19-.17.35-.43.57-.5.76-.23,1.54-.35,2.3-.58,1.72-.5,3.48-.92,5.14-1.59,2.54-1.01,5.12-1.33,7.7-.5,2.32.74,4.45.38,6.58-.49,2.43-1,4.85-2.06,7.51-2.23,1.62-.1,3.26-.02,5.17-.02Z"/>
        <path d="M156.35,45.45c.57.47,1.04.85,1.61,1.32-.38.14-.65.19-.85.34-.21.16-.49.44-.47.63.03.22.34.47.58.56.27.09.61.06.9,0,.79-.14,1.19.24,1.47,1.05-1.21-.35-2.32-.34-3.33.38,1.19.53,2.36.98,3.67.22.8.95,1.62,1.92,2.46,2.92-.28.35-.54.68-.78.98-1.6-.24-3.16-.49-4.72-.7-.22-.03-.5.04-.69.16-.19.11-.41.34-.41.52,0,.15.28.4.47.43.84.12,1.69.18,2.54.24.69.05,1.38.07,2.18.11-.46.67-.75,1.11-1.66.83-.78-.24-1.68-.12-2.53-.07-.31.02-.6.29-1.13.57,1.29.35,2.32.63,3.34.91.02.12.04.25.06.37-.32.16-.63.44-.96.45-.76.03-1.54-.06-2.35-.1-.38-3.9-.27-7.92.6-12.12ZM161.48,52.39c-.53-.4-.83-.81-1.2-.88-1.19-.22-2.4-.36-3.61-.42-.27-.01-.57.43-.94.73,1.9.97,3.67.9,5.75.56Z"/>
        <path d="M46.93,151.94c-2.39.47-4.78,1.09-7.04-.57-2.02-1.48-4.36-1.77-6.72-1.49-2.84.34-5.64.98-8.47,1.43-1.9.3-3.78.22-5.48-.85-.47-.3-.98-.64-.76-1.43.22.06.42.06.54.16,1.85,1.43,3.92,1.5,6.1,1.04,2.38-.51,4.76-1.1,7.17-1.45,2.56-.38,5.11-.1,7.25,1.52,2.02,1.53,4.25,1.69,6.6,1.47.27-.02.53-.04.8-.07l.02.24Z"/>
        <path d="M25.01,53.92c.48-1.01,1.09-1.74,2.19-1.68.96.06,1.52.68,1.66,1.31,1.36.48,2.52.89,3.68,1.3-.16.83-.98,1.26-1.93.92-.53-.19-.89-.11-1.41.1-.55.23-1.27.05-1.92.04-.38,0-.77-.05-1.15-.05-.68,0-1.36,0-2.04.01-.58,0-1.16.02-1.74.05-.17.01-.35.19-.51.16-.44-.06-.87-.18-1.3-.28.25-.29.47-.6.75-.86.22-.2.53-.31.77-.49.87-.66,1.81-1.01,2.95-.55Z"/>
        <path d="M87.4,109.29c-.04-.51-.08-.89-.12-1.34.53-.1,1-.19,1.52-.29.1.34.2.66.3.98.23-1.26.54-2.31,2.17-2.08v1.17c.06.01.12.02.17.03.09-.46.19-.93.3-1.49,2.5-.65,5.08-1.32,7.7-2,.02.26.04.33.03.37-1.05,2.91-.45,2.57-3.71,3.21-2.74.54-5.51.96-8.36,1.44ZM97.36,106.32c.1.06.2.12.3.18.76-.25.59-1,.79-1.55-.1-.05-.2-.11-.3-.16-.26.51-.52,1.02-.79,1.53Z"/>
        <path d="M97.83,113.03c-2.34.53-4.66,1.17-7.03,1.54-1.39.22-2.84-.05-4.26,0-.68.03-1.36.28-2.03.45-1.18.29-2.36.79-3.55.82-1.84.06-3.69-.18-5.53-.33-.33-.03-.64-.25-.91-.56.94.1,1.88.22,2.83.29,2.57.2,5.01-.49,7.49-1.03,4.58-1,9.19-1.86,13.79-2.79.71-.14,1.42-.35,2.11-.56.75-.23,1.25-.66,1.01-1.68.54.99.46,1.51-.51,1.84-1.72.6-3.48,1.12-5.26,1.48-2.81.57-5.65.98-8.47,1.47-.26.04-.5.15-.72.38,3.67-.48,7.33-.95,11-1.43.02.03.03.06.05.1Z"/>
        <path d="M14.13,119.9c1.26.76,2.76.04,4.07.49v1.73c-.97-.17-1.86-.32-2.76-.48-.04.09-.08.18-.12.27.91.47,1.82.95,2.81,1.47v2.88c-1.96-2.71-3.8-5.24-5.6-7.74,1.71,0,3.37,0,5.02,0,.54,0,.78.28.54,1.03h-3.94c0,.12,0,.24-.01.35Z"/>
        <path d="M19.33,125.7c1.7.7,3.35.3,5.02-.12,2.86-.71,5.72-.67,8.6.02,1.59.38,3.17.19,4.65-.5,1.19-.55,2.4-.75,3.72-.71.98.03,1.97-.3,2.95-.5.67-.14,1.31-.26,1.81.65-.42.07-.73.15-1.04.17-1.46.1-2.93.15-4.38.29-.69.07-1.39.22-2.02.5-2.54,1.11-5.1,1.34-7.75.44-2.08-.71-4.15-.24-6.23.07-1.4.21-2.82.36-4.24.44-.39.02-.8-.28-1.2-.43.04-.11.08-.21.11-.32Z"/>
        <path d="M51.06,135.15c1.7,1.65,3.72,1.69,5.77,1.26,1.56-.32,3.06-.9,4.73-1.41-.8.94-1.65,1.72-2.69,2.25-1.51.78-3.14,1.13-4.84,1.13-1.54,0-2.58-.73-3.28-2.07-.27-.51-.21-.86.32-1.16Z"/>
        <path d="M19.6,135.08c.16.06.35.1.49.2,2.35,1.78,5.06,1.73,7.73,1.33,2.37-.36,4.68-1.07,7.01-1.64,3.8-.93,7.3-.35,10.48,1.99.1.07.18.17.26.26.03.04.03.1.08.33-1.74-1.33-3.67-1.8-5.64-2.19-1.82-.35-3.6-.39-5.41.25-3.09,1.09-6.31,1.66-9.57,1.89-1.54.11-3.07.03-4.36-.98-.46-.36-.85-.82-1.27-1.23.07-.07.14-.14.21-.21Z"/>
        <path d="M56.94,148.52c.88-.85,2.45-1.12,3.42-.38,1.66,1.27,3.38,1.05,5.23.79,2.74-.4,5.5-.64,8.43-.97-.84,1.02-1.9,1.28-2.96,1.4-1.26.15-2.53.27-3.8.41-2.14.23-2.67.45-4.12.36-1.04-.07-1.61-.16-1.83-.32-1.27-.91-2.64-1.36-4.36-1.28Z"/>
        <path d="M128.74,115.15c-.35.2-.68.47-1.05.6-2.74.97-5.54,1.78-8.49,1.59-3.24-.22-6.27.39-9.25,1.72-1.22.54-2.73.45-4.11.56-.32.03-.67-.3-.93-.66.47.07.94.15,1.41.2,1.58.17,3.02-.36,4.4-1.02,2.95-1.41,6.01-1.93,9.26-1.45,1.75.26,3.44-.05,5.11-.72,1.14-.46,2.37-.69,3.56-1.02.03.07.06.14.09.2Z"/>
        <path d="M19.62,143.79c.19.06.41.08.58.18,1.63.92,3.4,1.37,5.25,1.41,1.02.02,2.05-.13,3.06-.32,1.52-.29,3.01-.79,4.54-.99,2.1-.28,3.47.15,5.77,1.45-.25,0-.39.03-.5,0-3.09-1.06-6.16-.52-9.2.19-2.69.62-5.33.65-7.88-.51-.63-.29-1.2-.73-1.8-1.1.06-.1.12-.19.19-.29Z"/>
        <path d="M109.01,13.2c.87-.76,1.62-1.47,2.42-2.1.22-.18.74-.3.91-.17,1.19.88,2.32,1.83,3.55,2.82-.42.39-.85.8-1.18,1.11-.61-.15-1.08-.26-1.71-.41-.12-.4-.3-.99-.53-1.77-.43.55-.79.94-1.08,1.39-.27.43-.53.53-.95.2-.45-.36-.92-.68-1.44-1.06Z"/>
        <path d="M82,122.03c.36.08.74.1,1.08.24,2.96,1.27,5.79.87,8.47-.76,1.28-.78,2.62-1.27,4.12-1.24.19,0,.39.03.6.14-3.01,1.23-5.66,3.5-9.08,3.41-1.62-.04-3.23-.72-4.84-1.12-.24-.06-.47-.14-.7-.21.12-.15.24-.31.35-.46Z"/>
        <path d="M36.5,109.76c-1.16.3-2.3.72-3.48.85-.62.07-1.41-.21-1.93-.6-1.25-.94-2.43-.96-3.71-.14-1.07.68-2.09.69-3.09-.21-.69-.62-1.54-.77-2.48-.68-1,.1-2.01.09-3.01.09-.17,0-.34-.23-.51-.36.19-.09.37-.25.56-.26,1.22-.07,2.44-.08,3.65-.17.76-.05,1.35.16,1.89.7,1.06,1.06,1.89,1.24,3.07.37,1.36-1,2.54-.92,3.82.06.67.51,1.46.54,2.27.29.49-.16,1-.36,1.5-.37.51-.02,1.02.17,1.54.27-.03.06-.06.12-.1.17Z"/>
        <path d="M57.84,13.02c.33.41.66.82,1.03,1.27.24-.29.38-.48.55-.65,1.39-1.44,1.72-1.5,3.51-.67.63.29,1.26.59,1.97.92-.54.67-1.02,1.27-1.58,1.96-.25-.66-.45-1.2-.77-2.03-.58,1.75-2.03,1.55-3.01,1.35-.69-.15-1.14-1.4-1.69-2.16,0,0,0,0,0,0Z"/>
        <path d="M85.63,13.56c-.19.58-.38,1.17-.6,1.86-.57-.4-1.08-.75-1.58-1.1.63-.66,1.16-1.31,1.79-1.85.22-.19.74-.27,1-.15,1.13.51,2.22,1.11,3.38,1.71-.34.47-.71.98-1.14,1.58-.25-.33-.43-.59-.69-.94-.35.27-.7.53-1.08.82-.29-.66-.57-1.3-.86-1.94-.08,0-.16.01-.24.02Z"/>
        <path d="M137.95,109.8c-.31.11-.61.29-.93.33-1.91.21-3.82.46-5.73.56-1.97.11-3.73.63-5.14,2.05-1.41,1.43-3.21,1.64-5.07,1.61-.33,0-.65-.18-.93-.48.72,0,1.43.02,2.15,0,1.21-.04,2.3-.45,3.12-1.33,1.69-1.81,3.78-2.38,6.19-2.42,1.91-.03,3.82-.37,5.73-.57.17-.02.34-.03.51-.04.03.1.06.19.1.29Z"/>
        <path d="M32.28,115.24c-2.63-.37-5.08.24-7.51.92-1.57.44-3.12.47-4.68.03-.4-.11-.75-.36-1.2-.58.21-.18.27-.26.3-.25,1.84.64,3.65.36,5.47-.14,2.01-.55,4.06-.83,6.15-.5.5.08.98.34,1.47.51Z"/>
        <path d="M82.47,120.84c3.68-1.53,7.51-1.18,11.34-1.06-3.11.62-6.06,2.03-9.34,1.75,1.66-.34,3.32-.67,4.98-1.01l-.03-.23c-2.35-.24-4.64.27-6.95.55Z"/>
        <path d="M105.09,112.21c.07.11.13.31.2.31,3.14.13,6.3.81,9.36-.56,1.74-.78,3.62-.85,5.48-.94.02.09.04.18.05.27-.22.04-.44.13-.66.12-2.16-.13-4.09.59-6.09,1.33-1.42.53-3.1.5-4.66.49-1.96-.01-3.89-.03-5.75.71-.37.15-.77.19-1.23.09,1.08-.6,2.15-1.2,3.28-1.83Z"/>
        <path d="M121.65,107.88c-.49.07-.97.21-1.46.21-2.14,0-4.1.39-6.01,1.54-2.05,1.23-4.41,1.56-6.81,1.08-.11-.02-.21-.06-.31-.17,3.1.18,5.76-1.22,8.51-2.29,1.96-.77,4-.64,6.03-.68.02.1.03.21.05.31Z"/>
        <path d="M39.92,107.28c-.25.95-1,1.08-1.69.88-.8-.23-1.55-.67-2.27-1.13-.7-.45-1.32-.54-2.13-.23-.49.19-1.25.13-1.69-.14-.91-.56-1.68-.52-2.55-.03-.46.26-.98.42-1.63.69.87-1.47,2.66-1.95,3.99-1.36.49.22,1.19.27,1.71.11.99-.32,1.82-.26,2.68.32,1.06.72,2.13,1.53,3.59.88Z"/>
        <path d="M114.01,114.68c-.8.2-1.59.49-2.4.57-.87.08-1.78.06-2.64-.11-2.45-.49-4.77.19-7.13.59-.75.13-1.53.31-2.18-.24,2.28-.39,4.53-.83,6.8-1.13.82-.11,1.68.16,2.53.17,1.63.03,3.25,0,4.88,0,.04.05.08.09.13.14Z"/>
        <path d="M32.85,113.84c-.44-.07-.9-.09-1.33-.22-1.83-.53-3.6-.21-5.39.27-1.92.52-3.88.87-5.85.27-.51-.16-.97-.48-1.45-.72.04-.1.07-.19.11-.29.12,0,.27-.05.37,0,1.96,1.05,3.99.86,6.04.34,1-.25,2.01-.49,3.02-.72,1.63-.37,3.07.29,4.53.76-.02.1-.04.19-.06.29Z"/>
        <path d="M76.38,119.02c-.38-.21-.78-.4-1.13-.65-2.19-1.57-4.57-1.88-7.11-1.06-.36.12-.72.31-1.02.54-1.28.96-4.61,1.08-6.16.1.43,0,.71-.04.98,0,1.89.3,3.7.1,5.43-.73,3.15-1.51,6.02-.96,8.68,1.19.16.13.34.22.51.33-.06.08-.13.17-.19.25Z"/>
        <path d="M108.1,111.57c2.91.82,5.36-.46,7.83-1.63,1.44-.68,2.91-.79,4.44-.35,1.24.36,2.49.69,3.7,1.21-.73-.14-1.51-.17-2.19-.45-2.64-1.07-5.06-.51-7.43.83-1.4.79-2.89,1.33-4.53,1.15-.63-.07-1.24-.3-1.86-.46.01-.1.02-.2.04-.3Z"/>
        <path d="M36.22,133.48c1.56-2.17,6.16-2.14,8.14.03-2.76-.82-5.37-.32-8.14-.03Z"/>
        <path d="M54.31,117.9c-2.08.93-4.22,1.69-6.54,1.66-.66,0-1.39-.32-1.95-.69-1.9-1.25-3.72-1.4-5.55.1-.08.07-.21.08-.6.22.24-.44.31-.71.49-.88,1.18-1.1,2.86-1.35,4.34-.66.22.1.46.19.64.35,1.8,1.56,3.77,1.41,5.84.66,1.07-.39,2.18-.7,3.27-1.05l.06.29Z"/>
        <path d="M17.84,89.02c-1.47.1-2.89.31-4.3.23-.54-.03-1.05-.72-1.57-1.11l.15-.26h5.72v1.13Z"/>
        <path d="M94.35,125.63c1.05-.73,2.21-1.02,3.39-.76,2.14.47,4.23.29,6.33-.2.27-.06.56-.06.85,0-1.8,1.28-3.83,1.54-5.89,1.18-1.57-.27-3.09-.68-4.68-.22Z"/>
        <path d="M57.1,124.65c-2.31.35-4.63.73-6.95,1.03-1.57.2-3.04-.52-3.57-1.62.04-.03.12-.09.13-.08,1.56,1.16,3.28,1.06,5.08.74,1.38-.25,2.79-.33,4.18-.43.39-.03.78.13,1.18.21-.02.05-.04.1-.06.15Z"/>
        <path d="M80.64,121.82c-.12.08-.23.2-.37.24-2.25.66-4.48,1.41-6.76,1.9-1.05.23-2.22,0-3.33-.11-.34-.04-.64-.4-.96-.61.04-.07.08-.14.11-.21.12-.01.25-.06.34-.03,2.22.9,4.37.38,6.52-.29,1.19-.37,2.38-.74,3.58-1.08.26-.08.55-.04.83-.06.01.09.02.17.04.26Z"/>
        <path d="M104.96,109.54c-.19-.22-.48-.55-.7-.79,3.36-2.43,7.05-1.71,10.74-.9-1.13,0-2.3.19-3.38-.04-2.02-.44-3.88-.15-5.67.77-.37.19-.63.6-.99.97Z"/>
        <path d="M104.42,111.94c-.73.38-1.42.89-2.19,1.11-1.37.4-2.79.6-4.17.95-1.14.29-2.29.57-3.37,1.03-1.48.63-2.91.79-4.41.14,1.82.42,3.44-.17,5.1-.83,1.62-.65,3.36-1.02,5.06-1.48,1.3-.36,2.6-.67,3.9-1.01.03.03.05.05.08.08Z"/>
        <path d="M59.14,151.16c-3.61-.82-7.13.05-10.68.39,3.53-.94,7.02-2.48,10.68-.39Z"/>
        <path d="M149.67,109.65c-.97.71-2.18,1.05-3.28.79-2.14-.5-4.22-.94-6.36-.12-.08.03-.17,0-.28,0,.45-.54,1.75-1.05,2.93-1.07.79-.01,1.58.09,2.37.14,1.53.09,3.05.17,4.62.26Z"/>
        <path d="M52.87,133.8c.14-.23.23-.56.44-.67,1-.51,1.99-1.04,3.05-1.38.84-.27,1.62.11,2.18.8.11.14.06.39.09.59-.2.02-.45.14-.58.05-1.32-.8-2.51-.28-3.72.29-.4.19-.83.35-1.24.52-.07-.07-.15-.14-.22-.21Z"/>
        <path d="M155.06,87.34c.03-.37.06-.67.08-.94h5.65c.05.09.1.18.14.28-.52.25-1.04.5-1.73.83-.71-.38-1.22-.43-4.14-.16Z"/>
        <path d="M39.14,109.71c-.23.12-.45.26-.68.37-.36.17-.73.32-1.07.51-.86.47-1.64,1.1-1.6,2.15.04,1.07.93,1.52,1.81,1.81.8.26,1.63.4,2.63.64-.33.15-.53.33-.67.29-1.2-.37-2.48-.63-3.56-1.23-1.07-.59-1.02-1.91-.06-3.12.8-1,1.93-1.37,3.2-1.43Z"/>
        <path d="M27.93,106.33c-.79.94-1.71,1.2-2.68.65-.92-.52-1.77-.65-2.76-.2-1.2.55-2.47.47-3.49.21,1.09-.29,2.38-.68,3.69-.95.59-.12,1.3-.17,1.83.05.93.39,1.79.74,2.78.25.16-.08.39-.01.64-.01Z"/>
        <path d="M100.33,127.7c-1.55.98-7.16.56-8.48-.57,2.77.19,5.62.38,8.48.57Z"/>
        <path d="M103.66,123.25c-3.56-.61-6.9-.8-10.05,1.33.94-2.28,7.56-3.13,10.05-1.33Z"/>
        <path d="M35.86,127.53c-1.21,1.41-3.56,1.4-4.77.54-.8-.57-1.62-1.12-2.4-1.88.32.09.67.14.97.28.74.35,1.42.91,2.19,1.08.98.21,2.03.13,3.05.14.28,0,.56-.09.96-.16Z"/>
        <path d="M75.9,138.1c-2.94-.37-5.29,1.49-8.14,2.15,1.27-1.71,7.09-3.24,8.14-2.15Z"/>
        <path d="M138.72,108.25c.96-.79,2.08-1.08,3.29-.94.87.1,1.73.38,2.61.43,1.43.07,2.87.02,4.33.02-.93.66-1.97.89-3.12.67-.84-.16-1.68-.3-2.51-.48-1.56-.35-3.07-.19-4.59.3Z"/>
        <path d="M74.61,127.15c2.58.95,5.13.86,7.81-.17-1.75,1.84-6.24,1.95-7.81.17Z"/>
        <path d="M80.69,133.49c3.17-1.04,6.24-3.1,9.94-.72-.52-.15-.84-.21-1.13-.32-1.59-.62-3.15-.5-4.72.08-1.14.42-2.3.78-3.46,1.15-.19.06-.4.04-.6.06,0-.08-.02-.17-.02-.25Z"/>
        <path d="M102.19,108.48c1.19.23,1.95,1.06,1.93,1.99-.02.89-.69,1.29-1.41,1.47-1.26.32-2.55.53-3.89.61.77-.27,1.54-.53,2.31-.8.46-.16.93-.3,1.37-.49,1.28-.56,1.39-1.36.32-2.27-.16-.14-.33-.26-.64-.5Z"/>
        <path d="M.44,147.24c1.11-1,2.95-1.23,4.29-.57-.57.93-3.24,1.32-4.29.57Z"/>
        <path d="M19.2,124.09c.72,0,1.44.06,2.14-.02.69-.08,1.4-.2,2.02-.47.9-.39,1.27.06,1.56.67-1.01.16-2.01.33-3,.47-.95.13-1.91.21-2.77-.33.01-.1.03-.21.04-.31Z"/>
        <path d="M4.83,141.32c-1.47.71-2.85.79-4.33.53.67-1.23,3-1.55,4.33-.53Z"/>
        <path d="M46.94,125.78c2.86,1.82,5.57-.2,8.57-.23-.29.18-.39.28-.51.32-1.23.34-2.48.6-3.68,1.01-1.3.44-2.52.3-3.72-.24-.28-.13-.52-.36-.78-.55.04-.1.08-.21.12-.31Z"/>
        <path d="M28.44,133.66c-.88-.45-1.71-1.07-2.65-1.3-.92-.22-1.94-.05-3-.05.75-.78,1.69-.82,2.65-.73,1.32.13,2.41.67,3.15,1.78-.05.1-.1.2-.15.3Z"/>
        <path d="M90.77,118.84c-2.45-.74-4.8-.36-7.33.66,1.52-1.88,5.63-2.17,7.33-.66Z"/>
        <path d="M158.91,88.6c-1.07,1.28-2.47,1.02-3.75,1.34v-1.34h3.75Z"/>
        <path d="M173.59,133.03c-1.35-.24-2.66-.48-4.11-.74.49-.75,1.24-.86,2.01-.84,1.08.02,1.77.54,2.09,1.58Z"/>
        <path d="M3.84,136.41c-.99.91-3.21.8-3.82-.15.92-.58,3.18-.52,3.82.15Z"/>
        <path d="M33.86,113.31c.84,2.4,2.59,3.02,4.91,2.58-.82.81-2.17.97-3.3.41-1.21-.59-1.83-1.67-1.61-2.99Z"/>
        <path d="M169.36,123.09c.73-.95,2.72-1.02,3.79-.18-.65.8-2.47.9-3.79.18Z"/>
        <path d="M.71,62.5c1.37-.67,2.66-.77,4.11-.71-.74,1.3-2.71,1.61-4.11.71Z"/>
        <path d="M168.8,151.11c.64-1.23,2.53-1.79,3.45-1.22.15.09.32.34.29.48-.03.16-.27.37-.43.39-1.04.14-2.08.23-3.3.35Z"/>
        <path d="M171.26,135.74c.45.15.97.28,1.46.5.14.06.28.37.24.51-.04.14-.31.32-.48.31-.91-.03-1.81-.09-2.71-.18-.12-.01-.32-.24-.31-.35.02-.17.15-.43.29-.47.46-.14.94-.2,1.51-.31Z"/>
        <path d="M97.42,4.97c-.31-1.47-.35-2.76.28-4.14.86,1.05.71,3.34-.28,4.14Z"/>
        <path d="M116.08.25c.78.92.98,3.22.39,4.01-.76-.76-1-2.94-.39-4.01Z"/>
        <path d="M3.83,131.51c-.89.82-3.05.55-3.83-.42,1-.52,3.01-.33,3.83.42Z"/>
        <path d="M173.16,109.15c-.85.84-2.66,1.1-3.66.56.74-.97,2.75-1.31,3.66-.56Z"/>
        <path d="M.66,33.5c1.22-.07,2.3-.14,3.38-.18.17,0,.39.13.51.27.05.06-.08.34-.19.44-.8.74-2.9.5-3.7-.53Z"/>
        <path d="M122.86,112.58c-1.39.83-4.93.78-6.24-.32,2.26.12,4.33.22,6.24.32Z"/>
        <path d="M40.1,114.31c-1.58.17-2.82-.52-2.88-1.49-.07-1.15,1.15-2.33,2.29-2.38-.51.66-1.45,1.35-1.58,2.17-.19,1.19,1.24,1.22,2.17,1.7Z"/>
        <path d="M155.21,91c.66-.09,1.28-.18,2.14-.3-.74,1.08-1.37,2-2.14,3.13v-2.83Z"/>
        <path d="M169.72,105.3c.39-1.45,2.43-1.97,3.66-1-1.12.82-2.42.58-3.66,1Z"/>
        <path d="M173.06,118.87c-.94.64-2.56.65-3.57.07.62-.98,2.73-1.04,3.57-.07Z"/>
        <path d="M106.16,4.7c.14-1.41.26-2.62.42-3.82,0-.06.52-.16.59-.07.51.61-.04,3.27-1.01,3.9Z"/>
        <path d="M169.16,141.03c1.07-.46,2.06-.52,3.07-.2.4.13.5.42.09.73-.72.54-2.4.32-3.16-.53Z"/>
        <path d="M173.1,158.77c-.7,1.07-2.19,1.2-3.34.35.56-.71,2.23-.91,3.34-.35Z"/>
        <path d="M173.55,41.72c-1.04.61-2.43.47-3.39-.34.95-.83,2.6-.67,3.39.34Z"/>
        <path d="M19.41,111.66c2.39.91,2.97.97,5.33.56-1.29,1.42-4.63,1.13-5.33-.56Z"/>
        <path d="M65.5,127c-1.84,1.15-3.77,1.26-5.78.53,1.93-.18,3.85-.35,5.78-.53Z"/>
        <path d="M42.98,167.23c.69.88.73,2.99.08,3.98-.73-.67-.78-2.99-.08-3.98Z"/>
        <path d="M169.69,99.62c1.08-.85,2.61-.84,3.39-.04-.68.78-2.3.81-3.39.04Z"/>
        <path d="M3.83,98.77c-.75,1.24-2.86,1.09-3.61-.19,1.32.07,2.46.13,3.61.19Z"/>
        <path d="M1.15,81.74c.77-1.05,2.47-1.29,3.26-.5-.71.82-2.24,1.07-3.26.5Z"/>
        <path d="M68.4,122.05c1.09-2.09,4.19-2.25,5.53-.29-1.91-1.1-3.77-1.3-5.53.29Z"/>
        <path d="M.32,117.36c.79-.42,2.75-.36,3.4.1-.73,1.01-2.86.95-3.4-.1Z"/>
        <path d="M97.42,166.45c.79.5,1.02,2.59.41,3.79-.75-.53-.98-2.71-.41-3.79Z"/>
        <path d="M116.33,166.81c.32,1.46-.06,3.22-.77,3.76-.55-1.19-.2-2.99.77-3.76Z"/>
        <path d="M.39,152.13c1.12-.61,2.1-.66,3.09-.45.21.04.38.32.56.49-.18.14-.34.37-.53.4-1,.18-2,.24-3.12-.44Z"/>
        <path d="M135.37,109.04c-.36,0-.84.15-1.05-.02-1.55-1.25-3.15-1.03-4.81-.31-.13.06-.28.1-.5.17.76-.72,2.24-1.43,3.2-1.24,1.1.21,2.14.71,3.2,1.09-.01.11-.03.21-.04.32Z"/>
        <path d="M169.34,164.17c.99-.86,2.58-.93,3.37-.19-.65.82-2.24.93-3.37.19Z"/>
        <path d="M52.54,166.71c.67.91.74,3.05.15,4.04-.75-.77-.83-3-.15-4.04Z"/>
        <path d="M24.08,167.32c.7,1.05.71,3.11.05,3.85-.66-.74-.7-2.7-.05-3.85Z"/>
        <path d="M131.05,4.22c-.59-1.07-.49-3.13.15-3.89.67,1.03.61,3.14-.15,3.89Z"/>
        <path d="M169.77,76.07c.65-.58,2.56-.88,3.13-.52.14.09.29.29.28.42-.01.14-.19.35-.33.39-1.04.26-2.07.31-3.08-.29Z"/>
        <path d="M52.76.57c.19,1.38.37,2.59-.29,3.87-.77-1.15-.65-3.2.29-3.87Z"/>
        <path d="M169.36,145.62c.94-.72,2.46-.57,3.29.28-.85.72-2.35.61-3.29-.28Z"/>
        <path d="M4.4,157.58c-.6.89-1.93,1.16-3.09.69.27-.99,1.73-1.34,3.09-.69Z"/>
        <path d="M.4,122.22c.84-.7,2.24-.65,3.2.1-.77.85-2.46.8-3.2-.1Z"/>
        <path d="M38.96,4.17c-1.32-.46-1.56-2.67-.41-3.9.14,1.33.27,2.56.41,3.9Z"/>
        <path d="M93.06,166.93c.78.65.76,2.77-.03,3.56-.61-.87-.6-2.62.03-3.56Z"/>
        <path d="M38.07,167.18c1.01,1.3.58,2.62.6,3.95-.96-.57-1.25-2.43-.6-3.95Z"/>
        <path d="M4.19,162.28c-.6,1.05-2.27,1.17-3.25.24.57-.6,2.31-.73,3.25-.24Z"/>
        <path d="M136.94.29c.7,1.13.53,3.05-.29,3.83-.5-.96-.37-2.97.29-3.83Z"/>
        <path d="M19.66,3.92c-.97-.91-1.16-2.75-.42-3.92.62,1.29.69,2.5.42,3.92Z"/>
        <path d="M47.46,4.41c-.25-1.37-.42-2.58.26-3.8.82.8.72,3.04-.26,3.8Z"/>
        <path d="M142.12.85c.78.78.92,2.35.37,3.41-.74-.55-.96-2.37-.37-3.41Z"/>
        <path d="M64.81,123.8c-1.38,1.04-3.95,1.4-6.01.84,2.07-.29,3.99-.56,6.01-.84Z"/>
        <path d="M1.29,52.52c.87-.8,2.83-.96,3.45-.28-.7.73-2.55.87-3.45.28Z"/>
        <path d="M173.44,85.15c-.89,1.32-2.72,1.26-3.34,0h3.34Z"/>
        <path d="M169.62,1.69c1.09-.39,2.13-.43,3.22,0-.69,1.12-2.52,1.11-3.22,0Z"/>
        <path d="M88.71.66c.78.86.87,2.74.24,3.64-.67-.57-.82-2.49-.24-3.64Z"/>
        <path d="M169.18,155.22c.89-.71,1.84-.54,2.76-.46.15.01.4.26.4.39,0,.16-.2.36-.36.46-.64.39-2.04.21-2.8-.39Z"/>
        <path d="M173.13,114.16c-.76.88-2.02,1-3.13.35.48-.82,2.13-1.03,3.13-.35Z"/>
        <path d="M169.95,27.22c.77-.69,1.71-.77,2.69-.64.17.02.32.23.48.35-.14.18-.26.49-.42.51-.9.11-1.82.14-2.72.21,0-.14-.02-.28-.03-.42Z"/>
        <path d="M169.79,66.65c.67-.75,2.13-1.06,2.83-.69.45.24.4.55,0,.72-.9.39-1.83.52-2.83-.03Z"/>
        <path d="M105.4,117.32c-4.43,1.42-5.99,1.6-7.34,1.03,2.39-.34,4.87-.68,7.34-1.03Z"/>
        <path d="M106.62,170.34c-.67-1.1-.58-2.77.15-3.55.56.74.5,2.7-.15,3.55Z"/>
        <path d="M147.42,3.95c-.5-1.25-.52-2.4-.25-3.67.95.74,1.09,2.65.25,3.67Z"/>
        <path d="M4.73,23.9c-.95.88-2.29.84-3.07-.06.8-.61,2.1-.6,3.07.06Z"/>
        <path d="M4.41,18.43c-.66.89-1.95,1.01-2.93.28.72-.87,2.08-1,2.93-.28Z"/>
        <path d="M172.48,168.78c-.75.75-1.72.79-2.87.14.52-.97,1.96-1.04,2.87-.14Z"/>
        <path d="M1.61,13.87c.72-.9,2.1-1.08,2.99-.4-.63.9-1.93,1.07-2.99.4Z"/>
        <path d="M79.01,170.33c-.65-1.12-.64-2.84,0-3.51.59.71.62,2.65,0,3.51Z"/>
        <path d="M.93,90.62c.91-.65,2.25-.57,3.02.18-.85.75-2.36.66-3.02-.18Z"/>
        <path d="M58.55,123.13c-1.52-1.01-3.05-1.09-4.65-.2.37-.93,1.18-1.1,1.96-1.21,1.17-.16,1.98.51,2.69,1.4Z"/>
        <path d="M67.18,4.97c-.9-1-.95-2.64-.22-3.61.63,1.15.48,2.26.22,3.61Z"/>
        <path d="M4.39,28.98c-.94.88-2.16.87-3.02.02.68-.63,2.14-.66,3.02-.02Z"/>
        <path d="M171.87,71.79c-.3,0-.37.02-.42,0-.37-.19-.74-.38-1.12-.57.35-.17.68-.43,1.05-.5.44-.09.91-.04,1.36,0,.18.02.34.18.52.28-.13.18-.22.45-.4.53-.38.16-.81.22-.99.27Z"/>
        <path d="M4.27,67.05c-.76.94-2.03,1.18-3,.59.58-.77,2.16-1.11,3-.59Z"/>
        <path d="M.73,103.99c.98-.79,2.12-.92,3.06-.37-.5.93-1.73,1.1-3.06.37Z"/>
        <path d="M169.78,18.16c.82-.97,2.01-1.11,2.9-.41-.62.82-1.67.98-2.9.41Z"/>
        <path d="M23.95.27c.79.79.91,2.39.31,3.34-.67-.58-.85-2.34-.31-3.34Z"/>
        <path d="M84.1,4.41c-.58-1.05-.44-2.52.26-3.36.58.74.47,2.54-.26,3.36Z"/>
        <path d="M4.6,3.11c-.85.85-1.91.96-2.96.35.64-.86,1.91-1.03,2.96-.35Z"/>
        <path d="M71.66,4.51c-.63-.9-.64-2.37-.05-3.26.7.84.75,2.49.05,3.26Z"/>
        <path d="M4.15,86.02c-.88.78-2.05.82-3,.15.74-.79,2.08-.88,3-.15Z"/>
        <path d="M152.24,3.98c-.87-.58-1.09-2.15-.53-3.29.65.47.9,1.89.53,3.29Z"/>
        <path d="M1.28,72.63c.73-1.11,1.82-1.24,2.75-.38-.65.73-1.64.88-2.75.38Z"/>
        <path d="M170.08,90.62c.81-.76,1.53-.92,2.3-.68.26.08.45.4.67.61-.27.16-.55.48-.81.46-.65-.04-1.29-.22-2.16-.39Z"/>
        <path d="M172.76,127.31c-.9.78-2.01.83-2.92.17.75-.84,1.97-.93,2.92-.17Z"/>
        <path d="M56.95,4.44V1.01c1.06.54,1.03,2.39,0,3.43Z"/>
        <path d="M3.53,113.21c-.74.76-1.76.83-2.92.27.62-.88,1.94-1.02,2.92-.27Z"/>
        <path d="M152.52,168.53c.84.79.88,1.63.78,2.49-.02.16-.22.35-.38.42-.08.03-.33-.16-.39-.3-.34-.8-.42-1.62,0-2.61Z"/>
        <path d="M158.03,168.08c.12.81.26,1.62.33,2.43.01.15-.22.32-.34.49-.18-.13-.45-.23-.52-.4-.32-.86-.26-1.69.16-2.48l.36-.03Z"/>
        <path d="M4.07,57.54c-.77.88-1.91,1.1-2.96.62.52-.76,2.13-1.13,2.96-.62Z"/>
        <path d="M35.01,2.42c-.2.42-.39.84-.59,1.27-.16-.43-.37-.85-.47-1.29-.08-.38-.07-.8-.01-1.18.03-.19.23-.36.36-.54.15.16.39.3.43.49.1.38.09.78.13,1.18.05.03.1.05.15.08Z"/>
        <path d="M87.99,170.32c-.58-.99-.43-2.59.27-3.27.52.7.41,2.42-.27,3.27Z"/>
        <path d="M1.59,8.26c1.09-.84,2.24-.8,2.9.04-.7.65-1.59.64-2.9-.04Z"/>
        <path d="M100.97,105.29h5.09c-1.13.83-3.45.9-5.09,0Z"/>
        <path d="M143.17,168.59c.88.63,1,1.83.34,2.79-.78-.58-.92-1.6-.34-2.79Z"/>
        <path d="M157.68.32c-.09,1.16-.17,2.11-.27,3.26-1.08-1.16-.99-2.6.27-3.26Z"/>
        <path d="M4.05,127.13c-.74.72-1.84.73-2.73.03.75-.82,1.87-.84,2.73-.03Z"/>
        <path d="M101.95,167.22c.78.85.88,2.06.29,2.89-.74-.58-.88-1.72-.29-2.89Z"/>
        <path d="M4.18,43.15c-1,.54-2.41.43-3.06-.23.71-.79,2.22-.68,3.06.23Z"/>
        <path d="M170.46,80.92c.95-.74,1.99-.59,2.78.34-.79.57-1.95.44-2.78-.34Z"/>
        <path d="M170.73,7.39c1.07-.71,1.9-.65,2.61.16-.67.82-1.48.79-2.61-.16Z"/>
        <path d="M43.71,139.78c-2.05-.15-4.41-.33-6.58-.49,2.21-.63,4.56-.39,6.58.49Z"/>
        <path d="M172.98,61.33c-.83.79-1.84.79-2.77.04.67-.75,1.75-.78,2.77-.04Z"/>
        <path d="M110.96,166.89c.44,1.2.47,2.22-.15,3.24-.72-.74-.67-2.21.15-3.24Z"/>
        <path d="M126.61.87c.11,1.06.21,1.91.27,2.76,0,.13-.16.32-.29.4-.07.04-.28-.08-.37-.18-.44-.5-.33-2.24.4-2.99Z"/>
        <path d="M121.19,3.92c-.58-1.14-.68-2.15-.31-3.25.84.57,1.01,2.08.31,3.25Z"/>
        <path d="M93.22,4.49c-.65-.96-.59-2.33.08-3,.61.76.59,2.18-.08,3Z"/>
        <path d="M80.28,1.47c-.05,1-.1,2-.16,3.2-1-.93-.97-2.54-.18-3.22.11,0,.23.01.34.02Z"/>
        <path d="M83.58,169.97c-.42-1.19-.41-2.18.02-3.21.82.56.83,2.13-.02,3.21Z"/>
        <path d="M123.02,104.92c-1.6.56-3.19.27-4.79-.27h4.79c0,.09,0,.18,0,.27Z"/>
        <path d="M172.96,57.18c-.83-.22-1.66-.45-2.55-.69.79-1.11,2.11-.83,2.68.38-.04.1-.08.21-.13.31Z"/>
        <path d="M169.93,31.18c.84-.84,1.82-.83,2.75-.03-.97.65-1.92.67-2.75.03Z"/>
        <path d="M75.43,4.58c-.63-.8-.7-2.02-.2-2.92.86.64.99,2.1.2,2.92Z"/>
        <path d="M34.51,124.27c-1.41-.84-2.84-.94-4.41-.31.75-1.37,2.7-1.47,4.41.31Z"/>
        <path d="M4.26,94.93c-1.08.69-2.06.36-3.07.15.68-.91,1.95-1,3.07-.15Z"/>
        <path d="M3.84,108.41c-.79.74-1.63.78-2.66.18.66-.78,1.72-.87,2.66-.18Z"/>
        <path d="M1.29,167.78c.57-.67,1.35-.69,2.14-.6.17.02.31.23.47.35-.14.17-.27.47-.43.49-.71.09-1.43.1-2.14.15-.01-.13-.03-.26-.04-.39Z"/>
        <path d="M141.39,104.83h6.11c-.85.52-4.74.57-6.11,0Z"/>
        <path d="M130.51,113.18c1.89.4,3.78.76,5.65-.11-1.24,1.15-4.36,1.21-5.65.11Z"/>
        <path d="M9,171.22c-.09-.94-.18-1.89-.28-2.94,1.11.54,1.33,2.14.28,2.94Z"/>
        <path d="M62.62,4.42c-.64-.78-.63-1.95.02-2.88.67.68.66,2.15-.02,2.88Z"/>
        <path d="M1.42,38.24c.79-.77,1.69-.9,2.67-.43-.47.86-1.53,1.05-2.67.43Z"/>
        <path d="M162.4,3.36c-.52-.72-.52-2.1,0-2.81.77.67.77,2.11,0,2.81Z"/>
        <path d="M120.31,167.48c.4,1.23.23,2.26-.43,2.97-.6-.88-.41-2.31.43-2.97Z"/>
        <path d="M29.61.62c.66,1.07.55,2.04.45,3.06-.91-.27-1.13-1.65-.45-3.06Z"/>
        <path d="M138.43,171.26c-.12-1.05-.22-1.88-.33-2.83,1.34.55,1.49,1.66.33,2.83Z"/>
        <path d="M169.65,22.79c.76-1.11,1.63-1.35,2.65-.74-.67.8-1.61,1.06-2.65.74Z"/>
        <path d="M1.49,48.14c.74-.81,1.72-.93,2.59-.36-.54.75-1.52.9-2.59.36Z"/>
        <path d="M157.17,61.43c-.42.04-.84.08-1.33.13v-2.53c.5.2.9.35,1.38.53-1.21.68-1.2.95-.05,1.86Z"/>
        <path d="M35.43,124.37c1.3-.34,2.51-.66,3.86-1.01-.61,1.04-2.59,1.51-3.86,1.01Z"/>
        <path d="M170.33,12.85c.57-.56,1.24-.76,2.02-.43.18.08.34.34.37.53.01.1-.28.35-.44.36-.64.02-1.28-.04-1.92-.07l-.03-.39Z"/>
        <path d="M29.41,105.24h-4.51c0-.08,0-.15,0-.23h4.5c0,.08,0,.15.01.23Z"/>
        <path d="M75.36,170.25c-.69-.7-.92-1.92-.58-2.48.08-.13.32-.32.39-.28.16.07.37.28.36.42-.02.73-.1,1.46-.18,2.34Z"/>
        <path d="M172.95,94.85c-.97.78-1.85.32-2.84.13.95-.8,2.01-.85,2.84-.13Z"/>
        <path d="M161.68,168.74c1.2.66,1.29,2.03.2,2.79-.07-.95-.12-1.77-.2-2.79Z"/>
        <path d="M102.3,1.48c.79.83.6,1.65.52,2.44-.01.1-.2.24-.32.25-.11,0-.3-.1-.34-.21-.27-.78-.35-1.55.14-2.48Z"/>
        <path d="M111.22,1.53c.62.82.55,1.9-.12,2.61-.56-.74-.52-1.91.12-2.61Z"/>
        <path d="M80.46,140.34c1.71.39,3.19.72,4.76,1.08-.87.46-3.34-.09-4.76-1.08Z"/>
        <path d="M133.57,168.32c.76.98.83,1.74.26,2.45-.79-.64-.9-1.55-.26-2.45Z"/>
        <path d="M36.42,105.25c.55.22,1.09.52,1.66.62.6.11,1.23.02,1.81.02-.59,1.03-2.09.9-3.56-.41.03-.08.06-.16.09-.24Z"/>
        <path d="M147.91,168.44c.94.41.89,1.08.72,1.68-.09.32-.49.56-.74.83-.08-.07-.17-.13-.25-.2.09-.73.17-1.45.27-2.31Z"/>
        <path d="M42.56,4.05c-.07-.84-.14-1.67-.23-2.71,1.1.78,1.24,1.82.57,2.68-.11,0-.23.02-.34.03Z"/>
        <path d="M128.53,167.85c1.03.71,1.25,1.88.57,2.79-.7-.82-.55-1.75-.57-2.79Z"/>
        <path d="M173.18,46.16c-.81.65-1.76.73-2.62.26.77-.75,1.78-.87,2.62-.26Z"/>
        <path d="M170.54,36.3c.61-.73,1.28-.74,1.94-.44.17.08.25.36.38.54-.2.11-.41.33-.59.31-.58-.09-1.15-.27-1.73-.41Z"/>
        <path d="M65.7,170.02c0-.71-.02-1.42.02-2.13,0-.12.32-.33.44-.3.15.05.36.3.35.45-.06.67-.18,1.33-.28,2-.17,0-.35-.01-.52-.02Z"/>
        <path d="M1.36,76.88c.92-.86,1.82-.89,2.59-.08-.84.56-1.66.36-2.59.08Z"/>
        <path d="M47.89,167.76c.05.82.11,1.64.17,2.64-1.14-.78-1.23-1.81-.46-2.66l.29.02Z"/>
        <path d="M56.9,170.06c-.6-.86-.57-1.67.04-2.4.67.59.67,1.56-.04,2.4Z"/>
        <path d="M21.8,122.91c-.93-.1-1.8-.2-2.67-.3.36-.66,1.05-.83,1.79-.66.53.13.96.49.88.96Z"/>
        <path d="M14.45,170.67c-.71-.72-.82-1.44-.49-2.3.92.53,1.12,1.36.49,2.3Z"/>
        <path d="M110.78,104.77h4.32c0,.08,0,.15,0,.23-1.37.23-2.75.38-4.32-.23Z"/>
        <path d="M39.78,111.88c.09.28.17.57.29.85.12.27.29.53.48.87-.71.14-1.37.07-1.57-.56-.1-.32.35-.82.56-1.24.08.03.16.06.24.08Z"/>
        <path d="M19.44,170.84c-.66-.7-.73-1.45-.22-2.3.76.39.85,1.31.22,2.3Z"/>
        <path d="M61.87,170.44c-.88-.94-.87-2.19,0-2.84v2.84Z"/>
        <path d="M166.98.46c.69.46.87,1.1.89,1.81,0,.14-.15.37-.27.4-.12.04-.37-.08-.44-.2-.35-.61-.55-1.26-.17-2.01Z"/>
        <path d="M23.42,117.74c1.33-.36,2.66-.73,3.99-1.09.03.09.05.18.08.28-1.32.41-2.64.81-3.96,1.22-.03-.13-.07-.27-.1-.4Z"/>
        <path d="M8.88.14c1.04.48,1.12,1.12,1.07,1.8-.01.17-.21.33-.32.49-.16-.11-.43-.21-.46-.35-.13-.56-.18-1.14-.29-1.94Z"/>
        <path d="M170.69,51.45c.95-.58,1.57-.53,2.2.14-.64.66-1.35.63-2.2-.14Z"/>
        <path d="M125.04,170.66c-.14-.9-.25-1.6-.38-2.39,1.13.3,1.33,1.41.38,2.39Z"/>
        <path d="M122.67,108.79c.68-1.13,2.97-1.54,4.38-.54-1.55-.58-2.98-.17-4.38.54Z"/>
        <path d="M14.24.7c.74.64.77,1.45.1,2.11-.59-.58-.63-1.4-.1-2.11Z"/>
        <path d="M29.29,171.24c-.17-.68-.31-1.15-.4-1.64-.03-.18.08-.38.12-.57.2.08.49.1.6.25.46.6.43,1.2-.33,1.95Z"/>
        <path d="M87.1,109.17c-.48.07-.86.13-1.3.19-.03-.43-.05-.78-.08-1.18.38-.08.72-.15,1.17-.25.07.43.14.8.21,1.24Z"/>
        <path d="M167,171.26c-.59-.78-.49-1.59.52-2.43-.07.96-.12,1.71-.17,2.45-.12,0-.23-.01-.35-.02Z"/>
        <path d="M70.11,170.23v-2.5c.89.32.98,1.52,0,2.5Z"/>
        <path d="M60.23,117.85c-1.33-.14-2.81-.3-4.07-.44.83-.57,2.91-.38,4.07.44Z"/>
        <path d="M106.48,123.64c1.2-.42,2.39-.84,3.66-1.29-.9,1.02-2.86,1.66-3.66,1.29Z"/>
        <path d="M5.61,171.19c-.1-.49-.23-.97-.28-1.46-.02-.16.16-.34.25-.51.19.12.54.22.55.36.05.52-.01,1.06-.03,1.59-.16,0-.33.02-.49.03Z"/>
        <path d="M131.42,105.12c-1.58.54-2.91.31-4.23-.23,1.33.07,2.66.14,4.23.23Z"/>
        <path d="M34.19,111.26c-1.1.76-2.5.63-3.25-.27,1.03.09,2.17.18,3.25.27Z"/>
        <path d="M89.57,126.45c-1.04.6-2.13.24-3.23-.03,1.07-.08,2.14-.15,3.21-.23,0,.08.01.17.02.25Z"/>
        <path d="M19.17,105.53c1.07-.06,2.13-.13,3.2-.19-1.03.57-2.08.87-3.2.19Z"/>
        <path d="M5.42,2.42V.17c.85.48.91,1.37,0,2.25Z"/>
        <path d="M33.83,168.56c.88.57.98,1.18.39,1.93-.72-.5-.5-1.17-.39-1.93Z"/>
        <path d="M134.02,105.09c1.45.14,2.68.26,4.17.41-1.55.43-2.78.3-4.17-.41Z"/>
        <path d="M43.45,122.44c-.84.07-1.59.14-2.59.23.37-.32.61-.66.93-.75.64-.2,1.22,0,1.66.52Z"/>
        <path d="M42.83,125.73c1.17.23,2.15.42,3.32.64-1.13.42-2.18.21-3.32-.64Z"/>
        <path d="M16.77,63.15c-.91,1.27-1.22,1.31-2.05.37.66-.12,1.25-.23,2.05-.37Z"/>
        <path d="M29.28,110.57c-.99.29-1.98.58-2.97.87l-.09-.33c.99-.28,1.98-.57,2.97-.85.03.1.06.21.09.31Z"/>
        <path d="M32.21,108.01c-.73-.05-1.47-.11-2.44-.18,1-.7,1.73-.4,2.44.18Z"/>
        <path d="M19.35,110.14l3-.25.02.23c-1,.11-2.01.22-3.01.33,0-.1,0-.21,0-.31Z"/>
        <path d="M10.7,58.62c.4.08.79.17,1.43.3-.35.32-.62.65-.7.61-.32-.16-.57-.44-.85-.68.04-.08.08-.16.12-.24Z"/>
        <path d="M108.74,109.08l-2.45.63-.08-.29c.81-.21,1.62-.41,2.44-.62.03.09.06.19.09.28Z"/>
        <path d="M38.16,126.56c.88-.26,1.76-.52,2.65-.79.02.06.04.13.06.19-.88.28-1.75.57-2.63.85-.03-.09-.05-.17-.08-.26Z"/>
        <path d="M161.44,119.29c-.34.47-.64.88-.8,1.11h-5.01v-1.11h5.81Z"/>
        <path d="M159.86,121.5c-.23.4-.39.68-.6,1.04-1.1-.61-2.63.6-3.75-1.04h4.36Z"/>
        <path d="M155.63,109.32c1.11-.08,2.32-.94,2.8.91-.92.04-1.83.09-2.8.14v-1.04Z"/>
        <path d="M155.68,124.33v-1.07h2.95c-.61,1.7-1.98.64-2.95,1.07Z"/>
        <path d="M157.18,108.18c-.6.14-1.03.25-1.55.37v-2.65c.6.88,1.04,1.53,1.55,2.28Z"/>
        <path d="M155.71,125.52h1.47c-.47.7-.9,1.33-1.47,2.17v-2.17Z"/>
        <polygon points="52.17 78.15 46.04 92.29 50.61 95.09 51.65 94.73 54.04 87.09 54.87 78.83 52.17 78.15"/>
        <polygon points="65.63 79.76 70.78 99.67 63.71 99.2 63.61 96.5 63.45 93.38 63.03 80.49 65.63 79.76"/>
        <polyline points="63.66 93.38 64.44 96.71 63.71 99.2 61.84 75.97 63.4 76.59"/>
        <polygon points="74.52 100.34 76.18 100.66 77.07 99.62 76.18 98.89 74.73 98.99 74.52 100.34"/>
        <path d="M126.97,32.1c.48-1.01,1.09-1.74,2.19-1.68.96.06,1.52.68,1.66,1.31,1.36.48,2.52.89,3.68,1.3-.16.83-.98,1.26-1.93.92-.53-.19-.89-.11-1.41.1-.55.23-1.27.05-1.92.04-.38,0-.77-.05-1.15-.05-.68,0-1.36,0-2.04.01-.58,0-1.16.02-1.74.05-.17.01-.35.19-.51.16-.44-.06-.87-.18-1.3-.28.25-.29.47-.6.75-.86.22-.2.53-.31.77-.49.87-.66,1.81-1.01,2.95-.55Z"/>
      </g>
      <path d="M67.35,151.02c4.2-1.36,10.14-3.8,16.37-8.26,6.32-4.53,8.33-8,13.25-13.1,2.99-3.09,13.8-14.06,28.69-19.34,5.46-1.94,15.44-4.51,29.06-2.6l-.36,12.27-17.46,29.16-50.99,1.72-18.56.16Z"/>
    </g>
  </g>
</svg>