<?xml version="1.0" encoding="UTF-8"?>
<svg id="Ebene_1" xmlns="http://www.w3.org/2000/svg" viewBox="0 0 141.13 236.42">
  <path d="M23.34,152.22c8.86.11,17.43.14,26,.33,9.52.21,19.04.64,28.57.85,7.58.17,15.17.31,22.75.16,8.86-.17,17.67-1.05,26.37-2.82.18-.04.37-.06.57-.09.1,5.03-.15,10.07.39,15.03.53,4.94,1.86,9.79,2.85,14.77-.57.09-1.12.26-1.68.26-.88,0-1.09.46-1.03,1.21.03.41.05.81.07,1.22h2.94c-.15,1.35-.26,2.68-.45,3.99-.28,1.99-.63,3.96-.91,5.95-.09.61-.32.91-.97.9-.41,0-.82.13-1.23.14-.89.04-1.21.54-1.22,1.37-.01.63.2.98.87.98.63,0,1.26,0,2.07,0-.24,1.35-.45,2.59-.7,3.81-.03.14-.25.31-.4.33-3.25.33-6.51.65-9.93.98,0-.63,0-1,0-1.37-.11-3.44-.22-6.87-.32-10.31-.04-1.4-.73-2.51-1.45-3.65-2.33-3.68-4.74-7.32-6.86-11.12-1.87-3.35-2.96-7.03-3.25-10.9-.02-.3-.2-.71-.44-.86-1.55-.97-2.76-2.23-3.59-3.86-.07.03-.14.06-.21.09.32.88.64,1.77,1.02,2.81-13.89.64-27.71,1.28-41.72,1.93.48-1.26.85-2.24,1.22-3.22-.03-.01-.05-.03-.08-.04-.73.95-1.39,1.96-2.21,2.82-.64.68-1.07,1.33-1.31,2.28-1.88,7.2-3.75,14.4-5.84,21.54-1.34,4.56-1.34,9.09-.62,13.7.13.81.16,1.63.25,2.51-2.36.46-4.64.39-6.88-.11-2.04-.45-1.52.04-1.83-2.01-.49-3.24-.79-6.52-1.47-9.72-.5-2.35-1.54-4.57-2.2-6.89-1.44-5.1-2.83-10.23-4.17-15.36-.54-2.08-1.42-3.93-2.88-5.52-.28-.31-.45-.75-.59-1.15-.31-.89-.56-1.79-.84-2.69-.1,0-.2.01-.3.02-.06.62-.11,1.23-.18,1.99-3.45-2.79-6.02-6.15-8.17-10.28ZM43.2,156.03c-.1,0-.21,0-.31,0-.3,3.9-.61,7.8-.92,11.83.99-.13,1.74-.23,2.53-.34.28-3.97-.32-7.75-1.3-11.49ZM118.82,157.46c-.12-.01-.25-.02-.37-.04-.18.41-.44.81-.52,1.24-.29,1.56-.57,3.13-.75,4.71-.15,1.26-.19,2.54-.2,3.81,0,.88.49,1.17,1.5,1.17.9,0,.72-.66.72-1.15.03-2.39.05-4.78,0-7.16-.02-.86-.25-1.72-.39-2.57ZM38.37,166.68c-.69-3.12-1.36-6.17-2.06-9.3-.35.21-.58.32-.78.46-1.24.86-1.27.98-.92,2.41.36,1.45.72,2.89,1.05,4.35.46,2.01.45,2.01,2.7,2.09ZM48.92,179.39c1.86-.36,1.55-.26,1.47-1.75-.14-2.66-1.33-5-2.43-7.36-.34-.73-.76-.72-1.33-.38.77,3.16,1.52,6.29,2.3,9.49ZM52.01,175.1c.62-.31,1.73.52,1.67-.84-.1-2.56-.92-4.94-1.88-7.37-.5.21-.94.32-1.29.56-.19.13-.38.51-.33.71.57,2.27,1.18,4.54,1.82,6.94ZM44.94,170.53c-.1-.03-.19-.07-.29-.1-.08.27-.26.55-.24.81.08,1.46.17,2.92.33,4.38.15,1.39.36,2.77.61,4.14.13.72.69.96,1.39.76.66-.19.77-.7.61-1.29-.8-2.9-1.61-5.8-2.41-8.71ZM125.01,192.98c.98-.06,1.65-.17,2.31-.13,1.01.06,1.4-.4,1.36-1.35-.01-.29,0-.57,0-.86-.02-.76-.42-1.12-1.16-1.04-.82.09-1.64.2-2.46.33-1.09.16-1.29.58-1.17,2.11.08.98.72.98,1.12.95ZM38.6,156.83c.61,3.35,1.2,6.62,1.79,9.9.1,0,.21-.02.31-.03v-9.87h-2.11ZM42.28,171.26c-.12.22-.19.3-.19.39-.26,2.53-.53,5.05-.75,7.58-.07.87.67,1.68,1.37,1.66.7-.03.99-.56.82-1.7-.39-2.6-.82-5.2-1.25-7.92ZM46.52,166.35c2.43-.42,4.68-2.85,5.15-5.45-.38-.02-.76-.09-1.12-.05-.42.04-1.04.05-1.19.3-.98,1.65-1.86,3.37-2.83,5.19ZM114.91,167.28c-1.05-1.88-2.07-3.77-3.18-5.6-.21-.36-.77-.5-1.18-.75-.16.47-.49.96-.44,1.4.24,1.97,2.86,4.57,4.8,4.95ZM126.41,187.66c.43-.04.91-.08,1.38-.14,1.28-.16,1.66-.64,1.43-1.94-.04-.24-.41-.59-.63-.59-1.04.01-2.09.07-3.12.23-.88.14-1.25.88-.97,1.71.33.97,1.18.62,1.9.72ZM122.51,175.44c-.46-1.7-.86-3.27-1.32-4.81-.08-.26-.38-.44-.58-.66-.19.27-.55.55-.53.8.11,1.64.24,3.29.52,4.91.06.38.69.67,1.06,1,.28-.4.56-.8.86-1.24ZM116.02,164.5c.12-.03.25-.05.37-.08-.38-2-.73-4.01-1.14-6.01-.15-.71-.75-.81-1.36-.67-.66.14-.58.67-.49,1.15.4,2.09,1.3,3.95,2.61,5.62ZM119.88,164.89c.09.04.19.08.28.12.72-1.5,1.47-2.98,2.14-4.5.28-.63.48-1.33.52-2.02.03-.43-.29-.89-.45-1.33-.39.31-.79.6-1.15.93-.12.11-.13.35-.17.54-.4,2.09-.79,4.17-1.18,6.26ZM115.51,171.31c-.08-.06-.16-.12-.24-.18-.34.24-.88.42-.98.73-.45,1.45-.85,2.92-1.11,4.41-.06.35.42.94.8,1.18.45.28.88-.07.95-.59.22-1.85.39-3.7.58-5.55ZM48.28,156.66c-.85,0-1.48-.03-2.1.02-.18.01-.48.27-.48.41-.03,1.91-.02,3.81-.02,5.72l.17.08c.8-2.04,1.59-4.07,2.44-6.24ZM117.32,170.95c-.09.49-.22.98-.26,1.48-.11,1.42-.25,2.85-.23,4.28,0,.35.56.69.87,1.04.27-.3.77-.59.78-.89.03-2-.2-3.98-1.15-5.9ZM121.23,166.14c2.02.05,4.2-2.84,4.3-4.16.02-.32-.25-.66-.38-.99-.33.17-.79.26-.98.54-1,1.49-1.94,3.03-2.94,4.61ZM124.66,169.4c-.34.47-.81.84-.75,1.09.37,1.76,1.04,3.42,2.29,5.04.22-2.25-.33-4.08-1.54-6.14ZM41.02,171.03c-.14-.03-.28-.06-.42-.09-.47,1.7-.99,3.4-1.38,5.12-.09.38.28.87.44,1.31.13-.01.25-.03.38-.04.33-2.1.65-4.2.98-6.3ZM110.55,170.75c1.15-1.31.7-2.52-.12-3.72-1.32,1.21-1.3,1.88.12,3.72ZM110.93,173.8c.5.07,1,.25,1.09.13.8-1.07,1.41-2.24,1.6-3.58-.09-.05-.19-.1-.28-.16-.75,1.12-1.5,2.25-2.41,3.61ZM37.73,169.77c.12.78.23,1.48.34,2.18h.28c.23-.71.45-1.4.7-2.18h-1.32Z"/>
  <path d="M24.36,68.15v-17.1c2.26-.36,4.57-.62,6.82-1.13,1.88-.43,3.76-1.01,5.52-1.79,4.57-2.02,6.9-5.76,7.59-10.59.7-4.89-.52-9.47-2.23-13.99-.31-.8-.63-1.4-1.55-1.7-.84-.28-1.58-.9-2.46-1.43.81,1.7,1.65,3.26,2.31,4.88,1.46,3.55,2.21,7.23,1.87,11.1-.42,4.75-2.84,7.97-7.26,9.75-2.78,1.12-5.67,1.77-8.62,2-3.93.31-7.88.31-11.83.43-.37.01-.75-.08-1.18-.13.63-1.23,1.23-2.4,1.85-3.62-.4-.27-.71-.47-1.12-.75-.21.42-.38.82-.61,1.18-.75,1.21-1.38,2.54-2.32,3.58-1.43,1.58-3.35,2.02-5.43,1.47-1.87-.49-2.71-1.94-2.22-3.71,2.17,2.13,4.14,2.27,6.63.36.85-.65,1.61-1.44,2.36-2.23.22-.23.23-.65.33-.98-.07-.05-.15-.09-.22-.14-.2.17-.4.34-.6.5-1.05.82-2.03,1.76-3.17,2.43-2.06,1.21-3.75.57-4.71-1.63-.05-.12-.1-.23-.15-.35-.73-1.98-.68-2.06,1.13-3.08,1.16-.66,2.3-1.37,3.42-2.1.24-.16.36-.5.54-.76-.31-.05-.61-.13-.92-.13-2.4.01-3.89,1.39-4.8,3.41-1.65-.38-2.22-2.36-1.79-3.91.38-1.38,1.16-2.52,2.41-3.2,1.42-.77,2.92-1.41,4.41-2.04,1.58-.67,3.2-1.26,4.78-1.92.36-.15.76-.43.92-.76,1.68-3.39,3.31-6.81,4.95-10.22-.87-.73-1.84-1.44-2.69-2.28-4.36-4.34-5.53-10.55-3.03-15.82.22-.46.47-.91.77-1.32.47-.64.92-.58,1.26.15.11.23.19.48.23.72,1.06,5.87,4.66,9.9,9.46,13.06.64.42,1.34.74,1.98,1.16.71.46.76.99.06,1.4-4.9,2.92-8.05,7.44-11.06,12.08-.15.23-.06.62-.08.93.12.03.23.06.35.08.2-.26.4-.54.61-.79,2.12-2.58,4.15-5.25,6.4-7.72,2.43-2.68,5.39-4.59,9.11-4.94,1-.1,2.03-.01,3.05-.01-.47-1.52-1.08-2.91-1.29-4.36-.48-3.27-.78-6.57-1.1-9.86-.09-.98.37-1.38,1.39-1.36,1.77.03,3.06.99,4.13,2.28,2.02,2.42,3.34,5.23,3.95,8.28.43,2.13.48,4.35.59,6.53.03.64.15,1.04.65,1.44,1.83,1.48,3.13,3.37,4.12,5.49-1.57-1.63-3.14-3.26-4.77-4.96-.63,1.14-.6,1.11.04,1.77,1.93,1.99,3.84,3.99,5.73,6.02.33.36.58.85.74,1.32.56,1.68,1.07,3.38,1.64,5.19-1.51-1.82-2.91-3.52-4.39-5.29-.42.62-.24.9.11,1.33,1.55,1.89,3.3,3.7,4.42,5.82.93,1.76,1.1,3.93,1.45,5.95-1.67-1.98-3.33-3.97-5.06-6.03-.29.41-.46.64-.65.92.64.72,1.28,1.42,1.89,2.14.72.85,1.36,1.77,2.12,2.58,1.75,1.85,2.38,4.02,2.24,6.54-.13,2.38-.26,4.75-.95,7.07-.75-4.31-1.52-8.61-3.53-12.61,0,.51-.05,1.03.01,1.53.06.53.22,1.05.36,1.57,1.16,4.53,2.25,9.08,3.5,13.58.83,2.99.8,6.03.98,9.13-9.82-.15-19.55-.29-29.38-.44ZM44.43,57.92c-.08.02-.15.04-.23.06-1.52-3.15-3.04-6.3-4.56-9.45-.08,0-.16.02-.24.02-.51,2.58-1.02,5.17-1.55,7.88-.79-1.29-1.5-2.45-2.2-3.6-.08,0-.16,0-.24.01-.6,2.63-1.19,5.26-1.79,7.89-.09,0-.19-.01-.28-.02-.8-2.59-1.59-5.17-2.39-7.76-.1-.01-.2-.03-.3-.04-.62,1.71-1.24,3.41-1.92,5.27-.22-.42-.42-.76-.59-1.11-.54-1.15-1.08-2.3-1.6-3.46-.23-.51-.5-.71-1.12-.23,1.07,2.47,2.16,4.96,3.24,7.45.08-.03.16-.05.25-.08.45-1.69.91-3.38,1.43-5.35,1.2,3.49,1.78,6.87,2.98,10.06.14,0,.27-.02.41-.02.71-3.32,1.41-6.65,2.16-10.14.95,2.01,1.85,3.92,2.75,5.83.07-.02.15-.03.22-.05.29-2.99.57-5.98.88-9.2,1.81,3.29,3.53,6.39,5.29,9.58.08-.24.15-.38.16-.54.33-3.04.67-6.08.97-9.12.03-.28-.08-.63-.25-.86-.78-1.09-1.59-2.15-2.41-3.21-.37-.48-.77-.94-1.16-1.41-.09.04-.18.08-.26.13.78,3.82,1.56,7.64,2.34,11.45ZM22.94,32.44c.34,2.96,2.96,5.14,6.13,5.08,3.05-.06,5.74-2.37,5.93-5.14-.51-.1-1.03-.2-1.56-.3-.16.35-.28.65-.43.92-.9,1.58-2.3,2.36-4.08,2.37-1.6.01-2.89-.68-3.71-2.1-.7-1.21-.77-1.26-2.27-.84ZM24.68,26.8c4.03-.38,7.81-.74,11.59-1.1,0-.09,0-.19,0-.28-1.94-.85-3.9-1.65-6.07-1.72-2.34-.07-4.01,1.1-5.53,3.1ZM50.04,54.59c0-1.06.29-1.95-.27-2.88-1.52-2.5-2.98-5.04-4.46-7.56-.1-.17-.24-.31-.41-.52-.55,1.69-.28,3.13.69,4.5,1.48,2.07,2.89,4.19,4.45,6.45ZM27.51,30.04c-.82.33-1.7.42-1.58,1.54.1.88.68,1.19,1.58,1.24v-2.78ZM31.96,30.88c-.54-.07-1.02-.13-1.3-.16-.25,1.01-.47,1.89-.68,2.72,1.28-.23,1.88-.94,1.98-2.55ZM31.22,27.57c-1.14-1-2.92-.9-3.9.35,1.36-.61,2.66.51,3.9-.35Z"/>
  <path d="M82.68,108.21c5.29.11,10.37.22,15.67.34-2.58,3.73-5.06,7.33-7.66,11.08,1.09.05,2.08.11,3.08.13.82.02,1.83.3,2.4-.07.52-.35.55-1.42.82-2.16.43-1.2.87-2.39,1.31-3.58.03-.08.11-.13.36-.43-.13,2.13-.24,4-.36,5.99,1.03.08,2.05.16,3.31.26-.36-1.63-.7-3.13-1.03-4.63.04-.03.08-.07.12-.1.75,1.13,1.57,2.23,2.22,3.41.48.88.98,1.27,2.02.98.94-.26,1.94-.33,3.07-.5-2.77-3.46-5.48-6.85-8.37-10.46,1.87.14,3.46.21,5.05.39,6.12.7,12.14,1.85,17.93,4.02,1.04.39,2.05.87,3.06,1.34,3.66,1.73,6.36,4.44,7.92,8.19,1.04,2.49,1.9,5.06,2.86,7.59.49,1.28.9,2.61,1.6,3.76.61.99,1.59,1.76,2.4,2.63.25.26.7.59.66.8-.07.33-.43.72-.76.87-1.82.84-3.57.45-4.98-.8-1.13-1-2.14-2.21-2.9-3.5-1.16-1.96-2.02-4.11-3.1-6.13-1.21-2.27-2.51-4.49-3.8-6.72-.2-.34-.5-.62-.94-1.14v1.89c-4.33,0-8.56.04-12.79-.01-7.04-.09-14.08-.18-21.12-.39-22.97-.69-45.95-.55-68.93-.55-.25,0-.5,0-.88,0,.1-1.3.19-2.52.28-3.72.11-.05.17-.1.21-.09q2.14.36,3.19-1.54c.66-1.19,1.33-2.37,2.18-3.49-.53,1.74-1.06,3.48-1.62,5.34.88.2,1.73.4,2.68.62.04-.49.07-.9.09-1.1.33.35.75,1.17,1.18,1.18,1.07.01,2.15-.33,3.21-.6.09-.02.15-.69.01-.94-1.28-2.46-2.59-4.89-3.91-7.33-.42-.78-.88-1.53-1.41-2.46-1.86,2.42-3.63,4.72-5.56,7.23.19-2.54.49-4.84.5-7.14,0-1.87.85-3.19,2.06-4.42,1.09-1.11,2.14-2.25,3.3-3.48,1.37,2.14,2.59,4.05,3.91,6.12,1.17-1.82,2.22-3.47,3.42-5.34,1.06,2.33,2.03,4.48,3.02,6.67,1.16-2.29,2.28-4.52,3.41-6.75.1-.02.2-.03.3-.05,1.23,2.37,2.45,4.74,3.77,7.28.9-2.39,1.73-4.58,2.68-7.1.9,1.92,1.7,3.61,2.54,5.39.66-.74,1.29-1.45,1.93-2.16.08.03.16.06.24.09-.07,1.41-.13,2.81-.2,4.33,4.84.16,9.61.32,14.52.48-2.51,3.66-4.95,7.24-7.4,10.81.04.1.08.2.12.3,1.41,0,2.81.02,4.22-.02.17,0,.36-.32.47-.53.42-.74.81-1.49,1.42-2.19-.05.85-.1,1.71-.16,2.65h2.08c.09-.81.19-1.64.29-2.47.15,1.04.48,1.93,1.57,2.28,1.49.48,2.98.52,4.66-.09-2.21-3.59-4.36-7.09-6.59-10.71,4.64.15,9.13.3,13.76.45-2.3,3.56-4.52,6.99-6.86,10.61,1.58,0,3.03.02,4.47-.03.19,0,.42-.34.55-.57.6-1.08,1.16-2.17,1.95-3.22-.07,1.2-.14,2.41-.22,3.74.75.04,1.43.08,2.2.12v-3.79c.76.88,1.44,1.53,1.96,2.29,1.15,1.68,2.76,1.49,4.62,1.2-2.44-3.45-4.81-6.81-7.29-10.31ZM58.54,117.83c-2.07-3.55-4.12-7.06-6.26-10.71-3.1,3.39-4.71,7.33-6.8,11.07,3.5.35,4.68-.12,5.59-2.36.06.74.1,1.26.14,1.75h1.89c-.07-.89-.12-1.69-.19-2.63,2.41,3.23,3.51,3.83,5.63,2.89ZM33,117.4c.67.04,1.12.02,1.55.1,1.53.3,2.48-.35,3.06-1.74.34-.8.79-1.56,1.19-2.33.06.02.11.04.17.06-.2,1.4-.4,2.81-.63,4.4.76-.06,1.42-.12,2.09-.15.16,0,.35.05.49.14,1.01.62,2.01.44,3,0,.68-.31.92-.74.54-1.51-1.16-2.33-2.26-4.69-3.39-7.04-.38-.79-.75-1.58-1.18-2.48-2.72,3.29-4.89,6.74-6.89,10.58ZM123.49,120.14c-2.41-2.91-4.84-5.85-7.38-8.92-2.26,2.8-4.5,5.59-6.87,8.53,1.33.13,2.4.26,3.47.3.28,0,.62-.25.84-.48.5-.54.93-1.13,1.39-1.7.07.04.13.08.2.12-.12.75-.24,1.49-.38,2.32h2.05c.15-.8.3-1.63.49-2.67.52.78.88,1.37,1.29,1.93.16.22.39.54.59.54,1.45.05,2.89.03,4.3.03Z"/>
  <path d="M25.07,142.47c-.42-1.08-.83-2.08-1.2-3.08-1.13-3.04-2.26-6.08-3.34-9.14-.2-.57-.14-1.23-.2-1.84h11.14c-1.55,4.71-3.08,9.33-4.6,13.95.32.11.38.14.44.15q2.75.15,3.35-2.52c.09-.42.2-.83.4-1.22v3.28h1.33v-2.04c1.14,1.38,2,3.06,4.33,2.51-1.79-4.53-3.61-9.03-4.51-14.1,15.46.57,30.84,1.13,46.21,1.7-1.72,4.07-3.43,8.12-5.23,12.37.99,0,1.8.06,2.6-.03.25-.03.53-.41.67-.69.4-.82.73-1.67,1.27-2.48v2.92h1.46c.04-.33.09-.66.13-1,.47,2.32,2.26,1.03,3.72,1.44-1.95-4.1-3.4-8.12-3.94-12.44h9.95c-1.76,4.11-3.48,8.12-5.25,12.27.93,0,1.68.05,2.42-.03.26-.03.58-.35.72-.62.47-.89.87-1.81,1.45-2.66-.12.99-.25,1.98-.38,3.04h1.82v-2.09c1.28,1.16,2.12,2.82,4.2,2.51-1.55-4.16-3.05-8.19-4.59-12.33h11.36c-1.85,4.2-3.65,8.32-5.45,12.4,2.75,1.02,3.2-1.19,4.3-2.76-.1.84-.2,1.67-.3,2.61.65-.19,1.47.41,1.73-.52.16-.58.03-1.24.03-2.07.73.73.5,2,1.64,2.07.89.06,1.78.01,2.86.01-1.88-3.79-3.78-7.51-4.59-11.78,7.9-.27,15.72-.49,23.67-1.71.54,2.4,1.1,4.83,1.65,7.26-.08.03-.15.06-.23.09-.99-2.18-1.98-4.36-3.05-6.72-2.02,3.87-3.12,7.96-4.36,12.01,2.03.37,2.85-.08,3.79-2.16.03.56.05.97.08,1.49.46-.05.89-.1,1.34-.15v-2.71c.07-.03.14-.05.21-.08.18.53.43,1.04.52,1.58.17,1.06.74,1.53,1.8,1.41.12-.01.24.04.4.07.05.33.09.64.16,1.08-2.28.27-4.51.52-6.74.79-19.5,2.35-39.06,1.65-58.62,1.43-11.37-.13-22.75-.09-34.13-.13-2.13,0-4.26,0-6.53,0-.21-2.5-.41-4.79-.6-7.09.07-.02.14-.03.21-.05.23.76.46,1.51.69,2.27.13.43.24.86.37,1.28.67,2.37.72,2.4,3.45,2.24ZM60.84,142.28c.09.1.18.21.28.31.66,0,1.33-.05,1.99.01.82.07,1.3-.21,1.54-1.03.22-.73.57-1.43.86-2.14.14.53.15,1,.14,1.47-.02.46-.06.92-.1,1.37,1.51.17,1.5.17,1.73-1.17.13-.76.3-1.51.45-2.26.08,0,.15.01.23.02.14,1.17.27,2.34.41,3.49h4.07c-2.22-3.99-4.31-7.85-5.08-12.25l-.31-.06c-2.07,4.08-4.14,8.16-6.21,12.25ZM53.86,141.78q1.43.21,1.51-1.03c.03-.47.09-.94.15-1.59.7.96,1.26,1.73,1.81,2.51.63.89,1.47.95,2.57.66-1.68-4.23-3.32-8.37-5.03-12.69-2.22,4.14-3.87,8.3-5.4,12.63.63,0,1.11-.05,1.58,0,1.05.12,1.64-.24,1.89-1.33.19-.83.6-1.61.91-2.42.06.02.13.04.19.07-.06,1.04-.12,2.09-.18,3.18ZM48.12,142.08c-2.17-4.19-4.27-8.3-5.3-12.85-.13,0-.26-.01-.39-.02-1.52,4.26-3.05,8.52-4.61,12.9,1.08,0,1.88.06,2.66-.03.31-.04.7-.37.83-.66.38-.89.65-1.82.96-2.74.07,0,.13.01.2.02.05.99.09,1.99.14,3.01h1.35v-1.76c.7,1.96,2.13,2.43,4.17,2.13ZM112.91,139.45c.07-.01.15-.02.22-.04.23.54.46,1.08.71,1.61.1.22.27.58.41.58.95,0,1.9-.1,2.77-.15-1.52-3.87-2.95-7.53-4.39-11.21-1.73,3.87-3.52,7.87-5.29,11.82,2.04.53,3.43-.1,3.9-2.37.08.06.15.13.23.19v1.82h1.45v-2.26Z"/>
  <path d="M45.25,104.21c-1.31-2.47-2.55-4.82-3.86-7.3-1.24,2.4-2.42,4.68-3.67,7.1-.91-2.15-1.77-4.15-2.7-6.33-1.34,1.88-2.57,3.61-3.87,5.43-.95-1.75-1.87-3.46-2.92-5.4-2.04,1.56-3.97,3.03-5.79,4.42.42-6.45.86-13.04,1.3-19.73,10.01.38,19.91-.17,29.92-2.01-.27,4.67-.54,9.27-.8,13.87-.08.04-.15.07-.23.11-.37-.64-.74-1.29-1.24-2.15-.67.73-1.28,1.35-1.82,2.03-.09.12.08.68.24.73.61.21,1.27.33,1.91.41.33.04.67-.08.85-.1,0,2.03.13,4.01-.07,5.95-.07.72-.89,1.37-1.42,2.14-1.07-2.09-2.05-4.01-3.14-6.14-.92,2.39-1.77,4.6-2.69,6.97ZM39.61,94.63c-.34-.91-.67-1.82-1.02-2.77-1.61.23-2.06,1.66-2.89,2.67,1.12,1.19,2.66,1.21,3.91.1ZM32.69,94.23c-.18-.58-.32-1.16-.54-1.72-.26-.67-.8-.78-1.19-.2-.44.65-.77,1.38-1.11,2.09-.07.16-.03.53.08.59.35.19.84.47,1.13.36.58-.23,1.42-.24,1.63-1.12ZM44.37,95.27c1.47.02,1.8-.27,1.36-1.43-.22-.58.09-1.57-.9-1.66-1.02-.1-1.12.88-1.46,1.51-.63,1.17-.36,1.56,1,1.59ZM25.05,91.79c-.56.34-1.27.53-1.38.89-.21.7-.2,1.54,0,2.25.05.19,1.12.21,1.68.11.61-.11.45-.65.33-1.09-.17-.61-.35-1.22-.62-2.17Z"/>
  <path d="M127.25,142.95c.14,1.64.3,3.25.38,4.86,0,.21-.41.6-.67.64-3.33.54-6.66,1.13-10,1.51-13.43,1.53-26.91,1.24-40.39.85-17.71-.51-35.42-1.11-53.14-.79-.69.01-1.05-.19-1.23-.85-.37-1.37-.77-2.73-1.19-4.23.73-.03,1.26-.08,1.79-.08,20.3.13,40.6.26,60.9.4,11.22.08,22.43-.21,33.6-1.36,3.01-.31,6.02-.63,9.03-.94.28-.03.56,0,.93,0ZM97.2,146.19v3.36h1.05v-3.36h-1.05ZM118.75,148.5v-3.66c-.42.06-.71.1-.98.13v3.62c.39-.04.69-.07.98-.1ZM105.23,145.77c-.42.04-.69.06-.99.09v3.49h.99v-3.58ZM100.77,146v3.56c.39-.03.7-.05,1.02-.07v-3.49h-1.02ZM114.42,145.2v3.64c.4-.02.69-.04.98-.06v-3.58h-.98ZM67.03,146.03v3.02c.46-.02.79-.04,1.1-.05v-2.97h-1.1ZM43.64,145.71v2.83h1.17c0-.69-.04-1.32,0-1.95.06-.88-.3-1.16-1.18-.88ZM121.14,144.61v3.65c.39-.02.69-.04.96-.06v-3.68c-.39.04-.69.07-.96.09ZM93.67,146.24v3.34h1.01v-3.34h-1.01ZM63.08,145.87v2.96h1.19v-2.88c-.4-.02-.74-.05-1.19-.07ZM33.1,148.51v-2.73h-1.19v2.73h1.19ZM25.12,148.58v-2.8h-1.18v2.8h1.18ZM29.13,148.55v-2.73h-1.19v2.73h1.19ZM48.64,145.69c-.47.03-.83.05-1.16.07v2.75h1.16v-2.82ZM111.05,145.39v3.58h.96v-3.58h-.96ZM55.29,145.77v2.8h1.1v-2.8h-1.1ZM91.07,149.64v-3.24h-1.05v3.29c.41-.02.73-.04,1.05-.05ZM83.44,149.55v-3.19h-1.05v3.19h1.05ZM87.27,149.58v-3.19h-1.08v3.19h1.08ZM75.81,149.35v-3.14h-1.05v3.14h1.05ZM59.18,145.82v2.89h1.12v-2.89h-1.12ZM51.4,148.54h1.12v-2.84h-1.12v2.84ZM125.34,147.9v-3.64c-.08-.06-.16-.12-.24-.18-.24.23-.66.44-.68.68-.08,1.03-.03,2.08-.03,3.19.42-.02.69-.04.96-.05ZM37.01,148.56v-2.86h-1.1v2.8c.38.02.69.04,1.1.06ZM70.86,149.16h1.13v-2.99h-1.13v2.99ZM78.55,149.41h1.08v-3.06h-1.08v3.06ZM39.7,148.49h1.12v-2.74h-1.05c-.03.18-.06.33-.06.48,0,.72,0,1.45,0,2.26Z"/>
  <path d="M84,165.85c1.1-.07,2.08-.13,3.25-.21-.2.4-.36.65-.45.92-.11.35-.29.75-.22,1.08.08.36.42.66.64.98.28-.23.71-.4.8-.69.21-.69.27-1.43.4-2.28h2.11c-.66,1.67-1.31,3.25-1.92,4.84-.13.35-.26.84-.11,1.11.16.28.69.53,1.01.48.31-.05.76-.47.8-.77.21-1.54.42-3.1.42-4.65,0-1.02.35-1.26,1.27-1.19.94.07,1.9.01,2.95.01,0,.46-.03.93,0,1.39.12,1.58.24,3.17.39,4.75.05.56.31,1.03.98.87.64-.15.98-.58.79-1.28-.54-1.89-1.08-3.79-1.65-5.79.39-.03.84-.08,1.3-.12.36,1.83.67,3.6,1.08,5.35.12.5.49.96.84,1.36.07.08.79-.19.82-.36.09-.55.06-1.14-.05-1.69-.13-.62-.41-1.21-.65-1.91.3.03.36.04.42.05.42.09,1.13.37,1.2.25.36-.57.48-1.26-.07-1.84-.34-.36-.73-.68-1.29-1.2.83-.06,1.41-.14,1.99-.12.16,0,.38.27.46.47,1.82,4.44,3.65,8.88,5.43,13.33.62,1.55,1.08,3.16,1.64,4.85-1.07.05-1.86.09-2.64.13-.22.01-.5-.01-.65.11-.37.29-.68.65-1.02.98.37.33.72.9,1.13.95.93.1,1.89-.06,3.05-.12-.32,3.91-.65,7.91-.98,11.88-.84.14-1.54.21-2.21.37-.36.08-.75.25-1,.5-.21.22-.39.65-.32.92.07.25.47.54.75.57.78.08,1.58.03,2.52.03-.14,1.54-.27,2.94-.42,4.54-1.92-.1-3.78-.18-5.64-.32-.86-.06-1.7-.24-2.55-.35-.52-.07-.74-.29-.77-.86-.16-3.34-.4-6.68-.54-10.02-.12-2.94-1.05-5.47-3.02-7.72-4.57-5.2-8.02-11.07-9.9-17.78-.16-.57-.24-1.15-.38-1.81ZM103.99,193.81c.51,0,1.02.03,1.52-.01.18-.01.51-.17.51-.27.03-.72.08-1.47-.1-2.16-.04-.17-.9-.16-1.38-.18-.38-.02-.76.04-1.14.07-1.25.08-1.37.28-1.4,1.6-.03,1.18.77.9,1.42.95.19.01.38,0,.57,0ZM93.39,165.69c-.19-.01-.39-.02-.58-.03-.33,1.86-.65,3.72-1,5.57-.13.69.06,1.17.77,1.26.72.09,1.08-.37,1.06-1.04-.06-1.92-.17-3.84-.25-5.76ZM102.27,187.94c.23,1.5.56,1.81,1.86,1.86.57.02,1.14-.01,1.71-.05,1.27-.08,1.57-.41,1.66-1.81h-5.23ZM104.14,196.9c.48-.04.9-.06,1.3-.12.85-.13.9-.77.87-1.44-.03-.74-.58-.61-1.04-.61-.38,0-.76,0-1.14.05-1.05.11-1.35.5-1.24,1.59.1,1.03.86.39,1.25.53Z"/>
  <path d="M51.24,126.39v-3.21c-.75,0-1.38-.05-2,.03-.21.03-.52.34-.55.55-.11.79-.11,1.59-.16,2.43-9.26-.2-18.54-.41-27.96-.61.09-1.3.18-2.64.27-4.03,2.16,0,4.26-.04,6.35,0,13.6.29,27.2.71,40.8.88,12.3.16,24.59.06,36.89.09.63,0,1.4-.33,1.79.59.06.13.53.14.81.12,5.5-.32,11-.64,16.49-.97.22-.01.43,0,.74,0,.07,1.3.13,2.56.21,4.02-1.75.17-3.47.39-5.2.51-14.16.96-28.34.91-42.51.5-8.31-.24-16.62-.56-24.93-.84-.28,0-.57-.03-1.04-.06ZM93.39,123.11c-.65,0-1.23-.04-1.79.02-.23.02-.59.23-.62.4-.14.82-.18,1.66-.27,2.6,1-.07,1.81-.13,2.67-.19v-2.83ZM95.61,126.01c1.9.24,2.24-.05,2.21-1.83,0-.1,0-.19,0-.29-.02-.44.04-.95-.67-.88-.61.06-1.4-.16-1.52.75-.09.74-.02,1.51-.02,2.25ZM86.05,126.17c2.29.4,2.37.3,2.47-1.64.05-.98-.35-1.16-1.21-1.14-.7.02-1.06.2-1.08.94-.02.6-.11,1.19-.17,1.85ZM78.73,123.43c-.13.81-.25,1.58-.38,2.37,2.61.25,2.97-.11,2.47-2.37h-2.1ZM21.97,122.11v2.99h1.85c0-.55,0-1.02,0-1.5s0-.98,0-1.49h-1.85ZM58.46,125.53h2.25c.41-2.57.3-2.47-2.06-2.21-.06.7-.12,1.41-.19,2.21ZM36.61,122.58h-2.02v2.58c.69.04,1.33.08,2.02.12v-2.71ZM65.64,123.4c-2.47-.36-2.53-.35-2.26,2.07,2.37.23,2.44.16,2.26-2.07ZM55.9,123.21h-2.23v2.24h2.23v-2.24ZM71.06,125.8c1.76.17,2.35-.5,1.92-2.07-.19-.7-.74-.66-1.28-.68-.58-.01-.65.35-.64.81.01.63,0,1.25,0,1.94ZM43.46,122.85h-1.77v2.51h1.77v-2.51ZM74.73,125.61c1.78.22,2.25.04,2.35-.85.09-.88-.23-1.33-1-1.4-1.12-.1-1.24.09-1.35,2.25ZM67.42,125.62c.53-.05.98-.01,1.37-.15.92-.33.55-1.15.56-1.8.01-.66-.5-.59-.95-.63-.71-.05-1.08.16-1,.95.05.49,0,1,0,1.63ZM26.05,124.84h1.54v-2.58h-1.54v2.58ZM84.97,123.49c-1.84-.35-2.1-.01-1.75,2.34.56-.04,1.14-.09,1.75-.13v-2.21ZM30.58,122.46v2.43h1.65v-2.43h-1.65ZM99.02,125.58c1.73-.1,1.71-.1,1.7-1.57,0-.58-.09-.92-.81-.95-.77-.02-.91.33-.89.96.02.5,0,1,0,1.56ZM47.14,125.15v-2.26h-1.62v2.26h1.62ZM39.89,125.1c.16-2.3-.03-2.54-1.7-2.14.05.69.1,1.4.15,2.14h1.55ZM105.03,124.21c.06.61.01,1.28.25,1.82.09.2,1.22.22,1.26.11.21-.58.21-1.23.29-1.93h-1.8ZM103.93,124.09h-1.49c-.05.66-.1,1.27-.14,1.87,1.8.21,1.95.03,1.63-1.87ZM108.87,126.03h1.14v-1.93c-1.28-.19-1.4.02-1.14,1.93ZM119.43,123.95c-.55.03-.98.05-1.43.07v1.61h1.43v-1.68ZM116.42,123.96c-.1-.08-.2-.17-.3-.25-.35.12-.97.19-1,.37-.1.53,0,1.1.11,1.64.02.08.74.13.75.08.19-.6.3-1.22.44-1.83ZM121.62,123.73v1.7h1.27v-1.84c-.44.05-.8.09-1.27.14ZM113.32,124.43c-.62-.02-1.24-.42-1.41.41-.1.45-.21,1.17.54,1.19,1.02.02.59-.91.87-1.59Z"/>
  <path d="M41.92,204.06c-2.23-.2-4.25-.36-6.26-.61-.22-.03-.5-.57-.54-.9-.47-3.69-.83-7.4-1.36-11.08-.32-2.23-.87-4.43-1.34-6.63-.1-.46-.23-.95-.48-1.34-2.62-4.09-3.82-8.71-4.96-13.35-.87-3.58-1.72-7.16-2.6-10.84.39.41.74.83,1.14,1.19,1.79,1.62,3.6,3.23,5.4,4.85,1.69,1.52,2.64,3.44,3.25,5.61,1.96,6.98,4.07,13.91,5.93,20.91.76,2.87,1.05,5.88,1.51,8.82.16,1,.19,2.02.31,3.35ZM33.62,179.44c.65-1.34,1.09-2.69.92-4.21-1.02.05-2.29,1.01-2.46,1.77-.15.69.61,1.98,1.54,2.44ZM32.61,170.73c-2.21,1.31-2.45,1.88-1.79,3.74.12.35.43.63.65.94.31-.33.84-.62.9-.98.17-1.14.16-2.3.24-3.7ZM29.51,165.61c-.18.05-.37.09-.55.14,0,.92-.08,1.84.02,2.75.08.73.65.8,1.07.3.3-.36.58-.98.47-1.38-.17-.65-.66-1.21-1.01-1.81Z"/>
  <path d="M115.96,236.15c.51-1.13.14-2.63,1.74-3.07-1-.29-1.37-.16-1.79.68-.22.45-.41.93-.55,1.42-.41,1.35-.44,1.38-1.93,1.09.16-2.33.62-2.98,2.18-3.18-1.49-.23-1.99.08-2.64,1.66q-.73,1.75-2.61,1.64c-.09,0-.19-.03-.45-.07.96-2.14,2.01-4.12,3.98-5.46.24-.16.48-.33.74-.43,3.14-1.27,4.28-3.86,4.42-6.97.12-2.76,0-5.53,0-8.3,0-.25,0-.5,0-.82,2.61-.22,5.23-.45,7.94-.68,0,.29.01.56,0,.82-.29,6.14-.59,12.27-.84,18.41-.04.94-.39,1.46-1.22,1.81-1.75.72-6.84,1.6-8.97,1.45Z"/>
  <path d="M98.62,213.9c2.45.4,4.86.79,7.39,1.2-.03.4-.07.87-.09,1.33-.2,4.96-.39,9.93-.61,14.89-.02.38-.15.83-.39,1.11-2.24,2.55-5.15,3.45-8.65,3.42.63-1.91,1.23-3.7,1.82-5.5-.64-.35-1.04-.09-1.26.51-.6,1.6-1.18,3.21-1.84,5-1.18-.1-2.52-.21-4.06-.35.54-.94.9-1.76,1.43-2.45,1.22-1.63,2.39-3.33,3.82-4.76,1.61-1.61,2.33-3.49,2.41-5.64.09-2.54.03-5.09.03-7.63,0-.38,0-.75,0-1.14Z"/>
  <path d="M38.58,234.73c.92-1.64,1.6-3.21,2.6-4.54,2.82-3.79,3.64-8.12,3.74-12.68.01-.63.06-1.26.09-1.83,2.39.2,4.71.39,7.17.59,0,.12,0,.43,0,.73-.06,2.1-.21,4.2-.18,6.31.03,2.22.14,4.45.4,6.66.12,1.01-.05,1.86-.75,2.41-1,.8-2.09,1.62-3.28,2.01-1.55.51-3.13.68-4.74.68-.56,0-1.13-.02-1.71-.05-1.09-.06-2.2-.18-3.34-.28Z"/>
  <path d="M118.32,203.72c3.36-.25,6.59-.49,9.93-.74-.14,1.08-.29,2.17-.42,3.25-.18,1.45-.34,2.91-.55,4.36-.04.26-.25.69-.42.71-2.64.3-5.29.55-8.24.85.94-2.13,1.74-3.94,2.53-5.72,1.04,1.54,2.09,3.07,3.25,4.79.83-2.51,1.57-4.76,2.31-7.01l-.47-.18c-.71,1.72-1.42,3.44-2.18,5.29-.95-1.56-1.9-3.13-2.98-4.9-.79,1.63-1.51,3.11-2.23,4.58-.08-.02-.17-.04-.25-.06-.09-1.73-.18-3.46-.27-5.19Z"/>
  <path d="M45.94,79.08c-2.35.19-4.69.38-7.21.59v-8.72h7.21v8.13ZM41.6,74.99c0,.92.54,1.55,1.31,1.57.76.01,1.34-.65,1.34-1.54,0-.93-.61-1.66-1.37-1.64-.74.03-1.29.72-1.28,1.61Z"/>
  <path d="M48.11,211.59c-1.1-1.33-2.2-2.59-3.2-3.94-.31-.41-.33-1.04-.48-1.56,2.8.18,5.48.35,8.32.54-.06,1.09-.13,2.39-.2,3.7-.06.02-.13.03-.19.05-.53-.96-1.05-1.92-1.59-2.91-.71.11-.82.48-.56,1.07.6,1.4,1.2,2.81,1.79,4.21.12.29.29.58.34.88.19,1.11-.01,1.42-1.13,1.37-1.83-.09-3.66-.31-5.49-.47-.53-.05-.76-.32-.75-.87.03-1.38,0-2.77,0-4.34,1.01,1.33,1.95,2.58,3.02,4,.87-1.71,1.48-3.34,1.37-5.21-.42,1.17-.84,2.34-1.25,3.47Z"/>
  <path d="M31.36,79.74v-8.92h5.35c.11,2.96.22,5.89.34,8.92h-5.69ZM35.46,75.11c0-.9-.64-1.69-1.36-1.67-.71.02-1.27.74-1.26,1.64,0,.86.63,1.59,1.35,1.57.67-.01,1.27-.74,1.28-1.55Z"/>
  <path d="M24.32,70.81h5.17c.15,2.98.3,5.92.46,8.88h-6.01c.13-3.03.26-5.91.38-8.88ZM28.21,74.85c-.02-.88-.64-1.6-1.33-1.58-.76.03-1.35.79-1.31,1.7.04.87.66,1.57,1.38,1.54.68-.02,1.28-.82,1.26-1.66Z"/>
  <path d="M98.08,206.38c2.88.24,5.63.47,8.52.71-.14,1.82-.29,3.69-.45,5.8-1.82-.29-3.55-.49-5.25-.87-2.52-.55-2.51-.6-2.66-3.2-.05-.82-.1-1.64-.15-2.44ZM104.59,207.8c-.15.02-.3.04-.45.06,0,.81,0,1.61,0,2.42,0,.66.34.71.95.56-.24-1.03,0-2.11-.49-3.04Z"/>
  <path d="M47.98,78.88v-7.74h5.86c0,.68,0,1.26,0,1.85-.01,1.4-.04,2.8-.05,4.2,0,.54-.16.85-.8.93-1.66.2-3.31.49-5.01.76ZM49.61,74.99c0,.9.55,1.56,1.29,1.57.75.01,1.31-.65,1.31-1.55,0-.96-.57-1.64-1.35-1.62-.76.02-1.26.66-1.25,1.6Z"/>
  <path d="M35.39,205.93c2.23.12,4.37.24,6.57.36.15,2.04.31,4.08.47,6.19-2.21.11-4.22-.27-6.21-.84-.19-.05-.44-.33-.45-.52-.15-1.73-.26-3.47-.38-5.19ZM36.53,207.16c-.23,1.84.08,3.25.76,3.55.37-1.54,0-3.42-.76-3.55ZM39.11,207.09c-.63.73-1.01,2.9-.7,3.41.07.11.3.24.37.2.14-.08.31-.26.32-.4.03-1,.01-2,.01-3.21ZM40.85,207.35c-.13-.02-.26-.03-.39-.05l-.52,3.4c.14.02.29.04.43.07.53-1.08.49-2.25.48-3.42Z"/>
  <path d="M1.77,46.92c-1.87-1.07-2.33-3.19-1.04-4.64.19-.22.7-.39.94-.29.44.19,1.12.58,1.13.9.05,1.39-.27,2.75-1.03,4.03Z"/>
  <path d="M98.48,167.4c-.33-.64-.66-1.29-1.06-2.07h1.36v1.95l-.3.11Z"/>
  <path d="M35.36,212.17c2.33.4,4.62.79,7.03,1.2-.03.4-.06.87-.08,1.33-.19,4.96-.37,9.93-.58,14.89-.02.38-.14.83-.37,1.11-2.13,2.55-4.9,3.45-8.23,3.42.6-1.91,1.17-3.7,1.74-5.5-.61-.35-.98-.09-1.2.51-.57,1.6-1.13,3.21-1.75,5-1.12-.1-2.39-.21-3.87-.35.51-.94.86-1.76,1.36-2.45,1.16-1.63,2.27-3.33,3.63-4.76,1.53-1.61,2.21-3.49,2.29-5.64.09-2.54.02-5.09.03-7.63,0-.38,0-.75,0-1.14Z"/>
</svg>