<?xml version="1.0" encoding="UTF-8"?>
<svg id="Ebene_1" xmlns="http://www.w3.org/2000/svg" viewBox="0 0 163.38 167.16">
  <path d="M112.84,57.9c-1.53,2.11-3.56,3.77-5.31,5.68-.93,1.01-1.83,2.04-2.99,3.32,2.1-.29,3.43-1.59,5.1-1.95.17-.09.34-.17.51-.26.1-.03.21-.06.31-.1,1.5.67,2.96,1.36,3.55,3.11.15.45.58.86,1.11,1.04-1.84,1.31-3.68,2.61-5.52,3.92,2.2.06,4.21-.68,6.32-.68-.13.9.59.99,1.16,1.17,1.25.41,2.4.97,3.3,1.96-2.48,1.1-5.18,1.44-7.73,2.3-.64.22-1.28.46-1.98.72,1.8,1.02,3.86.07,5.55,1.08.04.63.48.9.98.72,1.67-.59,1.66.88,2.07,1.69.45.88,0,1.64-.78,2.18-1.09.76-1.59,1.81-1.59,3.12-1.98.63-4.04.72-6.18,1.02,1.63.57,3.26,1.15,4.89,1.72-.04.67.19,1.11.74,1.61,1.33,1.23,2.51,2.63,3.74,3.95-2.43-.06-4.71-.87-7.06-1.34-1.02-.21-2.05-.41-3.07-.61-.18-.03-.49-.13-.51-.09-.13.27.17.25.29.35.57.5,1.14,1.01,1.7,1.51-.58,1.69-1.17,3.38-.24,5.13.43.82,1.32,1.41,1.2,2.49-2.66-.73-4.8-2.61-7.59-3.49.49.96,1.05,1.63,1.66,2.28,4.03,4.24,8.05,8.5,12.08,12.75.26.27.54.52.53.94-.64.17-1.42-1.04-1.76-.21-.59,1.44-1.24.81-2.05.43-1.7-.79-2.48-.5-3.2,1.09-1.91-.97-3.36-2.56-5.04-3.82-2.16-1.62-4.19-3.42-6.27-5.14-.29-.24-.5-.55-.55-.94.62-.51.31-1.3.58-1.93.2-.45-.24-.74-.64-.61-1.42.44-3.21-.56-4.33,1.17-.24.36-.94.44-1.45.59-.9.28-1.47.01-1.47-1.03.11-.05.22-.1.33-.14l.28-.2.34-.13c.11-.08.21-.16.32-.24l.08-.06c.49-.05,1.13.19,1.21-.63.13-.11.25-.23.38-.34.08-.07.16-.14.24-.21.36-.25.72-.5,1.08-.75.09-.04.16-.1.21-.19.03-.06.08-.11.15-.13.06-.04.12-.1.17-.16.04-.07.1-.13.17-.17.05-.03.09-.08.13-.13,1.58-1.52,2.93-3.22,4.13-5.05,4.12-6.31,4.98-13.19,2.96-20.3-1.84-6.47-5.97-11.3-11.86-14.58-.1-.07-.2-.15-.3-.22h0c-.05-.82-.02-1.46.99-1.83,1.24-.46,1.34-1.36.36-2.3.43-.64.86-1.28,1.29-1.92,1.45.17,2.91.52,4.33-.25.43-.23.67.12.72.56-.38,1.5-1.55,2.61-2,4.07-.17.14-.35.37-.16.51.24.18.29-.15.4-.3.8-.54,1.6-1.09,2.4-1.63.08.1.15.2.23.31.03-.14.06-.29.09-.43.15-.26.33-.48.65-.53.1.58.56.68.95.48,1.58-.78,3.42-.53,5-1.31.63-.31,1.47-.52,1.85.21.66,1.26,1.72,1.22,2.84,1.17Z" style="fill: #c49c48;"/>
  <path d="M94.25,56.97c.99.94.88,1.85-.36,2.3-1.01.37-1.04,1.01-.99,1.83-.49-.18-.99-.33-1.47-.54-3.29-1.4-6.74-2.06-10.3-1.98-1.62.04-3.23.38-4.85.58.51-1.11.02-2.4.64-3.49.29-.2.33-.4.02-.62.01-.22.02-.44.04-.66,1.04-.74.59-1.65.28-2.54.02-.44.04-.89.06-1.33.59-.78.8-1.6.27-2.5.02-.33.03-.66.05-.98,1.03-.85.55-1.86.3-2.84.01-.56.02-1.12.04-1.68.23-.7.85-1.35.28-2.16,0-.45.02-.9.02-1.35.16-.82.88-1.58.29-2.49.02-.56.04-1.12.05-1.68.93-2.04.73-4.18.6-6.31,0-.24.01-.47.02-.71.35-.8.87-1.58.3-2.49,0-.45,0-.89,0-1.34.63-.77.79-1.59.32-2.5,0-.45,0-.9,0-1.35.28-.7.87-1.36.31-2.17,0-.23.01-.45.02-.68.16-.12.45-.23.46-.36.07-.74.06-1.48.1-2.22.04-.59.37-1.05.92-1.16.78-.15.61.53.67.96.07.52.53.61.87.85,0,.65.02,1.31.03,1.96-.61.83.02,1.49.31,2.19,0,.34,0,.68,0,1.01-.6,1.12-.03,2.12.32,3.14,0,.34,0,.67,0,1.01-.6.83.02,1.49.32,2.19,0,.34,0,.67,0,1.01-.08.19-.27.4-.24.56.55,2.66-.05,5.42.7,8.03.49,1.69-.28,3.54.79,5.11,0,.34.02.67.03,1.01-.4.55-.43,1.08.07,1.58.89,2.42.49,5,.88,7.49.18,1.13.2,2.3.48,3.52.72-.93.49-2.16,1.18-3.02,1.98,1.53,2.73,1.42,3.99-.72.47-.8,1.04-1.55,1.22-2.55.32-1.7,1.32-3.16,2-4.73.1-.23.22-.57.53-.47.3.09.23.43.23.69-.7,3.79-1.4,7.58-2.1,11.37-.08.46-.32.93.27,1.23Z" style="fill: #c49c48;"/>
  <path d="M78.61,131.85c-.01-.34-.02-.69-.03-1.03.37-.88-.09-1.67-.27-2.49-.02-.66-.04-1.33-.05-1.99.4-.88-.09-1.67-.26-2.49-.33-3.74-.65-7.48-.98-11.22.42.22.82.35.85-.35.03-.62.14-1.33-.86-1.27,0-.12-.01-.25-.02-.37,1.2-.99,1.09-2.19.58-3.47.2-.25.45-.15.72-.14,2.86.17,5.72.38,8.57-.16.4.49.72-.02,1.07-.09.05-.05.12-.07.19-.07-.32,1.23-.64,2.46-.96,3.68-.67.79-.57,1.8-.61,2.69-.25,5.41-.91,10.77-1.37,16.16-.57.1-.57.54-.57.97,0,1.21-.1,2.41-.27,3.62-.21,1.53-.09,3.1-.12,4.65,0,.23,0,.46,0,.7-.22.82-.9,1.59-.31,2.51,0,.44,0,.88,0,1.32-.56.66-.85,1.36-.34,2.19,0,.44,0,.89,0,1.33-2.51.81-3.21.42-4.03-2.24,0-.55,0-1.1,0-1.64.53-1.11-.14-2.11-.3-3.15-.02-.25-.03-.5-.05-.75-.15-.91.24-1.87-.25-2.75-.01-.55-.03-1.11-.04-1.66.39-.89-.07-1.68-.28-2.5Z" style="fill: #c49c48;"/>
  <path d="M49.08,72.15c1.65.28,3.3.57,5.37.92-1.58-1.44-3.23-2.08-4.41-3.31.55-.08.72-.39.52-.9-.51-1.27.16-2.38.51-3.5.16-.52.71-.91.57-1.56,2.24,1.07,4.48,2.14,6.72,3.2.08.68-.26,1.15-.66,1.68-1.39,1.84-.83,4.06,1.24,5.21-.54,2.14-1.08,4.28-1.61,6.42-.41,1.6-.45,3.19.02,4.78.15.96.48,1.89.39,2.87-1.28.18-1.33,1.1-1.31,2.1.03,1.45-.34,2.67-1.97,3.09-2.08,0-4,.83-6.02,1.12-.11-1.44.02-2.82,1.02-3.97.31-.36.11-.68-.04-1.01,1.08-.75,2.5-.65,3.88-1.52-1.5-.19-2.7-.35-3.91-.51-.5-.84-.64-1.65-.46-2.69.29-1.65.29-3.35.96-4.92.22-.51-.27-.61-.46-.88,1.2-.14,2.4-.28,3.82-.45-1.81-1.11-3.81-.98-5.44-1.9-.1-.66.25-1.24.3-1.87.08-.91,1.28-1.36.97-2.42Z" style="fill: #c49c48;"/>
  <path d="M87.14,110.4c.32-1.23.64-2.46.96-3.68,1.52-.86,3.2-1.33,4.81-1.97,0,1.04.57,1.3,1.47,1.03.51-.15,1.22-.23,1.45-.59,1.13-1.72,2.91-.73,4.33-1.17.4-.12.84.16.64.61-.28.63.03,1.42-.58,1.93-.64.29-.94-.48-1.51-.56-.04.84.73,1.35.6,2.11-.22.23-.48.42-.64.68-.45.74-1.12,1.04-1.88,1.43-.78.4.87,1.5.03,2.33-1.32-1.02-1.64-2.77-2.94-4.05.92,4.96,1.82,9.72,2.69,14.48.22,1.24.63,2.46.48,3.75.03.33-.04.69.3.91,0,.22-.02.44-.03.67-.42.51-.44,1.25-.13,1.62.95,1.15-.31,1.38-.71,1.88-.52.64-1.03.12-1.45-.29-.33-.33-.73-.37-1.16-.36,0,0,0,0,0,0,.03-.49-.03-.95-.5-1.25-2.12-6.17-4.26-12.33-6.11-18.58-.09-.3-.08-.63-.12-.95Z" style="fill: #c49c48;"/>
  <path d="M54.46,93.16c1.62-.41,1.99-1.63,1.97-3.09-.02-1,.03-1.92,1.31-2.1.94,3.46,2.53,6.63,4.47,9.63.07.81-1.21.93-.93,1.85.71,2.34,1.34,4.7,2.46,6.89-.04.09-.1.17-.19.22,0,0,0,.01,0,.01-2.08,1.81-4.16,3.63-6.48,5.15.15-1.09-.14-2.14-.65-3.05-.95-1.72-1.27-3.49-.96-5.4,1.01-1.22,2.02-2.44,3.02-3.66.03-.11.06-.22.1-.32-.12.02-.24.04-.35.06-1.83.41-3.18,1.84-4.99,2.29-.04-.77.14-1.54-.51-2.23-.8-.85-1.47-1.81-.84-3.11.17-.35-.12-.57-.48-.64.83-1.08,2.3-1.36,3.06-2.51Z" style="fill: #c49c48;"/>
  <path d="M39.49,86.36c-.34-.03-.67-.05-1.01-.08-.91-.46-1.87-.12-2.81-.22-4.74-.02-9.43-.61-14.15-1.01-1.94-.78-3.97-.8-6.02-.67-.22,0-.44-.02-.66-.03,0-.37.08-.76-.03-1.09-.37-1.11.08-1.28,1.13-1.47,1.01-.18,2.09.06,3.03-.48.24-.02.49-.03.73-.05,1.14-.14,2.32.26,3.43-.27,5.54-.76,11.12-1.02,16.7-1.32.09,1.52.21,3.03.27,4.55.03.76.19,1.6-.62,2.13Z" style="fill: #c49c48;"/>
  <path d="M77.56,107.18c.51,1.27.63,2.48-.58,3.47-.58.13-.59.61-.74,1.07-1.51,4.71-3.05,9.4-4.6,14.1-.03.08-.16.13-.24.19-.88-.49-.77-1.5-1-2.24-.87-2.83-2.13-5.6-.73-8.75.66-1.47.54-3.3-.11-4.94,0-.44,0-.87,0-1.31-1.16-1.29-1.46-2.54.14-3.75.16-.12.12-.49.17-.75,2.52,1.06,4.93,2.39,7.66,2.9Z" style="fill: #c49c48;"/>
  <path d="M100.59,55.36c-.05-.44-.29-.79-.72-.56-1.42.77-2.87.42-4.33.25,2.39-4.15,5.4-7.88,8.13-11.8,1.91-2.74,3.76-5.53,5.95-8.06.08-.1.16-.2.25-.3.07-.11.13-.22.2-.33.4-.07.76,1.04,1.09.18.53-1.4,2.14-1.87,2.59-3.36.28-.9.34.21.57.24-1.76,3.69-4.03,7.09-6.03,10.64-2.42,4.28-4.89,8.54-7.34,12.8-.07.13-.23.2-.35.3Z" style="fill: #c49c48;"/>
  <path d="M42.79,49.22c-4.48-4.69-8.95-9.39-13.45-14.06-2.54-2.64-5.13-5.24-7.7-7.86-.3-.3-.62-.59-.88-.92-.22-.27-.62-.59-.21-.94.3-.25.59.08.82.27,1.41,1.13,2.79,2.29,4.2,3.4,6.1,4.79,12.21,9.57,18.31,14.36.37.29.67.66,1,1-2.31.04-2.87.93-1.73,3.07.44.82.6,1.3-.38,1.68Z" style="fill: #c49c48;"/>
  <path d="M120.1,95.24c-1.24-1.33-2.41-2.73-3.74-3.95-.54-.5-.78-.94-.74-1.61,7.86,2.1,15.61,4.55,23.35,7.05,1.69,1.41,3.9,1.67,5.83,2.61-.28.36-.63.45-1.01.48-.34-.04-.67-.07-1.01-.11-.31-.31-.72-.16-1.09-.24-.27-.02-.55-.04-.82-.06-.24-.27-.57-.21-.87-.24-2.89-.21-5.68-1.02-8.51-1.53-3.46-.63-6.91-1.32-10.37-2-.35-.07-.68-.25-1.02-.38Z" style="fill: #c49c48;"/>
  <path d="M68.93,56.61c1.24.27.61-.7.56-1.01-.62-3.33-1.38-6.64-1.96-9.98-.48-2.76-1.25-5.46-1.46-8.27-.1-2.69.92-5.12,1.84-7.57,1.58,3.98,3.05,7.99,4.14,12.13-1.32,1.17-1.34,2.9-1.83,4.4-.73,2.25-.49,4.64-.17,6.93.19,1.32.74,2.37.13,3.88-.36.9,1.45,2.18,1.32,3.67-.9.62-1.81,1.22-2.84,1.61-.6-.68-.96-1.47-.35-2.26.83-1.1.98-2.26.63-3.54Z" style="fill: #c49c48;"/>
  <path d="M116.91,86.94c0-1.31.5-2.36,1.59-3.12.78-.54,1.24-1.29.78-2.18-.41-.81-.4-2.29-2.07-1.69-.5.18-.94-.09-.98-.72.07-.03.13-.01.18.05.16-.06.31-.12.47-.18,3.38-.03,6.72.45,10.07.77,1.44.14,2.97-.32,4.33.5-.18.84.55,1.97-.75,2.46-1.33.51-1.75,2.01-.87,3.17-1.64.81-3.44.32-5.15.57-2.12.31-4.3.71-6.48.42,0,0,0,0,0,0-.37-.02-.74-.03-1.11-.05Z" style="fill: #c49c48;"/>
  <path d="M112.84,57.9c-1.12.05-2.17.09-2.84-1.17-.38-.73-1.22-.52-1.85-.21-1.58.78-3.42.52-5,1.31-.39.19-.85.1-.95-.48,4.06-3.49,8.24-6.82,12.55-10,.09-.04.17-.11.24-.19.05-.07.12-.12.2-.15,0,0,.06-.06.06-.06.35-.29.71-.57,1.06-.86.7.33.88-.06.92-.65,0,0,0,0,0,0,.1-.09.21-.18.31-.27,0,0,.06-.05.06-.05.08-.07.16-.13.24-.2.11-.04.22-.08.33-.13-.23,1.63-.01,3.33-.95,4.83-.33.53-.42,1.21-.76,1.73-.66,1.01-.26,1.48.73,1.75-1.04,1.97-2.87,3.23-4.35,4.81Z" style="fill: #c49c48;"/>
  <path d="M96.08,44.36c0-.26.07-.6-.23-.69-.31-.09-.43.24-.53.47-.68,1.58-1.68,3.03-2,4.73-.19.99-.75,1.74-1.22,2.55-1.26,2.14-2.01,2.24-3.99.72.99-4.27,2.75-8.3,4.04-12.48.44-1.41.98-2.79,1.48-4.18.09-.16.18-.32.26-.47.02-.15.05-.31.07-.46,1.36-.21,2.66.33,4,.33-.56,3.18-.97,6.38-1.89,9.48Z" style="fill: #c49c48;"/>
  <path d="M41.72,64.04c-3.13-1.69-5.9-3.93-8.88-5.86-4.46-2.87-8.79-5.92-13.17-8.91-.57-.39-1.1-.85-1.56-1.45,8.84,3.66,17.42,7.85,25.86,12.34-.57,1.39-1.37,2.65-2.24,3.88Z" style="fill: #c49c48;"/>
  <path d="M112.09,116.46c.72-1.59,1.5-1.87,3.2-1.09.81.38,1.47,1,2.05-.43.34-.83,1.12.38,1.76.21.24.24.47.49.71.73,0,.09.05.15.13.16,3,2.74,5.81,5.65,8.48,8.71-.22.51.53,1.49-.05,1.47-1.21-.04-1.38,1.07-2.16,1.42-2.67-1.57-4.92-3.7-7.35-5.58-2.31-1.8-4.52-3.73-6.78-5.6Z" style="fill: #c49c48;"/>
  <path d="M69.9,104.29c-.05.25-.02.63-.18.75-1.6,1.21-1.31,2.45-.14,3.75-1.02.45-1.2,1.56-1.77,2.35-1.48,2.05-2.66,4.31-4.34,6.21.32-1.79-1.23-3.1-1.25-4.8,0-.09-.24-.18-.37-.26.44-1.75,1.68-3.11,2.33-4.76.19-.47.62-.85.56-1.42-.42-.22-.62.35-.99.25-1.12-2.19-1.74-4.56-2.46-6.89-.28-.92,1-1.05.93-1.85,2.18,2.66,4.86,4.76,7.69,6.69Z" style="fill: #c49c48;"/>
  <path d="M24.78,135.41c.35-.35.69-.7,1.04-1.05.08-.07.16-.13.24-.2,0,0,.09-.11.08-.11.08-.08.15-.17.23-.25,0,0,.06-.07.06-.07.08-.09.16-.18.25-.27,0,0,.06-.06.06-.06.09-.09.17-.18.26-.27,0,0,.05-.05.05-.05.09-.09.18-.18.27-.28,0,0,.05-.05.05-.05.09-.09.18-.18.27-.28,0,0,.04-.04.04-.04.09-.1.18-.19.27-.29,4.43-4.57,8.86-9.14,13.29-13.71.43,1.57,1.45,2.72,2.66,3.73.03.02.02.1.02.15-3.78,3.41-7.89,6.41-11.88,9.56-2.02,1.59-4.06,3.14-6.09,4.71-.44.08-.87.16-1.43.27.11-.56.19-1,.28-1.44Z" style="fill: #c49c48;"/>
  <path d="M117.19,53.1c-.99-.27-1.39-.74-.73-1.75.34-.52.43-1.2.76-1.73.94-1.5.72-3.21.95-4.83,2.27-2.45,5.14-4.18,7.68-6.32,1.24-1.04,2.58-1.96,3.88-2.93.24.18.37.46.2.69-.9,1.22-.7,2.49-.23,3.78-4.04,4.49-8.05,9.01-12.51,13.11Z" style="fill: #c49c48;"/>
  <path d="M71.49,60.8c.14-1.49-1.68-2.77-1.32-3.67.61-1.51.05-2.57-.13-3.88-.32-2.29-.56-4.68.17-6.93.49-1.5.51-3.23,1.83-4.4.62.27-.08.95.39,1.27,0,.59-.1,1.22.55,1.58.03.11.06.22.09.34.08.1.17.21.25.31.03.13.05.25.08.38.09.19.18.38.27.57.02.13.04.26.06.38.22,3.03,1.73,5.72,2.35,8.65.07.33.54.24.85.28-.62,1.09-.13,2.38-.64,3.49-1.6.55-3.2,1.1-4.8,1.64Z" style="fill: #c49c48;"/>
  <path d="M115.14,68.75c-.53-.18-.96-.59-1.11-1.04-.59-1.75-2.05-2.44-3.55-3.11,1.26-1.06,2.78-1.61,4.29-2.2.18-.1.36-.2.54-.3,0,0,.07-.02.07-.02.19-.1.38-.21.57-.31,0,0,.05-.03.05-.03.08-.06.17-.12.26-.19.12-.04.25-.09.37-.13.09-.06.17-.12.26-.18.13-.04.26-.09.39-.13.2-.09.4-.18.6-.27,0,0,.08-.03.08-.03.19-.09.37-.19.56-.28,0,0,.08-.04.08-.04.18-.09.36-.19.54-.28.09-.05.19-.07.29-.08.12-.08.24-.17.36-.25,0,0,.08-.03.08-.03.46-.08,1.08.15,1.21-.61,0,0,.07-.04.07-.04.18-.09.36-.17.54-.26.11-.03.21-.06.32-.09.11-.07.21-.14.32-.22.11-.03.22-.07.33-.1.1-.07.21-.14.31-.21.13-.03.26-.07.39-.1.08-.06.16-.13.25-.19.13-.04.26-.08.4-.11.56.13,1.13.22,1.67.4.31.1.95.35.67.66-.79.86.16,1.43.17,2.13-3.08,2.16-6.17,4.31-9.25,6.48-.52.36-1.02.76-1.66.89-.09.07-.18.15-.28.22l-.08.06h-.1Z" style="fill: #c49c48;"/>
  <path d="M120.4,75.12c-.91-.98-2.05-1.55-3.3-1.96-.57-.18-1.29-.28-1.16-1.17,3.23-.98,6.56-1.55,9.86-2.14,3.48-.62,6.95-1.27,10.42-1.92.41-.08.84-.04,1.27-.06,1.07.54,2.47.09,3.37,1.14-2.33,1.16-4.9,1.58-7.35,2.37-4.02,1.31-8.1,2.45-12.16,3.65-.3.09-.63.06-.95.08Z" style="fill: #c49c48;"/>
  <path d="M112.42,102.67c.12-1.08-.77-1.67-1.2-2.49-.92-1.75-.34-3.44.24-5.13,3.4,2.18,6.8,4.36,10.2,6.55.48.31,1.04.53,1.33,1.09-.28.53-.75.91-.48,1.7.4,1.18.55,2.43.8,3.66-3.53-1.71-7.06-3.41-10.59-5.12-.09-.07-.18-.15-.27-.22l-.03-.04Z" style="fill: #c49c48;"/>
  <path d="M69.57,110.08c.64,1.64.76,3.47.11,4.94-1.4,3.15-.14,5.92.73,8.75.23.74.11,1.75,1,2.24-.69,3.37-2.2,6.47-3.24,9.73-.33,1.04-.53,2.16-1.22,3.07-.77-1.48-.92-3.09-.91-4.72,0-.62.15-1.35-.85-1.34,1.06-5.72,2.08-11.44,3.18-17.14.36-1.85.46-3.76,1.21-5.53Z" style="fill: #c49c48;"/>
  <path d="M21.55,115.62c2.77-2.22,5.84-4,8.77-5.97,3.78-2.54,7.6-5.02,11.41-7.53-.46,1.75-1.14,3.54.97,4.76-4.67,2.58-9.63,4.55-14.36,6.99-2.14,1.1-4.53,1.58-6.57,2.89-.17.09-.34.19-.51.28-.1.03-.21.07-.31.1-.42-.05-.66-.28-.7-.71,0,0,.02,0,.02,0,.11-.09.21-.19.32-.28,0,0,.04-.03.03-.03.1-.07.21-.15.31-.22,0,0,.09-.05.09-.05.18-.08.36-.15.54-.23Z" style="fill: #c49c48;"/>
  <path d="M58.94,73.89c-2.07-1.16-2.63-3.37-1.24-5.21.4-.53.73-1.01.66-1.68.75-.36.04-.68-.03-1.02-.18-1.18-.29-2.39-.57-3.55-.61-2.5-.61-4.88.92-7.08,1.89,1,3.37,2.53,4.98,3.89-1.2.18-1.61.83-1.5,2.06.13,1.42.09,2.84.3,4.26.13.87.47.91,1.12.79-1.62,2.47-3.37,4.86-4.64,7.54Z" style="fill: #c49c48;"/>
  <path d="M39.49,86.36c.81-.53.65-1.37.62-2.13-.06-1.52-.18-3.03-.27-4.55,2.3-.42,4.61-.65,6.93-.36.98.13,1.64-1.02,2.65-.54.19.27.67.37.46.88-.67,1.57-.67,3.27-.96,4.92-.18,1.04-.05,1.85.46,2.69-3.31-.17-6.61-.37-9.89-.92Z" style="fill: #c49c48;"/>
  <path d="M42.7,106.87c-2.11-1.22-1.44-3.01-.97-4.76,0,0,.06-.05.06-.05.08-.04.15-.1.21-.17,3.13-2.08,6.27-4.15,9.4-6.23.36.07.66.29.48.64-.64,1.3.03,2.26.84,3.11.65.69.48,1.46.51,2.23,0,0-.06.05-.06.05,0,0-.08,0-.08,0-.16.09-.33.19-.49.28,0,0-.12.05-.12.05-.18.09-.35.18-.53.27,0,0-.11.04-.11.04-.17.09-.35.18-.52.27-.06.05-.13.09-.21.1,0,0-.05.06-.05.06-2.71,1.53-5.46,2.98-8.37,4.11Z" style="fill: #c49c48;"/>
  <path d="M43.91,122.32c0-.05,0-.13-.02-.15-1.21-1.01-2.23-2.16-2.66-3.73,1.66-2.16,3.67-3.98,5.56-5.92,0,0,0,0,0,0,.09-.09.18-.19.27-.28,0,0,.05-.05.05-.05.08-.09.16-.17.25-.26,0,0,.1-.12.1-.12.02-.09.07-.15.15-.18.07-.05.13-.11.18-.18,0-.08.05-.12.12-.14.08-.06.15-.13.2-.22,0,0,.08-.1.08-.1.08-.08.15-.16.23-.24.43-.66.93-1.24,1.62-1.64.07.2.26.44.2.59-.55,1.39,0,2.38.94,3.39.6.66,1.39,1.38,1.07,2.5-2.65,2.4-5.45,4.63-8.35,6.72Z" style="fill: #c49c48;"/>
  <path d="M58.68,55.35c-1.53,2.2-1.53,4.59-.92,7.08.28,1.16.39,2.36.57,3.55-2.5-2.56-5.02-5.12-7.26-7.92.66-1.32.03-2.59-.2-3.85-.46-2.5-.44-2.63,1.92-3.2.05-.01.08-.07.12-.1,1.17.46,2.07,1.27,2.9,2.18.16.12.32.25.49.37.07-.02.12,0,.15.06.09.07.19.14.28.21.25.19.49.37.73.56,0,0,.06.07.06.07.09.02.16.07.2.15.06.08.13.14.22.18,0,0,.1.08.1.08.09.08.19.16.28.24.12.11.23.22.35.34Z" style="fill: #c49c48;"/>
  <path d="M96.82,112.57c.84-.84-.82-1.94-.03-2.33.77-.39,1.43-.69,1.88-1.43.16-.26.42-.46.64-.68,1.28,1.31,1.97,3,2.86,4.55,1.53,2.67,3,5.38,4.5,8.07.37.66.67,1.33.68,2.09-1.08-.78-2.03-1.12-2.37.69-.02.12-.35.18-.53.27-2.74-3.61-5.4-7.28-7.64-11.23Z" style="fill: #c49c48;"/>
  <path d="M39.41,95.96c-2.12.79-4.37.98-6.57,1.42-3.86.77-7.74,1.44-11.61,2.15-.98.01-2.01-.22-2.85.53-.32.04-.64.08-.96.12-.25-.04-.47,0-.64.21-.33.02-.66.03-.99.05-.27-.39-.33-.78,0-1.17.21-.04.42-.07.63-.11.25.04.48,0,.65-.22,7.23-2.32,14.48-4.55,21.82-6.49.85-.22,1.67-.57,2.51-.86.05.94-.61,1.41-1.28,1.83-.64.41-1.15.92-1.44,1.63-.32.75.06.95.73.92Z" style="fill: #c49c48;"/>
  <path d="M52.9,50.91s-.07.09-.12.1c-2.36.57-2.38.71-1.92,3.2.23,1.26.86,2.53.2,3.85-.8-.57-1.37-1.36-1.99-2.1-.09-.1-.18-.2-.27-.3,0,0-.04-.04-.04-.04-.1-.09-.19-.18-.29-.28,0,0-.04-.04-.04-.04-.09-.09-.19-.19-.28-.28,0,0-.04-.04-.04-.04-.09-.09-.18-.19-.27-.28,0,0-.04-.05-.04-.05-.08-.09-.15-.19-.23-.28,0,0-.08-.1-.08-.1-.04-.1-.11-.18-.21-.23-.06-.02-.09-.06-.1-.12-.04-.08-.11-.15-.19-.2-.07-.04-.11-.09-.13-.17-.03-.05-.07-.08-.12-.12-1.33-1.4-2.84-2.63-3.95-4.22.98-.37.82-.85.38-1.68-1.14-2.14-.58-3.03,1.73-3.07.16.09.31.18.47.27,0,0-.03.01-.03.01.1.03.17.1.22.19.07.06.14.11.21.17,0,0,.1.07.1.07.1.08.2.16.3.24,0,0,.02.02.02.02.26.98.84,1.57,1.9,1.59.15.09.31.17.46.26,0,0-.03,0-.03,0,.08.07.16.14.24.21.07.05.14.1.21.16,1.55.79,2.62,2.15,3.92,3.24Z" style="fill: #c49c48;"/>
  <path d="M104.46,123.8c.18-.09.51-.15.53-.27.34-1.82,1.29-1.47,2.37-.69.09.1.18.2.27.3.11.11.23.23.34.34,1.85,2.29,2.91,5.05,4.42,7.54,2.36,3.91,4.5,7.96,6.91,11.85.32.52,1.13,1.46.51,1.78-1.03.53-1.08-.84-1.49-1.39-4.48-6.14-8.93-12.31-13.39-18.47-.22-.31-.47-.58-.48-.98Z" style="fill: #c49c48;"/>
  <path d="M63.58,66.35c-.64.12-.99.08-1.12-.79-.21-1.42-.17-2.85-.3-4.26-.11-1.24.29-1.89,1.5-2.06.41.21.82.42,1.36.69.04-1.01-.87-1.53-.91-2.35.18-.8.38-1.55.12-2.43-.46-1.56.38-2.53,2.07-2.67.53.58,1.09,1.14,1.32,1.92-.28.35.07.26.22.31.05.1.09.21.14.31.07.1.14.21.21.31.05.04.07.09.06.15.1.17.21.33.31.5,0,0,.05.06.04.06.03.11.09.19.19.24.04.11.09.23.13.34.35,1.28.21,2.44-.63,3.54-.6.8-.24,1.58.35,2.26-.91.85-1.94,1.55-3.01,2.2-.94,0-1.47.57-1.81,1.36,0,0,.02-.04.02-.04-.11.12-.23.23-.34.35,0,0,.07.07.07.07Z" style="fill: #c49c48;"/>
  <path d="M93.86,131.17c.43-.01.83.03,1.16.36.42.41.93.93,1.45.29.41-.5,1.66-.73.71-1.88-.31-.37-.28-1.11.13-1.62.96,2.37,1.1,4.93,1.6,7.4.95,4.71,1.79,9.44,2.68,14.16.16.85.72,2.14-.13,2.38-.75.21-.74-1.28-1.01-2.02-2.21-6.14-4.36-12.29-6.52-18.44-.07-.2-.06-.42-.09-.63Z" style="fill: #c49c48;"/>
  <path d="M140.86,81.04c3.59.25,7.18.48,10.77.74,3.55.25,7.1.52,10.65.78.41.03,1.05-.12,1.09.38.07.71-.67.45-1.07.58-1.6.51-3.28.27-4.92.45-4.58.49-9.18.77-13.77,1.12-.47.04-.95-.06-1.43-.09-.03-1.03.24-2.23-1.3-2.44-.53-.07-1.15-.05-1.2-.74-.05-.82.88-.35,1.17-.77Z" style="fill: #c49c48;"/>
  <path d="M66.31,52.47c-1.69.14-2.53,1.11-2.07,2.67.26.89.06,1.63-.12,2.43-2.6-4.2-5.12-8.45-7.3-12.89,1.33-.91,1.58-1.97.67-3.38-.5-.77-1.15-1.55-1.03-2.59,3.47,4.45,6.8,9.01,9.86,13.76Z" style="fill: #c49c48;"/>
  <path d="M140.86,81.04c-.29.42-1.22-.04-1.17.77.05.69.66.67,1.2.74,1.53.21,1.26,1.42,1.3,2.44-1.68.81-3.53.42-5.29.62-2.38.27-4.8.65-7.23.37-.88-1.16-.46-2.66.87-3.17,1.31-.5.57-1.62.75-2.46.44,0,.87.01,1.31.02.1.13.19.13.29,0,1.11-.38,2.08.65,2.99.48,1.51-.28,2.91.11,4.36.11.21,0,.42.05.63.07Z" style="fill: #c49c48;"/>
  <path d="M97.97,34.88c-1.34,0-2.64-.54-4-.33,2.31-6.73,4.62-13.46,6.92-20.2.12-.36.2-.82.66-.72.49.11.34.64.29.95-.4,2.29-.84,4.57-1.26,6.86-.78,4.23-1.56,8.46-2.34,12.69-.05.26-.18.5-.27.75Z" style="fill: #c49c48;"/>
  <path d="M19.56,66.56c2.48.41,4.98.75,7.44,1.25,3.43.7,6.96.94,10.28,2.2.66.25,1.46.11,2.2.15-.37,1.29-2.2,1.54-2.23,3.08-.55-.14-1.1-.28-1.65-.41-.1-.06-.2-.12-.3-.18-.22-.05-.45-.1-.67-.15-.17-.07-.34-.14-.51-.22-4.09-1.19-8.17-2.37-12.26-3.56-.21-.08-.41-.16-.62-.24-.11-.03-.22-.05-.33-.08-.17-.22-.4-.26-.66-.21-.21-.04-.43-.09-.64-.13-.15-.21-.36-.26-.6-.23-.12-.02-.23-.05-.35-.07-.44-.75-1.19-.54-1.86-.6-.12-.02-.24-.04-.36-.06,0-.39-.01-.79-.02-1.18.22.01.44.03.66.04.7.69,1.61.52,2.46.59Z" style="fill: #c49c48;"/>
  <path d="M126.22,127.64c.78-.34.95-1.46,2.16-1.42.58.02-.17-.96.05-1.47,3.07,3.15,6.15,6.3,9.22,9.46,1.71,1.75,3.41,3.5,5.1,5.27.26.27.76.63.31,1.07-.39.38-.78.02-1.11-.24-5.04-3.98-10.08-7.96-15.11-11.94-.24-.19-.41-.48-.61-.72Z" style="fill: #c49c48;"/>
  <path d="M41.72,64.04c.87-1.22,1.67-2.48,2.24-3.88,2.33.61,4.3,1.97,6.43,3.01.06.09.14.14.24.16.13.05.27.09.4.14.08.06.17.12.25.18.12.05.23.09.35.14.14.65-.41,1.04-.57,1.56-.35,1.13-1.02,2.24-.51,3.5.2.51.03.82-.52.9-.12-.05-.23-.1-.35-.15-.05-.1-.13-.16-.24-.17,0,0-.07-.04-.07-.04-.11-.09-.21-.18-.32-.26-2.24-1.53-4.47-3.06-6.71-4.59-.1-.08-.2-.16-.29-.24l-.33-.26Z" style="fill: #c49c48;"/>
  <path d="M67.9,29.78c-.92,2.45-1.94,4.87-1.84,7.57-1.03-2.64-1.14-5.48-1.7-8.22-1-4.88-1.92-9.78-2.88-14.68-.07-.36-.29-.78.22-.93.37-.11.58.26.68.54,1.87,5.23,3.9,10.4,5.52,15.72Z" style="fill: #c49c48;"/>
  <path d="M123.31,108.05c-.26-1.22-.41-2.48-.8-3.66-.26-.79.2-1.17.48-1.7,3.96,2.38,7.73,5.03,11.5,7.71-.38.59-.88,1.08-.23,1.88.47.57-.14.61-.56.61-3.54-1.45-6.98-3.1-10.38-4.84Z" style="fill: #c49c48;"/>
  <path d="M52.27,115.61c.31-1.12-.47-1.84-1.07-2.5-.93-1.02-1.49-2.01-.94-3.39.06-.15-.13-.39-.2-.59,1.72-2.03,3.47-4.02,5.41-5.85-.31,1.91,0,3.68.96,5.4.5.9.8,1.95.65,3.05-1.5,1.41-3.03,2.79-4.8,3.88Z" style="fill: #c49c48;"/>
  <path d="M61.84,112.27c.13.09.37.17.37.26.03,1.71,1.58,3.01,1.25,4.8-1.81,2.89-3.75,5.69-5.87,8.37-.63.09-1.17-.04-1.36-.73-.16-.58-.44-.93-1.09-.86,2.06-4.04,4.1-8.1,6.68-11.85Z" style="fill: #c49c48;"/>
  <path d="M79.53,144.31c.82,2.66,1.52,3.05,4.03,2.24-.23,3.11-.46,6.21-.68,9.32-.18,2.51-.59,5-.57,7.53,0,1.24-.26,2.47-.4,3.76-.7-.2-.78-.72-.77-1.16.02-3.5-.45-6.97-.69-10.46-.21-3.11-.55-6.22-.82-9.33-.05-.63-.06-1.27-.09-1.9Z" style="fill: #c49c48;"/>
  <path d="M55.16,124.12c.65-.08.93.28,1.09.86.19.69.72.82,1.36.73-2.76,4.34-5.93,8.39-8.87,12.61-1.27,1.83-2.56,3.64-3.88,5.44-.26.36-.4.9-1.01.92-.39-.59.06-1.01.31-1.44,3.23-5.61,6.47-11.21,9.7-16.82.44-.77.56-1.72,1.31-2.31Z" style="fill: #c49c48;"/>
  <path d="M56.45,38.71c-.12,1.04.53,1.82,1.03,2.59.91,1.41.67,2.47-.67,3.38-.12-.21-.25-.41-.37-.62-.03-.09-.08-.15-.16-.2-1.55-2.65-3.12-5.29-4.66-7.95-2.04-3.54-4.06-7.1-6.09-10.64.34-.01.67-.03,1.01-.04,0,0,0,.02,0,.02.09.11.18.23.26.34,3.18,4.21,6.44,8.36,9.31,12.8.1.1.2.21.3.31l.02.02Z" style="fill: #c49c48;"/>
  <path d="M126.51,61.11c-.01-.7-.96-1.27-.17-2.13.28-.31-.35-.55-.67-.66-.54-.18-1.11-.27-1.67-.4,3.62-2.08,7.44-3.75,11.25-5.44,1.09-.14,2.23.38,3.3-.27.23-.14.39.26.42.52-4.07,2.91-8.15,5.82-12.46,8.37Z" style="fill: #c49c48;"/>
  <path d="M37.25,73.24c.03-1.54,1.86-1.78,2.23-3.08.43.1.86.19,1.29.29.19.23.44.24.71.23.09-.04.17-.03.24.04.27.36.59.37.93.09,2.14.44,4.29.89,6.43,1.33.31,1.06-.89,1.51-.97,2.42-.06.63-.41,1.21-.3,1.87-3.61-.76-7.09-1.95-10.55-3.19Z" style="fill: #c49c48;"/>
  <path d="M129.7,39.99c-.47-1.29-.67-2.56.23-3.78.17-.23.04-.51-.2-.69,4.04-3.25,8.09-6.5,12.13-9.75.32-.26.66-.7,1.08-.28.34.34,0,.7-.25.96-4.33,4.52-8.66,9.03-12.99,13.54Z" style="fill: #c49c48;"/>
  <path d="M39.41,95.96c-.67.03-1.05-.17-.73-.92.3-.7.8-1.22,1.44-1.63.67-.43,1.33-.89,1.28-1.83,2.67-.76,5.34-1.51,8.01-2.27.15.33.36.64.04,1.01-1,1.15-1.13,2.53-1.02,3.97-.34.03-.69.06-1.03.09-.08.01-.14.06-.18.12-2.6.5-5.14,1.37-7.81,1.46Z" style="fill: #c49c48;"/>
  <path d="M65.18,132.76c1-.01.85.72.85,1.34,0,1.63.14,3.24.91,4.72-1.34,4.23-2.74,8.44-4.32,12.59-.18.48-.24,1.25-.91,1.08-.81-.21-.2-.92-.12-1.35,1.17-6.13,2.39-12.25,3.59-18.37Z" style="fill: #c49c48;"/>
  <path d="M18.98,81.32c-.94.54-2.03.3-3.03.48-1.05.19-1.5.35-1.13,1.47.11.33.03.73.03,1.09-2.14.41-4.23-.23-6.35-.29-2.6-.07-5.18-.4-7.78-.62-.32-.03-.71-.01-.72-.43-.01-.44.39-.41.7-.43,5.72-.44,11.45-.87,17.17-1.3.37-.03.74.02,1.11.04Z" style="fill: #c49c48;"/>
  <path d="M83.23,15.33c-.34-.23-.8-.33-.87-.85-.06-.43.11-1.11-.67-.96-.56.11-.89.57-.92,1.16-.05.74-.03,1.48-.1,2.22-.01.13-.3.24-.46.36-.37-1.86.24-3.68.31-5.52.14-3.69.6-7.36.93-11.04.02-.26.02-.53.36-.7.74,1.97.49,4.04.72,6.03.36,3.09.49,6.2.72,9.3Z" style="fill: #c49c48;"/>
  <path d="M133.69,112.89c.43,0,1.03-.03.56-.61-.65-.8-.15-1.3.23-1.88,3.03,1.95,6.07,3.89,9.1,5.84.54.34,1.07.69,1.6,1.04.3.2.76.43.52.84-.2.35-.69.25-1.02.08-3.65-1.8-7.45-3.28-10.98-5.31Z" style="fill: #c49c48;"/>
  <path d="M114.32,31.61c-.23-.03-.29-1.14-.57-.24-.46,1.5-2.06,1.96-2.59,3.36-.33.86-.69-.25-1.09-.18.08-.11.15-.22.23-.33.07-.08.15-.16.22-.25,2.81-3.9,5.63-7.81,8.44-11.71.19-.27.42-.55.78-.38.41.19.25.53.08.81-1.83,2.98-3.66,5.95-5.5,8.92Z" style="fill: #c49c48;"/>
  <path d="M140.86,69.02c-.9-1.05-2.3-.6-3.37-1.14,3.59-.75,7.19-1.51,10.78-2.27,1.03-.22,2.05-.46,3.09-.65.32-.06.84-.28.94.24.09.45-.37.55-.73.66-2.76.85-5.52,1.74-8.29,2.55-.79.23-1.52.75-2.41.6Z" style="fill: #c49c48;"/>
  <path d="M138.97,52.74c-.04-.27-.19-.66-.42-.52-1.08.65-2.21.12-3.3.27,3.11-1.59,6.22-3.19,9.34-4.75.28-.14.75-.49.99-.05.26.46-.17.74-.54.99-2.03,1.35-4.05,2.71-6.07,4.07Z" style="fill: #c49c48;"/>
  <path d="M143.79,99.81c.38-.03.73-.12,1.01-.48-1.92-.94-4.14-1.2-5.83-2.61,4.17,1.19,8.34,2.38,12.5,3.59.36.11,1,.07.87.69-.14.67-.8.45-1.2.38-1.81-.33-3.63-.66-5.4-1.15-.65-.18-1.41.2-1.95-.42Z" style="fill: #c49c48;"/>
  <path d="M24.78,135.41c-.08.44-.17.88-.28,1.44.56-.1.99-.19,1.43-.27-1.55,1.27-3.1,2.55-4.66,3.81-.23.19-.53.49-.82.16-.35-.38-.01-.7.23-.96,1.36-1.41,2.73-2.8,4.1-4.19Z" style="fill: #c49c48;"/>
  <path d="M85.47,41.56c-1.08-1.57-.31-3.42-.79-5.11-.75-2.61-.16-5.38-.7-8.03-.03-.16.15-.37.24-.56.67.95.39,2.07.47,3.09.28,3.54.8,7.06.79,10.61Z" style="fill: #c49c48;"/>
  <path d="M16.43,65.93c0,.39.01.79.02,1.18-.33.06-.55-.06-.66-.38-.05-.37-.24-.34-.48-.16-1.38.29-2.56-.42-3.82-.74-.27-.07-.47-.28-.35-.59.12-.3.43-.31.68-.28,1.56.2,3.11.46,4.61.97Z" style="fill: #c49c48;"/>
  <path d="M15.8,99.26c-.33.39-.28.78,0,1.17-1.29.68-2.73.69-4.12.96-.29.06-.72.04-.78-.36-.05-.37.29-.5.62-.59,1.43-.38,2.86-.79,4.28-1.18Z" style="fill: #c49c48;"/>
  <path d="M76.93,55.66c-.31-.04-.78.05-.85-.28-.62-2.93-2.13-5.62-2.35-8.65,1.12,2.31,1.61,4.85,2.5,7.24.16.44.11.96.73,1.07.3.22.26.42-.02.62Z" style="fill: #c49c48;"/>
  <path d="M84.2,138.5c.03-1.55-.09-3.12.12-4.65.17-1.21.27-2.41.27-3.62,0-.44,0-.87.57-.97-.33,3.08-.16,6.21-.95,9.25Z" style="fill: #c49c48;"/>
  <path d="M46.55,25.22c-.34.01-.67.03-1.01.04-.89-.64-1.13-1.74-1.77-2.56-.16-.21-.2-.55.02-.73.34-.28.6.05.76.28.69.97,1.33,1.97,1.99,2.96Z" style="fill: #c49c48;"/>
  <path d="M79.22,28.5c.14,2.14.33,4.28-.6,6.31.09-2.12.09-4.24.6-6.31Z" style="fill: #c49c48;"/>
  <path d="M20.24,116.42c.04.43.28.65.7.71-.87.68-1.81,1.16-3.16,1.12.68-1.05,1.54-1.48,2.46-1.83Z" style="fill: #c49c48;"/>
  <path d="M15.51,84.38c2.05-.13,4.08-.12,6.02.67-1.99-.42-4.07.08-6.02-.67Z" style="fill: #c49c48;"/>
  <path d="M77.95,44.18c.25.98.73,1.99-.3,2.84-.04-.96-.31-1.95.3-2.84Z" style="fill: #c49c48;"/>
  <path d="M77,111.02c1-.06.88.65.86,1.27-.03.7-.43.57-.85.35,0-.54,0-1.08,0-1.62Z" style="fill: #c49c48;"/>
  <path d="M83.89,23.64c-.35-1.02-.92-2.02-.32-3.14.59,1,.37,2.08.32,3.14Z" style="fill: #c49c48;"/>
  <path d="M77.27,51.84c.31.89.76,1.8-.28,2.54-.02-.86-.27-1.74.28-2.54Z" style="fill: #c49c48;"/>
  <path d="M79.86,21.46c.47.91.31,1.73-.32,2.5-.04-.85-.22-1.72.32-2.5Z" style="fill: #c49c48;"/>
  <path d="M77.6,48c.53.9.32,1.72-.27,2.5-.06-.85-.3-1.72.27-2.5Z" style="fill: #c49c48;"/>
  <path d="M79.22,139.51c.17,1.04.83,2.04.3,3.15-.54-1.01-.3-2.09-.3-3.15Z" style="fill: #c49c48;"/>
  <path d="M48.1,47.03c-1.06-.02-1.64-.61-1.9-1.59.74.41,1.42.88,1.9,1.59Z" style="fill: #c49c48;"/>
  <path d="M79.54,25.3c.57.91.06,1.69-.3,2.49-.03-.85-.21-1.71.3-2.49Z" style="fill: #c49c48;"/>
  <path d="M83.89,141.7c-.58-.92.09-1.69.31-2.51.04.85.23,1.73-.31,2.51Z" style="fill: #c49c48;"/>
  <path d="M78.57,36.49c.59.91-.13,1.67-.29,2.49-.05-.85-.24-1.71.29-2.49Z" style="fill: #c49c48;"/>
  <path d="M83.56,145.21c-.51-.83-.22-1.53.34-2.19.05.75.2,1.53-.34,2.19Z" style="fill: #c49c48;"/>
  <path d="M83.57,19.49c-.29-.71-.92-1.36-.31-2.19.59.66.35,1.44.31,2.19Z" style="fill: #c49c48;"/>
  <path d="M80.18,17.94c.56.82-.03,1.48-.31,2.17-.05-.75-.22-1.51.31-2.17Z" style="fill: #c49c48;"/>
  <path d="M84.21,26.85c-.3-.7-.92-1.36-.32-2.19.53.67.35,1.44.32,2.19Z" style="fill: #c49c48;"/>
  <path d="M78.61,131.85c.21.82.67,1.61.28,2.5-.53-.78-.31-1.65-.28-2.5Z" style="fill: #c49c48;"/>
  <path d="M78.26,40.34c.57.81-.05,1.46-.28,2.16-.09-.74-.21-1.49.28-2.16Z" style="fill: #c49c48;"/>
  <path d="M18.38,100.05c.85-.75,1.87-.52,2.85-.53-.91.41-1.87.53-2.85.53Z" style="fill: #c49c48;"/>
  <path d="M77.99,123.86c.17.82.66,1.61.26,2.49-.52-.78-.31-1.64-.26-2.49Z" style="fill: #c49c48;"/>
  <path d="M23.14,81c-1.11.53-2.29.14-3.43.27,1.11-.5,2.27-.3,3.43-.27Z" style="fill: #c49c48;"/>
  <path d="M78.3,128.33c.19.82.65,1.61.27,2.49-.5-.78-.33-1.64-.27-2.49Z" style="fill: #c49c48;"/>
  <path d="M19.56,66.56c-.85-.07-1.76.11-2.46-.59.84.1,1.73.03,2.46.59Z" style="fill: #c49c48;"/>
  <path d="M85.57,44.15c-.5-.51-.47-1.04-.07-1.58.36.51.58,1.03.07,1.58Z" style="fill: #c49c48;"/>
  <path d="M78.92,136.01c.49.88.1,1.84.25,2.75-.43-.89-.3-1.82-.25-2.75Z" style="fill: #c49c48;"/>
  <path d="M35.68,86.06c.93.1,1.9-.24,2.81.22-.95.03-1.91.3-2.81-.22Z" style="fill: #c49c48;"/>
  <path d="M16.81,67.17c.67.05,1.42-.15,1.86.6-.69.01-1.32-.15-1.86-.6Z" style="fill: #c49c48;"/>
  <path d="M72.99,44.77c-.65-.36-.55-.99-.55-1.58.43.44.66.95.55,1.58Z" style="fill: #c49c48;"/>
  <path d="M121.08,59.24c-.13.75-.74.53-1.21.61.3-.4.72-.57,1.21-.61Z" style="fill: #c49c48;"/>
  <path d="M117.22,45.43c-.04.59-.23.99-.92.65.2-.37.5-.59.92-.65Z" style="fill: #c49c48;"/>
  <path d="M93.37,129.93c.46.3.53.75.5,1.25-.34-.34-.49-.77-.5-1.25Z" style="fill: #c49c48;"/>
  <path d="M141.7,99.45c.36.08.78-.07,1.09.24-.4.09-.81.23-1.09-.24Z" style="fill: #c49c48;"/>
  <path d="M42.64,70.82c-.34.28-.65.27-.93-.09.31.03.62.06.93.09Z" style="fill: #c49c48;"/>
  <path d="M97.35,127.65c-.34-.23-.27-.58-.3-.91.37.21.36.55.3.91Z" style="fill: #c49c48;"/>
  <path d="M140.01,99.15c.3.03.63-.03.87.24-.34.09-.65.09-.87-.24Z" style="fill: #c49c48;"/>
  <path d="M16.78,100.38c.17-.21.39-.25.64-.21-.15.27-.37.3-.64.21Z" style="fill: #c49c48;"/>
  <path d="M110.16,64.7c-.17.09-.34.17-.51.26.09-.25.28-.3.51-.26Z" style="fill: #c49c48;"/>
  <path d="M56.29,53.46c-.16-.12-.32-.25-.49-.37.21.06.43.11.49.37Z" style="fill: #c49c48;"/>
  <path d="M17.07,98.93c-.17.21-.39.26-.65.22.15-.25.38-.29.65-.22Z" style="fill: #c49c48;"/>
  <path d="M73.67,46.35c-.09-.19-.18-.38-.27-.57.25.11.32.31.27.57Z" style="fill: #c49c48;"/>
  <path d="M115.94,61.77c-.19.1-.38.21-.57.31.13-.22.31-.32.57-.31Z" style="fill: #c49c48;"/>
  <path d="M119.13,60.21c-.18.09-.36.19-.54.28.11-.24.29-.32.54-.28Z" style="fill: #c49c48;"/>
  <path d="M101.54,57.88c-.03.14-.06.29-.09.43-.08-.1-.15-.2-.23-.31.1-.04.21-.08.31-.12Z" style="fill: #c49c48;"/>
  <path d="M21.55,115.62c-.18.08-.36.15-.54.23.1-.27.33-.22.54-.23Z" style="fill: #c49c48;"/>
  <path d="M115.3,62.11c-.18.1-.36.2-.54.3.12-.21.28-.34.54-.3Z" style="fill: #c49c48;"/>
  <path d="M21.25,117.03c.17-.09.34-.19.51-.28-.1.22-.26.34-.51.28Z" style="fill: #c49c48;"/>
  <path d="M19.02,67.83c.24-.03.45.02.6.23-.26.08-.46,0-.6-.23Z" style="fill: #c49c48;"/>
  <path d="M51.32,102.61c.17-.09.35-.18.52-.27-.1.24-.26.34-.52.27Z" style="fill: #c49c48;"/>
  <path d="M41.48,70.68c-.26.01-.52,0-.71-.23.27-.04.52,0,.71.23Z" style="fill: #c49c48;"/>
  <path d="M93.9,35.01c-.09.16-.18.32-.26.47-.05-.24.03-.4.26-.47Z" style="fill: #c49c48;"/>
  <path d="M51.95,102.3c.18-.09.35-.18.53-.27-.09.27-.28.32-.53.27Z" style="fill: #c49c48;"/>
  <path d="M68.56,55.97c-.1-.17-.21-.33-.31-.5.25.08.32.26.31.5Z" style="fill: #c49c48;"/>
  <path d="M20.26,68.19c.26-.04.49,0,.66.21-.26.07-.5.06-.66-.21Z" style="fill: #c49c48;"/>
  <path d="M121.69,58.95c-.18.09-.36.17-.54.26.11-.23.3-.3.54-.26Z" style="fill: #c49c48;"/>
  <path d="M52.6,101.97c.16-.09.33-.19.49-.28-.07.25-.25.33-.49.28Z" style="fill: #c49c48;"/>
  <path d="M67.84,54.7c-.15-.05-.49.03-.22-.31.07.1.14.21.22.31Z" style="fill: #c49c48;"/>
  <path d="M118.5,60.53c-.19.09-.37.19-.56.28.12-.23.31-.31.56-.28Z" style="fill: #c49c48;"/>
  <path d="M21.25,68.48c.21.08.41.16.62.24-.27.08-.48.01-.62-.24Z" style="fill: #c49c48;"/>
  <path d="M34.13,72.28c.17.07.34.14.51.22-.23.08-.38-.05-.51-.22Z" style="fill: #c49c48;"/>
  <path d="M117.87,60.84c-.2.09-.4.18-.6.27.13-.25.35-.3.6-.27Z" style="fill: #c49c48;"/>
  <path d="M110.51,33.98c-.07.08-.15.16-.22.25.07-.08.15-.16.22-.25Z" style="fill: #c49c48;"/>
  <path d="M109.87,34.89c-.08.1-.16.2-.25.3.08-.1.16-.2.25-.3Z" style="fill: #c49c48;"/>
  <path d="M56.43,38.69c-.1-.1-.2-.21-.3-.31.1.1.2.21.3.31Z" style="fill: #c49c48;"/>
  <path d="M45.34,44.75s.03-.01.03-.01c0,0-.03.01-.03.01Z" style="fill: #c49c48;"/>
  <path d="M45.77,45.11c-.07-.06-.14-.12-.21-.17.07.06.14.11.21.17Z" style="fill: #c49c48;"/>
  <path d="M42.05,64.3c.1.08.2.16.29.24-.19.04-.26-.08-.29-.24Z" style="fill: #c49c48;"/>
  <path d="M117.84,44.91c-.08.07-.16.13-.24.2.08-.07.16-.13.24-.2Z" style="fill: #c49c48;"/>
  <path d="M46.17,45.43c-.1-.08-.2-.16-.3-.24.1.08.2.16.3.24Z" style="fill: #c49c48;"/>
  <path d="M73.32,45.41c-.08-.1-.17-.21-.25-.31.08.1.17.21.25.31Z" style="fill: #c49c48;"/>
  <path d="M117.54,45.15c-.1.09-.21.18-.31.27.1-.09.21-.18.31-.27Z" style="fill: #c49c48;"/>
  <polygon points="115.24 46.94 115.18 47 115.17 46.92 115.24 46.94" style="fill: #c49c48;"/>
  <path d="M42,101.89c-.06.07-.13.12-.21.17.02-.12.09-.18.21-.17Z" style="fill: #c49c48;"/>
  <path d="M48.53,47.3s.03,0,.03,0c0,0-.03,0-.03,0Z" style="fill: #c49c48;"/>
  <path d="M51.28,63.65c-.08-.06-.17-.12-.25-.18.08.06.17.12.25.18Z" style="fill: #c49c48;"/>
  <path d="M114.98,47.16c-.06.08-.14.15-.24.19.08-.06.16-.13.24-.19Z" style="fill: #c49c48;"/>
  <path d="M48.98,47.67c-.07-.05-.14-.11-.21-.16.07.05.14.1.21.16Z" style="fill: #c49c48;"/>
  <path d="M50.63,63.34c-.1-.02-.18-.08-.24-.16.08.05.16.11.24.16Z" style="fill: #c49c48;"/>
  <path d="M112.45,102.71c.09.07.18.15.27.22-.09-.07-.18-.15-.27-.22Z" style="fill: #c49c48;"/>
  <path d="M46.74,53.44s.08.07.12.12c0,0-.12,0-.12,0v-.11Z" style="fill: #c49c48;"/>
  <path d="M56.72,53.73c-.09-.07-.19-.14-.28-.21.09.07.19.14.28.21Z" style="fill: #c49c48;"/>
  <path d="M46.99,53.73c.08.05.15.12.19.2-.16.02-.22-.05-.19-.2Z" style="fill: #c49c48;"/>
  <path d="M116.24,61.56c-.09.06-.17.12-.26.19.09-.06.17-.12.26-.19Z" style="fill: #c49c48;"/>
  <path d="M63.54,106.58s0-.01,0-.01c0,0,0,.01,0,.01Z" style="fill: #c49c48;"/>
  <path d="M47.28,54.05c.1.05.17.13.21.23-.16.01-.24-.06-.21-.23Z" style="fill: #c49c48;"/>
  <polygon points="57.52 54.37 57.46 54.29 57.54 54.27 57.52 54.37" style="fill: #c49c48;"/>
  <path d="M47.58,54.37c.08.09.15.19.23.28-.08-.09-.15-.19-.23-.28Z" style="fill: #c49c48;"/>
  <path d="M57.95,54.69c-.09-.04-.17-.1-.22-.18.16-.05.23.02.22.18Z" style="fill: #c49c48;"/>
  <path d="M47.85,54.7c.09.1.18.19.27.28-.09-.1-.18-.19-.27-.28Z" style="fill: #c49c48;"/>
  <path d="M58.33,55.01c-.1-.08-.19-.16-.28-.24.1.08.19.16.28.24Z" style="fill: #c49c48;"/>
  <path d="M48.43,110.77c-.08.08-.15.16-.23.24.08-.08.15-.16.23-.24Z" style="fill: #c49c48;"/>
  <path d="M119.78,59.88c-.12.08-.24.17-.36.25.12-.08.24-.17.36-.25Z" style="fill: #c49c48;"/>
  <path d="M48.12,111.11c-.05.09-.12.16-.2.22.07-.07.13-.15.2-.22Z" style="fill: #c49c48;"/>
  <path d="M48.15,55.03c.09.09.19.19.28.28-.09-.09-.19-.19-.28-.28Z" style="fill: #c49c48;"/>
  <path d="M47.8,111.47c-.05.07-.11.13-.18.18.06-.06.12-.12.18-.18Z" style="fill: #c49c48;"/>
  <polygon points="47.47 111.83 47.37 111.94 47.36 111.84 47.47 111.83" style="fill: #c49c48;"/>
  <polygon points="47.12 112.2 47.07 112.25 47.05 112.18 47.12 112.2" style="fill: #c49c48;"/>
  <path d="M46.8,112.53s0,0,0,0,0,0,0,0Z" style="fill: #c49c48;"/>
  <path d="M68.19,55.32c-.07-.1-.14-.21-.21-.31.07.1.14.21.21.31Z" style="fill: #c49c48;"/>
  <path d="M48.47,55.35c.1.09.19.18.29.28-.1-.09-.19-.18-.29-.28Z" style="fill: #c49c48;"/>
  <path d="M20.92,115.89c-.1.07-.21.15-.31.22.1-.07.21-.15.31-.22Z" style="fill: #c49c48;"/>
  <path d="M119.94,116.04c-.09-.01-.13-.07-.13-.16.1,0,.15.06.13.16Z" style="fill: #c49c48;"/>
  <path d="M116.88,61.24c-.09.06-.17.12-.26.18.09-.06.17-.12.26-.18Z" style="fill: #c49c48;"/>
  <path d="M20.58,116.14c-.11.09-.21.19-.32.28.11-.09.21-.19.32-.28Z" style="fill: #c49c48;"/>
  <path d="M48.8,55.66c.09.1.18.2.27.3-.09-.1-.18-.2-.27-.3Z" style="fill: #c49c48;"/>
  <path d="M68.79,56.27c-.1-.05-.16-.13-.19-.24.06.08.13.16.19.24Z" style="fill: #c49c48;"/>
  <path d="M123.6,58.03c-.08.06-.17.13-.25.19.08-.06.17-.13.25-.19Z" style="fill: #c49c48;"/>
  <path d="M49.45,69.44c.11.02.19.08.24.17-.08-.06-.16-.12-.24-.17Z" style="fill: #c49c48;"/>
  <path d="M107.97,123.48c-.11-.11-.23-.23-.34-.34.11.11.23.23.34.34Z" style="fill: #c49c48;"/>
  <path d="M49.05,69.13c.11.09.21.18.32.26-.11-.09-.21-.18-.32-.26Z" style="fill: #c49c48;"/>
  <path d="M35.3,72.64c.1.06.2.12.3.18-.1-.06-.2-.12-.3-.18Z" style="fill: #c49c48;"/>
  <path d="M122.33,58.64c-.11.07-.21.14-.32.22.11-.07.21-.14.32-.22Z" style="fill: #c49c48;"/>
  <path d="M115.32,68.7c.09-.07.18-.15.28-.22-.09.07-.18.15-.28.22Z" style="fill: #c49c48;"/>
  <path d="M116.88,79.1c-.16.06-.31.12-.47.18.16-.06.31-.12.47-.18Z" style="fill: #c49c48;"/>
  <path d="M122.97,58.33c-.1.07-.21.14-.31.21.1-.07.21-.14.31-.21Z" style="fill: #c49c48;"/>
  <path d="M132.89,80.38c-.1.13-.19.14-.29,0,.1-.05.19-.05.29,0Z" style="fill: #c49c48;"/>
  <path d="M15.32,66.56c.24-.17.42-.2.48.16-.16-.05-.32-.11-.48-.16Z" style="fill: #c49c48;"/>
  <polygon points="118.02 86.98 118.03 86.98 118.03 87.09 118.02 86.98" style="fill: #c49c48;"/>
  <path d="M27.94,132.15c-.09.1-.18.19-.27.29.09-.1.18-.19.27-.29Z" style="fill: #c49c48;"/>
  <path d="M27.64,132.49c-.09.09-.18.18-.27.28.09-.09.18-.18.27-.28Z" style="fill: #c49c48;"/>
  <path d="M27.32,132.81c-.09.09-.18.18-.27.28.09-.09.18-.18.27-.28Z" style="fill: #c49c48;"/>
  <path d="M27,133.14c-.09.09-.17.18-.26.27.09-.09.17-.18.26-.27Z" style="fill: #c49c48;"/>
  <path d="M26.68,133.47c-.08.09-.17.18-.25.27.08-.09.17-.18.25-.27Z" style="fill: #c49c48;"/>
  <path d="M26.37,133.8c-.08.08-.15.17-.23.25.08-.08.15-.17.23-.25Z" style="fill: #c49c48;"/>
  <path d="M26.06,134.17c-.08.07-.16.13-.24.2.08-.07.16-.13.24-.2Z" style="fill: #c49c48;"/>
  <path d="M56.28,43.86c.08.05.13.12.16.2-.05-.07-.1-.14-.16-.2Z" style="fill: #c49c48;"/>
  <path d="M47.22,94.5c.04-.07.1-.11.18-.12,0,0-.06.12-.06.12h-.13Z" style="fill: #c49c48;"/>
  <path d="M46.82,25.58c-.09-.11-.18-.23-.26-.34.09.11.18.23.26.34Z" style="fill: #c49c48;"/>
  <polygon points="51.06 102.76 51.11 102.7 51.13 102.78 51.06 102.76" style="fill: #c49c48;"/>
  <path d="M94.25,103.97c.3-.41.75-.52,1.21-.63-.08.83-.72.59-1.21.63Z" style="fill: #c49c48;"/>
  <path d="M109.76,93.54c-.12-.1-.42-.08-.29-.35.02-.04.33.06.51.09-.07.09-.15.17-.22.26Z" style="fill: #c49c48;"/>
  <path d="M98.82,59.63c-.1.15-.16.48-.4.3-.19-.14-.01-.37.16-.51.08.07.16.14.24.2Z" style="fill: #c49c48;"/>
  <path d="M97.86,101.39v-.12s.13-.01.13-.01c-.03.05-.08.1-.13.13Z" style="fill: #c49c48;"/>
  <path d="M97.52,101.72l.03-.13s.13-.03.13-.03c-.05.06-.1.12-.17.16Z" style="fill: #c49c48;"/>
  <path d="M97.16,102.04c.07-.06.14-.13.21-.19-.05.08-.13.15-.21.19Z" style="fill: #c49c48;"/>
  <path d="M95.84,103c.08-.07.16-.14.24-.21-.08.07-.16.14-.24.21Z" style="fill: #c49c48;"/>
  <path d="M93.85,104.27c.11-.08.21-.16.32-.24-.11.08-.21.16-.32.24Z" style="fill: #c49c48;"/>
  <path d="M93.24,104.6c.09-.07.19-.14.28-.2-.09.07-.19.14-.28.2Z" style="fill: #c49c48;"/>
  <path d="M93.21,61.32c-.19.04-.27-.05-.3-.22.1.07.2.15.3.22Z" style="fill: #c49c48;"/>
  <path d="M86.84,106.88c.32-.41.69-.38,1.07-.09-.35.07-.67.58-1.07.09Z" style="fill: #c49c48;"/>
  <path d="M57.33,80.31c0,1.59.02,3.19.02,4.78-.48-1.59-.43-3.19-.02-4.78Z" style="fill: #c49c48;"/>
  <path d="M58.23,99.35c.12-.02.24-.04.35-.06-.03.11-.06.22-.1.32-.09-.09-.17-.17-.26-.26Z" style="fill: #c49c48;"/>
  <path d="M65.64,64.61c-.43.68-.95,1.26-1.81,1.36.35-.8.87-1.36,1.81-1.36Z" style="fill: #c49c48;"/>
  <path d="M63.85,65.93c0,.22-.11.34-.34.34.11-.11.23-.23.34-.34Z" style="fill: #c49c48;"/>
  <path d="M96.14,70.98c2.45,2.4,3.54,5.48,4.06,8.74.64,4.04.06,7.96-1.65,11.7-.4.88-1.11,1.52-1.56,2.35-.07.09-.13.18-.2.27-.18.24-.35.47-.53.71-.05.03-.09.07-.13.12-.04.07-.09.14-.15.19-.08.04-.14.1-.17.18-.03.06-.07.11-.12.14-.1.04-.16.1-.2.21,0,0-.11.09-.11.09-.42,0-.85-.08-1.21.2-.62.48-.95.38-.94-.44.02-1.43-.71-1.52-1.86-1.15-.71.23-1.51.23-2.07-.36-.59-.61.31-.99.36-1.52.02-.21.01-.42.02-.63.35-.46.72-.92,1.06-1.39,2.17-2.93,3.28-6.1,2.54-9.83-.39-1.98-1.46-3.61-2.26-5.38.41-.13,1.08.79,1.25-.31,2.33.37,3.17-.58,2.43-2.74-.03-.1-.11-.18-.17-.26-.46-.66-.08-.81.51-.83.37-.01.73-.03,1.1-.04Z" style="fill: #c49c48;"/>
  <path d="M66.83,94.1c-3.2-3.97-4.24-8.52-3.74-13.53.5-5.04,2.92-8.98,6.77-12.14.48.48.74.88.24,1.61-1.18,1.7-.37,5.44,1.36,6.74-1.37,2.85-2,5.81-1.31,8.96-.52.51.38,1.18-.25,1.74-1,.89-.93,2.14-1.01,3.36-.1,1.57.57,2.99.75,4.5.07.59.19,1.02-.43,1.3-.11-.05-.23-.11-.34-.16-.03-.08-.09-.13-.17-.15-.07-.02-.12-.06-.15-.12-.02-.1-.09-.17-.19-.19-.06-.03-.1-.08-.12-.15-.03-.08-.08-.14-.16-.18-.07-.04-.1-.09-.11-.17,0-.44-.08-.83-.66-.79,0,0-.02-.03-.02-.03-.08-.1-.16-.21-.24-.31,0,0-.05-.1-.05-.1-.03-.08-.08-.15-.15-.2Z" style="fill: #c49c48;"/>
  <path d="M92.27,74.85c-.16,1.11-.84.19-1.25.32-.77-.65-1.49-1.38-2.32-1.93-3.37-2.25-7.01-2.83-10.91-1.6-.66-.06-.85-.48-.88-1.07-.1-1.87-.21-3.73-.32-5.6,6.14-2.09,11.64-.56,16.72,3.08,1.1.79,2.3,1.56,2.83,2.93-.37.01-.73.03-1.1.04-.59.02-.97.17-.51.83.06.09.13.17.17.26.74,2.17-.1,3.11-2.43,2.74.17-1.22-1.11-1.38-1.59-2.14-.03-.05-.32-.02-.41.07-.08.07-.11.35-.05.39.67.52.72,1.74,2.06,1.68Z" style="fill: #c49c48;"/>
  <path d="M89.68,91.77c0,.21,0,.42-.02.63-.05.53-.95.91-.36,1.52.56.59,1.37.59,2.07.36,1.14-.37,1.88-.29,1.86,1.15-.01.82.33.92.94.44.36-.28.8-.21,1.21-.2-2.77,3.22-6.38,4.92-10.46,5.73-2.83.56-5.63.46-8.36-.58.59-.46,1.72-.75,1.47-1.59-.54-1.81.35-3.38.48-5.06,1.66.24,3.26.66,5.01.36,2.33-.39,4.28-1.44,6.15-2.75Z" style="fill: #c49c48;"/>
  <path d="M76.59,64.97c.11,1.87.22,3.73.32,5.6.03.59.23,1.01.88,1.07-2.6,1.11-4.63,2.93-6.34,5.13-1.73-1.3-2.54-5.04-1.36-6.74.5-.73.24-1.13-.24-1.61,1.96-1.71,4.2-2.87,6.73-3.46Z" style="fill: #c49c48;"/>
  <path d="M69.21,96.65c.62-.29.5-.72.43-1.3-.18-1.51-.85-2.93-.75-4.5.08-1.22.01-2.47,1.01-3.36.63-.56-.27-1.23.25-1.74,1.03,2.56,2.51,4.82,4.54,6.7-.72,1.08-1.64,2.15-1.21,3.57.37,1.22.23,2.36-.1,3.53-1.65-.59-3.02-1.6-4.17-2.9Z" style="fill: #c49c48;"/>
  <path d="M73.38,99.54c.32-1.17.47-2.31.1-3.53-.43-1.42.48-2.48,1.21-3.57,1.25.63,2.48,1.31,3.84,1.71-.13,1.68-1.02,3.25-.48,5.06.25.84-.88,1.13-1.47,1.59-1.16-.18-2.25-.53-3.19-1.27Z" style="fill: #c49c48;"/>
  <path d="M67.3,94.73c.58-.04.65.35.66.79-.42-.09-.6-.39-.66-.79Z" style="fill: #c49c48;"/>
  <path d="M96.14,94.86c.03-.05.07-.09.13-.12,0,0,0,.12,0,.12h-.12Z" style="fill: #c49c48;"/>
  <path d="M95.82,95.23c.03-.08.09-.14.17-.18-.06.06-.11.12-.17.18Z" style="fill: #c49c48;"/>
  <path d="M95.5,95.58c.03-.1.1-.17.2-.21-.07.07-.13.14-.2.21Z" style="fill: #c49c48;"/>
  <path d="M68.08,95.68c.08.04.14.09.16.18,0,0-.14-.04-.14-.04l-.03-.14Z" style="fill: #c49c48;"/>
  <path d="M68.36,96.01c.1.03.16.09.19.19-.06-.07-.12-.13-.19-.19Z" style="fill: #c49c48;"/>
  <path d="M68.7,96.33c.08.02.14.07.17.15,0,0-.14-.02-.14-.02l-.04-.13Z" style="fill: #c49c48;"/>
  <path d="M66.83,94.1c.07.05.12.12.15.2,0,0-.14-.06-.14-.06l-.02-.14Z" style="fill: #c49c48;"/>
  <path d="M96.79,94.04c.07-.09.13-.18.2-.27-.07.09-.13.18-.2.27Z" style="fill: #c49c48;"/>
  <path d="M67.04,94.39c.08.1.16.21.24.31-.08-.1-.16-.21-.24-.31Z" style="fill: #c49c48;"/>
  <path d="M92.27,74.85c-1.33.07-1.39-1.15-2.05-1.67-.06-.05-.03-.32.05-.39.09-.08.38-.12.41-.07.48.75,1.76.92,1.59,2.14Z" style="fill: #c49c48;"/>
  <path d="M88.12,82.91c0,4-2.46,6.33-6.67,6.33-3.53,0-6.17-2.79-6.15-6.49.02-3.68,2.82-6.17,6.76-6.3,2.96-.1,6.56,2.68,6.06,6.46Z" style="fill: #c49c48;"/>
</svg>