<?xml version="1.0" encoding="UTF-8"?>
<svg id="Ebene_1" xmlns="http://www.w3.org/2000/svg" viewBox="0 0 255.68 254.68">
  <path d="M127.26,254.68c-33.03-.43-61.83-11.74-86.2-34.01-20.04-18.32-32.77-40.97-38.47-67.49-2.77-12.85-3.25-25.86-1.78-38.95C5.78,70.07,34.05,30.74,74.43,11.98,93.52,3.11,113.61-.94,134.64.18c27.08,1.45,51.27,10.77,72.4,27.71,24.19,19.4,39.73,44.36,45.87,74.73,7.99,39.55-1.38,75.08-26.97,106.11-18.64,22.61-42.8,36.56-71.35,42.94-8.98,2.01-18.09,3.01-27.32,3ZM249.56,131.22c-.04-13.18-1.27-23.2-3.91-33.01-7.7-28.58-23.34-51.84-47.46-69.04C169.33,8.61,137.29,1.24,102.61,9.08,63.12,18,34.68,41.5,17.32,77.96c-10.58,22.23-13.85,45.81-9.43,70.1,5.43,29.82,19.97,54.55,43.74,73.4,29.41,23.33,62.85,31.76,99.76,24.5,29.07-5.72,53.13-20.33,71.72-43.46,17.4-21.64,26.12-46.51,26.45-71.28Z"/>
  <path d="M128.18,9.18c25.47.26,48.66,7.95,69.26,23.11,24.81,18.25,40.53,42.62,46.56,72.77,6.86,34.3-.54,65.71-21.72,93.54-18.08,23.75-42.13,38.6-71.35,44.34-34.83,6.84-66.75-.59-95.12-22.01-23.25-17.56-37.72-40.93-44.09-69.28-2.63-11.69-3.1-23.54-1.82-35.47,2.6-24.26,11.8-45.75,27.51-64.34,16.96-20.08,38.31-33.25,63.91-39.45,8.78-2.13,17.7-3.12,26.87-3.21ZM92.47,121.92c-.53-.38-1.13-.82-1.74-1.26-5.25-3.81-10.82-7.04-16.82-9.52-10.73-4.45-21.87-6.59-33.51-5.9-.85.05-1.54.08-1.9,1.18-3.6,11.18-4.6,22.57-2.81,34.17,2.35,15.26,8.42,28.9,18.16,40.87,6.94,8.53,15.24,15.37,25.48,19.58,10.82,4.44,21.85,5.24,32.96,1.12,2.94-1.09,5.71-2.64,8.55-3.98,1.59,1.55,3.32,3.16,4.94,4.87.43.45.75,1.2.76,1.82.06,4.05.04,8.11.02,12.16,0,1.04.21,2,1.44,1.97,1.16-.03,1.29-.97,1.29-1.95-.02-4.05-.02-8.11,0-12.16,0-.42,0-.98.26-1.24,1.85-1.92,3.77-3.78,5.73-5.73.44.28.88.57,1.33.84,7.02,4.2,14.61,6.24,22.79,6.03,10.33-.27,19.63-3.65,28.02-9.57,11.23-7.91,19.5-18.33,25.35-30.66,8.73-18.41,10.89-37.45,5-57.16-.63-2.1-.63-2.11-2.9-2.2-17.05-.63-32.51,4.24-46.69,13.5-1.63,1.06-3.21,2.21-5.05,3.49.22-.61.34-.97.47-1.33,1.81-5.06,2.9-10.27,3.31-15.62.83-10.71-1.01-21.03-4.7-31.05-6.37-17.26-17.59-30.8-32.06-41.84-2.18-1.66-2.19-1.64-4.39,0-15.53,11.64-26.91,26.36-33.11,44.87-3.59,10.72-4.92,21.71-3,32.92.68,3.96,1.86,7.84,2.82,11.79Z"/>
  <path d="M129.33,110.44v-11.39c3.93-1.34,7.39-3.62,10.67-6.15,6.09-4.69,9.8-10.95,11.84-18.28.25-.9.27-1.75-.85-2.02-1.09-.26-1.33.56-1.58,1.37-3.09,9.71-9.7,16.07-19,19.84-.28.11-.59.16-1.06.29-.03-.55-.07-1.01-.07-1.47,0-3.16.04-6.33-.03-9.49-.02-.91.33-1.3,1.08-1.71,7.35-4.02,12.54-9.86,15.02-17.96.14-.45.3-1.02.15-1.41-.14-.36-.7-.79-1.06-.77-.42.02-.99.4-1.19.79-.73,1.42-1.23,2.96-1.99,4.36-2.56,4.68-6.41,8.04-11.12,10.45-.12.06-.24.11-.37.15-.08.02-.17,0-.38-.03-.03-.36-.1-.73-.1-1.11-.01-3.65-.04-7.31.02-10.96,0-.48.32-1.11.69-1.4,3.93-3.05,6.55-6.98,8.07-11.69.27-.83.42-1.64-.58-2.03-1.01-.39-1.47.32-1.78,1.12-1.09,2.85-2.83,5.24-5.04,7.3-.34.32-.73.6-1.4,1.16,0-1.9,0-3.44,0-4.98,0-1.29-.02-2.59.01-3.88.03-1.02-.1-2.03-1.36-2.01-1.25.02-1.34,1.06-1.33,2.06,0,2.27,0,4.55,0,6.82,0,.52,0,1.05,0,1.57-.12.07-.25.14-.37.22-1.13-1.2-2.4-2.31-3.36-3.63-1.06-1.47-1.87-3.12-2.72-4.72-.41-.77-.82-1.47-1.82-1.04-.9.39-.84,1.16-.57,1.93,1.6,4.66,4.2,8.62,8.11,11.68.31.25.7.66.7,1.01.05,4.18.03,8.37.03,12.61-.27-.03-.46,0-.6-.07-6.04-3.18-10.7-7.64-13.1-14.18-.18-.49-.39-1.1-.77-1.34-.36-.21-1.17-.18-1.43.08-.3.31-.42,1.05-.29,1.51,1.73,5.95,4.99,10.91,9.89,14.72,1.75,1.36,3.68,2.49,5.5,3.78.35.24.77.7.77,1.06.05,3.74.02,7.48,0,11.23,0,.07-.08.14-.18.31-5.4-2.13-10.28-5.02-14.08-9.53-2.68-3.18-4.62-6.75-5.84-10.71-.23-.74-.5-1.52-1.52-1.31-1.13.24-1.15,1.01-.9,1.96,1.93,7.18,5.47,13.4,11.46,17.89,3.25,2.44,6.95,4.27,10.43,6.4.29.18.65.55.65.83.04,3.56.03,7.11.03,11.12-3.16-1.41-6.1-2.53-8.88-3.99-7.99-4.21-13.87-10.35-16.8-19.05-.29-.86-.81-1.31-1.7-.99-.87.31-.84.99-.62,1.77,2.59,8.85,7.91,15.66,15.56,20.69,3.69,2.43,7.51,4.63,11.79,5.88.26.07.61.44.61.67.04,3.6.03,7.2.03,11.05-1.71-.54-3.25-.95-4.73-1.51-8.07-3.05-15.02-7.56-19.64-15.1-.58-.95-1.09-1.94-1.6-2.93-.44-.85-.84-1.82-2.07-1.26-1.25.56-.63,1.49-.29,2.27,3.7,8.52,9.81,14.8,18.03,18.98,3.07,1.56,6.4,2.62,9.59,3.95.29.12.67.52.67.79.04,4.04.03,8.09.03,12.52-2.51-.86-4.82-1.49-7.01-2.43-12.32-5.3-19.54-14.9-22.96-27.62-3.27-12.16-2.09-24.11,1.84-35.88,5.53-16.57,15.69-29.81,29.55-40.59,2.22,1.91,4.5,3.74,6.64,5.73,12.86,12,21.67,26.37,25.14,43.74,2.55,12.79,1.79,25.32-4.43,37.05-5.29,9.98-13.48,16.53-24.45,19.48-.46.12-.94.17-1.54.27v-12.87c4.24-.85,8.11-2.74,11.86-4.9,7.38-4.25,12.79-10.28,16.28-18.04.16-.36.41-.77.37-1.12-.06-.46-.27-1.15-.59-1.27-.43-.16-1.04.1-1.54.26-.16.05-.25.35-.34.55-4.82,10.01-13.09,15.81-23.39,19.12-.83.27-1.69.44-2.67.69v-11.41c5.57-1.55,10.5-4.36,15.01-7.89,6.17-4.83,10.37-11.07,12.76-18.53.24-.74.48-1.5-.36-2.02-.78-.49-1.54-.13-1.92.93-4.18,11.67-12.83,18.48-24.2,22.36-.37.12-.75.19-1.31.32Z"/>
  <path d="M139.28,193.87c2.67-3.02,5.22-5.94,7.83-8.8.23-.25.96-.33,1.31-.16,4.94,2.33,10.06,4.1,15.48,4.89,7.04,1.02,13.73-.26,20.14-3.23.79-.36,1.46-.85,1.04-1.83-.45-1.05-1.28-.86-2.14-.52-10.97,4.38-21.37,2.6-31.44-2.88-.11-.06-.2-.17-.41-.35,2.18-2.46,4.35-4.9,6.56-7.39,4.49,2.07,9.15,3.33,13.98,3.88,8.79,1,17.11-.54,24.9-4.78.83-.45,1.63-.99,1.06-2.08-.58-1.1-1.43-.66-2.29-.26-11.13,5.14-22.29,5.08-33.49.21-.31-.14-.59-.35-1.07-.64,3-3.01,5.91-5.94,8.86-8.84.19-.19.75-.22,1.03-.09,4.8,2.28,9.86,3.65,15.15,3.95,6.55.38,12.6-1.36,18.22-4.68.72-.42,1.21-.96.7-1.85-.5-.86-1.2-.77-1.95-.37-5.27,2.79-10.9,3.77-16.81,3.26-4.5-.39-8.68-1.79-12.73-4.1,2.17-2.23,4.21-4.39,6.34-6.47.24-.23.97-.17,1.37,0,5,2.11,10.15,3.33,15.61,2.86,4.16-.36,8-1.65,11.51-3.92.68-.44,1.25-.97.73-1.85-.56-.97-1.28-.62-2.05-.2-7.78,4.15-15.57,3.66-23.34-.04-.12-.06-.21-.16-.3-.24,2.31-2.35,4.59-4.71,6.93-7.01.22-.22.9-.14,1.28.01,3.36,1.29,6.82,2.31,10.41,1.93,2.53-.27,5-1.12,7.48-1.78.86-.23,1.41-.87,1.01-1.83-.39-.95-1.19-.77-1.93-.48-4.65,1.86-9.24,1.49-13.79-.35-.33-.13-.66-.27-.98-.42-.12-.06-.21-.16-.52-.41,1.6-1.53,3.15-3.06,4.77-4.5.3-.26.97-.29,1.42-.18,4.52,1.09,8.75.52,12.64-2.09.68-.45,1.63-.91,1.03-1.98-.6-1.07-1.45-.7-2.29-.23-2.64,1.46-5.45,1.76-8.58,1.26.3-.34.47-.57.67-.76,2.63-2.6,5.26-5.2,7.89-7.8.1-.09.19-.19.28-.29.66-.7.93-1.52.14-2.22-.72-.64-1.48-.36-2.12.29-2.3,2.3-4.61,4.59-6.92,6.88-.37.37-.77.71-1.34,1.23-.41-3.36-.28-6.43.71-9.43.08-.25.18-.5.29-.75.33-.75.31-1.43-.53-1.79-.85-.37-1.37.14-1.69.85-1.54,3.38-2.38,6.96-2.02,10.64.21,2.11-.37,3.51-1.93,4.83-1.42,1.19-2.63,2.64-3.93,3.97-.16-.03-.32-.05-.47-.08-.24-1.95-.65-3.89-.68-5.84-.04-3.62.78-7.06,2.68-10.2.43-.71.9-1.5-.09-2.07-.92-.54-1.48.15-1.94.86-3.96,6.08-4.58,12.71-3.11,19.63.19.88.03,1.37-.59,1.97-2.41,2.32-4.76,4.69-7.14,7.04-.31.31-.64.59-1.33,1.22-.41-2.52-.94-4.71-1.09-6.92-.42-6.23,1.01-12.02,4.55-17.23.52-.76.61-1.43-.2-1.94-.82-.53-1.42-.05-1.91.63-4.31,5.93-6.49,12.55-6.12,19.9.15,2.87.72,5.73,1.08,8.59.04.32.02.78-.17.96-2.6,2.5-5.23,4.95-7.99,7.55-.5-2.01-1.24-4.2-1.56-6.44-1.12-7.89.49-15.23,4.81-21.94.49-.75.81-1.49-.1-2.07-.89-.56-1.5.03-2,.73-3.59,5.08-5.81,10.7-6.55,16.88-.61,5.06-.07,10.04,1.31,14.94.18.64.44,1.25.64,1.8-4.44,4.97-8.86,9.91-13.56,15.17-.43-2.36-.94-4.41-1.16-6.5-.91-8.74,1.25-16.69,6.32-23.85.29-.41.55-.96.52-1.42-.02-.31-.56-.81-.88-.83-.46-.02-1.1.19-1.37.53-1.15,1.47-2.3,2.96-3.26,4.56-5.27,8.83-6.68,18.32-4.47,28.3.47,2.13.22,3.6-1.36,5.16-2.31,2.27-4.35,4.82-6.65,7.42-.35-.74-.65-1.3-.89-1.89-3.78-9.56-2.81-18.93,1.17-28.17,2.78-6.44,6.9-12.02,11.28-17.44,9.27-11.47,20.28-20.74,33.81-26.83,8.88-3.99,18.17-6.18,27.94-6.31,1.18-.02,1.69.27,1.98,1.48,3.69,15.11,2.5,29.9-3.13,44.32-5.26,13.49-13.5,24.83-25.22,33.49-7.46,5.51-15.79,8.75-25.11,9.07-7.16.25-13.83-1.57-20.21-5.29Z"/>
  <path d="M85.59,160.82c3.15,2.94,6.3,5.89,9.62,8.98-3.15,1.79-6.14,2.83-9.26,3.46-8.87,1.8-17.46.91-25.66-3.03-.9-.43-1.67-.53-2.15.43-.48.96.25,1.47.98,1.88,6.23,3.5,12.97,5.17,20.08,5.21,6.54.04,12.8-1.4,18.93-4.07,2.14,2.38,4.34,4.82,6.57,7.3-.17.18-.26.35-.4.43-9.75,5.42-19.89,6.98-30.59,3.13-.29-.11-.57-.24-.86-.37-.8-.36-1.58-.49-2.07.45-.52,1,.13,1.56.93,1.84,2.93,1.02,5.83,2.24,8.85,2.9,9.6,2.1,18.52-.37,27.13-4.52.16-.08.31-.17.58-.31,2.77,3.06,5.54,6.13,8.42,9.31-.7.41-1.28.8-1.89,1.12-9.4,4.86-19.16,5.39-29.17,2.26-10.86-3.4-19.46-10.11-26.64-18.71-9.29-11.11-15.17-23.84-17.36-38.19-1.46-9.58-.93-19.09,1.53-28.49.24-.91.74-1.02,1.54-1.02,11.03.03,21.42,2.69,31.25,7.61,11.87,5.94,21.65,14.45,30.03,24.66,4.45,5.42,8.67,10.98,11.61,17.4,4.35,9.51,5.44,19.21,1.47,29.14-.16.41-.35.82-.54,1.22-.05.11-.14.2-.32.46-1.99-2.18-3.78-4.48-5.91-6.39-2.3-2.07-2.56-4.2-1.95-7.15,2.31-11.25-.05-21.57-7-30.77-.29-.39-.62-.76-.94-1.13-.56-.63-1.18-.76-1.86-.17-.7.6-.4,1.17.03,1.75,2.73,3.7,4.69,7.76,5.76,12.24,1.44,6.06,1.2,12.08-.52,18.04-.15.12-.29.24-.44.36-.21-.38-.36-.81-.64-1.13-3.96-4.47-7.95-8.91-11.89-13.39-.28-.32-.46-.96-.34-1.34,3.51-11.03,2.57-21.52-3.69-31.38-.4-.64-.84-1.26-1.31-1.86-.45-.57-1-.89-1.73-.38-.78.55-.65,1.15-.19,1.83,2.44,3.59,3.97,7.56,4.71,11.82,1,5.73.53,11.34-1.73,16.95-1.95-1.97-3.73-3.94-5.71-5.69-1.78-1.58-2.25-3.12-1.75-5.61,1.66-8.1.79-15.96-3.56-23.21-.57-.95-1.21-1.87-1.87-2.77-.48-.65-1.12-1.13-1.93-.53-.8.59-.52,1.24-.05,1.97,4.76,7.29,5.55,15.15,3.29,23.43-.02.07-.11.13-.48.55-.85-.99-1.64-2-2.52-2.92-1.8-1.86-3.64-3.67-5.49-5.48-.53-.51-.68-.95-.5-1.74,1.63-6.84.89-13.35-2.98-19.36-.12-.19-.24-.37-.38-.55-.48-.6-1.04-1.05-1.82-.53-.81.55-.51,1.18-.1,1.85,2.92,4.83,3.51,10,2.22,15.44-.06.26-.17.5-.19.57-1.97-1.84-3.99-3.7-5.95-5.62-.24-.24-.2-.83-.17-1.26.28-3.88-.2-7.65-1.68-11.26-.17-.41-.29-.93-.6-1.17-.47-.35-1.17-.79-1.63-.67-.85.23-.78.99-.45,1.76,1.35,3.2,1.59,6.53,1.13,10.22-.48-.44-.8-.71-1.09-1.01-2.31-2.29-4.62-4.58-6.93-6.87-.06-.06-.12-.13-.19-.19-.69-.71-1.47-1.13-2.32-.35-.92.84-.4,1.59.29,2.28,2.52,2.52,5.05,5.03,7.57,7.55.34.34.67.7,1.16,1.22-3.02.46-5.74.23-8.32-1.07-.24-.12-.48-.24-.71-.38-.75-.44-1.38-.28-1.85.42-.49.73-.13,1.26.49,1.69,2.2,1.52,4.58,2.7,7.27,2.75,2.07.04,4.14-.33,6.22-.47.39-.03.9.04,1.17.28,1.58,1.43,3.11,2.93,4.83,4.57-2.58,1.33-5,2.07-7.57,2.28-2.74.23-5.41-.14-8.01-1.11-.5-.19-1.29-.16-1.71.12-.84.57-.5,1.56.72,2.11,3.4,1.54,6.98,2.29,10.67,1.71,2.57-.4,5.07-1.28,7.61-1.92.39-.1.98-.22,1.19-.03,2.36,2.29,4.67,4.63,7.08,7.06-4.27,2.13-8.63,3.36-13.32,3.17-3.82-.15-7.51-.91-10.83-2.96-.78-.48-1.51-.62-2.05.31-.53.93.12,1.4.79,1.82,6.43,4,13.36,4.97,20.66,3.24,2.33-.55,4.55-1.51,6.84-2.22.42-.13,1.12-.12,1.38.13,2.06,2.03,4.04,4.13,6.15,6.3-3.45,2-7,3.32-10.8,3.91-6.49,1-12.69.08-18.56-2.9-.08-.04-.17-.07-.24-.11-.77-.43-1.49-.42-1.97.38-.54.88.03,1.41.73,1.83,3.24,1.94,6.71,3.28,10.4,4.07,8.32,1.78,16.06-.16,23.44-3.46Z"/>
  <path d="M138.97,147.62c-1.25,2.02-2.75,4.28-4.08,6.64-3.25,5.8-5.48,11.97-6.24,18.61-.87,7.7.63,14.97,4.14,21.85.41.8.43,1.26-.28,1.92-1.54,1.41-2.96,2.95-4.65,4.66-1.67-1.74-3.32-3.4-4.87-5.15-.21-.24-.07-.98.13-1.38,2.51-5,4.07-10.24,4.31-15.85.35-7.95-1.68-15.36-5.25-22.37-1.61-3.16-3.56-6.15-5.39-9.27.28.09.58.19.88.28,2.64.77,5.27,1.58,7.94,2.26.71.18.96.4.95,1.11-.03,2.32,0,4.63-.03,6.95-.01,1.03.16,2.01,1.39,2,1.24-.01,1.41-1.01,1.35-2.03-.01-.22,0-.45-.01-.67,0-2.05,0-4.1-.02-6.15,0-.65.08-1.01.87-1.19,3.02-.69,6.01-1.5,8.84-2.22Z"/>
</svg>