<?xml version="1.0" encoding="UTF-8"?>
<svg id="Ebene_1" xmlns="http://www.w3.org/2000/svg" viewBox="0 0 240.05 251.24">
  <path d="M0,236.69c.93-2.35.93-2.39,3.69-2.32,1.07.03,1.59-.16,1.87-1.4,1.87-8.32,3.87-16.61,5.82-24.91.08-.34.14-.69.24-1.19-.7-.09-1.34-.17-2.16-.28.43-3.67.86-7.33,1.32-11.16.92,0,1.76-.04,2.59.01.72.04.99-.22,1.14-.94,2.23-10.89,4.48-21.78,6.75-32.66.96-4.63,1.97-9.26,2.95-13.88.04-.21.06-.42.1-.79h-2.97v-9.45h8.82c1.92-8.36,3.82-16.61,5.76-25.03h-2.99c-.14-3.03-.27-5.9-.41-9h9.48c2.8-12.64,5.56-25.09,8.35-37.69h-3.46c-.18-2.42-.35-4.71-.54-7.22.63,0,1.11,0,1.58,0,3.27,0,6.53.03,9.8-.03.44,0,1.15-.38,1.27-.74,1.93-5.89,3.79-11.8,5.73-17.89-1.06-.05-2.05-.1-3.16-.16.54-2.82,1.02-5.54,1.62-8.23.07-.32.74-.71,1.15-.73,2.19-.11,4.38-.12,6.57-.15.53,0,1.06,0,1.65,0,1.19-5.22,2.37-10.34,3.54-15.45-1.94-.55-1.95-.55-1.96-2.59-.01-2.32,0-4.65,0-7.14h9.43c0-1.45.02-2.73,0-4-.02-.74.27-1.04,1.02-1.03,1.34,0,2.68-.07,4.02-.08C110.9.37,133.22.21,155.54,0c1.2-.01,1.8.21,1.84,1.55.04,1.29.34,2.56.56,4.01h8.21c.39,3.24.77,6.33,1.16,9.58-.9.06-1.68.1-2.6.16.4,1.58.79,3.07,1.15,4.57.8,3.34,1.62,6.68,2.36,10.03.16.73.46.93,1.15.94,2.28.05,4.56.19,6.84.22.79.01,1.2.2,1.35,1.06.51,2.89,1.11,5.76,1.7,8.83h-3.91c1.73,6.08,3.41,12,5.12,18h10.11c-.2,2.76-.39,5.41-.59,8.22h-3.07c.82,3.94,1.61,7.68,2.38,11.43,1.6,7.69,3.23,15.38,4.74,23.09.28,1.41.76,1.91,2.22,1.83,2.62-.13,5.25-.04,7.79-.04v9.2h-3.03c2.01,8.31,3.99,16.47,6,24.74,2.5,0,4.96.04,7.41-.02,1.06-.03,1.4.32,1.38,1.37-.06,2.81-.02,5.62-.02,8.57-.81.05-1.76.12-2.85.19.9,4.2,1.78,8.28,2.66,12.37,2.47,11.48,4.96,22.95,7.39,34.44.2.94.58,1.1,1.41,1.1,3.01,0,3.04.02,3.41,2.93.34,2.7.62,5.4.94,8.2-.73.1-1.38.18-2.14.28.74,2.99,1.47,5.92,2.18,8.85,1.42,5.9,2.84,11.8,4.21,17.72.16.71.44.94,1.14.97,2.8.11,2.8.13,3.5,2.89.71,2.81,1.43,5.63,2.13,8.44.11.43.18.86.3,1.43-23.86.19-47.59.37-71.49.55.12,1.1.22,2.09.34,3.21-.45.04-.84.1-1.23.1-4.2.02-8.41.12-12.61,0-1.03-.03-2.11-.65-3.03-1.21-1.58-.96-3.2-1.3-5.06-1.29-19.19.14-38.38.22-57.57.25-1.95,0-3.34,1.1-4.98,1.74-.93.36-1.94.68-2.91.7-3.85.07-7.69.02-11.54,0-.48,0-.97,0-1.58,0,.13-1.23.24-2.32.38-3.61-.85,0-1.6,0-2.34,0-21.69-.13-43.39-.26-65.08-.4-.45,0-.89-.03-1.34-.05,0-.63,0-1.25,0-1.88.13.01.27.03.4.03,22.54-.02,45.08-.04,67.62-.07.38,0,.77-.06,1.18-.09.46-2.97.9-5.83,1.38-8.92-.74,0-1.35,0-1.95,0-21.69-.04-43.38-.08-65.07-.16-1,0-1.38.3-1.63,1.24C1.36,239.46.65,241.56,0,243.67c0-2.33,0-4.65,0-6.98ZM104.34,99.87c-1.5,13.83-2.99,27.49-4.47,41.19h38.54c.02-.21.05-.3.04-.39-1.3-13.03-2.63-26.06-3.85-39.1-.14-1.5-.64-1.77-2.01-1.76-8.63.07-17.27.05-25.9.05-.71,0-1.42,0-2.34,0ZM137.72,94.79c3.77,33.57,7.52,67.04,11.27,100.49,2.67.03,3.21-.5,3.17-2.93,0-.4,0-.81-.07-1.2-.63-4.33-1.26-8.67-1.93-12.99-.38-2.42-.84-4.82-1.26-7.23,2.27,7.75,3.8,15.61,3.55,23.8,1.88-.38,3.82-.77,5.79-1.18-4.94-33.05-9.85-65.89-14.76-98.76h-5.76ZM88.42,194.91c3.73-33.48,7.87-66.75,10.97-100.2h-4.86c-.11.56-.23,1.08-.32,1.6-.95,6-1.91,12-2.84,18-1.75,11.3-3.48,22.61-5.21,33.91-1.57,10.29-3.14,20.58-4.71,30.87-.65,4.28-1.33,8.56-1.94,12.85-.05.37.29,1.1.57,1.17,2.68.65,5.39,1.18,8.34,1.8ZM175.99,32.74c-37.14-.15-74.18-.31-111.23-.46-.26,2.27-.47,4.2-.71,6.26,37.67.19,75.11.38,112.69.57-.26-2.16-.49-4.1-.76-6.37ZM166.75,236.15c.46,3.08.9,5.98,1.35,9h69.53c-.66-2.7-1.33-5.28-1.9-7.89-.18-.85-.53-1.03-1.35-1.03-21.2,0-42.39-.04-63.59-.07-1.29,0-2.58,0-4.06,0ZM48.23,60.59c.1.72.29,1.37.28,2.03-.03,1.33.62,1.56,1.83,1.56,14.76.04,29.52.13,44.28.23,30.5.19,61.01.4,91.51.6.45,0,.91.04,1.34-.05.24-.05.59-.31.62-.51.21-1.21.35-2.44.53-3.85H48.23ZM76.17,13.35h88.82c-.1-2.07-.19-4.06-.29-6.09h-88.95c.14,2.06.28,4.01.42,6.09ZM163.67,147.35c.23,4.77.45,9.61.69,14.56,11.42-.14,22.71-.28,34.09-.42-.15-4.73-.3-9.31-.46-14.14h-34.32ZM86.18,73.85h64.56v-6.94c-21.5-.21-42.99-.43-64.56-.64v7.58ZM76.55,197.47H12.15v7.53c.32,0,.72,0,1.11,0,15.65-.13,31.3-.28,46.94-.37,1.35,0,2.25-.34,2.89-1.59.39-.75,1.11-1.33,1.68-1.99.51.74.98,1.5,1.53,2.2.35.44.8,1.12,1.22,1.13,2.41.07,4.83-.01,7.24-.1.3-.01.79-.35.83-.6.36-2.01.63-4.04.96-6.23ZM225.96,197.52h-65.06c.36,2.37.7,4.61,1.06,7,21.47.16,42.86.32,64.34.47-.12-2.6-.23-4.96-.34-7.48ZM72.12,147.51c-10-.15-19.89-.29-29.99-.44v14.52h29.55c.14-4.63.29-9.27.44-14.08ZM205.32,137.55c-1.12-4.38-2.2-8.38-3.15-12.42-.24-1.02-.61-1.35-1.67-1.35-7.69.06-15.38.06-23.07.08-.42,0-.85.05-1.28.08.32,4.61.63,9.06.95,13.53h15.46c-.32-3.28-.62-6.43-.92-9.59.86,2.88,1.54,5.78,2.16,8.7.15.7.41.98,1.14.97,3.39-.03,6.79-.01,10.39-.01ZM23.45,145.21c.76,0,1.42,0,2.08,0,10.19.03,20.38.07,30.58.1,9.07.03,18.15.06,27.22.08.59,0,1.3.21,1.43-.75.22-1.67.48-3.34.74-5.1H22.99c.15,1.87.29,3.64.45,5.67ZM67.53,234.01c-.47-5.39-.92-10.58-1.36-15.62h-20.95c.26,5.32.51,10.45.76,15.62h21.54ZM171.14,218.22v15.45h21.61c-.3-5.15-.6-10.26-.91-15.45h-20.7ZM194.37,233.74h21.25c-.57-5.21-1.13-10.33-1.69-15.45h-20.6c.35,5.18.69,10.25,1.04,15.45ZM23.51,234.08h20.98c-.27-5.34-.53-10.5-.79-15.59h-19.7c-.16,5.28-.32,10.45-.48,15.59ZM213.82,139.74h-61.75c.23,1.52.54,2.79.59,4.07.05,1.19.51,1.45,1.64,1.45,19.35.02,38.71.08,58.06.13.43,0,.86,0,1.46,0v-5.66ZM100.98,97.05c-5.61,50.63-11.19,100.97-16.8,151.54,1.43-.75,2.85-.81,3.02-2.87.59-7.26,1.41-14.5,2.16-21.74,1.01-9.78,2.04-19.55,3.03-29.33.12-1.14-.03-2.3.09-3.43.12-1.14.52-2.24.64-3.38.69-6.35,1.34-12.71,1.99-19.06.86-8.36,1.71-16.71,2.57-25.07.86-8.31,1.7-16.62,2.58-24.93.64-6.04,1.31-12.08,1.99-18.12.14-1.25-.02-2.38-1.28-3.61ZM89.29,241.92c19.77-.31,39.3-.61,58.93-.91-.2-1.73-.38-3.26-.56-4.91-.63,0-1.16,0-1.69,0-16.37.12-32.74.23-49.11.35-1.97.01-3.94,0-5.9.09-.41.02-1.09.4-1.14.7-.26,1.48-.35,2.99-.52,4.68ZM34.31,105.51c.13,1.39.31,2.63.36,3.87.04,1.25.45,1.72,1.83,1.7,11.17-.13,22.34-.16,33.52-.21,6.26-.03,12.51-.02,18.77-.05.44,0,1.21-.16,1.25-.37.34-1.58.54-3.2.8-4.94h-56.53ZM143.03,87.15c-16.66-.15-33.18-.3-49.8-.46.14,2.13.26,4.08.39,6.06h49.41v-5.61ZM202.41,105.51h-55.58c.29,1.82.56,3.52.85,5.36h54.26c.16-1.78.31-3.5.48-5.36ZM162.95,224.95c-1.5-10.09-3.01-20.21-4.52-30.33-3.2.63-6.16,1.21-9.22,1.81,1.12,9.52,2.22,18.95,3.34,28.52h10.4ZM79.21,194.22c-1.59,10.22-3.16,20.25-4.74,30.41.74.08,1.31.15,1.88.19,2.45.17,4.91.28,7.36.52,1.07.11,1.33-.24,1.44-1.27.72-6.84,1.52-13.67,2.29-20.51.27-2.43.53-4.86.8-7.37-3.04-.67-5.95-1.3-9.02-1.98ZM90.07,234.63h57.47c-.2-1.72-.36-3.16-.55-4.74-.66,0-1.23,0-1.8,0-15.33-.02-30.66-.05-45.99-.07-2.55,0-5.1-.03-7.64.04-.37,0-.98.45-1.04.77-.24,1.35-.32,2.73-.45,4ZM91.98,216.24h53.74c-.19-1.68-.36-3.21-.54-4.86h-52.67c-.17,1.58-.35,3.2-.52,4.86ZM93.23,204.5c-.2,1.79-.39,3.4-.59,5.16h52.38c-.15-1.54-.3-3.04-.45-4.63-17.13-.18-34.15-.35-51.34-.53ZM167.24,174.64c-.2,3.43-.39,6.8-.59,10.23h26.83c-.28-3.48-.55-6.84-.83-10.23h-25.41ZM69.68,174.73h-25.83c-.22,3.4-.44,6.71-.65,9.95h26.97c-.17-3.41-.33-6.61-.5-9.95ZM95.45,183.99h47.06c-.16-1.7-.32-3.29-.48-4.95-15.38-.31-30.64-.63-45.98-.94-.21,2.07-.41,3.96-.6,5.89ZM146.9,228.2c-.17-1.69-.32-3.14-.46-4.46h-55.21c-.18,1.63-.33,3.03-.49,4.46h56.16ZM141.3,171.77c-14.87-.37-29.6-.73-44.46-1.1-.21,1.91-.41,3.75-.62,5.67,15.27.32,30.42.63,45.67.95-.21-1.94-.39-3.7-.58-5.51ZM153.78,248.71c-5.69-50.07-11.38-100.05-17.06-150.03-.14,0-.28.02-.43.03,0,.51-.04,1.03,0,1.53.57,5.92,1.15,11.83,1.73,17.74,1.39,14.14,2.79,28.28,4.19,42.43,1.29,13.07,2.54,26.15,3.87,39.22,1.54,15.16,3.2,30.31,4.65,45.47.2,2.11.98,3.16,3.05,3.6ZM74.26,226.2c-1.17,7.62-2.36,15.35-3.57,23.2,3.59,0,6.89-.04,10.19.02,1.1.02,1.42-.35,1.53-1.42.44-4.35.99-8.69,1.48-13.04.32-2.83.63-5.67.98-8.76h-10.61ZM139.25,149.3h-40.16c-.21,1.96-.41,3.84-.64,5.92h41.39c-.19-1.91-.38-3.81-.59-5.92ZM85.05,5.53h71.21c-.1-.69-.29-1.3-.26-1.9.06-1.41-.63-1.64-1.89-1.63-22.3.02-44.61,0-66.91-.02-.61,0-1.21.06-1.82.09-.12,1.22-.22,2.28-.33,3.47ZM60.33,137.34h18.63c-.32-4.61-.62-9-.93-13.51h-17.7v13.51ZM157.12,123.86v13.61h18.41c-.27-4.56-.54-9.01-.81-13.61h-17.6ZM142.7,185.84h-47.46c-.19,1.69-.37,3.18-.55,4.81h48.46c-.16-1.69-.31-3.28-.45-4.81ZM153.04,229.55c.77,6.63,1.53,13.17,2.28,19.66h11.35c-1.17-7.63-2.32-15.16-3.49-22.82h-10.49c.11.88.22,1.74.34,2.7,1.6-.33,3.04-.63,4.48-.92,2.48-.5,2.98-.21,3.68,2.18.26.88.44,1.78.65,2.67-.66-.94-1.11-1.95-1.52-2.97-.39-.97-1.03-1.37-2.09-1.2-1.67.26-3.35.45-5.2.7ZM143.89,198.43h-50.01c-.16,1.44-.32,2.92-.5,4.49,17.1.15,34.02.3,51.03.45-.18-1.69-.34-3.2-.53-4.94ZM218.79,184.53c-.63-3.01-1.28-5.83-1.79-8.67-.18-.99-.53-1.32-1.54-1.31-6.71.05-13.41.05-20.12.07-.38,0-.76.07-1.19.12.35,3.46.68,6.78,1.02,10.24,7.88-.15,15.65-.29,23.62-.44ZM80.29,172.96c.46-2.99.94-6.04,1.44-9.26h-25.2c-.17,3.1-.34,6.11-.52,9.26h24.28ZM205.15,206.72h-23.2v9.69h23.2v-9.69ZM97.69,162.24c14.36.19,28.53.39,42.81.58-.17-1.96-.33-3.72-.5-5.67h-41.7c-.19,1.62-.39,3.29-.61,5.09ZM26.28,147.07c-.96,4.78-1.91,9.53-2.88,14.37h16.94c.19-4.8.37-9.54.56-14.37h-14.62ZM41.44,184.7c.31-3.24.62-6.54.95-10.03h-21.72c-.67,3.23-1.36,6.53-2.08,10.03h22.85ZM97.02,168.8c14.8.44,29.42.88,44.17,1.33-.2-1.96-.38-3.7-.57-5.5-14.44-.22-28.72-.44-43.07-.66-.18,1.66-.34,3.16-.53,4.84ZM179.71,76.51c.07-.02.13-.04.2-.05.15.54.32,1.07.46,1.61.62,2.42,1.21,4.85,1.85,7.26.1.37.43.94.68.95,1.98.08,3.96.04,5.99.04-.65-3.16-1.31-6.17-1.87-9.19-.2-1.06-.59-1.46-1.73-1.45-6.52.07-13.04.05-19.56.06-.37,0-.75.08-1.16.13.65,3.49,1.28,6.84,1.92,10.28h14.48c-.43-3.31-.85-6.48-1.26-9.64ZM91.85,218c-.16,1.45-.31,2.75-.44,3.96h54.88c-.18-1.48-.32-2.74-.47-3.96h-53.97ZM155.75,163.8c.42,2.73.89,5.32,1.18,7.92.13,1.15.59,1.33,1.61,1.32,7.01-.09,14.03-.12,21.04-.17.43,0,.86-.05,1.37-.08-.22-3.1-.44-6.06-.65-8.99h-24.55ZM88.67,247.52c20.1-1.1,40.06-1.22,60.18-.28-.17-1.56-.32-2.91-.48-4.41-19.79.25-39.48.5-59.27.75-.15,1.33-.28,2.51-.43,3.94ZM34.29,206.7v9.65h22.15c-.21-3.36-.4-6.51-.59-9.65h-21.56ZM143.31,192.48h-48.8c-.16,1.4-.32,2.75-.49,4.28h49.73c-.14-1.35-.28-2.71-.44-4.28ZM58.6,137.6c.24-4.74.47-9.3.71-14h-14.47c-.59,4.64-1.18,9.31-1.77,14h15.53ZM186.51,122.14c-.52-2.83-1.07-5.49-1.49-8.18-.15-.96-.49-1.23-1.45-1.22-6.26.06-12.51.06-18.77.09-.43,0-.86.05-1.43.09v9.22h23.13ZM32.58,172.84c3.1,0,6.26,0,9.42,0,3.71.01,7.41.07,11.11.04.42,0,1.19-.34,1.22-.58.31-2.87.52-5.75.76-8.76h-22.52v9.29ZM73.35,112.75c-6.94,0-13.63,0-20.33.03-.27,0-.72.39-.77.65-.52,2.88-.97,5.77-1.46,8.77h23c-.15-3.14-.29-6.19-.44-9.46ZM206.28,195.43c-.16-2.64-.36-5.04-.42-7.45-.03-1.14-.49-1.38-1.55-1.35-6.88.16-13.77.25-20.65.37-.34,0-.69.06-1.2.11v8.32h23.81ZM204.08,163.71h-22.38c.34,3.1.66,6.05.99,9.04h22.14c-.26-3.1-.5-6.05-.75-9.04ZM21.86,234.25c.24-5.34.47-10.53.7-15.79h-11.47c-1.35,5.29-2.68,10.51-4.03,15.79h14.8ZM32.63,195.4h22.67c-.24-2.91-.47-5.73-.71-8.67h-21.97v8.67ZM32.99,206.73c-6.21,0-12.24,0-18.27.03-.28,0-.73.37-.81.64-.84,3.09-1.61,6.19-2.39,9.23h20.94c.18-3.38.35-6.58.52-9.9ZM231.22,233.77c-1.03-4-1.97-7.71-2.94-11.41-.36-1.37-.39-3.24-1.3-3.92-.93-.7-2.74-.23-4.17-.24-2.4-.02-4.81,0-7.16,0-.05.22-.08.26-.07.31.55,4.88,1.08,9.77,1.69,14.64.04.3.7.73,1.07.73,2.73.02,5.45-.06,8.18-.09,1.5-.02,3,0,4.7,0ZM206.55,206.69v9.63h20.16c-.8-3.07-1.53-6-2.37-8.91-.09-.32-.79-.65-1.22-.66-2.9-.07-5.8-.06-8.71-.06-2.62,0-5.25,0-7.87,0ZM55.6,187.04c.28,2.79.56,5.61.83,8.29.2.14.24.19.27.19,6.52-.06,13.04-.12,19.55-.21.24,0,.64-.27.67-.46.42-2.53.79-5.06,1.21-7.81h-22.54ZM153.77,49.75c.4-2.89.81-5.83,1.24-8.93h-20.15v8.93h18.91ZM213.88,161.43c-.99-4.75-1.93-9.28-2.87-13.81h-11.62c.25,4.67.5,9.26.75,13.81h13.74ZM83.23,40.02c-5.27,0-10.35,0-15.44.02-.31,0-.8.27-.9.53-1.13,3.14-2.19,6.3-3.24,9.36h20.26c-.23-3.36-.44-6.47-.67-9.91ZM181.05,195.38c.19-2.71.38-5.47.58-8.35-7.53.14-14.83.28-22.24.41.41,2.72.78,5.25,1.18,7.94h20.48ZM180.39,216.55v-9.93h-18.14c.51,3.39,1.01,6.67,1.5,9.93h16.64ZM99.26,147.31h39.81c-.14-1.47-.28-2.82-.43-4.32-.74,0-1.4,0-2.06,0-11.22.02-22.45.04-33.67.07-.8,0-1.62-.06-2.41.04-.32.04-.81.4-.86.67-.2,1.13-.26,2.29-.38,3.54ZM173.28,41h-17.04c-.29,2.98-.57,5.89-.86,8.92h20.53c-.89-3.02-1.74-5.91-2.62-8.92ZM147.94,86.01h16.95c-.05-.51-.08-1-.15-1.47-.4-2.51-.88-5.02-1.2-7.54-.12-.98-.45-1.25-1.41-1.24-4.38.06-8.76.05-13.14.07-.34,0-.67.08-1.05.13v10.05ZM89.06,75.68c-4.91,0-9.6-.01-14.29.02-.3,0-.82.3-.87.54-.67,3.25-1.28,6.52-1.92,9.85h16.63c.15-3.44.29-6.81.44-10.42ZM58.13,216.26c5.02,0,9.89.01,14.76-.03.29,0,.79-.34.83-.59.51-3.03.95-6.06,1.4-9.03h-17.79c.27,3.32.53,6.43.79,9.65ZM57.77,75.7c-.65,3.46-1.3,6.89-1.96,10.4h14.81c.64-3.47,1.28-6.88,1.93-10.4h-14.78ZM117.01,23.36v7.18h20.72c-.12-2.47-.23-4.81-.34-7.18h-20.38ZM133.35,40.6h-17.14c.29,3,.58,5.96.87,8.97h16.27v-8.97ZM84.56,40.33c.28,3.17.56,6.3.84,9.42h14.96v-9.42h-15.8ZM82.18,87.74c-.53,0-1.05,0-1.57,0-4.07-.02-8.14-.03-12.2-.06-2.42-.02-2.45-.03-2.8,2.38-.29,2.01-.5,4.03-.76,6.08h17.33v-8.4ZM129.7,21.51c-.11-2.22-.2-4.19-.29-6.18h-22.54c-.17,2.12-.34,4.15-.5,6.18h23.34ZM154.53,95.29h18.82c-.26-2.51-.52-4.97-.79-7.5h-18.04v7.5ZM84.29,147.65h-10.91v14.15h8.68c.75-4.78,1.49-9.44,2.24-14.15ZM84.71,66.24h-17.01c-.45,2.54-.91,5.11-1.37,7.69h18.39v-7.69ZM172.38,73.85c-.2-1.85-.46-3.66-.58-5.47-.07-1.05-.51-1.31-1.51-1.3-5.67,0-11.34-.06-17.01-.1-.34,0-.69.03-1.08.05v6.82h20.18ZM75.09,122.22h13.13c.5-3.18.98-6.28,1.47-9.37h-15.49c.31,3.22.6,6.27.89,9.37ZM118.42,85.02c-.12-2.78-.29-5.41-.33-8.04-.02-1.01-.35-1.29-1.34-1.27-3.98.05-7.96.02-11.94.03-.38,0-.76.07-.96.09v9.2h14.57ZM110.97,51.4h-18.98v7.11h18.53c.16-2.46.3-4.75.45-7.11ZM144.12,58.6h19.4c-.12-2.26-.24-4.51-.36-6.93h-19.83c.25,2.23.51,4.47.79,6.93ZM147.98,112.81c.43,2.9.87,5.76,1.27,8.63.11.82.62.84,1.24.84,2.73,0,5.45,0,8.18,0,1.1,0,2.2,0,3.36,0,.22-3.26.43-6.3.64-9.48h-14.69ZM72.9,58.63h17.65v-7.26h-16.45c-.4,2.42-.8,4.82-1.2,7.26ZM132.64,75.84h-13.52c.3,3.11.6,6.11.89,9.09h13.95c-.45-3.1-.87-6.04-1.32-9.09ZM41.46,137.68c.72-4.82,1.41-9.48,2.12-14.28h-8.36c-1.2,4.72-2.4,9.44-3.64,14.28h9.87ZM49.34,122.17c.43-3.11.85-6.19,1.29-9.38h-12.75c-.77,3.08-1.54,6.17-2.35,9.38h13.81ZM31.45,186.46c-4.35,0-8.54,0-12.73.02-.21,0-.56.32-.6.55-.58,2.73-1.12,5.46-1.67,8.18h14.34c.22-2.9.43-5.69.66-8.75ZM162.2,147.11h-9.04c.76,4.99,1.51,9.91,2.25,14.71h7.38c-.2-5-.39-9.81-.58-14.71ZM115.12,40.48h-13.18v9.12h13.77c-.2-3.07-.39-6-.59-9.12ZM139.14,30.61h16.57c-.44-2.22-.9-4.31-1.27-6.41-.15-.83-.49-1.06-1.34-1.05-4.43.08-8.85.09-13.28.12-.43,0-.86,0-1.39,0,.25,2.56.47,4.91.71,7.34ZM186.41,112.78c.56,2.88,1.13,5.57,1.6,8.28.15.87.47,1.18,1.37,1.16,2.99-.06,5.98-.04,8.97-.05.96,0,1.92,0,2.99,0-.77-3.07-1.45-5.92-2.23-8.75-.08-.29-.69-.61-1.06-.62-2.18-.05-4.37-.02-6.56-.02-1.64,0-3.27,0-5.07,0ZM102.27,85.06v-9.26h-12.02v10.35h1.49c.03-.98.62-1.13,1.5-1.11,2.98.06,5.97.02,9.03.02ZM99.66,23.34v7.19h15.68c.21-2.49.41-4.81.61-7.19h-16.29ZM207.87,195.27h13.24c-.64-2.99-1.26-5.89-1.86-8.65h-12.1c.24,2.95.47,5.74.71,8.65ZM144.21,84.86q.65,1.32,2.25.99v-9.93h-12.45c.27,3.02.54,5.94.81,8.94h9.39ZM86.31,21.72h18.36c.31-2.24.6-4.29.91-6.54-5.94,0-11.7,0-17.46.02-.26,0-.71.3-.76.52-.39,2-.72,4.02-1.05,5.99ZM64.83,74.11c.43-2.78.83-5.36,1.26-8.14-4.45,0-8.72,0-13,.02-.23,0-.61.27-.66.47-.61,2.54-1.17,5.1-1.75,7.65h14.15ZM102.08,94.71c.63,1.02,1.12,1.98,1.78,2.79.33.41.99.78,1.5.77,9.43-.17,18.86-.39,28.28-.62.35,0,.84-.17,1-.43.46-.74.79-1.56,1.24-2.51h-33.81ZM142.49,58.43c-.21-2.37-.42-4.62-.62-6.92h-14.44v6.92h15.06ZM147.79,21.43h16.48c-.43-1.78-.88-3.45-1.22-5.16-.17-.85-.57-1.03-1.37-1.03-4.83.04-9.66.02-14.49.03-.29,0-.58.05-.94.09.51,2.03,1,3.97,1.53,6.06ZM51.99,96.18h11.64c.28-2.89.54-5.67.82-8.6h-10.97c-.5,2.86-.99,5.69-1.49,8.6ZM178.1,97.17h-16.1c.41,1.82.87,3.5,1.14,5.21.15.94.55,1.14,1.41,1.13,4.51-.07,9.02-.09,13.53-.14.25,0,.51-.08.82-.14-.26-2-.52-3.94-.8-6.06ZM126.01,58.42v-7h-13.79v7h13.79ZM216.3,172.78c-.69-3.28-1.32-6.26-1.92-9.15h-10.06c.46,2.99.88,5.81,1.36,8.62.04.22.49.51.76.51,3.21.04,6.43.02,9.87.02ZM79.17,123.88c.47,4.58.91,8.96,1.36,13.34h5.33c.7-4.49,1.38-8.88,2.07-13.34h-8.76ZM84.55,30.58h13.41v-7.34c-3.76,0-7.41-.03-11.07.04-.34,0-.87.55-.96.93-.51,2.07-.91,4.16-1.38,6.37ZM178.65,58.78c-.67-2.18-1.35-4.24-1.93-6.34-.22-.8-.56-1.05-1.39-1.01-3.26.13-6.52.18-9.78.27-.34,0-.67.08-1.09.13.16,2.36.32,4.61.48,6.96h13.71ZM58.59,103.27h16.03c.34-1.81.66-3.54,1-5.36h-16.37c-.22,1.77-.43,3.49-.66,5.36ZM186.26,73.99c-.43-1.95-.89-3.81-1.23-5.69-.15-.86-.54-1.06-1.34-1.06-3.39,0-6.79-.06-10.18-.08-.38,0-.76.06-1.28.1.41,2.31.79,4.48,1.19,6.73h12.84ZM130.41,15.24c.24,2.13.47,4.09.7,6.1h14.75c-.4-1.8-.83-3.48-1.14-5.19-.14-.76-.5-.92-1.18-.91-2.23.02-4.47,0-6.7,0-2.09,0-4.18,0-6.43,0ZM21.11,172.63h9.53c.25-3.03.51-6.04.78-9.27-2.71,0-5.29-.01-7.87.02-.23,0-.62.27-.66.48-.61,2.87-1.18,5.75-1.78,8.77ZM149.58,103.51h12.42c-.33-1.94-.68-3.73-.92-5.53-.11-.83-.5-1.01-1.24-1.01-1.83,0-3.66-.09-5.5-.11-1.73-.02-3.45,0-5.27,0,.17,2.24.34,4.44.5,6.66ZM71.07,174.77c.24,2.44.44,4.75.71,7.06.34,2.91.36,2.91,3.34,2.88,1.07,0,2.5.34,3.11-.21.65-.59.53-2.04.75-3.11.03-.13.07-.26.09-.39.31-2.05.62-4.09.95-6.23h-8.95ZM169.68,233.46c.3-5.13.6-10.19.91-15.3h-6.57c.65,4.35,1.28,8.58,1.91,12.82.43,2.88.44,2.89,3.76,2.49ZM72.76,51.26c-3.1,0-6.04-.01-8.98.02-.24,0-.61.25-.7.47-.86,2.28-1.67,4.57-2.53,6.96h11.16c.34-2.45.68-4.86,1.04-7.45ZM165.85,174.69h-8.42c.52,3.46,1.03,6.8,1.53,10.13h6c.3-3.42.59-6.7.89-10.13ZM155.2,23.11c.62,2.42,1.14,4.63,1.77,6.8.1.35.71.75,1.1.77,1.96.07,3.93.03,5.89.02.82,0,1.64,0,2.61,0-.67-2.69-1.28-5.14-1.88-7.59h-9.49ZM191.28,97.11h-11.88c.41,2.07.77,3.93,1.18,5.79.05.2.43.47.66.47,3.74.03,7.49.02,11.37.02-.47-2.24-.91-4.27-1.33-6.28ZM149.62,123.64c.71,4.65,1.41,9.26,2.12,13.91h3.56c.28-4.64.56-9.2.85-13.91h-6.52ZM54.56,103.34c.85-.14,2.02.69,2.39-.59.46-1.56.57-3.23.85-4.97-4.12-.12-8.09-.25-12.05-.34-.19,0-.53.24-.57.42-.44,1.85-.84,3.71-1.26,5.62,3.03,0,5.89,0,8.74,0,.39,0,.79-.08,1.22-.13.07-1.65.48-3.38-2.16-3.5,3.22-.96,3.68-.34,2.85,3.49ZM92.36,96.28c-.02-.46.07-1.26-.1-1.33-.92-.33-.54-1.02-.55-1.57-.03-1.81,0-3.61,0-5.5h-7.96v8.4h8.62ZM85.09,23.13c-2.9,0-5.57-.02-8.25.03-.26,0-.68.32-.75.56-.63,2.31-1.19,4.64-1.79,7.03,2.83,0,5.51.03,8.19-.04.35-.01.89-.54.99-.92.57-2.11,1.04-4.24,1.61-6.66ZM174,87.91c.34,2.57.66,5.04.98,7.53h9.03c-.56-2.38-1.07-4.64-1.64-6.89-.07-.26-.45-.61-.7-.62-2.53-.05-5.06-.03-7.67-.03ZM54.98,86.14c.54-3.53,1.08-6.98,1.63-10.59-1.98,0-3.8-.04-5.62.04-.31.01-.77.51-.86.87-.53,2.07-.96,4.17-1.43,6.26-.25,1.12-.49,2.24-.75,3.42h7.02ZM70.92,233.96c.8-5.27,1.59-10.46,2.39-15.71h-5.86c.58,5.28,1.14,10.46,1.72,15.71h1.75ZM152.86,95.08v-7.36h-7.96c.23,2.44.46,4.85.7,7.36h7.26ZM86.8,97.85c-3.19,0-6.35-.01-9.51.03-.24,0-.64.37-.68.61-.28,1.56-.48,3.14-.73,4.83h10.91v-5.47ZM76.52,21.86h8.22c.39-2.26.75-4.4,1.15-6.73-2.48,0-4.84-.02-7.19.03-.22,0-.54.4-.61.68-.55,1.97-1.04,3.96-1.57,6.02ZM52.62,87.36c-1.54,0-2.96-.03-4.38.03-.26,0-.66.31-.72.55-.68,2.71-1.31,5.43-1.98,8.26h5.44c.54-2.89,1.07-5.77,1.64-8.83ZM190.91,95.53c-.51-2.47-.98-4.77-1.5-7.07-.05-.22-.41-.53-.62-.54-1.77-.04-3.54-.02-5.48-.02.5,2.43.95,4.65,1.45,6.85.07.3.46.74.72.75,1.77.07,3.55.03,5.43.03ZM92.05,97.96h-3.79v5.44h2.97c.28-1.83.54-3.59.82-5.44ZM148.16,103.63c-.13-2.45-.24-4.7-.36-6.97h-2.3c.37,2.39.72,4.69,1.09,7.07.59-.04,1.02-.06,1.57-.1ZM64.85,201.94c-.74.89-1.34,1.61-2.02,2.42h3.32c-.44-.82-.79-1.46-1.31-2.42Z" style="fill: #c49c48;"/>
  <path d="M40.1,239.92c2.76-1.13,16.32-2.13,20.69-1.78-6.46.56-13.58,1.17-20.69,1.78Z" style="fill: #c49c48;"/>
  <path d="M19.09,242.21c-4.04-.17-8.09-.32-12.13-.51-.91-.04-1.82-.2-1.75-1.31.89.19,1.76.47,2.66.56,3.75.34,7.51.63,11.27.93-.02.11-.03.23-.05.34Z" style="fill: #c49c48;"/>
  <path d="M27.79,238.85c1.24-.91,2.48-1.01,3.74-.26.65.39,1.19.99,1.87,1.29.96.43,2.01.68,2.95.98-.81.49-1.81.87-2.97,0-1.64-1.22-3.25-2.57-5.58-2.02Z" style="fill: #c49c48;"/>
  <path d="M149.1,164.57c-.95-1.5-.88-3.04-.56-4.5.6-2.73.4-5.32-.25-8.05-.66-2.79-.66-5.74-.72-8.64,1.29,6.95,3.51,13.82,1.53,21.18Z" style="fill: #c49c48;"/>
  <path d="M144.28,132.68c1.54,2.36,2.06,5.11.93,6.59-.3-2.13-.6-4.26-.93-6.59Z" style="fill: #c49c48;"/>
  <path d="M144.13,118.84c.23,1.95.46,3.9.73,6.13-1.19-1.08-1.55-3.95-.73-6.13Z" style="fill: #c49c48;"/>
  <path d="M141.52,102.16c.6,1.45,1.26,3.04,1.92,4.61-1.49.47-2.39-1.71-1.92-4.61Z" style="fill: #c49c48;"/>
  <path d="M155.82,191.34c-2.12-.56-1.22-2.48-1.73-3.75.57,1.23,1.13,2.45,1.73,3.75Z" style="fill: #c49c48;"/>
  <path d="M88.11,164.38c.18-.91.27-1.85.54-2.74.69-2.3.7-4.47-.32-6.75-1.21-2.72-.03-5.37.62-8h.33c0,.75.13,1.53-.03,2.24-.48,2.12-.29,4.11.51,6.15,1.29,3.28-.36,6.18-1.14,9.18-.17-.03-.34-.05-.52-.08Z" style="fill: #c49c48;"/>
  <path d="M87.98,170.77c.18,5.44-1.96,10.46-2.81,15.72-.13-.02-.26-.04-.38-.07.92-5.24,1.83-10.48,2.75-15.72.15.02.3.05.45.07Z" style="fill: #c49c48;"/>
  <path d="M90.78,134.95c.54,2.37.95,4.69-.52,6.73-.21-.03-.42-.06-.63-.09.38-2.21.77-4.42,1.15-6.64Z" style="fill: #c49c48;"/>
  <path d="M94.22,117.17c.17,1.22.42,2.44.46,3.67.01.4-.43.92-.8,1.22-.51.4-1.14.64-1.98,1.09.28-.57.36-1.1.66-1.28,1-.6,1.15-1.44,1.09-2.5-.04-.73.17-1.47.28-2.2.1,0,.2,0,.3,0Z" style="fill: #c49c48;"/>
  <path d="M95.73,99.73c.87,3.43.57,4.78-1.14,5.31.37-1.74.75-3.48,1.14-5.31Z" style="fill: #c49c48;"/>
  <path d="M107.95,34.98c4.26.16,8.52.32,12.78.48,0,.16-.01.31-.02.47-4.27-.08-8.56.27-12.81-.33.02-.21.04-.42.05-.63Z" style="fill: #c49c48;"/>
  <path d="M131.81,35.53c.59,0,1.18.02,1.77,0,3.15-.12,6.31-.21,9.46-.41,1.63-.1,2.26.12,3.64,1.97-.4-.17-.69-.21-.83-.37-1.18-1.34-2.58-1.05-4.16-.89-3.09.31-6.22.25-9.33.32-.19,0-.38-.15-.58-.23.01-.13.02-.26.03-.4Z" style="fill: #c49c48;"/>
  <path d="M79.25,36.64c-2.8-1.79-5.74-.63-8.63-.58-1.15.02-2.34.31-3.37-.66,3.27-.09,6.53-.26,9.8-.22.79,0,1.58.67,2.37,1.03-.06.15-.11.29-.17.44Z" style="fill: #c49c48;"/>
  <path d="M157.82,35.27h9.43v.29h-9.37c-.02-.1-.04-.19-.05-.29Z" style="fill: #c49c48;"/>
  <path d="M215.98,239.25c-2.71.15-5.54-.15-8.1.55-4.04,1.11-8.02.95-12.06.64-.61-.05-1.2-.22-1.82-.58.26-.06.51-.17.77-.17,1.52.03,3.03.07,4.55.12,2.45.09,4.82-.26,7.25-.71,3.04-.55,6.26-.13,9.4-.13,0,.09,0,.18.01.26Z" style="fill: #c49c48;"/>
  <path d="M189.58,241.04c-.45.12-.92.39-1.35.33-2.46-.35-4.92-.79-7.37-1.19l.03-.32c2.84.23,5.68.45,8.52.68.06.17.12.34.17.51Z" style="fill: #c49c48;"/>
  <path d="M227.94,242.06c1.05-.1,2.11-.2,3.34-.31-.26-.83-.47-1.53-.69-2.22.08-.04.16-.08.23-.12.5.88,1,1.75,1.67,2.91h-4.57c0-.09.01-.17.02-.26Z" style="fill: #c49c48;"/>
  <path d="M141.06,62.62h6.7c0,.12,0,.24.01.37h-6.68l-.03-.37Z" style="fill: #c49c48;"/>
  <path d="M170.38,62.55h3.75c0,.08,0,.17,0,.25h-3.76c0-.08.01-.17.02-.25Z" style="fill: #c49c48;"/>
  <path d="M136,11.71c-2.73-.32-5.46-.64-8.19-.96-.31-.04-.64-.18-.93-.12-3.04.69-5.9-.51-8.86-.73-2.85-.21-5.71-.21-8.56-.3-.38-.01-.76-.06-1.33-.12,1.88-.86,6.52-.63,14.11.61,4.73-.93,9.13,1.63,13.81,1.21-.02.13-.03.27-.05.4Z" style="fill: #c49c48;"/>
  <path d="M93.29,7.84c-1.66,1.25-3.45,2.11-5.57,2.25-1.49.1-2.97.39-4.43.7-1.04.22-2.01.46-2.54-.38,4.07-1.07,8.51-.57,12.54-2.57Z" style="fill: #c49c48;"/>
  <path d="M151.5,9.14c3.32.46,6.64.93,9.96,1.39-.02.15-.04.31-.06.46-3.32-.37-6.64-.73-9.96-1.1.02-.25.04-.5.06-.76Z" style="fill: #c49c48;"/>
  <path d="M168.7,159.16c-.63.45-1.33.45-1.51-.39-.32-1.45-.41-2.96-.6-4.44.15-.02.3-.04.45-.06.54,1.6,1.09,3.21,1.65,4.89Z" style="fill: #c49c48;"/>
  <path d="M88.99,69.15c.4,1.09.72,1.98,1.04,2.85-1.1.15-1.4-.54-1.04-2.85Z" style="fill: #c49c48;"/>
  <path d="M29.24,200.5c5.07-.86,10.08,1.06,15.15.31.02.18.05.37.07.55-.95.21-1.91.64-2.85.6-3.88-.16-7.76-.46-11.64-.73-.28-.02-.55-.24-.82-.36.03-.13.06-.25.09-.38Z" style="fill: #c49c48;"/>
  <path d="M13.66,199.65c1.98.15,3.58.27,5.2.39-.92,1.3-3.1,1.23-5.2-.39Z" style="fill: #c49c48;"/>
  <path d="M223.02,201.62c-.64-1.28-1.72-.99-2.76-.84-2.12.3-4.23.67-6.35.88-1.35.13-2.73.02-4.09.02-.01-.18-.02-.36-.03-.53,1.23-.12,2.46-.24,3.69-.35,2.53-.24,5.07-.42,7.58-.73,1.26-.16,1.76.42,1.97,1.56Z" style="fill: #c49c48;"/>
  <path d="M203.9,202.86c-2.83.81-5.28-.71-7.86-1.44.02-.12.04-.25.06-.37,2.62.42,5.24.83,7.85,1.25-.02.19-.03.38-.05.57Z" style="fill: #c49c48;"/>
  <path d="M172.7,200.34c-3.55.41-6.75.78-9.94,1.14,3.12-1.03,6.26-1.94,9.94-1.14Z" style="fill: #c49c48;"/>
  <path d="M191.31,200.87c-1.97.89-3.84-.21-5.74-.52h5.76c0,.17-.01.34-.02.52Z" style="fill: #c49c48;"/>
  <path d="M67.7,159.67c.45-2.01.81-3.65,1.18-5.29.32,1.5,1.04,3,.15,4.51-.2.34-.76.46-1.33.77Z" style="fill: #c49c48;"/>
  <path d="M43.07,141.47c.88-.99,1.93-1.14,2.88-.49,1.77,1.22,3.59,1.21,5.62.92,1.79-.25,3.65-.1,5.48,0,3.43.18,6.86.45,10.3.78-1.59,0-3.19-.02-4.78,0-4.37.08-8.74.21-13.11.24-.86,0-1.85-.1-2.55-.54-1.2-.75-2.27-1.61-3.83-.91Z" style="fill: #c49c48;"/>
  <path d="M25.35,141.21c.63,1.04,1.6,1.17,2.68,1.14,1.25-.04,2.49,0,3.74,0,0,.14,0,.27,0,.41-1.58.09-3.16.23-4.73.25-1.18.01-1.47-.34-1.69-1.78Z" style="fill: #c49c48;"/>
  <path d="M157.15,142.66c1.41-.76,2.95-.65,4.5-.6,4.15.15,8.29.33,12.44.34,4.82.01,9.64-.14,14.46-.21.44,0,.88,0,1.32,0,0,.14,0,.27,0,.41-10.89.22-21.78.45-32.67.67l-.05-.61Z" style="fill: #c49c48;"/>
  <path d="M211.76,141.87c-3.98.46-7.96.92-11.94,1.39,3.91-.98,7.73-2.53,11.88-1.74.02.12.04.24.06.36Z" style="fill: #c49c48;"/>
  <path d="M85.45,107.81c-2.22.11-4.82.23-7.24.35,1.71-1.74,5.44-1.36,7.24-.35Z" style="fill: #c49c48;"/>
  <path d="M41.16,107.21c-1.77.08-3.4.15-4.95.22.96-1.11,2.94-1.26,4.95-.22Z" style="fill: #c49c48;"/>
  <path d="M190.37,107.79h7.37c-.81,1.11-4.2,1.18-7.37,0Z" style="fill: #c49c48;"/>
  <path d="M156.26,210.71c.63,2.51,1.25,5.02,1.88,7.53-.24.06-.48.12-.71.18-.65-2.51-1.3-5.01-1.96-7.52l.79-.19Z" style="fill: #c49c48;"/>
  <path d="M154.34,197.94c-.33,1.01-.66,2.02-.98,3.03-.1.01-.2.03-.3.04,0-.75-.14-1.54.05-2.25.12-.45.73-.76,1.12-1.13.04.1.07.2.11.3Z" style="fill: #c49c48;"/>
  <path d="M78.57,221.73c2.39-.18,2.76-.32,3.32-2.77.86-3.78,1.49-7.6,2.11-10.83-.22,3.87-.2,8.39-1.96,12.64-.67,1.62-1.88,1.88-3.47.96Z" style="fill: #c49c48;"/>
  <path d="M84.64,200.79c.22-.71.44-1.41.68-2.19-1.17-.43-2.28-.84-3.39-1.25l.12-.39c1.14.23,2.3.4,3.41.74.26.08.59.76.51,1.03-.25.78-.7,1.49-1.08,2.24-.08-.06-.16-.11-.25-.17Z" style="fill: #c49c48;"/>
  <path d="M189.05,175.92c.1,1.55.28,3.1.27,4.65,0,1.42-.68,1.9-2.01,1.34-1.59-.66-3.1-1.53-4.64-2.31l.18-.41c1.15.47,2.29.94,3.44,1.39,1.93.77,2.22.6,2.33-1.5.06-1.07.01-2.14.01-3.21.14.02.28.03.42.05Z" style="fill: #c49c48;"/>
  <path d="M54.44,179.88c-2.01.78-4.01,1.62-6.06,2.29-.38.12-1.34-.35-1.43-.71-.53-2.03-.37-4.09.19-6.12.14,1.36.24,2.73.44,4.08.24,1.61.58,1.81,2.14,1.38,1.53-.42,3.05-.87,4.57-1.31.05.13.09.26.14.39Z" style="fill: #c49c48;"/>
  <path d="M76.97,129.57c-.82-1.04-1.42-2.48-2.4-2.82-.99-.35-2.37.39-3.49.64.97-.97,2.06-2.16,3.76-1.66,1.86.55,1.66,2.39,2.14,3.84Z" style="fill: #c49c48;"/>
  <path d="M158.79,131.26c.37-1.73.65-3.5,1.19-5.18.14-.42,1.18-.89,1.71-.79,1.37.26,2.68.83,4.01,1.27l-.1.31c-.83-.24-1.66-.53-2.5-.7-1.47-.3-2.18.05-2.71,1.47-.45,1.2-.74,2.46-1.11,3.7-.16-.03-.32-.05-.49-.08Z" style="fill: #c49c48;"/>
  <path d="M158.97,237.95c.67,2.15,1.33,4.29,2,6.44l-.54.17c-.69-2.14-1.39-4.27-2.08-6.41.21-.07.42-.14.63-.2Z" style="fill: #c49c48;"/>
  <path d="M175.03,84.02c-1.09.29-2.17.57-3.26.86-.04-.14-.08-.29-.12-.43,1.09-.32,2.18-.64,3.27-.96.04.18.07.36.11.54Z" style="fill: #c49c48;"/>
  <path d="M178.29,119.7c-.36,1.44-1.01,1.69-3.92,1.26,1.38-.45,2.65-.85,3.92-1.26Z" style="fill: #c49c48;"/>
  <path d="M54.18,118.8c-.62-4.18.22-4.93,4.32-4.05.26.05.51.1.78.39-.66,0-1.31,0-1.97,0-2.01,0-2.52.43-2.87,2.38-.08.43-.17.85-.26,1.28Z" style="fill: #c49c48;"/>
  <path d="M12.4,230.58c1.29-.3,2.58-.58,3.87-.9,2.03-.5,2.39-.96,2.51-3.04.07-1.28.18-2.56.26-3.83.11,0,.22,0,.34.01,0,1.77.1,3.55-.06,5.31-.06.62-.64,1.56-1.17,1.71-1.85.52-3.78.76-5.69,1.11-.02-.13-.05-.25-.07-.38Z" style="fill: #c49c48;"/>
  <path d="M30.45,210.16c.28,1.3-.61,3.37-1.73,3.48-.88.08-1.84-.76-2.67-1.36,3.08.58,3.22.52,4.4-2.12Z" style="fill: #c49c48;"/>
  <path d="M226.05,231.56c-1.69,0-3.39.04-5.08-.01-1.92-.06-2.51-.63-2.48-2.53.02-2.04.18-4.09.28-6.13h.41c0,1.63-.08,3.28.02,4.91.15,2.4.48,2.66,2.89,2.95,1.35.16,2.7.35,4.05.53-.03.09-.06.18-.08.27Z" style="fill: #c49c48;"/>
  <path d="M209.12,210.79c.45,1,.92,2.05,1.43,3.19-.1,0-.62.1-.89-.11-1.1-.88-.68-2.06-.55-3.08Z" style="fill: #c49c48;"/>
  <path d="M69.92,48.79c-.47.02-.94.13-1.4.05-.72-.12-1.94-.23-2.01-.56-.17-.74.23-1.61.67-2.53-.71,2.7,1.35,2.47,2.73,3.03Z" style="fill: #c49c48;"/>
  <path d="M160.71,43.15c-2.11-.39-2.12,1.03-2.24,2.36-.11-.03-.21-.05-.32-.08,0-.91-.24-1.92.11-2.67.16-.34,1.47-.15,2.26-.2l.2.59Z" style="fill: #c49c48;"/>
  <path d="M171.95,44.61c-.57-.68-1.09-1.3-1.55-1.85,1.47-.46,1.78-.16,1.55,1.85Z" style="fill: #c49c48;"/>
  <path d="M151.06,80.77c-.71-.71-.73-1.69-.34-2.58.36-.83,2.17-.8,3.8.02-.92.15-1.88.05-2.46.47-.54.4-.67,1.35-1,2.1Z" style="fill: #c49c48;"/>
  <path d="M81.88,78.34c1.21-.68,2.48-1.07,3.46-.33,1.24.94.66,2.48.6,3.88-.65-2-1.11-4.13-4.06-3.56Z" style="fill: #c49c48;"/>
  <path d="M60.48,210.88c.38,1.55,1.36,2.17,2.92,1.88v.46c-.71.1-1.68.54-2.07.24-.66-.51-.95-1.49-1.4-2.28.18-.1.37-.2.55-.31Z" style="fill: #c49c48;"/>
  <path d="M65.99,82.36c-.83,1.79-2.01,2.7-3.12,2.36-1.11-.34-1.3-1.2-1.2-1.94.65.36,1.39,1.13,2.01,1.03.81-.12,1.52-.92,2.31-1.46Z" style="fill: #c49c48;"/>
  <path d="M130.01,44.96c.45,3.02-.75,4.2-3.64,3.06,2.53.12,3.32-1.2,3.64-3.06Z" style="fill: #c49c48;"/>
  <path d="M78.9,120.25c-1.26.01-1.48-.34-1.44-2.4.5.82.94,1.56,1.44,2.4Z" style="fill: #c49c48;"/>
  <path d="M107.82,56.21c-.14-3.4.02-2.75-2.54-2.96,1.07-.53,2.1-1.16,2.89-.29.92,1.02.21,2.2-.35,3.25Z" style="fill: #c49c48;"/>
  <path d="M152.68,56.74c1.86,0,3.72,0,5.58,0,2.17,0,2.26-.07,2.44-2.17.01-.17.05-.34.08-.51.15,0,.3,0,.44,0,0,.9.26,1.93-.09,2.65-.23.46-1.37.67-2.1.66-2.13,0-4.26-.18-6.39-.28.01-.11.03-.23.04-.34Z" style="fill: #c49c48;"/>
  <path d="M39.72,132.7c.15,1.09.72,2.4-.46,3.44-.79.7-3.06.36-4.17-.59,1.21,0,2.52.38,3.3-.11.74-.47.93-1.82,1.34-2.74Z" style="fill: #c49c48;"/>
  <path d="M46.72,116.22c.76,2.99.27,4.55-1.24,4.39.39-1.39.79-2.8,1.24-4.39Z" style="fill: #c49c48;"/>
  <path d="M104.48,45.42c.88,1.08,1.56,1.93,2.35,2.9-.62-.19-1.53-.2-1.88-.65-.41-.52-.32-1.42-.47-2.26Z" style="fill: #c49c48;"/>
  <path d="M150.87,29.32c1.87-.71.73-2.15.94-3.34.71.84,1.11,1.86.76,2.9-.14.4-1.01.56-1.54.83-.05-.13-.1-.26-.15-.39Z" style="fill: #c49c48;"/>
  <path d="M192.37,120.05c-.4-.1-1.09-.1-1.17-.33-.34-.94-.49-1.94-.71-2.92.11-.02.23-.05.34-.07.47,1.01.94,2.03,1.53,3.31Z" style="fill: #c49c48;"/>
  <path d="M113.08,25.2c.47,1.98-.67,3.6-2.14,3.46.66-1.07,1.41-2.28,2.14-3.46Z" style="fill: #c49c48;"/>
  <path d="M97.76,16.75c-1.92.1-3.84.15-5.75.3-2.2.17-2.41.41-2.84,2.6-.05.24-.09.49-.16.84-1.05-2.5-.1-4.14,2.3-4.15,2.17-.01,4.33,0,6.5,0-.01.14-.03.27-.04.41Z" style="fill: #c49c48;"/>
  <path d="M58.73,72.92c1.12-.57,2.16-1.1,3.14-1.6,0,1.44-.7,1.83-3.14,1.6Z" style="fill: #c49c48;"/>
  <path d="M138.31,57.52c.53-1.41.92-2.47,1.28-3.42.46.56.63,1.96.07,2.65-.29.35-.84.49-1.34.77Z" style="fill: #c49c48;"/>
  <path d="M152.4,16.88c-.84.71-1.45,1.24-2.32,1.98.13-.71.05-1.51.36-1.71.48-.3,1.22-.19,1.96-.27Z" style="fill: #c49c48;"/>
  <path d="M58.73,89.5c-.97.3-1.91.6-2.88.9.45-1.26,1.21-1.49,2.88-.9Z" style="fill: #c49c48;"/>
  <path d="M172.44,101.51c1.04-.39,1.9-.71,2.75-1.03.24,1.23-.36,1.51-2.75,1.03Z" style="fill: #c49c48;"/>
  <path d="M87.83,26.08c.36.96.71,1.92,1.15,3.1-.38-.15-1.07-.23-1.15-.5-.25-.81-.28-1.7-.39-2.56.13-.01.26-.02.39-.04Z" style="fill: #c49c48;"/>
  <path d="M168.79,53.14c-.82.78-1.48,1.42-2.23,2.14.07-.58-.08-1.46.29-1.88.32-.36,1.23-.19,1.94-.26Z" style="fill: #c49c48;"/>
  <path d="M143.07,20.07c-.52-3.91-3.7-2.36-5.79-3.26,1.22,0,2.43-.02,3.64,0,1.9.05,2.62,1.05,2.15,3.26Z" style="fill: #c49c48;"/>
  <path d="M153.95,98.66c-1.09.05-2.12.17-1.88,1.78-.17-.05-.34-.1-.51-.14,0-.62-.19-1.67.04-1.77.67-.3,1.51-.22,2.28-.29.03.14.05.28.08.42Z" style="fill: #c49c48;"/>
  <path d="M69.92,55.54c-.12-1.2-.21-2.42-1.89-2.42l.17-.36c.62.11,1.56.02,1.8.38.4.59.34,1.49.47,2.26-.18.04-.37.09-.55.13Z" style="fill: #c49c48;"/>
  <path d="M182.22,101.32c-.15-.58-.59-1.37-.36-1.68.28-.39,1.11-.39,1.78-.41-.61.6-1.67.84-.82,2.19l-.6-.1Z" style="fill: #c49c48;"/>
  <path d="M82.03,26.34c.74,1.74.35,2.79-1.06,2.94.34-.95.68-1.9,1.06-2.94Z" style="fill: #c49c48;"/>
</svg>