<?xml version="1.0" encoding="UTF-8"?>
<svg id="Ebene_1" xmlns="http://www.w3.org/2000/svg" viewBox="0 0 193.05 193.66">
  <path d="M99.3,193.6c-5.95-.25-14.95-.7-23.7-3.21-5.61-1.6-10.99-3.8-16.11-6.56-7.54-4.08-15.05-8.24-22.42-12.62-9.69-5.76-17.04-13.94-23.16-23.31-6.91-10.56-10.95-22.16-12.89-34.57-1.51-9.66-1.23-19.28.2-28.92.99-6.68,2.23-13.31,4.42-19.71,2.69-7.86,6.74-15.08,11.01-22.17,3.57-5.94,7.5-11.65,12.55-16.43,10.58-10.04,22.82-17.18,37.11-20.62,8.84-2.13,17.71-4.09,26.76-5.08,6.79-.74,13.56-.34,20.33.5,15.2,1.87,28.19,8.64,40.19,17.73,6.81,5.15,13.34,10.6,18.7,17.3,10.64,13.29,17.32,28.34,19.86,45.2,1.97,13.1.65,25.99-2.49,38.76-1.56,6.33-3.45,12.54-5.86,18.6-3.4,8.55-8.73,15.8-14.86,22.55-8.67,9.54-18.35,17.84-29.52,24.33-4.94,2.87-10.38,4.41-15.81,5.98-6.93,2-14.03,2.52-24.28,2.26ZM97.05,160.27c1.77-.21,4.77-.44,7.72-.94,11.38-1.93,21.29-7.09,30.39-14.01,6.5-4.95,11.53-11.01,14.84-18.52,2.99-6.79,4.86-13.89,5.97-21.2.78-5.12,1-10.25.14-15.39-1.6-9.6-4.91-18.61-9.58-27.1-4.94-8.99-11.53-16.48-20.58-21.58-7.36-4.15-15.32-6.5-23.59-7.95-5.82-1.02-11.61-1.26-17.45-.13-9.1,1.76-17.51,5.26-25.42,10.02-7.78,4.68-14.09,10.79-18.45,18.84-4.63,8.53-7.41,17.64-8.82,27.21-.7,4.75-.94,9.46-.08,14.21,1.67,9.15,4.96,17.7,9.43,25.8,4.64,8.4,10.86,15.32,19.16,20.26,5.87,3.49,12.16,5.98,18.73,7.79,5.35,1.48,10.77,2.59,17.58,2.7ZM90.12,29.22c.02.07.04.14.06.2,2.55-.24,5.12-.34,7.63-.77,1.89-.32,3.77-.92,5.55-1.67,2.12-.89,3.24-2.71,3.67-4.96.66-3.44-.16-6.55-1.96-9.49-.89-1.46-1.92-2.49-3.81-2.18-.41.07-.85-.08-1.28-.08-1.74-.01-3.47,0-5.24,0,.86,1.65,1.75,3.24,2.52,4.88,1.22,2.62,1.58,5.28.14,7.98-1.05,1.97-2.66,3.33-4.52,4.46-.92.56-1.84,1.09-2.77,1.64ZM159.47,87.56c-.08.02-.17.05-.25.07.71,2.62,1.39,5.26,2.14,7.87.81,2.85,2.72,4.88,5.13,6.46,1.74,1.14,3.7,1.68,5.69,1.03,3.06-1,6.06-2.21,9.06-3.39.26-.1.48-.68.47-1.03-.07-2.15-.21-4.29-.33-6.43-.02-.44-.08-.87-.12-1.3-1.49.84-2.77,1.79-4.21,2.32-2.21.82-4.5,1.64-6.82,1.94-3.85.51-6.43-1.87-8.67-4.61-.76-.93-1.39-1.95-2.08-2.94ZM110.11,11.27c.53,2.19.96,4.17,1.48,6.11,1.63,6.07-1.97,11.03-7.27,12.02-1,.19-1.97.51-2.95.77,1.28.11,2.52.15,3.76.1,2.64-.11,5.31-.09,7.92-.47,3.55-.51,5.97-2.47,6.73-6.18.69-3.37-.04-6.58-.94-9.78-.07-.26-.47-.52-.77-.59-2.59-.67-5.2-1.3-7.96-1.98ZM78.81,31.34s.04.09.07.13c.95-.32,1.9-.61,2.84-.95,2.48-.91,5.01-1.73,7.41-2.81,3.18-1.43,4.75-4.58,4.33-8.03-.31-2.59-1.49-4.77-2.9-6.92-1.19-1.81-2.49-2.74-4.76-2.16-1.61.42-3.32.48-5.14.73,1.84,2.52,3.26,4.99,4.15,7.78,1.54,4.85-.64,8.33-3.56,10.48-.8.59-1.62,1.16-2.43,1.75ZM181.85,103.03c-.79.86-1.28,1.45-1.84,1.99-3.29,3.15-7.05,5.09-11.78,4.62-1.49-.15-2.66-.77-3.35-2.04-1.02-1.87-1.94-3.8-2.79-5.76-.65-1.48-1.13-3.02-1.68-4.54-.21.16-.25.3-.24.43.18,2.76.31,5.53.57,8.29.26,2.7,1.01,5.28,2.56,7.56,1.52,2.24,3.6,3.19,6.33,2.87,3.58-.43,6.8-1.94,10.09-3.22.25-.1.54-.4.58-.65.53-3.07,1.01-6.14,1.56-9.54ZM138.69,22.21c-.18,2.63-.29,5.04-.54,7.43-.47,4.49-2.99,6.85-7.42,6.99-1.48.04-2.96-.06-4.44-.14-1.25-.07-2.5-.2-3.75-.3,1.14.66,2.32,1.16,3.52,1.59,2.86,1.01,5.69,2.14,8.61,2.92,2.09.56,4.45.58,6.12-1.02,3.67-3.53,5.17-7.89,4.13-12.98-.04-.22-.16-.48-.33-.6-1.93-1.29-3.87-2.56-5.91-3.89ZM111.04,32.15c.21.12.29.21.39.22,2.54.4,5.08.84,7.63,1.18,2.4.32,4.78.55,7.19-.15,6.51-1.89,7.85-10.08,5.17-14.7-.11-.19-.28-.41-.47-.5-2.14-.97-4.28-1.92-6.4-2.86.18,2.6.51,5.05.5,7.49-.04,5.42-2.79,8.35-8.21,8.91-1.88.2-3.77.27-5.79.41ZM160.45,41.01c-.2.46-.32.77-.47,1.08-1.1,2.28-2.05,4.64-3.33,6.81-1.93,3.29-4.98,4.56-8.55,3.72-1.39-.33-2.74-.85-4.08-1.36-.93-.35-1.8-.83-2.7-1.25,1.08,1.18,2.19,2.29,3.47,3.14,2.32,1.55,4.63,3.21,7.16,4.34,3.98,1.77,6.88.79,9.53-2.66,1.69-2.2,2.64-4.75,3.44-7.37.07-.23.09-.59-.04-.75-1.43-1.88-2.89-3.73-4.43-5.7ZM148.92,163.21c-.54-.25-.88-.39-1.22-.56-2.21-1.07-4.46-2.07-6.61-3.24-2.3-1.25-3.42-3.49-2.75-6.01.63-2.39,1.68-4.67,2.55-6.99.1-.26.2-.51.3-.77-1.7,1.28-3.27,2.63-4.74,4.08-.97.96-1.84,2.02-2.68,3.09-1,1.28-1.63,2.72-1.71,4.39-.15,3.27,1.53,5.51,3.92,7.44,2,1.61,4.52,1.84,6.79,2.73.17.07.47-.03.64-.15,1.79-1.29,3.57-2.6,5.5-4.01ZM153.58,68.27c1.07,2.43,4.88,7.93,7.23,10.3,2.98,3.01,5.44,3.36,9.16,1.35,3.06-1.66,5.38-4.1,7.36-6.9.16-.23.28-.61.2-.85-.7-2.17-1.45-4.32-2.23-6.62-1.27,1.69-2.31,3.29-3.58,4.69-1.09,1.2-2.35,2.29-3.68,3.22-2.28,1.58-4.82,1.79-7.15.26-2.62-1.72-5.04-3.74-7.31-5.44ZM179.3,78.46c-2.76,1.95-5.36,3.8-7.97,5.64-1.71,1.21-3.58,1.39-5.58.87-3.05-.78-5.43-2.47-7.17-5.08-.48-.72-.99-1.41-1.49-2.11,1.38,3.57,2.37,7.35,5.2,10.09,1.29,1.26,2.75,2.52,4.38,3.22,3.13,1.36,6.18.8,8.82-1.44,1.55-1.31,3.06-2.67,4.55-4.04.25-.23.56-.64.51-.91-.37-2.1-.83-4.18-1.25-6.24ZM68.64,15.24c1.62,2.09,3.19,4.08,4.71,6.1.81,1.07,1.05,2.32.87,3.66-.42,3.18-2,5.78-3.98,8.19-.47.57-.97,1.13-1.45,1.69.1.12.2.24.29.36,3.38-2.33,6.92-4.46,10.11-7.03,3.38-2.73,3.39-8.25.34-11.39-1.17-1.2-2.39-2.35-3.62-3.49-.22-.21-.65-.43-.88-.35-2.16.73-4.31,1.52-6.4,2.27ZM148.97,58.87l-.17.23c.88,1.09,1.69,2.25,2.67,3.24,1.69,1.72,3.41,3.44,5.27,4.98,2.99,2.48,6.64,2.49,9.76.16,2.74-2.04,4.44-4.88,5.88-7.89.1-.21.1-.56-.01-.75-1.11-1.94-2.26-3.87-3.51-5.98-.33.63-.52,1.09-.79,1.5-1.21,1.86-2.28,3.83-3.69,5.53-3.39,4.09-6.5,4.57-11.1,1.93-.91-.52-1.76-1.15-2.63-1.74-.57-.39-1.12-.8-1.68-1.2ZM150.72,31.01c-1.11,3-2.18,5.87-3.24,8.75-.88,2.39-2.69,3.63-5.09,4.17-1.96.44-3.87.35-5.74-.38-1-.39-1.99-.81-2.98-1.22,3.21,2.47,6.42,4.97,10.35,6.14,1.29.38,2.82.45,4.12.16,3.17-.71,4.84-3.19,5.82-6.03.74-2.12,1.06-4.38,1.52-6.58.05-.24-.12-.61-.31-.79-1.45-1.41-2.93-2.79-4.45-4.21ZM178.77,119.34l-.22-.19c-.69.35-1.35.78-2.07,1.05-2.36.89-4.69,1.94-7.12,2.55-3.69.92-6.18-.14-7.84-3.03-.51-.89-.85-1.93-1.06-2.95-.5-2.47-.87-4.97-1.29-7.46-.36,3.84-.59,7.67-.73,11.51-.08,2.17.72,4.03,2.3,5.56,2.37,2.3,5.2,3.14,8.38,2.43,2.2-.49,4.33-1.25,6.48-1.93.29-.09.66-.35.76-.62.84-2.29,1.62-4.61,2.42-6.92ZM173.53,132.42c-.6.12-.93.17-1.26.25-1.55.38-3.09.8-4.65,1.13-4.91,1.03-7.73-.48-9.61-5.12-.15-.36-.32-.72-.39-1.1-.42-2.24-.82-4.48-1.17-6.37-.68,1.49-2.13,8.62-2.08,10.72.08,3.63,1.89,6.2,5.3,7.5,3.27,1.25,6.51.83,9.73-.19.2-.06.42-.25.52-.43,1.17-2.05,2.32-4.12,3.6-6.41ZM111.93,180.75c-1.18-1.07-2.2-1.92-3.13-2.86-3.03-3.07-3.45-7.51-.88-10.97,1.15-1.55,2.65-2.84,4.05-4.19.7-.68,1.53-1.24,2.3-1.85-3.24,1.09-6.44,2.19-9.48,3.64-5.15,2.47-6.73,7.73-3.93,12.7.76,1.35,1.82,2.53,2.69,3.81.4.59.88.79,1.58.69,2.19-.33,4.38-.63,6.79-.97ZM29.44,85.76c.14,0,.28,0,.42,0,0-2.45.03-4.91,0-7.36-.05-3.03-1.3-5.58-3.29-7.79-1-1.12-2.3-1.84-3.79-1.86-2.45-.04-4.9.1-7.34.2-.23,0-.59.27-.65.48-.64,2.35-1.23,4.72-1.89,7.27,2.95-1.02,5.75-1.36,8.66-.97,2.42.32,4.28,1.41,5.49,3.5.58,1,1.04,2.09,1.44,3.18.39,1.08.63,2.22.94,3.34ZM124.91,155.95c-3.87,2.31-7.53,4.86-10.71,8.02-.67.66-1.2,1.56-1.52,2.44-1.44,4-.61,7.07,2.6,9.87.67.59,1.49,1.02,2.11,1.66,1.19,1.21,2.4,1.2,3.86.53,1.5-.69,3.08-1.18,4.9-1.86-.88-.62-1.53-1.04-2.12-1.51-1.6-1.29-3.36-2.45-4.73-3.96-1.85-2.03-2.28-4.62-1.06-7.08.92-1.85,2.32-3.48,3.63-5.1.89-1.1,2.02-2.01,3.04-3ZM138.2,170.91c-.65-.39-1.09-.64-1.51-.91-2.02-1.32-4.1-2.58-6.04-4-2.29-1.68-3.3-3.97-2.81-6.85.35-2.02,1.35-3.72,2.51-5.35.57-.8,1.18-1.59,1.77-2.38-1.71,1.21-3.27,2.55-4.68,4.02-1.16,1.21-2.2,2.54-3.19,3.89-2.84,3.88-1.62,9.32,2.73,12.1,1.44.92,2.97,1.69,4.48,2.48.22.11.61.02.87-.1,1.89-.91,3.76-1.85,5.88-2.9ZM40.1,132.68c-2.31-3.18-4.43-6.53-7.9-8.58-3.25-1.93-6.27-1.4-8.83,1.39-.24.26-.5.51-.67.81-1.07,1.81-2.12,3.63-3.15,5.46-.11.19-.13.54-.02.74,1.03,1.96,2.09,3.9,3.14,5.85,1.26-2,2.39-4,3.71-5.87,3.01-4.23,6.56-4.84,10.88-1.94.98.66,1.89,1.43,2.83,2.14ZM46.21,141.78c.05-.05.1-.1.14-.16-1.5-1.61-2.94-3.28-4.52-4.81-1.06-1.02-2.23-1.96-3.49-2.72-3.13-1.9-5.65-1.38-8.11,1.32-2.23,2.45-2.9,5.54-3.81,8.55-.04.13-.02.34.06.44,1.12,1.46,2.25,2.91,3.31,4.27,1.45-2.48,2.74-4.88,4.24-7.15.57-.86,1.54-1.57,2.48-2.02,2.48-1.2,4.92-.86,7.22.61.83.54,1.65,1.11,2.47,1.67ZM52.79,43.57c.04.08.08.17.13.25,2.23-2.32,4.59-4.53,6.66-6.99,1.61-1.91,1.91-4.31,1.27-6.76-.88-3.36-4.66-6.52-8.15-6.81-.23-.02-.5-.05-.68.05-1.94,1.12-3.86,2.28-5.93,3.51,1.74.67,3.29,1.16,4.76,1.84,3.86,1.81,5.16,4.3,4.17,8.43-.53,2.21-1.47,4.32-2.23,6.47ZM54.54,149.25s.07-.08.1-.12c-2.75-1.88-5.45-3.83-8.26-5.61-1.02-.65-2.28-.99-3.48-1.29-1.61-.39-3.08,0-4.3,1.2-1.58,1.56-2.78,3.36-3.53,5.45-1.44,4.02.35,7.95,4.18,9.55.55-2.43.99-4.93,1.7-7.35.67-2.26,2.25-3.75,4.71-3.95.95-.08,1.96.04,2.89.29,2.01.53,3.99,1.21,5.98,1.83ZM148.42,137.59c-.11-.06-.22-.11-.33-.17-2.04,3.75-4.25,7.42-6.05,11.28-1.07,2.29-.5,4.61,1.4,6.54,2.76,2.8,6.17,3.79,9.95,3.9.18,0,.41-.05.54-.17,1.48-1.35,2.95-2.71,4.55-4.19-.49-.12-.75-.17-1.01-.25-2.53-.73-5.13-1.29-7.57-2.26-2.98-1.18-4.89-5.46-3.62-8.56.82-2,1.43-4.08,2.13-6.13ZM64.43,154.8l.11-.18c-3.36-1.19-6.68-2.49-10.09-3.53-1.09-.33-2.43-.21-3.57.07-4.27,1.06-6.72,5.38-5.89,10.18.15.87.18,2.01.73,2.5,1.55,1.38,3.35,2.49,5.25,3.84,0-2.25-.16-4.24.05-6.2.16-1.43.6-2.92,1.28-4.2,1.18-2.24,3.41-2.93,5.76-2.94,2.12-.01,4.25.29,6.37.45ZM29.48,104.98c-.53-2.03-.91-3.86-1.51-5.62-.76-2.24-1.55-4.5-2.59-6.62-1.22-2.51-3.39-3.52-6.2-3.17-2.99.37-5.39,1.95-7.74,3.65-.16.11-.27.4-.27.6-.02,2.21-.01,4.41-.01,6.87.58-.43.93-.72,1.31-.96,1.62-1,3.19-2.11,4.89-2.95,1.99-.98,4.09-.84,5.89.47,1.25.9,2.41,2,3.37,3.2,1.06,1.33,1.83,2.88,2.85,4.54ZM104.48,162.95c-4.71.37-9,1.92-13.12,4.01-.51.26-.99.64-1.38,1.06-3.13,3.4-3.35,9.48-.48,13.11.18.22.48.47.74.49,2.55.17,5.1.29,7.92.44-.53-.7-.94-1.12-1.21-1.62-1-1.88-2.21-3.7-2.87-5.7-1.19-3.58.02-6.47,3.28-8.36,1.92-1.1,3.98-1.96,5.98-2.92.38-.18.76-.34,1.15-.51ZM57.59,20.14c.64.59,1.1,1,1.56,1.42,1.21,1.1,2.51,2.12,3.62,3.32.63.68,1.13,1.6,1.37,2.49,1.03,3.81-.48,7.02-2.58,10.06-.31.45-.64.9-.96,1.35,1.74-1.03,3.35-2.16,4.76-3.49,1.29-1.22,2.52-2.57,3.52-4.04,1.9-2.8,2.06-5.87.16-8.67-1.27-1.87-3.05-3.39-4.64-5.04-.15-.16-.59-.19-.82-.09-1.92.84-3.83,1.72-5.99,2.7ZM30.48,113.02c-1.17-3.63-2.11-7.39-4.89-10.19-1.82-1.84-4.09-2.76-6.71-2.2-3.3.71-5.61,2.74-7.15,5.7-.08.16-.14.38-.11.55.41,2.12.84,4.23,1.31,6.56.41-.45.64-.76.91-1.01,1.4-1.3,2.69-2.73,4.23-3.85,3.78-2.75,6.22-2.69,10.31,1.42.62.62,1.02,1.46,1.53,2.2.19.27.38.54.57.81ZM95.11,163.19c-1.39.1-2.52.12-3.64.27-3.2.43-6.41.79-9.57,1.43-2.86.57-4.57,2.51-5.2,5.37-.55,2.53.07,4.93.67,7.36.35,1.43.97,2.18,2.46,2.41,1.85.29,3.66.8,5.44,1.21-.78-2.18-1.67-4.23-2.22-6.36-1.22-4.64.32-7.61,4.8-9.35,2.27-.88,4.64-1.51,7.26-2.34ZM28.71,94.71c.06,0,.12-.02.18-.02-.22-1.93-.44-3.86-.67-5.79-.33-2.75-1.04-5.35-2.84-7.54-2.2-2.67-5.53-3.42-8.62-1.9-1.33.65-2.66,1.29-3.97,1.97-.3.16-.68.48-.71.76-.25,1.96-.42,3.93-.62,5.83,2.58-.85,5.06-1.75,7.6-2.45.88-.24,1.98-.2,2.84.11,2.9,1.05,4.96,3.01,5.88,6.04.3,1,.62,1.99.93,2.99ZM20.84,54.78c.68-.09,1.1-.17,1.52-.2,2.13-.14,4.27-.48,6.39-.36,3.7.21,4.74,1.24,5.53,4.82.03.15.07.31.07.46,0,2.67,0,5.35,0,8.14,1.02-3.13,2.1-6.16,2.96-9.26.36-1.28.36-2.71.28-4.05-.18-3.11-2.05-5.21-5.13-5.53-2.35-.24-4.74-.15-7.12-.15-.31,0-.73.29-.92.57-1.17,1.74-2.29,3.51-3.6,5.54ZM34.2,122.89c-1.53-3.27-3.03-6.32-5.47-8.8-2.55-2.58-4.7-2.86-7.89-1.13-2.62,1.42-4.39,3.7-6.14,6-.1.14-.19.38-.14.53.67,2.08,1.37,4.15,2.15,6.5.4-.65.57-1.04.84-1.35,1.58-1.81,3-3.83,4.83-5.34,2.92-2.42,5.28-2.25,8.2.15,1.22,1.01,2.31,2.18,3.62,3.43ZM35.8,35.13c3.26.39,6.09,1.19,8.62,2.84,2.16,1.41,3.22,3.44,2.81,5.98-.28,1.71-.95,3.35-1.46,5.02-.11.36-.28.7-.42,1.05.12.06.24.12.35.18,1.89-2.99,3.78-5.98,5.65-8.99.2-.32.31-.73.34-1.1.22-3.01-.72-5.6-3.44-7.02-2.07-1.08-4.41-1.66-6.64-2.44-.21-.07-.57,0-.74.15-1.63,1.37-3.24,2.77-5.06,4.33ZM27.62,44.52c.04.12.08.23.13.35,2.93-1.04,5.59-.13,8.31.84,2.2.78,3.42,2.26,3.79,4.46.2,1.22.32,2.5.17,3.71-.22,1.78-.71,3.53-1.14,5.6,2-3.94,3.77-7.68,4.56-11.76.61-3.13-.7-5.63-3.46-7.14-2.27-1.24-4.73-1.49-7.25-1.38-.21,0-.47.11-.61.27-1.51,1.67-3,3.37-4.49,5.05ZM152.69,130.04c-1.4,3.18-2.6,6.56-2.72,10.2-.11,3.56,1.25,6.35,4.45,8.16,2.26,1.27,4.72,1.78,7.24,2.14.24.03.61-.02.74-.18,1.44-1.85,2.85-3.72,4.44-5.83-1.03,0-1.65.03-2.26,0-2.26-.13-4.51-.27-6.77-.42-2.65-.18-4.04-1.77-4.66-4.2-.17-.68-.42-1.36-.44-2.05-.05-2.64-.02-5.28-.02-7.8ZM72.97,177.84c-.54-1.8-1.1-3.38-1.47-5.01-1.1-4.84.96-8.16,5.75-9.43.3-.08.6-.15.91-.21,1.9-.37,3.8-.73,5.94-1.13-3.94-.16-7.64-.37-11.33-.42-1.1-.01-2.24.32-3.3.68-1.72.58-2.97,1.76-3.47,3.54-.86,3.09-.9,6.16.61,9.11.13.26.34.57.58.67,1.87.75,3.76,1.45,5.78,2.22ZM74.01,159.39c-.78-.27-1.24-.48-1.72-.59-2.66-.59-5.3-1.28-7.98-1.72-4.21-.69-7.28,1.34-8.03,5.52-.43,2.43-.27,4.96-.34,7.45,0,.22.18.54.37.66,1.76,1.05,3.54,2.07,5.41,3.16,0-.65,0-1.15,0-1.65.02-2.38-.06-4.76.08-7.13.24-4.15,2.47-6.23,6.64-6.19,1.74.02,3.48.29,5.58.48ZM15.61,65.81c1.77-.64,3.4-1.56,5.12-1.81,6.05-.86,8.8.7,9.63,6.33,0,.04,0,.08.01.12.26,2.05.52,4.11.78,6.16.34-1.09.58-2.19.75-3.29.4-2.61,1.04-5.2.58-7.89-.59-3.53-2.19-5.66-5.31-6.15-2.6-.41-5.27-.32-7.91-.41-.24,0-.61.22-.71.44-1.01,2.17-1.98,4.36-2.95,6.51Z"/>
  <path d="M98.26,155.23c-14.01-.37-25.66-3.95-36.46-10.35-5.58-3.31-9.69-8.19-13.38-13.43-5.24-7.44-9.16-15.46-11.12-24.41-1.6-7.29-1.31-14.52.47-21.68,1.2-4.83,2.28-9.8,4.35-14.27,7.25-15.67,19.28-25.99,35.84-31.21,10.6-3.34,20.99-2.65,31.43.38,5.67,1.64,11.22,3.56,16.21,6.83,5.38,3.53,9.49,8.31,13.23,13.45,5.66,7.76,9.76,16.2,11.66,25.67,1.46,7.28,1.15,14.52-.24,21.75-1.22,6.37-2.72,12.64-5.97,18.37-8.48,14.96-21.2,24.16-37.89,27.92-3.09.7-6.33.78-8.13.98ZM93.83,142.32c25.45.03,45.66-20.27,45.72-45.93.06-26.24-20.24-46.99-46.04-47.05-25.72-.06-46,20.33-46.02,46.29-.02,26.22,20.25,46.65,46.34,46.69Z"/>
  <path d="M58.01,95.82c.22-15.09,8.91-28.13,22.46-33.24,20.18-7.61,42.86,3.58,47.56,26.05,3.86,18.46-6.5,36.25-24.14,41.62-20.22,6.16-41.38-6.65-45.1-27.34-.42-2.33-.53-4.72-.78-7.08ZM93.16,70.83c-14.22,0-25.74,11.54-25.74,25.77,0,14.37,11.7,26.06,26.08,26.06,14.55,0,25.96-11.33,25.94-25.75-.02-14.53-11.67-26.08-26.28-26.08Z"/>
  <path d="M73.67,96.83c-.27-10.8,9.05-19.04,19.28-19.12,10.97-.09,19.35,8.35,19.4,19.45.05,10.7-8.24,18.88-19.2,18.89-10.66,0-19.7-8.2-19.49-19.22ZM105.17,97.47c.03-6.85-5.8-12.72-12.65-12.75-6.57-.03-12.01,5.24-12.04,11.66-.04,6.7,6.22,12.9,13.04,12.9,6.55,0,11.63-5.15,11.66-11.82Z"/>
  <path d="M93,104.47c-4.07.08-8.14-3.76-8.22-7.74-.08-3.99,3.42-7.52,7.52-7.58,4.28-.06,7.98,3.49,8.09,7.76.1,4.22-3.08,7.48-7.38,7.56ZM92.92,101.61c2.93,0,4.73-1.69,4.73-4.44,0-2.88-2.3-5.19-5.19-5.19-2.92,0-4.95,1.83-4.95,4.45,0,2.78,2.51,5.18,5.4,5.18Z"/>
</svg>