<?xml version="1.0" encoding="UTF-8"?>
<svg id="Ebene_1" xmlns="http://www.w3.org/2000/svg" viewBox="0 0 212.03 211.25">
  <path d="M105.2,202.38c-55.06.22-96.36-46.87-96.12-96.55.24-49.31,39.42-97.38,97.7-96.96,54.56.4,95.79,44.95,95.96,96.97.17,51.52-41.68,96.52-97.53,96.54ZM31.75,158.67c-.27,2.13-.54,4.26-.85,6.7,1.61-1.2,2.97-2.21,4.31-3.24.17-.13.3-.43.28-.64-.12-1.26-.28-2.51-.44-3.85-1.2.39-2.26.73-3.32,1.07.7-.69,1.39-1.38,2.29-2.26-.71-.68-1.37-1.31-1.92-1.84.88.34,1.88.73,2.88,1.12.07-.15.09-.18.09-.22.02-.21,0-.43.07-.63.59-2.02,0-3.54-1.77-4.7-.86-.56-1.57-1.34-2.53-2.19.11,1.78.14,3.25.32,4.69.1.83-.07,1.28-.88,1.64-1.58.69-3.1,1.51-4.78,2.33,1.89.71,3.61,1.37,5.34,1.99.27.1.61.03.91.04ZM180.57,159.41c1.85-.84,3.71-1.67,5.74-2.59-1.43-.57-2.62-1.02-3.79-1.51-2.16-.9-2.14-.9-1.89-3.2.14-1.31.21-2.63.34-4.25-1.51,1.22-2.79,2.23-4.05,3.27-.18.15-.39.41-.37.61.09,1.4.23,2.79.37,4.3.94-.35,1.7-.63,2.47-.92.02.05.05.1.07.15-.53.6-1.06,1.19-1.61,1.81.99.84,1.88,1.61,2.76,2.36-1.16-.47-2.33-.94-3.68-1.49-.09,1.26-.19,2.28-.22,3.3-.01.29.05.71.25.86,1.32,1.06,2.68,2.06,4.22,3.23-.22-2.16-.41-4.04-.6-5.93ZM105.67,153.77c26.74.08,48.8-22.02,48.87-48.96.07-26.43-21.67-48.22-48.18-48.3-26.98-.08-49.1,21.62-49.14,48.22-.05,26.72,21.92,48.95,48.45,49.04ZM36.56,77.74c-6.53,18.49-6.8,36.7.1,55.09,5.92-2.98,11.63-5.85,17.34-8.73-4.93-13.02-4.97-25.92-.21-38.96-5.73-2.46-11.39-4.89-17.23-7.4ZM75.15,173.33c.35.17.6.3.85.4,7.41,3.07,15.16,4.65,23.13,5.07,10.35.55,20.54-.68,30.55-3.38,1.63-.44,3.25-.95,4.95-1.45-2.49-5.98-4.91-11.81-7.3-17.56-14.76,5.35-29.28,5.31-43.85-.33-2.78,5.76-5.55,11.48-8.33,17.25ZM135.52,36.33c-9.77-3.31-19.64-4.78-29.76-4.55-10.12.23-19.97,2-29.68,5.23,2.62,5.73,5.18,11.3,7.74,16.88,14.66-5.79,29.17-5.82,43.86-.27,2.61-5.75,5.19-11.43,7.85-17.29ZM172.42,71.88c-3.57-9.42-20.66-27.46-30.87-32.61-3.32,5.33-6.65,10.67-9.99,16.05,10.98,6.15,19.31,14.75,24.9,26.04,5.4-3.21,10.69-6.35,15.96-9.48ZM175.55,132.59c6.45-18.45,6.16-36.65-.59-54.89-5.75,2.49-11.36,4.91-17.02,7.36,2.35,6.32,3.64,12.74,3.63,19.4,0,6.69-1.31,13.13-3.7,19.46,5.89,2.89,11.73,5.75,17.68,8.67ZM173.11,137.89c-5.77-3.25-11.39-6.42-17.03-9.59-6.14,10.8-14.1,19.68-24.76,26.17,2.81,5.5,5.64,11.06,8.54,16.73,14.16-8.08,25.12-19.16,33.25-33.31ZM55.95,128.61c-5.57,3.24-11.1,6.46-16.61,9.67,3.91,9.84,23.56,30.31,30.9,32.21,3.13-5.48,6.26-10.96,9.43-16.51-5.29-2.85-9.68-6.66-13.6-11.05-3.91-4.37-7.16-9.2-10.12-14.32ZM55.18,81.41c5.93-10.88,14.04-19.55,24.72-25.96-3.24-5.43-6.49-10.87-9.75-16.34-13,8.5-23.38,19.24-31.03,32.66,5.41,3.25,10.74,6.45,16.07,9.65ZM105.31,181.47c-5.54-.04-9.67,3.95-9.71,9.35-.03,5.24,4.17,9.32,9.61,9.35,5.15.02,9.15-3.69,9.21-8.56.07-5.82-3.79-10.1-9.11-10.14ZM106.04,10.88c-5.25-.08-9.23,3.74-9.31,8.92-.08,5.09,3.88,9.07,9.1,9.16,5.41.09,9.49-3.81,9.6-9.16.1-5.11-3.82-8.83-9.39-8.91ZM149.45,191.31c.12-.02.25-.05.37-.07.23-1.89.47-3.78.71-5.74,1.76-.42,3.56-.85,5.62-1.35-1.65-.69-3.01-1.29-4.4-1.82-.62-.23-.8-.5-.63-1.18.37-1.45.61-2.94.95-4.63-1.56.95-2.91,1.77-4.33,2.64-1.14-1.72-2.24-3.38-3.4-5.13,0,1.69-.05,3.21.02,4.72.04.74-.2,1.09-.87,1.33-1.32.47-2.62,1.01-4.05,1.57.69.59,1.2,1.18,1.83,1.54,1.46.82,1.69,1.81,1.08,3.37-.57,1.45-.72,3.05-1.06,4.59.13.08.26.15.38.23,1.33-1.18,2.65-2.36,4-3.56,1.27,1.18,2.52,2.34,3.76,3.49ZM72.12,29.53c-.51-.47-.85-.91-1.3-1.16-1.9-1.09-2.29-2.52-1.41-4.55.48-1.12.51-2.44.74-3.66-.11-.06-.23-.11-.34-.17-1.32,1.2-2.65,2.4-3.97,3.61-1.25-1.14-2.47-2.25-3.94-3.59-.25,1.89-.53,3.42-.63,4.96-.05.82-.38,1.09-1.11,1.23-1.54.32-3.07.71-4.84,1.12,1.61.62,2.99,1.17,4.38,1.69.65.24.95.52.74,1.32-.37,1.41-.57,2.86-.89,4.53,1.55-.97,2.86-1.78,4.23-2.63.98,1.7,1.91,3.31,2.99,5.18.14-1.92.29-3.54.36-5.17.02-.6.25-.85.8-1.05,1.33-.48,2.64-1.03,4.19-1.65ZM67.38,174.25c-1.23,1.84-2.28,3.43-3.34,5.03-1.46-.88-2.85-1.71-4.42-2.66.36,1.5.6,2.79,1.01,4.03.28.86-.03,1.12-.76,1.35-1.25.39-2.49.86-3.72,1.3-.36.13-.7.31-1.19.54,1.75.53,3.27,1.06,4.82,1.42,1.09.26,1.58.77,1.67,1.92.11,1.38.45,2.74.74,4.4,1.08-1.49,1.96-2.71,2.79-3.86,1.77,1.06,3.4,2.03,5.03,3.01.06-.06.12-.12.17-.18-.98-1.78-1.97-3.56-2.94-5.32,1.62-1.17,3.16-2.29,4.9-3.55-1.98-.4-3.68-.73-5.48-1.09.23-2.06.46-4.03.72-6.34ZM139.75,29.68c1.78.34,3.3.68,4.83.9.74.1.94.41.93,1.11-.03,1.71-.01,3.42-.01,5.14.12,0,.24,0,.36.01.75-1.55,1.51-3.1,2.27-4.68,1.41.85,2.74,1.65,4.29,2.59-.46-1.83-.85-3.4-1.25-4.99,1.93-.69,3.77-1.35,5.9-2.11-2.03-.66-3.7-1.22-5.39-1.74-.56-.17-.86-.4-.95-1.06-.21-1.59-.55-3.15-.88-4.98-1.09,1.5-1.99,2.75-2.85,3.94-1.77-1.09-3.4-2.1-5.03-3.1l-.19.24c.93,1.75,1.87,3.5,2.82,5.28-1.58,1.13-3.13,2.23-4.85,3.47ZM190.81,108.15c-.24,2.12-.47,4.17-.7,6.22,1.43-1.21,2.67-2.47,3.81-3.82.5-.59.87-.59,1.52-.29,1.56.72,3.18,1.33,4.77,1.98.06-.08.13-.16.19-.25-.81-1.44-1.52-2.94-2.47-4.29-.76-1.08-.75-1.91-.04-3.01.92-1.44,1.62-3.02,2.41-4.54-.08-.06-.16-.13-.24-.19-1.9.83-3.8,1.67-5.69,2.5-1.41-1.54-2.8-3.06-4.38-4.79.28,2.31.51,4.28.75,6.27-2.29.72-4.5,1.42-6.7,2.11.02.06.04.13.06.19,2.19.62,4.37,1.24,6.69,1.89ZM27.93,106.15c-2.18-.71-4.05-1.36-5.95-1.92-.68-.2-.9-.5-.81-1.2.23-1.7.39-3.4.61-5.34-1.59,1.69-3.02,3.22-4.41,4.7-1.95-.86-3.82-1.68-5.68-2.5-.08.08-.15.15-.23.23.96,1.76,1.88,3.54,2.89,5.27.33.56.36.93,0,1.5-1.03,1.67-1.98,3.4-2.96,5.11.07.07.15.15.22.22,1.54-.62,3.1-1.18,4.59-1.89.79-.38,1.24-.4,1.85.34,1.09,1.33,2.33,2.54,3.7,4-.28-2.34-.53-4.4-.78-6.53,2.26-.64,4.43-1.26,6.94-1.98ZM156.61,172.01c-1.59,2.15-2.63,4.72-3.24,7.47.09.09.18.17.27.26,1.96-1.66,3.92-3.32,5.92-5.01,1.53,1.78,3.43,3.24,5.89,4.16-.54-2.77-1.89-4.96-3.48-7.09,1.72-1.84,2.94-3.92,3.68-6.27-.08-.1-.16-.2-.23-.3-2.08,1.23-4.17,2.47-6.16,3.65-1.94-1.04-3.92-2.1-5.89-3.16-.07.1-.14.19-.21.29.11.29.18.6.34.86,1,1.67,2.01,3.33,3.12,5.16ZM58.55,166.26c-.13-.16-.26-.31-.38-.47-2.02,1.05-4.04,2.1-6.11,3.17-1.78-1.45-3.69-2.88-6.3-3.63.63,1.32,1.07,2.45,1.68,3.48.63,1.06,1.42,2.02,2.17,3.06-1.67,2.02-2.9,4.27-3.38,6.88.1.1.2.2.3.31,1.91-1.42,3.83-2.84,5.65-4.2,1.84,1.55,3.79,3.2,5.74,4.86.16-.12.33-.25.49-.37-1.13-2.57-2.26-5.14-3.33-7.59,1.14-1.8,2.3-3.65,3.47-5.5ZM52.37,36.68c-3.18-2.91-4.63-3.88-6.17-4.1.6,2.6,1.83,4.84,3.58,6.8-1.79,1.9-2.96,4-3.7,6.34.08.1.16.2.24.29,2.03-1.26,4.06-2.51,6.01-3.72,1.94,1.06,3.91,2.13,5.89,3.19.13-.13.25-.26.38-.39-1.16-1.93-2.32-3.85-3.53-5.87,1.62-2.07,2.65-4.57,3.36-7.38-2.5,1.18-4.36,2.91-6.06,4.83ZM159.59,36.67c-1.74-1.98-3.68-3.62-6.01-4.75-.11.07-.23.15-.34.22,1.12,2.43,2.23,4.85,3.35,7.28-1.11,1.81-2.32,3.77-3.53,5.74.11.1.21.2.32.3,1.04-.5,2.1-.96,3.11-1.51,1.02-.56,1.98-1.21,2.92-1.79,1.03.74,1.98,1.51,3.01,2.13,1.01.61,2.1,1.07,3.16,1.6.11-.11.22-.22.33-.33-1.21-2.1-2.42-4.21-3.69-6.41,1.57-1.82,2.79-4.02,3.38-6.71-2.46.88-4.3,2.39-6.01,4.22ZM132.42,13.76c-1.93,1.99-2.8,4.43-3.5,6.87-2.84-.56-5.55-1.1-8.26-1.63-.07.16-.13.31-.2.47,2.52,1.68,5.05,3.35,7.45,4.95-.16,2.42-.32,4.87-.48,7.32.17.05.34.09.51.14,1.15-2.25,2.31-4.49,3.47-6.77,2.57.6,5.13.38,7.67-.23.04-.1.08-.21.12-.31-2.3-1.14-4.6-2.28-6.8-3.37v-7.44ZM79.99,13.68c-.19.04-.38.08-.57.12.1,2.21.16,4.43.33,6.64.05.63,0,1.02-.67,1.18-.27.06-.55.17-.8.3-1.85.93-3.7,1.86-5.54,2.8,2.4.81,4.71,1.03,7.03.54.84-.17,1.07.12,1.38.8.89,1.95,1.87,3.85,2.81,5.77.16-.05.32-.09.48-.14-.12-2.46-.24-4.91-.37-7.47,2.66-1.18,5.15-2.88,7.27-5.21-2.74.54-5.47,1.08-8.17,1.62-.45-1.23-.83-2.46-1.36-3.61-.53-1.15-1.21-2.23-1.82-3.34ZM72.66,186.56c-.04.12-.08.24-.12.35,2.35,1.11,4.7,2.23,7.07,3.35-.08,1.21-.23,2.48-.24,3.76,0,1.25.13,2.5.21,4.04,1.86-2.38,2.74-4.83,3.37-7.41,2.82.56,5.6,1.1,8.64,1.7-2.49-2.28-4.95-4.1-7.67-5.14.14-2.58.26-4.99.39-7.4-.17-.04-.35-.09-.52-.13-.97,1.95-1.97,3.9-2.9,5.87-.29.61-.53.83-1.26.69-2.34-.44-4.67-.28-6.97.32ZM120.32,191.7c.05.15.11.29.16.44,2.73-.58,5.46-1.16,8.29-1.76.68,2.57,1.58,5.02,3.55,7.3v-7.72c2.23-1.12,4.47-2.25,6.71-3.38-2.66-1-5.27-1.06-7.81-.51-1.2-2.23-2.36-4.38-3.51-6.54-.16.05-.33.1-.49.14.19,2.42.38,4.83.54,6.97-2.52,1.71-4.98,3.37-7.43,5.04ZM36.99,55.68c.61.58,1.15,1.08,1.84,1.73-1.04-.27-1.88-.49-3.01-.79,0,1.25-.03,2.27.02,3.29.02.44.06,1.04.34,1.29,1.25,1.11,2.59,2.12,4.09,3.33-.16-2.14-.28-3.95-.46-5.75-.06-.6.12-.89.66-1.14,1.61-.74,3.19-1.53,4.87-2.34-1.93-.78-3.79-1.53-5.65-2.29.17-2.16.33-4.22.52-6.62-1.54,1.32-2.87,2.43-4.16,3.58-.18.16-.29.51-.26.76.11,1.27.27,2.53.43,3.94.79-.27,1.47-.51,2.38-.82-.62.7-1.08,1.23-1.6,1.83ZM38.59,158.24c-.07.09-.13.18-.2.27-.82-.25-1.64-.5-2.64-.8,0,1.52-.02,2.79.02,4.06,0,.26.15.59.34.75,1.26,1.06,2.55,2.09,4.02,3.29-.13-2.04-.18-3.78-.37-5.51-.09-.81.21-1.13.88-1.42,1.54-.67,3.05-1.4,4.67-2.15-1.65-.67-3.16-1.3-4.68-1.89-.75-.29-1.09-.61-.94-1.55.27-1.7.3-3.44.45-5.45-1.49,1.26-2.79,2.35-4.07,3.46-.15.13-.31.36-.29.53.09,1.3.22,2.59.34,4.02.83-.26,1.49-.46,2.35-.73-.61.66-1.06,1.14-1.68,1.8.65.47,1.22.89,1.79,1.31ZM190.19,134.15c-.1-.14-.2-.28-.3-.42-2.13.67-4.27,1.3-6.38,2.02-.56.19-.87.12-1.31-.24-1.06-.88-2.18-1.68-3.27-2.52.35,1.46.86,2.81,1.46,4.11.25.53.17.81-.27,1.16-1.07.85-2.1,1.75-3.14,2.64,1.46-.02,2.82-.23,4.18-.49.65-.13,1.08-.05,1.51.57,1.22,1.75,2.78,3.17,4.78,4.17-.84-2.13-1.68-4.26-2.45-6.2,1.77-1.64,3.48-3.21,5.18-4.79ZM34.69,141.07c.02-.09.04-.18.06-.27-.95-.8-1.87-1.64-2.86-2.39-.63-.47-.71-.9-.38-1.61.54-1.18.95-2.43,1.41-3.65-1.28.71-2.38,1.5-3.4,2.39-.45.39-.76.37-1.3.19-2.07-.7-4.17-1.31-6.26-1.95-.04.09-.09.19-.13.28,1.37,1.92,3.11,3.44,5.09,4.65-.86,2.24-1.71,4.43-2.55,6.63.12.09.24.18.36.27,1.5-1.54,3.05-3.05,4.48-4.66.45-.5.78-.67,1.42-.54,1.35.27,2.71.45,4.07.66ZM190.26,69.37c-.09-.08-.19-.16-.28-.24-1.67,1.15-3.34,2.3-4.95,3.4-1.57-1.08-3.11-2.14-4.65-3.19-.07.08-.14.16-.2.24.97,1.77,1.95,3.53,2.91,5.27-1.07,1.4-2.13,2.79-3.2,4.17.06.07.12.14.18.21,1.42-.63,2.85-1.23,4.24-1.9.48-.23.74-.2,1.18.15,1.53,1.23,3.15,2.35,4.73,3.52.11-.1.21-.2.32-.3-1.14-1.93-2.28-3.86-3.35-5.68,1.02-1.89,2.05-3.77,3.07-5.65ZM31.77,79.23l.15-.19c-1.09-1.42-2.17-2.84-3.19-4.17.97-1.78,1.91-3.5,2.84-5.22-.09-.07-.18-.14-.27-.21-1.5,1.05-3.01,2.1-4.44,3.1-1.66-1.15-3.25-2.25-4.85-3.35-.09.1-.19.21-.28.31,1.02,1.86,2.05,3.71,3.01,5.47-1.14,1.9-2.27,3.8-3.41,5.69.11.1.21.19.32.29,1.78-1.26,3.56-2.52,5.33-3.78,1.54.66,3.16,1.35,4.78,2.04ZM177.88,55.72c.9.73,1.75,1.43,2.62,2.09.14.11.42.16.57.09,1.7-.78,3.38-1.58,5.22-2.45-2.06-.85-3.94-1.63-5.83-2.42.18-2.15.36-4.22.53-6.29-.08-.05-.16-.11-.24-.16-1.31,1.02-2.62,2.02-3.91,3.06-.17.14-.32.43-.3.65.09,1.37.23,2.73.36,4.23,1.02-.36,1.87-.66,2.93-1.03-.74.85-1.32,1.51-1.94,2.22ZM172.25,154.18c-1.96.91-3.78,1.75-5.71,2.65,1.83.75,3.46,1.44,5.11,2.09.29.11.74.16.96.01.78-.54,1.5-1.18,2.52-2.01-.82-.66-1.56-1.27-2.31-1.87.05-.06.1-.11.15-.17.9.36,1.8.71,2.77,1.1.19-1.36.37-2.55.49-3.75.03-.32-.03-.78-.24-.96-1.29-1.09-2.64-2.12-4.13-3.31.14,2.22.27,4.23.39,6.21ZM35.16,54.56c.07-1.31.15-2.51.2-3.71,0-.16-.07-.37-.18-.47-1.32-1.17-2.65-2.32-4.23-3.68.11,1.73.13,3.14.32,4.53.16,1.2-.19,1.85-1.37,2.28-1.44.52-2.8,1.26-4.38,1.99,1.98.77,3.72,1.47,5.48,2.13.23.09.62.14.77.01.77-.65,1.49-1.37,2.48-2.31-.78-.62-1.45-1.16-2.12-1.69.04-.05.08-.1.12-.15.92.34,1.84.68,2.91,1.08ZM174.91,55.62c-.7-.74-1.38-1.44-2.05-2.15.04-.04.08-.08.13-.12.9.35,1.79.71,2.77,1.1.18-1.37.36-2.57.47-3.76.03-.32-.04-.78-.25-.96-1.28-1.1-2.61-2.14-4.09-3.34.12,1.93.2,3.63.34,5.32.06.71-.15,1.07-.82,1.36-1.59.68-3.14,1.45-4.81,2.24,1.82.74,3.48,1.44,5.17,2.09.27.1.71.05.95-.11.76-.51,1.47-1.1,2.2-1.66ZM12.58,123.77c.5,1.65.98,3.23,1.49,4.92,1.52-.49,2.97-.97,4.49-1.46-.53-1.65-1.01-3.15-1.51-4.72-1.54.43-2.96.83-4.47,1.26ZM194.49,122.55c-.47,1.6-.92,3.12-1.39,4.73,1.48.45,2.88.88,4.37,1.33.45-1.62.87-3.14,1.33-4.76-1.45-.44-2.79-.84-4.31-1.3ZM13.17,90.27c1.51.37,2.91.71,4.38,1.07.41-1.56.79-3.03,1.2-4.58-1.52-.37-2.92-.71-4.39-1.06-.4,1.55-.78,2.99-1.19,4.58ZM198.82,90.26c-.34-1.39-.62-2.64-.97-3.86-.07-.24-.47-.59-.66-.56-1.28.23-2.54.55-3.92.87.41,1.61.79,3.1,1.18,4.62,1.52-.37,2.89-.71,4.37-1.07ZM180.76,64.3c.09-.04.17-.07.25-.11-.16-1.87-.32-3.74-.51-5.61-.02-.2-.23-.46-.41-.56-.76-.38-1.53-.75-2.33-1.03-.64-.23-1.1-.07-1.09.78.01.75-.12,1.49-.1,2.24.01.35.16.79.41,1.02,1.23,1.12,2.51,2.19,3.77,3.27ZM35.24,56.49c-1.16.45-2.06.77-2.93,1.15-.25.11-.56.41-.58.65-.23,1.96-.39,3.93-.59,6.05,1.43-1.15,2.78-2.23,4.13-3.32.13-.1.27-.29.26-.43-.07-1.32-.18-2.65-.28-4.11ZM172.17,166.02c1.45-1.21,2.72-2.27,3.98-3.34.12-.1.22-.32.21-.47-.07-1.36-.17-2.72-.27-4.3-1.18.55-2.11.97-3.02,1.43-.18.09-.37.36-.39.57-.18,1.94-.33,3.88-.51,6.11ZM171.99,64.65c1.42-1.15,2.69-2.16,3.94-3.19.15-.12.29-.36.28-.54-.05-1.3-.14-2.6-.23-4.18-1.2.5-2.17.89-3.12,1.32-.12.05-.21.28-.23.43-.21,1.97-.41,3.94-.64,6.16ZM24.34,120.67c-1.05-.02-1.83.73-1.84,1.77-.01,1.05.75,1.86,1.77,1.86,1.01,0,1.84-.8,1.86-1.8.02-1.02-.75-1.82-1.79-1.84ZM189.13,122.46c-.01-1.06-.77-1.8-1.81-1.79-1.02.01-1.85.81-1.86,1.79,0,1.03.86,1.87,1.91,1.85,1.05-.02,1.77-.78,1.75-1.84ZM120.02,25.96c0-.97-.76-1.73-1.75-1.74-1.02-.02-1.89.8-1.86,1.77.03.92.86,1.68,1.84,1.67,1.04,0,1.78-.71,1.77-1.69ZM95.68,25.62c-.01-1.01-.75-1.71-1.78-1.68-1.03.03-1.78.76-1.77,1.72,0,.95.83,1.74,1.79,1.71.99-.03,1.76-.8,1.75-1.76ZM118.85,185.05c-.02-.94-.85-1.74-1.81-1.73-1,.01-1.75.78-1.73,1.77.02.98.81,1.69,1.84,1.66.93-.02,1.72-.81,1.7-1.7ZM94.04,186.08c0-.97-.8-1.76-1.77-1.75-.89.01-1.63.74-1.66,1.61-.03.98.73,1.78,1.71,1.8.94.02,1.71-.73,1.71-1.67ZM195.25,77.73c-.03-.92-.8-1.6-1.78-1.57-1.02.03-1.68.69-1.66,1.66.02.94.77,1.62,1.74,1.59.96-.03,1.72-.79,1.7-1.68ZM195.08,136.41c.01-.96-.68-1.65-1.67-1.66-1-.01-1.74.66-1.75,1.59,0,.94.72,1.66,1.68,1.68.98.02,1.73-.68,1.74-1.6ZM20.56,136.42c0-.94-.72-1.65-1.7-1.66-1,0-1.75.68-1.75,1.6,0,.98.69,1.65,1.69,1.65,1.01,0,1.75-.67,1.76-1.6ZM26.26,90.17c.03-.87-.82-1.72-1.69-1.73-.89,0-1.65.7-1.69,1.57-.05.96.64,1.72,1.59,1.76.92.04,1.76-.72,1.79-1.61ZM187.32,91.79c.98,0,1.68-.74,1.65-1.71-.03-.9-.77-1.64-1.64-1.65-.93-.01-1.71.76-1.71,1.68,0,.95.75,1.69,1.7,1.68ZM20.42,77.72c-.02-.93-.68-1.55-1.66-1.55-1.01,0-1.72.67-1.72,1.63,0,.95.74,1.65,1.72,1.63.97-.02,1.67-.75,1.66-1.7ZM165.97,51.11c-.02-.9-.76-1.62-1.64-1.61-.94.01-1.65.78-1.61,1.72.04.93.75,1.57,1.67,1.54.9-.03,1.61-.78,1.59-1.66ZM164.35,159.22c-.92,0-1.7.78-1.67,1.69.02.92.72,1.58,1.65,1.56.92-.02,1.64-.73,1.63-1.6,0-.87-.77-1.65-1.62-1.65ZM47.61,49.52c-.92-.02-1.64.67-1.65,1.58-.01.96.62,1.63,1.56,1.66.9.03,1.66-.68,1.68-1.57.02-.91-.69-1.65-1.58-1.67ZM49.19,160.85c-.03-.9-.78-1.63-1.65-1.61-.92.02-1.61.73-1.6,1.64,0,.93.69,1.6,1.63,1.6.89,0,1.65-.76,1.62-1.63Z"/>
  <path d="M161.18,195.61c-.2-2.46-.39-4.64-.58-7,2.4.91,4.67,1.78,7.25,2.76-.4-2.52-.77-4.79-1.15-7.22,2.45.65,4.83,1.29,7.39,1.97-.46-2.6-.88-4.99-1.34-7.57,2.67.47,5.17.9,7.95,1.39-.81-2.77-1.57-5.36-2.39-8.15,2.72.41,5.3.8,8.03,1.22-.92-2.13-1.79-4.14-2.73-6.33,2.5.38,4.86.74,7.46,1.13-.85-2.3-1.64-4.43-2.44-6.62h7c-1.14-2.16-2.23-4.25-3.39-6.45h6.88c-.9-2.14-1.74-4.15-2.68-6.37h6.27c-.82,1.7-1.61,3.45-2.49,5.15-7.61,14.69-17.91,27.14-31.21,37-11.77,8.72-24.9,14.52-39.14,17.86-11.05,2.59-22.23,3.45-33.53,2.52-18.65-1.54-35.77-7.52-50.93-18.53C23.06,176.14,8.67,154.5,2.39,127.61c-2.8-11.99-3-24.12-1.36-36.31,2.42-18.04,9.49-34.08,20.32-48.6,6.96-9.34,15.08-17.49,24.67-24.09,12.76-8.78,26.81-14.49,42.1-17.08,11.66-1.97,23.35-2.06,35-.14,16.32,2.69,31.21,8.94,44.64,18.59,16.24,11.68,28.19,26.85,36.08,45.2,3.74,8.7,6.09,17.82,7.31,27.22,1.02,7.85,1.16,15.7.37,23.57-1.05,10.38-3.69,20.35-7.79,29.94-.05.12-.13.22-.26.44-1.03-2.53-2.01-4.96-3.03-7.47,2.05-.48,4.05-.95,6.25-1.47-1.49-2.51-2.91-4.89-4.38-7.37,2.35-.89,4.63-1.74,7.11-2.68-1.72-2.3-3.32-4.46-5.01-6.73,2.07-.93,4.09-1.83,6.23-2.8-1.8-2.18-3.53-4.28-5.32-6.45,2.04-1.36,4.04-2.69,6.18-4.12-2.06-1.43-4-2.78-6.05-4.2,2.06-1.69,4.05-3.33,6.24-5.13-2.42-.82-4.65-1.57-7.01-2.37,1.75-1.94,3.45-3.82,5.26-5.82-2.26-.87-4.4-1.69-6.67-2.57,1.78-2.06,3.51-4.06,5.36-6.2-2.61-.69-5.05-1.34-7.63-2.02,1.66-2.01,3.25-3.95,4.98-6.04-2.5-.73-4.87-1.41-7.4-2.15,1.53-2.05,3-4.01,4.67-6.25-2.75-.22-5.22-.41-7.89-.62,1.4-2.29,2.72-4.45,4.12-6.75h-7.81c1.33-2.29,2.55-4.4,3.86-6.66h-8.09c1.08-2.39,2.12-4.67,3.25-7.15h-8.2c.95-2.25,1.8-4.27,2.76-6.52-2.43.54-4.68,1.04-7.06,1.58.78-2.52,1.51-4.87,2.34-7.54-2.81.6-5.32,1.13-7.99,1.7.46-2.55.91-5.01,1.42-7.78-2.6.84-4.97,1.61-7.48,2.41.42-2.3.83-4.52,1.29-7.02-2.52.95-4.85,1.82-7.27,2.74.16-2.18.31-4.29.48-6.63-2.27,1.05-4.35,2.01-6.52,3.02-.35-2.32-.68-4.55-1.03-6.89-2.33,1.04-4.5,2-6.77,3.01-.55-2.25-1.09-4.44-1.69-6.84-2.15,1.39-4.19,2.71-6.25,4.05-.67-2.43-1.33-4.81-2.04-7.38-1.9,1.76-3.64,3.38-5.45,5.05-.8-2.5-1.58-4.94-2.45-7.63-1.79,1.93-3.38,3.65-4.97,5.37-.12-.06-.24-.12-.36-.19-.63-2.03-1.27-4.07-1.92-6.14-1.84,1.78-3.59,3.48-5.42,5.26-.77-2.06-1.51-4.04-2.35-6.26-1.32,2.28-2.53,4.36-3.83,6.6-1.04-2.31-1.99-4.44-3.04-6.76-1.49,1.98-2.87,3.81-4.33,5.76-.99-1.83-1.93-3.59-2.98-5.54-1.26,2.18-2.44,4.23-3.69,6.41-1.26-1.79-2.48-3.51-3.79-5.37-1.25,2.13-2.43,4.16-3.68,6.29-1.38-1.65-2.69-3.24-4.16-5.01-1.05,2.3-2.05,4.5-2.98,6.54-1.51-1.34-3.01-2.69-4.55-4.07-1.06,2.2-2.16,4.49-3.33,6.91-1.6-1.41-3.13-2.76-4.8-4.23-.92,2.37-1.79,4.63-2.71,7-1.96-1.28-3.85-2.52-5.89-3.86-.82,2.65-1.6,5.14-2.41,7.76-2.12-.99-4.19-1.96-6.34-2.96-.23,2.61-.45,5.08-.68,7.67-2.28-1.21-4.41-2.33-6.8-3.6.38,2.55.72,4.82,1.09,7.26-2.48-.73-4.81-1.41-7.33-2.16.37,2.47.71,4.76,1.08,7.21-2.43-.43-4.72-.83-7.26-1.27.78,2.57,1.5,4.93,2.28,7.49-2.39-.32-4.66-.62-7.08-.94.93,2.06,1.79,3.99,2.74,6.1-2.5-.29-4.78-.55-7.21-.83.79,2.37,1.53,4.61,2.36,7.09-2.39-.41-4.57-.79-6.94-1.2.86,2.54,1.67,4.94,2.5,7.4h-7.18c1.25,2.56,2.49,5.1,3.78,7.74-2.48.19-4.81.37-7.31.56,1.2,2.09,2.35,4.11,3.56,6.22-2.46.87-4.82,1.7-7.34,2.59,1.78,2.14,3.48,4.18,5.28,6.34-2.47.95-4.77,1.83-7.23,2.77,1.75,2.06,3.43,4.02,5.17,6.06-2.47,1.07-4.81,2.08-7.33,3.17,1.79,2.15,3.48,4.2,5.25,6.33-2.01,1.18-3.97,2.32-6.04,3.53,2.11,1.45,4.12,2.84,6.22,4.29-1.84,1.6-3.6,3.13-5.45,4.74,1.87,1.06,3.64,2.07,5.52,3.14-1.81,1.49-3.51,2.88-5.35,4.4,2.21,1.01,4.26,1.94,6.51,2.96-1.66,1.34-3.22,2.59-4.94,3.98,2.07.72,3.98,1.39,6.25,2.19-1.78,1.56-3.38,2.97-4.98,4.38l.21.41c2.12.24,4.24.49,6.7.77-1.97,1.71-3.75,3.26-5.69,4.95,2.26.33,4.35.63,6.63.96-1.08,2.18-2.13,4.29-3.21,6.48,2.38.36,4.66.71,7.09,1.08-1.1,2.18-2.16,4.29-3.29,6.53,2.44.37,4.78.73,7.28,1.11-1.13,2.37-2.22,4.64-3.38,7.07h7.41c-.96,2.42-1.85,4.65-2.84,7.13,2.59-.29,4.97-.56,7.6-.86-.6,2.15-1.17,4.17-1.78,6.33,2.01-.41,3.98-.81,6.13-1.25-.48,2.47-.95,4.85-1.45,7.41,2.44-.49,4.75-.95,7.2-1.44-.43,2.5-.85,4.89-1.31,7.53,2.48-.65,4.79-1.26,7.27-1.91-.33,2.34-.64,4.57-1,7.09,2.42-.88,4.66-1.69,6.96-2.52v6.51c1.9-1.06,3.72-2.07,5.71-3.18.6,2.46,1.19,4.85,1.81,7.37,2.06-1.03,4.07-2.04,6.19-3.1.66,2.34,1.29,4.62,1.99,7.11,1.66-1.47,3.21-2.85,4.86-4.31,1.12,2.46,2.21,4.86,3.38,7.42,1.45-1.71,2.79-3.3,4.19-4.97,1.42,2.39,2.79,4.7,4.23,7.11,1.29-1.6,2.49-3.08,3.82-4.74,1,1.98,1.95,3.85,2.97,5.87,1.45-1.98,2.83-3.86,4.31-5.87,1.43,2.32,2.81,4.53,4.28,6.92,1.16-1.9,2.24-3.66,3.4-5.55,1.32,1.92,2.57,3.75,3.91,5.7,1.11-2.04,2.15-3.93,3.24-5.93,1.24,1.83,2.41,3.55,3.69,5.44.88-2.14,1.7-4.14,2.59-6.29,1.6,1.68,3.11,3.26,4.82,5.05.1-2.07.18-3.91.28-6.01,2.04,1.73,3.89,3.3,5.81,4.93.61-2.11,1.2-4.15,1.84-6.38,1.8,1.6,3.5,3.12,5.38,4.8v-6.4c2.23,1.67,4.2,3.13,6.29,4.69.36-2.28.7-4.43,1.06-6.72,1.9,1.39,3.68,2.68,5.57,4.06.42-2.22.8-4.31,1.23-6.57,2.09,1.16,4.1,2.28,6.39,3.55v-7.44c2.44,1.33,4.63,2.53,7.05,3.85Z"/>
  <path d="M105.99,59.81c25.06-.03,45.27,20.06,45.32,45.07.06,24.8-20.49,45.35-45.16,45.59-25.23.25-45.72-21.1-45.71-45.59,0-24.81,20.47-45.04,45.55-45.07ZM100.93,63.04c1.12,1.49,2.48,3.04,3.57,4.77,1.61,2.56,1.84,5.26.28,7.99-.34.59-.65,1.19-.9,1.82-.85,2.1-1.65,4.23-2.53,6.32-.12.28-.56.54-.89.6-1.53.29-3.08.52-4.63.73-.38.05-.88.05-1.17-.16-4.19-3.03-6.52-7.09-6.51-12.32,0-1.54.32-3.07.48-4.52-4.61,4.27-5.9,14.68,2.04,21.5-1.29,1.67-2.58,3.34-3.88,5.02-3.74-4.4-8.3-6.43-14.05-4.73-3.89,1.14-6.72,3.6-8.55,7.05,1.82-.77,3.61-1.64,5.47-2.29,2.74-.96,5.13-.33,7.24,1.71,2.32,2.24,4.56,4.63,7.73,5.66-.05.61-.1,1.1-.13,1.6-.14,2.75-1.33,4.94-3.57,6.49-3.58,2.46-7.54,3.38-11.78,2.32-1.84-.46-3.57-1.41-5.15-2.05,1.49,2.8,4.57,5.39,8.1,6.47,5.03,1.54,9.77.8,14.08-2.16,1.2,1.9,2.36,3.74,3.53,5.59-10.49,5.62-7.51,18.03-1.77,21.28-.37-1.05-.83-2.16-1.15-3.32-1.25-4.63-.24-7.13,3.81-9.63.21-.13.43-.25.64-.39,1.38-1,2.75-2.02,4.16-2.98.24-.16.7-.15.99-.04,1.36.51,2.66,1.25,4.06,1.59,1.33.32,2.21.94,2.8,2.13.49.98,1.35,1.88,1.49,2.89.64,4.62-.64,8.68-4.15,11.88-.71.64-1.52,1.17-2.34,1.78,3.63-.41,6.77-2.01,8.85-4.57,3.32-4.07,3.85-8.64,2.34-13.28,2.43-1.06,4.76-2.01,7.02-3.1.62-.3.99-.27,1.51.09,4.31,2.97,6.24,7.11,5.92,12.27-.1,1.6-.61,3.17-.91,4.67,1.82-1.14,3.69-4.26,4.23-7.48.94-5.62-1.06-10.18-5.19-13.69,1.3-2.04,2.52-3.97,3.75-5.9,9.04,7.93,19.65,1.4,21.26-4.37-1.28.68-2.67,1.55-4.16,2.2-3.02,1.33-5.88,1.19-8.4-1.21-.46-.44-.96-.86-1.5-1.2-1.7-1.09-3.43-2.13-5.14-3.2-.17-.11-.46-.24-.46-.36.06-1.58-.26-3.34.32-4.71,1.99-4.71,8.15-7.57,13.54-6.45,1.8.38,3.52,1.15,5.11,1.69-1.93-2.7-4.66-4.65-8.13-5.46-4.99-1.16-9.49-.05-13.4,3.1-1.26-1.66-2.48-3.26-3.7-4.86,9.96-4.77,8.52-17.03,2.62-21.71.24.83.51,1.6.69,2.39,1.01,4.38.41,8.13-3.75,10.83-1.91,1.24-3.5,2.99-5.25,4.52-1.77-.57-3.71-1.2-5.65-1.83,5.71-10.63-2.04-19.83-8.81-21ZM135.48,128.39c.96,0,1.64-.64,1.64-1.56,0-.96-.72-1.68-1.68-1.66-.92.02-1.58.7-1.58,1.63,0,.93.67,1.59,1.61,1.59ZM118.5,140.53c-.02-.86-.8-1.64-1.63-1.65-.9,0-1.66.79-1.64,1.72.02.91.72,1.56,1.66,1.54.93-.02,1.63-.73,1.61-1.61ZM80.56,87.5c.92.01,1.66-.69,1.67-1.58,0-.91-.69-1.61-1.61-1.62-.96-.01-1.64.62-1.66,1.55-.02.89.71,1.64,1.6,1.65ZM95.64,140.08c-.02-.9-.75-1.61-1.65-1.6-.91.01-1.61.73-1.59,1.64.02.96.67,1.59,1.63,1.57.95-.01,1.62-.69,1.6-1.61ZM74.69,126.95c.02-.9-.68-1.65-1.57-1.69-.91-.04-1.64.65-1.67,1.57-.02.91.66,1.65,1.56,1.69.91.03,1.66-.67,1.67-1.57ZM130.23,85.06c-.91,0-1.64.7-1.66,1.59-.02.92.66,1.6,1.61,1.62.94.02,1.65-.65,1.66-1.56,0-.9-.72-1.64-1.61-1.64ZM130.28,124.09c.9-.03,1.63-.79,1.59-1.66-.03-.89-.8-1.58-1.7-1.54-.84.04-1.54.77-1.54,1.61,0,.9.75,1.62,1.65,1.59ZM72.62,102.66c-.92.02-1.61.74-1.58,1.63.03.89.78,1.6,1.67,1.59.91-.02,1.59-.74,1.57-1.66-.02-.91-.74-1.59-1.65-1.56ZM137.82,105.49c.95,0,1.65-.68,1.64-1.59,0-.88-.75-1.62-1.64-1.63-.9,0-1.62.72-1.63,1.62,0,.94.67,1.6,1.62,1.6ZM138.6,81.77c0-.9-.73-1.58-1.66-1.56-.95.02-1.6.69-1.58,1.62.02.92.74,1.63,1.63,1.6.89-.03,1.62-.78,1.61-1.66ZM76.84,81.88c-.02-.92-.74-1.61-1.64-1.57-.89.04-1.61.8-1.59,1.66.02.93.7,1.56,1.66,1.54.95-.02,1.59-.69,1.57-1.63ZM117.84,71.97c.95-.01,1.63-.7,1.6-1.61-.02-.89-.79-1.62-1.67-1.59-.91.03-1.63.76-1.61,1.65.02.89.75,1.57,1.68,1.56ZM79.71,124.58c.96.03,1.65-.61,1.66-1.53,0-.9-.69-1.64-1.58-1.66-.89-.03-1.66.69-1.67,1.57-.02.89.67,1.6,1.6,1.63ZM116.88,132.11c.01-.91-.69-1.61-1.6-1.6-.92,0-1.66.71-1.66,1.57,0,.86.75,1.61,1.63,1.62.9.01,1.62-.69,1.63-1.6ZM96.3,70.59c.02-.9-.71-1.66-1.6-1.64-.86.01-1.6.7-1.63,1.52-.04.92.63,1.63,1.57,1.66.95.03,1.65-.61,1.67-1.54ZM95.7,76.03c-.9-.09-1.71.56-1.78,1.46-.07.89.52,1.62,1.38,1.72.94.1,1.73-.49,1.83-1.38.1-.9-.54-1.7-1.44-1.79ZM98.26,133.33c.02-.92-.68-1.64-1.6-1.64-.86,0-1.61.67-1.65,1.5-.05.9.64,1.63,1.57,1.67.98.04,1.66-.57,1.68-1.52ZM117.53,77.43c0-.86-.7-1.59-1.53-1.6-.89-.01-1.69.73-1.69,1.59,0,.88.76,1.59,1.67,1.57.9-.02,1.55-.67,1.55-1.56Z"/>
  <path d="M35.12,119.11c1.8-.53,3.6-1.07,5.61-1.67-.48,1.63.69,3.63-1.91,4.46,2.67-.71,2.87,1.52,3.95,2.9.18-.9.26-1.67.49-2.38.1-.3.49-.66.79-.7,1.29-.15,2.6-.18,3.96-.44-2.26-1.23-4.51-2.47-7.05-3.85,2.66-.4,5.07-.77,7.77-1.18-2.7-1.43-5.21-2.75-7.71-4.08.02-.04.03-.09.05-.13,2.15.57,4.3,1.14,6.76,1.79-2.58-2.72-4.95-5.22-7.25-7.63,2.19-3.09,4.31-6.08,6.43-9.08l-.25-.28c-1.79.8-3.58,1.6-5.38,2.4-.03-.04-.06-.08-.09-.12,2.17-2.07,4.33-4.14,6.64-6.34h-5.6c1.38-1.63,2.67-3.16,4.11-4.86-1.11-.1-2.04-.18-3.11-.28-.29-.56-.67-1.28-1.18-2.25-.9,2.14-2.52,2.8-4.9,2.27,1.27,1.99,2.33,3.65,3.47,5.43-1.85-.32-3.56-.62-5.53-.96,1.63,2.61,3.12,5,4.6,7.39-.05.05-.09.1-.14.14-1.6-.73-3.19-1.45-5.1-2.32.77,1.38,1.38,2.47,1.99,3.56.8,1.43,1.64,2.84,2.4,4.28.17.32.25.85.1,1.15-1.38,2.73-2.82,5.43-4.25,8.13-.05.09-.14.15-.33.36-1.39-10.63-.43-20.88,2.87-31.07,4.6,1.06,9.13,2.1,13.77,3.17-.41,1.62-.9,3.13-1.17,4.68-.53,3.04-.98,6.1-1.39,9.17-.1.74-.31,1.2-1.02,1.55-1.96.99-3.88,2.07-5.94,3.19,1.92,1.1,3.72,2.2,5.58,3.19,1.09.58,1.55,1.3,1.76,2.59.56,3.39,1.43,6.73,2.17,10.1.03.14.05.27.1.54-4.49,1.83-8.98,3.66-13.64,5.55-.84-2.9-1.63-5.64-2.42-8.38h0Z"/>
  <path d="M35.12,119.11c-.2-1.28-.39-2.57-.6-3.93,1.64-.87,3.28-1.75,4.92-2.62.06.05.12.09.18.14-1.5,2.14-3.01,4.27-4.51,6.41,0,0,0,0,0,0Z"/>
  <path d="M125.82,158.97c1.57,4.7,3.11,9.31,4.69,14.04-6.42,2.11-12.92,3.49-19.65,4.28v-6.25c1.72,1.7,3.55,3.49,5.37,5.28.1-.05.2-.11.3-.16v-6.28c2.36,1.62,4.54,3.12,6.92,4.76v-13c-2.24,2.57-4.46,5.12-6.68,7.67-.08-.01-.16-.03-.24-.04v-7.57c-.09-.01-.17-.03-.26-.04-1.75,2.52-3.5,5.05-5.35,7.72v-6.8c-1.86,2.04-3.7,4.05-5.63,6.16-1.89-2.25-3.71-4.41-5.74-6.83v6.53c-.09.03-.19.05-.28.08-1.47-2.14-2.94-4.29-4.55-6.63v7.35c-.07.03-.14.05-.2.08-2.07-2.67-4.15-5.35-6.35-8.18v13.31c2.22-1.55,4.31-3.02,6.48-4.54v6.11c1.64-2,3.08-3.77,4.71-5.75-.13,2.4-.26,4.57-.39,6.94-6.57-.77-12.87-2.34-19.16-4.47,1.75-4.84,3.47-9.61,5.23-14.44,13.52,4.89,27.04,4.93,40.77.68Z"/>
  <path d="M105.06,170.85c1.85,2.18,3.61,4.25,5.52,6.5h-11.3c-.03-.1-.06-.2-.08-.29,1.92-2.03,3.84-4.06,5.86-6.2Z"/>
  <path d="M131.28,37.74c-1.71,4.61-3.4,9.17-5.13,13.82-8.39-2.44-16.84-4.02-25.85-3.21,2-2.18,3.82-4.15,5.76-6.25,1.76,1.96,3.48,3.87,5.36,5.97v-6c.1-.04.19-.08.29-.12,1.58,2.14,3.16,4.28,4.86,6.57v-6.14c.08-.04.16-.09.23-.13,2.3,2.43,4.6,4.85,6.9,7.27v-12.89c-2.48,1.79-4.7,3.39-7.12,5.13v-7.13c-.08-.02-.16-.05-.25-.07-1.54,2.17-3.09,4.34-4.78,6.73v-6.1c-1.73,1.8-3.41,3.54-5.17,5.37-2.38-2.31-4.57-4.42-6.89-6.66.18,2.35.34,4.51.5,6.67-.09.03-.18.06-.26.1-1.52-2.02-3.03-4.03-4.63-6.16v7.78c-2.35-2.29-4.53-4.43-6.81-6.66v13.8c.08.04.16.08.24.11,2.14-2.35,4.28-4.69,6.53-7.16v6.34c1.71-2.17,3.24-4.11,4.83-6.13v5.5c-4.9,1.13-9.7,2.23-14.65,3.37-1.64-4.32-3.36-8.87-5.12-13.49,17.04-6.1,34.01-5.99,51.16-.25Z"/>
  <path d="M153.82,51.58c-.28.22-.65.38-.83.66-.75,1.12-1.44,2.28-2.34,3.73-.49-2.74-.92-5.18-1.36-7.62-.09-.03-.19-.06-.28-.08-1.33,3.67-2.66,7.33-4,11,.11.07.23.14.34.21,1.25-.77,2.51-1.53,3.71-2.27-.5.51-1.04,1.06-1.82,1.85,1.72.34,3.08.65,4.46.85.78.11,1.06.4,1.08,1.21.05,1.44.26,2.88.43,4.58.66-1.12,1.19-2.02,1.73-2.92.07.03.14.06.21.09-.71,2.05-1.42,4.1-2.25,6.46,2.12-.99,3.99-1.87,6.09-2.85-1.17,2.17-2.24,4.17-3.47,6.46,1.3-.45,2.35-.73,3.32-1.17.81-.37,1.31-.18,1.79.5.34.48.77.9,1.18,1.38.71-1.57-.3-3.66,1.89-4.62-2.48.24-2.17-2.11-3.35-3.21,1.07-.64,2.05-1.23,3.25-1.95-2.51-.66-4.78-1.26-7.05-1.86-.01-.07-.03-.14-.04-.21,1.66-.65,3.31-1.3,5.13-2.02.99,1.33,2.06,2.69,3.05,4.11,1.18,1.7,2.27,3.45,3.41,5.17.31.46.32.76-.19,1.13-3.7,2.72-7.38,5.47-11.07,8.2-.08.06-.18.09-.15.07-1.82-2.68-3.46-5.44-5.45-7.92-1.08-1.35-1.3-2.42-.7-3.97.6-1.55.92-3.2,1.4-4.96-2.35.19-4.59.31-6.8.59-.88.11-1.44-.13-2.09-.66-2.49-2.02-5.04-3.96-7.57-5.92-.28-.22-.56-.42-.89-.66,2.89-4.01,5.76-7.98,8.73-12.1,2.16,1.66,4.31,3.23,6.36,4.93,1.44,1.19,2.75,2.55,4.12,3.83l.02-.02ZM139.08,52.64c1.78,1.23.59,2.81.54,4.37,2.22-.75,4.29-1.45,6.47-2.19-.89-2.16-1.71-4.16-2.61-6.35-.36.89-.62,1.55-.89,2.21q-.91,2.23-3.51,1.95Z"/>
  <path d="M153.79,51.6c.67.56,1.39,1.08,1.99,1.7,1.89,1.97,3.73,3.98,5.58,5.97-.07.09-.14.19-.21.28-.61-.22-1.22-.44-1.82-.66-.7-.26-1.37-.65-2.09-.78-2.17-.39-3.02-1.7-3.03-3.81,0-.91-.26-1.81-.41-2.72,0,0-.02.02-.02.02Z"/>
  <path d="M169.9,105.26c-1.98-1.12-3.97-2.22-5.92-3.4-.35-.21-.66-.73-.72-1.14-.35-2.36-.51-4.74-.94-7.08-.43-2.29-1.11-4.54-1.72-6.96,4.45-1,9.04-2.03,13.77-3.1,4.95,14.66,4.96,29.25.13,44.04-4.72-1.77-9.33-3.5-14-5.25.44-1.59.94-3.06,1.25-4.58.49-2.36.9-4.75,1.25-7.13.14-.94.4-1.59,1.34-2.05,1.72-.85,3.35-1.87,5.01-2.84.21-.12.34-.36.51-.54.36.18.71.36,1.43.71-2.28,2.12-4.36,4.06-6.44,6l.21.23c1.45-.1,2.91-.2,4.36-.3.02.08.03.16.05.25-2.24,1.39-4.47,2.79-6.71,4.18,4.49.47,8.89.85,13.13,2.38l-5.19-6.62c.06-.06.11-.11.17-.17,1.83,1.08,3.66,2.16,5.74,3.4-.29-.61-.43-.93-.59-1.24-1.24-2.4-2.46-4.81-3.73-7.2-.34-.64-.34-1.13.04-1.76,1.24-2.07,2.42-4.19,3.62-6.29.25-.44.48-.89.71-1.33-.06-.05-.12-.11-.17-.16-1.54.7-3.09,1.41-4.76,2.17,1.36-2.75,2.63-5.32,3.91-7.9-.08-.05-.17-.11-.25-.16-1.58.48-3.15.97-4.89,1.5.92-1.78,1.75-3.38,2.63-5.07-1.95-.47-4.11-.23-5.17-2.46-.18.61-.3,1.1-.27,1.58.04.78-.23,1.18-1.03,1.3-.67.1-1.31.35-2.14.58,1.74,1.52,3.31,2.9,5.03,4.4-2.32.54-4.44,1.03-6.82,1.58,2.81,1.77,5.39,3.4,7.96,5.02-.04.11-.07.22-.11.33h-6.04c1.71,1.51,3.18,2.79,4.62,4.11.3.27.49.65.73.99ZM163.31,121.1c.02.13.04.26.06.39,1.38,0,2.76.02,4.14-.01.7-.02,1.03.21,1.05.95.02.73.18,1.45.27,2.18.14-.04.23-.04.26-.08.14-.21.28-.41.38-.64.55-1.37,1.28-2.45,3.12-2.07-2.08-.79-1.2-3.09-2.33-4.45-2.35,1.26-4.65,2.49-6.95,3.72Z"/>
  <path d="M154.08,158.28c-2.82,2.22-5.63,4.46-8.47,6.65-.81.63-1.73,1.13-2.71,1.77-2.62-4.11-5.23-8.2-7.83-12.29,1.36-.92,2.73-1.71,3.92-2.7,1.45-1.2,2.82-2.51,4.08-3.9.53-.58.93-.72,1.62-.53,2.15.59,4.31,1.14,6.62,1.75-.51-1.88-.94-3.7-1.5-5.48-.38-1.21-.23-2.07.65-3.14,2.19-2.65,4.13-5.51,6.28-8.43,3.78,2.72,7.71,5.56,11.65,8.4-2.79,5.24-6.28,9.81-10.27,14.01-1.3,1.36-2.7,2.62-4.06,3.93-.02-1.24.05-2.48-.07-3.71-.1-1.05.35-1.48,1.26-1.8,1.95-.69,3.86-1.49,5.78-2.24-1.6-.53-3.18-.85-4.75-1.22-.34-.08-.62-.39-.93-.6,2.43-.43,4.86-.86,7.45-1.31-3.34-2.26-6.59-4.45-10.06-6.79.94,2.89,1.8,5.52,2.65,8.14-.83-1.42-1.65-2.83-2.48-4.25-.34,1.73-.51,3.42-.59,5.11-.03.66-.22.94-.9,1.02-1.27.16-2.52.42-3.83.65.09.3.16.54.27.92-1.54-.74-2.95-1.42-4.36-2.1-.07.07-.15.15-.22.22,1.81,3.56,3.63,7.13,5.44,10.69.15-.04.29-.08.44-.12v-6.64c1.04.9,1.8,1.6,2.59,2.24.76.61,1.56,1.18,2.35,1.76ZM156.09,136.16c-.09.03-.17.07-.26.1.53,2.35,1.07,4.71,1.62,7.14,1.3-.36,2.47-.66,3.61-1.01.18-.06.42-.32.43-.5.04-1.29.02-2.59.02-4.01-.88.29-1.64.49-2.35.8-.56.24-.89.15-1.26-.33-.57-.76-1.21-1.46-1.82-2.19ZM139.16,154.13c.59,1.65,1.48,3.08-.37,4.27.81-.03,1.47-.03,2.07-.2.6-.17.91,0,1.18.53.42.84.89,1.66,1.43,2.64.7-1.93,1.33-3.68,1.99-5.51-2.1-.58-4.06-1.12-6.29-1.73Z"/>
  <path d="M57.65,158.4c-2.97-3.25-6.09-6.39-8.85-9.8-2.02-2.5-3.59-5.38-5.35-8.09-.21-.32-.37-.68-.58-1.08,4.3-2.4,8.55-4.77,12.87-7.18.47.76.89,1.5,1.37,2.19,1.47,2.1,2.95,4.19,4.47,6.25.39.53.55.96.33,1.64-.7,2.15-1.3,4.32-1.98,6.59,2.3-.55,4.5-1.06,6.69-1.63.67-.17,1.04.02,1.56.48,2.1,1.85,4.29,3.61,6.47,5.39.46.37.98.67,1.56,1.07-2.85,4.07-5.65,8.05-8.49,12.11-3.57-2.5-7.1-4.88-10.09-7.96,1.46-1.33,2.93-2.65,4.67-4.22v6.75c.11.02.21.04.32.06,1.9-3.55,3.79-7.11,5.82-10.9-1.6.6-2.89,1.08-3.87,1.45-1.76-1.16-3.68-.31-5.23-1.04.12-1.72.25-3.44.39-5.4-1.08,1.2-1.98,2.22-2.89,3.23l-.21-.18c.98-2.55,1.96-5.09,2.94-7.64-.09-.06-.17-.12-.26-.18-3.51,2.49-7.02,4.97-10.53,7.46.04.09.09.17.13.26,2.17.18,4.33.35,6.5.53.01.07.03.14.04.21-1.57.59-3.14,1.18-4.94,1.86,2.26.85,4.21,1.62,6.18,2.31.66.23.86.55.85,1.23-.02,1.42.07,2.83.12,4.25ZM55.64,136.15c-.06-.02-.13-.04-.19-.07-.62.77-1.28,1.51-1.86,2.31-.34.46-.65.53-1.16.32-.74-.3-1.51-.52-2.4-.82,0,1.43-.02,2.7.02,3.97,0,.18.23.46.42.52,1.23.4,2.48.75,3.83,1.16.46-2.53.9-4.96,1.35-7.39ZM67.94,161.3c.27-.48.5-.79.63-1.15.5-1.37,1.29-2.22,2.9-1.81.09.02.22-.08.43-.17-1.59-1.27-.06-2.5-.07-3.87-1.97.59-3.87,1.15-5.85,1.74.68,1.8,1.29,3.45,1.97,5.25Z"/>
  <path d="M60.18,61.61c.6,2.14,1.17,4.12,1.68,6.11.08.31.03.81-.17,1.03-2.62,2.8-4.76,5.94-6.58,9.3-.08.15-.18.29-.34.55-4.04-2.92-8.03-5.8-12.08-8.72,6.75-10.75,15.21-19.68,25.96-26.54,2.76,4.03,5.46,7.98,8.25,12.05-.41.23-.79.45-1.17.67-2.81,1.62-5.56,3.32-7.74,5.8-.24.27-.81.37-1.21.34-2.16-.16-4.32-.38-6.6-.59ZM61.9,56.8c-1.25-1.66-2.5-3.32-3.93-5.22-.31,1.61-.62,2.95-.8,4.31-.1.79-.41,1.27-1.08,1.68-1.79,1.11-3.53,2.3-5.28,3.46,1.42.21,2.76.29,4.09.19,1.01-.07,1.55.28,1.93,1.2.43,1.05,1.02,2.03,1.54,3.03.49-1.71.81-3.31,1.05-4.92.09-.61.33-.83.93-.89,1.24-.13,2.47-.35,3.83-.55-.87-.88-1.58-1.6-2.3-2.33.79.38,1.58.76,2.37,1.13,1.02.48,2.05.97,3.07,1.45l.19-.25c-1.62-3.25-3.25-6.5-4.87-9.75-.33.8-.43,1.52-.47,2.25-.1,1.73-.17,3.47-.26,5.21ZM55.68,73.91l.2-.28c-.39-1.99-.78-3.98-1.22-6.26,1.25.69,2.21,1.23,3.28,1.82-.82-2.56-1.58-4.94-2.35-7.32-2.52.78-4.96,1.53-7.4,2.28,1.44.65,2.84,1.03,4.22,1.5.43.15,1.1.53,1.1.8,0,.8.34,1.81-.89,2.23-.95.32-2.29.65-2.63,1.36-.38.81.16,2.05.31,3.11.01.09.08.17.18.36,1.76-.91,3.58-2.18,5.21.41ZM71.94,56.93c-.35-1-.88-1.79-.8-2.52.06-.66.79-1.25,1.28-1.95-.63.06-1.17.05-1.68.16-.74.15-1.16-.04-1.46-.79-.34-.85-.84-1.63-1.37-2.63-.72,2.08-1.38,3.97-2.06,5.93,2.03.6,3.95,1.16,6.1,1.8Z"/>
  <path d="M105.39,183.73c1.11-.69,2.67-.34,3.65.68.94.98,1.29,2.4.72,3.27-.5-.96-.79-2.06-1.5-2.72-.69-.63-1.8-.8-2.88-1.24Z"/>
  <path d="M103.35,197.88c-1.7.56-3.49-.3-4.1-1.98,1.41.68,2.66,1.28,4.1,1.98Z"/>
  <path d="M104.87,193.07c.24.96.48,1.91.76,3.05-1.09-.42-1.55-2.02-1.12-2.99.12-.02.24-.04.36-.06Z"/>
  <path d="M102.56,192.07c-.88.6-1.63,1.3-2.85,1.25.59-1.16,1.96-1.77,2.85-1.25Z"/>
  <path d="M100.94,187.04c1.24,0,2.06,1.37,1.54,2.56-.48-.79-.95-1.58-1.54-2.56Z"/>
  <path d="M107.3,191.47c.73,0,1.32-.03,1.9.02.17.02.32.28.48.43-.17.13-.35.39-.52.38-.64-.04-1.48.31-1.86-.83Z"/>
  <path d="M110.92,194.15c.28.88-.43,2.11-1.01,2.14-.12,0-.32-.06-.35-.14-.05-.14-.06-.37.03-.48.38-.48.81-.93,1.33-1.52Z"/>
  <path d="M111.62,190.55c.8.42,1.17,1.45.86,1.93-.06.1-.25.22-.33.2-.14-.04-.34-.19-.36-.31-.08-.55-.11-1.1-.17-1.82Z"/>
  <path d="M106.3,187.3c.86.83.32,1.2-.09,1.54-.12.1-.4,0-.61,0,.22-.48.43-.96.69-1.54Z"/>
  <path d="M98.71,19.3c-.82-1.11.9-4.34,2.84-4.94-1.02,1.77-1.93,3.35-2.84,4.94Z"/>
  <path d="M103.7,26.39c-1.28.7-2.18-.03-3.02-.73-.73-.6-1.4-1.32-1.4-2.33l.28-.18c.58.66,1.08,1.43,1.77,1.96.7.55,1.58.87,2.38,1.29Z"/>
  <path d="M105,17.39c.21.57.44,1.13.63,1.71.04.13-.03.37-.14.44-.1.07-.39.04-.44-.05-.41-.63-.75-1.29-.43-2.03.13-.02.26-.05.39-.07Z"/>
  <path d="M107.6,24.82c-.84-.63-.81-1.45-.86-2.33.94.32,1.22,1.08.86,2.33Z"/>
  <path d="M103.36,20.96c-.27.82-1.31,1.39-1.74,1.13-.12-.07-.24-.29-.22-.42.03-.17.17-.41.3-.45.49-.12,1-.17,1.66-.26Z"/>
  <path d="M108.52,18.79c-.23-.68-.46-1.37-.69-2.05.08-.07.15-.14.23-.2.48.46.62,1.23.73,2.02-.09.08-.18.16-.27.24Z"/>
  <path d="M106.03,125.5c-10.77.04-19.57-8.91-19.62-19.96-.05-10.88,8.56-19.7,19.27-19.73,10.92-.04,19.62,8.62,19.67,19.56.05,11.01-8.66,20.09-19.32,20.14ZM120.45,106.99c.97.16,1.3-.17,1.17-1.03-.5-3.32-3.46-5.95-6.78-6.02-3.46-.07-6.84,2.5-7.47,5.7-.21,1.06.03,1.35,1.13,1.35,3.99,0,7.97,0,11.96,0ZM96.27,106.55s0-.08,0-.12c1.88,0,3.77.01,5.65,0,1.49-.01,1.69-.3,1.28-1.72-1.05-3.6-4.58-5.46-8.58-4.45-2.61.66-4.57,2.1-5.27,4.85-.28,1.08.03,1.44,1.16,1.45,1.92.02,3.84,0,5.76,0ZM121.75,97.31c-.29-.3-.6-.74-1.02-1.01-3.02-1.87-9.04-1.6-11.92.54-.33.25-.41.84-.6,1.28.44,0,.9.09,1.31-.02,1.6-.43,3.15-1.11,4.78-1.36,2.14-.34,4.25.05,6.18,1.15.54.31,1.02.35,1.28-.59ZM103.25,97.5c-.2-.19-.46-.54-.8-.75-2.06-1.28-4.36-1.69-6.74-1.65-1.83.03-3.64.31-5.2,1.33-.37.24-.47.88-.7,1.34.45,0,.91.05,1.34-.04,1.45-.32,2.86-.86,4.32-1,2.31-.23,4.52.32,6.57,1.46.67.37,1.25.11,1.21-.69ZM105.66,112.9c-.32-.36-.51-.61-.73-.83-1.25-1.23-2.78-1.19-3.85.17-.23.3-.11.87-.16,1.32.37-.05.81.02,1.1-.16,1.31-.82,1.38-.83,2.31.37.97,1.25,1.36,1.27,2.4.09,1.14-1.29,1.12-1.27,2.58-.29.26.17.69.09,1.04.12.02-.32.15-.7.04-.97-.67-1.5-2.57-1.93-3.83-.87-.32.27-.55.64-.89,1.04ZM105.7,118.68c1.06-.25,2.03-.43,2.97-.72.55-.17,1.08-.53.77-1.26-.29-.68-.83-.37-1.27-.2-1.71.68-3.39.65-5.06-.11-.49-.22-1.06-.4-1.22.25-.08.32.28.99.59,1.11,1.04.4,2.16.63,3.22.92ZM93.38,112.11c.42,0,.87.09,1.26-.03.31-.09.68-.39.76-.67.05-.2-.31-.73-.53-.75-1.08-.11-2.18-.14-3.26-.09-.21,0-.57.49-.56.74,0,.23.38.58.65.65.54.13,1.12.11,1.68.15ZM118.03,112.1s0-.02,0-.02c.46,0,.95.09,1.38-.03.35-.09.63-.42.94-.64-.27-.29-.51-.8-.8-.82-.99-.08-1.99-.05-2.98.06-.25.03-.64.54-.61.78.04.26.47.56.79.65.4.11.85.03,1.28.03ZM94.98,118.73s0,.06,0,.08c.49,0,1,.07,1.47-.03.28-.06.73-.42.71-.59-.04-.31-.35-.81-.59-.84-1.05-.1-2.11-.1-3.16-.03-.21.01-.54.49-.53.75,0,.22.37.57.63.63.47.1.98.03,1.48.03ZM116.24,118.78h0c.46-.01.94.07,1.37-.04.31-.08.57-.4.84-.61-.25-.29-.48-.81-.76-.83-.98-.09-1.98-.06-2.96.04-.26.03-.47.5-.7.77.27.22.52.56.83.64.43.11.91.03,1.37.03ZM104.14,94.45c.33-.38.71-.68.66-.79-.17-.37-.48-.67-.74-1-.23.22-.68.48-.65.65.07.35.39.64.73,1.13ZM107.03,90.19c.34-.46.69-.73.71-1.02,0-.23-.4-.47-.62-.7-.25.26-.61.49-.71.79-.06.17.31.49.63.93ZM101.07,92.87c.32-.42.67-.67.68-.93,0-.26-.34-.52-.54-.78-.25.23-.65.44-.71.71-.05.22.3.54.58,1ZM114.47,91.39c-.39-.33-.66-.73-.86-.7-.29.05-.66.37-.74.65-.05.18.36.71.54.7.31-.02.6-.34,1.06-.64ZM108.18,93.36c-.47-.33-.86-.7-.94-.65-.3.21-.56.54-.71.89-.04.09.43.57.55.53.33-.11.6-.4,1.1-.77ZM94.71,92.94c.3-.48.63-.78.63-1.07,0-.23-.41-.46-.64-.69-.23.26-.6.5-.65.8-.04.21.33.5.66.96ZM110.19,92.99c.35-.53.68-.81.69-1.1,0-.24-.37-.49-.57-.73-.25.21-.67.41-.69.65-.03.29.28.61.57,1.18ZM98.83,91.36c-.37-.3-.62-.65-.86-.65-.24,0-.71.42-.67.54.08.31.36.68.64.77.17.06.5-.35.9-.66ZM117.7,92.1c-.39-.39-.6-.74-.9-.84-.14-.05-.64.42-.62.62.03.29.33.65.6.78.15.07.49-.29.92-.56ZM104.21,88.16c-.32.47-.65.74-.62.98.02.26.37.49.58.74.23-.2.66-.41.66-.6,0-.31-.31-.6-.61-1.12Z"/>
  <path d="M119.93,106.42h-10.09c.63-2.03,2.88-3.59,5.11-3.63,2.31-.04,4.2,1.33,4.98,3.63Z"/>
  <path d="M101.21,104.77h-9.79c.39-1.68,2.73-3.08,5.19-3.09,2.26-.01,4.09,1.16,4.6,3.09Z"/>
</svg>