<?xml version="1.0" encoding="UTF-8"?>
<svg id="Ebene_1" xmlns="http://www.w3.org/2000/svg" viewBox="0 0 539.31 542.02">
  <path d="M270.03,320.79c-27.75.21-50.61-21.51-50.29-48.6.32-27.76,20.33-49.36,47.95-49.74,32.71-.44,50.09,23.19,50.45,48.98.38,27.34-20.96,49.15-48.1,49.36h-.01ZM256.04,291.92c-7-3.99-10.25-10.4-11.78-18.26-4.66,7.38-11.53,13.01-15.46,20.77.23.44.45.87.68,1.31,8.86-1.27,17.71-2.54,26.57-3.81.04.45-.05.96.14,1.34,3.51,6.9,7.01,13.79,10.62,20.64.6,1.13,1.69,1.99,3.12,3.62,3.7-8.55,7.07-16.36,10.68-24.72-8.87,3.38-16.87,4.25-24.56-.88h0ZM255.52,251.14c1.19-.36,2.41-.64,3.55-1.11,13.83-5.75,28.79,1.2,32.99,15.36.45,1.51.73,3.07,1.29,5.49,4.97-6.56,9.57-12.47,13.94-18.53.77-1.07.6-2.83.86-4.27-1.44-.2-2.9-.71-4.3-.55-6.07.67-12.15,1.32-18.15,2.4-3.99.72-5.98-.44-7.72-4.19-2.94-6.34-6.68-12.3-10.08-18.43-.4.05-.79.09-1.19.14-3.7,7.93-7.4,15.87-11.11,23.81-8.7-.45-17.39-.9-26.09-1.35-.28.38-.56.76-.84,1.14,5.04,6.95,10.08,13.9,15.78,21.75.27-2.2.17-3.41.58-4.39,1.76-4.15,3.44-8.37,5.63-12.29,1.09-1.95,3.2-3.34,4.85-4.98h0ZM281.38,292.52c8.52.89,16.3,1.84,24.1,2.46,3.04.24,4.09-1.94,2-4.72-4.4-5.87-9.18-11.46-14.04-17.45-3.96,12.49-4.53,13.44-12.06,19.71h0Z" style="fill: #ff9100;"/>
  <path d="M240.71,320.82c3.1,1.44,5.93,2.75,8.95,4.15-5.89,15.33-6.22,32.32-15.97,46.12-30.27-7.74-58.61-36.52-66.73-69.39,7.53-2.93,15.08-5.57,23.34-6.04,8.59-.48,17.02-1.97,24.58-6.92,1.04,2.54,1.95,4.79,3,7.34-4.38,2-8.83,3.77-13.01,6.03-4.4,2.39-8.54,5.25-12.79,7.92-2.18,1.37-4.4,2.7-6.45,4.24-.67.51-.87,1.64-1.29,2.48.91.29,2.01,1.06,2.68.78,1.7-.71,3.35-1.72,4.76-2.92,5.82-4.96,12.18-8.63,19.89-9.95,2.92-.5,5.63-2.19,8.32-3.3,5.17,5.7,10.5,11.58,15.55,17.14-2.41,4.74-4.92,9.59-7.35,14.48-2.77,5.56-6.2,10.46-11.84,13.57-.96.53-1.27,2.26-1.87,3.43,1.33.12,3.01.82,3.93.26,2.46-1.5,5.12-3.16,6.77-5.43,4.55-6.26,8.64-12.85,12.87-19.33.94-1.45,1.72-3,2.68-4.68l-.02.02ZM192.65,342.62c2.13-.35,3.41-.39,4.57-.78,9.1-3.06,17.5-7.41,24.63-13.94,7.12-6.52,7.09-8.3,0-14.81-4.37-4.01-5.6-4.06-10.06,0-7.57,6.9-13.17,15.25-17.59,24.42-.63,1.32-.87,2.83-1.54,5.09v.02Z" style="fill: #ff9100;"/>
  <path d="M304.9,371.42c-5.11-7.95-7.44-16.48-9.5-25.21-1.71-7.24-4.15-14.31-6.28-21.51,1.62-.6,4.14-1.54,7.21-2.68,1.48,2.63,3.06,5.32,4.52,8.07,4.13,7.79,9.29,14.71,16.84,19.52.82.53,2.14.27,3.23.38-.37-1.12-.72-2.24-1.13-3.35-.07-.19-.32-.38-.53-.45-7.71-2.85-10.23-9.81-13.22-16.48-1.53-3.41-3.45-6.64-5.03-9.63,5.56-5.98,11.1-11.93,16.83-18.09,4.3,2.57,9.06,5.82,14.19,8.34,4.26,2.1,8.89,3.53,13.47,4.89,1.7.51,3.75.24,5.54-.16.8-.18,1.93-1.64,1.82-2.35-.12-.81-1.41-1.51-2.29-2.12-.32-.22-.98-.2-1.38-.02-5.05,2.22-8.72-1.04-12.63-3.19-4.92-2.72-9.75-5.6-14.7-8.28-1.75-.94-2.56-1.79-1.43-3.79.91-1.62,1.47-3.44,2.28-5.41,16.07,3.43,32.94,3.46,48.15,12.71-10.23,33.64-32.88,55.88-65.97,68.8h.01ZM343.82,342.41c.32-.24.64-.47.96-.71-.76-2.01-1.14-4.28-2.34-5.98-4.57-6.5-8.87-13.31-14.27-19.07-7.8-8.31-9.12-6.87-16.39,1-2.74,2.96-2.64,5.55.33,8.33,9.04,8.43,19.87,13.45,31.71,16.44h0Z" style="fill: #ff9100;"/>
  <path d="M135.5,375.36c-33.78,12.61-67.89,25.35-103.02,38.47,28.03-25.98,55.32-51.27,82.48-76.45,6.78,12.53,13.56,25.08,20.54,37.99h0Z" style="fill: #ff9100;"/>
  <path d="M268.65,0c7.34,35.2,14.69,70.4,22.08,105.82h-42.6c6.35-35.31,12.68-70.47,19.01-105.64.51-.06,1.01-.12,1.52-.18h0Z" style="fill: #ff9100;"/>
  <path d="M247.97,436.87h43.02c-7.04,35.11-14.05,70.1-21.06,105.09-.48.02-.95.04-1.43.06-6.82-34.92-13.63-69.84-20.53-105.15h0Z" style="fill: #ff9100;"/>
  <path d="M31.94,132.06c34.54,12.19,69.07,24.39,103.24,36.45-6.4,12.4-12.66,24.54-19.07,36.96-28.09-24.32-56.26-48.71-84.43-73.1l.27-.31h0Z" style="fill: #ff9100;"/>
  <path d="M434.44,293.08v-42.58c35.57,6.89,71.26,13.79,104.87,20.3-33.47,7.11-69.03,14.67-104.87,22.28Z" style="fill: #ff9100;"/>
  <path d="M0,278.89c34.4-12.45,69.31-19.91,104.14-27.38v41.97c-17.4-2.95-34.42-6.24-51.56-8.64-17.17-2.41-34.47-3.94-52.58-5.95h0Z" style="fill: #ff9100;"/>
  <path d="M134.89,38.93c23.74,26.25,47.56,52.6,71.35,78.9-12.84,6.64-25.32,13.08-38.36,19.82-11.01-32.94-21.99-65.8-32.99-98.72h0Z" style="fill: #ff9100;"/>
  <path d="M502.29,408.27c-33.45-11.03-66.9-22.06-100.28-33.07,6.91-12.39,13.66-24.5,20.54-36.85,26.67,23.07,53.37,46.16,80.07,69.25-.11.22-.22.44-.33.66h0Z" style="fill: #ff9100;"/>
  <path d="M302.05,224.75c7.05-7.5,11.5-16.39,13.59-26.52.45-2.17,1.4-4.24,1.85-6.41.16-.8-.47-1.77-.73-2.66-1.02.34-2.24.45-3.01,1.1-.61.52-.89,1.68-.94,2.57-.45,8-4.69,14.09-9.78,19.81-2.39,2.69-4.61,5.53-7.15,8.59-2.42-1.08-5.24-2.35-8.2-3.67,6.1-15.53,6.96-32.61,16.56-47.33,24.8,8.66,43.5,24.67,56.48,47.43-.31.54-.39.86-.55.9-12.77,3.75-23.98,10.57-35.11,17.61-2.36,1.5-5.14,3.86-7.41,3.54-2.09-.29-3.69-3.72-5.64-5.62-3.19-3.1-6.49-6.09-9.97-9.34h.01ZM343.2,198.3c-1.51.4-2.11.47-2.64.71-10.91,4.98-20.22,12.12-28.15,21.05-.71.8-1.01,2.48-.73,3.55,1.49,5.88,7.88,8.07,12.01,3.84,6.29-6.44,12.21-13.26,18.07-20.1,1.38-1.61,2.15-3.89,2.71-5.99.23-.88-.84-2.11-1.26-3.06h0Z" style="fill: #ff9100;"/>
  <path d="M503.95,134.01c-27.29,23.78-54.57,47.56-82.07,71.53-6.48-12.72-12.93-25.4-19.55-38.39,33.94-9.64,68.39-19.17,101.62-33.14Z" style="fill: #ff9100;"/>
  <path d="M165.47,295.43c-4.55-25.54-1.99-49.35,9.15-73.04,5.04,2.62,9.87,4.89,14.45,7.59,3.73,2.21,6.95,5.3,10.74,7.38,5.8,3.19,11.89,5.86,18.06,8.85-.88,2.09-2.14,5.09-3.53,8.39-2.28-.66-4.69-1.15-6.92-2.06-6.5-2.65-13.25-3.62-20.21-4.28-4.63-.44-9.08-2.73-13.65-4.03-1.11-.32-2.4,0-3.61,0,.55,1.13.85,2.98,1.7,3.28,5.49,1.94,10.99,4.28,16.69,5.06,6.2.85,12.29.91,17.53,5.13,1.91,1.54,4.67,2.04,6.29,2.71.36,7.08.76,13.8.98,20.54.02.77-.83,2-1.56,2.28-3.7,1.42-7.41,3.24-11.27,3.75-11.76,1.57-23.58,2.66-34.83,8.42v.03ZM169.86,269.61c.91.75,1.37,1.31,1.96,1.59,9.41,4.41,19.46,6.02,29.73,6.3,1.25.03,3.09-1.67,3.69-3,.77-1.73.79-3.9.74-5.87-.08-3.21-1.74-5.03-5.16-4.77-4.81.36-9.64.52-14.41,1.15-5.52.73-11.27.9-16.54,4.61h0Z" style="fill: #ff9100;"/>
  <path d="M404.15,42.32c-10.96,30.3-22.54,62.35-34.28,94.81-12.55-6.48-25.4-13.12-38.54-19.9,24.75-25.46,49.43-50.85,72.82-74.91Z" style="fill: #ff9100;"/>
  <path d="M364.07,224.35c10.35,22.37,13.24,45.87,8.13,71.34-14.92-8.82-31.77-7.57-46.67-11.1v-25.08c4.97-1,10.47-1.97,15.9-3.24,7.61-1.78,14.96-4.24,20.45-10.24.76-.84.87-2.28,1.28-3.44-1.4.13-2.82.2-4.21.43-.37.06-.77.58-.96.98-2.66,5.61-7.99,5.98-13.11,6.57-2.91.34-5.88.1-8.81.29-4.29.28-8.57.71-13.15,1.11-.74-1.69-1.75-4.02-2.78-6.36,14.15-7.72,27.27-17.46,43.92-21.26h0ZM368.69,272.23c-.03-.6-.06-1.19-.09-1.79-1.65-.75-3.23-1.84-4.96-2.18-7.7-1.51-15.4-3.12-23.18-4.08-6.66-.82-9.36,2.45-8.57,9.29.3,2.55,1.46,4.22,4.31,4,7.13-.54,14.31-.8,21.38-1.77,3.79-.52,7.42-2.28,11.11-3.48h0Z" style="fill: #ff9100;"/>
  <path d="M165.2,404.91c12.79,6.78,25.19,13.36,38.01,20.16-22.66,24.28-45.3,48.54-68.48,73.38,8.14-32.16,20.85-62.31,30.47-93.54h0Z" style="fill: #ff9100;"/>
  <path d="M248.48,218.71c-1.74.68-4.21,1.65-7.1,2.79-.99-1.97-2.03-3.89-2.95-5.86-4.19-8.97-9.84-16.8-17.67-22.98-1.34-1.05-2.7-2.36-4.19-.51-1.5,1.87.06,3.05,1.43,3.97,6.41,4.29,10.58,10.11,12.97,17.46,1.26,3.87,3.37,7.46,4.83,10.61-4.28,4.76-8.42,9.49-12.76,14.04-.67.7-2.46,1.14-3.3.76-5.41-2.45-11.08-4.59-15.93-7.91-8.16-5.58-16.07-11.46-25.94-14.62,4.21-7.44,9.26-13.86,15-19.77,10.74-11.05,23.34-19.21,37.77-24.62,2.12-.79,3.02-.41,4.01,1.66,4.11,8.52,6.95,17.34,8.46,26.74.98,6.12,3.47,12,5.36,18.24h0ZM226.76,222.08c-.68-1.05-1.27-2.74-2.45-3.67-7.44-5.85-14.89-11.72-22.64-17.14-2.02-1.42-5.13-1.29-7.74-1.88.77,2.69.83,5.95,2.44,7.97,5.74,7.24,11.95,14.12,18.11,21.01,1.65,1.84,3.77,3.38,6.52,1.89,3.06-1.65,4.95-4.2,5.75-8.19h0Z" style="fill: #ff9100;"/>
  <path d="M404.51,498.4c-24.02-24.68-48.04-49.37-72.19-74.19,8.25-3.66,16.38-7.23,24.47-10.88,3.42-1.54,6.88-3.07,10.12-4.95,2.91-1.69,4.24-.62,5.22,2.07,2.49,6.84,4.91,13.7,7.54,20.48,8.43,21.76,16.95,43.49,25.43,65.24.17.42.28.87.41,1.3-.33.31-.66.62-.99.92h-.01Z" style="fill: #ff9100;"/>
  <path d="M297.75,168.51c-8.06,12.68-8.86,27.1-13.18,40.42-2.2,6.78-2.2,6.75-9.02,6.43-3.28-.15-6.58-.27-9.86-.19-3.15.07-6.28.41-10.61.72-1.31-3.4-3.58-7.35-4.31-11.56-2.06-12-5.38-23.5-11.17-34.25-.16-.29-.14-.67-.22-1.13,19.17-5.37,38.33-6.19,58.36-.44h0ZM268.72,165.4c-.96,1.78-1.98,2.94-2.21,4.24-2.01,10.93-4.18,21.85-5.64,32.86-.65,4.94,2.16,6.59,8.88,6.62,4.88.02,7.22-1.91,6.91-6.71-.43-6.9-1.18-13.8-2.29-20.62-.89-5.47-1.67-11.12-5.65-16.39Z" style="fill: #ff9100;"/>
  <path d="M255.61,326.32c8.16,2.07,16.16,2.68,24.28,1.44.77-.12,2.2.85,2.52,1.64,1.73,4.21,3.81,8.41,4.64,12.83,2,10.68,4.78,21.01,10.56,30.89-19.13,5.42-37.84,4.7-57.11-.31,8.87-14.49,9.23-31.27,15.11-46.47v-.02ZM269.71,375.46c1.54-3.05,3.04-4.96,3.5-7.09,1.64-7.65,3.38-15.33,4.22-23.09,1.01-9.26-.75-10.75-9.96-10.61-5.52.08-8.01,2.14-7.15,7.48,1.47,9.08,3.65,18.06,5.79,27.02.45,1.88,1.97,3.51,3.61,6.28h-.01Z" style="fill: #ff9100;"/>
  <path d="M298.18,433.35c8.65-1.66,17.15-3.3,26.16-5.03.58,4.72,1.18,9.66,1.79,14.59,2.03,16.3,4.07,32.6,6.07,48.9.21,1.74.48,3.54.28,5.26-.13,1.1-.91,2.77-1.71,2.98-1.08.28-2.65-.34-3.66-1.06-.87-.62-1.37-1.88-1.83-2.94-8.92-20.41-17.8-40.84-26.68-61.26-.22-.51-.31-1.08-.41-1.44h-.01Z" style="fill: #ff9100;"/>
  <path d="M323.96,115.5c-8.67-2.67-16.95-5.23-25.52-7.87,4.07-9.24,8.14-18.45,12.19-27.67,5.24-11.93,10.37-23.9,15.75-35.76.88-1.94,2.78-3.42,4.21-5.12.52,2.27,1.69,4.61,1.46,6.8-2.36,22.31-4.95,44.59-7.48,66.88-.09.8-.35,1.57-.61,2.73h0Z" style="fill: #ff9100;"/>
  <path d="M433.48,302.52c4.97,2.28,9.74,4.46,14.5,6.65,14.93,6.86,29.85,13.73,44.77,20.61,1.06.49,2.38.82,3.07,1.65,1.15,1.39,2.72,3.17,2.63,4.69-.14,2.51-2.68,2.59-4.72,2.34-3.84-.48-7.67-1.07-11.49-1.72-18.27-3.14-36.53-6.32-55.09-9.54,2.08-8.1,4.12-16.08,6.33-24.67h0Z" style="fill: #ff9100;"/>
  <path d="M213.53,115.75c-1.27-9.89-2.55-19.65-3.79-29.42-1.33-10.49-2.64-20.98-3.92-31.47-.23-1.86-.57-3.77-.37-5.61.13-1.21.89-2.98,1.8-3.31,1.16-.42,2.98,0,4.1.72,1.09.7,1.86,2.13,2.4,3.39,8.27,19.57,16.48,39.17,24.7,58.76.08.19,0,.45,0,.65-8.24,2.08-16.47,4.15-24.92,6.28h-.01Z" style="fill: #ff9100;"/>
  <path d="M112.04,328.03c-24.5,4.56-48.84,8.57-73.87,7.41,21.75-12.05,44.59-21.62,66.95-32.85,2.33,8.57,4.57,16.78,6.92,25.44Z" style="fill: #ff9100;"/>
  <path d="M432.45,242.4c-2.24-8.66-4.38-16.92-6.63-25.57,25.16-2.51,50.09-5.96,75.21-7.31.14.39.27.79.41,1.18-.85.62-1.63,1.39-2.57,1.84-8.04,3.86-16.03,7.82-24.17,11.45-13.93,6.21-27.95,12.2-42.25,18.42h0Z" style="fill: #ff9100;"/>
  <path d="M159.86,143.44c-6.04,6.4-11.99,12.7-18.27,19.35-2.12-2.79-4.03-5.24-5.89-7.74-11.13-14.99-22.24-29.98-33.36-44.98-.77-1.04-1.67-2.03-2.16-3.2-.54-1.28-.68-2.73-1-4.1,1.41.3,3.08.21,4.19.96,7.98,5.38,15.86,10.89,23.74,16.42,10.28,7.22,20.52,14.49,30.77,21.75.83.59,1.62,1.25,1.99,1.54h0Z" style="fill: #ff9100;"/>
  <path d="M377.28,400.01c6.54-6.51,12.83-12.77,19.3-19.21,3.57,4.8,7.5,10.03,11.36,15.31,8.33,11.37,16.66,22.74,24.92,34.16,1.36,1.88,2.61,3.93,3.48,6.07.93,2.28-.22,3.37-2.6,2.7-.88-.25-1.75-.71-2.5-1.24-17.79-12.47-35.56-24.96-53.34-37.44-.39-.27-.84-.44-.63-.33v-.02Z" style="fill: #ff9100;"/>
  <path d="M112.46,217.65c-2.34,8.18-4.55,15.93-6.86,24.01-7.25-3.34-14.37-6.6-21.47-9.89-13.94-6.44-27.91-12.84-41.8-19.4-1.61-.76-2.77-2.47-4.14-3.73,1.89-.58,3.86-1.86,5.65-1.63,11.28,1.46,22.52,3.25,33.77,4.95,10.55,1.6,21.11,3.21,31.65,4.85,1.02.16,2.01.52,3.2.84Z" style="fill: #ff9100;"/>
  <path d="M142.07,378.46c6.08,6.94,11.8,13.46,17.85,20.36-20.05,14.37-40.1,28.74-60.16,43.12-.34-.25-.68-.5-1.02-.75,1.4-2.67,2.51-5.54,4.24-7.98,9.49-13.42,19.13-26.73,28.7-40.09,3.41-4.75,6.76-9.54,10.39-14.66Z" style="fill: #ff9100;"/>
  <path d="M437.08,103.58c-.68,1.54-1.1,3.27-2.08,4.59-13.19,17.95-26.45,35.85-39.55,53.56-6.46-6.67-12.71-13.13-19.15-19.79,19.38-12.6,39.16-26.64,59.84-39.29.31.31.62.62.94.92h0Z" style="fill: #ff9100;"/>
  <path d="M212.85,428.36c8.32,1.84,16.32,3.61,24.46,5.41-.12.63-.13,1.23-.36,1.73-8.16,18.57-16.3,37.15-24.56,55.67-.98,2.2-1.72,5.75-4.88,4.83-1.2-.35-2.11-4.22-1.91-6.38.98-10.87,2.33-21.7,3.63-32.54,1.13-9.43,2.36-18.84,3.61-28.72h.01Z" style="fill: #ff9100;"/>
  <path d="M323.88,372.06c8.32-6.02,16.46-11.91,24.75-17.91,8.98,9.34,18.39,19.11,27.96,29.06-9.58,9.03-21.02,17.07-33.81,23.63-6.42-11.8-12.77-23.49-18.91-34.78h.01ZM331.15,373.82c3.89,5.57,7.55,10.84,11.25,16.09,1.42,2.02,3.45,2.64,5.52,1.3,4.28-2.77,8.51-5.65,12.56-8.74,2.01-1.53,2.29-4.01.68-5.98-4.12-5.04-8.48-9.89-12.8-14.87-5.93,4.2-11.25,7.97-17.22,12.2h.01Z" style="fill: #ff9100;"/>
  <path d="M324.29,169.93c6.31-10.92,12.85-22.25,19.5-33.77,13.1,6.7,24.47,15.42,34.73,25.76-9.94,9.35-19.74,18.57-29.2,27.47-8.35-6.49-16.64-12.94-25.03-19.46ZM348.38,182.93c4.36-5.4,8.52-10.46,12.56-15.62,2.06-2.62,1.96-5.31-.8-7.39-3.73-2.82-7.56-5.51-11.42-8.14-2.08-1.42-4.13-.91-5.62.99-3.55,4.52-7,9.11-10.43,13.71-1.26,1.69-.96,3.25.72,4.57,4.79,3.77,9.55,7.57,14.98,11.87h0Z" style="fill: #ff9100;"/>
  <path d="M246.62,118.81c15.24-1.45,29.72-1.99,44.15-.14-2.47,13.14-4.87,25.92-7.24,38.54h-29.84c-2.3-12.5-4.64-25.24-7.06-38.4h-.01ZM279.07,152.15c.25-6.89.49-13.45.73-20.01.1-2.54-1.16-4.22-3.62-4.31-5.25-.18-10.52-.22-15.75.15-1.17.08-3.13,2.03-3.16,3.15-.14,6.32.12,12.65.46,18.97.04.72,1.46,1.94,2.26,1.96,6.09.17,12.19.09,19.06.09h.02Z" style="fill: #ff9100;"/>
  <path d="M370.2,218.42c-5.42-8.29-10.79-16.5-16.22-24.8,9.35-8.8,18.98-17.84,28.8-27.09,9.65,10.28,16.95,21.92,23.29,34.39-12.11,5.91-24.07,11.74-35.88,17.5h.01ZM391.41,197.81c-.76-1.87-1.15-3.53-2.04-4.85-2.07-3.12-4.35-6.1-6.59-9.1-1.81-2.43-4.1-2.62-6.45-.95-4.58,3.26-9.13,6.55-13.52,10.06-.7.56-1.01,2.59-.56,3.42,2.48,4.51,5.17,8.92,8.03,13.21.51.76,2.52,1.42,3.2,1.02,5.27-3.03,10.43-6.27,15.51-9.62,1.05-.69,1.63-2.12,2.41-3.18h0Z" style="fill: #ff9100;"/>
  <path d="M382.3,288.7v-30.07c13.26-2.04,26.28-4.04,39.64-6.1,1.19,14.16,1.6,27.82-.07,41.63-13.59-1.87-26.79-3.7-39.57-5.46ZM387.51,262.64c0,7.19-.07,13.38.09,19.57.02.77,1.18,2.13,1.86,2.16,5.84.27,11.7.33,17.55.37,3.3.02,5.05-2.01,5.19-5.04.21-4.43.27-8.92-.19-13.32-.14-1.35-2.16-3.51-3.42-3.58-6.85-.35-13.73-.17-21.08-.17h0Z" style="fill: #ff9100;"/>
  <path d="M337.38,410.56c-13.99,4.33-27.36,8.48-41.12,12.74-2.34-13.88-4.52-26.75-6.71-39.73,9.23-2.97,18.55-5.96,28.48-9.15,6.09,11.37,12.42,23.2,19.34,36.14h0ZM295.91,387.12c2.21,6.73,4.28,13.52,6.75,20.15.38,1.02,2.83,2.15,3.95,1.85,5.04-1.36,10.03-3.02,14.84-5.03,1.16-.49,2.41-2.91,2.19-4.19-1.25-7.17-4.23-13.74-7.73-20.1-6.63,2.43-12.96,4.74-20.01,7.32h.01Z" style="fill: #ff9100;"/>
  <path d="M371.85,322.28c3.09-9.15,6.19-18.31,9.34-27.63,12.93,1.98,26.18,4.01,39.68,6.08-3.2,13.75-6.87,26.97-13.35,39.22-12.13-6.01-24.04-11.92-35.67-17.68h0ZM398.52,327.48c1.34-1.25,3.11-2.22,3.81-3.69,1.8-3.78,3.18-7.77,4.62-11.72,1.17-3.21.21-5.52-3.23-6.51-5.51-1.58-11.03-3.14-16.54-4.69-1.86-.52-2.66.29-3.2,2.13-.92,3.14-2.16,6.19-3.39,9.23-2.92,7.21-2.97,7.26,4.2,10.15,4.33,1.74,8.76,3.26,13.72,5.1h.01Z" style="fill: #ff9100;"/>
  <path d="M241.08,423.49c-13.82-4.24-27.2-8.36-40.91-12.57,6.5-12.83,12.51-24.69,18.29-36.1,9.03,2.63,18.01,5.19,26.94,7.92.72.22,1.64,1.69,1.53,2.44-1.8,12.41-3.76,24.81-5.85,38.3h0ZM231.08,410.27c2.93-.24,4.65-1.58,5.37-3.94,1.78-5.81,3.37-11.67,4.99-17.52.54-1.95-.22-2.94-2.31-3.4-5.14-1.12-10.2-2.56-15.34-3.69-.82-.18-2.47.34-2.69.93-2.28,6-4.5,12.04-6.31,18.2-.34,1.17.81,3.72,1.9,4.2,4.67,2.04,9.58,3.54,14.4,5.23h0Z" style="fill: #ff9100;"/>
  <path d="M247.64,424.21c2.08-13.9,4.03-26.97,5.96-39.93h29.7c2.13,12.98,4.28,26.1,6.55,39.93h-42.21ZM258.08,390.02c0,6.72-.16,13.5.15,20.25.05,1.2,1.95,3.22,3.12,3.31,4.85.39,9.76.29,14.64.15,3.3-.09,4.88-2.37,4.88-5.37,0-5.74-.27-11.48-.67-17.21-.06-.8-1.53-2.15-2.32-2.13-6.3.17-12.59.6-19.79,1h0Z" style="fill: #ff9100;"/>
  <path d="M189.66,354.92c7.32,5.41,15.3,11.31,23.28,17.21-5.98,11.55-12.05,23.27-18.19,35.14-12.6-6.79-23.91-14.8-33.96-24.32,9.8-9.51,19.38-18.82,28.87-28.03ZM189.51,362c-4.15,5.18-8.22,10.19-12.2,15.26-2.09,2.67-1.95,5.32.94,7.28,3.76,2.55,7.66,4.92,11.55,7.27,2.43,1.47,4.75.77,6.22-1.36,3.4-4.91,6.61-9.96,9.68-15.08.41-.68-.08-2.64-.78-3.13-4.88-3.43-9.92-6.64-15.42-10.24h0Z" style="fill: #ff9100;"/>
  <path d="M194.04,137.45c6.36,11.5,12.55,22.68,18.64,33.69-8.07,6.19-16.22,12.43-24.51,18.8-9.28-8.89-18.76-17.97-28.45-27.26,10.28-9.98,21.69-18.27,34.33-25.23h-.01ZM206.58,169.43c-4.35-5.52-8.47-10.74-12.59-15.96-1.46-1.85-3.29-2.29-5.25-.97-3.95,2.67-7.91,5.34-11.67,8.25-2.38,1.84-2.68,4.57-.89,6.9,4.02,5.24,8.31,10.27,12.53,15.44,6.27-4.8,11.92-9.11,17.87-13.67h0Z" style="fill: #ff9100;"/>
  <path d="M183.9,194.78c-5.41,7.91-10.69,15.62-16.05,23.45-11.78-4.99-23.82-10.09-36.25-15.35,5.89-13.21,13.91-24.78,23.39-35.69,9.76,9.32,19.4,18.52,28.91,27.59h0ZM177.65,194.3c-5.76-3.86-11.23-7.6-16.79-11.21-1.95-1.27-4.03-.78-5.33,1.01-2.94,4.04-5.76,8.19-8.4,12.43-1.29,2.06-.74,4.15,1.46,5.4,5.28,3,10.58,5.96,15.97,8.76.64.33,2.33-.18,2.78-.83,3.34-4.8,6.49-9.74,10.3-15.56h0Z" style="fill: #ff9100;"/>
  <path d="M129.3,209.07c12.25,4.97,24.25,9.85,35.89,14.57-3.02,9.9-5.98,19.58-8.96,29.36-12.37-1.33-25.25-2.72-38.44-4.14,2.44-13.78,5.62-27.12,11.52-39.8h0ZM152.49,247.96c1.98-6.52,3.63-12.12,5.41-17.68.64-2,.14-3.04-1.88-3.63-5.17-1.51-10.31-3.13-15.47-4.67-2.88-.86-5.34-.04-6.39,2.78-1.67,4.47-3.03,9.06-4.3,13.65-.63,2.27.56,3.93,2.82,4.52,6.54,1.71,13.1,3.33,19.8,5.02h0Z" style="fill: #ff9100;"/>
  <path d="M240.16,120.73c2.41,12.78,4.75,25.19,7.07,37.52-9.47,3.27-18.94,6.53-28.79,9.93-6.04-10.91-12.26-22.15-18.64-33.66,12.98-6.46,26.3-10.63,40.35-13.78h.01ZM230.86,132.63c-5.27,2.04-10.2,3.77-14.98,5.86-2.28,1-3.17,3.23-2.27,5.65,2.01,5.36,4.13,10.69,6.43,15.92.31.71,2.11,1.41,2.94,1.16,5.39-1.6,10.72-3.4,16-5.33.75-.27,1.75-1.79,1.56-2.41-1.75-5.82-3.58-11.62-5.74-17.3-.51-1.33-2.34-2.15-3.95-3.55h.01Z" style="fill: #ff9100;"/>
  <path d="M420.92,245.97c-13.5,2.18-26.56,4.28-39.58,6.38-2.74-9.32-5.53-18.81-8.38-28.48,11.45-5.43,23.3-11.05,35.54-16.86,5.64,12.57,9.69,25.45,12.42,38.96h0ZM385.56,247.21c6.65-2.13,13.26-3.99,19.63-6.48,1.37-.54,2.86-3.59,2.53-5.08-1.04-4.64-2.73-9.17-4.64-13.54-.49-1.13-2.99-2.38-4.13-2.05-6.59,1.87-13.06,4.19-19.65,6.39,2.13,7.07,4.01,13.32,6.26,20.78v-.02Z" style="fill: #ff9100;"/>
  <path d="M289.54,157.67c2.55-12.14,5.16-24.58,7.83-37.31,14.14,2.58,27.41,6.9,40.41,13.23-6.68,11.67-13.22,23.1-19.44,33.96-9.7-3.33-19.15-6.57-28.8-9.89h0ZM315.81,162.02c2.56-6.38,5.04-12.55,7.52-18.72,1.08-2.69.2-4.71-2.42-5.68-4.37-1.61-8.82-3.02-13.24-4.46-2.96-.97-5.22.06-6.22,2.94-1.88,5.41-3.6,10.89-5.15,16.41-.23.82.64,2.63,1.41,2.93,5.75,2.26,11.61,4.26,18.11,6.58h-.01Z" style="fill: #ff9100;"/>
  <path d="M115.79,255.16c14.19,1.56,27.1,2.97,40.06,4.39v28.43c-12.27,2.42-25.1,4.94-38.8,7.64-.42-13.39-.83-26.53-1.27-40.46h0ZM140.4,263.23v.21c-2.93,0-5.87-.14-8.79.04-3.16.2-5.46,1.78-5.53,5.19-.08,4.42.09,8.86.32,13.28.14,2.7,1.95,4.04,4.5,3.9,5.96-.35,11.91-.83,17.84-1.49.77-.09,1.93-1.57,1.96-2.43.17-5.37-.02-10.76.1-16.14.04-1.84-.49-2.59-2.32-2.56-2.69.05-5.39.01-8.09.01h0Z" style="fill: #ff9100;"/>
  <path d="M382.44,377.87c-10.42-10.08-19.94-19.29-29.4-28.44,5.06-7.07,10.21-14.26,15.64-21.84,11.76,5.93,23.93,12.06,36.99,18.64-7.93,10.8-15.51,21.13-23.22,31.63h-.01ZM389.89,347.63c-.27-.43-.63-1.68-1.47-2.24-5.23-3.54-10.52-6.98-15.9-10.28-.63-.38-2.35,0-2.85.61-3.06,3.7-5.9,7.57-8.83,11.38-1.29,1.67-1.29,3.28.39,4.61,4.58,3.63,9.17,7.26,13.89,10.72.88.65,2.51.88,3.57.57,3.78-1.1,11.02-10.84,11.2-15.37h0Z" style="fill: #ff9100;"/>
  <path d="M165.64,321.44c-11.33,5.87-22.85,11.83-34.57,17.91-5.94-11.98-10.12-24.3-12.75-37.27,13.1-2.66,25.91-5.27,38.52-7.84,2.94,9.1,5.85,18.08,8.8,27.2h0ZM152.85,299.41c-6.57,2.23-12.78,4.23-18.9,6.48-2.57.95-4.05,3.21-3.23,5.91,1.4,4.54,3.05,9.04,5.08,13.33.53,1.12,3.11,2.3,4.25,1.93,6.62-2.16,13.09-4.78,19.86-7.33-2.43-6.99-4.6-13.24-7.06-20.32h0Z" style="fill: #ff9100;"/>
  <path d="M155.87,378.63c-7.87-11.26-15.35-21.98-22.96-32.88,12.49-6.48,24.1-12.51,35.64-18.5,5.19,7.48,10.5,15.15,15.51,22.37-9,9.26-18.15,18.68-28.18,29h-.01ZM166.66,332.75c-5.68,4.13-11.67,8.36-17.51,12.8-2.16,1.64-1.74,4.2-.51,6.11,2.34,3.63,4.98,7.08,7.69,10.45,1.59,1.98,3.95,2.46,6,.95,5.17-3.82,10.21-7.83,15.15-11.95.6-.5.73-2.49.23-3.21-3.38-4.89-6.98-9.63-11.05-15.14h0Z" style="fill: #ff9100;"/>
  <path d="M338.49,376.67c3.91-2.84,7.18-5.22,10.76-7.81,2.8,3.32,5.79,6.85,8.81,10.43-4.03,2.86-7.79,5.54-12,8.53-2.57-3.78-5.15-7.57-7.57-11.14h0Z" style="fill: #ff9100;"/>
  <path d="M358.05,164.06c-2.99,3.66-5.86,7.17-8.58,10.49-3.72-2.8-7.24-5.44-11.18-8.41,2.37-3.37,4.95-7.04,7.69-10.93,4.09,3,7.89,5.78,12.07,8.85h0Z" style="fill: #ff9100;"/>
  <path d="M274.96,132.14v13.2h-13.58v-13.2h13.58Z" style="fill: #ff9100;"/>
  <path d="M375.77,204.64c-2.61-3.86-5.03-7.42-7.58-11.2,3.4-2.36,6.93-4.81,10.63-7.38,2.77,3.92,5.36,7.59,8.32,11.77-3.94,2.36-7.78,4.66-11.37,6.81h0Z" style="fill: #ff9100;"/>
  <path d="M407.62,280.5h-12.89v-13.54c3.59-.21,7.08-.39,10.57-.61,2.1-.13,2.48.88,2.38,2.81-.19,3.73-.05,7.47-.05,11.34h-.01Z" style="fill: #ff9100;"/>
  <path d="M306.03,405.16c-1.34-4.39-2.64-8.62-3.92-12.79,4.19-1.42,8.21-2.78,12.79-4.33,1.49,3.86,3.19,8.24,4.9,12.68-4.64,1.5-8.93,2.89-13.77,4.45h0Z" style="fill: #ff9100;"/>
  <path d="M385.91,318.12c1.6-4.24,3.04-8.06,4.65-12.32,4.06,1.24,8.21,2.5,12.51,3.81-1.75,4.64-3.31,8.77-5.01,13.3-4.02-1.58-8-3.15-12.15-4.79h0Z" style="fill: #ff9100;"/>
  <path d="M232.45,405.7c-4.74-1.55-9.02-2.95-13.64-4.46,1.42-4.09,2.85-8.23,4.29-12.39,4.38,1.2,8.48,2.33,12.94,3.55-1.17,4.33-2.37,8.77-3.59,13.3h0Z" style="fill: #ff9100;"/>
  <path d="M262.66,396.36h13.41c.17,3.66.47,7.51.41,11.35-.01.74-1.44,2.03-2.27,2.08-3.84.22-7.7.1-12.18.1.22-4.62.42-8.99.63-13.53h0Z" style="fill: #ff9100;"/>
  <path d="M199.79,376.99c-2.34,3.68-4.77,7.49-7.35,11.54-3.97-2.64-7.78-5.18-12.2-8.12,2.77-3.68,5.6-7.43,8.2-10.88,3.85,2.53,7.44,4.89,11.35,7.46Z" style="fill: #ff9100;"/>
  <path d="M187.49,175.09c-2.8-3.38-5.69-6.85-8.64-10.4,4.23-3.02,7.93-5.66,12.03-8.59,2.5,3.51,5.06,7.09,7.68,10.76-3.62,2.69-7.14,5.31-11.06,8.23h0Z" style="fill: #ff9100;"/>
  <path d="M169.08,193.82c-2.44,3.84-4.67,7.35-7.22,11.36-3.08-1.85-6.46-3.78-9.7-5.94-.51-.34-.77-1.98-.41-2.56,2.1-3.35,4.42-6.55,6.86-10.09,3.46,2.39,6.89,4.76,10.47,7.23Z" style="fill: #ff9100;"/>
  <path d="M150.79,229.59c-1.34,4.29-2.59,8.28-4.03,12.86-3.97-1.01-8.28-2.11-12.75-3.25,1.51-4.63,2.87-8.83,4.41-13.53,4.26,1.35,8.43,2.67,12.37,3.92Z" style="fill: #ff9100;"/>
  <path d="M222.06,154.56c-1.57-3.89-3.17-7.85-4.89-12.1,4.63-1.62,8.95-3.13,13.68-4.79,1.39,4.3,2.74,8.45,4.05,12.5-4.23,1.45-8.25,2.82-12.85,4.4h0Z" style="fill: #ff9100;"/>
  <path d="M387.11,228.24c3.94-1.41,7.89-2.82,12.02-4.29,1.57,4.66,3,8.94,4.59,13.67-4.13,1.13-8.15,2.23-12.51,3.43-1.36-4.25-2.66-8.3-4.1-12.8h0Z" style="fill: #ff9100;"/>
  <path d="M305.49,136.96c4.92,1.63,9.3,3.07,13.9,4.59-1.78,4.42-3.46,8.61-5.02,12.52-4.27-1.57-8.37-3.07-13-4.78,1.23-3.67,2.6-7.8,4.12-12.34h0Z" style="fill: #ff9100;"/>
  <path d="M130.69,281.92v-14.07h12.97v13.13c-3.96.29-8.23.59-12.97.93h0Z" style="fill: #ff9100;"/>
  <path d="M377.48,359.29c-3.49-2.74-6.95-5.46-10.42-8.19,2.67-3.41,5.22-6.67,7.91-10.11,3.09,1.92,6.25,3.89,9.41,5.85,1.79,1.12,1.02,2.23.05,3.45-2.25,2.84-4.43,5.72-6.95,9h0Z" style="fill: #ff9100;"/>
  <path d="M151.88,318.35c-3.86,1.57-7.82,3.18-12.06,4.91-1.72-4.48-3.37-8.78-5.13-13.39,4.44-1.39,8.61-2.7,12.64-3.96,1.54,4.21,2.96,8.1,4.55,12.44Z" style="fill: #ff9100;"/>
  <path d="M162.92,340.67c2.69,3.75,5.12,7.16,7.81,10.92-3.25,2.53-6.79,5.28-10.45,8.13-2.6-3.45-5.04-6.57-7.3-9.82-.37-.53-.27-2.04.16-2.36,3.27-2.45,6.67-4.72,9.79-6.87h0Z" style="fill: #ff9100;"/>
</svg>