<?xml version="1.0" encoding="UTF-8"?>
<svg id="Ebene_1" xmlns="http://www.w3.org/2000/svg" viewBox="0 0 539.31 542.02">
  <path d="M135.5,375.36c-33.78,12.61-67.89,25.35-103.02,38.47,28.03-25.98,55.32-51.27,82.48-76.45,6.78,12.53,13.56,25.08,20.54,37.99h0Z" style="fill: #ff9100;"/>
  <path d="M268.65,0c7.34,35.2,14.69,70.4,22.08,105.82h-42.6c6.35-35.31,12.68-70.47,19.01-105.64.51-.06,1.01-.12,1.52-.18h0Z" style="fill: #ff9100;"/>
  <path d="M247.97,436.87h43.02c-7.04,35.11-14.05,70.1-21.06,105.09-.48.02-.95.04-1.43.06-6.82-34.92-13.63-69.84-20.53-105.15h0Z" style="fill: #ff9100;"/>
  <path d="M31.94,132.06c34.54,12.19,69.07,24.39,103.24,36.45-6.4,12.4-12.66,24.54-19.07,36.96-28.09-24.32-56.26-48.71-84.43-73.1l.27-.31h0Z" style="fill: #ff9100;"/>
  <path d="M434.44,293.08v-42.58c35.57,6.89,71.26,13.79,104.87,20.3-33.47,7.11-69.03,14.67-104.87,22.28Z" style="fill: #ff9100;"/>
  <path d="M0,278.89c34.4-12.45,69.31-19.91,104.14-27.38v41.97c-17.4-2.95-34.42-6.24-51.56-8.64-17.17-2.41-34.47-3.94-52.58-5.95h0Z" style="fill: #ff9100;"/>
  <path d="M134.89,38.93c23.74,26.25,47.56,52.6,71.35,78.9-12.84,6.64-25.32,13.08-38.36,19.82-11.01-32.94-21.99-65.8-32.99-98.72h0Z" style="fill: #ff9100;"/>
  <path d="M502.29,408.27c-33.45-11.03-66.9-22.06-100.28-33.07,6.91-12.39,13.66-24.5,20.54-36.85,26.67,23.07,53.37,46.16,80.07,69.25-.11.22-.22.44-.33.66h0Z" style="fill: #ff9100;"/>
  <path d="M503.95,134.01c-27.29,23.78-54.57,47.56-82.07,71.53-6.48-12.72-12.93-25.4-19.55-38.39,33.94-9.64,68.39-19.17,101.62-33.14Z" style="fill: #ff9100;"/>
  <path d="M404.15,42.32c-10.96,30.3-22.54,62.35-34.28,94.81-12.55-6.48-25.4-13.12-38.54-19.9,24.75-25.46,49.43-50.85,72.82-74.91Z" style="fill: #ff9100;"/>
  <path d="M165.2,404.91c12.79,6.78,25.19,13.36,38.01,20.16-22.66,24.28-45.3,48.54-68.48,73.38,8.14-32.16,20.85-62.31,30.47-93.54h0Z" style="fill: #ff9100;"/>
  <path d="M404.51,498.4c-24.02-24.68-48.04-49.37-72.19-74.19,8.25-3.66,16.38-7.23,24.47-10.88,3.42-1.54,6.88-3.07,10.12-4.95,2.91-1.69,4.24-.62,5.22,2.07,2.49,6.84,4.91,13.7,7.54,20.48,8.43,21.76,16.95,43.49,25.43,65.24.17.42.28.87.41,1.3-.33.31-.66.62-.99.92h-.01Z" style="fill: #ff9100;"/>
  <path d="M298.18,433.35c8.65-1.66,17.15-3.3,26.16-5.03.58,4.72,1.18,9.66,1.79,14.59,2.03,16.3,4.07,32.6,6.07,48.9.21,1.74.48,3.54.28,5.26-.13,1.1-.91,2.77-1.71,2.98-1.08.28-2.65-.34-3.66-1.06-.87-.62-1.37-1.88-1.83-2.94-8.92-20.41-17.8-40.84-26.68-61.26-.22-.51-.31-1.08-.41-1.44h-.01Z" style="fill: #ff9100;"/>
  <path d="M323.96,115.5c-8.67-2.67-16.95-5.23-25.52-7.87,4.07-9.24,8.14-18.45,12.19-27.67,5.24-11.93,10.37-23.9,15.75-35.76.88-1.94,2.78-3.42,4.21-5.12.52,2.27,1.69,4.61,1.46,6.8-2.36,22.31-4.95,44.59-7.48,66.88-.09.8-.35,1.57-.61,2.73h0Z" style="fill: #ff9100;"/>
  <path d="M433.48,302.52c4.97,2.28,9.74,4.46,14.5,6.65,14.93,6.86,29.85,13.73,44.77,20.61,1.06.49,2.38.82,3.07,1.65,1.15,1.39,2.72,3.17,2.63,4.69-.14,2.51-2.68,2.59-4.72,2.34-3.84-.48-7.67-1.07-11.49-1.72-18.27-3.14-36.53-6.32-55.09-9.54,2.08-8.1,4.12-16.08,6.33-24.67h0Z" style="fill: #ff9100;"/>
  <path d="M213.53,115.75c-1.27-9.89-2.55-19.65-3.79-29.42-1.33-10.49-2.64-20.98-3.92-31.47-.23-1.86-.57-3.77-.37-5.61.13-1.21.89-2.98,1.8-3.31,1.16-.42,2.98,0,4.1.72,1.09.7,1.86,2.13,2.4,3.39,8.27,19.57,16.48,39.17,24.7,58.76.08.19,0,.45,0,.65-8.24,2.08-16.47,4.15-24.92,6.28h-.01Z" style="fill: #ff9100;"/>
  <path d="M112.04,328.03c-24.5,4.56-48.84,8.57-73.87,7.41,21.75-12.05,44.59-21.62,66.95-32.85,2.33,8.57,4.57,16.78,6.92,25.44Z" style="fill: #ff9100;"/>
  <path d="M432.45,242.4c-2.24-8.66-4.38-16.92-6.63-25.57,25.16-2.51,50.09-5.96,75.21-7.31.14.39.27.79.41,1.18-.85.62-1.63,1.39-2.57,1.84-8.04,3.86-16.03,7.82-24.17,11.45-13.93,6.21-27.95,12.2-42.25,18.42h0Z" style="fill: #ff9100;"/>
  <path d="M159.86,143.44c-6.04,6.4-11.99,12.7-18.27,19.35-2.12-2.79-4.03-5.24-5.89-7.74-11.13-14.99-22.24-29.98-33.36-44.98-.77-1.04-1.67-2.03-2.16-3.2-.54-1.28-.68-2.73-1-4.1,1.41.3,3.08.21,4.19.96,7.98,5.38,15.86,10.89,23.74,16.42,10.28,7.22,20.52,14.49,30.77,21.75.83.59,1.62,1.25,1.99,1.54h0Z" style="fill: #ff9100;"/>
  <path d="M377.28,400.01c6.54-6.51,12.83-12.77,19.3-19.21,3.57,4.8,7.5,10.03,11.36,15.31,8.33,11.37,16.66,22.74,24.92,34.16,1.36,1.88,2.61,3.93,3.48,6.07.93,2.28-.22,3.37-2.6,2.7-.88-.25-1.75-.71-2.5-1.24-17.79-12.47-35.56-24.96-53.34-37.44-.39-.27-.84-.44-.63-.33v-.02Z" style="fill: #ff9100;"/>
  <path d="M112.46,217.65c-2.34,8.18-4.55,15.93-6.86,24.01-7.25-3.34-14.37-6.6-21.47-9.89-13.94-6.44-27.91-12.84-41.8-19.4-1.61-.76-2.77-2.47-4.14-3.73,1.89-.58,3.86-1.86,5.65-1.63,11.28,1.46,22.52,3.25,33.77,4.95,10.55,1.6,21.11,3.21,31.65,4.85,1.02.16,2.01.52,3.2.84Z" style="fill: #ff9100;"/>
  <path d="M142.07,378.46c6.08,6.94,11.8,13.46,17.85,20.36-20.05,14.37-40.1,28.74-60.16,43.12-.34-.25-.68-.5-1.02-.75,1.4-2.67,2.51-5.54,4.24-7.98,9.49-13.42,19.13-26.73,28.7-40.09,3.41-4.75,6.76-9.54,10.39-14.66Z" style="fill: #ff9100;"/>
  <path d="M437.08,103.58c-.68,1.54-1.1,3.27-2.08,4.59-13.19,17.95-26.45,35.85-39.55,53.56-6.46-6.67-12.71-13.13-19.15-19.79,19.38-12.6,39.16-26.64,59.84-39.29.31.31.62.62.94.92h0Z" style="fill: #ff9100;"/>
  <path d="M212.85,428.36c8.32,1.84,16.32,3.61,24.46,5.41-.12.63-.13,1.23-.36,1.73-8.16,18.57-16.3,37.15-24.56,55.67-.98,2.2-1.72,5.75-4.88,4.83-1.2-.35-2.11-4.22-1.91-6.38.98-10.87,2.33-21.7,3.63-32.54,1.13-9.43,2.36-18.84,3.61-28.72h.01Z" style="fill: #ff9100;"/>
  <circle cx="268.85" cy="271.42" r="165.85" style="fill: none; stroke: #ff9100; stroke-miterlimit: 10; stroke-width: 6px;"/>
</svg>