<?xml version="1.0" encoding="UTF-8"?>
<svg id="Ebene_1" xmlns="http://www.w3.org/2000/svg" viewBox="0 0 307.2 306.72">
  <path d="M154.25,203.3c-27.75.21-50.61-21.51-50.29-48.6.32-27.76,20.33-49.36,47.95-49.74,32.71-.44,50.09,23.19,50.45,48.98.38,27.34-20.96,49.15-48.1,49.36h-.01ZM140.26,174.43c-7-3.99-10.25-10.4-11.78-18.26-4.66,7.38-11.53,13.01-15.46,20.77.23.44.45.87.68,1.31,8.86-1.27,17.71-2.54,26.57-3.81.04.45-.05.96.14,1.34,3.51,6.9,7.01,13.79,10.62,20.64.6,1.13,1.69,1.99,3.12,3.62,3.7-8.55,7.07-16.36,10.68-24.72-8.87,3.38-16.87,4.25-24.56-.88h0ZM139.74,133.65c1.19-.36,2.41-.64,3.55-1.11,13.83-5.75,28.79,1.2,32.99,15.36.45,1.51.73,3.07,1.29,5.49,4.97-6.56,9.57-12.47,13.94-18.53.77-1.07.6-2.83.86-4.27-1.44-.2-2.9-.71-4.3-.55-6.07.67-12.15,1.32-18.15,2.4-3.99.72-5.98-.44-7.72-4.19-2.94-6.34-6.68-12.3-10.08-18.43-.4.05-.79.09-1.19.14-3.7,7.93-7.4,15.87-11.11,23.81-8.7-.45-17.39-.9-26.09-1.35-.28.38-.56.76-.84,1.14,5.04,6.95,10.08,13.9,15.78,21.75.27-2.2.17-3.41.58-4.39,1.76-4.15,3.44-8.37,5.63-12.29,1.09-1.95,3.2-3.34,4.85-4.98h0ZM165.6,175.03c8.52.89,16.3,1.84,24.1,2.46,3.04.24,4.09-1.94,2-4.72-4.4-5.87-9.18-11.46-14.04-17.45-3.96,12.49-4.53,13.44-12.06,19.71h0Z" style="fill: #ff9100;"/>
  <path d="M124.93,203.33c3.1,1.44,5.93,2.75,8.95,4.15-5.89,15.33-6.22,32.32-15.97,46.12-30.27-7.74-58.61-36.52-66.73-69.39,7.53-2.93,15.08-5.57,23.34-6.04,8.59-.48,17.02-1.97,24.58-6.92,1.04,2.54,1.95,4.79,3,7.34-4.38,2-8.83,3.77-13.01,6.03-4.4,2.39-8.54,5.25-12.79,7.92-2.18,1.37-4.4,2.7-6.45,4.24-.67.51-.87,1.64-1.29,2.48.91.29,2.01,1.06,2.68.78,1.7-.71,3.35-1.72,4.76-2.92,5.82-4.96,12.18-8.63,19.89-9.95,2.92-.5,5.63-2.19,8.32-3.3,5.17,5.7,10.5,11.58,15.55,17.14-2.41,4.74-4.92,9.59-7.35,14.48-2.77,5.56-6.2,10.46-11.84,13.57-.96.53-1.27,2.26-1.87,3.43,1.33.12,3.01.82,3.93.26,2.46-1.5,5.12-3.16,6.77-5.43,4.55-6.26,8.64-12.85,12.87-19.33.94-1.45,1.72-3,2.68-4.68l-.02.02ZM76.87,225.13c2.13-.35,3.41-.39,4.57-.78,9.1-3.06,17.5-7.41,24.63-13.94,7.12-6.52,7.09-8.3,0-14.81-4.37-4.01-5.6-4.06-10.06,0-7.57,6.9-13.17,15.25-17.59,24.42-.63,1.32-.87,2.83-1.54,5.09v.02Z" style="fill: #ff9100;"/>
  <path d="M189.12,253.93c-5.11-7.95-7.44-16.48-9.5-25.21-1.71-7.24-4.15-14.31-6.28-21.51,1.62-.6,4.14-1.54,7.21-2.68,1.48,2.63,3.06,5.32,4.52,8.07,4.13,7.79,9.29,14.71,16.84,19.52.82.53,2.14.27,3.23.38-.37-1.12-.72-2.24-1.13-3.35-.07-.19-.32-.38-.53-.45-7.71-2.85-10.23-9.81-13.22-16.48-1.53-3.41-3.45-6.64-5.03-9.63,5.56-5.98,11.1-11.93,16.83-18.09,4.3,2.57,9.06,5.82,14.19,8.34,4.26,2.1,8.89,3.53,13.47,4.89,1.7.51,3.75.24,5.54-.16.8-.18,1.93-1.64,1.82-2.35-.12-.81-1.41-1.51-2.29-2.12-.32-.22-.98-.2-1.38-.02-5.05,2.22-8.72-1.04-12.63-3.19-4.92-2.72-9.75-5.6-14.7-8.28-1.75-.94-2.56-1.79-1.43-3.79.91-1.62,1.47-3.44,2.28-5.41,16.07,3.43,32.94,3.46,48.15,12.71-10.23,33.64-32.88,55.88-65.97,68.8h.01ZM228.04,224.92c.32-.24.64-.47.96-.71-.76-2.01-1.14-4.28-2.34-5.98-4.57-6.5-8.87-13.31-14.27-19.07-7.8-8.31-9.12-6.87-16.39,1-2.74,2.96-2.64,5.55.33,8.33,9.04,8.43,19.87,13.45,31.71,16.44h0Z" style="fill: #ff9100;"/>
  <path d="M186.27,107.26c7.05-7.5,11.5-16.39,13.59-26.52.45-2.17,1.4-4.24,1.85-6.41.16-.8-.47-1.77-.73-2.66-1.02.34-2.24.45-3.01,1.1-.61.52-.89,1.68-.94,2.57-.45,8-4.69,14.09-9.78,19.81-2.39,2.69-4.61,5.53-7.15,8.59-2.42-1.08-5.24-2.35-8.2-3.67,6.1-15.53,6.96-32.61,16.56-47.33,24.8,8.66,43.5,24.67,56.48,47.43-.31.54-.39.86-.55.9-12.77,3.75-23.98,10.57-35.11,17.61-2.36,1.5-5.14,3.86-7.41,3.54-2.09-.29-3.69-3.72-5.64-5.62-3.19-3.1-6.49-6.09-9.97-9.34h.01ZM227.42,80.81c-1.51.4-2.11.47-2.64.71-10.91,4.98-20.22,12.12-28.15,21.05-.71.8-1.01,2.48-.73,3.55,1.49,5.88,7.88,8.07,12.01,3.84,6.29-6.44,12.21-13.26,18.07-20.1,1.38-1.61,2.15-3.89,2.71-5.99.23-.88-.84-2.11-1.26-3.06h0Z" style="fill: #ff9100;"/>
  <path d="M49.69,177.94c-4.55-25.54-1.99-49.35,9.15-73.04,5.04,2.62,9.87,4.89,14.45,7.59,3.73,2.21,6.95,5.3,10.74,7.38,5.8,3.19,11.89,5.86,18.06,8.85-.88,2.09-2.14,5.09-3.53,8.39-2.28-.66-4.69-1.15-6.92-2.06-6.5-2.65-13.25-3.62-20.21-4.28-4.63-.44-9.08-2.73-13.65-4.03-1.11-.32-2.4,0-3.61,0,.55,1.13.85,2.98,1.7,3.28,5.49,1.94,10.99,4.28,16.69,5.06,6.2.85,12.29.91,17.53,5.13,1.91,1.54,4.67,2.04,6.29,2.71.36,7.08.76,13.8.98,20.54.02.77-.83,2-1.56,2.28-3.7,1.42-7.41,3.24-11.27,3.75-11.76,1.57-23.58,2.66-34.83,8.42v.03ZM54.08,152.12c.91.75,1.37,1.31,1.96,1.59,9.41,4.41,19.46,6.02,29.73,6.3,1.25.03,3.09-1.67,3.69-3,.77-1.73.79-3.9.74-5.87-.08-3.21-1.74-5.03-5.16-4.77-4.81.36-9.64.52-14.41,1.15-5.52.73-11.27.9-16.54,4.61h0Z" style="fill: #ff9100;"/>
  <path d="M248.29,106.86c10.35,22.37,13.24,45.87,8.13,71.34-14.92-8.82-31.77-7.57-46.67-11.1v-25.08c4.97-1,10.47-1.97,15.9-3.24,7.61-1.78,14.96-4.24,20.45-10.24.76-.84.87-2.28,1.28-3.44-1.4.13-2.82.2-4.21.43-.37.06-.77.58-.96.98-2.66,5.61-7.99,5.98-13.11,6.57-2.91.34-5.88.1-8.81.29-4.29.28-8.57.71-13.15,1.11-.74-1.69-1.75-4.02-2.78-6.36,14.15-7.72,27.27-17.46,43.92-21.26h0ZM252.91,154.74c-.03-.6-.06-1.19-.09-1.79-1.65-.75-3.23-1.84-4.96-2.18-7.7-1.51-15.4-3.12-23.18-4.08-6.66-.82-9.36,2.45-8.57,9.29.3,2.55,1.46,4.22,4.31,4,7.13-.54,14.31-.8,21.38-1.77,3.79-.52,7.42-2.28,11.11-3.48h0Z" style="fill: #ff9100;"/>
  <path d="M132.7,101.22c-1.74.68-4.21,1.65-7.1,2.79-.99-1.97-2.03-3.89-2.95-5.86-4.19-8.97-9.84-16.8-17.67-22.98-1.34-1.05-2.7-2.36-4.19-.51-1.5,1.87.06,3.05,1.43,3.97,6.41,4.29,10.58,10.11,12.97,17.46,1.26,3.87,3.37,7.46,4.83,10.61-4.28,4.76-8.42,9.49-12.76,14.04-.67.7-2.46,1.14-3.3.76-5.41-2.45-11.08-4.59-15.93-7.91-8.16-5.58-16.07-11.46-25.94-14.62,4.21-7.44,9.26-13.86,15-19.77,10.74-11.05,23.34-19.21,37.77-24.62,2.12-.79,3.02-.41,4.01,1.66,4.11,8.52,6.95,17.34,8.46,26.74.98,6.12,3.47,12,5.36,18.24h0ZM110.98,104.59c-.68-1.05-1.27-2.74-2.45-3.67-7.44-5.85-14.89-11.72-22.64-17.14-2.02-1.42-5.13-1.29-7.74-1.88.77,2.69.83,5.95,2.44,7.97,5.74,7.24,11.95,14.12,18.11,21.01,1.65,1.84,3.77,3.38,6.52,1.89,3.06-1.65,4.95-4.2,5.75-8.19h0Z" style="fill: #ff9100;"/>
  <path d="M181.97,51.02c-8.06,12.68-8.86,27.1-13.18,40.42-2.2,6.78-2.2,6.75-9.02,6.43-3.28-.15-6.58-.27-9.86-.19-3.15.07-6.28.41-10.61.72-1.31-3.4-3.58-7.35-4.31-11.56-2.06-12-5.38-23.5-11.17-34.25-.16-.29-.14-.67-.22-1.13,19.17-5.37,38.33-6.19,58.36-.44h0ZM152.94,47.91c-.96,1.78-1.98,2.94-2.21,4.24-2.01,10.93-4.18,21.85-5.64,32.86-.65,4.94,2.16,6.59,8.88,6.62,4.88.02,7.22-1.91,6.91-6.71-.43-6.9-1.18-13.8-2.29-20.62-.89-5.47-1.67-11.12-5.65-16.39Z" style="fill: #ff9100;"/>
  <path d="M139.83,208.83c8.16,2.07,16.16,2.68,24.28,1.44.77-.12,2.2.85,2.52,1.64,1.73,4.21,3.81,8.41,4.64,12.83,2,10.68,4.78,21.01,10.56,30.89-19.13,5.42-37.84,4.7-57.11-.31,8.87-14.49,9.23-31.27,15.11-46.47v-.02ZM153.93,257.97c1.54-3.05,3.04-4.96,3.5-7.09,1.64-7.65,3.38-15.33,4.22-23.09,1.01-9.26-.75-10.75-9.96-10.61-5.52.08-8.01,2.14-7.15,7.48,1.47,9.08,3.65,18.06,5.79,27.02.45,1.88,1.97,3.51,3.61,6.28h-.01Z" style="fill: #ff9100;"/>
  <path d="M208.1,254.57c8.32-6.02,16.46-11.91,24.75-17.91,8.98,9.34,18.39,19.11,27.96,29.06-9.58,9.03-21.02,17.07-33.81,23.63-6.42-11.8-12.77-23.49-18.91-34.78h.01ZM215.37,256.33c3.89,5.57,7.55,10.84,11.25,16.09,1.42,2.02,3.45,2.64,5.52,1.3,4.28-2.77,8.51-5.65,12.56-8.74,2.01-1.53,2.29-4.01.68-5.98-4.12-5.04-8.48-9.89-12.8-14.87-5.93,4.2-11.25,7.97-17.22,12.2h.01Z" style="fill: #ff9100;"/>
  <path d="M208.51,52.44c6.31-10.92,12.85-22.25,19.5-33.77,13.1,6.7,24.47,15.42,34.73,25.76-9.94,9.35-19.74,18.57-29.2,27.47-8.35-6.49-16.64-12.94-25.03-19.46ZM232.6,65.44c4.36-5.4,8.52-10.46,12.56-15.62,2.06-2.62,1.96-5.31-.8-7.39-3.73-2.82-7.56-5.51-11.42-8.14-2.08-1.42-4.13-.91-5.62.99-3.55,4.52-7,9.11-10.43,13.71-1.26,1.69-.96,3.25.72,4.57,4.79,3.77,9.55,7.57,14.98,11.87h0Z" style="fill: #ff9100;"/>
  <path d="M130.84,1.32c15.24-1.45,29.72-1.99,44.15-.14-2.47,13.14-4.87,25.92-7.24,38.54h-29.84c-2.3-12.5-4.64-25.24-7.06-38.4h-.01ZM163.29,34.66c.25-6.89.49-13.45.73-20.01.1-2.54-1.16-4.22-3.62-4.31-5.25-.18-10.52-.22-15.75.15-1.17.08-3.13,2.03-3.16,3.15-.14,6.32.12,12.65.46,18.97.04.72,1.46,1.94,2.26,1.96,6.09.17,12.19.09,19.06.09h.02Z" style="fill: #ff9100;"/>
  <path d="M254.42,100.93c-5.42-8.29-10.79-16.5-16.22-24.8,9.35-8.8,18.98-17.84,28.8-27.09,9.65,10.28,16.95,21.92,23.29,34.39-12.11,5.91-24.07,11.74-35.88,17.5h.01ZM275.63,80.32c-.76-1.87-1.15-3.53-2.04-4.85-2.07-3.12-4.35-6.1-6.59-9.1-1.81-2.43-4.1-2.62-6.45-.95-4.58,3.26-9.13,6.55-13.52,10.06-.7.56-1.01,2.59-.56,3.42,2.48,4.51,5.17,8.92,8.03,13.21.51.76,2.52,1.42,3.2,1.02,5.27-3.03,10.43-6.27,15.51-9.62,1.05-.69,1.63-2.12,2.41-3.18h0Z" style="fill: #ff9100;"/>
  <path d="M266.52,171.21v-30.07c13.26-2.04,26.28-4.04,39.64-6.1,1.19,14.16,1.6,27.82-.07,41.63-13.59-1.87-26.79-3.7-39.57-5.46ZM271.73,145.15c0,7.19-.07,13.38.09,19.57.02.77,1.18,2.13,1.86,2.16,5.84.27,11.7.33,17.55.37,3.3.02,5.05-2.01,5.19-5.04.21-4.43.27-8.92-.19-13.32-.14-1.35-2.16-3.51-3.42-3.58-6.85-.35-13.73-.17-21.08-.17h0Z" style="fill: #ff9100;"/>
  <path d="M221.6,293.07c-13.99,4.33-27.36,8.48-41.12,12.74-2.34-13.88-4.52-26.75-6.71-39.73,9.23-2.97,18.55-5.96,28.48-9.15,6.09,11.37,12.42,23.2,19.34,36.14h0ZM180.13,269.63c2.21,6.73,4.28,13.52,6.75,20.15.38,1.02,2.83,2.15,3.95,1.85,5.04-1.36,10.03-3.02,14.84-5.03,1.16-.49,2.41-2.91,2.19-4.19-1.25-7.17-4.23-13.74-7.73-20.1-6.63,2.43-12.96,4.74-20.01,7.32h.01Z" style="fill: #ff9100;"/>
  <path d="M256.07,204.79c3.09-9.15,6.19-18.31,9.34-27.63,12.93,1.98,26.18,4.01,39.68,6.08-3.2,13.75-6.87,26.97-13.35,39.22-12.13-6.01-24.04-11.92-35.67-17.68h0ZM282.74,209.99c1.34-1.25,3.11-2.22,3.81-3.69,1.8-3.78,3.18-7.77,4.62-11.72,1.17-3.21.21-5.52-3.23-6.51-5.51-1.58-11.03-3.14-16.54-4.69-1.86-.52-2.66.29-3.2,2.13-.92,3.14-2.16,6.19-3.39,9.23-2.92,7.21-2.97,7.26,4.2,10.15,4.33,1.74,8.76,3.26,13.72,5.1h.01Z" style="fill: #ff9100;"/>
  <path d="M125.3,306c-13.82-4.24-27.2-8.36-40.91-12.57,6.5-12.83,12.51-24.69,18.29-36.1,9.03,2.63,18.01,5.19,26.94,7.92.72.22,1.64,1.69,1.53,2.44-1.8,12.41-3.76,24.81-5.85,38.3h0ZM115.3,292.78c2.93-.24,4.65-1.58,5.37-3.94,1.78-5.81,3.37-11.67,4.99-17.52.54-1.95-.22-2.94-2.31-3.4-5.14-1.12-10.2-2.56-15.34-3.69-.82-.18-2.47.34-2.69.93-2.28,6-4.5,12.04-6.31,18.2-.34,1.17.81,3.72,1.9,4.2,4.67,2.04,9.58,3.54,14.4,5.23h0Z" style="fill: #ff9100;"/>
  <path d="M131.86,306.72c2.08-13.9,4.03-26.97,5.96-39.93h29.7c2.13,12.98,4.28,26.1,6.55,39.93h-42.21ZM142.3,272.53c0,6.72-.16,13.5.15,20.25.05,1.2,1.95,3.22,3.12,3.31,4.85.39,9.76.29,14.64.15,3.3-.09,4.88-2.37,4.88-5.37,0-5.74-.27-11.48-.67-17.21-.06-.8-1.53-2.15-2.32-2.13-6.3.17-12.59.6-19.79,1h0Z" style="fill: #ff9100;"/>
  <path d="M73.88,237.43c7.32,5.41,15.3,11.31,23.28,17.21-5.98,11.55-12.05,23.27-18.19,35.14-12.6-6.79-23.91-14.8-33.96-24.32,9.8-9.51,19.38-18.82,28.87-28.03ZM73.73,244.51c-4.15,5.18-8.22,10.19-12.2,15.26-2.09,2.67-1.95,5.32.94,7.28,3.76,2.55,7.66,4.92,11.55,7.27,2.43,1.47,4.75.77,6.22-1.36,3.4-4.91,6.61-9.96,9.68-15.08.41-.68-.08-2.64-.78-3.13-4.88-3.43-9.92-6.64-15.42-10.24h0Z" style="fill: #ff9100;"/>
  <path d="M78.26,19.96c6.36,11.5,12.55,22.68,18.64,33.69-8.07,6.19-16.22,12.43-24.51,18.8-9.28-8.89-18.76-17.97-28.45-27.26,10.28-9.98,21.69-18.27,34.33-25.23h-.01ZM90.8,51.94c-4.35-5.52-8.47-10.74-12.59-15.96-1.46-1.85-3.29-2.29-5.25-.97-3.95,2.67-7.91,5.34-11.67,8.25-2.38,1.84-2.68,4.57-.89,6.9,4.02,5.24,8.31,10.27,12.53,15.44,6.27-4.8,11.92-9.11,17.87-13.67h0Z" style="fill: #ff9100;"/>
  <path d="M68.12,77.29c-5.41,7.91-10.69,15.62-16.05,23.45-11.78-4.99-23.82-10.09-36.25-15.35,5.89-13.21,13.91-24.78,23.39-35.69,9.76,9.32,19.4,18.52,28.91,27.59h0ZM61.87,76.81c-5.76-3.86-11.23-7.6-16.79-11.21-1.95-1.27-4.03-.78-5.33,1.01-2.94,4.04-5.76,8.19-8.4,12.43-1.29,2.06-.74,4.15,1.46,5.4,5.28,3,10.58,5.96,15.97,8.76.64.33,2.33-.18,2.78-.83,3.34-4.8,6.49-9.74,10.3-15.56h0Z" style="fill: #ff9100;"/>
  <path d="M13.52,91.58c12.25,4.97,24.25,9.85,35.89,14.57-3.02,9.9-5.98,19.58-8.96,29.36-12.37-1.33-25.25-2.72-38.44-4.14,2.44-13.78,5.62-27.12,11.52-39.8h0ZM36.71,130.47c1.98-6.52,3.63-12.12,5.41-17.68.64-2,.14-3.04-1.88-3.63-5.17-1.51-10.31-3.13-15.47-4.67-2.88-.86-5.34-.04-6.39,2.78-1.67,4.47-3.03,9.06-4.3,13.65-.63,2.27.56,3.93,2.82,4.52,6.54,1.71,13.1,3.33,19.8,5.02h0Z" style="fill: #ff9100;"/>
  <path d="M124.38,3.24c2.41,12.78,4.75,25.19,7.07,37.52-9.47,3.27-18.94,6.53-28.79,9.93-6.04-10.91-12.26-22.15-18.64-33.66,12.98-6.46,26.3-10.63,40.35-13.78h.01ZM115.08,15.14c-5.27,2.04-10.2,3.77-14.98,5.86-2.28,1-3.17,3.23-2.27,5.65,2.01,5.36,4.13,10.69,6.43,15.92.31.71,2.11,1.41,2.94,1.16,5.39-1.6,10.72-3.4,16-5.33.75-.27,1.75-1.79,1.56-2.41-1.75-5.82-3.58-11.62-5.74-17.3-.51-1.33-2.34-2.15-3.95-3.55h.01Z" style="fill: #ff9100;"/>
  <path d="M305.14,128.48c-13.5,2.18-26.56,4.28-39.58,6.38-2.74-9.32-5.53-18.81-8.38-28.48,11.45-5.43,23.3-11.05,35.54-16.86,5.64,12.57,9.69,25.45,12.42,38.96h0ZM269.78,129.72c6.65-2.13,13.26-3.99,19.63-6.48,1.37-.54,2.86-3.59,2.53-5.08-1.04-4.64-2.73-9.17-4.64-13.54-.49-1.13-2.99-2.38-4.13-2.05-6.59,1.87-13.06,4.19-19.65,6.39,2.13,7.07,4.01,13.32,6.26,20.78v-.02Z" style="fill: #ff9100;"/>
  <path d="M173.76,40.18c2.55-12.14,5.16-24.58,7.83-37.31,14.14,2.58,27.41,6.9,40.41,13.23-6.68,11.67-13.22,23.1-19.44,33.96-9.7-3.33-19.15-6.57-28.8-9.89h0ZM200.03,44.53c2.56-6.38,5.04-12.55,7.52-18.72,1.08-2.69.2-4.71-2.42-5.68-4.37-1.61-8.82-3.02-13.24-4.46-2.96-.97-5.22.06-6.22,2.94-1.88,5.41-3.6,10.89-5.15,16.41-.23.82.64,2.63,1.41,2.93,5.75,2.26,11.61,4.26,18.11,6.58h-.01Z" style="fill: #ff9100;"/>
  <path d="M0,137.67c14.19,1.56,27.1,2.97,40.06,4.39v28.43c-12.27,2.42-25.1,4.94-38.8,7.64-.42-13.39-.83-26.53-1.27-40.46h0ZM24.62,145.74v.21c-2.93,0-5.87-.14-8.79.04-3.16.2-5.46,1.78-5.53,5.19-.08,4.42.09,8.86.32,13.28.14,2.7,1.95,4.04,4.5,3.9,5.96-.35,11.91-.83,17.84-1.49.77-.09,1.93-1.57,1.96-2.43.17-5.37-.02-10.76.1-16.14.04-1.84-.49-2.59-2.32-2.56-2.69.05-5.39.01-8.09.01h0Z" style="fill: #ff9100;"/>
  <path d="M266.66,260.38c-10.42-10.08-19.94-19.29-29.4-28.44,5.06-7.07,10.21-14.26,15.64-21.84,11.76,5.93,23.93,12.06,36.99,18.64-7.93,10.8-15.51,21.13-23.22,31.63h-.01ZM274.11,230.14c-.27-.43-.63-1.68-1.47-2.24-5.23-3.54-10.52-6.98-15.9-10.28-.63-.38-2.35,0-2.85.61-3.06,3.7-5.9,7.57-8.83,11.38-1.29,1.67-1.29,3.28.39,4.61,4.58,3.63,9.17,7.26,13.89,10.72.88.65,2.51.88,3.57.57,3.78-1.1,11.02-10.84,11.2-15.37h0Z" style="fill: #ff9100;"/>
  <path d="M49.86,203.95c-11.33,5.87-22.85,11.83-34.57,17.91-5.94-11.98-10.12-24.3-12.75-37.27,13.1-2.66,25.91-5.27,38.52-7.84,2.94,9.1,5.85,18.08,8.8,27.2h0ZM37.07,181.92c-6.57,2.23-12.78,4.23-18.9,6.48-2.57.95-4.05,3.21-3.23,5.91,1.4,4.54,3.05,9.04,5.08,13.33.53,1.12,3.11,2.3,4.25,1.93,6.62-2.16,13.09-4.78,19.86-7.33-2.43-6.99-4.6-13.24-7.06-20.32h0Z" style="fill: #ff9100;"/>
  <path d="M40.09,261.14c-7.87-11.26-15.35-21.98-22.96-32.88,12.49-6.48,24.1-12.51,35.64-18.5,5.19,7.48,10.5,15.15,15.51,22.37-9,9.26-18.15,18.68-28.18,29h-.01ZM50.88,215.26c-5.68,4.13-11.67,8.36-17.51,12.8-2.16,1.64-1.74,4.2-.51,6.11,2.34,3.63,4.98,7.08,7.69,10.45,1.59,1.98,3.95,2.46,6,.95,5.17-3.82,10.21-7.83,15.15-11.95.6-.5.73-2.49.23-3.21-3.38-4.89-6.98-9.63-11.05-15.14h0Z" style="fill: #ff9100;"/>
  <path d="M222.71,259.18c3.91-2.84,7.18-5.22,10.76-7.81,2.8,3.32,5.79,6.85,8.81,10.43-4.03,2.86-7.79,5.54-12,8.53-2.57-3.78-5.15-7.57-7.57-11.14h0Z" style="fill: #ff9100;"/>
  <path d="M242.27,46.57c-2.99,3.66-5.86,7.17-8.58,10.49-3.72-2.8-7.24-5.44-11.18-8.41,2.37-3.37,4.95-7.04,7.69-10.93,4.09,3,7.89,5.78,12.07,8.85h0Z" style="fill: #ff9100;"/>
  <path d="M159.18,14.65v13.2h-13.58v-13.2h13.58Z" style="fill: #ff9100;"/>
  <path d="M259.99,87.15c-2.61-3.86-5.03-7.42-7.58-11.2,3.4-2.36,6.93-4.81,10.63-7.38,2.77,3.92,5.36,7.59,8.32,11.77-3.94,2.36-7.78,4.66-11.37,6.81h0Z" style="fill: #ff9100;"/>
  <path d="M291.84,163.01h-12.89v-13.54c3.59-.21,7.08-.39,10.57-.61,2.1-.13,2.48.88,2.38,2.81-.19,3.73-.05,7.47-.05,11.34h-.01Z" style="fill: #ff9100;"/>
  <path d="M190.25,287.67c-1.34-4.39-2.64-8.62-3.92-12.79,4.19-1.42,8.21-2.78,12.79-4.33,1.49,3.86,3.19,8.24,4.9,12.68-4.64,1.5-8.93,2.89-13.77,4.45h0Z" style="fill: #ff9100;"/>
  <path d="M270.13,200.63c1.6-4.24,3.04-8.06,4.65-12.32,4.06,1.24,8.21,2.5,12.51,3.81-1.75,4.64-3.31,8.77-5.01,13.3-4.02-1.58-8-3.15-12.15-4.79h0Z" style="fill: #ff9100;"/>
  <path d="M116.67,288.21c-4.74-1.55-9.02-2.95-13.64-4.46,1.42-4.09,2.85-8.23,4.29-12.39,4.38,1.2,8.48,2.33,12.94,3.55-1.17,4.33-2.37,8.77-3.59,13.3h0Z" style="fill: #ff9100;"/>
  <path d="M146.88,278.87h13.41c.17,3.66.47,7.51.41,11.35-.01.74-1.44,2.03-2.27,2.08-3.84.22-7.7.1-12.18.1.22-4.62.42-8.99.63-13.53h0Z" style="fill: #ff9100;"/>
  <path d="M84.01,259.5c-2.34,3.68-4.77,7.49-7.35,11.54-3.97-2.64-7.78-5.18-12.2-8.12,2.77-3.68,5.6-7.43,8.2-10.88,3.85,2.53,7.44,4.89,11.35,7.46Z" style="fill: #ff9100;"/>
  <path d="M71.71,57.6c-2.8-3.38-5.69-6.85-8.64-10.4,4.23-3.02,7.93-5.66,12.03-8.59,2.5,3.51,5.06,7.09,7.68,10.76-3.62,2.69-7.14,5.31-11.06,8.23h0Z" style="fill: #ff9100;"/>
  <path d="M53.3,76.33c-2.44,3.84-4.67,7.35-7.22,11.36-3.08-1.85-6.46-3.78-9.7-5.94-.51-.34-.77-1.98-.41-2.56,2.1-3.35,4.42-6.55,6.86-10.09,3.46,2.39,6.89,4.76,10.47,7.23Z" style="fill: #ff9100;"/>
  <path d="M35.01,112.1c-1.34,4.29-2.59,8.28-4.03,12.86-3.97-1.01-8.28-2.11-12.75-3.25,1.51-4.63,2.87-8.83,4.41-13.53,4.26,1.35,8.43,2.67,12.37,3.92Z" style="fill: #ff9100;"/>
  <path d="M106.28,37.07c-1.57-3.89-3.17-7.85-4.89-12.1,4.63-1.62,8.95-3.13,13.68-4.79,1.39,4.3,2.74,8.45,4.05,12.5-4.23,1.45-8.25,2.82-12.85,4.4h0Z" style="fill: #ff9100;"/>
  <path d="M271.33,110.75c3.94-1.41,7.89-2.82,12.02-4.29,1.57,4.66,3,8.94,4.59,13.67-4.13,1.13-8.15,2.23-12.51,3.43-1.36-4.25-2.66-8.3-4.1-12.8h0Z" style="fill: #ff9100;"/>
  <path d="M189.71,19.47c4.92,1.63,9.3,3.07,13.9,4.59-1.78,4.42-3.46,8.61-5.02,12.52-4.27-1.57-8.37-3.07-13-4.78,1.23-3.67,2.6-7.8,4.12-12.34h0Z" style="fill: #ff9100;"/>
  <path d="M14.91,164.43v-14.07h12.97v13.13c-3.96.29-8.23.59-12.97.93h0Z" style="fill: #ff9100;"/>
  <path d="M261.7,241.8c-3.49-2.74-6.95-5.46-10.42-8.19,2.67-3.41,5.22-6.67,7.91-10.11,3.09,1.92,6.25,3.89,9.41,5.85,1.79,1.12,1.02,2.23.05,3.45-2.25,2.84-4.43,5.72-6.95,9h0Z" style="fill: #ff9100;"/>
  <path d="M36.1,200.86c-3.86,1.57-7.82,3.18-12.06,4.91-1.72-4.48-3.37-8.78-5.13-13.39,4.44-1.39,8.61-2.7,12.64-3.96,1.54,4.21,2.96,8.1,4.55,12.44Z" style="fill: #ff9100;"/>
  <path d="M47.14,223.18c2.69,3.75,5.12,7.16,7.81,10.92-3.25,2.53-6.79,5.28-10.45,8.13-2.6-3.45-5.04-6.57-7.3-9.82-.37-.53-.27-2.04.16-2.36,3.27-2.45,6.67-4.72,9.79-6.87h0Z" style="fill: #ff9100;"/>
</svg>