<?xml version="1.0" encoding="UTF-8"?>
<svg id="Ebene_1" xmlns="http://www.w3.org/2000/svg" viewBox="0 0 896.01 928.66">
  <path d="M896.01,715.74c-5.56,9.05-10.54,18.51-16.78,27.06-17.14,23.46-41.02,37.51-68.01,46.87-5.5,1.91-11.03,3.73-16.56,5.56-25.41,8.43-43.79,24.68-54.74,49.2-.65,1.46-1.47,2.85-2.49,4.13,5.82-19.09,14.89-36.52,27.07-52.31,2.74-3.56,5.7-6.95,8.62-10.37,11.37-13.28,25.51-21.37,42.94-24.24,15.6-2.56,30.17-8.16,42.87-17.94,1.37-1.06,2.71-2.15,4.4-3.49-.95-.17-1.36-.37-1.53-.25-14.97,11.15-32.31,16.33-50.34,19.26-21.59,3.5-35.77,17.24-48.45,33.43-20.37,26.02-30.48,56.27-35.92,88.29-2.31,13.58-3.32,27.39-5.77,41.49-.45-2.57-1.54-5.22-1.23-7.69,1.77-14.2,3.19-28.49,6.01-42.49,6.71-33.36,16.07-65.99,32.11-96.22,4.48-8.44,10.36-16.31,16.59-23.59,8.32-9.71,19.57-14.95,32.24-16.32,4.63-.5,7.51-2.51,10.41-5.76,12.97-14.54,26.13-28.91,39.24-43.33.76-.84,1.65-1.56,3.32-1.91-5.21,15.42-10.42,30.84-15.86,46.93,20.01-3.8,36.56-13.23,51.84-25.31v9h.02Z"/>
  <path d="M0,697.74c1.94,1.15,4.1,2.03,5.78,3.48,15.36,13.27,29.09,20.97,45.93,25.38-3.91-12.51-7.72-24.73-11.53-36.95.28-.17.57-.33.85-.5,4.93,5.78,9.92,11.5,14.76,17.35,5.95,7.18,11.89,14.38,17.62,21.74,3.2,4.11,7.26,6.43,12.29,6.74,22.66,1.36,38.46,13.42,50.14,31.91,12.2,19.3,20.01,40.53,26.75,62.18,8.63,27.72,15.1,55.9,16.99,84.97.31,4.83.04,9.69.04,14.54-.73.03-1.45.05-2.18.08-.14-2.65-.33-5.29-.42-7.95-1.37-42.53-11.3-82.64-34.04-119.02-4.48-7.17-9.81-13.85-15.1-20.47-10.84-13.55-24.79-21.74-42.09-24.58-16.46-2.7-31.68-8.84-45.19-18.85-.59-.44-1.3-.71-2.16-.69,10.6,9.83,22.96,16.53,36.82,20.49,3.03.87,6.11,1.7,9.22,2.16,16.98,2.54,30.27,11.13,41.29,24.06,15.3,17.98,26.59,38.18,34.84,60.19.22.57.18,1.24.46,3.29-3.06-5.76-5.42-10.25-7.83-14.73-13.22-24.56-33.38-40.59-59.85-49.02-13.81-4.4-27.3-9.41-39.56-17.52-22.47-14.86-36.87-36.17-48.97-59.48-1.41-2.72-3.24-5.22-4.87-7.83v-1,.03Z"/>
  <path d="M851.62,549.4c.35.08.92.33,1.01.22,3.83-5.01,7.32-10.31,11.52-14.97,2.1-2.33,5.32-4.09,8.36-5.02,4.88-1.49,8.18,1.54,7.71,6.66-.19,2.1-.77,4.35-1.82,6.15-5.32,9.12-11.8,16.95-22.89,19.35-1.1.24-2.3,1.29-2.92,2.3-10.18,16.4-20.28,32.86-30.62,49.67,3.16-2.8,5.93-5.41,8.87-7.82,7.2-5.9,14.17-12.15,21.87-17.33,3.61-2.43,8.63-3.46,13.1-3.75,5.12-.33,7.94,4.09,5.25,8.4-2.9,4.64-6.72,9.19-11.18,12.27-5.97,4.11-12.97,6.71-19.48,10.05-4.29,2.2-8.55,4.46-12.73,6.86-12.78,7.34-19.31,18.79-21.46,33.06,5.06,2.52,5.81,3.99,2.94,9.11-6.61,11.82-14.77,22.18-28.14,27.04-.76.28-1.57.67-2.12,1.24-14.08,14.65-25.55,21.57-31.19,43.29-.54-7.01-1.01-14.13-1.67-21.23-.21-2.3-.59-4.69-1.44-6.82-5.89-14.87-2.96-29.11,2.88-43.14,2.79-6.71,5.85-13.31,8.57-20.05-7.62,9.34-17.12,30.99-17.72,42.32-.32,6.03.47,12.39,2.19,18.19,5.29,17.89,3.88,35.55-.42,53.27-.42,1.74-.8,3.49-.34,5.54,1.45-3.57,3.01-7.1,4.35-10.72,7.58-20.54,21.33-35.47,40.98-44.98,12.4-6.01,23.56-13.65,33.28-23.51,5.93-6.01,9.74-12.65,11.33-21.11,1.55-8.23,4.66-16.16,8.1-24,.09,1.62.18,3.23.29,5.2,3.91-3.84,7.63-7.32,11.1-11.05.7-.75.63-2.44.54-3.67-.31-4.22,1.39-7.25,5.36-8.54,3.65-1.18,7-.24,9.27,3.05,2.16,3.12,1.82,6.38-.41,9.28-2.57,3.35-5.89,4.12-9.72,2.09-.42-.22-.93-.29-1.5-.46-9.48,8.73-16.41,18.99-19.62,30.7,13.92-6.88,28.12-13.83,42.25-20.92,6.66-3.34,8.21-2.64,9.33,4.86.14.94.02,1.92.02,3.27-20.28-.24-37.9,5.76-51.22,21.81,4.39-2.13,8.67-4.57,13.21-6.32,4.78-1.85,9.78-3.21,14.76-4.44,1.35-.33,4.34.62,4.33.9-.11,3.09-.48,6.22-1.27,9.21-.13.49-2.74.85-3.94.46-11.23-3.64-20.65.01-29.92,6.7,4.12.57,7.65,1.05,11.18,1.53.05.62.09,1.25.14,1.87-9.98,7.76-24.63,7.49-32.85,18.12,1.61.52,4.22.71,4.48,1.59.5,1.68.31,4.31-.75,5.58-2.95,3.53-6.06,7.25-9.9,9.63-5.9,3.66-12.35,6.51-18.77,9.24-11.83,5.03-21.53,12.46-28.52,23.37-2.51,3.92-4.98,8.05-8.28,11.25-10.14,9.81-13.83,22.25-16.38,35.58-6.63,34.73-11.13,69.7-13.09,105-.07,1.25-.4,2.5-.6,3.74-.47.05-.95.1-1.42.15-.22-1.84-.73-3.7-.63-5.52,2.07-38.96,7.1-77.52,13.93-115.95,3.48-19.58,5.82-39.74-.25-59.45-2.19-7.11-5.13-14.1-8.59-20.69-5.97-11.38-5.76-22.07.88-33.1,8.24-13.69,15.71-27.77,28.16-38.49,7.96-6.86,7.08-24.48-.5-31.81-4.71-4.55-8.95-9.59-13.4-14.41.44-.63.87-1.26,1.31-1.89,3.9,1.27,7.8,2.54,12.34,4.02-1.5-5.3-2.96-10.44-4.49-15.85-4.64,1.72-8.73,3.51-12.98,4.75-4.22,1.22-6.23-.78-5.18-4.95,3.3-13.18,22.28-29.26,41.32-20.3,1.63.77,3.21,1.85,4.48,3.11,2.29,2.27,2.36,4.75-.38,6.79-1.45,1.08-3.07,1.99-4.71,2.77-6.87,3.27-6.81,3.22-4.9,10.78,1.01,3.99,1.73,8.05,2.92,13.63,5.22-5.9,9.69-10.94,14.58-16.46,3.06,12.32-4.71,28.68-15.37,33.13-3.95,1.65-5.62,3.81-5.85,8.01-.24,4.26-1.3,8.46-2.05,12.98,7.4-3.86,14.65-7.64,21.96-11.45-6.79,29.62-13.46,58.67-20.04,87.36,5.33-4.77,10.65-9.41,15.77-14.25.71-.67.92-2.43.64-3.5-3.75-14.11,2.19-26.1,8.32-37.99,1.56-3.03,4-2.63,5.03.31,1.01,2.87,1.29,6.08,1.39,9.16.08,2.25-.65,4.52-1.05,6.96,9.1-3.91,13.56-10.06,14.68-19.99,2.14-19.02,5.43-37.9,5.1-57.16-.06-3.34.7-7.27,2.55-9.89,1.46-2.05,5.32-3.59,7.86-3.28,1.77.22,4.43,4.02,4.35,6.13-.19,4.7-1.53,9.44-2.98,13.98-2.36,7.37-5.18,14.59-7.8,21.87.42.17.83.33,1.25.5,9.73-16.24,19.39-32.52,29.21-48.7,3.55-5.85,7.21-11.56,7.45-18.72.02-.58.95-1.13,1.46-1.69l-.07-.07h0Z"/>
  <path d="M50.27,549.16c.54,1.02,1.57,2.06,1.53,3.06-.29,6.86,3.88,11.86,6.98,17.3,9.15,16.03,18.35,32.04,28.17,47.95-.19-1.12-.24-2.28-.58-3.35-2.26-7.13-4.74-14.2-6.84-21.38-1.06-3.63-1.92-7.44-2.07-11.19-.13-3.3,1.45-6.27,5.27-6.88,3.78-.61,6.91,1.03,7.99,4.51,1.11,3.57,1.59,7.51,1.45,11.25-.76,20.62,2.27,40.85,5.72,61.07.67,3.92,2.23,6.74,5.86,8.62,2.46,1.27,4.58,3.2,7.2,5.08-.31-3.71-1.08-7.25-.74-10.69.21-2.18,2.06-4.21,3.18-6.3,1.56,1.36,3.64,2.42,4.59,4.12,5.55,9.95,9.05,20.34,6.17,32.01-.33,1.32.25,3.32,1.14,4.4,4.86,5.84,9.96,11.48,15.26,17.1-9.47-20.34-10.25-42.48-13.55-64.07-1.03-6.74-4.01-12.18-9.09-16.7-5.45-4.85-9.41-10.6-9.37-19.65,8.54,12.09,21.39,16.09,32.44,23.58-1.22-6.01-2.08-11.41-3.5-16.65-.43-1.58-2.15-3.4-3.7-3.98-10.82-4.05-18.39-14.88-18.32-27.26,5.04,3.93,9.86,7.67,15.19,11.82.68-7.03,1.31-13.52,1.96-20.19-3.97-1.02-7.88-1.69-11.54-3.03-5.22-1.91-5.74-5.07-1.62-8.85,6.09-5.6,13.52-7.29,21.4-5.87,10.24,1.85,18.65,7.09,24.54,15.79,1.13,1.67,1.74,4.56,1.05,6.28-.42,1.05-3.83,1.44-5.79,1.21-3.6-.41-7.12-1.49-11.49-2.47-1.23,5.64-2.45,11.18-3.78,17.29,4.25-1.25,7.73-2.27,11.22-3.3l1.08,1.53c-2.68,3.22-5.13,6.65-8.07,9.61-10.62,10.68-9.99,24.18.35,35,6.93,7.26,12.93,15.67,18.04,24.33,5.21,8.84,8.87,18.59,13.12,27.99,2.74,6.06,2.49,12.27-1.09,17.71-14.09,21.45-13.83,45.02-10.45,68.98,3.39,24.05,7.99,47.96,10.68,72.08,2.58,23.15,3.42,46.5,4.94,69.77.1,1.51-.53,3.06-.81,4.59h-1.39c-.22-2-.57-3.99-.63-5.99-1.11-38.03-4.85-75.77-12.37-113.09-1.05-5.22-2.25-10.41-3.21-15.65-1.35-7.31-5.08-13.2-10.03-18.62-4.49-4.9-9.01-9.91-12.62-15.45-8.95-13.76-21.52-21.93-37.21-25.8-3.71-.92-7.42-1.9-11.08-3.01-6.52-1.98-9.43-5.24-8.88-9.74.53-4.36,3.69-6.38,10.65-6.81.43-.03.86-.16.93-.17-10.86-12.76-26.51-17-41.92-21.7.12-.69.24-1.39.37-2.08,3.35-.7,6.7-1.4,10.28-2.15-8.55-5.83-17.29-9.9-27.92-6.19-1.28.45-4.11.1-4.22-.36-.72-2.99-1.02-6.12-1.03-9.2,0-.32,3.06-1.26,4.37-.86,6.8,2.1,13.52,4.47,20.2,6.92,2.08.77,3.95,2.1,6.17,2.8-5.26-7.79-12.43-13.46-21.17-16.25-8.43-2.69-17.35-3.81-26.36-5.68.03.4-.09-.11-.03-.59,1.14-9.46,2.77-10.31,11.19-5.82,10.69,5.69,21.37,11.39,32.2,17.17-1.22-1.9-2.58-4.12-4.03-6.28-3.25-4.84-6.67-9.56-9.76-14.5-2.07-3.31-3.71-6.12-8.62-5.92-4.02.16-6.92-5.17-6.1-9.34.87-4.41,5.26-7.21,9.85-6.28,4.19.85,6.98,5.1,6.02,9.48-.31,1.42-1.13,2.72-1.84,4.37,5.16,7.39,10.45,14.96,15.99,22.9v-22.42c.53-.01,1.05-.02,1.58-.03,1.07,8.3,2.49,16.57,3.1,24.9.46,6.34,2.59,11.66,6.9,16.14,10.7,11.12,22.23,21.34,36.62,27.29,18.26,7.56,30.56,20.93,39.44,37.95,3.88,7.44,7.2,15.18,11.27,22.63-1.35-7.15-2.82-14.28-4.02-21.46-2.71-16.09-2.43-32.25.32-48.26,2.4-13.97.48-26.73-7.4-38.67-3.36-5.09-5.91-10.73-9.35-15.99,1.73,4.3,3.39,8.63,5.2,12.9,3.05,7.18,7.49,14.06,8.91,21.53,1.35,7.11.08,14.88-.92,22.23-1.83,13.44-2.87,26.82-.88,40.3.09.61,0,1.24-.57,2-.67-1.64-1.62-3.23-1.98-4.93-2.53-12.22-9.44-21.86-17.81-30.67-1.84-1.93-3.61-3.92-5.4-5.9-4.05-4.46-7.94-8.45-13.96-11.16-10.43-4.7-17.07-14.08-21.7-24.54-.67-1.5-.9-4.45-.04-5.15,3.03-2.48,1.39-4.88.86-7.54-2.84-14.21-11.71-23.64-24.02-30.19-7.19-3.83-14.9-6.72-21.88-10.87-5.33-3.17-10.37-7.2-14.57-11.74-1.89-2.05-2.71-6.77-1.71-9.42,1.49-3.97,6.21-3.67,9.69-2.56,4.06,1.29,8.29,2.97,11.57,5.59,8.7,6.93,16.93,14.46,26.02,22.33-.98-1.83-1.63-3.15-2.38-4.41-8.54-14.29-17-28.63-25.75-42.79-1.23-1.99-3.68-3.82-5.93-4.47-8.43-2.42-20.19-14.91-20.99-23.66-.21-2.25,1.07-5.96,2.72-6.73,2.27-1.05,6.46-1.04,8.22.44,4.9,4.12,9.01,9.19,13.33,13.98,1.4,1.56,2.47,3.42,3.68,5.15l-.06-.12h-.03Z"/>
  <path d="M692.42,468.66c-2.16-.99-4.29-2.03-6.48-2.95-9.35-3.93-18.73-7.8-28.07-11.75-1.68-.71-3.33-1.54-4.86-2.53-3.27-2.13-4.03-5.34-2.74-8.76,1.28-3.4,4.27-4.67,7.73-4.02,2.24.42,4.55,1.19,6.5,2.36,9,5.38,17.88,10.95,26.8,16.46,1.76,1.09,3.49,2.23,5.23,3.35.29-.34.57-.68.86-1.02-1.03-1.09-1.99-2.25-3.1-3.25-7.91-7.15-15.89-14.23-23.77-21.41-5.29-4.82-6.39-9.53-3.22-12.91,3.57-3.81,9.08-3.28,13.85,2.28,7.36,8.59,14.21,17.63,21.29,26.47.78.98,1.6,1.93,2.4,2.9.38-.2.76-.4,1.14-.6-1.02-2.07-2.03-4.14-3.06-6.2-4.99-9.96-10.12-19.85-14.92-29.89-1.69-3.53-.91-7.1,2.84-8.99,3.87-1.95,7.52-1.14,10.16,2.48,1.17,1.6,2.23,3.35,2.94,5.19,1.51,3.87,2.83,7.81,4.12,11.77,2.43,7.46,4.78,14.94,7.17,22.42.49-.1.98-.2,1.47-.29-.72-6.13-1.54-12.25-2.15-18.38-.67-6.79-1.38-13.59-1.66-20.4-.22-5.44,2.4-8.27,6.98-8.48,4.76-.22,8.24,2.61,8.28,7.93.07,9.82-.51,19.64-.76,29.46-.09,3.35-.01,6.71-.01,10.06.4.05.81.11,1.21.16,1.12-4.87,2.18-9.76,3.37-14.61,1.59-6.46,3.18-12.92,5-19.31.62-2.2,1.58-4.45,2.95-6.25,2.21-2.89,5.71-4.45,8.77-2.3,2.2,1.55,4.26,4.83,4.38,7.42.14,3.27-1.49,6.75-2.83,9.93-3.42,8.12-7.13,16.13-10.68,24.2-.71,1.6-1.24,3.29-1.85,4.93.38.22.76.43,1.13.65,1.13-1.67,2.23-3.35,3.39-5,5.64-8.04,11.25-16.11,16.97-24.09,1.15-1.6,2.6-3.08,4.19-4.24,3.17-2.32,6.6-2.46,9.63.2,3.15,2.76,3.12,6.29.86,9.45-2.41,3.37-5.22,6.47-8.07,9.5-6.47,6.88-13.06,13.63-19.61,20.44.25.33.5.66.75.99,1.14-.7,2.35-1.31,3.42-2.11,6.68-4.97,13.32-10,20.01-14.95,2.14-1.58,4.38-3.04,6.66-4.41,5.97-3.57,10.7-3.14,13.19,1.09,2.48,4.22.93,8.07-5.42,11.48-10.12,5.43-20.43,10.49-30.65,15.72-1.08.55-2.1,1.23-2.77,2.74,6.71-2.15,13.39-4.4,20.13-6.42,5.89-1.77,11.82-3.48,17.81-4.88,5.38-1.26,9.41.9,10.42,5.07,1.01,4.16-1.57,7.8-7.31,8.8-13.1,2.28-26.28,4.11-39.54,6.68,1.13.14,2.26.37,3.4.42,11.15.47,22.3.88,33.45,1.39,1.81.08,3.67.34,5.39.88,3.63,1.14,5.58,3.66,4.92,7.57-.64,3.8-3.14,6.22-6.93,5.79-8.42-.95-16.79-2.32-25.14-3.74-5.95-1.01-11.85-2.39-17.76-3.6l-.34,1.18c3.5,1.32,7.03,2.57,10.49,3.98,9.23,3.76,18.5,7.44,27.61,11.49,3.05,1.35,5.32,4.41,3.6,7.74-1.1,2.13-3.86,4.2-6.2,4.68-2.31.47-5.25-.68-7.54-1.85-8.89-4.54-17.63-9.36-26.42-14.1-2.28-1.23-4.53-2.5-6.79-3.75-.3.35-.59.7-.89,1.05,1.33,1.22,2.61,2.5,4,3.64,7.61,6.21,15.32,12.31,22.87,18.6,6.75,5.63,7.91,9.7,4.25,13.67-3.57,3.87-8.65,3.18-14.23-2.6-6.81-7.07-13.27-14.48-19.85-21.78-1.71-1.9-3.31-3.9-4.97-5.85l-.99.69c1.9,3.41,3.74,6.85,5.73,10.21,4.25,7.16,8.67,14.22,12.85,21.42,3.13,5.4,2.47,10.12-1.4,12.34-4.26,2.43-9.08.97-11.8-4.9-4.82-10.39-8.86-21.14-13.22-31.74-.49-1.19-.86-2.44-2.27-3.5.92,7.06,1.9,14.12,2.73,21.19.64,5.45,1.34,10.92,1.54,16.4.19,5.3-2.88,8.59-7.48,8.84-4.83.26-8.45-2.94-8.43-8.45.03-10.82.57-21.64.88-32.47.05-1.81,0-3.62-.55-5.57-2.11,7.23-4.08,14.5-6.39,21.67-1.63,5.05-3.41,10.09-5.71,14.86-1.9,3.93-5.34,5.98-9.94,4.38-3.59-1.25-5.64-3.7-4.52-7.66.86-3.02,1.92-6.03,3.29-8.85,4.36-8.98,8.92-17.87,13.38-26.8.47-.94.76-1.96.56-3.2-7.02,9-13.99,18.04-21.09,26.98-1.54,1.94-3.34,3.75-5.3,5.25-3.91,2.98-8.5,2.77-11.34-.21-2.76-2.9-2.68-6.87,1.14-10.66,8.27-8.21,16.88-16.09,25.35-24.1,1.2-1.13,2.43-2.23,3.26-4.06-1.04.5-2.14.9-3.11,1.51-9.48,5.88-18.9,11.85-28.43,17.63-2.1,1.27-4.5,2.25-6.88,2.79-3.65.83-6.68-.57-8.19-4.1-1.45-3.38-.24-6.32,2.66-8.3,2.46-1.68,5.12-3.13,7.85-4.32,9.75-4.27,19.58-8.38,29.37-12.55.82-.35,1.63-.76,2.07-2.29-5.49,1.37-10.96,2.81-16.46,4.1-7.45,1.75-14.92,3.41-22.4,5.05-1.45.32-2.97.51-4.45.51-4.19,0-7.28-1.82-7.65-6.21-.36-4.21,1.9-7.15,6.15-7.74,8.41-1.17,16.85-2.1,25.29-2.98,5.68-.59,11.4-.92,17.14-2.52-4.81-.43-9.63-.86-14.44-1.29-7.96-.72-15.93-1.42-23.89-2.19-1.64-.16-3.29-.49-4.88-.96-3.46-1.03-5.33-3.33-4.91-7.07.43-3.73,2.89-5.88,6.34-5.86,4.45.02,8.97.53,13.33,1.46,10.51,2.22,20.94,4.81,31.4,7.25l.38-.92.04-.05ZM721.59,456.4c-13.35.03-24.17,10.5-24.11,23.31.06,12.23,10.53,22,23.59,22.04,12.99.03,23.72-10.08,23.81-22.46.09-12.7-10.31-22.92-23.29-22.89h0Z"/>
  <path d="M206.8,471.55c6.57-2.13,13.1-4.36,19.71-6.36,5.89-1.78,11.81-3.49,17.8-4.9,5.44-1.28,9.38.79,10.46,4.98,1.09,4.25-1.28,7.79-7.17,8.83-12.12,2.14-24.34,3.74-36.52,5.56-.79.12-1.58.2-2.42,1.12,1.07.14,2.13.36,3.21.4,11.15.48,22.3.92,33.45,1.41,1.49.07,3.03.17,4.44.6,3.74,1.16,6.11,3.56,5.49,7.74-.61,4.09-3.33,6.29-7.34,5.91-6.61-.63-13.21-1.56-19.76-2.71-7.49-1.32-14.92-3-22.71-3.6,1.05.48,2.08,1.03,3.16,1.44,9.62,3.71,19.26,7.36,28.86,11.11,2.01.78,3.97,1.77,5.8,2.9,3.29,2.03,5.22,4.88,3.53,8.81-1.65,3.82-5.04,4.72-8.78,3.87-2.23-.51-4.42-1.49-6.45-2.58-7.92-4.23-15.78-8.58-23.65-12.9-2.68-1.47-5.34-2.99-8-4.49l-.71,1.04c1.65,1.5,3.24,3.05,4.95,4.48,7.29,6.08,14.62,12.11,21.92,18.19,1.15.96,2.25,2,3.25,3.11,3.33,3.69,3.7,7.34.88,10.22-3.18,3.24-7.03,3.25-10.44.76-3.33-2.44-6.36-5.4-9.13-8.48-6.12-6.81-12-13.83-17.93-20.81-.59-.7-.79-1.72-1.16-2.6l-1.64,1.37c3.68,6.41,7.36,12.83,11.04,19.24,2.73,4.77,5.63,9.44,8.13,14.33,2.37,4.63,1.41,8.54-2.07,10.54-3.6,2.07-8.34,1.04-10.88-3.06-2.43-3.93-4.42-8.2-6.12-12.52-3.26-8.28-6.18-16.68-10.08-24.87.86,7.49,1.77,14.97,2.57,22.47.53,4.96,1.22,9.94,1.28,14.92.07,5.87-3.37,9.1-8.51,8.76-4.54-.3-7.44-3.46-7.28-9,.32-11.65,1-23.29,1.55-34.93.05-.98.19-1.95-.77-3.25-.53,1.69-1.08,3.38-1.59,5.07-2.88,9.54-5.69,19.11-8.7,28.62-.64,2.01-1.78,4-3.14,5.62-2.56,3.05-5.92,3.63-9.46,1.76-3.45-1.82-4.68-4.93-3.25-8.45,2.69-6.62,5.66-13.13,8.71-19.59,2.81-5.93,5.88-11.73,7.97-18.15-3.83,5.11-7.59,10.27-11.5,15.32-3.87,5-7.6,10.18-11.98,14.7-2.12,2.19-5.52,4.06-8.49,4.31-5.79.49-8.93-5.39-5.87-10.33,1.38-2.23,3.29-4.19,5.19-6.04,8.45-8.2,16.99-16.31,24.99-25.24-2,1.23-4.01,2.42-5.99,3.68-7.71,4.93-15.41,9.9-23.13,14.82-1.4.89-2.87,1.7-4.35,2.45-5.86,2.98-10.66,2.33-12.83-1.7-2.21-4.08-.27-7.99,6.2-11.09,10.5-5.03,21.15-9.74,31.74-14.59,1.4-.64,2.77-1.33,3.73-3.1-8.12,2.19-16.21,4.46-24.36,6.53-5.32,1.35-10.66,2.69-16.08,3.53-6.11.95-9.88-1.4-10.4-5.79-.5-4.12,2.46-7.42,8.23-8.17,11.88-1.54,23.81-2.74,35.71-4.08,1.67-.19,3.33-.38,4.89-1.68-10.89-.76-21.77-1.5-32.66-2.29-2.82-.21-5.65-.44-8.44-.92-5-.86-7.41-3.51-6.91-7.51.58-4.6,4.03-6.39,7.87-5.96,8.25.91,16.44,2.41,24.6,3.96,6.05,1.15,12,2.76,18,4.17.13-.41.25-.83.38-1.24-8.68-3.51-17.38-6.99-26.05-10.54-4.15-1.7-8.35-3.35-12.36-5.35-3.65-1.82-5.57-4.81-3.96-9.04,1.37-3.59,5.59-5.69,9.57-4.06,5.06,2.07,9.92,4.7,14.64,7.47,7.59,4.44,14.99,9.2,23.23,13.23-.83-.96-1.58-2.01-2.52-2.85-7.72-6.87-15.48-13.68-23.2-20.54-1.49-1.32-2.92-2.74-4.23-4.24-2.58-2.95-3.43-6.28-.65-9.45,2.8-3.21,6.57-3.45,9.94-1.2,2.86,1.91,5.49,4.36,7.71,7.01,6.09,7.28,11.89,14.8,17.82,22.21.78.98,1.62,1.9,3.26,2.37-.68-1.57-1.27-3.2-2.07-4.71-5.04-9.57-10.16-19.09-15.18-28.67-1.7-3.23-2.61-6.59.21-9.75,3.34-3.73,9.42-3.22,12.37,1.59,2.4,3.92,4.11,8.35,5.64,12.72,2.95,8.42,5.56,16.95,8.31,25.44.45-.05.9-.09,1.35-.14-.08-1.43-.11-2.87-.25-4.29-1.14-10.93-2.5-21.84-3.37-32.78-.48-5.96,2.32-9.39,6.89-9.74,4.78-.36,8.52,2.95,8.55,8.92.06,9.81-.63,19.63-1.02,29.45-.12,2.95-.32,5.9-.48,8.85.44.12.87.24,1.31.37.55-1.67,1.2-3.31,1.63-5.01,2.36-9.34,4.63-18.71,7.04-28.04.49-1.91,1.27-3.82,2.3-5.5,2.26-3.7,5.65-5.32,9.8-3.57,4.09,1.73,5.9,5.18,4.23,9.38-3.87,9.72-8.11,19.3-12.2,28.93-1.13,2.65-2.27,5.29-3.41,7.93l1.21.63c2.71-3.91,5.36-7.86,8.15-11.71,4.3-5.93,8.64-11.83,13.11-17.64,1.19-1.55,2.73-2.98,4.39-4,3.17-1.94,6.44-1.65,9.21.9,2.87,2.65,3.08,5.92.98,9.04-1.76,2.61-3.84,5.03-6.03,7.29-6.26,6.47-12.64,12.8-18.96,19.21-1.08,1.1-2.1,2.27-3.14,3.41.29.33.59.66.88.99,1.42-.96,2.86-1.87,4.24-2.87,6.88-4.99,13.72-10.02,20.61-14.99,1.89-1.36,3.84-2.67,5.87-3.79,5-2.74,9.73-2.06,12.03,1.61,2.45,3.91,1.19,7.99-4.34,10.99-10.23,5.55-20.72,10.65-31.1,15.93-1.13.57-2.27,1.11-3.41,1.67.14.42.28.84.42,1.26h-.01ZM153.22,476.89c-.19,13.41,10.58,24.34,24.25,24.58,12.21.22,22.97-9.88,23.34-21.9.39-12.79-10.72-24.31-23.76-24.63-12.51-.31-23.66,9.96-23.83,21.95Z"/>
  <path d="M121.14,143.46c12.85,8.32,25.7,16.65,38.56,24.97,1.18.76,2.4,1.47,4.43,1.35-4.61-5.77-9.08-11.67-13.94-17.23-1.09-1.25-3.48-1.72-5.33-1.89-4.95-.45-6.49-1.32-9.63-6.89,2.47-.52,4.73-.99,6.99-1.47.23-.4.46-.8.69-1.2-2.86-1.48-5.58-3.46-8.61-4.3-3.76-1.04-7.44-1.69-9.49-6.56,2.55-.31,4.73-.58,7.15-.88-1.09-3.59-3.36-4.8-7.04-4.65-5.93.24-8.33-1.69-10.45-8.45,9.38,3.35,14.02-3.32,19.07-8.94,4.01,6.16,3.33,10.66-2.42,17.03,7.66,9.72,15.39,19.54,23.12,29.35.24-.13.47-.25.71-.38-1.35-7.6-2.56-15.22-4.19-22.76-.27-1.28-2.33-2.16-3.54-3.24-2.28-2.03-3.29-4.25-.87-6.86,2.22-2.4,7.35-2.55,9.57-.23,2.32,2.43,2.09,5.31-.48,6.88-3.93,2.4-3.46,5.33-2.58,8.91,1.51,6.11,2.54,12.35,4.18,18.42.58,2.12,2.37,3.92,4.26,5.55.23-5.1,2.81-10.12-1.66-14.65-.77-.78.27-4.89,1.6-5.79,1.39-.94,4.91-.62,6.08.56.98.98.4,4.21-.4,6.05-.68,1.56-3.77,2.47-3.86,3.8-.27,4.07-.41,8.48.86,12.27,2.69,8.06,7.65,14.43,15.42,18.79,8.1,4.54,15.64,10.07,23.33,15.11-1.83-7.01-4.34-14.22-5.53-21.64-2.39-14.95-4.17-29.99-6-45.03-2.19-17.99-7.14-35.15-18.35-49.5-9.86-12.61-9.08-24.73-1.43-37.35,3.6-5.94,7.97-11.43,12.22-16.95,1.23-1.6,3.25-2.6,5.33-4.19,0,1.19.18,1.76-.03,2.11-6.44,11.28-6.05,22.67-1.73,34.66,1.31,3.64.85,8.81-.74,12.43-3.37,7.65-3.55,15-1.54,22.86,4.57,17.85,8.9,35.76,13.07,52.58,6.79-9.6,14.47-20.47,22.23-31.44-5.59-5.87-6.22-10.15-.68-16.88,5.99-7.28,12.71-13.96,19.11-20.91.62.3,1.24.61,1.86.91-2.21,9.34-4.26,18.72-6.74,27.99-.56,2.09-2.26,4.28-4.06,5.56-13.35,9.52-19.8,23.78-26.71,37.83-3.63,7.38-4.21,14.47-2.09,22.51,4.09,15.51,9.2,30.54,16.47,44.62,11.92-21.51,23.85-43.03,35.78-64.55.47.03.94.07,1.42.1-.32,4.59.33,9.52-1.18,13.69-2.8,7.77-6.8,15.11-10.44,22.56-.63,1.29-1.76,2.72-3.01,3.27-11.17,4.86-13.18,15.92-17.46,25.44-1.87,4.17-1.41,7.69,1.03,12,9.29,16.4,16.81,33.6,20.27,52.49-.44-.12-.8-.12-.87-.25-10.79-22.11-21.52-44.25-32.36-66.33-1-2.03-2.39-4-4.01-5.58-13.02-12.74-27.53-23.61-42.59-33.82-13.5-9.16-26.7-18.77-39.96-28.29-1.18-.84-1.81-2.44-2.7-3.69l-.13.15.02-.03Z"/>
  <path d="M805.35,136.12c-1.57,1.83-3.15,3.66-5.02,5.84.08,1.11.22,3.03.36,4.96-2.28.13-4.57.14-6.83.42-1.34.17-2.81.49-3.9,1.22-15.67,10.38-31.1,21.14-46.97,31.2-13.93,8.83-25.79,19.94-37.37,31.46-1.25,1.25-2.08,2.99-2.89,4.61-7.94,15.92-15.83,31.86-23.73,47.8-2.85,5.75-5.67,11.51-9.54,16.92,2-6.81,3.43-13.85,6.12-20.37,4.62-11.21,10.13-22.04,15.03-33.14.91-2.06,1.38-4.8.85-6.93-1.24-4.98-3.15-9.8-4.9-14.65-1.77-4.89-3.71-9.59-9.43-11.4-1.58-.5-3.12-2.1-4.01-3.6-5.06-8.59-10.17-17.17-14.72-26.04-1.9-3.7-3.28-8.05-.18-13.68,2.88,2.83,5.55,5.09,7.78,7.72,4.92,5.8,9.49,11.88,14.44,17.65,4.19,4.9,6.18,10.43,6.7,16.81.31,3.82,1.32,7.67,2.58,11.31,1.51,4.37,3.62,8.54,5.79,13.52,1.88-3.58,3.85-6.46,4.99-9.63,5.41-14.98,10.63-30.02,15.8-45.09.43-1.26.28-2.96-.17-4.26-4.97-14.59-11.56-28.35-21.49-40.31-1.04-1.25-2.29-3.06-3.6-3.2-7.6-.83-9.71-6.53-11.01-12.45-1.92-8.75-3.18-17.64-4.93-27.72,8.68,8.08,16.84,15.09,22.36,24.51,3.31,5.64,1.32,10.5-2.37,14.06,7.99,11.39,15.78,22.5,23.68,33.77,1.13-7.03,1.99-14.51,3.59-21.81,2.06-9.4,4.45-18.75,7.18-27.98,2.73-9.24,3.73-18.06-1.1-27.09-1.39-2.6-1.4-6.58-.66-9.59,5.25-21.24,5.37-21.21-4.1-41.53,1.94,1.32,4.07,2.44,5.78,4.01,10.34,9.54,16.69,21.49,20.36,34.9,1.37,5,.84,10.07-2.51,14.27-15.82,19.79-21.95,42.95-23.99,67.64-1.57,19.09-4.19,38-12.62,57.04,4.97-3.45,8.75-6.2,12.66-8.74,4.75-3.08,9.54-6.08,14.44-8.91,9.4-5.43,14.76-13.71,15.87-24.56.11,1.92.22,3.85.34,5.77.44.23.88.45,1.32.68,2.16-3.78,4.33-7.56,6.55-11.45-.11,1.08-.23,2.25-.47,4.66,10.61-13.53,20.58-26.23,30.28-38.6,1.61,1.04,2.72,2.01,4.01,2.53,3.25,1.3,4.03,3.76,1.3,5.98-1.83,1.49-4.42,2.98-6.6,2.88-4.31-.19-6.75,1.77-9,4.96-2.08,2.96-4.52,5.67-6.09,7.6,1.83,2.63,3.24,4.65,4.65,6.68-2.73,1.11-5.44,2.24-8.19,3.3-1.3.5-3.12.44-3.91,1.34-4.92,5.55-9.61,11.3-14.38,16.99.3.3.61.61.91.91,7.66-5.09,15.42-10.03,22.94-15.31,5.51-3.88,10.61-8.33,16.08-12.26,1.66-1.19,4-1.38,5.92-2.26,2.08-.96,4.04-2.18,6.06-3.29l-.05-.08h0Z"/>
  <path d="M218.18,758.9c-13.48,41.63-18.5,87.85-19.53,134.71-.55-.02-1.09-.03-1.64-.05-.19-.95-.52-1.9-.55-2.86-.68-24.28-1.31-48.56-1.97-72.84-.45-16.76-3.36-33.67,1.57-50.17,9.04-30.2,28.54-51.32,57.13-64.22.75-.34,1.55-.59,2.35-.81.28-.08.63.05,1.3.12-2.37,4.06-4.7,7.97-6.96,11.92-9.43,16.46-12.86,34.86-16.78,53.05-3.18,14.74-7.52,28.89-15.41,41.9-7.5,12.37-10.97,26.28-14.07,40.26-.53-.1-1.05-.21-1.58-.31,5.54-31.16,11.08-62.32,16.13-90.69h0Z"/>
  <path d="M755.72,379.32c.42-2.3.44-4.78,1.32-6.89,8.06-19.11,8.86-39.34,10.13-59.63.58-9.25,3.57-18.34,6.3-27.36,5.24,12.72,5.58,25.48,2.64,38.46,4.43-7.84,8.87-15.68,13.3-23.52.58.28,1.16.57,1.75.85.49,9.32-3.54,17.42-7.73,25.39-4.24,8.07-8.81,15.97-12.58,24.53,13.45-13.47,26.9-26.94,40.92-40.98-1.27,16.33-8.18,28.11-21.91,35.43-12.04,6.42-21.63,15.38-28.97,26.81-1.5,2.33-2.84,4.76-4.26,7.14l-.93-.23h.02Z"/>
  <path d="M127.06,352.11c-7.79-16.61-19.99-30.82-20.33-49.9,7.79,6.75,10.38,16.5,14.85,25.71-.76-7.34-2.06-14.16-1.99-20.97.07-6.66,1.54-13.31,2.39-19.96.78-.07,1.56-.15,2.34-.22,1.91,7.56,4.45,15.04,5.57,22.72,1.27,8.7.72,17.65,1.96,26.36,1.36,9.64,3.68,19.17,5.89,28.67,1.37,5.91,3.31,11.69,3.93,17.86-2.34-3.75-4.56-7.58-7.03-11.25-6.71-9.97-15.35-17.87-25.79-23.85-13.58-7.77-21.95-19.01-22.97-33.88,13.21,12.41,27.03,25.38,41.19,38.69v.02Z"/>
  <path d="M568.33,134.21c-.88-1.02-1.44-1.4-1.64-1.93-5.05-13.52-10.13-27.02-15-40.6-.76-2.11-.75-4.6-.62-6.89.37-6.53,4.81-11.52,10.48-12.16,5.73-.64,11.51,3.06,13.17,9.2.94,3.45,1.36,7.3.89,10.82-1.62,12.18-3.7,24.31-5.68,36.44-.25,1.54-.93,3.02-1.6,5.12Z"/>
  <path d="M316.46,264.2c-3.66-2.83-6.85-5.12-9.85-7.63-8.03-6.71-16.19-13.29-23.87-20.38-4.45-4.11-7.76-9.25-6.02-15.95,1.99-7.67,9.28-11.28,16.29-7.53,3.06,1.64,6.44,4.31,7.72,7.34,5.81,13.72,10.92,27.72,16.24,41.64.15.38-.17.94-.51,2.51Z"/>
  <path d="M328.25,134.68c-1.17-6.85-2.26-12.44-3.06-18.07-1.08-7.56-2.14-15.13-2.81-22.74-.31-3.59-.15-7.35.59-10.86,1.52-7.31,7.01-11.29,13.51-10.4,6.11.84,10.68,6.77,10.32,13.82-.13,2.62-.58,5.35-1.52,7.78-4.84,12.53-9.87,24.97-14.88,37.44-.28.69-.87,1.25-2.16,3.04h0Z"/>
  <path d="M612.57,264.62c-.56-1.4-.97-1.97-.98-2.55-.28-14.11-.57-28.21-.7-42.32-.02-1.94.59-3.95,1.27-5.8,2.32-6.34,8.14-10.08,13.34-8.75,5.93,1.52,10.05,7.64,9.09,14.24-.5,3.41-1.37,6.94-2.89,10-5.48,10.99-11.31,21.8-17.04,32.67-.36.68-.99,1.22-2.09,2.52h0Z"/>
  <path d="M50.33,549.28c-1.49-10.8-7.5-18.6-16.26-24.59-4.25-2.91-8.75-5.54-12.71-8.8-5.81-4.78-9.9-10.9-10.73-18.56-.3-2.71.63-5.56.99-8.35.57-.11,1.14-.21,1.71-.32,1.12,1.26,2.14,2.62,3.37,3.75,3.09,2.84,5.82,6.87,9.49,8.14,14.44,5,22.24,14.62,23.21,29.79.4,6.25.56,12.51.85,18.79,0,.02.08.14.08.14h0Z"/>
  <path d="M851.69,549.47c-4.87-19.35,5.17-40.37,23.04-47.7,4.86-1.99,8.75-4.63,10.92-9.55.51-1.15,1.51-2.07,2.45-3.31,3.9,2.2,3.71,5.66,3.27,8.82-1.23,8.74-6.2,15.32-13,20.55-3.82,2.93-8.06,5.32-11.94,8.19-7.78,5.75-12.94,13.27-14.82,22.9.02.03.09.09.09.09h-.01Z"/>
  <path d="M613.56,36.54c-9.21-4.49-18.77-8.4-27.52-13.65-7.35-4.42-7.92-11.95-2.72-17.91,5.4-6.18,14.26-6.59,19.89-.86,1.04,1.06,2.16,2.24,2.65,3.59,3.25,9.02,6.35,18.1,9.49,27.16-.6.56-1.19,1.11-1.79,1.67h0Z"/>
  <path d="M297.17,35.44c3.46-9.44,6.27-19.2,10.57-28.24,4.17-8.78,15.18-9.51,21.82-2.32,4.48,4.85,4.62,10.88-.05,15.63-2.05,2.09-4.63,3.86-7.27,5.13-7.77,3.74-15.7,7.16-23.57,10.71-.5-.3-1-.6-1.5-.91h0Z"/>
  <path d="M712.63,271.59c1.91-9.09,3.32-18.75,6.02-28.03,3.95-13.6,12.52-23.23,26.78-26.82,4.32-1.09,8.68-2,13.4-3.07-2.27,5.92-4.74,12.04-11.24,14.45-12.13,4.5-18.05,14.21-22.24,25.34-2.83,7.51-6.5,14.16-12.71,18.13h-.01Z"/>
  <path d="M208.67,274.69c-3.85-5.43-8.12-10.63-11.42-16.38-2.28-3.97-4.34-7.67-8.55-9.96-2.12-1.16-4.1-2.96-5.55-4.91-6.56-8.79-12.91-17.72-19.31-26.62-.53-.73-.85-1.61-.53-3.21,3.84,2.73,7.96,5.15,11.48,8.24,9.71,8.53,19.21,17.31,28.67,26.12.97.9,1.29,2.61,1.67,4.01,1.34,5.05,2.58,10.12,3.83,15.19.54,2.18.99,4.37,1.48,6.56-.58.32-1.17.64-1.75.96h-.02Z"/>
  <path d="M833.58,177.39c-10.64,13.1-21.3,24-38.32,16.75,4.91-3.06,10.47-7.41,16.73-10.17,6.6-2.91,13.88-4.31,21.59-6.58Z"/>
  <path d="M128.16,195.17c-16.47,5.18-27.12-5.05-37.55-17.97,8.62,2.69,16.63,4.72,24.22,7.79,3.44,1.39,6,4.89,9.05,7.32,1.56,1.24,3.32,2.23,4.28,2.87h0Z"/>
  <path d="M721.04,376.89c-3.29-9.17-4.21-17.28-1.88-25.47.54-1.88,2.77-3.28,4.22-4.9,1.32,1.68,3.44,3.19,3.83,5.07,1.84,8.88-.45,16.95-6.17,25.31h0Z"/>
  <path d="M110.99,288.91c-.52.9-1.38,2.39-2.23,3.87-1.45-.88-3.61-1.41-4.23-2.69-2.87-5.88-5.5-11.9-7.77-18.03-.44-1.2.66-3.95,1.75-4.46,1.11-.51,3.56.43,4.61,1.52,5.05,5.22,6.88,11.89,7.87,19.78h0Z"/>
  <path d="M177.83,379.6c-5.95-8.05-8-15.88-6.75-24.44.27-1.83,2.13-3.43,3.25-5.13,1.67,1.37,4.19,2.42,4.86,4.18,3.12,8.15,1.73,16.24-1.36,25.4h0Z"/>
  <path d="M787.01,287.65c1.1-7.97,2.77-14.72,8.16-19.78,1.06-.99,3.21-1.97,4.24-1.52,1.08.47,2.06,2.71,1.95,4.08-.62,7.91-4.44,14.47-9.45,20.38-.58.68-2.76,1.1-2.99.78-.99-1.38-1.53-3.09-1.9-3.94h0Z"/>
  <path d="M628.92,413.61c-10.71-1.47-24.09-12.49-24.95-20.21,7.51-.92,20.43,9.42,24.95,20.21Z"/>
  <path d="M812.93,278.68c1.17,10.45-8.04,23.45-16.3,23.42-1.29-6.82,8.65-21.39,16.3-23.42Z"/>
  <path d="M655.33,652.05c8.22,9.82,8.35,20.94,8.85,32.7-8.36-6.6-13.53-25-8.85-32.7Z"/>
  <path d="M271.77,414.52c3.07-9.3,16.57-20.04,24.59-19.57-.4,7.58-15.06,19.24-24.59,19.57Z"/>
  <path d="M233.9,684.57c-1.57-9.74-.44-18.95,3.71-27.65.62-1.3,2.25-2.13,3.42-3.17.76,1.49,2.14,2.96,2.19,4.47.31,9.93-3.41,18.55-9.31,26.36h-.01Z"/>
  <path d="M144.62,199.1c1.35-1.17,2.9-2.86,4.77-4.03,1.47-.92,3.66-2,4.92-1.5,1.05.42,1.66,3.04,1.68,4.7.05,4.14.24,8.64-4.45,10.77-4.67,2.13-9.28,2.3-13.36-1.36.65-3.77,7.06-3.43,6.44-8.59h0Z"/>
  <path d="M85.62,280.09c6.72,1.86,15.78,14.44,16.18,22.45-7.93,1.5-18.49-13.16-16.18-22.45Z"/>
  <path d="M782.36,203.84c-4.24,4.09-9.85,5.49-13.63,3.17-4.47-2.74-4.63-7.4-4.25-11.89.32-3.73,2.41-4.58,5.36-2.21,4.22,3.39,8.17,7.11,12.52,10.93Z"/>
  <path d="M632.61,653.26c6.3,5.03,8.9,20.35,5.19,28.88-6.41-5.38-9.54-22.09-5.19-28.88Z"/>
  <path d="M615.74,434.27c-8.4.91-20.44-8.2-21.39-16.2,8.28-1.09,20.12,7.87,21.39,16.2Z"/>
  <path d="M305.71,419.74c-1.15,7.48-12.57,15.99-21.36,15.93.09-7.8,13.23-17.6,21.36-15.93Z"/>
  <path d="M259.46,682.67c-3.85-9.68-1.71-23.79,4.13-28.68,4.69,5.75,2.61,21.21-4.13,28.68Z"/>
  <path d="M645.29,99.05c-1.01-.38-2.64-.7-3.91-1.56-2.28-1.54-4.61-3.17-6.37-5.23-.87-1.01-1.16-3.47-.5-4.53.53-.86,2.89-.5,4.4-.86,1.66-.4,3.29-.96,4.9-1.53,1.32-.47,3.27-1.84,3.75-1.43,1.07.92,2,2.77,1.87,4.12-.22,2.24-1.26,4.41-2.09,6.56-.62,1.62-1.45,3.17-2.04,4.44v.02Z"/>
  <path d="M271.79,87.36c2.93.55,5.44,1.02,7.95,1.49-1.61,2.64-2.85,5.62-4.94,7.79-1.46,1.53-4.07,1.97-6.33,2.97-1.19-2.44-3-4.9-3.53-7.61-.48-2.45.45-5.17.76-7.77,2.1,1.08,4.19,2.15,6.09,3.13h0Z"/>
  <path d="M252.21,401.71c4.49-9.91,10.41-16.65,19.96-20.04,1.5,6.47-8.3,16.52-19.96,20.04h0Z"/>
  <path d="M667.69,387.86c-8.4-1.83-16.53-12.28-15.5-19.52,7.09.44,14.97,10.17,15.5,19.52Z"/>
  <path d="M280.89,66.6c-.99-3.27-2.46-6.77-2.97-10.4-.23-1.65,1.43-3.57,2.23-5.37,1.38,1.18,2.77,2.34,4.12,3.55.36.32.61.77.87,1.11.21.09.35.19.5.2,2.45.08,6.19-2.85,6.86,1.14.33,1.99-2.91,4.94-5.07,6.85-1.59,1.41-4.04,1.86-6.53,2.92h0Z"/>
  <path d="M75.22,434.75c-7.07,2.45-12.67,2.8-17.88-.2-1.54-.89-2.22-3.29-3.29-5,1.72-1,3.41-2.78,5.17-2.85,6.33-.27,11.09,2.92,16,8.05h0Z"/>
  <path d="M231.3,390.01c.7-8.8,8-17.77,15.17-19.05,2,6.87-6.04,17.19-15.17,19.05Z"/>
  <path d="M647.59,399.74c-9.94-2.37-19.45-11.85-20.26-20.27,10.18,3.47,15.65,10.76,20.26,20.27Z"/>
  <path d="M86.25,416.73c-6.08,1.63-11.58,1.53-16.38-2.12-1.37-1.04-2.63-4.14-2.03-5.34.68-1.36,3.65-2.52,5.38-2.24,5.61.91,10.09,3.86,13.03,9.7h0Z"/>
  <path d="M626.07,55.32c2.9-1.81,4.95-3.09,7.01-4.37.54,2.89,1.91,5.95,1.36,8.62-.41,2.01-3.2,4.87-5.06,4.98-4.42.25-9.35-4.02-8.95-7.03.68-5.07,4.27-2.29,5.63-2.2h.01Z"/>
  <path d="M111.2,136.47c-2.75.42-5.54,1.33-8.25,1.14-3.66-.26-6.43-2.32-5.92-6.5.46-3.81,3.34-5.2,6.82-5.21,3.66-.01,6.96,3.18,7,6.39.01,1.45.15,2.89.23,4.34l.13-.16h-.01Z"/>
  <path d="M812.53,414.18c4.04-2.61,7.88-5.69,12.23-7.6,1.66-.72,4.5,1.27,6.8,2.02-1.1,2.03-1.71,4.83-3.41,5.95-4.46,2.92-9.56,3.14-14.63,1.66-.33-.68-.67-1.36-1-2.04h.01Z"/>
  <path d="M825.78,434.14c3.84-4.62,8.66-7.2,14.53-7.27,1.57-.02,3.85,1.38,4.5,2.75.46.98-.87,3.42-2.06,4.46-3.96,3.44-11.78,3.41-16.97.06h0Z"/>
  <path d="M701.56,664.66c-4.4-6.87-5.58-13.46-4.47-20.5.14-.9,1.3-2.28,2.01-2.29.87-.01,2.12,1,2.57,1.88,3.31,6.6,3.05,13.26-.11,20.9h0Z"/>
  <path d="M195.56,664.53c-3.93-7.21-3.03-17.79,1.87-21.87,4.48,4.02,3.46,15.88-1.87,21.87Z"/>
  <path d="M685.71,679.29c-5.28-6.94-6.84-16.74-3.7-21.82,5.58,3.14,7.53,13.93,3.7,21.82Z"/>
  <path d="M50.77,418.65c-4.59,3.05-9.74,4.43-15.26,3.71-1.49-.19-2.77-1.94-4.15-2.98,1.24-1.34,2.48-3.83,3.72-3.83,5.24.02,10.48.77,15.72,1.26,0,.61-.02,1.23-.03,1.84Z"/>
  <path d="M256.82,139.44c.53-2.69.8-4.3,1.16-5.89,1.34-5.91,4.7-7.55,10.31-4.82,1.17.57,2.63,1.94,2.68,3.01.05,1.13-1.15,2.91-2.26,3.4-3.57,1.58-7.35,2.71-11.9,4.31h.01Z"/>
  <path d="M657.61,138.33c-4.68-1.49-8.19-2.38-11.48-3.79-1.29-.55-2.88-2.31-2.84-3.48.03-1.16,1.74-2.76,3.06-3.27,2.26-.88,4.79-1.06,7.66-1.62.99,3.34,2.1,7.09,3.6,12.15h0Z"/>
  <path d="M849.3,416.97c4.77-.76,9.53-1.91,14.32-2.06,1.62-.05,3.31,2.42,4.97,3.74-1.65,1.13-3.33,3.25-4.93,3.19-4.77-.16-9.51-1.18-14.26-1.87-.03-1-.06-2-.1-3Z"/>
  <path d="M214.56,658.05c3.55,5.11,2.22,15.4-2.75,21.42-3.99-6.11-2.58-17.06,2.75-21.42Z"/>
  <path d="M88.99,849.49c-2.64-3.64-5.63-5.99-5.38-7.9.28-2.12,3.31-5.01,5.57-5.46,3.43-.68,6.32,2.12,5.69,5.69-.4,2.29-3.08,4.19-5.88,7.67h0Z"/>
  <path d="M763.1,142.75c.14-2.12.11-4.27.47-6.35.71-4.06,1.78-7.91-2.27-11.26-.86-.71-.29-5.21.71-5.7,1.98-.96,4.98-.92,7.04-.06.89.37,1.25,5.29.56,5.65-6.84,3.54-4.46,10.17-5.7,15.54-.17.73-.18,1.49-.27,2.23-.18-.02-.36-.03-.54-.05h0Z"/>
  <path d="M120.78,274.91c-5.7-.33-11.7-6.77-11.33-11.82.21-2.89,1.7-3.24,4.03-1.91,3.67,2.1,6.67,7.55,7.3,13.73Z"/>
  <path d="M820,843.99c-2.1,1.36-4.1,3.61-6.33,3.89-3.32.41-5.66-1.98-5.66-5.5s2.55-5.9,5.76-5.33c2.32.41,4.25,3,6.35,4.61-.04.78-.07,1.56-.11,2.34h-.01Z"/>
  <path d="M777.06,273.59c.51-7.67,4.29-13,10.11-14.61,2.63,6.21-2.53,13.91-10.11,14.61Z"/>
  <path d="M62.22,402.98c-4.79,3.5-9.56,4.58-14.71,3.58-1.2-.23-2.15-1.73-3.21-2.65.82-.94,1.46-2.22,2.49-2.78,5.09-2.77,9.87-1.27,15.43,1.85Z"/>
  <path d="M837.02,402.29c3.94-2.53,8.17-4.27,12.91-2.71,1.64.54,2.88,2.27,4.31,3.46-1.66,1.1-3.37,3.18-4.97,3.1-4.14-.2-8.24-1.36-12.36-2.13.04-.57.08-1.15.11-1.72Z"/>
  <path d="M753.56,146.78c-2.9-2.32-8.1-3.6-5.51-8.72.66-1.3,5.16-1.84,7.19-1.01,3.38,1.39,2.68,4.56-1.68,9.73Z"/>
  <path d="M830.67,117.82c2.36,3.17,5.03,5.28,4.7,6.66-.48,1.98-2.98,4.39-4.96,4.77-1.42.27-5.01-2.77-4.82-3.85.39-2.25,2.64-4.18,5.09-7.58h-.01Z"/>
  <path d="M825.07,287.55c-.35,7.63-2.91,13.49-8.02,18.78-1.77-6.41,2.11-15.59,8.02-18.78Z"/>
  <path d="M73.3,287.87c5.66,5.91,8.03,11.89,8.42,19.07-5.26-2.68-9.13-11.01-8.42-19.07Z"/>
  <path d="M799.8,110.28c-1.22-1.67-3.76-3.81-3.37-4.92.71-2.02,2.95-4.26,4.97-4.78,1.14-.3,4.42,2.65,4.4,4.11-.02,1.88-2.38,3.73-3.73,5.59h-2.27Z"/>
  <path d="M121.27,143.31c-1.34.53-2.66,1.44-4.02,1.5-3.58.16-7.09-.09-5.8-5.41.22-.9-.15-1.94-.25-2.93,0,0-.13.16-.13.15,1.8.06,3.63-.05,5.4.21,3.79.56,5.31,2.88,4.66,6.62l.13-.16v.02Z"/>
  <path d="M702.51,378.87c-3.69-6.6-3.59-13.21.03-17.05,3.62,3.81,3.69,10.39-.03,17.05Z"/>
  <path d="M195.68,383.11c-1.93-6.21-3.09-11.39.36-16.67,4.47,3.44,4.41,9.85-.36,16.67Z"/>
  <path d="M805.4,136.19c2.3-2.2,4.61-4.4,6.97-6.66,1.24.87,2.42,1.33,2.99,2.19.84,1.28,1.78,2.89,1.63,4.25-.08.74-2.35,1.82-3.57,1.74-2.7-.18-5.36-1.01-8.06-1.59-.02-.02.04.06.04.06h0Z"/>
  <path d="M730.87,479c-.08,5.52-4.4,9.79-9.9,9.77-4.49-.02-9.82-5.08-9.62-9.13.3-5.88,4.46-10.14,9.7-9.94,5.63.22,9.88,4.25,9.81,9.31h.01Z"/>
  <path d="M186.97,478.61c-.22,5.47-4.02,9.27-9.08,9.1-5.46-.18-10.27-4.85-10-9.69.3-5.41,4.52-9.34,9.82-9.13,5.15.2,9.46,4.73,9.26,9.72Z"/>
</svg>