<?xml version="1.0" encoding="UTF-8"?>
<svg id="Ebene_1" xmlns="http://www.w3.org/2000/svg" viewBox="0 0 856.52 1023.91">
  <path d="M337.13,877.78c-.08.3-.32.71-.2.89,18.92,30.37,37.87,60.73,56.83,91.09.06.09.29.08.99.23-8.61-64.73-17.19-129.27-25.88-194.65-1.76,2.05-3.28,3.82-4.89,5.69,1.13.83,1.95,1.43,2.63,1.93-1.71,2.09-3.25,3.98-4.91,6.01-.37-.24-1.64-1.06-3.22-2.09,2.63-2.64,1.38-5.8-.06-9.23-4.9-11.59-9.58-23.28-14.82-36.09,9.36,2.01,17.77,3.23,25.81,5.66,32.78,9.9,65.72,8.73,98.89,2.5,10.46-1.96,21.08-3.11,31.64-4.59,1.1-.15,2.23-.02,4.12-.02-4.17,8.22-8.07,15.9-11.97,23.57-.76,1.48-1.55,2.95-2.37,4.39-1.78,3.12-3.55,6.21,2.37,9.5-6.52-.83-7.97,2.14-8.51,6.05-5.98,43.05-12.1,86.07-17.87,129.15-2.43,18.14-4.17,36.38-6.1,54.58-.34,3.23-.05,6.53-.05,9.8.51.21,1.03.41,1.54.62,3.24-5.25,7.08-10.24,9.6-15.82,4.16-9.24,7.65-18.79,11.1-28.33,4.86-13.45,12.03-25.59,20.35-37.1,21.08-29.17,41.51-58.76,58.62-90.5,2.66-4.93,6.04-9.47,9.62-15.02,2.87,3.12,5.8,5.29,7.37,8.2,8.46,15.64,16.56,31.46,24.82,47.2,1.07,2.03,2.3,3.98,3.45,5.97,1.53,3.84,3.05,7.68,4.58,11.52,1.16,3.44,2.28,6.89,3.47,10.32,13.73,39.73,34.04,76.22,55.14,112.34,4.36,7.46,7.99,15.35,11.82,23.11,1.23,2.49,1.99,5.2,3.25,8.58h-109.93c.39-3.76,1.27-7.68,1.09-11.55-.5-10.61-1.71-21.19-2.14-31.81-.36-9.08-1.04-18.34.24-27.25,1.75-12.12,1.91-23.82-1.96-35.5-1.25-3.76-2.23-7.6-4.13-11.24.88,4.48,1.64,8.98,2.66,13.43,2.19,9.56,2.77,19.18.19,28.69-3.4,12.55-3,24.98-.22,37.56,2.75,12.45,3.52,25.02,1.22,38.06h-28c8.71-39.72,14.64-79.55,7.89-120.21.36,40.98-9.22,80.53-16.66,120.49h-34.48c12.3-50.42,30.83-98.55,47.29-147.34-22.28,47.78-44.31,95.64-57.16,147.24h-57.05c1.58-1.69,2.71-2.9,2.83-3.02-.48-4.57-2.29-8.85-1-11.78,7.74-17.58,6.85-36.2,7.28-54.6,1.22-52.52-1.1-104.95-5.29-157.3-.86-10.78-1.53-21.58-2.29-32.46h-14.69c-.66,12.31-1.37,24.08-1.91,35.85-2.09,45.6-4.44,91.2-6.03,136.82-.55,15.78.68,31.64,1.5,47.44.2,3.85,1.87,7.65,3.07,11.41.66,2.05,1.82,3.92,2.64,5.93,3.61,8.89,3.41,10.2-2.57,17.71.9.85,1.8,1.7,2.97,2.81-.84.3-1.25.58-1.67.58-16.33.03-32.67-.11-48.99.16-3.82.06-4.21-2.01-4.89-4.68-11.11-43.55-29.61-84-51.74-122.91-.24-.42-.64-.75-1.39-.97,18.45,41.38,34.12,83.72,45.09,128.56-8.85,0-17.25.1-25.64-.13-.94-.03-2.23-1.74-2.69-2.93-5.93-15.29-9.5-31.11-11.13-47.47-1.19-11.89-3.21-23.71-5-35.54-.31-2.05-1.31-4-2.29-6.89,1.48,23.06,2.44,45.13,4.52,67.09.82,8.63,4.12,17.02,6.35,25.72h-35.72c-.78-10.03-2.21-19.96.74-29.69,3.45-11.36,4.85-22.48,1.86-34.35-1.3-5.17.5-11.15,1.09-16.74.24-2.27,1-4.49,1.18-6.78-3.98,9.23-6.35,18.51-4.45,28.9,1.1,6.02,1.25,12.83-.42,18.63-3.49,12.14-4.7,24.1-2.12,36.45.2.94.03,1.95.03,3.31h-111.77c1.71-4.22,2.84-8.37,4.94-11.95,9.85-16.79,19.99-33.42,30-50.12,11.89-19.83,24.82-39.2,32.28-61.27,6.59-19.5,12.13-39.36,18.14-59.06l-.12.17c3.63-9.4,6.83-19,11.02-28.15,3.12-6.8,7.54-13.01,12.11-20.71,4.25,5.77,7.55,9.86,10.43,14.23,14.84,22.47,29.56,45.01,44.36,67.51.98,1.49,2.24,2.8,3.38,4.2h0ZM243.42,986.01c.41-1.54.8-3.08,1.23-4.61,5.44-19.15,10.85-38.31,16.34-57.44,2.98-10.36,6.44-20.6,9.03-31.06,1.49-6.02,1.66-12.37,2.42-18.57-4.81,10.93-8.89,21.79-12.65,32.75-5,14.59-10.18,29.14-14.47,43.95-3.27,11.3-3.74,23.07-1.92,34.97ZM580.63,885.49c11.34,27.14,22.27,54.39,25.18,84.06,4.09-31.74-4.08-59.83-25.18-84.06Z"/>
  <path d="M594.3,477.64c-1.37-1.27-3.3-2.27-4.04-3.84-5.82-12.41-8.84-25.52-7.75-39.22.59-7.41-1.84-13.44-6.1-18.97-9.46-12.27-19.11-24.39-28.67-36.58-7.19-9.18-14.18-18.53-21.58-27.54-14.93-18.19-20.62-40.37-27.47-62.11-4.15-13.16-8.81-26.16-13.28-39.22-.62-1.8-1.48-3.51-3.11-5.04,1.25,8.96,2.49,17.91,3.76,26.86,1.14,8.08,2.2,16.17,3.53,24.22.51,3.09-.33,4.79-3.15,6.3-27.68,14.86-56.72,18.59-87.03,10.29-9.6-2.63-18.85-6.54-28.32-9.66-3.69-1.22-4.53-3.26-4.17-7.07,1.75-18.55,3.16-37.13,3.75-55.96-.6,1.63-1.24,3.24-1.78,4.89-7.47,22.93-15.06,45.82-22.34,68.81-4.66,14.71-13.97,26.37-23.8,37.75-12.63,14.63-24.98,29.52-38.04,43.75-9.21,10.05-14.12,21.36-15.16,34.88-.72,9.29-2.97,18.37-9.12,26.5v-13.64c-6.48,4.1-7.04,6.99-7.89,36.75-9.92-2.03-9.41-10.65-10.77-17.55-2.35-12,1.43-23.34,6.72-33.72,6.63-13.02,14.12-25.68,22.15-37.89,15.36-23.38,31.4-46.32,47.05-69.52,1.93-2.87,3.79-6.01,4.72-9.3,6.04-21.28,11.81-42.63,17.65-63.96.35-1.26.43-2.6.66-4.08-6.54-2.64-13.02-1.69-19.24-.1-7.07,1.8-13.99,4.29-20.84,6.84-20.97,7.81-34.8,4.49-49.71-12.19-.89-.99-1.75-2.01-2.66-2.99-9.82-10.49-43.1-27.9-63.27-14.57-.72-12.07,7.53-21.56,19.28-21.87,3.12-.08,6.26.83,9.4.93,6.25.19,12.67,1.02,18.73-.05,8.51-1.5,16.24-.6,23.6,3.62,4.33,2.48,8.51,5.24,12.66,8.01,9.63,6.43,20.23,8.37,31.5,6.59,10.87-1.72,18.7-7.58,22.62-18.08,2.68-7.17,5.13-14.42,7.75-21.61,7.01-19.2,19.24-34.06,36.98-44.33,3.17-1.83,6.4-3.63,9.28-5.87,7.17-5.59,7.25-13.16.42-19.05-.76-.65-1.55-1.26-2.38-1.83-12.07-8.25-16.26-19.95-12.59-33.58,2.6-9.67,7.24-18.82,11.35-28.04,2.76-6.21,6.51-11.98,9.22-18.21,7.05-16.16,18.41-26.36,36.62-27.29,19.63-1,35.12,5.81,44.71,23.91,3.02,5.7,6.46,11.27,10.36,16.39,6.25,8.2,7.33,17.11,5.79,26.95-.84,5.33-1.24,10.93-.57,16.25.74,5.92,4.24,10.8,9.34,14.21,3.32,2.22,6.68,4.39,10.12,6.43,12.98,7.73,22.01,18.62,26.76,33.02,1.3,3.95,2.93,7.78,4.38,11.68,2.57,6.95,6.83,12.58,13.17,16.47,11.36,6.96,17.67,16.91,19.99,30.14,3.25,18.62,12.81,25.47,31.68,22.91,8.51-1.16,16.86-3.71,25.17-6.03,11.09-3.09,22.07-6.53,33.84-4.41,6.58,1.19,12.52,3.57,16.93,8.76,1.63,1.91,2.71,4.28,3.53,6.87-5.05-5.44-10.47-9.69-18-10.76-9.22-1.31-17.46,1.25-25.34,5.63-9.02,5.01-17.82,10.45-27.08,14.96-10.9,5.31-22.61,7.85-34.83,7.61-13.58-.27-23.62-6.11-29.32-18.7-2.32-5.13-4.46-10.33-7.08-16.44,3.27,21.6,8.03,35.97,26.49,41.36,6.4,1.87,13.56,1.18,19.27,1.58-9.8,6.28-22.17,7.71-34.97,6.06-13.07-1.68-24.17-7.18-32.22-18.46,3.13,12.52,6.22,25.05,9.39,37.55,1.96,7.74,4.27,15.4,5.99,23.2,3.46,15.64,10.06,29.8,18.45,43.4,16.26,26.36,32.15,52.96,47.95,79.6,10.7,18.04,15.01,37.64,12.18,58.48-.67,4.92-3.1,9.6-4.72,14.4-.48-.07-.95-.14-1.43-.21-.18-1.82-.35-3.64-.59-6.11-1.41,1.53-2.5,2.71-3.6,3.9l-.66-.33c.61-2.17,1.22-4.34,1.83-6.5-.21-.19-.42-.38-.63-.57-.97,1.39-1.95,2.78-2.92,4.17-.45-.19-.9-.39-1.34-.58.91-3.11,1.81-6.21,2.69-9.34.62-1.35,1.21-2.71,1.92-4,2.95-5.33,1.64-10.96-4.09-15.35-.93,6.97.39,13.23,2.3,19.44ZM428.76,244.21c2.82,0,5.61.08,8.4-.02,6.49-.22,13.01-.16,19.45-.88,7.07-.79,10.93-5.17,10.61-10.94-.31-5.57-4.96-9.83-11.69-10.08-5.15-.19-10.32.29-15.48.4-3.74.07-7.48.01-11.22.01-.36-.46-.73-.93-1.09-1.39,5.16-4.98,10.32-9.95,15.73-15.17-4.72-3.15-8.9-5.59-12.62-8.6-1.5-1.21-1.99-3.67-2.94-5.56,1.53-.61,3.03-1.65,4.59-1.75,7.65-.49,15.33-.5,22.96-1.14,6.29-.52,10.36-5.16,10.27-10.82-.08-5.29-4.23-9.56-10.35-10.24-3.13-.34-6.32-.16-9.48-.17-5.96-.02-11.92,0-17.84,0-1.49-3.43-.47-5.62,2.71-7.41,3.76-2.12,7.52-4.41,10.8-7.18,4.49-3.8,8.56-5.47,13.87-1.3,2.1,1.65,5.2,2.13,7.92,2.9,8.66,2.44,17.2,5.07,24.56,12.44-1.57-10.12-2.36-19.27-8.67-26.62-6.19-7.21-14.53-10.48-23.58-12.46,13.75-4.41,25.88-1.1,37.04,7.62-11.46-13.14-28.96-17.46-40.43-29.66-4.16,2.78-7.59,5.5-11.39,7.48-2.79,1.45-3.21,3.31-2.98,6.02.74,8.45,1.77,16.81,6.87,24.39-5.78,3.77-11.16,7.38-16.66,10.79-.93.57-2.68.86-3.52.36-5.55-3.28-10.95-6.82-15.06-9.42,1.21-9.24,2.4-17.38,3.22-25.55.14-1.42-.92-3.55-2.11-4.4-4.03-2.86-8.37-5.29-12.71-7.96.4,2.41.83,4.84,1.21,7.27,2.31,14.89-.55,20.28-13.2,28.1-6.46,3.99-12.4,8.92-18.21,13.86-2.63,2.23-4.37,5.5-6.52,8.3,4.13-.54,7.38-2.03,10.72-3.32,10.37-4.02,20.76-8,31.19-11.87.85-.31,2.21.04,3.06.55,5.41,3.28,10.89,6.48,16,10.19,1.53,1.11,1.95,3.74,2.88,5.67-1.66.72-3.28,1.95-4.98,2.06-8.8.55-17.65.48-26.43,1.29-6.98.64-10.87,5.17-10.59,10.95.28,5.75,4.82,9.94,11.5,10.2,4.82.18,9.66-.08,14.49-.11,5.43-.03,10.87,0,16.24,0,1.34,4,.49,6.65-3.6,8.48-3.06,1.37-5.66,3.77-8.49,5.73,3.62,6.9,12.49,9.07,13.86,18.07-4.49,0-8.14-.1-11.78.02-7.16.23-14.34.3-21.47.96-6.34.58-10.23,4.89-10.19,10.3.04,5.52,4.39,9.94,10.67,10.5,3.14.28,6.32.1,9.49.11,7.3,0,14.59,0,22.39,0v12.47c-5.89.47-11.57.5-17.09,1.48-5.11.91-8.27,5.28-8.31,9.9-.04,4.53,3.17,9.07,8.19,10.02,4.34.82,8.91.39,13.37.7,1.97.14,5.45.51,5.56,1.2.35,2.22.16,5.16-1.09,6.89-4.88,6.74-10.27,13.11-15.43,19.64-.63.8-1.06,1.77-2.11,3.57h36.09c-4.62-7.49-9.19-14.43-13.2-21.68-1.53-2.77-1.76-6.27-2.77-10.14,3.48,0,5.46.02,7.44,0,2.17-.03,4.34.04,6.49-.17,6.58-.62,11.32-5.08,11.34-10.52.02-5.62-4.47-9.94-11.15-10.63-1.65-.17-3.33-.15-4.99-.16-3.11-.02-6.22,0-9.73,0v-13.56ZM448.93,65.41s2.07-14.77-6.37-27.89c-2.14-3.33-4.72-5.67-4.72-5.67-2.77-2.51-5.53-3.93-7.37-4.72-1.58-.62-4.45-1.51-8.13-1.32-3.75.19-6.58,1.41-8.09,2.2-1.67.83-3.97,2.21-6.27,4.42-2.21,2.12-3.64,4.27-4.54,5.86-.69,1.1-10.76,17.76-2.33,35.37,6.91,14.42,21.02,18.6,23.22,19.22,3.04-.49,9.76-2.01,15.58-7.53,7.17-6.8,8.36-15.29,9.01-19.92ZM286.54,235.56c-11.16-2.46-20.34-7.96-28.81-15.37-6.93-6.06-15.45-8.62-25.37-6.53,4.68,3.09,8.84,6,13.16,8.65,6.64,4.08,13.21,8.35,20.16,11.87,6.54,3.31,13.67,3.75,20.86,1.38ZM399.45,284.96c-3.33-3.3-6.24-6.19-9.66-9.58-1.74,5.1-3.38,9.88-5.28,15.42,5.46-2.14,9.93-3.88,14.94-5.84ZM470.09,290.57c-1.8-5.73-3.28-10.47-4.42-14.12-3.25,2.53-6.54,5.09-10.09,7.85,4.92,2.12,9.15,3.95,14.52,6.27Z"/>
  <path d="M610.61,868.89c-1.53-3.84-3.05-7.68-4.58-11.52.07-.62-.04-1.35.25-1.84,10.82-18.71,21.67-37.4,32.54-56.08,4.44-7.63,9.03-15.17,13.37-22.84,1.54-2.73,2.99-3.19,5.94-1.81,6.12,2.87,12.5,5.21,19.84,8.21-1.32-46.88-7.89-91.67-21.44-132.71,5.64,29.32,11.77,61.19,17.89,93.06-.54.13-1.09.27-1.63.4-3.43-17.74-10.99-33.69-19.79-49.31-4.08-7.25-6.18-15.75-8.38-23.9-6.74-24.98-10.9-50.87-27.17-72.35.4-.47.8-.95,1.2-1.42,7.06,3.79,14.54,6.97,21.1,11.49,22.4,15.46,37.92,35.82,42.29,63.36.88,5.55,1.02,11.3.79,16.93-.78,19.31-1.63,38.62-2.89,57.91-1.88,28.67-1.04,36.18,12.55,62.69,9.33,18.2,19.82,35.82,30.22,53.45,18.29,30.97,36.91,61.75,55.41,92.6,1.31,2.19,2.73,4.32,4.92,6.07-1.77-4.42-3.37-8.92-5.33-13.26-7.11-15.71-11.25-31.96-10.2-49.38.11-1.76-1.53-4.43-3.12-5.35-7.29-4.21-11.67-10.24-13.17-18.46-1.33-7.28-4.7-13.07-12.27-15.81,7.82-6.12,16.43-4.71,21.88,3.52,2.81,4.25,4.87,8.99,7.24,13.47,2.1-7.63-.89-28.47-5.22-34.47-.66-.92-2.55-1.68-3.65-1.45-8.5,1.81-16.5-.41-24.61-2.42-5.41-1.34-10.94-2.15-16.33-3.18,5.49-7.47,16.93-8.99,38.38-4.41-2.11-1.76-3.14-2.92-4.41-3.65-12.47-7.12-19.3-18.45-23.83-31.55-.84-2.42-1.35-4.68-4.99-5.25-4.23-.66-6.31-5.95-4.87-9.99,1.4-3.94,5.72-6.15,9.68-4.96,4.03,1.2,6.29,5.71,5.04,10.07-.61,2.12-2.18,4.56-1.62,6.31,1.36,4.27,3.72,8.23,5.49,11.94.92-8.48,1.9-16.83,2.65-25.19.11-1.27-1.28-2.65-1.22-3.94.11-2.23.14-5.13,1.48-6.42,1.1-1.06,4.96-1.04,5.97.03,1.31,1.4,2.17,5.26,1.22,6.41-6.38,7.75-3.98,16.66-3.94,25.4,2.53-5.56,9.19-8.72,7.98-16.49-.62-3.94,3.72-7.07,7.72-6.69,4.02.38,6.45,2.75,6.71,6.77.29,4.44-2.52,7.56-6.46,7.33-7.3-.42-8.85,4.74-10.93,8.33,4.03-1.14,8.51-2.83,13.14-3.49,1.79-.26,3.91,1.82,5.88,2.84-1.04,1.6-1.73,3.71-3.19,4.72-3.94,2.73-8.18,5.03-12.35,7.43-1.39.8-2.9,1.38-5.99,2.83,6.16,5.48,11.45,10.19,17.01,15.14,5.27-11.98,5.88-12.43,14-9.56,1.65-5.83,4.07-11.53,4.7-17.41.59-5.51-.74-11.23-1.21-16.86-1.01-12.07-11.2-15.61-19.51-20.81-.78-.49-2.45.29-3.64.68-4.64,1.55-8.56-.29-9.85-4.7-1.11-3.8,1.23-8.12,4.93-9.09,4.22-1.11,6.69,1.33,8.77,5.72,1.32,2.78,4.93,4.48,8.38,7.38-.58-5.32-.77-9.13-1.53-12.81-.27-1.29-1.77-2.55-3.01-3.39-4.82-3.26-6.11-9.04-2.81-13.33,3.18-4.14,8.89-4.84,12.86-1.58,4.11,3.37,4.23,9.55.27,13.69-3.16,3.3-3.36,5.06-1.09,10.33,1.5-1.06,2.88-2.72,4.47-2.97,1.89-.29,3.97.64,5.96,1.05-.33,1.61-.14,3.68-1.08,4.76-3.87,4.44-4.06,8.33-.38,13.25,2.82,3.78,4.28,8.57,6.57,13.4,1.83-3.73,3.63-7.48,5.52-11.18,1.21-2.37,2.42-4.76,3.88-6.98,2.16-3.3,3.88-6.39,1-10.28-.86-1.15-.65-3.1-1.08-5.56,2.18.85,3.55,1.38,5.3,2.06,1.26-8.15.23-15.91-2.72-23.41-.55-1.39-2.1-2.48-3.38-3.46-2.87-2.18-3.59-4.84-1.67-7.82,1.86-2.91,4.69-3.81,7.8-2.08,3.06,1.71,4.18,4.59,2.29,7.61-1.53,2.44-1.27,4.3-.34,6.82,1.25,3.4,1.75,7.08,2.51,10.42,4.16-5.8,8.46-11.67,12.56-17.68.49-.72-.6-2.49-.14-3.28,1.07-1.81,2.6-4.56,4.05-4.64,1.87-.1,4.99,1.71,5.49,3.33.52,1.67-1.14,5.68-2.42,5.96-7.35,1.58-7.95,8.5-12.18,12.92,4.52-.91,8.34-1.56,12.09-2.53,1.04-.27,1.71-1.83,2.76-2.19,2.11-.72,4.77-1.95,6.42-1.21,1.24.56,2.33,4.5,1.56,5.74-.95,1.53-3.85,2.01-6,2.58-1.98.53-4.39.05-6.1.96-7.2,3.83-12.27,9.88-16.89,16.82,3.67-.93,6.82-1.6,9.88-2.57,1.08-.34,2.12-1.27,2.86-2.18,2.91-3.56,7.46-4.37,10.46-1.73,2.97,2.61,3.09,6.72.29,9.77-2.94,3.21-6.37,2.99-10.08.09-1.33-1.04-3.93-1.54-5.5-.99-8.54,2.99-15.08,8.55-18.68,16.94-2.91,6.78-5.28,13.8-7.89,20.71.45.23.91.45,1.36.68,5.18-2.42,10.45-4.68,15.48-7.39.99-.53,1.42-2.72,1.52-4.18.65-9.36,9.11-16.55,19.05-15.72-4.12,5.42-8.15,10.72-12.18,16.03.29.42.59.83.88,1.25,7.07-2.68,14.19-5.26,21.15-8.19.9-.38,1.57-2.66,1.42-3.95-.48-4.14,1.32-6.76,4.87-8.33,3.89-1.72,7.31-.53,9.82,2.59,2.44,3.03,2.46,6.57.24,9.75-2.16,3.1-5.27,5.02-9.03,3.25-2.74-1.29-4.5-.71-6.64,1.05-2.01,1.66-4.45,2.81-7.11,4.43,2.46.77,4.61,1.44,6.92,2.16,1.07-1.11,2.13-3.15,3.34-3.25,2.49-.19,6.17-.18,7.28,1.31,1.2,1.61.89,5.62-.39,7.39-.99,1.37-5.63,2.11-6.72,1.09-6.1-5.73-13.32-4.79-20.24-3.76-14.33,2.12-25.33,10.57-35.18,20.53-5.96,6.03-11.4,12.57-17.29,19.11,2.81,4.54,5.67,9.16,8.7,14.05,4.03-3.03,8.15-5.97,12.05-9.18.8-.66,1.06-2.3,1.12-3.51.6-12.15,8.75-19.84,21.67-19.73-2.15,2.98-4.22,5.61-6.02,8.41-1.8,2.79-3.33,5.75-5.23,9.08,7.9-1.31,14.06-5.13,19.52-10.15.62-.57-.31-2.61.24-3.49,1.18-1.91,2.58-4.2,4.45-4.98,1.07-.45,4.39,1.52,4.66,2.81.37,1.8-.59,4.69-2.02,5.88-3.67,3.09-7.91,5.5-11.72,8.61,3.51.63,6.7,1.87,9.76-1.63.92-1.06,5.26-.53,6.75.76,1.13.98,1.09,5.02-.03,6.39-1.07,1.32-4.25,1.42-6.42,1.22-2.96-.28-5.84-1.99-8.75-1.97-9.01.06-17.35,2.99-25.13,7.37-5.51,3.1-9.83,7.46-12.07,13.51-2.17,5.88-4.16,11.82-5.74,18.06,6.67-7.55,14.72-12.53,24.24-14.86,9.5-2.33,18.62-1.74,27.25,5.02-5.67,1.45-10.93,1.97-15.39,4.13-5.09,2.47-10.44,5.6-13.93,9.87-5.32,6.51-11.49,10.71-19.6,11.55-4.66.49-5.59,2.65-5.87,6.73-1.01,14.71,1.16,28.81,6.41,42.6,3.78,9.92,6.78,20.14,10.13,30.23.26.79.42,1.66.86,2.34,9.39,14.32,17.42,29.68,30.58,41.14,3.54,3.09,7.83,5.32,12.04,8.12-1.16.08-2.23.23-3.3.23-21,.04-42-.02-62.99.18-3.35.03-4.5-1.36-5.65-4.13-18.21-43.96-36.25-88-54.93-131.76-9.79-22.95-20.73-45.4-31.17-68.07-.4-.87-.98-1.67-1.74-2.36,25.25,68.64,50.49,137.28,75.88,206.32-8.93,0-18.19.15-27.44-.19-1.18-.04-2.88-2.5-3.3-4.11-4.47-17.04-9.5-33.98-12.88-51.24-6.21-31.67-15.41-62.31-28.35-91.84-.52-1.19-1.2-2.3-2.4-3.22,2.82,9.1,6.3,18.06,8.33,27.34,5.72,26.16,10.4,52.54,16.39,78.63,3.18,13.87,8.21,27.31,12.42,40.94.33,1.08.78,2.12,1.36,3.67-8.21,0-16.01.08-23.8-.1-.93-.02-2.33-1.28-2.68-2.25-8.69-24.51-22.74-46.26-35.65-68.55-14.05-24.28-25.46-49.74-35.88-75.71-1.09-2.72-2.65-5.25-3.99-7.86ZM661.62,889.47c-.55.19-1.11.39-1.66.58,3.99,13.03,6.01,26.67,12.53,39.12,1.33-1.36,2.22-2.82,1.87-3.85-4.14-11.99-8.46-23.91-12.73-35.85Z"/>
  <path d="M255.95,840.55c-4.72,13.83-9.33,27.7-14.2,41.48-3.16,8.93-6.63,17.76-10.08,26.58-.88,2.25-2.21,4.31-4.05,7.84-1.9-7.85-2.94-14.44-5.14-20.61-2.81-7.92-5.83-15.94-10.11-23.11-3.97-6.65-8.74-5.95-11.28,1.39-6.46,18.7-13.67,37.3-18.08,56.51-4.28,18.68-3.14,38.08-.77,57.19.21,1.68-.06,3.64-.74,5.19-4.09,9.26-8.29,18.48-12.66,27.62-.55,1.15-2.17,2.27-3.44,2.48-2.42.39-4.94.11-7.86.11-1.56-16.72-6.82-32.94-1.94-49.64,3.72-12.71,5.45-25.65,5.37-38.93-.08-14.34,6-27.14,11.09-40.15,2.64-6.75,5.2-13.53,7.27-20.47-9.81,23.17-24.52,44.74-22.9,71.64.28,4.72-.57,9.75-2.01,14.29-5.9,18.57-5.31,37.05-.33,55.63.59,2.21.64,4.57,1,7.29H24.34c1.58-1.82,2.77-3.09,3.85-4.45,11.99-15.14,23.96-30.29,35.93-45.46.61-.78,1.23-1.63,1.55-2.55,5.52-16.03,11.78-31.86,16.17-48.19,2.23-8.29,1.11-17.5,1.43-26.29.11-2.95-1.35-4.45-4.41-4.79-9.05-.99-16.29-4.78-21.5-12.74-4.7-7.19-12.97-8.88-20.63-11.14-2.19-.65-4.47-1.01-6.79-1.52,9.75-11.95,34.41-6.57,50.17,10.74-1.75-23.94-21.89-41.72-45.91-40.34-1.76.1-3.42,2.12-5.18,2.22-2.36.13-5.53,0-6.92-1.42-1.09-1.11-.86-5.34.35-6.4,1.51-1.33,5.15-1.84,6.95-.92,4.8,2.46,4.6,2.84,10.5,2.41-4.1-3.15-7.45-6.39-11.4-8.54-2.85-1.55-4.66-3.39-3.4-6.06.82-1.73,3.65-2.52,5.58-3.72,1.28,2.05,2.66,4.05,3.76,6.2.24.48-.5,1.46-1.13,3.07,6.4,3.62,12.78,7.23,19.17,10.85l1.31-1.4c-3.43-5.65-6.86-11.3-10.32-16.99,10.17-1.25,22.46,8.97,20.53,20-.21,1.21.82,3.1,1.86,3.99,3.39,2.89,7.06,5.47,10.81,8.32,3.14-4.58,6.4-9.32,9.51-13.85-5.82-6.54-11.34-13-17.12-19.21-9.49-10.2-20.47-18.24-34.5-20.71-7.28-1.28-14.75-2.14-21.18,3.59-2.32,2.07-5.94,1.73-7.34-1.23-1.01-2.13-1.16-5.96.13-7.52,1.27-1.53,6.37-2.37,7.15-1.39,3.44,4.3,7,1.99,11.08,1.24-3.48-2.13-6.61-4.2-9.92-5.94-.78-.41-2.17.13-3.21.45-4.18,1.29-7.75.37-9.97-3.41-2.04-3.48-1.7-7.15,1.26-10.1,2.75-2.73,6.07-3.49,9.58-1.46,3.73,2.16,5.64,5.15,3.73,9.57-.12.27-.02.64-.02,1.65,7.12,2.72,14.44,5.51,21.75,8.31.37-.46.73-.91,1.1-1.37-3.62-5.18-7.25-10.37-10.93-15.63,9.47-.59,17.81,6.71,17.96,16.01.05,3.03.94,4.37,3.65,5.45,4.59,1.84,9.01,4.12,14.18,6.54-3.06-16.33-8.8-30.17-23.97-38.08-2.52-1.32-5.14-3.14-8.06-.02-3.29,3.51-8.07,3.18-10.79-.28-2.2-2.81-1.51-7.2,1.46-9.28,3.56-2.5,8.15-1.22,10.47,2.93.23.41.43.84.24.46,4.27.95,7.89,1.76,11.61,2.59-4-7.73-10.44-13.24-18.06-17.43-1.12-.61-3.12.62-4.54.28-2.14-.51-5.48-1.29-5.85-2.63-.49-1.76.92-4.79,2.49-6.08.85-.7,3.79.93,5.68,1.75,1.3.56,2.33,1.82,3.65,2.25,3.29,1.07,6.69,1.84,11.01,2.99-4.14-4.6-4.01-11.61-11.44-13.32-1.41-.33-3.26-4.55-2.68-6.19.61-1.71,3.96-3.4,6-3.29,1.29.07,2.54,3.42,3.5,5.44.47,1-.18,2.61.39,3.48,3.78,5.81,7.75,11.5,11.41,16.86,1.15-4.05,2.62-8.68,3.71-13.39.29-1.22-.47-2.75-.92-4.08-1.12-3.29-.52-6.02,2.71-7.61,3.21-1.57,6.03-.5,7.67,2.49,1.69,3.08.53,5.48-2.25,7.73-2,1.62-4,4.06-4.56,6.47-1.46,6.31-2.13,12.81-3.24,20.08,2.97-1.11,4.38-1.64,6.86-2.57-.62,2.76-.54,4.9-1.52,6.32-2.37,3.43-1.04,5.84.88,8.92,3.93,6.32,7.28,13.01,10.64,19.14,2.67-5.18,5.95-10.45,8.06-16.15.91-2.44-.2-5.94-1.17-8.68-.81-2.28-4.38-4.12-1.36-6.77,2.76-2.43,5.59-1.03,7.96,1.25.46.44.98.83,1.67,1.42,1.73-4.49,2.08-8.06-1.79-11.79-3.55-3.42-2.4-9.53,1.4-12.4,3.64-2.75,9.26-2.07,12.17,1.47,2.97,3.6,2.93,9.88-1.17,11.92-4.79,2.39-5.05,5.89-5.2,10.1-.06,1.61-.54,3.2-.91,5.27,3.94-1.42,7.69-1.54,8.69-6.82.72-3.85,4.57-5.23,8.43-3.95,3.85,1.28,5.43,4.33,4.63,8.29-.77,3.82-4.66,6.67-8.28,5.15-4.18-1.76-6.61.28-9.79,2.04-8.09,4.49-13.21,10.72-14.5,20.15-1.55,11.28-1.71,22.2,4.74,32.23,7.35-2.89,9.32-1.55,12.9,9.72,5.85-5.11,11.26-9.84,17.75-15.51-4.02-1.69-6.4-2.38-8.45-3.62-3.96-2.4-7.95-4.84-11.52-7.76-3.15-2.57-2.22-5.02,1.89-6.13,4.24-1.14,7.83-.17,13.88,3.76-1.52-5.86-4.2-8.22-9.76-8.56-4.79-.29-7.79-3.24-7.58-7.46.2-4.14,3.77-7.27,8.09-7.11,4.51.17,7.48,3.16,6.79,7.89-.55,3.74.69,6.27,2.95,8.9,1.72,2,2.95,4.41,4.92,6.6-.7-7.91,2.71-16.45-3.86-23.52-2.39-2.57-2.69-5.36-.14-7.36,1.56-1.22,4.72-1.83,6.45-1.08,2.95,1.29,3.32,4.22,1.66,7.23-.59,1.06-1.1,2.43-.97,3.58.91,8.23,2,16.45,2.98,24.3,3.98-2.96,6.78-11.68,4.98-16.97-1.56-4.6.49-9.08,4.82-10.52,4.01-1.33,8.1.75,9.58,4.9,1.52,4.25-.7,9.38-5.19,10.28-3.21.64-4.12,2.29-5.02,4.97-4.15,12.43-10.35,23.44-21.91,30.62-1.66,1.03-3.1,2.43-4.71,3.71,6.98-.67,13.74-1.93,20.47-1.78,6.72.15,13.25,2.04,18.14,7.29-9.86,1.96-19.17,4.07-28.58,5.57-4.19.67-8.64.53-12.87-.05-2.89-.4-4.42.22-5.49,2.74-4.5,10.6-5.44,21.68-4.84,34.12,3.02-5.76,5.13-10.78,8.11-15.21,5.14-7.64,13.11-8.73,20.8-2.79-8.97,3.17-10.62,10.91-12.45,18.61-1.59,6.71-5.83,11.34-11.62,14.97-1.76,1.1-3.82,3.76-3.69,5.56,1.24,17.29-3.05,33.35-10.01,48.91-1.61,3.6-3.1,7.25-3.75,11.37,1.45-2.26,2.94-4.49,4.33-6.78,17.32-28.64,34.48-57.38,52.01-85.88,7.24-11.76,15.85-22.7,22.83-34.6,10.52-17.93,20.21-36.34,30.15-54.6,7.28-13.36,7.43-13.38,17.37-2.02,17.34,19.8,34.84,39.47,52.06,59.37,1.63,1.89,1.8,5.04,2.65,7.59,0-.01.13-.18.13-.18ZM122.06,970.48c.64.12,1.29.24,1.93.36.56-1.81,1.14-3.62,1.67-5.44,4.18-14.35,7.72-28.92,12.68-43,7.33-20.83,15.9-41.23,23.46-61.98,2.96-8.12,4.62-16.72,6.87-25.09-.54-.16-1.08-.33-1.61-.49-.34.68-.7,1.35-1,2.05-5.32,12.36-10.43,24.81-15.99,37.05-8.94,19.68-18.57,39.13-22.85,60.48-2.38,11.89-3.48,24.03-5.15,36.06Z"/>
  <path d="M345.89,358.97c53.55,20.91,105.87,11.81,158.47-4.87,3.05,7.45,6.14,14.94,9.17,22.45,1.62,4.01,3.08,8.08,4.72,12.08,1.54,3.73,2.25,7.08.56,11.34-2.17,5.44-.72,10.72,4.35,14.64,1.6,1.23,2.93,3.21,3.64,5.12,2.4,6.55,4.6,13.18,6.55,19.88.4,1.37-.08,3.77-1.08,4.64-24.71,21.65-52.14,38.29-85.34,42.62-42.03,5.48-81.04-3.51-116.64-26.69-4.32-2.81-8.36-6.07-12.72-8.81-3.21-2.02-3.92-4.25-2.7-7.86,3.12-9.29,5.83-18.72,8.85-28.04.43-1.32,1.45-2.64,2.55-3.51,5.76-4.56,6.42-10.48,4.95-17.11-.28-1.25-.65-2.8-.18-3.85,4.86-10.73,9.88-21.38,14.84-32.03ZM443.85,435.83c.17-10.55-8.53-19.53-19.11-19.72-10.77-.19-19.79,8.28-20.01,18.8-.23,10.98,8.38,20.03,19.22,20.19,11.33.17,19.71-7.95,19.9-19.26ZM351.12,447.81c5.42.04,9.86-4.39,9.84-9.81-.02-5.27-4.58-9.77-9.93-9.81-5.3-.04-9.9,4.56-9.85,9.84.05,5.43,4.44,9.74,9.95,9.78ZM503.38,440.3c.02-5.33-4.44-9.7-9.98-9.77-5.33-.07-9.63,4.05-9.72,9.31-.09,5.64,4.5,10.22,10.13,10.11,5.12-.1,9.55-4.56,9.57-9.65ZM369.69,409.22c5.65,0,9.91-4.12,9.87-9.59-.03-5.35-4.53-9.64-10.01-9.53-5.35.1-9.53,4.18-9.62,9.4-.1,5.47,4.16,9.71,9.76,9.72ZM477.34,408.29c5.56.07,10.11-4.17,10.08-9.39-.03-5.29-4.6-9.82-9.87-9.78-5.5.05-9.81,4.38-9.76,9.81.05,5.27,4.15,9.28,9.56,9.35ZM454.77,453.18c2.11,2.98,3.31,5.41,5.19,7.09,1.39,1.24,3.86,2.35,5.46,1.95,1.31-.33,3.18-3.36,2.78-4.48-.65-1.83-2.71-3.78-4.6-4.37-2.36-.75-5.13-.18-8.83-.18ZM415.06,403.57c1.41-3.79,2.93-6.46,3.26-9.26.2-1.71-1-4.15-2.37-5.27-.91-.75-3.95-.35-4.78.62-1.04,1.22-1.5,3.78-.97,5.33.93,2.72,2.82,5.11,4.86,8.59ZM392.37,449.08c-3.96-1.17-6.15-2.43-8.24-2.27-2.16.16-4.58,1.33-6.13,2.84-.6.58.44,4.35,1.53,4.82,1.7.73,4.3.39,6.12-.41,2.17-.94,3.93-2.84,6.72-4.97ZM411.03,470.98c-.55-.17-1.1-.33-1.65-.5-1.98,2.15-4.24,4.11-5.86,6.5-1.97,2.89-.16,5.07,2.4,6.4,2.79,1.46,4.68-.09,5.02-2.76.41-3.17.1-6.42.1-9.64ZM393.49,420.2c-2.39-1.92-3.99-3.92-6.02-4.62-1.84-.62-4.34-.22-6.19.57-.81.34-1.38,3.81-.94,4.08,1.91,1.2,4.21,2.31,6.39,2.36,1.96.05,3.96-1.33,6.76-2.39ZM455.32,424.29c3.15,1.63,5.1,3.06,7.26,3.61,1.81.46,4.09.34,5.75-.42.79-.36,1.35-3.66.78-4.13-1.6-1.32-3.92-2.68-5.82-2.5-2.42.23-4.71,1.94-7.97,3.44ZM446.15,412.94c5.56,1.75,9.96.8,10.25-2.26.14-1.45-1.36-4.09-2.63-4.47-5.46-1.63-5.79,3.22-7.62,6.72ZM447.52,462.53c.38,4.94-1.62,9.55,3.7,11.28,1.06.35,3.87-1.29,4.13-2.42,1.3-5.59-4.04-5.77-7.83-8.86ZM401.58,408.07c-.41-4.08.37-8.07-4.27-8.51-1.4-.13-4.38,2.26-4.32,3.39.24,5.01,4.85,3.75,8.59,5.12ZM457.31,440.44c3.18,1.8,4.32,6.5,8.57,3.65.98-.66,1.68-3.59,1.06-4.48-2.82-4.11-5.88-1.86-9.64.83ZM435.76,471.61c.25,4.35-2.42,8.48,2.48,10.31.96.36,3.75-1.34,4-2.46,1-4.44-2.96-5.38-6.48-7.84ZM398.65,462.62c-.58-.39-1.17-.79-1.75-1.18-2.84,1.23-6.81,1.51-6.3,6.03.13,1.14,2.53,2.02,3.88,3.02,1.39-2.62,2.78-5.24,4.17-7.87ZM389.13,436.31c-2.96-2.3-4.83-6.06-8.6-2.95-.9.74-1.26,3.8-.56,4.52,3.13,3.26,5.86.67,9.17-1.57ZM435.06,402.47c3.73-1.07,6.87-2.09,6.53-6.05-.08-.93-2.87-2.58-4-2.29-4.44,1.15-2.91,4.7-2.53,8.33ZM424.01,473.25c-1.02,3.34-5.6,5.71-1.62,9.53.57.55,2.83.41,3.35-.21,2.88-3.43.97-6.3-1.73-9.32ZM500.83,421.22c6.54-.85,11.68-3.88,14.92-9.69-4.97,3.23-9.94,6.46-14.92,9.69ZM513.97,407.15c-.09-.47-.19-.94-.28-1.4-5.77-.29-11.46-.17-16.26,4.3,5.51-.97,11.03-1.93,16.54-2.9ZM351.25,408.62c-5.06-3.44-10.49-5.41-16.65-2.85,5.55.95,11.1,1.9,16.65,2.85ZM499.24,393.17c4.98,1.82,9.96,3.63,14.94,5.45-3.88-4.92-8.74-7.21-14.94-5.45ZM332.37,411.82l-1.09,1.93c4.21,2.28,8.41,4.56,12.62,6.83.29-.51.57-1.02.86-1.54-4.13-2.41-8.26-4.82-12.39-7.23Z"/>
  <path d="M290.29,521.18c1.73-.79,3.51-1.49,5.19-2.39,18.23-9.74,36.07-20.09,52.14-33.25,1.36-1.11,3.68-1.05,5.56-1.53-.07,1.8.26,3.74-.28,5.39-5.93,18.02-11.94,36-18.06,53.95-1.35,3.97-.71,5.77,3.92,5.92,15.99.53,31.96,1.41,47.95,2.01,6.04.23,6.65-.92,3.55-6.21-11.44-19.52-22.92-39.01-34.99-59.54,2.29.74,3.6,1.12,4.87,1.58,43.58,15.93,86.91,16.53,129.92-2.15.76-.33,1.69-.5,2.25-1.05,5.53-5.33,9.73-1.97,14.38,1.69,12.35,9.72,39.06,24.22,51.35,28.31.25-.38.5-.76.75-1.14-18.15-11.6-36.3-23.21-54.73-34.99,11.44-8.26,22.49-16.25,34.02-24.58,3.52,9.64,7.04,19.11,10.44,28.62,3.53,9.87,6.9,19.79,10.42,29.66,1.09,3.06.41,4.92-2.39,7-23.48,17.45-47.87,33.2-75.94,42.47-37.34,12.33-74.76,10.92-112.2.75-27.44-7.46-53.78-17.42-77.06-34.36-3.97-2.89-4.71-5.33-3-9.84,6.98-18.35,13.58-36.84,20.34-55.28.4-1.08.94-2.1,1.5-3.33,11.6,7.34,23.04,14.58,34.96,22.12-18.68,13.04-37.16,25.94-55.65,38.84.26.44.53.88.79,1.32ZM460.52,503h-70.17c.82,2.16,1.08,3.47,1.74,4.52,10.84,17.34,21.71,34.65,32.61,51.95,2.13,3.39,4.5,2.9,6.73.11.92-1.16,1.64-2.5,2.33-3.82,7.79-14.87,15.59-29.73,23.3-44.63,1.27-2.45,2.17-5.09,3.45-8.14ZM495.57,484.08c-.9.5-1.11.54-1.18.66-10.38,19.68-20.75,39.36-31.1,59.05-1.91,3.63-.14,5.1,3.33,4.78,14.73-1.38,29.45-2.9,44.17-4.4,2.79-.28,4.21-1.39,3.13-4.62-6.16-18.4-12.21-36.84-18.36-55.47Z"/>
  <path d="M282.35,533.9c11.8,6.75,22.64,14.03,34.34,19.44,29.64,13.71,60.72,22.9,93.4,25.69,46.38,3.96,88.28-9,126.6-34.63,8.98-6.01,17.62-12.54,27.38-19.51,3.95,12.34,7.96,24.38,11.53,36.56.55,1.88-.41,4.63-1.52,6.48-1.45,2.41-3.71,2.96-6.27.74-4.77-4.13-9.73-8.04-15.63-12.88-.29,7.31-.22,13.69-.94,19.99-.28,2.42-1.87,5.11-3.66,6.85-2.59,2.51-5.61,2.06-8.43-.51-4.4-4.03-9.03-7.81-14.18-12.24-.82,7.21-1.87,13.85-2.23,20.53-.22,4.03-2.59,5.24-5.62,6.59-3.03,1.34-5.46,1.63-8.11-.94-4.63-4.48-9.55-8.66-14.84-13.41-1.95,6.94-4,13.37-5.53,19.93-1,4.28-3.98,5.02-7.51,6.04-3.51,1.02-5.21-.58-7.12-2.89-4.01-4.84-8.18-9.55-12.73-14.84-2.43,6.88-5.06,12.97-6.68,19.31-1.64,6.42-6.76,5.01-10.98,6.22-3.84,1.1-4.59-1.81-5.95-3.85-3.6-5.39-7.02-10.89-10.91-16.97-3.84,6.23-7.47,12.12-11.09,18.01-1.49,2.42-2.77,4.84-6.45,4.42-3.61-.42-6.56-.85-8.3-4.89-2.69-6.24-6.1-12.16-9.66-19.12-4.16,6.24-7.82,12.05-11.86,17.58-1.17,1.6-3.74,3.67-5.12,3.32-3.79-.95-9.06.83-10.78-5.08-1.99-6.82-4.42-13.51-6.87-20.9-4.3,4.97-8.27,9.56-12.24,14.15-4.69,5.43-13.57,3.67-15.72-3.33-2.18-7.13-3.87-14.41-6-22.46-4.87,4.51-9.42,8.94-14.25,13.07-1.41,1.2-3.67,2.31-5.35,2.09-2.95-.4-5.54-1.84-5.93-5.64-.7-6.95-1.75-13.86-2.75-21.5-4.7,3.99-9.03,7.76-13.46,11.42-4.25,3.51-8.92,1.84-9.71-3.66-.37-2.56-.21-5.42.57-7.87,3.39-10.6,7.1-21.1,10.58-31.31Z"/>
  <path d="M313.55,626.72c4.56-5.97,8.39-10.98,12.22-16,4.13-5.41,12.86-4.18,15.64,2.25,3.04,7.02,5.99,14.08,9.01,21.12.45,1.06,1.04,2.06,1.95,3.82,3.42-5.71,6.65-10.9,9.69-16.2,3.59-6.26,12.55-6.58,16.65-.37,4.03,6.12,7.84,12.38,11.77,18.56.51.8,1.13,1.53,2.14,2.88,3.06-6.47,5.9-12.43,8.71-18.4,2.54-5.4,10.23-6.35,13.95-1.56,5.29,6.82,10.4,13.78,16,21.23,2.83-7.18,5.44-13.77,8.02-20.38,2.37-6.07,12.6-7.79,16.99-2.85,4.64,5.23,9.3,10.45,13.95,15.66.1.11.29.13,1.1.47,1.77-6.87,3.63-13.63,5.2-20.46.6-2.62,1.18-4.69,4.33-5.18,3.45-.53,6.51-2.45,9.88,1.31,5.05,5.63,10.96,10.48,17.09,16.22,1.99-8.71,3.72-16.43,5.52-24.14,1.34-5.71,8.52-8.06,13.04-4.31,5.08,4.21,10.14,8.43,15.89,13.22.94-7.94,1.77-14.97,2.59-22.01.89-7.57,5.75-9.84,11.87-5.56,4.77,3.34,9.58,6.62,14.39,9.9.21.14.62-.02.6-.02,0-5.96.3-11.9-.09-17.79-.32-4.81,1.72-7.11,7.47-8.17,3.1,10.11,6.32,20.32,9.21,30.63.25.88-1.59,2.67-2.8,3.58-17.08,12.78-36.16,21.64-56.1,29-41.45,15.3-84.22,20.67-128.14,17.87-46.23-2.95-89.91-14.62-129.61-39.09-13.72-8.46-10.89-5.1-7.7-19.44.72-3.23,1.57-6.56,3.09-9.45.9-1.71,3.37-3.83,4.91-3.67,2.76.28,5.69,1.51,5.74,5.62.1,7.63.63,15.26,1.04,24.23,5.39-4.89,10.01-9.04,14.59-13.24,4.72-4.32,10.53-2.5,12.27,3.69,2.41,8.62,5.03,17.19,7.93,27.01Z"/>
  <path d="M258.81,614.07c49.02,39.47,104.75,56.69,166.79,55.62,61.69-1.07,116.85-19.87,165.36-59.51,1.91,7.35,3.78,14,5.22,20.74.22,1.02-1.26,2.82-2.4,3.67-18.39,13.68-38.51,24.33-59.46,33.47-43.97,19.2-89.95,24.33-137.33,19.34-47.22-4.97-91.95-17.84-132.97-42.32q-11.46-6.84-8.28-19.88c.89-3.65,1.98-7.24,3.06-11.15Z"/>
  <path d="M451.81,747.72c-9.16-17.13-17.63-32.98-26.55-49.68,29.55.36,57.61-3.17,85.66-12.11-1.69,17.64-3.33,34.65-4.96,51.67-.61.24-1.22.49-1.82.73-10.45-13.18-20.9-26.36-32.1-40.49-7.92,16.31-10.18,33.84-20.23,49.89ZM495.23,698.21c-2.11,3.29-4.25,5.19-4.18,7.01.05,1.43,2.86,3.85,4.4,3.81,1.43-.03,3.77-2.65,3.91-4.28.13-1.6-2.01-3.38-4.13-6.54Z"/>
  <path d="M481.06,337.6c-1.57,2.06-2.88,5.18-4.16,5.17-3.28-.03-6.54-1.45-10.29-2.44-.65,1.13-1.52,4.61-3.61,5.67-1.77.9-4.96-.99-8.08-1.79-1.19.91-3.06,3.39-5.21,3.67-2.18.28-4.65-1.64-6.37-2.34-2.24,2.05-4.59,5.93-7.25,6.15-2.78.23-5.86-3.05-8.04-4.35-2.26,1.81-4.85,5.5-7.33,5.43-2.61-.08-5.11-3.76-7.7-5.9-7.78,7.82-11.35,7.59-15.75-1.34-5.72,4.66-10.76,3.53-14.26-3.2-5.69,3.09-6.03,2.99-10.12-3.02-7.52,3.26-7.89,3.1-11.41-4.84-2.72,1.04-5.46,2.08-8.21,3.12-.4-.47-.8-.94-1.2-1.41,4.85-8.11,9.7-16.23,15.19-25.41v22.99c.45.14.89.28,1.34.42,3.19-6.06,6.38-12.12,9.56-18.19.26.03.52.07.79.1-.45,7.2-.89,14.4-1.34,21.61.67.19,1.35.38,2.02.57,3.24-6.17,6.49-12.33,10.1-19.2,1.74,8.12-2.03,15.97,1.2,23.17.56.15,1.11.29,1.67.44,3-6.77,6-13.53,9.49-21.4,1.99,8.62-.95,16.57,2.27,23.7l1.62.26c2.33-7.12,4.65-14.24,7.41-22.68,1.81,8.49,3.35,15.72,4.89,22.95.59-.02,1.19-.03,1.78-.05,4.22-6.37,3.08-14.47,6.11-21.93,2.67,7.58,5.12,14.56,7.57,21.54.7-.02,1.39-.03,2.09-.05.72-7.18,1.45-14.37,2.17-21.55.31-.11.62-.23.94-.34,2.84,6.28,5.67,12.56,8.51,18.84.6-.05,1.21-.1,1.81-.15.43-6.58.87-13.15,1.3-19.73.32-.13.64-.27.96-.4,2.92,5.71,5.85,11.43,8.77,17.14.53-.08,1.06-.16,1.59-.24v-19.74c.55-.12,1.1-.23,1.65-.35,3.23,5.88,6.45,11.76,9.68,17.64.39-.14.77-.29,1.16-.43v-21.09c3.72,6.61,6.83,12.14,9.94,17.66.57-.12,1.14-.24,1.7-.36-.61-6.89-1.22-13.78-1.91-21.52,5.91,8.28,11.41,15.98,16.9,23.67-.23.53-.45,1.06-.68,1.59-2.69-.72-5.38-1.44-8.1-2.17-3.35,8.19-4.14,8.47-11.15,4.16Z"/>
  <path d="M373.44,695.01c-11.45,12.73-23.19,25.77-35.47,39.43-2.54-16.28-4.98-31.89-7.49-47.99-10.99,11.17-21.58,21.94-32.18,32.72l-2.2-1.06c-.91-15.67-1.81-31.34-2.67-46.27,26.86,7.78,53.38,15.46,80.01,23.17ZM315.68,690.55c-2.89-2.05-4.65-4.27-6.23-4.14-1.58.13-4.24,2.68-4.14,3.99.13,1.63,2.47,4.09,4.11,4.3,1.51.2,3.34-2.1,6.26-4.15ZM355.64,702.27c-3.16-1.9-5.13-4.04-6.65-3.75-1.62.3-3.64,2.78-3.87,4.53-.15,1.09,2.71,3.64,4.18,3.61,1.7-.04,3.36-2.19,6.34-4.38Z"/>
  <path d="M188.76,979.36c-1.69-19.9-2.58-39.67,4.5-59.02,5-13.67,9.31-27.59,14.05-41.76,9.2,13.27,6.87,30.55,16.6,45.11-10.75,17.81-22.31,36.96-33.87,56.11l-1.28-.45Z"/>
  <path d="M584.95,707.51c-.81,9.97-1.54,18.72-2.22,27.47-.17,2.16.06,4.37-.33,6.48-1.29,6.86-1.28,13.21,5.48,17.54.29.19.29.84.85,2.68-3.12-2.51-5.28-4.25-7.66-6.17-.99,1.67-1.87,3.14-2.78,4.66-.45-.41-.91-.74-.87-.81,3.41-6.27-.77-9.41-4.94-12.95-7.47-6.35-14.64-13.05-22.93-20.49,23.59-10.52,45.05-22.84,61.32-44.22,3.34,13.13,6.25,24.5,9.11,35.87,1.34,5.32,1.73,11.46,10.01,10.88-.8.44-1.59.88-2.65,1.47.73,1.03,1.45,2.03,2.82,3.96-3.07-1.28-5.13-2.14-7.43-3.11-.53,1.67-1.01,3.18-1.49,4.68l-.89.05c-.19-.93-.78-2.02-.49-2.76,1.99-5.02-.77-7.05-4.8-9.1-9.76-4.96-19.31-10.33-30.09-16.15Z"/>
  <path d="M271.42,755.94c-.33-2.18-.66-4.35-1.05-6.91-1.74.63-3.31,1.21-4.89,1.79,6.7-4.59,3.68-10.98,3.4-16.78-.32-6.59-.7-13.18-1.11-20.71-9.03,5.47-17.28,10.36-25.37,15.49-.94.59-1.25,2.47-1.49,3.81-.29,1.66-.21,3.39-.29,5.08l-1.43.13c-.23-1.62-.47-3.24-.76-5.3-1.48.51-2.88.99-4.63,1.59,7.39-9.25,3.49-20.32,5.72-30.3.86-3.84.91-7.87,1.47-13.18,17.49,17.54,37.76,28.76,61.46,36.37-6.12,3.99-11.2,7.31-16.27,10.61-1.12.73-2.22,1.48-3.37,2.14-6.2,3.58-13.46,6.47-9.03,16.93-.79-.26-1.57-.52-2.36-.78Z"/>
  <path d="M377.82,694.67c15.44,1.29,30.3,2.53,46.1,3.84-10.43,15.84-17.68,33.03-30.03,49.06-5.63-18.54-10.81-35.59-16.06-52.9Z"/>
  <path d="M511.75,736.71c1.39-15.93,2.63-30.05,3.95-45.19,12.41,9.02,24.02,17.45,37,26.89-13.98,6.25-26.82,11.99-40.95,18.3Z"/>
  <path d="M553.99,669.1c1.19,15.36,2.36,30.4,3.61,46.37-14.27-10.44-27.97-20.47-41.9-30.66,13.04-5.35,25.68-10.54,38.29-15.71ZM546.58,690.59c-2.97-2.06-4.84-4.35-6.25-4.09-1.67.3-3.96,2.72-4.08,4.36-.1,1.3,2.59,3.78,4.21,3.94,1.5.14,3.24-2.1,6.13-4.21Z"/>
  <path d="M374.85,701.57c4.16,14.88,8.01,28.69,12.07,43.22-14.32-3.4-27.9-6.62-42.07-9.98,9.87-10.94,19.56-21.67,30.01-33.24Z"/>
  <path d="M556.22,668.06c12.31-7.26,23.59-13.9,35.5-20.92,1.86,13.48,3.7,26.83,5.68,41.13-14.26-7-27.39-13.44-41.18-20.21Z"/>
  <path d="M508.42,744.05c13.08-5.28,25.49-10.28,38.3-15.45-4.09,13.32-8.17,26.59-12.31,40.03,1.16.47,2.3.94,4.23,1.73-1.66.92-2.65,1.48-3.95,2.2,1,2.37,2.03,4.85,3.16,7.53-3.77-.38-2.16-7.65-8.14-4.71,2.99-8.93-4.94-11.91-8.78-17.01-3.77-5.02-8.26-9.5-12.52-14.32Z"/>
  <path d="M258.54,652.36c10.97,5.71,21.27,11.07,32.14,16.73-5.74,4.58-11.44,9-17,13.6-5.63,4.66-11.12,9.48-17.35,14.81-.47-1.92-1.29-3.54-1.18-5.08,1.03-13.27,2.22-26.52,3.39-40.06Z"/>
  <path d="M562.92,714.14c-1.26-13.83-2.34-25.72-3.49-38.39,11.54,5.65,22.36,10.94,34.7,16.98-10.77,7.39-20.42,14.01-31.22,21.41Z"/>
  <path d="M423.97,720.04c6.74,9.02,12.96,17.34,19.91,26.64-14.65,2.04-27.99,2.12-42.6.4,7.88-9.39,15.07-17.96,22.69-27.04Z"/>
  <path d="M288.74,677.11c.79,13.7,1.5,26.07,2.32,40.32-10.56-5.85-19.93-11.04-30.22-16.74,9.74-8.23,18.36-15.52,27.9-23.58Z"/>
  <path d="M305.46,728.58c10.89,4.21,21.06,8.14,32.27,12.47-5.08,4.19-9.72,8.04-14.38,11.85-1.16.95-2.29,2-3.61,2.65-4.51,2.19-5.66,5.5-3.89,10.1.53,1.39.63,2.94.93,4.42l-1.18.38c-.95-1.98-1.91-3.95-3.08-6.38-1.22,1.28-2.24,2.34-3.25,3.41-.44-.19-.89-.37-1.33-.56.58-1.54,1.25-3.05,1.71-4.62.6-2.04,1.74-4.25,1.4-6.16-1.57-8.95-3.57-17.83-5.59-27.55Z"/>
  <path d="M459.82,744.56c5.61-10.13,10.63-19.18,16.08-29.01,7.39,7.96,14.3,15.4,22.12,23.82-13.26,1.8-25.14,3.42-38.19,5.19Z"/>
  <path d="M332.29,732.76c-10.2-4.24-19.32-8.03-29.05-12.07,8.39-7.79,16.3-15.15,24.05-22.34,1.5,10.31,3.17,21.83,5,34.41Z"/>
  <path d="M250.12,691.09c-7.57-4.53-8.3-5.94-6.55-13.92,2.16-9.85,4.5-19.65,7.17-31.21,1.89,2.53,3.85,3.96,3.73,5.2-1.26,13.29-2.84,26.54-4.35,39.93Z"/>
  <path d="M599.39,641.97c3.07,10.83,6.64,21.52,8.84,32.49.56,2.8-3.23,6.48-5.02,9.75-.56-.18-1.13-.36-1.69-.54-1.26-7.91-2.52-15.83-3.8-23.74-.63-3.92-1.28-7.84-1.94-11.76-.48-2.86-.24-5.33,3.6-6.21Z"/>
  <path d="M481.67,356.31c-1.88-3.34-3.89-5.33-3.71-7.09.16-1.49,3.35-4.08,4.34-3.74,1.8.63,3.84,2.95,4.11,4.81.2,1.35-2.31,3.08-4.74,6.02Z"/>
  <path d="M458.61,357.47c-2.95,2.18-4.68,4.45-6.23,4.34-1.66-.12-3.16-2.49-4.73-3.88,1.54-1.6,2.87-4.05,4.69-4.51,1.31-.33,3.29,2.01,6.28,4.04Z"/>
  <path d="M399.79,357.42c-2.9,2.12-4.69,4.44-6.18,4.26-1.74-.22-3.21-2.61-4.8-4.06,1.59-1.56,2.99-3.98,4.84-4.4,1.31-.3,3.24,2.11,6.13,4.21Z"/>
  <path d="M496.52,352.42c-2.27-2.72-4.82-4.49-4.63-5.9.24-1.84,2.65-3.39,4.13-5.06,1.52,1.49,4.02,2.82,4.28,4.5.24,1.55-1.92,3.48-3.78,6.45Z"/>
  <path d="M373.73,348.9c-2.95,2.37-4.75,4.86-6.08,4.63-1.84-.32-3.31-2.69-4.95-4.18,1.49-1.43,2.84-3.73,4.53-4.02,1.5-.25,3.38,1.74,6.5,3.57Z"/>
  <path d="M413.49,359.82c-3.06,1.95-4.96,4.12-6.5,3.88-1.61-.24-4.03-2.83-3.97-4.31.06-1.49,2.67-3.88,4.29-3.99,1.55-.11,3.27,2.21,6.18,4.42Z"/>
  <path d="M379.51,360.39c-2.13-3.09-4.4-4.96-4.14-6.37.32-1.73,2.75-3.08,4.26-4.59,1.4,1.55,3.69,2.98,3.92,4.69.19,1.47-1.97,3.25-4.03,6.27Z"/>
  <path d="M442.79,361.73c-3.16,1.97-4.91,3.93-6.58,3.86-1.46-.06-2.83-2.4-4.23-3.73,1.56-1.58,2.91-3.96,4.76-4.47,1.18-.32,3.12,2.13,6.05,4.34Z"/>
  <path d="M361.91,344.72c-3.09,2.03-4.98,4.23-6.5,4-1.6-.25-3.98-2.86-3.92-4.36.06-1.46,2.68-3.78,4.34-3.94,1.49-.14,3.21,2.14,6.08,4.3Z"/>
  <path d="M474.26,354.38c-3.35,1.84-5.42,3.9-6.8,3.51-1.58-.45-3.37-3.02-3.48-4.76-.07-1.14,2.75-3.49,4.17-3.42,1.63.09,3.14,2.27,6.1,4.67Z"/>
  <path d="M421.45,367.44c-2.2-2.96-4.51-4.74-4.28-6.09.29-1.67,2.58-3.97,4.2-4.14,1.3-.14,3.83,2.36,4.07,3.94.21,1.44-1.93,3.23-3.98,6.28Z"/>
  <path d="M398.95,239.89c-1.99-1.6-5.28-2.92-5.68-4.84-.76-3.68,2.75-4.31,5.7-4.4,17.46-.52,34.92-1,52.38-1.46,3-.08,6.39.4,5.99,4.05-.17,1.51-3.68,3.7-5.75,3.78-17.28.74-34.57,1.07-51.86,1.52-.26.45-.51.9-.77,1.35Z"/>
  <path d="M424.05,184.44c-8.31,0-16.63-.05-24.94.03-3.01.03-6.21-.07-6.39-3.79-.19-3.75,3.07-4.29,6.02-4.38,16.8-.5,33.61-.96,50.41-1.41.99-.03,2.26-.3,2.93.19,1.46,1.05,3.27,2.37,3.63,3.89.21.9-1.91,3.17-3.27,3.46-3.05.64-6.27.5-9.43.53-6.32.06-12.65.02-18.97.02,0,.49,0,.99,0,1.48Z"/>
  <path d="M427.9,264.95c4.33,0,8.68-.28,12.97.15,1.51.15,2.84,2.08,4.25,3.19-1.21,1.36-2.35,3.81-3.64,3.9-9.12.6-18.27.88-27.41.81-1.33-.01-2.65-2.4-3.97-3.69,1.44-1.37,2.76-3.73,4.35-3.92,4.43-.54,8.97-.19,13.46-.19,0-.08,0-.17,0-.25Z"/>
  <path d="M432.03,207.71c-2.76,1.15-5.37,4.86-8.35.33,3.47-4.69,4.39-4.73,8.35-.33Z"/>
</svg>