<?xml version="1.0" encoding="UTF-8"?>
<svg id="Ebene_1" xmlns="http://www.w3.org/2000/svg" viewBox="0 0 517.11 505.45">
  <path d="M0,2.4c2.29-.49,4.57-1.42,6.86-1.41,14.6.09,29.2.45,43.8.56,5.59.04,11.17-.43,16.76-.51,3.19-.05,6.4.43,9.59.33,6.23-.2,12.45-.63,18.67-.97.59-.03,1.31-.24,1.75.01,4.71,2.72,9.71.52,14.54.78,6.18.33,12.41-.47,18.62-.78.51-.03,1.15-.22,1.5.01,3.77,2.47,7.86.59,11.77.8,6.14.33,12.32.11,18.48,0,1.84-.03,3.68-.68,5.51-.62,2.11.07,4.19.67,6.29.94,1.39.18,2.82.33,4.21.23,1.49-.11,2.95-.76,4.42-.77,9.19-.06,18.39,0,27.58.02.67,0,1.35-.07,2.02-.03,9.47.61,18.95.93,28.44.41,3.36-.18,6.69-.82,10.04-.98,1.6-.08,3.24.45,4.85.77.97.19,1.91.74,2.86.72,6.73-.12,13.47-.32,20.2-.54,3.11-.1,6.24-.21,9.33-.54,2.07-.22,4-.42,5.78.96.41.31,1.1.38,1.65.36,7.72-.3,15.45-.65,23.17-.96,2.7-.11,5.47-.58,8.07-.12,3.76.67,7.15.92,11.13.12,4.35-.87,9.17.09,13.83-.75,2.15-.39,4.5.73,6.8-.35.63-.3,1.69.05,2.45.36,6.16,2.5,12.44,1.14,18.71.77,2.27-.14,4.58.32,6.86.54.66.07,1.34.51,1.94.41,9.64-1.75,19.34-.37,29.01-.73,2.01-.07,4.02-.44,6.03-.37,1.31.04,2.58.71,3.9.95.94.17,2.14.44,2.85.02,2.21-1.29,4.45-.95,6.83-.96,8.08-.02,16.16-.4,24.23-.64.84-.03,1.88-.38,2.49-.02,4.33,2.55,8.88.61,13.27.64,11.22.08,22.45-.42,33.67-.67.75-.02,1.53.03,2.26.18,4.08.82,5.22,3.6,2.8,7.02-2.64,3.73-6.6,5.67-10.63,7.45-.77.34-1.56.63-2.35.92q-4.99,1.81-3.94,6.98c.42,2.12-.29,3.81-2.46,4.3-2.12.48-4.32.69-6.5.76-3.29.1-6.59.04-9.88-.06-2.44-.08-3.63.89-3.41,3.43.09,1,0,2.02,0,3.04-.06,98.28-.12,196.55-.17,294.83,0,1.35.11,2.71,0,4.05-.28,3.72.32,6.53,4.25,8.6,3.87,2.04,4.85,6.35,4.2,10.62-.54,3.53-2.3,6.39-6.05,7.33-1.85.46-3.78.57-6.24.93,4.03,4.94,6.81,9.88.74,14.81-3.13,2.54-8.57,2.68-11.88.28-5.93-4.29-3.63-9.34-.71-14.55-1.21-.31-2.06-.61-2.93-.73-5.05-.71-8.64-4.56-8.44-9.66.17-4.49,1.94-8.26,5.99-10.81.98-.62,1.86-2.18,1.93-3.35.24-4.38.13-8.78.13-13.17-.01-96.67-.03-193.34-.05-290.01,0-6.46.41-5.91-5.9-5.75-3.54.09-7.09.37-10.63.37-2.21,0-2.99.94-2.93,3.05.09,3.37.03,6.75.02,10.13,0,125.21-.02,250.42-.03,375.62,0,.68.07,1.36-.01,2.02-.34,2.65.69,4.3,3.09,5.66,5.17,2.93,6.8,10.11,3.86,15.29-1.59,2.79-4.09,3.84-7.09,4.13-.98.09-1.95.31-3.44.55,4.02,4.84,6.29,9.6.85,14.43-3.08,2.74-8.71,2.92-12.29.28-5.65-4.16-3.56-9.07-.69-14.18-1.35-.3-2.37-.54-3.4-.75-4.89-1-8.37-5.5-7.92-10.49.38-4.25,2.08-7.84,6.08-9.87,1.5-.76,2.07-1.81,2.05-3.4-.02-1.86.11-3.71.11-5.57-.03-127.15-.07-254.3-.11-381.45,0-5.96-.05-5.96-6.14-5.67-4.04.2-8.09.46-12.13.58-2.02.06-2.58,1.07-2.55,2.89.05,4.22,0,8.44,0,12.66,0,96.84.01,193.68.02,290.52,0,.84.08,1.69.02,2.53-.19,2.5.72,4.19,2.92,5.64,4.36,2.87,6.1,8.66,4.41,13.42-1.25,3.52-3.66,5.54-7.47,5.82-1.31.1-2.61.36-4,.55,4.65,8.34,4.81,10.87.97,14.44-3.05,2.84-8.67,3.2-12.51.8-2.56-1.6-4.23-3.98-3.93-6.9.27-2.67,1.52-5.24,2.4-8.05-.64-.17-1.41-.49-2.2-.58-4.29-.45-6.9-2.85-8.1-6.88-1.3-4.35-.57-8.74,2.88-11.34,3.69-2.78,3.81-5.98,3.81-9.86-.06-100.13-.06-200.27-.09-300.4,0-5.98,1.01-6.14-6-6.08-8.12.07-7.26-.59-7.26,7.19.01,115.58.03,231.17.05,346.75,0,3.04.09,6.08.02,9.12-.04,1.76.76,2.59,2.38,3.01,2.52.65,5.1,1.2,7.49,2.19,5.01,2.05,7.33,6.56,6.42,11.84-.8,4.62-4.13,7.6-8.84,7.9-1.4.09-2.81.17-4.78.29,3.61,5.15,5.54,10.05-.02,14.54-3.05,2.46-8.26,2.52-11.67.19-2.44-1.67-4.21-4.01-3.58-7.02.55-2.63,1.92-5.1,3.03-7.87-.93-.22-1.8-.45-2.68-.62-5.62-1.07-8.36-5.08-7.3-10.69.73-3.85,2.54-7.04,6.1-8.82,2.35-1.17,2.87-2.85,2.87-5.28-.04-59.35,0-118.71,0-178.06,0-59.94-.02-119.89-.04-179.83,0-5.21-.3-5.47-5.43-5.18-3.79.21-4.02.41-4.03,4.38-.03,14.94-.02,29.89-.02,44.83-.04,105.79-.07,211.58-.12,317.37,0,9.79-.1,19.58-.21,29.37-.03,2.3.5,4.1,2.41,5.74,3.58,3.08,4.02,9.33,1.34,13.22-1.52,2.2-3.75,3.01-6.26,3.33-1.25.16-2.49.39-4.39.69,4.09,4.5,6.78,9.05,1.39,13.95-2.85,2.59-8.07,3.17-11.63,1.07-6.56-3.86-4.14-9.14-1.5-14.37-1.22-.21-1.94-.38-2.68-.46-4-.39-6.83-2.27-8.01-6.24-1.2-4.05-.61-8.18,2.51-10.74,3.48-2.85,3.73-6.07,3.73-9.97-.06-128.59-.05-257.17-.06-385.76,0-5.49-.01-5.51-5.44-5.65-2.87-.07-5.74.05-8.61-.07-2.14-.08-2.85.99-2.83,2.91.01.84-.04,1.69-.04,2.53.02,110.6.03,221.2.06,331.81,0,2.36.17,4.73.05,7.09-.12,2.31.73,3.64,2.84,4.74,4.88,2.55,7.05,7.4,5.94,12.48-.87,4-3.53,6.39-7.65,6.91-1.32.17-2.63.39-4.55.69,4.26,4.79,6.82,9.63.74,14.43-3.36,2.65-9.22,2.58-12.59-.02-2.17-1.67-3.84-3.85-3.34-6.68.42-2.43,1.55-4.73,2.46-7.37-1.02-.22-2.12-.47-3.23-.71-5.96-1.3-9.28-7.12-7.34-12.97.96-2.89,2.58-5.34,5.38-6.73,1.64-.82,2.32-2,2.31-3.81-.02-7.01.07-14.01.07-21.02,0-105.79.02-211.58,0-317.37,0-6.92,1.06-6.61-6.7-6.75-2.95-.05-5.91,0-8.86-.07-1.91-.04-2.83.81-2.8,2.71,0,.59,0,1.18,0,1.77,0,143.19,0,286.38-.08,429.57,0,3.34.63,5.52,3.79,7.37,5.02,2.94,6.02,10.8,2.52,15.47-1.6,2.14-3.84,2.88-6.36,3.14-1.13.12-2.25.35-3.94.63,4.14,4.7,6.52,9.28,1.24,14.16-3.17,2.93-8.86,3.34-12.48.72-5.7-4.12-4.03-9.11-.92-14.38-1.11-.27-1.85-.54-2.61-.63-7.1-.81-9.62-7.1-8.37-12.55.82-3.58,2.74-6.58,6.32-8.04,1.76-.71,2.47-1.89,2.47-3.67,0-1.1.05-2.19.05-3.29,0-141.33,0-282.67,0-424,0-2.19-.05-4.39-.11-6.58-.04-1.61-.78-2.45-2.52-2.4-5.4.14-10.8.22-16.21.26-1.9.01-2.81.84-2.78,2.73.01.84-.03,1.69-.03,2.53-.04,104.44-.07,208.88-.11,313.32,0,.84.09,1.7,0,2.53-.28,2.41.78,3.85,2.87,5.05,4.42,2.55,6.31,7.9,4.76,12.69-1.22,3.77-3.56,5.61-7.57,6-1.32.13-2.63.35-4.64.63,4.25,4.9,7.34,9.74,1.26,14.81-3.11,2.59-8.29,2.74-11.64.51-2.47-1.65-4.21-4.01-3.93-6.94.25-2.6,1.46-5.1,2.33-7.93-.8-.2-1.65-.5-2.52-.62-5.47-.75-9.11-5.45-8.42-10.93.39-3.1,1.37-6.01,3.85-8.01,2.08-1.67,2.56-3.63,2.56-6.17-.07-55.55-.07-111.11-.08-166.66,0-48.97,0-97.94-.01-146.91,0-1.44-.06-2.87-.02-4.31.04-1.6-.82-2.43-2.27-2.45-4.39-.05-8.77-.02-13.16.07-1.8.04-2.3,1.19-2.28,2.91.09,8.95.11,17.9.1,26.85-.03,121.49-.05,242.99-.14,364.48,0,2.93.61,4.95,3.18,6.78,4.52,3.23,5.13,10.65,1.64,14.98-1.53,1.91-3.6,2.66-5.98,2.81-1.4.09-2.8.31-4.59.52,1.06,1.37,1.88,2.4,2.67,3.46,3.03,4.06,2.55,7.87-1.38,11.04-5.41,4.36-14.35,1.93-15.79-4.59-.47-2.13.67-4.65,1.19-6.96.17-.77.7-1.47,1.22-2.51-1.16-.28-2-.55-2.87-.68-4.29-.64-7.03-3.04-8.18-7.2-1.2-4.35.2-8.17,3.36-11.01,2.01-1.81,2.62-3.64,2.62-6.14-.12-129.01-.19-258.01-.31-387.02,0-7.66,1.14-6.75-6.89-6.93-2.78-.06-5.57-.15-8.35-.31-2.25-.13-3.3.9-3.3,3.1,0,.76-.02,1.52-.02,2.28,0,109,0,218,.01,326.99,0,3.55.16,7.1.04,10.64-.08,2.3.78,3.64,2.78,4.8,5.15,3,6.89,9.27,4.35,14.5-1.53,3.16-4.13,4.51-7.47,4.8-1.06.09-2.11.26-3.74.47,4.23,5.03,6.62,9.92.56,14.65-3.34,2.61-9.12,2.33-12.54-.36-3.67-2.89-3.79-6.01-.37-13.8-1.05-.29-2.03-.63-3.05-.82-4.86-.9-8.14-4.54-8.13-9.45.01-4.8,1.81-8.78,6.43-10.84,2.05-.91,2.63-2.32,2.62-4.37-.04-7.09,0-14.18,0-21.28,0-105.7,0-211.41,0-317.11,0-.76,0-1.52-.01-2.28-.01-1.63-.73-2.58-2.46-2.49-4.13.22-8.26.47-12.38.69-1.43.08-2.12.84-2.17,2.24-.03,1.01-.07,2.02-.07,3.04,0,123.27,0,246.53,0,369.8,0,4.56.1,9.12.05,13.68-.02,2.26.8,3.68,2.87,4.82,4.99,2.76,7.32,8.68,5.6,13.59-1.21,3.44-3.38,5.78-7.27,6.09-1.17.09-2.32.35-3.96.61,3.69,4.95,6.29,9.96.19,14.72-3.09,2.41-8.41,2.57-11.7.35-6.03-4.07-4.18-9.13-1.13-14.34-1.18-.39-1.93-.72-2.71-.87-6.34-1.25-9.85-6.61-8.28-12.89.73-2.93,2.13-5.63,4.88-7.1,2.55-1.36,3.14-3.31,3.14-6.01-.06-51.16-.04-102.33-.04-153.49,0-76.58-.01-153.15-.02-229.73,0-5.3-.02-5.34-5.33-5.2-3.71.1-7.42.35-11.13.43-1.58.03-2.36.61-2.34,2.22.01,1.18-.07,2.36-.07,3.54-.03,100.22-.04,200.43-.14,300.65,0,3.38.64,5.78,3.73,7.77,3.79,2.45,5.21,7.9,3.86,11.97-1.19,3.6-3.49,5.88-7.4,6.31-1.24.14-2.47.39-4.21.67,4.23,4.97,6.25,9.97.07,14.57-3.66,2.72-9.57,2.41-13.02-.43-3.7-3.05-3.82-5.75-.45-13.54-1.04-.3-2.03-.67-3.05-.85-5.27-.94-8.92-6.06-7.94-11.33.66-3.53,2.26-6.56,5.39-8.51,1.55-.97,2.1-2.2,2.09-3.98-.06-8.53-.04-17.05-.05-25.58-.01-92.53-.02-185.07-.03-277.6,0-6.06-.02-6.01-6.16-5.94-8.19.09-16.37.11-24.56.11-1,0-2.03-.17-2.98-.44-2.55-.74-3.15-2.39-1.74-4.59.32-.5.73-.93,1.05-1.42,1.61-2.44,1.13-4.32-1.65-5.06-5.97-1.6-11.15-4.49-15.59-8.77V2.4ZM174.33,17.44c-1.53.28-2.6.48-3.67.67-3.85.71-3.91.71-3.91,4.56-.03,19.08-.03,38.16-.03,57.24.04,113.63.08,227.27.12,340.9,0,1.27-.15,2.59.16,3.78.18.69,1.24,1.74,1.77,1.67,5.85-.8,5.72.53,5.8-5.57,0-.42,0-.84,0-1.27-.05-35.71-.13-71.42-.13-107.13,0-96.75.05-193.5.08-290.25,0-1.41-.12-2.82-.2-4.6ZM341.38,425.52V17.73c-1.51.13-2.84.41-4.14.32-2.61-.19-3.43.75-3.43,3.45.03,133.31-.02,266.61-.06,399.92,0,1.07,0,2.14,0,3.34,2.67.26,4.99.49,7.63.75ZM177.3,18.87c0,1.25,0,2.41,0,3.58,0,132.35,0,264.7-.01,397.05q0,6.48,6.51,6.59c.31,0,.63-.11.95-.17V18.87h-7.45ZM323.01,425.38c1.79,0,3.13.06,4.46-.01,3.29-.17,3.42-.3,3.42-3.53,0-11.65-.05-23.3-.05-34.95,0-120.39,0-240.77,0-361.16,0-1.86-.06-3.72,0-5.57.04-1.53-.64-2.03-2.13-2.09-5.37-.23-5.5-.14-5.5,5.14-.06,132.96-.12,265.93-.18,398.89,0,1,0,1.99,0,3.28ZM255.84,18.2c-5.09-.27-5.37.05-5.3,4.48.08,4.81.02,9.62.02,14.44-.02,137.44-.04,274.89-.06,412.33,0,4.98-.02,9.96-.13,14.94-.05,2.07.71,2.59,2.75,2.33,3.19-.4,2.72-2.62,2.72-4.7,0-146.9,0-293.8,0-440.7,0-.99,0-1.99,0-3.12ZM208.05,351.91c6.28.55,6.61.27,6.62-5.31,0-.67,0-1.35,0-2.02-.01-39.67,0-79.34-.04-119.01-.05-67.52-.11-135.04-.18-202.56,0-3.86-1.05-4.68-4.7-3.49-.75.24-1.55,1.19-1.77,1.96-.33,1.19-.2,2.51-.2,3.77,0,107.61.02,215.22.05,322.84,0,1.25.13,2.49.21,3.82ZM258.93,18.06c0,2.22,0,4.06,0,5.9,0,146.22,0,292.44-.01,438.65,0,4.01.07,4.07,4.65,3.99V18.24c-.63-.07-1.12-.15-1.62-.17-.83-.03-1.67,0-3.02,0ZM99.46,18.79c-4.44-.55-5.15.02-5.18,3.91,0,.76-.01,1.52-.01,2.28-.01,131.01-.02,262.02-.02,393.04,0,1.12-.4,2.59,1.37,2.72,1.69.13,3.25-.32,3.77-2.22.21-.8.2-1.67.2-2.51,0-3.97-.03-7.93-.03-11.9.02-127.47.04-254.93.05-382.4,0-.98-.1-1.97-.14-2.91ZM217.78,18.65c-.1,2.14-.26,3.97-.26,5.79-.02,86.71-.02,173.41-.03,260.12,0,21.11-.03,42.21-.03,63.32,0,3.51.4,3.88,3.93,4.06.74.04,1.48,0,2.38,0V19.02c-1.93-.12-3.81-.23-5.98-.37ZM63.37,18.27c0,1.13,0,2.14,0,3.14.03,79.19.05,158.37.08,237.56,0,25.58,0,51.16.01,76.74,0,3.39.77,4,4.23,4.07,3.13.07,1.98-2.21,2.23-3.74.03-.16,0-.34,0-.51,0-104.18,0-208.35-.01-312.53,0-5.85-.39-6.15-6.54-4.74ZM356.09,14.26c0,8.41,0,16.67,0,24.93,0,115.64,0,231.29,0,346.93,0,2.11.01,4.22-.04,6.33-.03,1.32.57,1.76,1.84,1.75,3.33-.04,3.86-.57,3.86-4.28,0-123.66,0-247.32,0-370.98,0-1.25,0-2.51,0-3.86-1.96-.28-3.69-.52-5.66-.8ZM380.1,339.97c5.56,1.26,6.54.52,6.54-4.76,0-63.32.02-126.63,0-189.95,0-40.94-.06-81.89-.08-122.83,0-1.88-.17-3.38-2.64-3.29-3.04.12-3.79.69-3.8,3.34-.04,6.08-.08,12.16-.08,18.23-.02,98.94-.03,197.88-.05,296.82,0,.82.07,1.65.11,2.42ZM60.7,18.24c-6.04-.45-6.67.12-6.69,5.45,0,.17,0,.34,0,.51.06,102.75.12,205.49.18,308.24,0,1.86-.07,3.72.03,5.57.03.56.35,1.41.77,1.61,2.83,1.33,5.64-.52,5.72-3.67.02-.76,0-1.52,0-2.28-.06-49.47-.18-98.95-.18-148.42,0-53.86.11-107.73.17-161.59,0-1.82,0-3.64,0-5.4ZM427.16,18.3c-4.06-.31-5.48.43-5.47,2.52.06,8.95.18,17.89.18,26.84.02,124.1.03,248.19.04,372.29,0,2.82,1.59,3.83,3.97,2.3.73-.47,1.25-1.78,1.29-2.72.14-3.79.06-7.59.06-11.39-.02-128.06-.04-256.13-.06-384.19,0-1.84,0-3.68,0-5.65ZM435.28,422.29c0-1.22,0-2.46,0-3.71,0-32.59,0-65.18-.01-97.77,0-99.79,0-199.59,0-299.38,0-3.43-.02-3.31-3.02-3.34-3-.03-2.07,2.13-2.07,3.57-.01,132.13.01,264.26.03,396.38,0,4.19.33,4.48,5.07,4.24ZM389.26,18.95c0,3.52,0,6.8,0,10.08,0,100.71,0,201.42,0,302.13,0,2.19-.05,4.4.15,6.58.07.72.72,1.8,1.33,1.98,1.49.44,3.1.45,4.77.65V18.95h-6.26ZM143.26,374.12c0-1.28,0-2.45,0-3.62,0-111.53,0-223.06,0-334.59,0-4.9-.03-9.79.05-14.69.03-1.84-.61-2.51-2.5-2.52-2.18-.01-3.12.77-2.9,2.96.09.92,0,1.86,0,2.78,0,115.16.02,230.32.03,345.48,0,4.04.6,4.56,5.32,4.2ZM129.7,197.18h0c0,58.08,0,116.15,0,174.23,0,3.57.29,3.74,3.72,2.86,1.98-.5,1.84-1.92,1.84-3.35.01-16.46.02-32.92.02-49.38-.01-99.61-.03-199.21-.05-298.82,0-3.61-.94-4.22-4.19-3.13-1.79.6-1.31,1.94-1.31,3.11-.02,58.16-.02,116.32-.02,174.48ZM287.66,197.71s-.05,0-.07,0c0,56.39,0,112.78,0,169.17,0,2.19-.02,4.39-.05,6.58-.02,2.01,1.01,2.38,2.79,2.03,3.33-.65,2.66-3.23,2.66-5.39.02-114.89.01-229.79,0-344.68,0-1.52-.06-3.04-.04-4.56.02-1.37-.71-1.71-1.94-1.63-3,.19-3.36.58-3.36,4.24,0,58.08,0,116.16,0,174.24ZM107.46,420.16c0-.93,0-1.92,0-2.91,0-11.14,0-22.29,0-33.43.06-121.05.12-242.11.21-363.16,0-1.99-.62-2.82-2.61-2.56-.71.09-1.44.11-2.3.17,0,8.4,0,16.58,0,24.76-.01,124.43-.03,248.86-.04,373.29,0,3.87.62,4.42,4.73,3.83ZM300.98,375.09V18.62h-5.08c0,1.87,0,3.62,0,5.36,0,115.56-.02,231.12-.03,346.68,0,3.94.81,4.69,5.11,4.43ZM473.88,338.7V18.73h-5.3v4.27c0,103.68,0,207.35,0,311.03,0,4.41.61,4.94,5.29,4.67ZM465.73,19.34c-5.09-.62-5.54-.23-5.55,4.36,0,5.83-.02,11.65-.02,17.48-.02,96.5-.04,192.99-.06,289.49,0,2.03,0,4.05-.06,6.08-.04,1.5.65,2.1,2.14,2.13,2.97.06,3.64-.8,3.64-4.86-.03-62.98-.07-125.96-.09-188.94-.01-40.27,0-80.54,0-120.81,0-1.66,0-3.32,0-4.92ZM11.04,8.86c.01-.25.02-.51.03-.76.74-.03,1.47-.08,2.21-.1,10.88-.18,21.77-.37,32.65-.52,1.44-.02,3.02-.09,2.95-1.83-.03-.61-1.79-1.61-2.79-1.64-12.57-.33-25.14-.52-37.71-.73-1.43-.02-2.88,0-4.3.17-2.38.29-3.09,1.66-1.46,3.36,1.77,1.85,3.87,3.53,6.12,4.73,2.72,1.45,5.76,2.29,8.64,3.46,3.42,1.38,4.51,4.66,2.65,7.85-.49.84-1.04,1.64-1.81,2.87,1.36.21,2.31.49,3.25.47,9.11-.13,18.22-.36,27.33-.46,1.85-.02,2.5-.82,2.71-2.52.46-3.86-1.39-6.98-2.96-10.26-1.08-2.25-2.48-3.13-5.07-3.12-8.77.04-17.55-.2-26.32-.4-2.04-.05-4.08-.39-6.12-.6ZM508.05,7.68c.03.31.06.62.08.93-.83.15-1.66.39-2.5.42-7.84.35-15.67.72-23.51.96-1.95.06-3.08.77-3.9,2.53-1.51,3.25-1.8,6.65-1.48,10.11.06.65,1.01,1.69,1.61,1.73,5.04.35,10.1.6,15.15.66,1.73.02,2.71-.86,2.05-3.02-1.38-4.5-.56-5.93,3.92-7.68,1.25-.49,2.61-.78,3.77-1.42,3.01-1.65,6.03-3.31,8.85-5.25.85-.58,1.05-2.11,1.54-3.2-1.07-.34-2.15-.97-3.21-.96-9.78.09-19.57.27-29.35.54-.83.02-2.24.82-2.35,1.44-.31,1.88,1.34,1.47,2.43,1.5,8.18.17,16.36.31,24.54.47.78.02,1.57.16,2.35.25ZM234.44,25.68s0,.1,0,.14c3.45-.21,6.89-.43,10.34-.64,1.98-.12,2.98-.92,3.01-3.14.05-4.49-2.2-8.04-4.46-11.58-.35-.55-1.45-.85-2.21-.87-2.95-.08-5.9.02-8.85.03-2.54,0-4.36,1.29-4.75,3.68-.56,3.45-.73,6.98-.78,10.48,0,.63,1.32,1.69,2.14,1.82,1.81.28,3.69.09,5.55.09ZM407.84,25.64c0-.06,0-.12,0-.19,2.86-.18,5.72-.37,8.58-.55,1.93-.12,2.55-1.18,2.49-3.02-.14-4.57-2.54-8.31-5.18-11.54-1.06-1.3-4.53-.67-6.91-.86-.92-.07-1.86.08-2.78.02-2.6-.16-4.34,1.09-4.8,3.51-.6,3.2-.78,6.48-1.11,9.73-.22,2.1.92,2.9,2.86,2.89,2.28,0,4.55,0,6.83,0ZM155.16,26.31s0-.08,0-.12c2.11,0,4.21.02,6.32,0,1.8-.02,2.94-.77,2.68-2.77-.34-2.65-.43-5.38-1.2-7.91-2.06-6.76-2.18-6.72-9.18-6.16-.67.05-1.35.17-2.02.11-2.56-.23-4.2,1.18-4.61,3.41-.68,3.69-1,7.46-1.16,11.2-.03.71,1.29,2.03,2.11,2.13,2.32.29,4.7.1,7.06.1ZM447.65,25.56c0-.15,0-.3,0-.45,2.44,0,4.9.15,7.31-.08.86-.08,2.22-.97,2.34-1.66.81-4.77-.83-9.06-3.71-12.7-2.15-2.72-5.46-1.34-8.32-1.29-.42,0-.9-.05-1.25.13-.99.5-2.22.89-2.85,1.72-2.6,3.42-3.42,7.4-3.22,11.65.08,1.8.92,2.64,2.62,2.67,2.36.04,4.72.01,7.07.01ZM80.17,25.67s0,.07,0,.1c2.86-.19,5.71-.4,8.57-.56,2.08-.12,2.97-1.17,2.93-3.25-.08-4.43-2.36-7.98-4.52-11.58-.28-.46-1.12-.83-1.69-.83-2.6,0-5.23,0-7.81.3-2.89.33-5.65,3.65-5.59,6.53.05,2.27.3,4.53.48,6.79.14,1.72,1.07,2.55,2.82,2.5,1.6-.04,3.2,0,4.8,0ZM196.53,25.6c0-.09,0-.17,0-.26.76,0,1.52,0,2.28,0,6.92-.04,6.98-.12,6.33-7.07-.73-7.74-2.9-9.61-10.54-9.08-.59.04-1.18.21-1.76.16-2.36-.2-3.87,1.14-4.25,3.14-.65,3.43-.83,6.94-1.17,10.43-.19,2.02,1.02,2.67,2.8,2.68,2.11,0,4.21,0,6.32,0ZM275.64,25.17v.06c2.19,0,4.39-.01,6.58,0,1.67.01,2.68-.86,2.53-2.45-.25-2.56-.33-5.3-1.32-7.61-2.84-6.66-1.44-6.27-9.85-6.08-2.43.06-4.02,1.29-5.23,3.35-1.79,3.06-1.98,6.35-1.95,9.76.02,2.06.97,2.94,2.91,2.96,2.11.02,4.22,0,6.33,0ZM118.26,25.9c2.26-.14,4.28-.3,6.31-.38,1.82-.08,2.42-1.08,2.48-2.77.15-4.77-2-8.64-4.84-12.17-1.33-1.65-7.02-1.52-8.19.2-2.61,3.83-4.28,8.07-3.68,12.81.11.85,1.29,2.07,2.12,2.21,1.97.33,4.02.1,5.8.1ZM312.12,25.16h0c.67.01,1.35,0,2.02.01,6.78.08,7.17-.06,5.91-6.8-.56-2.99-2.22-6.13-4.28-8.35-1.06-1.14-4.12-.49-6.27-.48-.65,0-1.55.39-1.9.91-2.65,3.84-4.21,8.06-3.59,12.79.09.72,1.28,1.74,2.07,1.84,1.99.26,4.03.09,6.05.09ZM370.77,24.75c1.35,0,2.71-.07,4.05.02,1.85.12,2.51-.69,2.6-2.5.2-3.84-1.35-7.06-3.26-10.18-1.57-2.57-3.12-3.16-6.22-2.41-2.51.61-3.45,2.49-3.71,4.82-.12,1.09-.12,2.19-.12,3.29-.03,8.08-.37,6.77,6.65,6.97ZM367.79,402.12c.09-4.53-2.61-6.8-6.16-5.88-2.67.69-4.15,3.61-3.63,7.17.32,2.19.97,4.17,3.53,4.63,2.17.39,4.68-1.11,5.63-3.44.4-1,.54-2.1.63-2.47ZM344.17,19.74c-.09,4.69.11,4.89,4.89,4.81.84-.01,1.76.09,2.49-.23.71-.31,1.7-1.06,1.74-1.67.13-2.15.1-4.36-.24-6.49-.28-1.76-1.68-2.58-3.5-2.64-4.06-.15-5.27,1.23-5.37,6.22ZM216.34,354.41c-2.75-.02-4.11,1.64-4.14,5.08-.03,3.72,1.56,5.99,4.24,6.07,2.55.08,4.66-2.08,4.73-4.85.1-4.03-1.62-6.27-4.83-6.3ZM471.94,346.99c.05-3.46-2.2-5.89-5.27-5.71-2.69.16-4.13,2.43-3.8,5.98.32,3.37,2.09,5.35,4.63,5.17,2.66-.18,4.39-2.31,4.43-5.44ZM180.89,433.87c-.05-1.64-.45-3.84-2.6-4.55-1.5-.5-3.72-.61-4.93.17-2,1.28-1.93,3.73-1.32,5.97.76,2.81,2.53,4.34,4.67,4.05,2.53-.34,4.15-2.34,4.18-5.63ZM335.9,433.14c-.02-3.09-1.58-5.3-3.99-5.67-3.21-.49-5.14,1.87-4.89,5.98.19,3.12,1.99,5.2,4.46,5.14,2.59-.06,4.44-2.34,4.41-5.45ZM383.88,348.33c.01,3.54,1.8,5.76,4.59,5.71,2.71-.05,4.25-2.01,4.27-5.42.02-3.4-1.81-5.57-4.72-5.62-2.88-.04-4.15,1.59-4.14,5.32ZM66.89,348.04c0-3.53-1.9-5.62-5.07-5.58-2.45.03-4.06,1.96-4.02,4.81.05,3.63,1.95,6,4.78,5.93,2.65-.06,4.3-2.04,4.31-5.16ZM298.92,383.61c.02-3.64-1.53-5.51-4.63-5.58-2.56-.06-4.09,1.67-4.11,4.61-.02,3.78,1.69,6.21,4.38,6.25,2.73.04,4.34-1.91,4.36-5.28ZM261.36,474.94c-.03-3.15-2.18-5.45-5.1-5.44-2.44.01-3.98,1.91-3.96,4.86.03,3.6,1.81,5.9,4.52,5.84,2.82-.06,4.57-2.08,4.54-5.26ZM140.33,382.76c.08-3.52-1.61-5.57-4.65-5.65-2.5-.06-4.08,1.71-4.14,4.65-.07,3.7,1.72,6.14,4.5,6.14,2.64,0,4.21-1.88,4.29-5.15ZM105.35,429.11c0-3.42-1.87-5.71-4.71-5.75-2.6-.04-3.95,1.69-3.93,5.03.02,3.46,1.73,5.66,4.4,5.65,2.56-.01,4.24-1.96,4.24-4.93ZM363.71,411.09c.5.47,1.08,1.49,1.77,1.56,2.58.29,5.2.44,7.78.3,1.75-.1,2.69-1.51,2.48-3.22-.29-2.27-1.38-4.27-3.68-5.01-.86-.28-2.3.07-2.99.68-1.8,1.6-3.33,3.5-5.36,5.69ZM432.78,430.97c.01-3.16-1.29-5.19-3.57-5.56-3.63-.59-5.69,2.21-4.73,6.41.62,2.72,2.39,4.36,4.54,4.2,2.36-.18,3.75-2.05,3.77-5.05ZM475.27,348.73c-2.21,2.47-4.19,4.68-6.15,6.87,1.31,2.52,3.6,1.91,5.6,1.81,1.74-.08,3.96.41,4.76-1.86.79-2.25-.67-3.82-2.14-5.25-.59-.57-1.3-1-2.07-1.58ZM246.01,4.93c-.17-.28-.35-.55-.52-.83-5.37,0-10.75-.04-16.12.06-.52.01-1.02.92-1.52,1.41.65.63,1.29,1.79,1.94,1.79,4.45.02,8.92-.09,13.36-.44,1-.08,1.92-1.3,2.87-1.99ZM333.18,441.78c.97.46,1.93,1.19,2.97,1.33,1.47.2,3.02.07,4.51-.09,3.32-.37,4.26-2.44,2.33-5.2-.65-.92-1.62-1.66-2.55-2.34-1.04-.75-1.84-.6-2.66.64-1.18,1.78-2.69,3.35-4.6,5.66ZM218.55,368.67c1.42,3.12,4.32,1.92,6.76,1.76,3.77-.25,4.75-2.38,2.55-5.49-.86-1.22-2.2-2.1-3.19-3.01-2.19,2.41-4.04,4.45-6.12,6.74ZM390.36,357.24c1.15,1.88,8.16,2.68,9.65,1.02.16-.18.23-.44.32-.67.86-2.17-1.83-6.46-4.17-6.55-.38-.01-.87.36-1.16.69-1.53,1.75-3,3.55-4.65,5.51ZM354.41,403.2c-1.84,1.6-3.6,2.83-4.97,4.41-1.36,1.56-.6,3.95,1.41,4.38,1.75.38,3.69.4,5.44.05,1.67-.33,2.51-1.57,1.34-3.39-1.03-1.6-1.94-3.28-3.22-5.45ZM296.8,392.06c.14.19.28.51.51.72,1.43,1.28,7.79,1.65,8.74.18.66-1.02.8-3.06.19-4.03-.82-1.32-2.57-2.07-3.97-2.99-.09-.06-.62.47-.89.78-1.47,1.69-2.92,3.4-4.59,5.35ZM137.73,391.26c.72.55,1.43,1.52,2.25,1.62,1.91.23,3.88.18,5.8,0,2.02-.19,2.69-1.53,2.11-3.7-.54-1.99-3.4-4.59-4.58-4.14-.21.08-.37.32-.54.51-1.6,1.81-3.2,3.63-5.03,5.72ZM178.17,442.84c.89.5,1.72,1.32,2.61,1.39,1.99.17,4.02.02,6.03-.13.49-.04,1.34-.55,1.35-.88.05-1.28.24-2.82-.38-3.78-.79-1.24-2.27-2.06-3.54-2.95-.16-.11-.87.37-1.18.71-1.56,1.74-3.07,3.52-4.91,5.64ZM435.25,441.09v-.03c.59,0,1.22.14,1.76-.03,1.13-.35,2.9-.63,3.15-1.36.38-1.13-.08-2.72-.59-3.94-.35-.84-1.29-1.67-2.16-1.99-.66-.24-1.83.08-2.4.57-1.12.98-2,2.24-2.94,3.42-.48.6-.89,1.27-1.33,1.91.83.48,1.61,1.08,2.5,1.41.59.22,1.33.04,2.01.04ZM323.51,15.35c3.13.36,15.67-7.85,17.13-11.22-2.64-1.33-12.27,4.97-17.13,11.22ZM258.86,483.68c.46.42.97,1.3,1.51,1.32,2.4.07,4.89.24,7.18-.3,1.83-.43,1.66-2.34.89-3.77-.88-1.65-1.69-3.58-4.12-3.36-.28.02-.56.35-.77.59-1.51,1.76-3.01,3.54-4.69,5.52ZM436.6,4.61c-3.2-1.62-12.92,5.89-15.83,11.86,7.52-1.55,10.32-8.23,15.83-11.86ZM399.51,4.25c-.22.32-.44.64-.66.96.69.68,1.37,1.93,2.07,1.94,4.7.07,9.4-.07,14.1-.29.48-.02.92-.95,1.38-1.46-.45-.39-.89-1.1-1.34-1.11-5.18-.08-10.36-.05-15.55-.05ZM64.88,356.8c1.18,2.35,3.78,1.56,6.12,1.26,1.14-.14,3.05-.62,3.16-1.22.23-1.22-.27-2.77-.93-3.92-.62-1.07-1.85-1.8-2.45-2.34-2.1,2.21-3.93,4.13-5.91,6.21ZM69.18,4.05c-4.33-.49-12.63,5.88-15.04,11.98,1.53-.32,3.27-.58,4.35-1.56,3.65-3.3,7.06-6.85,10.68-10.43ZM205.06,3.89c-5.06,0-9.93-.06-14.8.06-.72.02-1.95.83-2.02,1.4-.18,1.4.97,1.65,2.22,1.63,3.87-.05,7.75-.07,11.63,0,1.89.03,2.78-.83,2.98-3.09ZM108.65,431.31c-1.67,1.9-2.94,3.32-4.18,4.78-.4.47-1.1,1.28-.97,1.48.41.63,1.1,1.33,1.78,1.46,1.22.24,2.54.26,3.77.04,1.29-.23,3.5-.73,3.58-1.33.18-1.38-.44-3.05-1.21-4.32-.58-.96-1.89-1.48-2.76-2.11ZM73.71,4.06c-.19.34-.38.68-.57,1.03.54.79,1.07,2.26,1.62,2.27,4.36.07,8.72-.07,13.08-.33.55-.03,1.04-1.09,1.56-1.68-.62-.43-1.24-1.22-1.87-1.23-4.61-.11-9.22-.06-13.82-.06ZM184.08,5.27c-2.97-2.15-14.55,5.41-16.52,10.55,7.53-.83,10.07-8.72,16.52-10.55ZM208.19,361.77c-1.24,1.31-2.55,2.38-3.47,3.72-1.04,1.52-1.08,3.21.7,4.38,1.68,1.1,5.01.91,6.36-.51.46-.49.61-1.83.26-2.41-1.01-1.7-2.34-3.2-3.85-5.18ZM162.9,3.99c-4.71,0-9.33-.06-13.94.07-.6.02-1.18,1.05-1.76,1.61.68.55,1.36,1.58,2.04,1.59,3.87.02,7.74-.21,11.6-.36,1.62-.06,2.57-.72,2.06-2.91ZM458.96,348.62c-1.33,1.49-2.73,2.71-3.67,4.21-.84,1.33-.88,2.94.79,3.94,2.3,1.37,5.62.62,7.41-1.69-1.36-1.95-2.75-3.92-4.53-6.46ZM366.8,425.83c.27,0,.55,0,.82,0,.12-.99.7-2.27.29-2.92-2.11-3.32-4.43-6.5-6.79-9.65-.28-.37-1.51-.57-1.77-.31-.43.43-.59,1.3-.57,1.97.02.53.4,1.11.75,1.56,2.4,3.13,4.84,6.24,7.26,9.36ZM322.96,434.89c-1.31,1.57-2.63,2.82-3.52,4.33-.76,1.29-.7,2.79.93,3.66,2.24,1.2,5.71.31,7.41-1.98-1.47-1.83-2.97-3.69-4.82-6ZM379.71,350.27c-1.39,1.67-2.85,2.9-3.55,4.47-.38.86.14,2.78.91,3.38,2.08,1.62,5.63.69,7.27-1.57-1.38-1.86-2.76-3.75-4.63-6.28ZM440.33,3.99c-.2,2.06.47,2.96,2.2,2.97,3.71.01,7.42.1,11.13-.02.68-.02,1.34-.86,2.01-1.33-.62-.54-1.22-1.54-1.86-1.56-4.45-.14-8.9-.07-13.48-.07ZM222.91,383.98c1.54-1.77.93-3.27-.08-4.58-1.9-2.46-3.86-4.89-5.95-7.2-.58-.64-1.69-.79-2.55-1.16.02,1.05-.38,2.43.13,3.09,2.65,3.34,5.53,6.5,8.45,9.85ZM275.19,6.95c2.52,0,4.47.11,6.4-.06.62-.05,1.17-.85,1.75-1.3-.45-.5-.9-1.43-1.36-1.44-4.12-.06-8.25-.03-12.37.16-.5.02-.95,1.09-1.43,1.68.6.43,1.18,1.22,1.79,1.24,1.93.05,3.87-.18,5.22-.27ZM172.34,442.11c-1.38-1.9-2.79-3.84-4.59-6.32-1.4,1.66-2.85,2.93-3.64,4.53-.36.72.26,2.53,1.01,3.09,1.92,1.46,5.25.76,7.22-1.3ZM127.42,384.42c-1.35,1.67-2.71,2.94-3.5,4.51-.37.72.05,2.4.7,2.97,2.11,1.86,5.69,1.12,7.54-1.36-1.45-1.88-2.93-3.78-4.73-6.12ZM394.52,372.57c1.26-2.53.51-4.17-.69-5.64-1.76-2.15-3.54-4.29-5.47-6.29-.57-.59-1.64-.69-2.48-1.01,0,.98-.43,2.29.04,2.88,2.65,3.34,5.52,6.51,8.59,10.06ZM473.29,370.43c.32-.04.64-.08.96-.13-.21-1.33,0-2.95-.69-3.93-2.01-2.87-4.35-5.52-6.65-8.18-.34-.39-1.44-.68-1.7-.46-.46.41-.77,1.26-.71,1.88.07.69.52,1.42,1,1.97,2.57,2.97,5.19,5.9,7.79,8.84ZM300.88,406.61c.28-.08.57-.15.85-.23-.06-.92.24-2.11-.23-2.71-2.44-3.17-5.06-6.2-7.68-9.23-.23-.27-1.08-.39-1.31-.19-.38.32-.75,1.02-.66,1.45.17.78.54,1.62,1.07,2.21,2.61,2.94,5.3,5.8,7.96,8.69ZM286.14,385.28c-1.32,1.59-2.61,2.83-3.52,4.31-1.11,1.79-.13,3.17,1.64,3.65,2.29.63,4.61.65,6.7-1.45-1.5-2.03-2.96-4.01-4.81-6.52ZM330.06,442.95c-2.1,1.54-1.77,2.87-.72,4.04,2.68,2.98,5.45,5.87,8.18,8.8.26-.04.51-.09.77-.13,0-1.05.43-2.43-.07-3.08-2.59-3.32-5.43-6.45-8.16-9.63ZM182.31,457.25c.33-.06.66-.12.99-.18-.1-.96.15-2.19-.35-2.85-2.38-3.14-4.94-6.15-7.51-9.14-.28-.32-1.29-.47-1.53-.25-.4.37-.65,1.14-.59,1.71.07.61.46,1.27.89,1.75,2.67,3.01,5.39,5.98,8.1,8.96ZM142.04,405.9c.4-.18.8-.36,1.2-.53-.45-1.4-.59-3.02-1.41-4.15-1.82-2.52-3.92-4.84-6.03-7.14-.44-.48-1.37-.52-2.08-.76-.1.84-.61,1.99-.24,2.46,2.75,3.45,5.68,6.77,8.55,10.13ZM393.93,4.69c-6.86,1.02-9.44,6.99-13.24,11.59,6.64-1.25,8.43-8.12,13.24-11.59ZM264.15,5.41c-3.61-1.63-11.66,4.93-13.59,10.48,6.71-.81,7.99-7.98,13.59-10.48ZM253,483.32c-1.53-2.1-2.92-4.02-4.33-5.96-2.31,1.12-3.99,2.51-3.99,4.98,0,.78.78,1.93,1.5,2.25,2.32,1.04,4.56.57,6.82-1.27ZM53.86,350.25c-1.08,1.01-2.29,1.77-2.93,2.87-.56.97-.99,3.06-.58,3.34,1.26.86,2.94,1.41,4.48,1.46,1.05.03,2.16-.93,3.14-1.61.14-.09-.24-1.19-.59-1.67-1.03-1.4-2.17-2.73-3.51-4.39ZM262.81,498.15c.37-.12.74-.25,1.12-.37-.29-1.15-.28-2.52-.92-3.41-1.87-2.58-3.93-5.05-6.09-7.4-.57-.62-1.77-.68-2.68-.99.1.92-.15,2.11.34,2.7,2.64,3.24,5.47,6.33,8.23,9.47ZM97.35,437.18c-1.47-1.96-2.91-3.87-4.43-5.89-2.2,1.24-3.8,2.81-3.72,5.3.03.75,1.14,1.83,1.97,2.12,2.23.79,4.42.58,6.17-1.53ZM68.53,371.14c1.44-1.69.92-3.01-.02-4.17-1.96-2.41-3.96-4.8-6.09-7.07-.53-.57-1.59-.64-2.4-.94.06.93-.24,2.15.24,2.74,2.6,3.17,5.39,6.19,8.27,9.45ZM378.02,408.76c2.06-4.26-.92-9.63-5.74-10.73-.68-.16-1.48.18-2.22.28.27.99.26,2.62.85,2.88,3.43,1.5,5.61,4.09,7.11,7.57ZM223.02,5.12c-.24-.35-.49-.7-.73-1.05-6.31,1.55-8.91,7.56-13.03,11.75,6.7-.96,8.62-7.81,13.76-10.7ZM94.53,16.17c6.43-1.99,7.64-8.76,12.71-11.38-4.23-.59-10.49,5.04-12.71,11.38ZM424.77,438.78c-1.11-1.54-2.15-3.16-3.39-4.62-.32-.37-1.61-.53-1.82-.27-1.04,1.26-2.04,2.62-2.66,4.11-.23.55.41,1.82,1.01,2.28,1.81,1.38,5.37.52,6.86-1.5ZM434.61,453.74l.88-.11c-.12-.97.1-2.17-.4-2.86-2.22-3.02-4.62-5.91-7.03-8.79-.25-.3-1.2-.39-1.52-.16-.35.25-.54,1.04-.43,1.51.16.71.53,1.44,1.01,1.99,2.46,2.83,4.99,5.61,7.5,8.41ZM300.65,4.97c-3.81-.57-10.34,5.7-12.36,11.58,6.24-1.94,7.57-8.59,12.36-11.58ZM460.63,15.85c5.98-1.65,7.68-7.87,12.12-11.2-6.54,1.01-8.78,6.7-12.12,11.2ZM107.18,452.02c.35-.16.69-.31,1.04-.47-.38-1.27-.47-2.77-1.21-3.78-1.83-2.49-3.91-4.81-6.01-7.09-.45-.49-1.39-.53-2.11-.78-.01.83-.37,1.95.03,2.44,2.66,3.3,5.49,6.46,8.26,9.67ZM306.18,3.93c-.14,2.25.73,3.03,2.5,3.01,2.53-.02,5.06.02,7.59-.02.57,0,1.27-.07,1.67-.4.51-.41.78-1.12,1.15-1.7-.54-.3-1.08-.84-1.63-.85-3.69-.08-7.39-.04-11.29-.04ZM129.82,16.38c5.78-2.02,7.24-8.14,11.37-11.72-6.2,1.56-8.57,6.86-11.37,11.72ZM231.8,365.13c.73-3.64-2.55-8.64-6.73-9.61-.61-.14-1.34.19-2.01.31.23.81.2,1.9.73,2.39,2.6,2.4,5.35,4.64,8.02,6.92ZM346.98,405.96c3.02-2.05,5.94-3.96,8.75-6.02.47-.35.65-1.32.63-2,0-.29-.85-.79-1.32-.8-3.77-.05-8.4,4.98-8.06,8.82ZM482.58,351.94c.72-4.61-3.54-9.66-9.16-9.84.42,1.08.53,2.22,1.16,2.82,2.58,2.43,5.32,4.7,8,7.02ZM337.68,428.12c.29,1.11.23,2.22.75,2.68,2.69,2.4,5.53,4.64,8.21,6.85.96-4.18-3.12-9.02-8.97-9.53ZM191.44,439.82c1.08-5.2-4.06-10.93-9.19-9.8.86,1.12,1.45,2.11,2.25,2.86,1.34,1.25,2.91,2.26,4.23,3.53.98.94,1.72,2.14,2.71,3.41ZM394.56,344c.24.91.2,1.9.67,2.34,2.71,2.54,5.53,4.95,8.26,7.36,1.2-3.5-4.06-10.1-8.93-9.7ZM151.05,387.41c.37-3.78-2.43-7.9-6.57-9.12-.63-.19-1.43.19-2.15.3.27.73.33,1.68.84,2.14,2.58,2.31,5.27,4.49,7.88,6.68ZM309.99,388.43c.19-4.11-2.6-8.09-6.78-9.29-.62-.18-1.37.08-2.07.14.22.75.2,1.76.7,2.21,2.65,2.39,5.42,4.64,8.15,6.94ZM316.07,437.07c.27.12.54.24.81.36,2.52-2.08,5.08-4.11,7.51-6.29.49-.44.43-1.48.62-2.24-.77-.03-1.74-.37-2.27-.03-1.74,1.13-3.56,2.31-4.89,3.87-.97,1.12-1.21,2.87-1.78,4.34ZM112.35,4.42c-.28,2.25.7,2.91,2.43,2.86,2.68-.09,5.37-.14,8.04-.32.61-.04,1.18-.57,1.77-.88-.51-.55-1.01-1.56-1.54-1.58-3.57-.14-7.14-.07-10.71-.07ZM201.87,364.18c2.76-2.29,5.46-4.48,8.07-6.77.33-.29.37-1.13.24-1.63-.08-.3-.76-.64-1.16-.64-3.53.04-7.77,5.27-7.15,9.04ZM271.99,479.75c.46-2.23-.72-4.25-2.17-6.09-1.59-2.02-3.64-3.24-6.91-3.14.49,1.17.61,2.16,1.17,2.66,2.52,2.23,5.17,4.31,7.91,6.57ZM443.45,436.28c.58-4.16-2.41-8.79-6.18-9.82-.72-.2-1.61.26-2.43.41.38.75.6,1.68,1.18,2.22,1.75,1.65,3.67,3.11,5.45,4.72.7.64,1.21,1.49,1.98,2.47ZM452.47,351.14c2.72-2.2,5.23-4.23,7.75-6.25.13-.1.36-.18.39-.3.16-.62.46-1.3.31-1.86-.09-.33-.93-.71-1.39-.67-3.61.34-7.3,4.98-7.06,9.08ZM373.44,352.57c2.6-2.09,5.01-4.03,7.42-5.97.13-.11.36-.16.4-.29.28-.75.51-1.51.8-2.38-4.75-.25-9.28,4.38-8.62,8.64ZM107.32,424.61c.17.76.07,1.79.53,2.21,2.68,2.43,5.48,4.71,8.08,6.9.47-4.29-4.03-9.52-8.61-9.11ZM161.65,437.71c2.68-2.69,6.51-4.11,8.54-7.89-4.58-.75-9.26,3.58-8.54,7.89ZM279.63,387.71c2.95-2.42,5.61-4.56,8.19-6.78.33-.28.42-1.08.3-1.55-.07-.27-.8-.55-1.21-.53-3.31.2-7.5,5.02-7.28,8.86ZM77.46,352.59c1.11-3.49-3.97-9.22-8.71-8.97.22.79.18,1.78.65,2.2,2.65,2.36,5.42,4.58,8.06,6.77ZM120.68,386.08c.26.13.51.26.77.4,2.56-2.1,5.16-4.16,7.66-6.34.38-.33.28-1.19.41-1.81-.61-.12-1.39-.54-1.79-.31-1.78,1.07-3.71,2.1-5.09,3.6-1.04,1.13-1.33,2.94-1.96,4.45ZM414.03,435.11c2.77-2.37,5.33-4.48,7.78-6.72.43-.39.41-1.31.47-2,0-.07-.88-.38-1.3-.31-3.49.59-7.14,5.2-6.95,9.03ZM356.47,427.81c.07.38.14.76.2,1.15,2.01.13,4.02.36,6.03.32.51-.01,1.5-1.1,1.4-1.39-.47-1.31-1.17-2.55-1.97-3.69-.15-.22-1.26-.05-1.68.26-1.39,1.04-2.66,2.22-3.97,3.35ZM86.7,432.65c2.59-2.07,4.93-3.94,7.27-5.81.13-.11.34-.19.38-.32.19-.58.53-1.22.41-1.74-.06-.28-.98-.58-1.46-.51-3.24.42-6.78,4.82-6.6,8.39ZM384.27,374.93c2.52,1.59,6.71,1.81,7.19.41.82-2.38-1.1-3.5-2.62-4.73-1.55,1.46-2.97,2.81-4.57,4.32ZM242.36,478.67c2.62-2.08,5.17-4.06,7.64-6.13.34-.29.41-1.11.31-1.62-.05-.25-.8-.52-1.22-.51-3.29.07-7.17,4.72-6.73,8.26ZM463.35,373.04c2.27,1.66,6.45,1.94,7.11.46,1.07-2.38-.94-3.53-2.31-4.93-1.63,1.52-3.13,2.92-4.8,4.48ZM47.56,351.74c2.92-2.3,5.55-4.32,8.1-6.44.3-.25.4-1.22.16-1.48-.3-.34-1.06-.49-1.56-.41-3.02.52-6.44,4.51-6.7,8.33ZM290.68,409.33c2.18,1.38,4.26,1.57,6.38.82.54-.19,1.3-1.3,1.16-1.55-.61-1.12-1.38-2.26-2.37-3.02-.31-.24-1.59.59-2.29,1.11-.93.69-1.72,1.56-2.88,2.64ZM360.4,11.5c2.07-.53,3.13-1.96,3.12-3.93-.01-2.28-2.19-4.24-4.99-4.54.63,2.85,1.23,5.58,1.87,8.48ZM212.81,386.42c2.03,1.49,4.13,1.45,6.23.89.48-.13,1.21-1.15,1.08-1.42-.69-1.48-1.62-2.86-2.22-3.86-1.88,1.62-3.39,2.91-5.1,4.38ZM172.05,460.12c1.34.46,2.14,1.01,2.87.93,1.64-.18,3.25-.67,4.86-1.04-.74-1.23-1.45-2.46-2.23-3.67-.16-.24-.52-.36-.82-.55-1.46,1.35-2.84,2.63-4.69,4.33ZM332.29,454.22c-1.51,1.4-2.94,2.73-4.41,4.1,2.38,1.77,6.39,2.03,6.97.4.74-2.09-1.02-3.22-2.56-4.5ZM351.39,3.46c.81,2.39,1.48,4.49,2.23,6.56.2.55.65,1.01.98,1.52.52-.35,1.23-.59,1.51-1.08,1.06-1.8.63-3.52-.6-5.11-1.12-1.43-2.31-2.67-4.12-1.89ZM137.13,404.55c-1.7,1.34-3.27,2.57-4.88,3.83,2.05,1.54,6.12,1.91,6.78.63,1.21-2.35-.95-3.39-1.9-4.46ZM376.21,6.78c.33-.56.65-1.12.98-1.68-.7-.21-1.4-.59-2.11-.61-2.59-.07-5.18-.06-7.77.04-.36.01-.94.7-.96,1.09-.02.41.51,1.22.81,1.23,3.01.05,6.03-.03,9.04-.07ZM347.36,10.55c2.11-.4,2.57-1.85,2-3.71-.55-1.8-2.84-3.01-4.42-2.48-1.39.47-1.35,1.21-.51,2.25.97,1.19,1.84,2.47,2.92,3.95ZM59.19,373.57l.11,1.01c1.88,0,3.77.08,5.63-.07.33-.03.97-1.23.8-1.51-.6-1.05-1.4-2.02-2.32-2.8-.17-.14-1.27.72-1.86,1.2-.83.68-1.58,1.44-2.37,2.17ZM425.53,456.88c2.91,1.28,6.47,1.01,6.36-.2-.14-1.5-1.26-2.91-2.15-4.74-1.69,1.98-2.85,3.34-4.21,4.94ZM253.61,500.87c2.12,1.46,6.12,1.48,6.2.12.08-1.41-1.05-2.89-1.44-3.83-1.84,1.44-3.29,2.56-4.76,3.71ZM102.96,451c-2.03,1.48-3.5,2.54-5.1,3.71,2.58,1.5,6.18,1.58,6.28.41.12-1.4-.78-2.89-1.18-4.12ZM358.02,418.45l-1-.23c-.92,1.55-1.93,3.06-2.7,4.69-.15.32.63,1.08.98,1.63,1.23-.98,2.73-1.79,3.57-3.03.38-.57-.53-2.01-.85-3.05ZM463,363.19c-.85,2.51-1.5,4.42-2.11,6.34-.02.07.47.44.54.4,1.02-.64,2.19-1.18,2.96-2.06.55-.62.79-1.73.72-2.58-.04-.53-.94-.98-2.11-2.1ZM59.64,4.09c-1.92,0-3.84-.07-5.75.06-.4.03-.85.73-1.08,1.22-.09.19.3.74.6.96,1.92,1.35,4.97.7,6.23-2.23ZM213.59,376.86c-.42.02-.84.04-1.26.06-.81,1.85-1.62,3.7-2.53,5.78,3.01.53,4.09-1.16,4.77-2.75.32-.76-.61-2.04-.98-3.08ZM183.79,15.61c.1-.25.21-.49.31-.74-1.68-.94-3.31-2.01-5.08-2.74-.49-.2-1.46.51-2.06,1-.17.14.04,1.22.36,1.4,2.02,1.21,4.19,1.73,6.47,1.08ZM385.01,365.47c-.37.02-.74.04-1.12.06-.74,1.37-1.63,2.68-2.13,4.12-.17.49.61,1.32.96,1.99,1.09-.99,2.51-1.82,3.16-3.05.37-.7-.53-2.06-.86-3.13ZM290.81,399.58c-1.52,2.29-3.05,3.94-1.94,6.7,1.47-1.14,2.82-2.41,3.73-3.94.22-.37-1-1.6-1.78-2.76ZM324.69,455.33c2.85.03,4.05-1.29,4.65-2.95.22-.62-.67-1.64-1.05-2.48-.64.31-1.59.45-1.87.95-.68,1.25-1.06,2.67-1.73,4.48ZM169.29,456.05c2.51.31,4.55-.71,4.72-2.42.09-.97-.91-2.04-1.42-3.07-.29.07-.58.13-.86.2-.79,1.71-1.58,3.42-2.44,5.29ZM419.97,5.35c1.51,1.7,3.48,1.77,5.48,1.5.41-.06.9-.72,1.04-1.2.09-.33-.25-.95-.58-1.2-1.32-1.03-4.6-.54-5.94.91ZM129.11,405.1c3.14.15,4.27-1.5,4.9-3.25.22-.6-1-1.72-1.57-2.61-.3.04-.59.08-.89.12-.76,1.8-1.53,3.59-2.44,5.74ZM69.36,14.79c-1.83-2.37-3.46-3.02-5.36-2.46-.61.18-.99,1.15-1.48,1.76.56.39,1.1,1.11,1.67,1.12,1.51.04,3.02-.22,5.17-.43ZM330.38,5.27c-1.92-1.81-3.98-1.27-5.97-.72-.23.06-.49,1.36-.24,1.64,1.25,1.41,4.78.92,6.21-.92ZM250.19,496.97c2.62.98,3.74-.56,4.32-1.98.33-.79-.59-2.1-.95-3.17-.3.04-.61.09-.91.13-.8,1.63-1.6,3.27-2.46,5.02ZM429.06,14.54c.1.22.2.43.3.65h5.69c.1-.28.2-.57.29-.85-1.21-.71-2.38-1.86-3.63-1.96-.82-.07-1.76,1.39-2.65,2.16ZM55.59,370.49c2.91-.22,4.02-1.54,4.72-3.16.2-.47-.3-1.41-.73-1.92-.2-.24-1.32-.18-1.46.07-.84,1.43-1.52,2.95-2.53,5.01ZM425.09,446.96c-1.04,2.08-1.82,3.43-2.35,4.87-.1.28.77.92,1.2,1.39.94-1.02,2.14-1.92,2.71-3.11.25-.53-.78-1.67-1.56-3.15ZM339.88,15.39c.06-.47.13-.94.19-1.41-1.67-.4-3.32-.89-5.01-1.13-.4-.06-1.2.7-1.3,1.19-.07.36.66,1.25,1.08,1.28,1.66.15,3.35.06,5.03.06ZM173.61,5.17c-1.8-1.75-4.28-2.31-5.07-1.08-.29.45-.03,1.63.39,2.11,1.23,1.38,2.94.98,4.68-1.02ZM94.87,450.96c.42.29.85.58,1.27.87,1.04-1.16,2.26-2.21,3.02-3.53.28-.49-.53-1.6-.84-2.43-.34-.02-.69-.05-1.03-.07-.81,1.72-1.62,3.45-2.43,5.17ZM422.51,10.23c-1.66-.91-3.21-2.11-4.96-.49-.17.16.27,1.45.74,1.75,1.72,1.12,3.12.55,4.23-1.25ZM342.25,13.12c.26-1.16.76-2.07.53-2.72-.22-.62-1.19-1.3-1.86-1.33-.84-.04-1.72.56-3.16,1.09,1.85,1.22,2.95,1.94,4.49,2.96ZM257.61,13.96c.12.34.24.68.37,1.02h5.16c.09-.3.19-.61.28-.91-1.2-.51-2.37-1.27-3.62-1.44-.65-.09-1.45.85-2.18,1.33ZM222.33,15.14c.11-.28.21-.56.32-.84-.94-.59-1.89-1.65-2.83-1.65-.88,0-1.75,1.14-2.62,1.78.14.24.28.47.42.71h4.72ZM325.13,10.33c-1.61-1.3-3.2-2.02-5.02-.8-.16.11.08,1.3.45,1.62,1.73,1.48,3.18.79,4.57-.82ZM388.9,14.6c.1.21.2.42.31.63h4.82c.1-.26.19-.52.29-.78-.97-.63-1.93-1.71-2.91-1.74-.82-.02-1.67,1.21-2.5,1.89ZM182.26,9.67c-.04.32-.09.63-.13.95,1.34.29,2.68.58,4.02.88.1-.86.59-2.16.22-2.49-1.5-1.31-2.87-.36-4.11.66ZM433.82,9.46c1.77,1.74,2.81,3.11,4.39,1.76.43-.37.01-1.74-.02-2.66-1.25.26-2.5.51-4.37.9ZM50.52,8.8c-.22.34-.45.67-.67,1.01.65.69,1.24,1.88,1.95,1.95.99.1,2.07-.64,3.11-1.02-.04-.35-.08-.7-.11-1.05l-4.27-.89ZM143.75,6.83c-.83,1.25-1.84,2.15-1.67,2.63.3.82,1.33,1.38,2.05,2.05.4-.61,1.17-1.26,1.1-1.8-.1-.83-.79-1.6-1.49-2.88ZM252.78,3.32c-.82.75-1.41,1.28-2,1.82.79.6,1.55,1.61,2.37,1.66.61.04,1.29-1.18,1.94-1.84-.67-.48-1.33-.95-2.3-1.64ZM474.76,6.81c-.76,1.33-1.66,2.21-1.48,2.75.24.77,1.27,1.28,1.97,1.91.45-.6,1.33-1.26,1.25-1.77-.13-.83-.89-1.56-1.74-2.88ZM168.57,9.48c-1.47-.85-2.52-2.34-4.11-.83-.29.28-.12,1.59.26,1.92,1.37,1.18,2.59.68,3.85-1.09ZM251.89,10.09c-1.43-.82-2.17-1.59-2.86-1.54-.8.06-1.54.84-2.3,1.31.74.55,1.42,1.4,2.23,1.55.65.12,1.46-.62,2.92-1.33ZM226.91,9.81c-.8-.9-1.36-1.52-1.92-2.15-.69.66-1.38,1.32-2.07,1.98.69.63,1.29,1.44,2.1,1.79.28.12,1.05-.88,1.89-1.62ZM461.56,10.01c-.99-.84-1.8-1.87-2.1-1.73-.81.36-1.54,1.13-1.98,1.92-.12.22,1,1.6,1.33,1.52.85-.2,1.57-.92,2.75-1.71ZM67.78,8.7c-.03.51-.06,1.01-.09,1.52,1.33.26,2.66.52,4,.79-.07-.85-.06-2.43-.21-2.45-1.22-.12-2.46.06-3.69.14ZM381.76,10.59c-1.27-.75-1.98-1.52-2.65-1.48-.69.04-1.34.85-2.01,1.32.69.61,1.29,1.55,2.08,1.74.55.13,1.34-.77,2.58-1.57ZM385.66,5.85c0-.26,0-.53,0-.79-.64-.36-1.34-1.08-1.91-.99-.83.13-1.56.85-2.33,1.32.58.5,1.14,1.38,1.73,1.4.82.03,1.66-.59,2.49-.94ZM286.56,12.79c.89-1.15,1.71-1.8,1.88-2.59.09-.43-.9-1.1-1.41-1.66-.68.62-1.57,1.14-1.95,1.91-.17.34.72,1.19,1.47,2.35ZM141.63,15.57c.15-.51.29-1.03.44-1.54-1.05-.41-2.08-.96-3.17-1.12-.25-.04-.69,1.3-1.05,2,1.26.22,2.52.44,3.78.66ZM130.39,10.3c-1.05-.8-1.91-1.74-2.17-1.6-.75.4-1.26,1.26-1.86,1.93.58.47,1.19,1.35,1.74,1.31.66-.04,1.26-.86,2.29-1.65ZM263.02,9.37c.03.48.06.96.09,1.43,1.2.08,2.41.16,3.61.24-.09-.85-.19-1.69-.28-2.54-1.14.29-2.28.57-3.42.86ZM214.83,3.97c-1.87.29-3.17.5-4.46.7.33.65.5,1.62,1.02,1.88,1.72.87,2.46-.33,3.44-2.58ZM396.28,11.96c.39-.2.77-.41,1.16-.61-.29-1.12-.58-2.24-.88-3.36-.8.45-1.6.9-2.4,1.35.7.87,1.41,1.74,2.11,2.62ZM472.35,15.03c.17-.27.35-.55.52-.82-.82-.56-1.63-1.56-2.45-1.57-.72,0-1.46,1.09-2.19,1.7.15.23.3.46.45.69h3.66ZM106.33,15.05c.15-.35.29-.69.44-1.04-1.07-.49-2.11-1.21-3.23-1.35-.44-.06-1.04,1.18-2.03,2.39h4.82ZM304.82,9.68c-.89-.75-1.6-1.75-2.03-1.63-.71.19-1.24,1.08-1.85,1.67.64.57,1.22,1.41,1.96,1.61.39.11,1.08-.89,1.92-1.65ZM109.2,11.78c.74-.88,1.58-1.55,1.47-1.83-.3-.74-1.01-1.31-1.56-1.95-.58.5-1.67,1.05-1.63,1.49.07.68.91,1.28,1.72,2.29ZM208.19,7.73c-.74.98-1.66,1.71-1.54,2.16.18.65,1.08,1.46,1.73,1.53.53.05,1.69-1.01,1.61-1.4-.14-.72-.97-1.3-1.8-2.28ZM300.22,15.08c.14-.27.29-.54.43-.8-.87-.57-1.73-1.56-2.61-1.58-.7,0-1.42,1.17-2.14,1.82.12.19.25.37.37.56h3.94ZM92.87,7.77c-.78,1.23-1.56,1.92-1.56,2.62,0,.52.98,1.05,1.53,1.58.48-.59,1.26-1.14,1.35-1.78.07-.57-.63-1.24-1.31-2.42ZM130.98,8.03c1.26-1.57,1.87-2.18,2.24-2.91.07-.14-.97-1.17-1.19-1.08-.82.34-1.72.87-2.17,1.58-.21.33.56,1.26,1.12,2.41ZM461.13,4.34c-.04.55-.08,1.1-.11,1.65.96.1,1.94.35,2.86.21.26-.04.35-1.21.52-1.86h-3.27ZM97.1,3.33c-.82.87-1.37,1.45-1.92,2.04.5.36,1.12,1.12,1.48,1.01.7-.22,1.26-.91,1.87-1.41-.37-.43-.75-.86-1.43-1.64ZM293,5.04c-1.17-.54-1.83-1.11-2.22-.96-.74.27-1.33.96-1.98,1.47.58.31,1.18.91,1.74.87.65-.05,1.26-.66,2.47-1.37Z" style="fill: #7a9a92;"/>
</svg>