<?xml version="1.0" encoding="UTF-8"?>
<svg id="Ebene_1" xmlns="http://www.w3.org/2000/svg" viewBox="0 0 335.08 225.85">
  <path d="M178.41,111.08c4.05-.07,8.11-.1,12.16-.23,1.26-.04,1.65.42,1.61,1.62-.06,2.09-.02,4.19-.02,6.44.59.03,1.08.09,1.57.09,3.26,0,6.53.05,9.79-.06,1.39-.04,1.8.44,1.75,1.77-.08,2.23-.02,4.47-.02,6.81.44.04.79.09,1.14.09,5.36-.05,10.72-.08,16.08-.17,1.27-.02,1.74.45,1.73,1.72-.03,4.1.02,8.21.04,12.31,0,.59,0,1.19,0,1.91.68,0,1.18,0,1.68,0,6.58,0,13.15,0,19.73.02,1.69,0,1.85.17,1.85,1.83,0,2.93,0,5.85,0,8.68,3.58,0,6.97,0,10.35,0,1.71,0,1.83.08,1.85,1.8.03,1.9,0,3.8,0,5.77,4.67,0,9.22,0,13.78,0,1.77,0,1.89.11,1.95,1.9.16,4.48.28,8.95.43,13.43.07,1.98.08,1.98,2,2,2.29.02,4.57.08,6.85.04,1.17-.02,1.68.37,1.67,1.61-.03,5.18.03,10.36-.01,15.53,0,.51-.47,1.39-.82,1.44-.95.15-1.02-.72-1.02-1.44,0-3.59,0-7.18,0-10.78,0-.74,0-1.48,0-2.4-.43.21-.72.31-.97.47-10.85,7.26-21.82,14.34-32.48,21.86-6.62,4.67-12.76,10.02-19.11,15.06-1.44,1.14-2.88,2.28-4.6,3.64h28.72c-.18-1.66-.38-3.26-.53-4.86-.09-.97-.2-1.96-.12-2.93.06-.63.45-1.23.7-1.84.61.33,1.46.51,1.79,1.02,1.4,2.14,2.73,4.33,3.92,6.59,1.18,2.23,1.09,2.28,3.89,2.03.02-.46.06-.95.07-1.44.02-4.49-.5-8.89-1.63-13.27-.63-2.44-.56-5.06-.68-7.61-.03-.54.46-1.1.71-1.66.51.34,1.15.59,1.51,1.05,1.87,2.4,2.86,5.2,3.62,8.11.11.44.23.88.61,1.31,0-.65-.03-1.31,0-1.96.17-3.35.31-6.7.56-10.04.06-.76.36-1.55.75-2.22.79-1.37,1.94-1.4,2.43.06.63,1.87.91,3.87,1.18,5.83.16,1.17.03,2.37.36,3.62.36-.78.72-1.56,1.09-2.33.96-1.98,2.33-3.61,4.21-4.74.41-.24,1.19-.38,1.48-.15.3.23.37,1.01.25,1.47-.57,2.14-1.23,4.26-1.9,6.5,1.34-1.23,2.55-2.35,3.75-3.47.31-.28.55-.71.91-.84.4-.15.9-.03,1.36-.03-.01.42.15,1.01-.06,1.23-1.91,1.97-3.9,3.87-5.85,5.8-.28.28-.74.59-.74.88-.05,4.61-.03,9.21-.03,13.84,1.11.55,1.21-.34,1.35-1.05.72-3.41,2.3-6.38,4.5-9.04.27-.32.5-.72.85-.92.48-.28,1.06-.41,1.59-.61.18.54.57,1.1.5,1.61-.41,3.04-.93,6.07-1.41,9.11-.04.27-.06.55-.11.93h19.04c-1.22-2.03-2.12-4.13-3.53-5.78-2.83-3.32-5.96-6.39-8.93-9.61-.43-.46-.64-1.12-.95-1.69.66-.18,1.34-.59,1.97-.5,4.67.61,8.72,2.31,11.02,6.88l.3-.19c-.11-.5-.18-1.02-.35-1.5-1.06-2.93-2.02-5.9-3.24-8.76-1.21-2.85-1.91-5.74-1.56-8.83.06-.54.45-1.05.68-1.57.47.26,1.02.43,1.4.78,1.83,1.7,3.29,3.67,4.11,6.07,1.35,3.9,2.73,7.8,4.09,11.68.01-.04.08-.19.08-.33,0-4.94-.12-9.88.05-14.82.08-2.24.67-4.48,1.17-6.69.11-.49.85-.83,1.3-1.24.38.42.99.78,1.1,1.26.71,3.31,1.61,6.61,1.89,9.97.32,3.84.08,7.73.08,11.59.13.02.26.03.39.05.16-.61.3-1.24.5-1.84,1.16-3.44,2.16-6.95,3.59-10.28.88-2.05,2.42-3.82,3.74-5.66.27-.38.92-.49,1.39-.73.21.5.55.98.61,1.49.38,3.22-.23,6.27-1.49,9.26-1.28,3.03-2.32,6.16-3.46,9.24.15.08.3.17.45.25.28-.36.59-.7.85-1.07,2.53-3.66,6.44-4.5,10.45-5.13.34-.05,1,.31,1.08.61.11.37-.09,1-.38,1.29-1.49,1.47-3.1,2.83-4.59,4.31-3.03,3.01-5.55,6.41-7.5,10.22-.19.36-.34.74-.61,1.32h13.26v1.85c-.45.03-.86.07-1.27.07-103.86,0-207.72,0-311.58,0-6.76,0-13.52,0-20.29,0-.37,0-.79.08-1.1-.07-.33-.16-.79-.58-.75-.81.05-.36.43-.77.78-.96.29-.16.73-.06,1.1-.06,66.46,0,132.91,0,199.37,0,.69,0,1.39,0,1.92,0v-21.7c-.9-.19-1.63-.35-2.37-.5,0-.18-.02-.37-.03-.55.83-.14,1.65-.28,2.48-.41-.05-.06-.11-.12-.16-.18.96-.66,1.86-1.42,2.88-1.97,16.74-9.11,33.49-18.2,50.25-27.29,4.55-2.46,9.12-4.89,13.67-7.33.15-.08.28-.21.4-.62-1.17,0-2.35.11-3.51-.02-4.57-.5-8.53.86-12.56,3.06-18.9,10.32-37.92,20.4-56.93,30.51-.98.52-2.23.73-3.35.73-15.53.05-31.06.03-46.59.03-48.13,0-96.26-.02-144.39-.03-.51,0-1.06.06-1.52-.1-.31-.1-.71-.53-.71-.82,0-.3.38-.75.68-.85.51-.17,1.1-.14,1.66-.14,43.09,0,86.18,0,129.28,0,20.38,0,40.76-.02,61.14-.03.51,0,1.02,0,1.66,0v-16.39c-.6,0-1.19,0-1.78,0-63.47,0-126.95.01-190.42,0-.8,0-2.1.44-2.14-.86-.05-1.44,1.31-1,2.15-1,29.89-.02,59.79-.01,89.68-.01.5,0,1,0,1.49,0,.23-5.44-2.21-11.94-8.75-12.95-.45-.07-.87-.4-1.3-.61.31-.44.53-1.01.95-1.28,3.12-2.01,6.53-2.89,10.25-2.37.18.02.36.05.96.14-.57-.64-.85-1.09-1.26-1.38-1.85-1.33-3.74-2.61-5.59-3.94-.47-.34-1.02-.73-1.23-1.23-.6-1.4,0-2.07,1.53-2.05,5.38.05,9.46,2.38,12.58,6.86,0-1.78.1-3.57-.02-5.34-.17-2.43.79-4.46,2.01-6.41.78-1.23,1.56-1.2,2.33.06,1.3,2.13,2.3,4.35,2.05,6.97-.15,1.55-.03,3.13-.03,5.1.47-.67.73-1.07,1.02-1.45,2.99-4.01,7.08-5.76,11.98-5.77.38,0,1.01.44,1.08.76.18.92.1,1.81-.88,2.43-1.97,1.24-3.88,2.57-5.79,3.89-.47.33-.85.79-1.23,1.32,3.17-.48,6.16,0,9,1.28.97.44,1.89,1.01,2.74,1.65.68.5.54,1.03-.3,1.28-.13.04-.27.06-.41.07-6.5.71-9.35,6.75-9.19,12.9h21.83c-.47-1.8-.79-3.53-1.38-5.15-1.74-4.76-4.88-8.54-8.64-11.85-.73-.65-2.34-1.11-1.64-2.36.69-1.23,1.94-.08,2.88.15,3.05.76,5.94,1.94,8.45,3.88,1.02.79,1.94,1.72,3.15,2.8-.17-.67-.27-1.12-.41-1.56-1.57-4.9-4.62-8.77-8.38-12.18-.59-.53-1.82-.94-1.18-2.05.6-1.04,1.62-.38,2.4-.11,2.11.72,4.22,1.47,6.26,2.36,2.93,1.27,4.87,3.52,5.95,6.53.15.41.34.81.5,1.21.12-.01.23-.03.35-.04,0-.94,0-1.89,0-2.83,0-.61.03-1.21,0-1.82-.17-4.18-.18-8.32,2.82-12.15-.93-.05-1.41-.09-1.89-.09-48.22,0-96.44,0-144.67,0-.23,0-.52.09-.69-.02-.46-.27-.86-.63-1.29-.95.41-.3.79-.67,1.25-.89.26-.13.64-.03.97-.03,51.53,0,103.07,0,154.6,0,.74,0,1.48,0,2.32,0v-13.24c-.8,0-1.53,0-2.26,0-51.81,0-103.63-.01-155.44-.02-.28,0-.62.1-.83-.03-.35-.21-.87-.56-.86-.84,0-.32.45-.75.81-.91.35-.16.82-.07,1.24-.07,47.34,0,94.67.01,142.01.02.46,0,.92,0,1.33,0v-12.47c-.86,0-1.45,0-2.05,0-46.54,0-93.09,0-139.63,0-.47,0-.98.11-1.39-.04-.4-.15-.7-.58-1.04-.89.33-.31.63-.69,1.02-.91.25-.14.64-.03.97-.03,46.5,0,92.99,0,139.49-.01,2.88,0,5.76,0,8.75,0v-7.47c-.48-.03-.97-.08-1.46-.08-49.48,0-98.96.01-148.44.02-.37,0-.79.07-1.1-.07-.33-.15-.75-.52-.76-.8-.01-.29.37-.72.68-.87.35-.17.82-.13,1.24-.13,44.3,0,88.61.01,132.91.02.78,0,1.56,0,2.58,0-1.44-2.17-1.21-4.21-.16-6.22.96-1.83,1.7-1.89,2.92-.28,1.22,1.63,2.13,3.38,2.2,5.49.01.32.35.64.54.96.17-.32.47-.64.49-.97.38-6.15-1.42-11.57-5.43-16.27-.32-.37-.39-.96-.57-1.45.51-.15,1.02-.47,1.52-.43,2.14.15,4.06.93,5.26,2.76,1.57,2.38,2.95,4.89,4.29,7.14.32-1.35.73-3.12,1.16-4.97-.54-.36-1.13-.71-1.68-1.13-2.11-1.6-2.94-5.08-1.17-6.32,1.73-1.2,2.06-2.87,2.86-4.45.39-.77,1.17-1.33,1.77-1.99.54.65,1.11,1.29,1.62,1.97.22.29.37.67.43,1.02.28,1.6.85,2.9,2.08,4.16,1.72,1.75.43,5.53-2.01,6.74-.37.18-.76.31-1.19.49.35,1.62.7,3.19,1.13,5.16.33-.83.55-1.38.76-1.94,1.12-2.96,2.72-5.59,5.7-6.94,1.08-.49,2.42-.45,3.65-.51.27-.01.78.57.81.91.15,1.67.24,3.35.19,5.02,0,.38-.63.75-.96,1.12-.29-.4-.77-.78-.83-1.22-.12-.99-.04-2.01-.24-3.06-1.06,1.78-2.21,3.47-2.31,5.63-.05,1.17.41,2.59-1.22,3.2-.15.06-.19.5-.22.77-.18,1.48-.36,2.96-.48,4.45-.03.41.13.84.52,1.22.47-1.42.86-2.87,1.45-4.24.4-.92,1.02-1.78,1.66-2.56.91-1.1,1.74-1.02,2.37.25,1.03,2.07,1.64,4.19-.17,6.43,2.7,0,5.18,0,7.67,0,1.73,0,3.45.02,5.18-.05,1.12-.04,1.64.37,1.63,1.52-.02,2.24.07,4.48,0,6.72-.02.51-.49,1-.75,1.5-10.12.52-20.24,1.04-30.5,1.56.09,1.45.17,2.71.25,4.07,10.35-1.33,20.47-2.63,30.4-3.91-.07-.71-.13-1.23-.18-1.75ZM205.13,220.98c.49-.24.82-.37,1.12-.56,12.21-7.54,24.4-15.12,36.64-22.62,9.74-5.96,19.52-11.85,29.33-17.68,1.26-.75,1.82-1.56,1.77-2.97-.14-3.82-.23-7.64-.36-11.47,0-.29-.14-.57-.26-1.04-2.51,1.21-4.92,2.26-7.22,3.5-20.08,10.86-40.14,21.76-60.22,32.61-.75.41-.93.86-.92,1.64.04,5.64.03,11.29.05,16.93,0,.49.04.98.07,1.65ZM241.87,145.53l-.09-.27c-3.96,0-7.93.2-11.88-.05-4.41-.28-8.59.66-12.72,1.89-10.45,3.09-20.87,6.28-31.29,9.43-1.74.53-3.47,1.07-5.19,1.64-.76.25-1.52.31-1.66-.58-.06-.36.68-.86,1.08-1.26.12-.12.35-.11.53-.17,6.15-1.87,12.29-3.72,18.44-5.61,7.34-2.25,14.67-4.54,22.01-6.78.96-.29,1.3-.78,1.28-1.8-.06-3.5-.02-6.99-.03-10.49,0-.3-.08-.6-.14-.99-.73.18-1.36.31-1.98.49-13.7,3.89-27.4,7.8-41.12,11.65-.96.27-.97.76-.97,1.49.01,5.04,0,10.07,0,15.11,0,.46,0,.92,0,1.58.77,0,1.41,0,2.05,0,3.92,0,7.83.04,11.75-.01,1.1-.01,2.24-.14,3.29-.47,14.52-4.55,29.03-9.15,43.54-13.74,1.04-.33,2.07-.71,3.11-1.06ZM176.22,142.67c-8.39-.19-16.61-.38-25.33-.59,3.42,5.52,2.34,11.28,2.62,16.94.16-.07.24-.19.28-.31,2.28-6.95,8.42-8.37,14.38-10.03.32-.09.97.21,1.12.51.13.27-.15.82-.37,1.16-.19.3-.56.48-.85.72-3.89,3.23-7.15,6.94-8.86,11.82-.15.44-.28.89-.53,1.69.47-.38.62-.49.75-.61,3.56-3.51,8.1-5.01,12.75-6.28.31-.08.94.15,1.03.38.12.33,0,.9-.25,1.18-.45.52-1.06.91-1.59,1.36-4.24,3.58-7.63,7.78-9.36,13.15-.37,1.16-.55,2.38-.83,3.64h31.2v-14.78c-.63,0-1.17,0-1.72,0-3.82,0-7.65,0-11.47,0-1.82,0-3.64.06-5.45-.03-.4-.02-.78-.57-1.16-.88.35-.3.67-.77,1.07-.85.8-.17,1.65-.13,2.56-.18v-18.01ZM245.64,146.34c-.5.12-.82.18-1.12.27-16.42,5.23-32.83,10.47-49.25,15.67-.79.25-.98.63-.97,1.39.04,4.29.03,8.58.04,12.87,0,.27.06.54.1.9,1.39,0,3-.31,2.7,2.01,19.12-7.84,38.05-15.61,56.98-23.38-.03-.15-.06-.3-.09-.45-1.89.1-3.84-.05-5.66.37-2.56.6-5.05,1.56-7.52,2.47-10.61,3.93-21.2,7.9-31.8,11.86-.3.11-.65.33-.92.27-.4-.09-.89-.32-1.06-.64-.12-.22.14-.82.4-1.03.43-.33,1-.48,1.52-.68,11.84-4.48,23.68-8.95,35.52-13.45.44-.17,1.08-.64,1.09-.98.09-2.45.05-4.91.05-7.48ZM204.42,223.79c.48.09.65.14.81.14,6.06,0,12.13,0,18.19-.04.46,0,.98-.25,1.36-.53,2.23-1.68,4.45-3.39,6.64-5.13,6.14-4.86,12.06-10.05,18.46-14.53,10.95-7.68,22.2-14.92,33.34-22.34.21-.14.49-.17.73-.26-.11-.18-.22-.37-.33-.55-2.09,0-4.19.09-6.27-.03-1.47-.08-2.71.27-3.96,1.02-13.13,8-26.31,15.94-39.43,23.97-9.78,5.98-19.5,12.06-29.54,18.28ZM257.88,156.71c-.43.14-.65.2-.86.28-19.65,8.06-39.31,16.12-58.97,24.15-.78.32-.9.77-.9,1.48.02,3.68,0,7.37.01,11.05,0,.3.06.6.11,1.08.77-.38,1.39-.67,1.99-1,12.15-6.52,24.29-13.06,36.45-19.57,6.94-3.72,13.91-7.38,20.84-11.12.54-.29,1.2-.9,1.26-1.41.17-1.56.06-3.16.06-4.96ZM203.39,121.33c-.72.07-1.24.09-1.73.18-12.83,2.31-25.66,4.62-38.49,6.97-.36.07-.93.47-.93.74-.07,2.31-.04,4.61-.04,6.99.71-.09,1.22-.13,1.72-.23,9.6-1.85,19.2-3.66,28.79-5.59,3.27-.66,6.49-1.59,9.7-2.47.4-.11.92-.68.94-1.07.1-1.76.04-3.53.04-5.52ZM190.34,113.14c-14.15,1.87-28.03,3.71-41.92,5.55v4.72c.68,0,1.19.06,1.69,0,6.79-.86,13.58-1.7,20.36-2.63,5.53-.76,11.05-1.62,16.58-2.43.72-.11,1.57-.16,1.57.79,0,.36-.79.97-1.29,1.05-6.53,1.02-13.07,2.02-19.62,2.91-5.81.79-11.64,1.44-17.09,2.11,2.85,0,6.06-.01,9.27.01.54,0,1.43.03,1.55.31.69,1.57,1.85,1,2.93.8,6.91-1.24,13.83-2.5,20.74-3.75,2.65-.48,5.3-.97,7.94-1.45q-2.73-.42-2.73-3.29c0-1.48,0-2.96,0-4.7ZM162.34,140.48c4.59.11,9.1.24,13.62.32,1.14.02,2.34.09,3.42-.21,10.22-2.84,20.41-5.76,30.62-8.66,2.65-.75,5.3-1.48,7.95-2.21-.24-.29-.45-.35-.66-.35-5.33.06-10.61,0-15.94,1.17-12.36,2.71-24.84,4.89-37.27,7.29q-1.99.38-1.74,2.65ZM177.29,103.47h-22.88v6.96c7.68-.38,15.24-.76,22.88-1.14v-5.82ZM151.43,177.44c.05-.36.11-.54.11-.72.01-9.04.07-18.09-.02-27.13-.02-1.51-.69-3-1.06-4.51-1.33,1.64-1.82,3.35-1.81,5.26.02,8.67,0,17.34,0,26.01,0,.35.08.7.13,1.09h2.66ZM146.82,177.43c0-2.74.03-5.34,0-7.94-.07-4.66-1.4-9-3.66-13.02-1.45-2.58-4.03-3.66-6.76-4.41.18.41.44.73.72,1.03,2.36,2.57,4.11,5.51,5.25,8.81,1.04,2.99,1.36,6.07,1.31,9.21-.03,2.08,0,4.16,0,6.32h3.15ZM163.94,152.29c-.21-.1-.29-.18-.36-.17-.23.04-.45.11-.67.19-3.56,1.2-6.08,3.43-7.4,7.04-1.49,4.06-2.51,8.17-2.2,12.54.13,1.83.02,3.68.02,5.51h2.84c-.82-9.47.43-18.26,7.78-25.11ZM106.67,177.44c.05-.35.1-.53.1-.71,0-8.15.05-16.31-.03-24.46-.01-1.15-.68-2.29-1.04-3.44-.22,0-.43.02-.65.02-.32,1.32-.9,2.63-.91,3.95-.05,7.73.04,15.47.08,23.2,0,.45.05.9.08,1.43h2.37ZM313.94,191.36c-.17.02-.33.03-.5.05-.06.22-.15.43-.16.65-.09,2.45-.22,4.9-.24,7.35-.05,7.6-.06,15.19-.08,22.79,0,.54,0,1.09,0,1.71h2.09c0-.62,0-1.17,0-1.71-.02-7.64.04-15.29-.12-22.93-.05-2.64-.65-5.28-.99-7.91ZM302.75,195.57c-.12.06-.23.12-.35.18.02.44-.03.9.09,1.31.54,1.87,1.1,3.73,1.69,5.59,1.16,3.62,2.55,7.19,3.46,10.87.84,3.36,1.18,6.85,1.75,10.38h1.82c0-.42.01-.74,0-1.06-.47-8.82-3.2-17.04-6.74-25.03-.37-.83-1.14-1.49-1.72-2.23ZM318.66,223.92c.07-.42.13-.77.19-1.13.53-3.3.84-6.66,1.66-9.89.95-3.77,2.3-7.44,3.57-11.13.7-2.05,1.35-4.07,1.22-6.41-3.72,3.2-9.6,24.02-8.19,28.57h1.56ZM89.79,162.75c6.04,1.18,8.8,3.82,9.6,9.42.25,1.73.19,3.5.27,5.26h2.67c0-2.03-.05-3.98.01-5.92.09-2.86-1.12-5.15-3.06-7.07-2.58-2.55-6.64-3.22-9.49-1.69ZM111.36,177.46c-.22-3.45-.13-6.72,1.56-9.74,1.77-3.17,4.51-4.73,8.28-4.9-4.43-2.21-9.92.14-11.93,4.86-1.37,3.2-.32,6.48-.67,9.78h2.76ZM273,197.73c-.17.01-.34.03-.51.04-.86,1.9-1.26,23.09-.49,26.07h2.38c-.47-8.8-.92-17.46-1.38-26.12ZM132.14,161.36c.3.32.61.64.91.96,3.64,3.96,6.23,8.47,6.92,13.87.17,1.36.66,1.52,1.87,1.15,0-1.65-.12-3.29.03-4.89.28-2.96-1.03-5.22-2.95-7.23-1.85-1.93-4.07-3.28-6.77-3.86ZM159.41,177.38c.71-6.39,3.99-11.43,8.39-16.14-.43.06-.6.05-.75.11-3.05,1.19-5.67,2.96-7.64,5.63-1.02,1.38-1.62,2.87-1.52,4.66.09,1.53.03,3.07-.06,4.6-.07,1.16.33,1.56,1.59,1.14ZM279.89,201.67c-2.21,2.07-3.56,4.69-3.77,7.57-.35,4.72-.24,9.48-.31,14.22,0,.12.09.25.16.42.27.03.54.08.81.08.31,0,.62-.04,1.03-.08,0-7.51-.64-15,2.07-22.22ZM269.94,223.88c.9-4.1-2.49-18.51-5.03-20.42,1.12,6.95,3.24,13.48,2.61,20.42h2.42ZM154.73,101.3c2.14.52,2.28.42,2.44-1.62.37-4.53,1.22-8.92,3.49-12.94.1-.18.11-.41.18-.69-3.64,1.52-6.43,9.53-6.11,15.24ZM141.51,84.61c1.17,2.62,2.7,5.19,3.46,7.98.77,2.81.78,5.83,1.14,8.89.66-.04,1.32-.07,1.97-.11.35-6.78-3.33-15.84-6.57-16.76ZM296.33,208.62c4.7,4.06,8.4,8.69,11.01,14.6.65-6.35-5.75-14.68-11.01-14.6ZM320.71,222.14c2.52-5.22,6.1-9.48,10.37-13.44-5.44.58-11.14,8.05-10.37,13.44ZM90.76,153.81c.6.35.99.55,1.36.79,2.16,1.39,4.62,2.66,5.62,5.07.96,2.31,3.25,3.19,4.33,5.23.14-5.39-5.5-10.97-11.3-11.08ZM96.15,177.4c.85.15,1.58.33,1.64-.77.14-2.72,0-5.42-1.34-7.87-1.11-2.01-2.66-3.49-5.43-3.92,3.74,3.57,4.84,7.87,5.14,12.56ZM119.89,164.8c-2.95.5-4.53,2.1-5.63,4.26-1.19,2.32-1.27,4.81-1.13,7.35.06,1.17.58,1.3,1.54.91.33-4.64,1.46-8.93,5.23-12.53ZM119.8,153.96c-4.93-.42-11.7,6.13-10.98,10.47,1.06-.92,2.18-1.87,3.27-2.84.16-.14.22-.4.35-.58.91-1.26,1.67-2.69,2.78-3.73,1.36-1.27,3.03-2.22,4.58-3.32ZM151.87,89.68c-.28,0-.57.02-.85.03-.41,3.83-.83,7.67-1.25,11.62h3.27c-.4-3.97-.78-7.81-1.16-11.65ZM149.1,80.48c-1.23,1.19-1.1,2.66.22,3.95,1.71,1.68,3.5,1.87,4.77.52,1.15-1.23,1.2-2.9.06-3.91-.44.6-.84,1.22-1.32,1.77-1,1.14-1.87,1.05-2.65-.24-.38-.63-.68-1.31-1.08-2.08ZM286.51,216.08c-.14-.04-.28-.08-.42-.12-1.62,2.4-2.97,4.91-3.45,7.89h2.59c.44-2.67.86-5.22,1.28-7.78ZM257.7,217.63c-.17.05-.33.1-.5.15.23,2.01.47,4.01.71,6.07h3.07c-1.16-2.2-2.22-4.21-3.28-6.23ZM139.41,96.08c-.78,1.27-1.05,2.4-.43,3.56.44.83,1,1.63,2.22,1.63.12-1.98-.56-3.57-1.79-5.19ZM161.21,101.39c1.82-.12,2.3-1.11,2.73-2.05.47-1.04.2-2.02-.74-3.27-.7,1.86-1.28,3.41-2,5.32ZM151.54,81.37c1.48-1.86,1.55-3.54.31-5.4-1.03,1.72-1.26,3.42-.31,5.4Z" style="fill: #f80;"/>
  <path d="M83.2,58.17c0-2.56,0-4.98,0-7.39q0-1.81-1.84-1.8c-26.44,0-52.88,0-79.32,0-.37,0-.79.07-1.1-.07-.32-.15-.74-.52-.75-.81-.01-.3.35-.76.66-.89.4-.17.91-.11,1.38-.11,26.91-.01,53.81-.02,80.72-.02,1.99,0,2.05.05,2.06,2.04.01,2.24.04,4.48.02,6.72,0,.76-.13,1.53-.19,2.28,5.83,0,11.7.01,17.57,0,1.84,0,2.02.11,2.05,1.93.02,1.11,0,2.22,0,3.31,1.32-1.2,2.62-2.29,3.8-3.49,2.55-2.6,2.52-2.63,5.42-.4.81.62,1.67,1.21,2.4,1.92.76.74,1.32.65,2.14.05,4.97-3.63,9.98-7.2,14.98-10.79,1.5-1.08,1.59-1.09,2.86.32,2.62,2.91,5.22,5.84,7.83,8.76.4.45.81.89,1.26,1.4,1.11-.81,2.13-1.53,3.12-2.28.87-.67,1.56-.67,2.41.18,5.73,5.75,11.53,11.42,17.24,17.18.77.78,1.48.96,2.46.74,1.77-.4,3.54-.82,5.34-1.07.64-.09,1.51.08,2,.47,4.54,3.65,9.03,7.37,13.49,11.12.34.29.33,1,.48,1.51-.57-.06-1.3.09-1.68-.21-4.21-3.39-8.39-6.83-12.52-10.32-.8-.68-1.53-.89-2.52-.64-1.63.41-3.29.68-4.91,1.1-1.16.3-1.99.04-2.85-.84-5.55-5.6-11.15-11.14-16.74-16.7-.33-.33-.68-.62-1.12-1.01-.96.68-1.9,1.35-2.84,2.02-1.64,1.18-1.77,1.15-3.08-.33-2.61-2.98-5.25-5.94-7.87-8.92-.34-.38-.66-.77-1-1.18-2.96,2.14-5.74,4.16-8.53,6.17-2.53,1.83-5.1,3.61-7.59,5.5-.96.73-1.69.68-2.58-.07-1.53-1.29-3.12-2.51-4.91-3.94-2.38,2.66-4.72,5.27-7.06,7.88.06.13.13.26.19.4.47.03.95.09,1.42.09,2.38,0,4.76,0,7.13-.05,1.06-.02,1.54.42,1.52,1.49-.03,2.29.02,4.57-.08,6.85-.02.45-.47,1.2-.83,1.27-.97.18-.91-.7-.93-1.33-.03-1.54-.09-3.08.03-4.62.1-1.34-.32-1.74-1.69-1.74-12.03.05-24.06.02-36.09.02-24.25,0-48.5.02-72.75.02-.77,0-1.82.2-1.83-.93,0-1.14,1.07-.94,1.83-.94,20.52,0,41.04,0,61.55,0,12.31,0,24.62,0,36.93-.01.73,0,1.47-.06,2.26-.1v-7.81c-.51-.04-1-.11-1.49-.11-32.97-.01-65.94-.02-98.91-.05-.79,0-2.09.42-2.06-.93.03-1.21,1.27-.82,2.03-.82,26.77,0,53.53,0,80.3.02.32,0,.64,0,.76,0Z" style="fill: #f80;"/>
  <path d="M272.73,11.56c1.58.25,3.04.49,4.66.75,1.06-2.84,2.12-5.7,3.19-8.57.23-.61.38-1.28.75-1.8.23-.33.78-.43,1.19-.63.17.43.56.93.46,1.27-.4,1.33-.96,2.62-1.45,3.93-.81,2.12-1.61,4.25-2.41,6.35,1.57.88,3.02,1.7,4.62,2.6.52-.58,1.12-1.22,1.69-1.87,1.84-2.1,3.67-4.22,5.52-6.32.46-.52,1.07-1.19,1.7-.42.22.27-.01,1.22-.34,1.61-2.31,2.74-4.71,5.41-7.06,8.1,1.41,1.7,2.77,3.33,4.21,5.06,2.47-1.79,4.99-3.62,7.51-5.44.45-.33.88-.78,1.38-.92.47-.13,1.03.09,1.55.16-.18.46-.22,1.09-.56,1.35-2.42,1.82-4.9,3.56-7.37,5.32-.04.03-.08.06-.12.08-1.42.65-1.88,1.55-1,3.03.44.74.59,1.65.93,2.65,1.37-.36,2.71-.7,4.04-1.06,2.29-.63,4.57-1.27,6.86-1.9.62-.17,1.35-.49,1.62.44.28.97-.49,1.19-1.18,1.37-3.28.89-6.56,1.79-9.85,2.62-.94.24-1.25.61-1.14,1.63.15,1.52.04,3.06.04,4.78,2.5.67,5.1,1.36,7.69,2.05,1.03.28,2.1.46,3.09.86.5.2,1.23.82,1.19,1.17-.1.94-.94.82-1.66.63-3.15-.84-6.3-1.65-9.43-2.56-1.06-.31-1.46-.07-1.75,1-.39,1.42-1.01,2.78-1.59,4.31,2.09,1.31,4.2,2.64,6.32,3.97,1.06.67,2.18,1.28,3.17,2.04.36.28.41.95.6,1.44-.53.03-1.2.28-1.57.05-3.15-1.91-6.24-3.9-9.41-5.9-1.16,1.33-2.27,2.62-3.5,4.03,1.27,1.46,2.54,2.92,3.81,4.38,1.1,1.27,2.26,2.49,3.26,3.83.34.45.61,1.5.38,1.74-.75.75-1.31-.06-1.79-.61-2.2-2.53-4.39-5.08-6.58-7.63-.15-.17-.23-.41-.32-.57-1.53.88-2.84,1.64-4.3,2.48.66,1.6,1.32,3.23,1.99,4.85.88,2.11,1.81,4.19,2.61,6.33.15.41-.2,1.01-.31,1.52-.45-.27-1.14-.44-1.31-.84-1.6-3.66-3.12-7.37-4.69-11.15-1.49.31-2.93.61-4.52.94,0,.39-.04.84,0,1.28.33,3.25.67,6.49,1.01,9.73,0,.09.03.19.03.28,0,.75.37,1.82-.77,1.93-1.26.12-1.03-1.05-1.11-1.83-.39-3.75-.76-7.5-1.14-11.34-1.57-.17-3.08-.34-4.72-.52-.68,3.3-1.35,6.52-2.01,9.74-.14.68-.13,1.43-.41,2.04-.22.49-.78.83-1.19,1.23-.21-.52-.67-1.09-.58-1.56.64-3.48,1.39-6.93,2.1-10.4.1-.5.17-1,.26-1.54-1.61-.79-3.18-1.56-4.91-2.41-.37.59-.81,1.22-1.19,1.89-1.47,2.65-2.91,5.31-4.36,7.97-.2.37-.35.82-.65,1.06-.34.26-.84.32-1.27.47-.1-.44-.28-.88-.27-1.31,0-.29.29-.57.44-.86,1.7-3.1,3.38-6.22,5.12-9.3.48-.84.62-1.42-.34-2.06-.83-.56-1.49-1.38-2.34-2.2-1.11.99-2.25,2-3.38,3.02-1.8,1.62-3.59,3.26-5.39,4.88-.52.47-1.1,1.12-1.78.41-.76-.79,0-1.34.55-1.83,2.94-2.65,5.89-5.3,8.86-7.97-.7-1.36-1.38-2.67-2.14-4.14-1.58.52-3.21,1.04-4.81,1.6-2.07.72-4.11,1.52-6.2,2.16-.47.14-1.11-.23-1.67-.37.33-.46.57-1.16,1.02-1.33,3.14-1.17,6.33-2.22,9.49-3.31.52-.18,1.03-.37,1.57-.57-.27-1.71-.53-3.31-.81-5.05-3.61-.48-7.24-.97-10.88-1.45-.32-.04-.72.03-.96-.13-.4-.28-.7-.7-1.04-1.06.43-.25.88-.75,1.28-.71,2.64.26,5.27.64,7.9.98,1.19.15,2.39.32,3.7.49.23-1.51.5-2.91.63-4.32.02-.28-.44-.73-.78-.89-3.05-1.5-6.12-2.95-9.19-4.42-.13-.06-.3-.09-.37-.19-.29-.45-.86-1-.76-1.36.23-.83.95-.66,1.6-.34,2.67,1.32,5.35,2.62,8.03,3.93.71.34,1.42.68,2.25,1.08,1.5-3.7,3.73-6.8,6.86-9.35-1.87-2.76-3.69-5.45-5.52-8.14-.31-.46-.76-.89-.91-1.4-.14-.47.02-1.03.05-1.55.5.19,1.08.28,1.46.61.44.38.71.97,1.04,1.48,1.74,2.59,3.47,5.18,5.22,7.79,1.24-.6,2.44-1.12,3.54-1.78.26-.15.34-.87.25-1.27-.73-3.13-1.53-6.24-2.3-9.35-.07-.27-.23-.58-.16-.81.14-.47.4-.9.61-1.35.39.32,1.01.57,1.12.96.68,2.47,1.25,4.96,1.85,7.45.28,1.17.57,2.34.87,3.58,1.58-.26,3.08-.5,4.78-.77.18-2.47.36-5,.55-7.54.07-.93.03-1.88.24-2.78.1-.46.63-.83.97-1.23.27.46.78.93.77,1.38-.1,2.7-.32,5.4-.49,8.09-.04.68-.06,1.37-.1,2.09ZM271.5,52.14c10.43,0,18.86-8.62,18.88-19.32.02-10.77-8.12-19.23-18.54-19.26-10.48-.04-19.27,8.72-19.29,19.2-.01,10.84,8.34,19.38,18.94,19.38Z" style="fill: #f80;"/>
  <path d="M268.65,106.59c6.27-5.14,12.5-10.26,18.74-15.37,1.87-1.54,1.87-1.53,3.85,0,14.2,10.98,28.39,21.97,42.62,32.91,1.1.84,1.43,1.7,1.1,3.06-.3-.18-.59-.31-.83-.49-14.46-11.18-28.92-22.35-43.35-33.57-1.09-.85-1.76-.97-2.91,0-5.48,4.64-11.06,9.16-16.6,13.73-.28.23-.54.48-.95.85.6.44,1.1.83,1.62,1.18,20.59,13.9,41.18,27.8,61.8,41.66,1.14.77,1.62,1.56,1.18,2.98-38.18-25.32-76.1-50.99-113.38-78-.62.74-1.22,1.43-1.79,2.13-1.42,1.77-1.59,1.76-3.32.37-5.05-4.06-10.12-8.1-15.19-12.14-.18-.14-.39-.24-.65-.4-1.32.97-2.64,1.92-3.94,2.89-4.53,3.37-9.05,6.74-13.57,10.11-.55.41-1.1,1-1.76.13-.63-.83.1-1.2.58-1.56,5.83-4.35,11.68-8.66,17.51-13.01.95-.71,1.69-.61,2.6.13,4.89,3.96,9.83,7.86,14.76,11.78.36.28.73.54,1.21.89.71-.83,1.39-1.59,2.01-2.38.82-1.04,1.63-1.12,2.74-.33,14.17,10.07,28.37,20.11,42.57,30.15,1.1.78,2.22,1.53,3.34,2.29Z" style="fill: #f80;"/>
  <path d="M100.77,200.66c32.5,0,65,0,97.5,0,.47,0,.95-.07,1.39.04.34.09.62.4.93.62-.25.34-.43.87-.76.98-.6.2-1.28.2-1.93.2-45.88,0-91.76,0-137.64,0-19.26,0-38.51,0-57.77-.02-.37,0-.78.03-1.09-.12-.28-.14-.63-.54-.6-.77.05-.32.37-.76.67-.86.47-.15,1.01-.08,1.52-.08,32.59,0,65.18,0,97.77,0h0Z" style="fill: #f80;"/>
  <path d="M97.57,184.98c-31.85,0-63.7,0-95.54,0-.33,0-.7.08-.96-.05-.33-.17-.76-.51-.78-.8-.02-.29.35-.74.66-.89.35-.17.82-.12,1.23-.12,63.6-.01,127.2-.03,190.81-.03.37,0,.79-.06,1.1.09.27.13.59.53.57.78-.03.34-.3.81-.59.93-.4.17-.91.09-1.38.09-31.71,0-63.42,0-95.12,0Z" style="fill: #f80;"/>
  <path d="M334.87,164.95c-.63-.44-1.14-.8-1.67-1.16-21.22-14.3-42.43-28.62-63.68-42.88-11.65-7.82-23.38-15.52-35.05-23.31-.88-.59-1.48-.6-2.33.03-8.67,6.39-17.36,12.74-26.05,19.11-.34.25-.65.59-1.03.71-.32.1-.87.05-1.04-.16-.2-.24-.23-.8-.09-1.1.16-.35.57-.6.9-.84,8.84-6.48,17.68-12.95,26.52-19.42,1.85-1.35,1.85-1.32,3.75-.07,20.79,13.77,41.59,27.52,62.38,41.29,11.93,7.9,23.81,15.87,35.77,23.73,1.51.99,2.18,2.04,1.61,4.05Z" style="fill: #f80;"/>
  <path d="M38.83,26.49c-.42.6-.9,1.16-1.25,1.79-2.22,4.1-3.8,8.39-3.8,13.14,0,1.12.05,2.25-.09,3.35-.04.36-.6.65-.93.97-.23-.33-.65-.65-.65-.98-.04-2.14.1-4.3,0-6.44-.24-5.29-.57-10.57-.87-15.86h-.57c-.29,3.07-.71,6.14-.83,9.21-.16,4.14-.1,8.29-.13,12.44,0,.14.07.31,0,.41-.24.43-.53.83-.79,1.25-.32-.42-.88-.82-.92-1.27-.13-1.53-.03-3.08-.11-4.61-.24-4.57-1.76-8.73-4.18-12.58-.19-.3-.46-.55-.98-.7.27,1.14.54,2.29.79,3.43.94,4.27,1.88,8.53,2.79,12.81.12.59.2,1.23.09,1.8-.09.44-.51.81-.78,1.21-.31-.36-.88-.7-.9-1.08-.25-3.87-2.93-5.68-6.09-7.14.17.22.32.45.51.65,1.09,1.15,2.29,2.21,3.26,3.45.72.93,1.24,2.07,1.66,3.18.13.33-.37.9-.57,1.36-.31-.3-.7-.55-.92-.91-.7-1.09-1.14-2.42-2.04-3.28-2.17-2.09-4.54-3.98-6.83-5.94-.3-.26-.61-.5-.86-.96,2.05-.56,3.98.06,5.8.73,1.84.68,3.53,1.77,5.39,2.74-.22-.99-.45-2.04-.71-3.09-1-4.07-2.03-8.12-3-12.2-.1-.43.13-.93.21-1.4.43.19.95.28,1.27.58,2.58,2.43,4.65,5.21,5.78,8.62.06.19.19.37.47.88.55-5.37.88-10.42,2.77-15.23,2.14,4.87,2.3,10.06,3.02,15.2,1.21-3.55,3.24-6.52,5.87-9.1.43-.42,1.04-.66,1.56-.99.09.65.37,1.35.23,1.94-1.06,4.43-2.22,8.85-3.33,13.27-.12.48-.2.97-.39,1.9,3.04-2.66,6.34-3.66,9.83-4.14.45-.06.93.12,1.4.19-.32.39-.59.83-.95,1.16-2.41,2.18-4.9,4.27-7.23,6.53-.73.71-1,1.86-1.57,2.76-.2.32-.64.5-.97.74-.19-.38-.64-.85-.54-1.13.39-1.07.81-2.19,1.49-3.09,1.12-1.48,2.44-2.79,3.62-4.38-.33.14-.69.23-.98.43-2.5,1.66-4.81,3.43-4.75,6.88.02.91-.12.92-1.58.7-.33-6.62,2.23-12.73,3.65-19.03-.12-.06-.24-.12-.37-.19Z" style="fill: #f80;"/>
  <path d="M122.37,77.88c.82,0,1.63,0,2.45,0,1.01.01,1.53.45,1.52,1.54-.04,2.56.04,5.13-.05,7.69-.02.5-.59.99-.9,1.48-.31-.49-.87-.97-.89-1.47-.09-2.37-.04-4.75-.04-7.29-.59-.03-1.08-.08-1.57-.08-39.78,0-79.55,0-119.33-.02-.81,0-2.21.57-2.22-.86-.02-1.38,1.37-.95,2.21-.95,33.16,0,66.31.02,99.47.03,6.15,0,12.3,0,18.76,0-1.08-1.3-.48-1.96.42-2.62,3.98-2.93,7.93-5.89,11.91-8.83,1.57-1.16,1.87-1.13,3.16.25,1.74,1.88,3.48,3.77,5.2,5.67.43.47,1.01.99.3,1.66-.7.67-1.19.09-1.63-.39-1.55-1.68-3.12-3.35-4.6-5.08-.67-.78-1.15-.77-1.95-.16-4.05,3.07-8.15,6.07-12.23,9.1.01.11.03.21.04.32Z" style="fill: #f80;"/>
  <path d="M71.58,89.27c22.43,0,44.86,0,67.3,0,.56,0,1.15-.09,1.67.06.35.1.85.54.84.82-.01.34-.43.79-.78.94-.4.17-.92.06-1.38.06-45.19,0-90.38,0-135.57-.02-.79,0-1.95.28-1.94-.95,0-1.12,1.12-.88,1.87-.88,16.51,0,33.02,0,49.53,0,6.16,0,12.31,0,18.47,0v-.03Z" style="fill: #f80;"/>
  <path d="M334.86,182.91c-6.11-4.37-12.1-8.64-18.08-12.93-6.44-4.62-12.82-9.31-19.32-13.85-1-.7-2.42-.93-3.68-1.06-2.09-.23-3.75-1.11-5.35-2.43-13.73-11.34-27.5-22.64-41.26-33.95-.5-.41-1-.81-1.58-1.28-1.75,1.67-3.44,3.27-5.12,4.87-4.39,4.18-8.78,8.36-13.17,12.54-.27.26-.53.58-.86.7-.29.11-.78.09-.98-.09-.21-.19-.32-.69-.23-.97.12-.37.46-.69.76-.97,6.01-5.72,12.02-11.44,18.05-17.15,1.43-1.36,1.5-1.34,3.01-.09,14.26,11.72,28.55,23.41,42.76,35.19,1.65,1.37,3.5,1.51,5.38,1.97,1.32.32,2.71.76,3.79,1.53,11.62,8.27,23.17,16.63,34.77,24.92,1.08.77,1.62,1.57,1.1,3.07Z" style="fill: #f80;"/>
  <path d="M248.71,131.86c-2.59,2.28-5.03,4.44-7.47,6.59-.31.28-.58.67-.95.81-.4.15-.89.07-1.35.1.03-.48-.13-1.16.13-1.42,1.08-1.09,2.28-2.06,3.43-3.08,1.61-1.42,3.22-2.83,4.83-4.25,1.27-1.12,1.61-1.13,2.8.02,10.08,9.69,20.15,19.39,30.23,29.08,6.31,6.07,12.64,12.14,18.93,18.24.55.53,1.07,1.2,1.35,1.91,1.11,2.86,2.1,5.77,3.16,8.66.24.65.48,1.42-.39,1.59-.37.07-1.13-.54-1.31-1-.96-2.42-1.71-4.93-2.71-7.33-.48-1.16-1.19-2.33-2.08-3.19-13.91-13.44-27.87-26.83-41.82-40.22-2.21-2.13-4.43-4.25-6.78-6.5Z" style="fill: #f80;"/>
  <path d="M84.18,158.42c-2.91.14-5.83.43-8.74.41-24.24-.14-48.48-.34-72.73-.52-.37,0-.79.02-1.09-.14-.27-.15-.61-.57-.57-.8.06-.32.41-.65.71-.85.2-.13.54-.05.82-.05,25.59.2,51.19.39,76.78.64,1.62.02,3.23.58,4.85.9-.01.14-.03.28-.04.42Z" style="fill: #f80;"/>
  <path d="M42.78,160.61c13.15,0,26.3,0,39.45.02.68,0,1.86-.5,1.91.72.07,1.37-1.17,1.05-1.99,1.05-26.35.01-52.69,0-79.04,0-.33,0-.71.09-.96-.06-.35-.19-.59-.57-.88-.87.31-.28.58-.65.95-.81.31-.14.73-.04,1.11-.04,13.15,0,26.3,0,39.45,0h0Z" style="fill: #f80;"/>
  <path d="M334.92,193.66c-.51-.48-.91-.86-1.3-1.24-8.43-8.17-16.87-16.34-25.28-24.54-.39-.38-.8-1.03-.74-1.5.09-.84,1.09-.82,1.97.03,2.97,2.9,5.92,5.81,8.89,8.7,5.08,4.94,10.15,9.89,15.29,14.76,1.09,1.04,1.62,2.08,1.18,3.77Z" style="fill: #f80;"/>
  <path d="M334.89,107.4c-3.45-2.41-6.8-4.74-10.15-7.08-2.97-2.08-5.96-4.15-8.91-6.26-.65-.47-1.09-.41-1.7.08-2.34,1.92-4.71,3.8-7.09,5.67-.51.4-1.07,1.16-1.76.31-.7-.87.09-1.36.65-1.81,2.47-1.98,4.99-3.9,7.43-5.91,1.11-.92,1.99-.97,3.2-.09,5.67,4.07,11.38,8.08,17.14,12.03,1.11.76,1.68,1.52,1.18,3.06Z" style="fill: #f80;"/>
</svg>