<?xml version="1.0" encoding="UTF-8"?>
<svg id="Ebene_1" xmlns="http://www.w3.org/2000/svg" viewBox="0 0 235.22 239.85">
  <path d="M235.22,119.72c-.26,24.99-6.55,48.32-20.89,69.1-17.25,24.99-40.81,41.19-70.37,47.91-32.86,7.47-63.63,1.47-91.69-17.12-25.75-17.06-41.78-41.15-48.72-71.11C-3.17,119.49-.53,91.22,12.97,64.55,28.92,33.05,54.31,12.73,88.49,3.65,102.72-.14,117.2-.82,131.81.88c46.37,5.38,85.13,38.26,98.34,83.46,3.37,11.52,4.93,23.3,5.07,35.38ZM115.42,7.25c-2.69.2-7.53.48-12.36.94-2.61.25-5.2.71-7.77,1.27-34.34,7.45-59.64,26.94-75.7,58.03-11.06,21.42-14.13,44.39-11.07,68.24,1.54,12.01,4.87,23.49,10.09,34.41,17.14,35.84,52.96,59.87,92.71,62.19,16,.93,31.53-1.41,46.45-7.3,39.58-15.63,67.21-52.09,69.95-97.62.66-10.95-.06-21.79-2.38-32.52-5.58-25.84-18.54-47.2-39.16-63.76-20.01-16.07-43.03-23.68-70.77-23.87Z"/>
  <path d="M165.39,147.29c0-.57,0-.96,0-1.36,0-10.69.01-21.38-.02-32.07-.06-23.15-15.29-42.35-37.96-47.03-27.09-5.58-51.82,11.75-56.55,37.97-.53,2.92-.74,5.92-.77,8.89-.08,10.78-.02,21.55-.02,32.33,0,.35,0,.71,0,1.19H15.73c-.67-3.94-1.49-7.94-2-11.98-1.07-8.41-1.31-16.86-.59-25.32,1.91-22.43,9.58-42.56,24.08-59.93,11.96-14.32,26.64-24.8,44.18-31.21,13.21-4.83,26.87-6.75,40.91-6.13,20.54.9,39.33,7.1,56.03,19.09,21.43,15.39,35.2,36.04,41.35,61.71,3.13,13.07,3.73,26.32,2.18,39.66-.51,4.41-1.42,8.77-2.09,13.17-.14.91-.53,1.12-1.4,1.11-17.1-.05-34.2-.07-51.3-.09-.52,0-1.05,0-1.69,0ZM55.66,141.34c0-.62,0-1.06,0-1.5,0-8.46-.14-16.93.06-25.39.1-4.34.43-8.74,1.29-12.98,6.42-31.85,36.21-52.93,69.02-48.59,15.73,2.08,28.86,9.29,39.16,21.37,8.85,10.39,13.84,22.49,14.41,36.14.41,9.78.15,19.59.18,29.39,0,.52,0,1.03,0,1.42.22.15.25.2.29.2,8.37.01,16.75,0,25.12.04.9,0,1.14-.38,1.19-1.18.29-4.44.61-8.88.92-13.32.03-.38-.04-.78-.06-1.16h-9.35v3.69h3.56c-.16,2.46-.32,4.75-.47,7.01h-7.37v-16.6h13.54c0-.72.02-1.25,0-1.78-.16-3.91-.26-7.83-.53-11.74-.45-6.58-1.34-13.11-3.39-19.41-5.37-16.56-15.23-30.1-28.52-41.13-9.67-8.03-21.16-12.63-33.08-16.24-.85-.26-1.22-.01-1.36.86-.14.87-.43,1.72-.65,2.58-.99,3.92-1.97,7.83-2.95,11.7,3.66,1.32,7.19,2.59,10.79,3.89,1.25-3.06,2.5-6.12,3.77-9.22,5.45,2.14,10.57,4.57,15.36,7.79-1.45,2.01-2.82,3.91-4.23,5.86-1.16-.8-2.25-1.55-3.39-2.34.92-1.42,1.78-2.75,2.69-4.16-1.06-.66-2.02-1.26-3.1-1.93-1.53,2.54-2.99,4.96-4.47,7.43,3.04,2.08,5.99,4.11,8.98,6.16,2.18-2.92,4.3-5.76,6.58-8.82,3.41,3.14,6.73,6.18,10.11,9.29-3.05,2.44-5.87,4.68-8.63,6.89,2.53,3.42,5,6.76,7.48,10.11,3.17-1.99,6.32-3.96,9.68-6.07,2.1,3.72,4.11,7.29,6.19,10.96-3.78,1.54-7.3,2.97-10.93,4.45,3.09,7.16,5,14.53,5.79,22.25,3.84-.43,7.54-.84,11.44-1.28.17,3.41.34,6.72.52,10.21h-11.59v20.34h-4.72c0-.6,0-1.13,0-1.65,0-6.81.03-13.63-.04-20.44-.03-2.62-.16-5.25-.46-7.86-1.68-14.48-7.55-27.1-17.37-37.8-19.46-21.21-50.19-27.49-76.77-15.86-23.99,10.5-39.82,34.67-39.82,60.82,0,7.04,0,14.07,0,21.11,0,.52,0,1.05,0,1.65h-4.82v-20.37h-11.48c.16-3.45.31-6.75.47-10.14,3.92.43,7.58.83,11.39,1.24.76-7.72,2.68-15.08,5.84-22.23-3.65-1.47-7.21-2.89-11.03-4.43,2.1-3.76,4.12-7.35,6.17-11.01,3.39,2.12,6.58,4.12,9.68,6.06,2.48-3.35,4.92-6.64,7.42-10.01-2.74-2.22-5.56-4.5-8.6-6.95,3.41-3.15,6.65-6.14,9.95-9.2,2.33,3.11,4.46,5.95,6.6,8.81,3.02-2.11,5.93-4.14,8.92-6.23-1.49-2.43-2.98-4.87-4.53-7.39-1.06.69-2.01,1.3-2.99,1.94.92,1.46,1.77,2.81,2.65,4.19-1.15.81-2.22,1.56-3.36,2.36-1.43-2-2.79-3.9-4.19-5.87,4.88-3.3,10.01-5.79,15.44-7.85,1.24,3.14,2.45,6.18,3.64,9.2,3.65-1.3,7.19-2.56,10.88-3.88-1.22-5.09-2.44-10.2-3.67-15.32C51.52,39.6,25.1,79.19,28.54,119.94h13.27v16.6h-7.27c-.15-2.4-.3-4.69-.45-7.12h3.46v-3.64h-9.63c.42,4.88.85,9.61,1.2,14.36.08,1.03.39,1.33,1.43,1.33,7.88-.05,15.77-.04,23.65-.05.44,0,.87-.04,1.46-.07ZM129.76,43.41c.2-1.54.41-2.98.58-4.43.42-3.58.94-7.15,1.19-10.74.21-2.96-1.95-5.16-4.87-5.18-6.01-.04-12.02-.04-18.03.01-3.2.03-5.2,2.29-4.96,5.47.14,1.86.39,3.71.62,5.57.38,3.08.79,6.15,1.2,9.33,8.12-1.21,16.14-1.15,24.27-.04Z"/>
  <path d="M166.84,217.04c-.19-1.62-.3-2.94-.51-4.25-.68-4.26-2.74-7.78-6-10.57-1.69-1.45-3.42-2.86-5.28-4.08-7.12-4.67-11.53-11.33-14.46-19.16-2.51-6.73-3.7-13.72-4.23-20.84-.18-2.4-.2-4.8-.27-7.21-.03-.93-.43-1.61-1.37-1.64-.96-.03-1.59.53-1.63,1.56-.44,12.75.94,25.15,6.93,36.68,2.63,5.06,6.19,9.32,10.79,12.72,2.22,1.64,4.43,3.3,6.55,5.06,4.09,3.4,5.13,8.05,5.14,13.07,0,.28-.23.73-.46.83-2.59,1.14-5.21,2.23-7.85,3.34-.2-2.33-.22-4.51-.61-6.62-.87-4.68-3.28-8.6-6.86-11.64-9.96-8.47-14.56-19.73-17.04-32.12-1.37-6.83-1.88-13.75-1.89-20.71,0-.52,0-1.19-.29-1.52-.38-.43-1.14-.91-1.6-.8-.52.13-1.26.88-1.27,1.37-.28,13.31.83,26.4,6.22,38.82,2.93,6.75,6.91,12.72,12.5,17.59,3.41,2.96,5.67,6.64,6.18,11.19.2,1.79-.02,3.63-.13,5.45-.02.27-.44.64-.74.74-1.26.41-2.55.74-3.89,1.11-.21-1.77-.33-3.48-.65-5.16-.68-3.64-2.27-6.93-4.99-9.4-9-8.16-13.9-18.52-16.68-30.1-1.98-8.23-2.88-16.57-2.74-25.01.13-8.01.41-16.03.68-24.04.01-.39.43-.99.78-1.1,2.53-.76,4.33-2.38,5.76-4.51.28-.42.68-.86,1.13-1.06,2.95-1.36,4.35-3.73,4.5-6.86.11-2.23.58-4.13,2.9-5.1.24-.1.19-.91.29-1.48-2.97.58-4.64,2.67-4.74,5.73-.06,1.69-.34,3.27-1.48,4.6-.28.33-.47.75-.71,1.12-.1-.1-.21-.2-.31-.3.32-4.17.51-8.36,1.02-12.51.32-2.57,2.36-3.84,4.74-4.69-.03-.42-.07-.85-.11-1.44-4.02.94-6.22,3.32-6.54,7.51-1.9-2.98-1.54-4.99,1.88-11.12-.36-.27-.73-.56-1.18-.9-2.79,3.97-4.8,7.84-2.41,12.79,1.76,3.65,1.84,7.56.33,11.41-.83,2.12-2.31,3.67-4.27,4.78-.44.25-.97.34-1.81.63.32-.56.39-.86.59-1.01,3.3-2.66,3.96-6.27,3.76-10.21-.16-3.11-.3-6.21-.44-9.32-.01-.22-.01-.46.06-.66,1.64-4.82-.89-8.7-2.81-12.83-.47.19-.87.34-1.35.53.17.44.27.82.45,1.17,1.63,3.24,1.27,6.36-.22,9.61-1.6,3.5-3,7.11-4.21,10.77-.87,2.62-.76,5.33.55,7.92.22.44-.21,1.2-.37,1.94-2.77-1.96-3.93-5.66-2.85-9.16.56-1.81,1.45-3.53,2.26-5.25.62-1.33,1.43-2.57,2.03-3.91,1.72-3.82.84-8.42-2.2-11.53-.33.24-.66.5-1.04.77.48.79.96,1.49,1.34,2.23,1.48,2.88,1.56,5.79.06,8.7-1.08,2.09-2.19,4.17-3.21,6.3-.93,1.96-1.31,4.05-1.11,6.23.21,2.31,1.12,4.28,2.81,5.88.43.41.82.87,1.23,1.31l-.2.35c-.54-.19-1.11-.32-1.62-.58-3.92-2.02-5.87-7.12-4.35-11.9.65-2.06,1.71-3.99,2.64-5.96,1.87-3.99.6-8.43-3.22-10.89-.26.31-.54.63-.8.95,4.83,4.8,3.64,7.78,1.56,10.75-.46-1.51-.79-3.24-1.53-4.77-.77-1.61-2.29-2.53-4.05-2.99-.57.8-.57,1.32.43,1.76,2.16.94,3.07,2.75,3.13,5.01.03,1.15-.17,2.31-.18,3.46-.03,3,0,5.99,0,8.95-1.7-1.69-2.5-3.78-2.01-6.36.67-3.54-.36-6.16-3.07-7.83-.23.35-.47.7-.77,1.14,2.52,1.82,2.63,4.26,2.15,6.97-.6,3.45,1.13,6.65,4.23,8.35.44.24.87.63,1.13,1.05,1.29,2.1,3.11,3.49,5.41,4.34.37.14.83.67.84,1.04.32,8.99.8,17.98.82,26.97.03,11.96-2.17,23.54-6.93,34.56-2.8,6.49-6.72,12.22-11.97,17.02-4.09,3.74-6.14,8.43-6.18,13.98,0,.35,0,.7,0,1.29-1.55-.45-2.98-.83-4.37-1.32-.24-.09-.4-.63-.46-.98-.93-5.51.55-10.32,4.34-14.39,2.48-2.67,5.25-5.11,7.54-7.93,5.84-7.2,9.04-15.66,11.1-24.59,1.93-8.34,2.19-16.84,2.16-25.35,0-1.07-.53-1.75-1.6-1.72-1.07.03-1.62.66-1.68,1.82-.21,4.58-.28,9.18-.78,13.73-1.3,11.88-4.47,23.15-11.89,32.82-1.56,2.03-3.44,3.85-5.34,5.59-3.79,3.47-6.93,7.34-7.93,12.51-.42,2.16-.46,4.4-.68,6.71-.18-.05-.51-.09-.81-.21-2.18-.9-4.34-1.83-6.53-2.71-.66-.27-.96-.62-.96-1.38-.02-5.67,1.74-10.47,6.53-13.89,2.28-1.63,4.51-3.34,6.69-5.1,6.45-5.21,10.34-12.11,12.94-19.85,3.05-9.03,3.67-18.37,3.44-27.8-.03-1.09-.4-2.02-1.65-2-1.33.02-1.44,1.06-1.44,2.11-.02,8.73-.97,17.34-3.86,25.62-1.09,3.13-2.53,6.17-4.07,9.12-2.7,5.18-6.89,9-11.65,12.27-1.72,1.18-3.36,2.5-4.93,3.87-3.72,3.26-5.79,7.38-6.12,12.33-.04.58-.09,1.15-.14,1.73,0,.08-.08.15-.25.43-2.77-1.66-5.56-3.29-8.3-5-.24-.15-.33-.8-.26-1.18.93-5.74,2.98-10.77,8.48-13.76,2.97-1.61,5.83-3.44,8.67-5.26,9.74-6.27,15.35-15.14,16.51-26.7.35-3.45.58-6.92.6-10.39.08-13.63.02-27.26.09-40.89.05-10.2,5.58-18.56,14.51-22.17,14.43-5.84,30.49,3.78,32.11,19.25.13,1.24.2,2.49.2,3.73.02,13.14.03,26.28.03,39.42,0,6.52.49,13,2.5,19.25,2.55,7.96,7.65,13.98,14.63,18.44,3.26,2.08,6.57,4.1,9.89,6.08,5.1,3.04,6.41,8.14,7.43,13.42.05.28-.11.76-.33.89-2.74,1.71-5.51,3.38-8.42,5.14Z"/>
  <path d="M160.37,147.22h-13.6c0-.6,0-1.12,0-1.64,0-10.78.02-21.55,0-32.33-.05-14.65-9.74-26.33-24.1-29.09-15.16-2.92-30.62,7.56-33.35,22.7-.43,2.39-.58,4.86-.6,7.29-.06,10.55-.04,21.11.01,31.66,0,1.16-.29,1.53-1.48,1.51-4-.07-8-.03-12.05-.03-.07-.32-.15-.53-.15-.73.02-11.84-.2-23.69.13-35.53.53-19.61,15.68-36.52,35.06-39.6,18-2.85,34.96,4.82,44.13,20.03,3.89,6.46,5.94,13.51,6,21.04.1,11.22.05,22.44.06,33.66,0,.31-.03.62-.06,1.04Z"/>
  <path d="M216.64,161.34c-.72,1.7-1.31,3.23-2.04,4.68-.16.31-.88.47-1.33.47-8.55-.1-17.1-.23-25.65-.36-1.34-.02-2.67-.05-4.01-.02-1.62.03-2.71-.71-3.36-2.16-.51-1.14-.98-2.29-1.48-3.43-1.08-2.42-2.93-3.52-5.6-3.5-8.86.04-17.73,0-26.59,0-.44,0-.87,0-1.46,0v-5.86c.35-.02.73-.07,1.12-.07,10.19,0,20.39.05,30.58-.03,2.71-.02,4.36,1.18,5.35,3.56.34.82.6,1.68.96,2.49,1.25,2.82,3.3,4.43,6.52,4.4,8.42-.08,16.83-.12,25.25-.17.49,0,.98,0,1.74,0Z"/>
  <path d="M117.93,178.31c.51,2.08,1.12,4.66,1.79,7.22,2.79,10.59,7.86,19.88,15.66,27.64,3.29,3.27,4.93,7.21,4.77,11.9-.04,1.12-.28,1.75-1.51,1.77-.61,0-1.22.21-1.96.34-.24-.85-.35-1.76-.75-2.52-1.25-2.4-2.39-4.9-3.97-7.07-4.99-6.86-9.24-14.14-13.18-21.62-.29-.54-.62-1.05-1.05-1.76-.89,1.61-1.71,3.03-2.47,4.48-3.49,6.68-7.48,13.04-11.97,19.09-2.05,2.77-3.82,5.68-4.47,9.34-1.04-.21-2.05-.32-2.98-.66-.31-.12-.56-.82-.58-1.26-.22-4.77,1.5-8.78,4.89-12.1,5.77-5.66,10.18-12.28,13.05-19.8,1.91-5,3.25-10.22,4.72-14.97Z"/>
  <path d="M28.96,181.38c-2.2-3.85-4.15-7.27-6.22-10.89.65-.07.97-.13,1.3-.13,9.22-.15,18.44-.34,27.65-.4,3.4-.02,5.66-1.49,7.04-4.51.5-1.09.87-2.26,1.5-3.27.35-.55,1.12-1.16,1.71-1.16,9.17-.07,18.35-.05,27.52-.04.08,0,.17.05.48.14-.18,1.65-.36,3.34-.56,5.17-.65,0-1.17,0-1.69,0-6.55-.02-13.1.05-19.64-.1-3.15-.08-5.16,1.21-6.4,4-.52,1.18-1.13,2.32-1.7,3.47-.79,1.6-2.06,2.32-3.87,2.3-6.81-.05-13.63-.04-20.44-.05-2.89,0-3.76.65-4.93,3.35-.29.67-.96,1.18-1.74,2.11Z"/>
  <path d="M18.91,161.49c4.2,0,8.2,0,12.21,0,4.85,0,9.71-.02,14.56.04,3.26.04,5.37-1.53,6.64-4.41.43-.98.75-2,1.22-2.96.97-2,2.48-3.09,4.85-3.08,10.42.04,20.83,0,31.25,0,.21,0,.42.03.71.05v5.9c-.55,0-1.06,0-1.57,0-8.68,0-17.37.08-26.05-.01-3.19-.04-5.26,1.24-6.39,4.18-.4,1.04-.85,2.05-1.33,3.06-.57,1.19-1.54,1.82-2.87,1.84-10.06.16-20.12.32-30.18.44-.39,0-1-.26-1.15-.57-.69-1.43-1.26-2.92-1.9-4.47Z"/>
  <path d="M146.17,166.24c-.22-1.71-.42-3.37-.66-5.22.53-.03.95-.07,1.37-.07,8.68,0,17.36,0,26.04-.04,1.25,0,2.01.42,2.47,1.56.49,1.19,1.01,2.37,1.59,3.52,1.32,2.63,3.44,3.93,6.42,3.96,8.95.09,17.89.23,26.84.36.71,0,1.42,0,2.57,0-2.14,3.72-4.14,7.18-6.36,11.05-.8-1.05-1.49-1.68-1.83-2.46-.88-2.03-2.27-3.03-4.54-3.01-6.77.06-13.53,0-20.3.09-2.2.03-3.63-.8-4.52-2.78-.63-1.42-1.34-2.81-2.09-4.17-1.09-1.97-2.79-2.86-5.06-2.84-6.81.05-13.62.05-20.43.06-.44,0-.88,0-1.51,0Z"/>
  <path d="M35.08,189.56c-1.46-1.95-2.71-3.62-4.07-5.44,1.68-.59,2.49-1.85,3.08-3.32.4-1,1.27-1.09,2.22-1.09,6.59.03,13.18-.06,19.77.1,3.58.09,5.94-1.41,7.44-4.53.62-1.28,1.22-2.57,1.85-3.84.45-.91,1.16-1.39,2.24-1.38,6.81.03,13.62.03,20.44.04.13,0,.26.05.62.14-.59,1.7-1.12,3.37-1.77,5.01-.1.25-.72.46-1.06.42-6.73-.86-13.42.34-20.13.33-.06,0-.13.09-.28.21,3.11,3.73,6.92,6.41,11.52,8.06-.33.03-.65.08-.98.08-11.44,0-22.89.04-34.33-.03-2.65-.02-4.62.64-5.39,3.46-.15.55-.64,1.02-1.15,1.79Z"/>
  <path d="M158.6,184.3c4.64-1.65,8.44-4.36,11.68-8.22-2.41-.12-4.65-.29-6.88-.32-4.53-.07-9.06-.04-13.6-.1-.4,0-1.04-.22-1.15-.5-.64-1.6-1.15-3.24-1.76-5.05,2.94,0,5.64,0,8.35,0,4.1,0,8.19,0,12.29-.06,1.35-.02,2.19.52,2.73,1.7.62,1.33,1.21,2.67,1.89,3.97,1.43,2.72,3.6,4.12,6.78,4.08,6.63-.09,13.27-.03,19.9-.1,1.38-.02,2.18.43,2.82,1.69.56,1.09,1.54,1.96,2.52,3.14-1.04,1.36-2.29,3-3.74,4.92-.56-.83-1.12-1.4-1.39-2.08-.88-2.2-2.45-3.05-4.79-3.04-11.67.05-23.33.03-35,.03-.22,0-.44-.02-.66-.04Z"/>
  <path d="M131.47,228c-1.93.2-3.78.39-5.79.59-.96-5.74-4.42-10.06-7.93-14.55-3.5,4.45-7,8.73-7.99,14.53-1.9-.2-3.74-.4-5.82-.62.25-.93.34-1.83.72-2.58,1.27-2.49,2.55-4.98,3.99-7.37,2.84-4.73,5.79-9.39,8.7-14.08.11-.19.24-.36.45-.66.61,1.09,1.14,2.11,1.74,3.08,2.69,4.3,5.38,8.6,8.11,12.87,2.21,3.44,3.38,6,3.82,8.78Z"/>
  <path d="M15.29,151.21h35.01c-.55,1.69-.95,3.37-1.65,4.91-.65,1.44-2.12,1.59-3.56,1.58-7.74-.06-15.48-.11-23.22-.16-1.25,0-2.49.02-3.73-.07-.35-.02-.87-.33-.98-.62-.67-1.83-1.24-3.68-1.87-5.63Z"/>
  <path d="M185.2,151.2h35.01c-.69,2.04-1.3,3.99-2.04,5.9-.1.26-.84.37-1.28.38-6.81.08-13.62.13-20.43.19-2.05.02-4.1.02-6.14.02-2.47,0-3.34-.68-4.03-3.01-.32-1.1-.68-2.19-1.08-3.47Z"/>
  <path d="M74.43,188.18c-2.48,1.83-4.91,3.21-8.18,2.97-5.01-.36-10.05-.16-15.08-.19-.22,0-.43.04-.74.07-.72,3.66-1.32,7.36-4.1,10.35-3.06-2.94-6.07-5.82-8.91-8.56.89-1.3,1.68-2.13,2.07-3.11.5-1.26,1.26-1.58,2.53-1.57,8.68.05,17.36.04,26.04.04,2.12,0,4.25,0,6.37,0Z"/>
  <path d="M160.32,188.17c11.36,0,22.33.01,33.31-.02,1.14,0,1.76.41,2.27,1.42.51,1,1.29,1.86,2.18,3.1-2.88,2.8-5.9,5.72-8.97,8.71-2.77-2.97-3.36-6.68-4.08-10.43-1.26,0-2.45,0-3.65,0-5.03.05-10.06.1-15.09.14-.3,0-.64-.05-.9-.19-1.6-.84-3.18-1.71-5.07-2.73Z"/>
  <path d="M186.36,203.85c-2.27,1.77-4.4,3.43-6.69,5.23-1.34-5.42-2.81-10.58-7.85-14.17,3.49,0,6.58-.02,9.66.03.25,0,.64.44.71.74.67,3,1.87,5.73,4.17,8.17Z"/>
  <path d="M55.83,209.03c-2.31-1.79-4.47-3.46-6.75-5.23,2.31-2.57,3.63-5.47,4.27-8.79h10.13c-4.88,3.43-6.41,8.53-7.64,14.02Z"/>
  <path d="M123.05,103.63c-.03.67.05,1.26-.1,1.79-1.1,3.88-.45,7.77-.09,11.66.3,3.22.07,6.32-2.06,8.98-.27.34-.58.65-.87.98-.95-.7-1.08-1.39-.48-2.41,1.5-2.53,1.21-5.3.8-8.05-.1-.7-.24-1.4-.41-2.09-.53-2.08-.3-3.97.89-5.85.95-1.51,1.53-3.25,2.34-5.02Z"/>
  <path d="M114.27,228.82c.41-2.85,1.86-5.09,3.48-7.39,1.58,2.31,3.05,4.54,3.44,7.39h-6.92Z"/>
  <path d="M162.37,178.81c-2.6,1.46-5.32,2.61-8.31,2.95-.54.06-1.29-.24-1.69-.63-.75-.72-1.32-1.62-2.17-2.71h12.15c0,.13.02.25.03.38Z"/>
  <path d="M85.26,178.45c-1.03,1.26-1.8,2.27-2.65,3.21-.18.2-.66.21-.98.17-3.07-.41-5.92-1.47-8.55-3.38h12.18Z"/>
  <path d="M116.69,131.04h2.21c-.23,5.55-.46,11-.69,16.45l-.4.08c-.13-.34-.37-.67-.39-1.02-.26-5.15-.49-10.3-.73-15.51Z"/>
  <path d="M117.89,124.41c-1.29-2.65-1.04-6.82.46-9.25.62,3.08,1.21,6.1-.46,9.25Z"/>
  <path d="M119.11,129.27h-2.52c.43-.88.76-1.56,1.25-2.56.49.98.83,1.66,1.27,2.56Z"/>
  <path d="M46.7,86.84c-1.46,5.53-2.86,10.83-4.3,16.28-2.2-.24-4.65-.52-7.33-.81.32-2.4.64-4.7.97-7.18,1.59.36,3.03.68,4.55,1.03.27-1.15.52-2.17.8-3.36-1.45-.46-2.87-.92-4.49-1.44.83-2.48,1.65-4.89,2.5-7.42,2.64,1.05,5.1,2.02,7.3,2.89Z"/>
  <path d="M200.37,102.32c-2.73.28-5.2.54-7.42.77-1.44-5.46-2.84-10.76-4.28-16.22,2.19-.87,4.62-1.83,7.28-2.89.84,2.44,1.67,4.85,2.54,7.37-1.63.52-3.09.99-4.65,1.48.3,1.14.57,2.2.86,3.34,1.49-.34,2.91-.67,4.57-1.05.36,2.4.71,4.7,1.09,7.2Z"/>
  <path d="M179.76,70.72c-1.17-1.59-2.29-3.11-3.47-4.71,1.93-1.5,3.81-2.96,5.85-4.54,1.3,1.68,2.56,3.31,3.92,5.07-2.16,1.43-4.2,2.79-6.3,4.18Z"/>
  <path d="M59.04,66.03c-1.22,1.61-2.33,3.1-3.5,4.65-2.05-1.35-4.08-2.68-6.27-4.12,1.33-1.74,2.59-3.36,3.9-5.07,2.02,1.56,3.9,3.02,5.87,4.55Z"/>
  <path d="M87.43,37.89c1.81-.59,3.52-1.15,5.37-1.75.52,2.09,1.01,4.05,1.53,6.13-1.56.54-3.08,1.07-4.67,1.63-.74-1.98-1.44-3.88-2.23-6Z"/>
  <path d="M145.52,43.87c-1.55-.55-3.04-1.08-4.59-1.64.53-2.02,1.05-3.97,1.6-6.07,1.79.59,3.49,1.15,5.32,1.75-.79,2.03-1.54,3.95-2.33,5.95Z"/>
  <path d="M108.67,39c-.44-3.52-.93-7.04-1.3-10.57-.13-1.18.68-1.6,1.8-1.6,4.1.02,8.19,0,12.29,0,1.51,0,3.03-.02,4.54,0,1.37.02,1.92.52,1.78,1.88-.34,3.45-.77,6.88-1.16,10.29h-17.95ZM112.33,34.89h10.61c.12-1.22.23-2.29.34-3.37h-11.32c.13,1.18.24,2.24.37,3.37Z"/>
</svg>